<svg width="24" height="24" viewBox="0 0 24 24" fill="none" xmlns="http://www.w3.org/2000/svg">
<rect width="24" height="24" rx="12" fill="#F3EFFE"/>
<path d="M12 4C9.79086 4 8 5.79086 8 8C8 10.2091 9.79086 12 12 12C14.2091 12 16 10.2091 16 8C16 5.79086 14.2091 4 12 4ZM9 8C9 6.34315 10.3431 5 12 5C13.6569 5 15 6.34315 15 8C15 9.65685 13.6569 11 12 11C10.3431 11 9 9.65685 9 8ZM7.00873 13C5.90315 13 5 13.8869 5 15C5 16.6912 5.83281 17.9663 7.13499 18.7966C8.41697 19.614 10.1453 20 12 20C13.8547 20 15.583 19.614 16.865 18.7966C18.1672 17.9663 19 16.6912 19 15C19 13.8956 18.1045 13 17 13L7.00873 13ZM6 15C6 14.4467 6.44786 14 7.00873 14L17 14C17.5522 14 18 14.4478 18 15C18 16.3088 17.3777 17.2837 16.3274 17.9534C15.2568 18.636 13.7351 19 12 19C10.2649 19 8.74318 18.636 7.67262 17.9534C6.62226 17.2837 6 16.3088 6 15Z" fill="#6A3DED"/>
</svg>
