<svg width="20" height="20" viewBox="0 0 20 20" fill="none" xmlns="http://www.w3.org/2000/svg">
<path d="M9.68422 17.1821C8.70061 17.1821 7.77346 16.9952 6.90276 16.6213C6.03207 16.2473 5.2695 15.7331 4.61505 15.0788C3.96075 14.4243 3.44658 13.662 3.07255 12.7919C2.69866 11.9218 2.51172 10.9931 2.51172 10.0059C2.51172 9.01864 2.69866 8.09316 3.07255 7.22941C3.44658 6.36566 3.96075 5.60656 4.61505 4.95212C5.2695 4.29781 6.03075 3.78364 6.8988 3.40961C7.767 3.03573 8.69352 2.84878 9.67839 2.84878C9.82477 2.84878 9.97964 2.85225 10.143 2.8592C10.3064 2.86614 10.4616 2.88191 10.6084 2.90649C10.7224 2.92357 10.8021 2.96232 10.8476 3.02274C10.8928 3.08302 10.9155 3.16712 10.9155 3.27503C10.9155 3.34128 10.8661 3.40913 10.7673 3.47857C10.6685 3.54802 10.5782 3.5742 10.4965 3.55712C10.3625 3.53253 10.2292 3.51142 10.0967 3.49378C9.96422 3.47614 9.82477 3.46732 9.67839 3.46732C9.18589 4.08705 8.82318 4.73809 8.59026 5.42045C8.35734 6.10295 8.16984 6.81621 8.02776 7.56024H10.6655C10.7605 7.56024 10.8398 7.59163 10.9034 7.65441C10.967 7.71719 10.9988 7.79545 10.9988 7.8892C10.9988 7.98295 10.967 8.06267 10.9034 8.12837C10.8398 8.19406 10.7605 8.22691 10.6655 8.22691H8.01651C7.97429 8.51969 7.94533 8.8151 7.92964 9.11316C7.9138 9.41121 7.90589 9.71198 7.90589 10.0154C7.90589 10.3189 7.9138 10.6197 7.92964 10.9177C7.94533 11.2158 7.97429 11.5112 8.01651 11.804H11.3361C11.388 11.5251 11.4201 11.2412 11.4323 10.9523C11.4447 10.6636 11.4509 10.3721 11.4509 10.0779C11.4509 9.92837 11.4482 9.77503 11.4428 9.61795C11.4375 9.461 11.4279 9.30774 11.414 9.15816C11.4108 9.05663 11.4446 8.97753 11.5153 8.92087C11.5858 8.8642 11.6635 8.83587 11.7484 8.83587C11.8459 8.83587 11.9283 8.88024 11.9957 8.96899C12.063 9.0576 12.0983 9.14732 12.1015 9.23816C12.1154 9.36788 12.125 9.50385 12.1303 9.64607C12.1357 9.78843 12.1384 9.92448 12.1384 10.0542C12.1384 10.3457 12.1322 10.6405 12.1198 10.9386C12.1076 11.2366 12.0769 11.5251 12.0278 11.804H15.9107C16.0036 11.5122 16.0714 11.2177 16.1142 10.9207C16.157 10.6234 16.1784 10.3236 16.1784 10.0213C16.1784 9.886 16.1757 9.74719 16.1705 9.60482C16.1651 9.46246 16.1485 9.32371 16.1207 9.18857C16.1036 9.10093 16.126 9.02024 16.188 8.94649C16.2499 8.87274 16.3215 8.83587 16.4028 8.83587C16.5107 8.83587 16.5975 8.86205 16.6632 8.91441C16.7289 8.96677 16.7703 9.0426 16.7873 9.14191C16.8119 9.2801 16.8277 9.42566 16.8346 9.57857C16.8416 9.73163 16.8451 9.87725 16.8451 10.0154C16.8451 11.0003 16.6581 11.9268 16.2842 12.795C15.9102 13.6631 15.396 14.4243 14.7417 15.0788C14.0873 15.7331 13.3267 16.2473 12.4598 16.6213C11.5929 16.9952 10.6677 17.1821 9.68422 17.1821ZM3.44609 11.804H7.32901C7.27984 11.4973 7.24915 11.195 7.23693 10.8969C7.22457 10.5989 7.21839 10.2911 7.21839 9.97378C7.21839 9.6842 7.22457 9.39038 7.23693 9.09232C7.24915 8.79427 7.27984 8.5058 7.32901 8.22691H3.44609C3.35846 8.51969 3.29193 8.8151 3.24651 9.11316C3.20109 9.41121 3.17839 9.71198 3.17839 10.0154C3.17839 10.3189 3.20109 10.6197 3.24651 10.9177C3.29193 11.2158 3.35846 11.5112 3.44609 11.804ZM3.63984 7.56024H7.3563C7.49644 6.82788 7.68505 6.12024 7.92214 5.43732C8.15922 4.75441 8.48825 4.10788 8.90922 3.49774C7.73075 3.67302 6.67464 4.12121 5.74089 4.84232C4.80714 5.56357 4.10679 6.46955 3.63984 7.56024ZM8.88839 16.5332C8.46311 15.9337 8.13026 15.2911 7.88984 14.6052C7.64957 13.9193 7.47172 13.2077 7.3563 12.4707H3.63984C4.10679 13.572 4.8045 14.4834 5.73297 15.2046C6.6613 15.9257 7.71311 16.3686 8.88839 16.5332ZM9.67839 16.5011C10.1217 15.9016 10.4746 15.2622 10.7369 14.5827C10.9991 13.9033 11.1965 13.1993 11.329 12.4707H8.02776C8.17415 13.1993 8.37234 13.9086 8.62234 14.5988C8.87234 15.2889 9.22436 15.923 9.67839 16.5011ZM10.4684 16.5332C11.6437 16.3793 12.6955 15.9391 13.6238 15.2125C14.5523 14.486 15.25 13.572 15.7169 12.4707H12.0005C11.8317 13.1864 11.6325 13.8898 11.4028 14.5811C11.173 15.2723 10.8616 15.923 10.4684 16.5332Z" fill="#2065AA"/>
<path d="M11.3081 6.02426C11.2501 5.93839 11.2231 5.83335 11.2274 5.70912C11.2316 5.58489 11.2633 5.4699 11.3224 5.36416L12.1981 3.79912L11.6886 3.0089C11.6553 2.9542 11.6383 2.89771 11.6376 2.83942C11.6369 2.78104 11.6516 2.72486 11.6818 2.6709C11.712 2.61693 11.7522 2.575 11.8022 2.54512C11.8522 2.51526 11.9093 2.50022 11.9733 2.5L15.2269 2.55974C15.2755 2.55947 15.3221 2.56547 15.3666 2.57776C15.4112 2.5901 15.454 2.6078 15.4952 2.63085C15.5364 2.6539 15.5739 2.68117 15.6077 2.71265C15.6415 2.74419 15.6711 2.78075 15.6964 2.82233L17.6957 5.9278C17.7243 5.98285 17.7388 6.03876 17.739 6.09555C17.7392 6.1523 17.7253 6.20564 17.6973 6.25557L16.5251 8.35073C16.4927 8.40869 16.4406 8.44931 16.3688 8.47261C16.2971 8.49585 16.233 8.4917 16.1767 8.46016C16.1202 8.42858 16.0846 8.37695 16.0697 8.30527C16.0548 8.23349 16.0636 8.16863 16.096 8.11068L17.2357 6.07382L16.2245 6.05197L15.3489 7.61701C15.2897 7.72275 15.2105 7.80919 15.1113 7.87635C15.012 7.9435 14.9062 7.97623 14.7938 7.97454L12.8302 7.94666C12.7784 7.94587 12.7316 7.93815 12.6898 7.92351C12.6481 7.90884 12.6073 7.89032 12.5673 7.86794C12.5272 7.84554 12.4895 7.82008 12.454 7.79157C12.4186 7.763 12.387 7.72686 12.3592 7.68315L11.3081 6.02426ZM13.8689 5.44807C13.8786 5.46553 13.8893 5.47751 13.9009 5.484C13.9126 5.49053 13.9284 5.49335 13.9483 5.49248L16.8018 5.5357L15.2702 3.12985C15.2605 3.11241 15.2499 3.10044 15.2382 3.09391C15.2266 3.08742 15.2108 3.08459 15.1908 3.08544L12.3361 3.03707L13.8689 5.44807ZM12.7925 7.3645C12.8022 7.38193 12.8134 7.3942 12.8261 7.40131C12.8388 7.40842 12.8551 7.41154 12.875 7.41067L14.8155 7.45177C14.8388 7.44984 14.8583 7.44351 14.874 7.43277C14.8897 7.42207 14.904 7.40527 14.9168 7.38239L15.6608 6.05263L13.9369 6.01921C13.8763 6.02129 13.8226 6.01558 13.7759 6.00209C13.7292 5.98861 13.6841 5.96971 13.6407 5.9454C13.5899 5.91699 13.547 5.88666 13.512 5.85441C13.477 5.82219 13.4473 5.78126 13.4228 5.73161L12.4924 4.2799L11.7484 5.60966C11.7382 5.62797 11.732 5.64779 11.7298 5.66912C11.7276 5.69036 11.7318 5.71143 11.7423 5.73232L12.7925 7.3645Z" fill="#2065AA"/>
</svg>
