<svg width="20" height="21" viewBox="0 0 20 21" fill="none" xmlns="http://www.w3.org/2000/svg">
<g id="Icon-left">
<path id="Shape" d="M9 2.5C6.79086 2.5 5 4.29086 5 6.5C5 8.70914 6.79086 10.5 9 10.5C11.2091 10.5 13 8.70914 13 6.5C13 4.29086 11.2091 2.5 9 2.5ZM6 6.5C6 4.84315 7.34315 3.5 9 3.5C10.6569 3.5 12 4.84315 12 6.5C12 8.15685 10.6569 9.5 9 9.5C7.34315 9.5 6 8.15685 6 6.5ZM4.00873 11.5C2.90315 11.5 2 12.3869 2 13.5C2 15.1912 2.83281 16.4663 4.13499 17.2966C5.41697 18.114 7.14526 18.5 9 18.5C9.41085 18.5 9.8155 18.4811 10.2105 18.4427C9.97298 18.1472 9.7654 17.8266 9.59233 17.4855C9.39798 17.4951 9.20041 17.5 9 17.5C7.26489 17.5 5.74318 17.136 4.67262 16.4534C3.62226 15.7837 3 14.8088 3 13.5C3 12.9467 3.44786 12.5 4.00873 12.5L9.59971 12.5C9.7826 12.1422 10.0035 11.8071 10.2572 11.5L4.00873 11.5ZM13.875 13C13.875 12.6548 14.1548 12.375 14.5 12.375C14.8452 12.375 15.125 12.6548 15.125 13C15.125 13.3452 14.8452 13.625 14.5 13.625C14.1548 13.625 13.875 13.3452 13.875 13ZM15 17C15 17.2761 14.7761 17.5 14.5 17.5C14.2239 17.5 14 17.2761 14 17V15C14 14.7239 14.2239 14.5 14.5 14.5C14.7761 14.5 15 14.7239 15 15V17ZM10 15C10 12.5147 12.0147 10.5 14.5 10.5C16.9853 10.5 19 12.5147 19 15C19 17.4853 16.9853 19.5 14.5 19.5C12.0147 19.5 10 17.4853 10 15ZM11 15C11 16.933 12.567 18.5 14.5 18.5C16.433 18.5 18 16.933 18 15C18 13.067 16.433 11.5 14.5 11.5C12.567 11.5 11 13.067 11 15Z" fill="currentColor"/>
</g>
</svg>
