<svg width="20" height="21" viewBox="0 0 20 21" fill="none" xmlns="http://www.w3.org/2000/svg">
<g id="Checkmark Starburst">
<path id="Shape" d="M8.46149 2.39751L9.45114 2.78698C9.80417 2.92592 10.1967 2.92592 10.5498 2.78698L11.5394 2.39751C12.7508 1.92078 14.1221 2.4888 14.6415 3.68245L15.0659 4.65764C15.2173 5.00551 15.4949 5.2831 15.8428 5.43449L16.818 5.85888C18.0116 6.37833 18.5796 7.74966 18.1029 8.961L17.7134 9.95065C17.5745 10.3037 17.5745 10.6962 17.7134 11.0493L18.1029 12.0389C18.5796 13.2503 18.0116 14.6216 16.818 15.1411L15.8428 15.5654C15.4949 15.7168 15.2173 15.9944 15.0659 16.3423L14.6415 17.3175C14.1221 18.5111 12.7508 19.0792 11.5394 18.6024L10.5498 18.2129C10.1967 18.074 9.80417 18.074 9.45114 18.2129L8.46149 18.6024C7.25014 19.0792 5.87882 18.5111 5.35937 17.3175L4.93498 16.3423C4.78359 15.9944 4.506 15.7168 4.15813 15.5654L3.18293 15.1411C1.98929 14.6216 1.42127 13.2503 1.898 12.0389L2.28747 11.0493C2.42641 10.6962 2.42641 10.3037 2.28747 9.95065L1.898 8.961C1.42127 7.74966 1.98929 6.37833 3.18293 5.85888L4.15813 5.43449C4.506 5.2831 4.78359 5.00551 4.93498 4.65764L5.35937 3.68245C5.87882 2.4888 7.25014 1.92078 8.46149 2.39751ZM12.6267 8.16779L8.97905 12.2715L7.35401 10.6464C7.15875 10.4512 6.84216 10.4512 6.6469 10.6464C6.45164 10.8417 6.45164 11.1583 6.6469 11.3535L8.6469 13.3535C8.85033 13.5569 9.18303 13.5472 9.37416 13.3321L13.3742 8.83215C13.5576 8.62576 13.539 8.30972 13.3326 8.12626C13.1262 7.9428 12.8102 7.96139 12.6267 8.16779Z" fill="#028D5E"/>
</g>
</svg>
