<svg width="8" height="9" viewBox="0 0 8 9" fill="none" xmlns="http://www.w3.org/2000/svg">
<path d="M4.52174 1.02174C4.52174 0.733591 4.28815 0.5 4 0.5C3.71185 0.5 3.47826 0.733591 3.47826 1.02174V3.97826H0.521739C0.233591 3.97826 0 4.21185 0 4.5C0 4.78815 0.233591 5.02174 0.521739 5.02174H3.47826V7.97826C3.47826 8.26641 3.71185 8.5 4 8.5C4.28815 8.5 4.52174 8.26641 4.52174 7.97826V5.02174H7.47826C7.76641 5.02174 8 4.78815 8 4.5C8 4.21185 7.76641 3.97826 7.47826 3.97826H4.52174V1.02174Z" fill="#2165AA"/>
</svg>
