<svg width="16" height="17" viewBox="0 0 16 17" fill="none" xmlns="http://www.w3.org/2000/svg">
<g id="Note Add">
<path id="Shape" d="M10 6C10 8.48528 7.98528 10.5 5.5 10.5C3.01472 10.5 1 8.48528 1 6C1 3.51472 3.01472 1.5 5.5 1.5C7.98528 1.5 10 3.51472 10 6ZM6 4C6 3.72386 5.77614 3.5 5.5 3.5C5.22386 3.5 5 3.72386 5 4V5.5H3.5C3.22386 5.5 3 5.72386 3 6C3 6.27614 3.22386 6.5 3.5 6.5H5L5 8C5 8.27614 5.22386 8.5 5.5 8.5C5.77614 8.5 6 8.27614 6 8V6.5H7.5C7.77614 6.5 8 6.27614 8 6C8 5.72386 7.77614 5.5 7.5 5.5H6V4ZM12.5 4.5H10.793C10.6944 4.15136 10.5622 3.81679 10.4003 3.5H12.5C13.8807 3.5 15 4.61929 15 6V10.2858C15 10.6836 14.842 11.0651 14.5607 11.3464L10.8464 15.0607C10.5651 15.342 10.1836 15.5 9.78579 15.5L5.5 15.5C4.11929 15.5 3 14.3807 3 13V10.9003C3.31679 11.0622 3.65136 11.1944 4 11.293V13C4 13.8284 4.67157 14.5 5.5 14.5L9 14.5V12.5C9 10.8431 10.3431 9.5 12 9.5H14V6C14 5.17157 13.3284 4.5 12.5 4.5ZM10 14.4518C10.0512 14.4275 10.0985 14.3944 10.1393 14.3536L13.8536 10.6393C13.8944 10.5985 13.9275 10.5512 13.9518 10.5H12C10.8954 10.5 10 11.3954 10 12.5V14.4518Z" fill="#607290"/>
</g>
</svg>
