<svg width="25" height="24" viewBox="0 0 25 24" fill="none" xmlns="http://www.w3.org/2000/svg">
<rect x="0.25" width="24" height="24" rx="12" fill="#F7EBF3"/>
<path d="M16.2499 6.4C16.2499 6.17909 16.0708 6 15.8499 6C15.629 6 15.4499 6.17909 15.4499 6.4V8H13.8499C13.629 8 13.4499 8.17909 13.4499 8.4C13.4499 8.62091 13.629 8.8 13.8499 8.8H15.4499V10.4C15.4499 10.6209 15.629 10.8 15.8499 10.8C16.0708 10.8 16.2499 10.6209 16.2499 10.4V8.8H17.8499C18.0708 8.8 18.2499 8.62091 18.2499 8.4C18.2499 8.17909 18.0708 8 17.8499 8L16.2499 8V6.4ZM7.8499 17.6C7.18716 17.6 6.6499 17.0627 6.6499 16.4V7.6C6.6499 6.93726 7.18716 6.4 7.8499 6.4H11.4499C12.1126 6.4 12.6499 6.93726 12.6499 7.6V11.6H16.6499C17.3126 11.6 17.8499 12.1373 17.8499 12.8V16.4C17.8499 17.0627 17.3126 17.6 16.6499 17.6H7.8499ZM12.6499 12.4V16.8H16.6499C16.8708 16.8 17.0499 16.6209 17.0499 16.4V12.8C17.0499 12.5791 16.8708 12.4 16.6499 12.4H12.6499ZM11.8499 16.8V12.4H7.4499V16.4C7.4499 16.6071 7.6073 16.7775 7.809 16.7979C7.82245 16.7993 7.8361 16.8 7.8499 16.8H11.8499ZM11.8499 7.6C11.8499 7.37909 11.6708 7.2 11.4499 7.2H7.8499C7.62899 7.2 7.4499 7.37909 7.4499 7.6V11.6H11.8499V7.6Z" fill="#B64F97"/>
</svg>
