<svg width="14" height="14" viewBox="0 0 14 14" fill="none" xmlns="http://www.w3.org/2000/svg">
<g clip-path="url(#clip0_15635_29321)">
<path d="M6.99996 12.8333C10.2216 12.8333 12.8333 10.2217 12.8333 7C12.8333 3.77834 10.2216 1.16667 6.99996 1.16667C3.7783 1.16667 1.16663 3.77834 1.16663 7C1.16663 10.2217 3.7783 12.8333 6.99996 12.8333Z" fill="white"/>
<path d="M6.99996 4.66667V7M6.99996 9.33334H7.00579M12.8333 7C12.8333 10.2217 10.2216 12.8333 6.99996 12.8333C3.7783 12.8333 1.16663 10.2217 1.16663 7C1.16663 3.77834 3.7783 1.16667 6.99996 1.16667C10.2216 1.16667 12.8333 3.77834 12.8333 7Z" stroke="black" stroke-linecap="round" stroke-linejoin="round"/>
</g>
<defs>
<clipPath id="clip0_15635_29321">
<rect width="14" height="14" fill="white"/>
</clipPath>
</defs>
</svg>
