<svg width="20" height="20" viewBox="0 0 20 20" fill="none" xmlns="http://www.w3.org/2000/svg">
<g id="alert-circle" clip-path="url(#clip0_56_3393)">
<g id="Icon">
<path d="M9.99996 18.3333C14.6023 18.3333 18.3333 14.6023 18.3333 9.99996C18.3333 5.39759 14.6023 1.66663 9.99996 1.66663C5.39759 1.66663 1.66663 5.39759 1.66663 9.99996C1.66663 14.6023 5.39759 18.3333 9.99996 18.3333Z" fill="#E32525"/>
<path d="M9.99996 6.66663V9.99996M9.99996 13.3333H10.0083M18.3333 9.99996C18.3333 14.6023 14.6023 18.3333 9.99996 18.3333C5.39759 18.3333 1.66663 14.6023 1.66663 9.99996C1.66663 5.39759 5.39759 1.66663 9.99996 1.66663C14.6023 1.66663 18.3333 5.39759 18.3333 9.99996Z" stroke="white" stroke-width="1.4" stroke-linecap="round" stroke-linejoin="round"/>
</g>
</g>
<defs>
<clipPath id="clip0_56_3393">
<rect width="20" height="20" fill="white"/>
</clipPath>
</defs>
</svg>
