<svg width="18" height="20" viewBox="0 0 18 20" fill="none" xmlns="http://www.w3.org/2000/svg">
<g id="Group">
<path id="Vector" d="M17.0699 15.586C16.7675 16.2848 16.4095 16.9279 15.9946 17.5194C15.4293 18.3255 14.9663 18.8834 14.6095 19.1934C14.0565 19.702 13.4639 19.9624 12.8293 19.9772C12.3738 19.9772 11.8244 19.8477 11.185 19.5847C10.5434 19.3229 9.95376 19.1934 9.41464 19.1934C8.84923 19.1934 8.24283 19.3229 7.59421 19.5847C6.9446 19.8477 6.42128 19.9847 6.02116 19.9983C5.41267 20.0241 4.80616 19.7562 4.20073 19.1934C3.81433 18.8563 3.33102 18.2785 2.75201 17.4601C2.1308 16.586 1.62009 15.5724 1.21997 14.4169C0.791468 13.1688 0.57666 11.9602 0.57666 10.7901C0.57666 9.44981 0.866283 8.2938 1.44639 7.32506C1.9023 6.54695 2.50882 5.93313 3.26793 5.48254C4.02705 5.03194 4.84726 4.80231 5.73057 4.78762C6.21389 4.78762 6.84768 4.93713 7.63531 5.23094C8.42073 5.52574 8.92502 5.67525 9.14613 5.67525C9.31143 5.67525 9.87167 5.50043 10.8214 5.15193C11.7195 4.82874 12.4775 4.69491 13.0985 4.74762C14.7811 4.88342 16.0453 5.54673 16.8859 6.74176C15.3811 7.65358 14.6367 8.93069 14.6515 10.569C14.6651 11.8452 15.128 12.9071 16.0379 13.7503C16.4501 14.1416 16.9107 14.4441 17.423 14.6589C17.312 14.9811 17.1946 15.2897 17.0699 15.586ZM13.2108 0.400113C13.2108 1.40034 12.8454 2.33425 12.117 3.19867C11.238 4.22628 10.1749 4.82009 9.02194 4.7264C9.00725 4.6064 8.99872 4.4801 8.99872 4.34739C8.99872 3.38718 9.41673 2.35955 10.1591 1.51934C10.5297 1.09392 11.001 0.740188 11.5726 0.458012C12.1429 0.180045 12.6824 0.0263241 13.1898 0C13.2046 0.133715 13.2108 0.267438 13.2108 0.400099V0.400113Z" fill="black"/>
</g>
</svg>
