<svg width="8" height="13" viewBox="0 0 8 13" fill="none" xmlns="http://www.w3.org/2000/svg">
<path d="M5.79474 6.02917C5.72877 6.17782 5.69468 6.33872 5.69468 6.50145C5.69468 6.66418 5.72877 6.82508 5.79474 6.97373L7.85057 11.606C8.41608 12.7146 7.24491 13.3522 6.52928 12.7945C5.20131 11.7594 1.83668 8.64422 0.3132 7.22274C0.214397 7.13058 0.13559 7.01896 0.0817013 6.89485C0.027813 6.77075 0 6.63683 0 6.50145C0 6.36607 0.027813 6.23215 0.0817013 6.10805C0.13559 5.98394 0.214397 5.87232 0.3132 5.78016C1.83668 4.35868 5.20131 1.24354 6.52928 0.208447C7.26263 -0.363162 8.40553 0.308943 7.85057 1.39694L5.79474 6.02917Z" fill="currentColor"/>
</svg>
