<svg width="16" height="17" viewBox="0 0 16 17" fill="none" xmlns="http://www.w3.org/2000/svg">
<path d="M2 8.49997C2 8.08576 2.33579 7.74997 2.75 7.74997L11.537 7.74997L8.24991 4.80891C7.94122 4.53271 7.91488 4.05857 8.19107 3.74988C8.46727 3.44119 8.94141 3.41485 9.2501 3.69105L14.0001 7.94104C14.1591 8.08332 14.25 8.2866 14.25 8.49997C14.25 8.71335 14.1591 8.91663 14.0001 9.0589L9.2501 13.3089C8.94141 13.5851 8.46727 13.5588 8.19107 13.2501C7.91488 12.9414 7.94122 12.4672 8.24991 12.191L11.537 9.24997L2.75 9.24997C2.33579 9.24997 2 8.91419 2 8.49997Z" fill="#607290"/>
</svg>
