<svg width="22" height="22" viewBox="0 0 22 22" fill="none" xmlns="http://www.w3.org/2000/svg">
<path d="M5.42741 7.375H16.4617C16.6569 7.37582 16.8475 7.4345 17.0094 7.54362C17.1712 7.65274 17.2971 7.80741 17.371 7.98806C17.445 8.1687 17.4637 8.36722 17.4248 8.55851C17.3859 8.7498 17.2912 8.92526 17.1526 9.06272L11.6453 14.57C11.5536 14.6625 11.4444 14.736 11.3241 14.7861C11.2039 14.8362 11.0749 14.862 10.9446 14.862C10.8143 14.862 10.6853 14.8362 10.565 14.7861C10.4447 14.736 10.3356 14.6625 10.2438 14.57L4.73653 9.06272C4.59794 8.92526 4.50322 8.7498 4.46435 8.55851C4.42548 8.36722 4.4442 8.1687 4.51815 7.98806C4.5921 7.80741 4.71795 7.65274 4.8798 7.54362C5.04165 7.4345 5.23222 7.37582 5.42741 7.375Z" fill="white"/>
</svg>
