<svg width="13" height="11" viewBox="0 0 13 11" fill="none" xmlns="http://www.w3.org/2000/svg">
<path d="M0 5.50001C-1.81059e-08 5.08579 0.335786 4.75001 0.75 4.75001L9.53698 4.75L6.24991 1.80894C5.94122 1.53274 5.91488 1.0586 6.19107 0.749911C6.46727 0.441222 6.94141 0.414881 7.2501 0.691076L12.0001 4.94107C12.1591 5.08335 12.25 5.28663 12.25 5.5C12.25 5.71338 12.1591 5.91666 12.0001 6.05894L7.2501 10.3089C6.94141 10.5851 6.46727 10.5588 6.19107 10.2501C5.91488 9.94142 5.94122 9.46727 6.24991 9.19108L9.53698 6.25L0.75 6.25001C0.335786 6.25001 1.81059e-08 5.91422 0 5.50001Z" fill="#333333"/>
</svg>
