<svg width="18" height="19" viewBox="0 0 18 19" fill="none" xmlns="http://www.w3.org/2000/svg">
<g clip-path="url(#clip0_2796_1362)">
<path d="M6.18231 10.0704C6.10209 9.89032 6.06064 9.69538 6.06064 9.49823C6.06064 9.30108 6.10209 9.10614 6.18231 8.92605L8.68208 3.31393C9.3697 1.97073 7.94562 1.19824 7.07547 1.87403C5.46074 3.12808 1.36955 6.90219 -0.482898 8.62436C-0.603035 8.73602 -0.698859 8.87125 -0.764384 9.02161C-0.829909 9.17197 -0.863729 9.33422 -0.863729 9.49823C-0.863729 9.66224 -0.829909 9.8245 -0.764384 9.97485C-0.698859 10.1252 -0.603035 10.2604 -0.482898 10.3721C1.36956 12.0943 5.46074 15.8684 7.07547 17.1224C7.96717 17.815 9.35687 17.0007 8.68208 15.6825L6.18231 10.0704Z" fill="currentColor"/>
</g>
<defs>
<clipPath id="clip0_2796_1362">
<rect width="18" height="18" fill="white" transform="matrix(-1 0 0 1 18 0.5)"/>
</clipPath>
</defs>
</svg>
