<svg width="10" height="17" viewBox="0 0 10 17" fill="none" xmlns="http://www.w3.org/2000/svg">
<path d="M2.68146 7.92959C2.76168 8.10968 2.80313 8.30462 2.80313 8.50177C2.80313 8.69892 2.76168 8.89386 2.68146 9.07395L0.181692 14.6861C-0.505929 16.0293 0.918147 16.8018 1.7883 16.126C3.40303 14.8719 7.49422 11.0978 9.34667 9.37564C9.4668 9.26398 9.56263 9.12875 9.62815 8.97839C9.69368 8.82803 9.7275 8.66578 9.7275 8.50177C9.7275 8.33776 9.69368 8.1755 9.62815 8.02515C9.56263 7.87479 9.4668 7.73956 9.34667 7.6279C7.49421 5.90573 3.40303 2.13161 1.7883 0.877564C0.896598 0.18504 -0.493102 0.999319 0.181692 2.31747L2.68146 7.92959Z" fill="currentColor"/>
</svg>
