<svg width="22" height="22" viewBox="0 0 22 22" fill="none" xmlns="http://www.w3.org/2000/svg">
<path d="M16.0172 14.4871L4.98283 14.4871C4.78764 14.4862 4.59707 14.4276 4.43522 14.3184C4.27337 14.2093 4.14752 14.0547 4.07357 13.874C3.99962 13.6934 3.9809 13.4948 4.01977 13.3036C4.05864 13.1123 4.15336 12.9368 4.29195 12.7993L9.79925 7.29204C9.891 7.19953 10.0002 7.12611 10.1204 7.076C10.2407 7.02589 10.3697 7.0001 10.5 7.0001C10.6303 7.0001 10.7593 7.02589 10.8796 7.076C10.9998 7.12611 11.109 7.19953 11.2007 7.29204L16.708 12.7993C16.8466 12.9368 16.9414 13.1123 16.9802 13.3036C17.0191 13.4948 17.0004 13.6934 16.9264 13.874C16.8525 14.0547 16.7266 14.2093 16.5648 14.3184C16.4029 14.4276 16.2124 14.4862 16.0172 14.4871Z" fill="white"/>
</svg>
