<svg width="14" height="8" viewBox="0 0 14 8" fill="none" xmlns="http://www.w3.org/2000/svg">
<path d="M1.42741 0.375H12.4617C12.6569 0.375818 12.8475 0.434499 13.0094 0.543621C13.1712 0.652743 13.2971 0.807408 13.371 0.988055C13.445 1.1687 13.4637 1.36722 13.4248 1.55851C13.3859 1.7498 13.2912 1.92526 13.1526 2.06272L7.64533 7.57002C7.55358 7.66253 7.44442 7.73595 7.32415 7.78606C7.20387 7.83617 7.07487 7.86196 6.94458 7.86196C6.81429 7.86196 6.68528 7.83617 6.56501 7.78606C6.44474 7.73595 6.33558 7.66253 6.24383 7.57002L0.736534 2.06272C0.597942 1.92526 0.503221 1.7498 0.464349 1.55851C0.425477 1.36722 0.444199 1.1687 0.518148 0.988055C0.592098 0.807408 0.717953 0.652743 0.8798 0.543621C1.04165 0.434499 1.23222 0.375818 1.42741 0.375Z" fill="white"/>
</svg>
