<svg width="13" height="8" viewBox="0 0 13 8" fill="none" xmlns="http://www.w3.org/2000/svg">
<path d="M12.0172 7.48706L0.982833 7.48706C0.787638 7.48624 0.597068 7.42756 0.435221 7.31844C0.273374 7.20932 0.147517 7.05465 0.0735683 6.87401C-0.00038147 6.69336 -0.019104 6.49484 0.0197687 6.30355C0.0586405 6.11226 0.153361 5.9368 0.291953 5.79934L5.79925 0.292039C5.891 0.199533 6.00016 0.126108 6.12043 0.0760002C6.24071 0.0258932 6.36971 9.63211e-05 6.5 9.63211e-05C6.63029 9.63211e-05 6.75929 0.0258932 6.87957 0.0760002C6.99984 0.126108 7.109 0.199533 7.20075 0.292039L12.708 5.79934C12.8466 5.9368 12.9414 6.11226 12.9802 6.30355C13.0191 6.49484 13.0004 6.69336 12.9264 6.87401C12.8525 7.05465 12.7266 7.20932 12.5648 7.31844C12.4029 7.42756 12.2124 7.48624 12.0172 7.48706Z" fill="currentColor"/>
</svg>
