<svg width="8" height="13" viewBox="0 0 8 13" fill="none" xmlns="http://www.w3.org/2000/svg">
<path d="M2.20526 6.97083C2.27123 6.82218 2.30532 6.66128 2.30532 6.49855C2.30532 6.33582 2.27123 6.17492 2.20526 6.02627L0.149425 1.39404C-0.416082 0.285362 0.755094 -0.352248 1.47072 0.205546C2.79869 1.24064 6.16332 4.35578 7.6868 5.77726C7.7856 5.86942 7.86441 5.98104 7.9183 6.10515C7.97219 6.22925 8 6.36317 8 6.49855C8 6.63393 7.97219 6.76785 7.9183 6.89195C7.86441 7.01606 7.7856 7.12768 7.6868 7.21984C6.16332 8.64132 2.79869 11.7565 1.47072 12.7916C0.737372 13.3632 -0.405532 12.6911 0.149425 11.6031L2.20526 6.97083Z" fill="currentColor"/>
</svg>
