<svg width="125" height="99" viewBox="0 0 125 99" fill="none" xmlns="http://www.w3.org/2000/svg">
<g clip-path="url(#clip0_9_2752)">
<path d="M121.631 88.5689C121.253 89.3502 120.266 90.9211 119.773 91.3699C111.464 99.0333 100.673 98.9086 90.1854 98.8421C77.4873 98.7673 64.781 99.1662 52.0829 98.9169C44.6613 98.7756 37.2069 98.2935 29.8428 97.3211C18.4269 95.8083 6.44383 91.0707 4.54529 77.4978C2.2358 61.0407 2.8029 44.1764 4.2001 27.6778C4.87404 19.7152 4.10147 3.16674 15.164 2.23584C35.8015 0.748054 56.8745 -0.340772 77.7585 0.0997456C85.665 0.27429 93.6373 0.905975 101.511 1.37143C111.283 1.89506 119.987 0.315848 123.307 12.6254C125.198 20.0144 124.146 27.1874 124.573 34.5515C125.321 47.1104 125.05 59.7026 124.104 72.2365C123.899 75.7357 124.08 83.665 121.631 88.5689Z" fill="#FD6085"/>
<path d="M118.646 88.568C118.268 89.3493 117.282 90.9202 116.789 91.369C108.479 99.0324 97.688 98.9077 87.2008 98.8412C74.5027 98.7664 61.7964 99.1653 49.0983 98.916C41.6767 98.7747 34.2223 98.2926 26.8582 97.3202C15.4423 95.8074 3.45922 91.0698 1.56067 77.4969C-0.740597 61.0481 -0.181717 44.1755 1.21548 27.6769C1.88943 19.7143 1.11686 3.16584 12.1794 2.23494C32.8251 0.747154 53.8981 -0.341672 74.7739 0.0988453C82.6804 0.27339 90.6527 0.905075 98.5263 1.37053C108.298 1.89416 117.002 0.314948 120.323 12.6245C122.213 20.0135 121.161 27.1865 121.588 34.5506C122.336 47.1095 122.065 59.7017 121.12 72.2356C120.914 75.7348 121.095 83.6641 118.646 88.568Z" fill="#FFA4AC"/>
<path d="M85.0977 93.2733C85.0977 93.2733 85.4922 93.1819 86.1825 93.0655C86.8729 92.9491 87.8592 92.7912 89.0427 92.6582C90.2262 92.5169 91.607 92.4006 93.0863 92.3008C94.5657 92.2094 96.1437 92.1512 97.7135 92.1346C99.2916 92.118 100.87 92.1346 102.341 92.2011C103.82 92.2676 105.193 92.3507 106.376 92.4754C107.56 92.5751 108.538 92.7164 109.228 92.8244C109.918 92.9325 110.313 93.0156 110.313 93.0156C110.313 93.0156 109.918 93.107 109.228 93.2317C108.538 93.3481 107.551 93.506 106.368 93.639C105.184 93.7803 103.804 93.8966 102.324 93.9964C100.845 94.0878 99.2669 94.1377 97.6889 94.1626C96.1109 94.1792 94.5411 94.1626 93.0617 94.0961C91.5823 94.0296 90.2015 93.9465 89.0263 93.8218C87.8427 93.7138 86.8647 93.5808 86.1743 93.4811C85.4839 93.373 85.0977 93.2899 85.0977 93.2899V93.2733Z" fill="white"/>
<path d="M47.1104 2.48518C47.1104 2.48518 47.5049 2.39375 48.1952 2.27738C48.8856 2.16102 49.8719 2.0031 51.0554 1.87011C52.2389 1.72882 53.6197 1.61245 55.099 1.51271C56.5784 1.42129 58.1564 1.3631 59.7262 1.34648C61.3042 1.32986 62.8823 1.34648 64.3534 1.41297C65.8328 1.47947 67.2054 1.56258 68.3889 1.68726C69.5724 1.787 70.5504 1.9283 71.2408 2.03635C71.9312 2.1444 72.3257 2.22751 72.3257 2.22751C72.3257 2.22751 71.9312 2.31894 71.2408 2.44362C70.5504 2.55998 69.5642 2.7179 68.3807 2.85089C67.1971 2.99219 65.8164 3.10855 64.337 3.20829C62.8576 3.29972 61.2796 3.34959 59.7016 3.37452C58.1236 3.39114 56.5538 3.37452 55.0744 3.30803C53.595 3.24154 52.2142 3.15842 51.0389 3.03374C49.8554 2.92569 48.8774 2.79271 48.187 2.69297C47.4966 2.58492 47.1104 2.5018 47.1104 2.5018V2.48518Z" fill="white"/>
<path d="M102.637 72.6937L105.251 73.2422L102.637 73.824L102.103 76.7165L101.618 73.824L98.9961 73.2422L101.618 72.6937L102.103 69.8012L102.637 72.6937Z" fill="white"/>
<path d="M20.9822 16.4155L27.286 17.7287L20.9822 19.1334L19.6918 26.1235L18.5166 19.1334L12.1963 17.7287L18.5166 16.4155L19.6918 9.44203L20.9822 16.4155Z" fill="white"/>
<path d="M23.3821 63.8501L26.0039 64.3903L23.3821 64.9721L22.8479 67.8729L22.363 64.9721L19.7412 64.3903L22.363 63.8501L22.8479 60.9576L23.3821 63.8501Z" fill="#074785"/>
<path d="M102.908 21.2446L106.919 22.0757L102.908 22.9734L102.094 27.4118L101.347 22.9734L97.3193 22.0757L101.347 21.2446L102.094 16.8062L102.908 21.2446Z" fill="#074785"/>
<path fill-rule="evenodd" clip-rule="evenodd" d="M85.3143 49.5319C85.5685 63.3329 74.8373 74.7356 61.3443 74.9957C47.8513 75.25 36.7135 64.2692 36.4593 50.4681C36.2108 36.6613 46.942 25.2644 60.4293 25.0043C73.9167 24.75 85.0601 35.7308 85.3087 49.5319H85.3143Z" fill="#074785"/>
<path fill-rule="evenodd" clip-rule="evenodd" d="M86.451 49.5319C86.7052 63.3329 75.974 74.7356 62.481 74.9957C48.988 75.25 37.8502 64.2692 37.596 50.4681C37.3475 36.6613 48.0787 25.2644 61.566 25.0043C75.0534 24.75 86.1969 35.7308 86.4454 49.5319H86.451Z" fill="#FD6085"/>
<path d="M63.6097 33.8858C64.133 30.7473 59.8638 30.3823 59.6866 33.2317C59.3437 38.7431 58.938 50.8495 60.0586 55.1837C61.4594 60.6015 62.9556 37.8089 63.6097 33.8858Z" fill="white"/>
<path d="M67.3023 58.9899C68.9844 60.4691 70.7712 58.0727 69.1345 56.9063C65.969 54.6504 62.0223 52.2458 59.0219 51.2964C55.2715 50.1096 65.1996 57.1408 67.3023 58.9899Z" fill="white"/>
<path fill-rule="evenodd" clip-rule="evenodd" d="M69.378 74.7924C68.1356 74.3763 67.1852 73.2593 67.523 72.2676C69.3494 66.9388 75.1379 59.165 79.3575 51.642C80.1648 50.2058 82.4378 50.4566 83.2051 51.9099C87.2186 59.5469 92.5777 67.2523 94.261 72.6267C94.5701 73.624 93.5911 74.7126 92.3372 75.0944C84.6536 77.2602 76.9986 77.1576 69.378 74.781V74.7924Z" fill="#074785"/>
<path fill-rule="evenodd" clip-rule="evenodd" d="M67.9222 74.103C66.6797 73.6869 65.735 72.5699 66.0671 71.5782C67.8935 66.2494 73.6877 58.4756 77.9074 50.9583C78.7147 49.5221 80.9877 49.7729 81.7549 51.2262C85.7685 58.8632 91.1275 66.5686 92.8108 71.943C93.12 72.9403 92.1409 74.0289 90.8871 74.4107C83.2035 76.5765 75.5485 76.4739 67.9279 74.0973L67.9222 74.103Z" fill="#FFC107"/>
<path d="M78.3128 57.8762C78.4436 57.7089 78.6304 57.5846 78.8733 57.5034C79.1162 57.4221 79.3497 57.3839 79.5786 57.3886C79.7701 57.3886 79.9569 57.3982 80.1391 57.4078C80.3213 57.4173 80.4988 57.4412 80.6716 57.4747C81.0312 57.5655 81.2835 57.7519 81.4189 58.0148C81.5544 58.2777 81.6338 58.5788 81.6478 58.9086C81.6618 59.2384 81.6478 59.5634 81.5917 59.8789C81.5403 60.1991 81.503 60.4524 81.489 60.6532C81.3348 62.4695 81.1667 64.2906 81.0359 66.1068C81.0172 66.3554 80.9985 66.5992 80.9845 66.8429C80.9658 67.0915 80.9098 67.3257 80.8117 67.5455C80.7183 67.7558 80.5595 67.904 80.34 67.9996C80.1204 68.0952 79.8962 68.1334 79.6627 68.1239C79.4291 68.1143 79.2049 68.0522 78.9901 67.947C78.7706 67.8371 78.6164 67.6889 78.5277 67.4882C78.4903 67.3782 78.4576 67.2349 78.4343 67.0723C78.4109 66.9051 78.3876 66.7521 78.3689 66.6183C78.3502 66.408 78.3362 66.1881 78.3315 65.9587C78.3315 65.7292 78.3222 65.4998 78.3082 65.2656C78.2147 63.196 78.0886 61.1312 77.9999 59.0615C77.9952 58.9134 78.0092 58.7222 78.0513 58.4832C78.0933 58.2442 78.182 58.0435 78.3128 57.8762ZM80.6249 69.749C80.7183 69.8637 80.793 70.0119 80.8397 70.1839C81.0452 70.9869 80.737 71.9429 79.8262 72.0002C79.3077 72.0337 78.7239 71.809 78.5464 71.2642C78.4903 71.0682 78.4576 70.8388 78.4529 70.5807C78.4436 70.074 78.6304 69.6247 79.1209 69.4622C79.686 69.2758 80.2932 69.3379 80.6295 69.749H80.6249Z" fill="white"/>
</g>
<defs>
<clipPath id="clip0_9_2752">
<rect width="125" height="99" fill="white"/>
</clipPath>
</defs>
</svg>
