<svg width="134" height="133" viewBox="0 0 134 133" fill="none" xmlns="http://www.w3.org/2000/svg">
<path d="M110.252 109C119.132 98.7215 124.5 85.3498 124.5 70.7298C124.5 38.296 98.0863 12 65.5 12C32.9137 12 6.5 38.2927 6.5 70.7298C6.5 85.3498 11.8681 98.7215 20.7476 109H110.252Z" fill="#F8C6C6"/>
<path d="M34.4341 22.3984C34.4341 22.3984 31.422 22.1562 28.6655 26.3783C35.8522 24.7468 39.7267 26.0978 39.7267 26.0978C39.7267 26.0978 37.6888 22.204 34.4341 22.3984Z" fill="#808285"/>
<path d="M53.1741 22.8831C51.9284 21.4205 50.8648 19.805 50.0088 18.0875C51.2992 16.9531 51.4301 14.7035 50.9159 13.0689C50.4016 11.4342 49.041 10.131 47.4407 9.50004C45.8405 8.86913 44.039 8.87232 42.3749 9.30248C40.3562 9.82825 38.4174 11.0837 37.6157 13.0051C36.814 14.9265 37.5103 17.5012 39.414 18.3488C38.4781 20.8979 37.2196 23.412 35.4629 25.4832C40.4904 25.5246 45.5179 25.5692 50.5454 25.4227C51.3663 25.4003 52.2319 25.3557 52.9122 24.8969C53.5925 24.4412 53.7043 23.5044 53.1741 22.8831ZM47.2778 15.9749C46.3579 16.6185 45.1282 16.7141 44.0901 16.2999C43.4864 16.0609 42.9243 15.6339 42.6432 15.0285C42.3813 14.4645 42.3909 13.7985 42.5697 13.2027C42.7582 12.5781 43.1575 12.0333 43.6557 11.6413C44.3425 11.0996 47.8017 10.1819 48.5938 12.9987C48.9068 14.1076 48.1977 15.3344 47.2746 15.9749H47.2778Z" fill="#BCBEC0"/>
<path d="M39.6471 25.5115C40.3211 23.0612 41.1835 20.6618 42.295 18.3803C40.3498 17.7908 38.8965 15.8662 38.8582 13.8396C38.8295 12.2751 39.6503 10.7488 40.9056 9.82471C39.4651 10.4907 38.2194 11.5581 37.6157 13.0016C36.814 14.923 37.5103 17.4976 39.414 18.3452C38.4781 20.8944 37.2196 23.4085 35.4629 25.4797C36.8555 25.4924 38.2513 25.502 39.644 25.5083L39.6471 25.5115Z" fill="#D1D3D4"/>
<path d="M15.9336 23.9946H80.78L89.0686 118.294L25.008 125.999L15.9336 23.9946Z" fill="#EC5D7A"/>
<path d="M64.136 33.8469C64.136 33.8469 69.9875 31.6834 68.0903 23.9977H59.9805L64.136 33.8469Z" fill="#D8506B"/>
<path d="M15.9339 23.9948L13.5 25.7664L22.6287 125.062L25.0083 125.999L15.9339 23.9948Z" fill="#FD869E"/>
<path d="M89.0689 118.294L83.3579 53.2908L78.7904 27.9714L21.4437 26.8434C21.4437 26.8434 20.824 101.314 32.5176 125.1L89.0689 118.297V118.294Z" fill="#D8506C"/>
<path d="M22.5928 30.6152C22.57 29.5248 23.4446 28.6473 24.535 28.6277L78.5038 27.6614C79.5695 27.6423 80.4626 28.4623 80.5372 29.5255C82.4302 56.5199 85.6134 83.4169 90.7522 109.984C90.9869 111.197 90.0813 112.334 88.8466 112.383C70.9932 113.083 53.0785 115.545 35.5174 118.834C34.4934 119.026 33.4915 118.409 33.2377 117.398C28.2722 97.634 22.9749 48.8873 22.5928 30.6152Z" fill="white"/>
<path d="M61.6538 27.9653L64.1356 33.8475C64.1356 33.8475 67.9558 32.4391 68.4253 27.8442C66.1671 27.8857 63.912 27.9239 61.6538 27.9653Z" fill="#E6E7E8"/>
<path d="M40.6528 23.1186C44.7381 22.9338 48.8233 22.749 52.9054 22.561C52.1068 21.5859 51.385 20.5503 50.7493 19.4606C49.3535 19.5721 47.9801 19.8652 46.6449 20.305C44.5432 20.9964 42.5629 22.0097 40.6528 23.1186Z" fill="#808285"/>
<path d="M37.5933 33.8282L64.1362 33.8474C65.5352 30.8298 64.9251 27.2005 63.8104 23.9248C63.4463 22.851 62.4912 22.0926 61.3605 21.9875C52.7397 21.194 43.9176 21.1367 34.4312 22.4049C37.3857 23.9567 37.8552 29.5807 37.5933 33.8314V33.8282Z" fill="#BCBEC0"/>
<path d="M64.5257 26.4198L37.0757 26.4963C37.4877 28.0863 37.6474 29.9153 37.6538 31.671L64.8227 31.5277C65.0783 29.8803 64.9154 28.1341 64.5257 26.4198Z" fill="#D1D3D4"/>
<path d="M49.6991 22.0255C48.0765 22.0606 46.4124 22.1689 44.9239 22.8189C44.6588 22.9336 44.3554 23.1503 44.4097 23.4339C44.4544 23.6825 44.7419 23.794 44.9846 23.8577C48.7217 24.8391 52.6313 24.7913 56.4578 24.5109C57.2084 24.4568 61.0669 24.5651 60.904 23.5423C60.6868 22.1753 57.333 22.341 56.3907 22.2549C54.1676 22.0574 51.9318 21.9809 49.7023 22.0255H49.6991Z" fill="#D1D3D4"/>
<path d="M41.4227 24.1669C42.4476 24.1669 43.2784 23.8459 43.2784 23.45C43.2784 23.054 42.4476 22.733 41.4227 22.733C40.3977 22.733 39.5669 23.054 39.5669 23.45C39.5669 23.8459 40.3977 24.1669 41.4227 24.1669Z" fill="#D1D3D4"/>
<path d="M78.0017 54.9194L67.4964 55.4515L65.4873 42.744L75.9895 42.2119L77.9986 54.9194H78.0017ZM68.5824 54.1196L76.5197 53.7181L74.9131 43.5438L66.9758 43.9453L68.5824 54.1196Z" fill="#BCBEC0"/>
<path d="M81.2081 77.0809L70.7028 77.5653L68.7544 64.8514L79.2598 64.3671L81.2081 77.0809ZM71.792 76.2365L79.7325 75.8701L78.1706 65.6894L70.2301 66.0559L71.792 76.2365Z" fill="#BCBEC0"/>
<path d="M74.8295 99.829L72.6543 87.1502L83.1501 86.4811L85.3252 99.1599L74.8295 99.829ZM74.1555 88.3324L75.8963 98.4844L83.8272 97.9809L82.0864 87.8289L74.1555 88.3324Z" fill="#BCBEC0"/>
<path opacity="0.5" d="M28.6714 49.9041C28.2434 49.9041 27.8889 49.5632 27.8729 49.133C27.8601 48.6933 28.2051 48.3268 28.6459 48.3109L61.7398 47.2562C62.187 47.2435 62.5511 47.5876 62.5639 48.0273C62.5767 48.467 62.2317 48.8335 61.7909 48.8494L28.697 49.9041C28.697 49.9041 28.681 49.9041 28.6714 49.9041Z" fill="#808285"/>
<path opacity="0.5" d="M29.314 53.2468C28.886 53.2468 28.5315 52.9058 28.5155 52.4757C28.5027 52.0359 28.8477 51.6695 29.2885 51.6536L62.3824 50.5989C62.8328 50.5861 63.1905 50.9302 63.2065 51.37C63.2193 51.8097 62.8743 52.1761 62.4335 52.1921L29.3396 53.2468C29.3396 53.2468 29.3236 53.2468 29.314 53.2468Z" fill="#808285"/>
<path opacity="0.5" d="M29.9527 56.5891C29.5247 56.5891 29.1701 56.2482 29.1542 55.818C29.1414 55.3783 29.4863 55.0118 29.9271 54.9959L46.4757 54.467C46.9229 54.451 47.287 54.7983 47.2998 55.2381C47.3125 55.6778 46.9676 56.0442 46.5268 56.0602L29.9782 56.5891C29.9782 56.5891 29.9623 56.5891 29.9527 56.5891Z" fill="#808285"/>
<path d="M27.937 46.5805C27.509 46.5805 27.1545 46.2396 27.1385 45.8094C27.1258 45.3697 27.4707 45.0032 27.9115 44.9873L44.4601 44.4584C44.9072 44.4456 45.2714 44.7897 45.2841 45.2295C45.2969 45.6692 44.952 46.0356 44.5112 46.0516L27.9626 46.5805C27.9626 46.5805 27.9466 46.5805 27.937 46.5805Z" fill="#212B6B"/>
<path opacity="0.5" d="M33.15 73.815C32.7444 73.815 32.3962 73.5059 32.3547 73.0917C32.3131 72.6552 32.6358 72.2664 33.0733 72.225L66.0395 69.1214C66.4771 69.0768 66.8668 69.4018 66.9083 69.8384C66.9499 70.2749 66.6273 70.6636 66.1897 70.7051L33.2235 73.8087C33.1979 73.8087 33.1724 73.8118 33.1468 73.8118L33.15 73.815Z" fill="#808285"/>
<path opacity="0.5" d="M33.9962 77.1094C33.5905 77.1094 33.2424 76.8004 33.2009 76.3861C33.1593 75.9496 33.4819 75.5608 33.9195 75.5194L66.8857 72.4158C67.3233 72.3744 67.713 72.6962 67.7545 73.1328C67.796 73.5693 67.4734 73.9581 67.0359 73.9995L34.0697 77.1063C34.0441 77.1063 34.0186 77.1094 33.993 77.1094H33.9962Z" fill="#808285"/>
<path opacity="0.5" d="M34.8429 80.4043C34.4372 80.4043 34.0891 80.0952 34.0475 79.6842C34.006 79.2445 34.3286 78.8589 34.7662 78.8175L51.2477 77.2657C51.6853 77.2274 52.075 77.5461 52.1165 77.9826C52.158 78.4224 51.8354 78.8079 51.3978 78.8493L34.9163 80.4011C34.8908 80.4011 34.8652 80.4043 34.8397 80.4043H34.8429Z" fill="#808285"/>
<path d="M32.2076 70.5425C31.802 70.5425 31.4538 70.2334 31.4123 69.8192C31.3708 69.3826 31.6934 68.9939 32.131 68.9525L48.6125 67.4007C49.0501 67.3593 49.4397 67.6811 49.4813 68.1176C49.5228 68.5542 49.2002 68.9429 48.7626 68.9843L32.2811 70.5361C32.2555 70.5361 32.23 70.5393 32.2044 70.5393L32.2076 70.5425Z" fill="#212B6B"/>
<path opacity="0.5" d="M37.0596 97.1235C36.6572 97.1235 36.3122 96.8207 36.2675 96.4161C36.2196 95.9795 36.5358 95.5844 36.9734 95.5366L69.8821 91.8945C70.3197 91.8435 70.7157 92.1622 70.7637 92.5987C70.8116 93.0353 70.4954 93.4304 70.0578 93.4782L37.1491 97.1203C37.1203 97.1235 37.0884 97.1266 37.0596 97.1266V97.1235Z" fill="#808285"/>
<path opacity="0.5" d="M37.9605 100.406C37.5581 100.406 37.2131 100.103 37.1684 99.6982C37.1205 99.2616 37.4367 98.8665 37.8743 98.8187L70.783 95.1766C71.2206 95.1256 71.6166 95.4443 71.6645 95.8808C71.7125 96.3174 71.3962 96.7125 70.9586 96.7603L38.0499 100.402C38.0212 100.406 37.9893 100.409 37.9605 100.409V100.406Z" fill="#808285"/>
<path opacity="0.5" d="M38.8614 103.684C38.4589 103.684 38.114 103.382 38.0693 102.977C38.0213 102.541 38.3376 102.145 38.7751 102.098L55.2311 100.278C55.6687 100.227 56.0648 100.546 56.1127 100.982C56.1606 101.419 55.8444 101.814 55.4068 101.862L38.9508 103.681C38.9221 103.684 38.8901 103.688 38.8614 103.688V103.684Z" fill="#808285"/>
<path d="M36.0665 93.8672C35.664 93.8672 35.319 93.5645 35.2743 93.1598C35.2264 92.7233 35.5426 92.3282 35.9802 92.2804L52.4362 90.4609C52.877 90.4099 53.2698 90.7286 53.3177 91.1651C53.3657 91.6017 53.0494 91.9968 52.6118 92.0446L36.1559 93.864C36.1272 93.8672 36.0952 93.8704 36.0665 93.8704V93.8672Z" fill="#212B6B"/>
<path d="M65.4019 45.7034C67.6856 46.4523 69.8001 47.4624 71.5313 49.2818C73.7736 46.4013 75.7954 43.7948 78.9608 41.5483C75.9615 45.1681 73.6362 49.1639 72.0711 53.3764C70.5986 50.5405 68.267 47.7969 65.4019 45.7034Z" fill="#212B6B"/>
<path d="M72.5 68.4398L77.3383 73.0582M76.6786 68L73.1598 73.2782" stroke="#212B6B" stroke-width="1.5" stroke-linecap="round" stroke-linejoin="round"/>
<path d="M72.5 89.1551C74.7838 89.9039 76.8983 90.914 78.6295 92.7335C80.8717 89.8529 82.8936 87.2464 86.0589 85C83.0597 88.6198 80.7344 92.6156 79.1693 96.828C77.6968 93.9921 75.3651 91.2486 72.5 89.1551Z" fill="#212B6B"/>
<path d="M100.381 51.9993L106.755 53.3253L100.381 54.7353L99.0775 61.7514L97.8912 54.7353L91.5 53.3253L97.8912 51.9993L99.0775 45L100.381 51.9993Z" fill="#FFA4AC"/>
<path d="M113.381 71.9993L119.755 73.3253L113.381 74.7353L112.078 81.7514L110.891 74.7353L104.5 73.3253L110.891 71.9993L112.078 65L113.381 71.9993Z" fill="white"/>
<path fill-rule="evenodd" clip-rule="evenodd" d="M86.5262 122.889C84.6776 122.27 83.2634 120.608 83.766 119.132C86.4836 111.203 95.0963 99.6367 101.375 88.4432C102.576 86.3063 105.958 86.6794 107.099 88.8418C113.071 100.205 121.045 111.67 123.55 119.666C124.01 121.15 122.553 122.77 120.687 123.338C109.255 126.561 97.8649 126.408 86.5262 122.872V122.889Z" fill="#F1854F"/>
<path fill-rule="evenodd" clip-rule="evenodd" d="M84.36 121.863C82.5114 121.244 81.1058 119.582 81.5999 118.106C84.3174 110.178 92.9386 98.6109 99.2171 87.4259C100.418 85.2889 103.8 85.6621 104.942 87.8244C110.914 99.1876 118.887 110.652 121.392 118.649C121.852 120.133 120.395 121.753 118.53 122.321C107.097 125.543 95.7072 125.391 84.3685 121.854L84.36 121.863Z" fill="#F9D555"/>
<path d="M99.8209 97.719C100.016 97.4701 100.293 97.2852 100.655 97.1643C101.016 97.0434 101.364 96.9865 101.704 96.9936C101.989 96.9936 102.267 97.0079 102.538 97.0221C102.809 97.0363 103.073 97.0719 103.331 97.1216C103.866 97.2568 104.241 97.5341 104.442 97.9253C104.644 98.3164 104.762 98.7645 104.783 99.2552C104.804 99.7459 104.783 100.229 104.7 100.699C104.623 101.175 104.568 101.552 104.547 101.851C104.317 104.553 104.067 107.263 103.873 109.965C103.845 110.335 103.817 110.698 103.796 111.061C103.768 111.43 103.685 111.779 103.539 112.106C103.4 112.419 103.164 112.639 102.837 112.782C102.51 112.924 102.177 112.981 101.829 112.967C101.482 112.952 101.148 112.86 100.829 112.703C100.502 112.54 100.273 112.319 100.141 112.021C100.085 111.857 100.036 111.644 100.002 111.402C99.9669 111.153 99.9321 110.926 99.9043 110.726C99.8765 110.414 99.8557 110.086 99.8487 109.745C99.8487 109.404 99.8348 109.062 99.814 108.714C99.675 105.634 99.4873 102.562 99.3553 99.4827C99.3483 99.2623 99.3692 98.9778 99.4317 98.6222C99.4943 98.2666 99.6263 97.9679 99.8209 97.719ZM103.261 115.385C103.4 115.555 103.511 115.776 103.581 116.032C103.886 117.227 103.428 118.649 102.073 118.734C101.301 118.784 100.432 118.45 100.168 117.639C100.085 117.347 100.036 117.006 100.029 116.622C100.016 115.868 100.293 115.2 101.023 114.958C101.864 114.681 102.768 114.773 103.268 115.385H103.261Z" fill="white"/>
</svg>
