<svg width="148" height="104" viewBox="0 0 148 104" fill="none" xmlns="http://www.w3.org/2000/svg">
<path fill-rule="evenodd" clip-rule="evenodd" d="M120.456 87.1328C121.433 86.025 123.43 83.3394 125.627 78.0102L122.135 78.9753L120.673 79.6467C119.178 58.1368 114.967 36.0646 109.378 13.5896C109.035 12.2216 107.665 11.1726 106.328 11.2733C80.2206 13.1952 52.9683 18.5412 25.0309 24.9782C24.8805 22.4185 24.4878 17.9453 23.619 18.4992C22.4076 19.2797 18.247 27.7309 18.247 27.7309C18.0298 28.1338 17.9129 28.5786 17.9379 29.0234C19.024 52.3628 23.4853 76.3736 29.5757 100.88C29.9182 102.256 31.2884 103.297 32.6251 103.196C60.1615 101.165 88.9761 95.3322 118.518 88.4252C119.002 88.3077 119.462 88.0812 119.838 87.7706C120.071 87.5776 120.289 87.3678 120.464 87.1244L120.456 87.1328Z" fill="#F1854F"/>
<path d="M125.803 77.0119C125.861 78.3212 124.733 79.6555 123.296 79.9912C93.7547 86.8899 64.9484 92.731 37.4037 94.762C36.067 94.8627 34.6969 93.8136 34.3543 92.4457C28.2639 67.9481 23.8026 43.9288 22.7165 20.5894C22.658 19.2801 23.7859 17.9457 25.2229 17.61C54.7643 10.703 83.5789 4.86188 111.115 2.83091C112.452 2.7302 113.822 3.77925 114.165 5.15562C120.255 29.6532 124.708 53.6725 125.803 77.0119Z" fill="#F9D555"/>
<path d="M61.6826 40.269C61.691 40.4536 61.5155 40.6466 61.2983 40.697C56.7869 41.6789 52.3757 42.5097 48.1734 42.8035C47.9646 42.8203 47.7557 42.6692 47.7056 42.4762C46.7699 38.9849 46.0932 35.5692 45.9261 32.2458C45.9177 32.0611 46.0932 31.8681 46.3104 31.8177C50.8218 30.8358 55.233 30.005 59.4436 29.7112C59.6525 29.6945 59.8613 29.8455 59.9115 30.0385C60.8472 33.5298 61.5239 36.9455 61.691 40.269H61.6826Z" fill="white"/>
<path d="M65.4663 60.8223C65.4747 61.0069 65.2992 61.1999 65.082 61.2419C60.5706 62.2238 56.1594 63.0547 51.9571 63.3484C51.7482 63.3568 51.5394 63.2141 51.4893 63.0211C50.5536 59.5298 49.8768 56.1141 49.7098 52.7907C49.7014 52.606 49.8768 52.413 50.0941 52.3627C54.6138 51.3807 59.0167 50.5499 63.2273 50.2562C63.4278 50.2394 63.6367 50.3904 63.6952 50.5835C64.6309 54.0747 65.3076 57.4905 65.4747 60.8139L65.4663 60.8223Z" fill="white"/>
<path d="M69.2512 81.3838C69.2596 81.5684 69.0842 81.7615 68.8669 81.8034C64.3472 82.7853 59.9443 83.6162 55.7337 83.9099C55.5248 83.9267 55.316 83.7756 55.2658 83.5826C54.3385 80.0914 53.6534 76.6756 53.4863 73.3522C53.4863 73.1676 53.6534 72.9745 53.8706 72.9242C58.3904 71.9423 62.7932 71.1114 67.0039 70.8177C67.2127 70.8009 67.4133 70.952 67.4717 71.145C68.3991 74.6363 69.0842 78.052 69.2512 81.3754V81.3838Z" fill="white"/>
<path d="M9.76754 33.5052L16.142 34.8312L9.76754 36.2411L8.46424 43.2572L7.2779 36.2411L0.886719 34.8312L7.2779 33.5052L8.46424 26.5059L9.76754 33.5052Z" fill="#FFA4AC"/>
<path d="M140.739 70.0013L147.113 71.3273L140.739 72.7372L139.435 79.7533L138.249 72.7372L131.858 71.3273L138.249 70.0013L139.435 63.002L140.739 70.0013Z" fill="#FFA4AC"/>
<path d="M79.6108 45.2785L82.8774 45.9499L79.6108 46.68L78.9424 50.272L78.3325 46.68L75.0659 45.9499L78.3325 45.2785L78.9424 41.6865L79.6108 45.2785Z" fill="#074785"/>
<path d="M35.349 31.7932L38.6156 32.4645L35.349 33.1863L34.6807 36.7867L34.0708 33.1863L30.8042 32.4645L34.0708 31.7932L34.6807 28.2012L35.349 31.7932Z" fill="#074785"/>
<path d="M84.8076 25.8014L88.0742 26.4811L84.8076 27.2029L84.1392 30.8033L83.5294 27.2029L80.2544 26.4811L83.5294 25.8014L84.1392 22.2178L84.8076 25.8014Z" fill="white"/>
<path d="M92.1176 73.8391L95.3842 74.5104L92.1176 75.2322L91.4492 78.8326L90.8477 75.2322L87.5728 74.5104L90.8477 73.8391L91.4492 70.2471L92.1176 73.8391Z" fill="white"/>
<path fill-rule="evenodd" clip-rule="evenodd" d="M57.4965 36.2235C57.7972 35.9717 58.0646 35.7535 58.3319 35.5185C60.2952 33.8232 62.033 31.9853 64.0046 30.29C64.4224 29.9291 64.8735 29.5934 65.3163 29.2661C65.6421 29.0228 66.5277 28.5192 66.7198 29.2074C66.8284 29.6102 66.4943 30.0634 66.2854 30.3823C65.2494 31.9517 63.7456 33.1183 62.4841 34.4779C60.9218 36.1564 59.1924 37.7845 57.6385 39.463C57.6134 39.4882 57.5967 39.5049 57.5717 39.5301C57.3712 39.7315 57.2124 39.7315 57.0203 39.5217C56.6861 39.1609 56.3519 38.8 56.0177 38.4391C55.0068 37.3481 54.0043 36.2487 52.9934 35.1576C52.676 34.8136 52.7261 34.503 53.1354 34.2597C53.5198 34.0331 53.8957 33.8149 54.28 33.5883C54.5975 33.3952 54.8815 33.4288 55.1322 33.689C55.8674 34.4779 56.6109 35.2584 57.3461 36.0472C57.3879 36.0976 57.4297 36.148 57.4881 36.2235H57.4965Z" fill="#F1854F"/>
<path fill-rule="evenodd" clip-rule="evenodd" d="M61.2309 56.8016C61.5316 56.5498 61.799 56.3316 62.0663 56.0966C64.0296 54.4014 65.7673 52.5634 67.739 50.8681C68.1567 50.5073 68.6079 50.1716 69.0507 49.8443C69.3765 49.6009 70.2621 49.0973 70.4542 49.7855C70.5628 50.1883 70.2286 50.6415 70.0198 50.9605C68.9838 52.5298 67.48 53.6964 66.2185 55.056C64.6562 56.7345 62.9268 58.3626 61.3729 60.0411C61.3478 60.0663 61.3311 60.0831 61.3061 60.1082C61.1055 60.3097 60.9468 60.3097 60.7547 60.1082C60.4205 59.7474 60.0863 59.3865 59.7521 59.0256C58.7412 57.9346 57.7387 56.8352 56.7278 55.7442C56.4103 55.4001 56.4605 55.0895 56.8698 54.8462C57.2541 54.6196 57.6384 54.4014 58.0144 54.1748C58.3319 53.9817 58.6159 54.0153 58.8665 54.2755C59.6017 55.0644 60.3453 55.8533 61.0805 56.6338C61.1223 56.6841 61.164 56.7345 61.2225 56.81L61.2309 56.8016Z" fill="#F1854F"/>
<path fill-rule="evenodd" clip-rule="evenodd" d="M64.4726 76.8182C64.7733 76.5664 65.0407 76.3482 65.308 76.1133C67.2713 74.418 69.009 72.58 70.9807 70.8847C71.3984 70.5239 71.8496 70.1882 72.2924 69.8609C72.6182 69.6175 73.5038 69.1139 73.6959 69.8021C73.8045 70.205 73.4703 70.6581 73.2615 70.9771C72.2339 72.5465 70.7301 73.713 69.4602 75.0726C67.8979 76.7511 66.1685 78.3792 64.6146 80.0577C64.5895 80.0829 64.5728 80.0997 64.5477 80.1248C64.3389 80.3263 64.1885 80.3263 63.9964 80.1248C63.6622 79.764 63.328 79.4031 62.9938 79.0422C61.9829 77.9512 60.9804 76.8518 59.9695 75.7608C59.652 75.4167 59.7022 75.1062 60.1115 74.8628C60.4958 74.6362 60.8718 74.418 61.2561 74.1914C61.5736 73.9983 61.8576 74.0319 62.1082 74.2921C62.8434 75.081 63.587 75.8615 64.3222 76.6504C64.364 76.7007 64.4057 76.7511 64.4642 76.8266L64.4726 76.8182Z" fill="#F1854F"/>
<path d="M50.0694 9.25037C47.68 7.58866 44.639 7.90757 42.2412 9.35947C40.445 10.4505 38.3898 12.2297 38.2896 14.6132C38.9663 14.4621 39.785 14.2775 40.5954 14.1012C41.0048 12.9514 42.2162 12.1122 43.1268 11.5079C44.8228 10.3917 46.9448 10.0309 48.7243 11.0967C50.0276 11.8772 50.6792 12.985 50.7962 14.588C50.8798 15.7713 50.6709 16.77 50.0025 17.4666C49.6182 17.1057 49.117 16.8875 48.5823 16.8875C47.3375 16.8875 46.3349 18.0373 46.3349 19.4556C46.3349 20.8739 47.3458 22.0237 48.5823 22.0237C49.7435 22.0237 50.7043 21.0082 50.8213 19.7074C52.1914 18.7255 52.9266 17.2232 52.9851 15.2342C53.0603 12.6745 52.0494 10.6016 50.0694 9.22519V9.25037Z" fill="#074785"/>
<path d="M72.969 4.93689C70.5879 3.27518 67.5385 3.5941 65.1408 5.04599C63.4699 6.06148 61.5734 7.67284 61.2393 9.81292C61.9661 9.67864 62.8433 9.51918 63.6871 9.36812C64.2051 8.43655 65.2327 7.72319 66.0264 7.20286C67.7223 6.08666 69.8444 5.72578 71.6239 6.79163C72.9272 7.57213 73.5788 8.67993 73.6958 10.2829C73.7877 11.4662 73.5705 12.4649 72.9021 13.1615C72.5178 12.8006 72.0165 12.5824 71.4819 12.5824C70.237 12.5824 69.2345 13.7322 69.2345 15.1505C69.2345 16.5689 70.2454 17.7186 71.4819 17.7186C72.6431 17.7186 73.6039 16.7031 73.7209 15.4023C75.091 14.4204 75.8262 12.9181 75.8847 10.9291C75.9599 8.36941 74.949 6.29647 72.969 4.9285V4.93689Z" fill="#074785"/>
<path d="M95.877 1.11853C93.4877 -0.543175 90.4466 -0.224262 88.0489 1.22764C86.4031 2.22634 84.5484 3.79573 84.1641 5.88545C84.8408 5.78474 85.718 5.66725 86.6036 5.54136C87.1215 4.6098 88.1408 3.91322 88.9345 3.39289C90.6304 2.27669 92.7525 1.91582 94.532 2.98166C95.8353 3.76216 96.4869 4.86997 96.6039 6.47293C96.6874 7.65626 96.4786 8.65497 95.8102 9.35154C95.4259 8.99067 94.933 8.77246 94.3899 8.77246C93.1451 8.77246 92.1426 9.92223 92.1426 11.3406C92.1426 12.7589 93.1535 13.9087 94.3899 13.9087C95.5596 13.9087 96.512 12.8932 96.629 11.5923C97.9991 10.6104 98.7426 9.10816 98.7928 7.11915C98.868 4.55944 97.8571 2.48651 95.877 1.11014V1.11853Z" fill="#074785"/>
<path d="M103.279 80.6371C103.279 80.6371 103.538 80.5196 104.006 80.3433C104.465 80.1671 105.134 79.9237 105.936 79.6803C106.738 79.4201 107.673 79.16 108.684 78.883C109.695 78.6229 110.781 78.3711 111.876 78.1361C112.962 77.9095 114.064 77.7081 115.092 77.5486C116.128 77.3892 117.089 77.2633 117.924 77.1877C118.76 77.0954 119.453 77.0619 119.946 77.0367C120.439 77.0115 120.723 77.0199 120.723 77.0199C120.723 77.0199 120.464 77.1374 119.996 77.3136C119.537 77.4899 118.868 77.7333 118.066 77.9766C117.264 78.2368 116.329 78.497 115.318 78.7655C114.307 79.0257 113.221 79.2775 112.126 79.5041C111.04 79.7307 109.937 79.9237 108.91 80.0915C107.874 80.2426 106.913 80.3769 106.078 80.4524C105.242 80.5363 104.54 80.5783 104.056 80.6035C103.563 80.6287 103.279 80.6203 103.279 80.6203V80.6371Z" fill="white"/>
<path d="M26.5347 21.3441C26.5347 21.3441 26.7937 21.2266 27.2616 21.0503C27.7211 20.8741 28.3894 20.6307 29.1914 20.3873C29.9935 20.1272 30.9292 19.8586 31.9401 19.5901C32.951 19.3299 34.037 19.0781 35.1231 18.8431C36.2092 18.6165 37.312 18.4151 38.3396 18.2557C39.3756 18.1046 40.3363 17.9703 41.1718 17.8948C42.0072 17.8025 42.7006 17.7689 43.1936 17.7437C43.6865 17.7185 43.9705 17.7269 43.9705 17.7269C43.9705 17.7269 43.7115 17.8444 43.2437 18.0207C42.7842 18.1969 42.1158 18.4403 41.3138 18.6837C40.5118 18.9438 39.5761 19.204 38.5652 19.4726C37.5543 19.7327 36.4682 19.9845 35.3738 20.2111C34.2877 20.4377 33.1849 20.6307 32.1573 20.7986C31.1213 20.9496 30.1606 21.0839 29.3251 21.1594C28.4897 21.2434 27.7962 21.2853 27.3033 21.3105C26.8104 21.3357 26.5264 21.3273 26.5264 21.3273L26.5347 21.3441Z" fill="white"/>
<path d="M54.6226 93.0329C54.6226 93.0329 54.7646 92.9993 55.0403 92.9322C55.316 92.8734 55.7086 92.7643 56.2183 92.6552C56.7279 92.5377 57.3461 92.395 58.0563 92.2524C58.7664 92.1013 59.5684 91.9251 60.4456 91.7488C61.3229 91.5726 62.2669 91.3796 63.2694 91.1949C64.272 91.0019 65.333 90.7921 66.4274 90.5991C67.5219 90.406 68.6581 90.2046 69.811 90.0032C70.9639 89.8018 72.1336 89.6171 73.3115 89.4241C74.4812 89.2395 75.6591 89.0465 76.8121 88.8702C77.965 88.6856 79.1095 88.5261 80.2123 88.3667C81.3151 88.1988 82.3762 88.0477 83.387 87.9051C84.3979 87.7624 85.3587 87.6365 86.2443 87.5274C86.6871 87.4771 87.1048 87.4015 87.5142 87.3512C87.9152 87.3008 88.2995 87.2505 88.6587 87.2001C89.3772 87.1078 90.0038 87.0323 90.5301 86.9735C91.0481 86.9148 91.4575 86.8728 91.7332 86.8476C92.0089 86.8225 92.1593 86.8057 92.1593 86.8057C92.1593 86.8057 92.0172 86.8476 91.7499 86.9316C91.4825 87.0071 91.0899 87.133 90.5886 87.2673C90.0873 87.4099 89.4775 87.5862 88.7757 87.7708C88.0739 87.9554 87.2802 88.1736 86.4114 88.3834C85.5425 88.5849 84.5984 88.8115 83.5959 89.0213C82.5934 89.2395 81.5407 89.4745 80.4463 89.6927C79.3518 89.9025 78.2156 90.1207 77.0627 90.3221C75.9098 90.5319 74.7318 90.7333 73.5622 90.9264C71.2146 91.2956 68.8586 91.6565 66.6447 91.9335C65.5419 92.0761 64.4641 92.1936 63.4532 92.3195C62.434 92.4454 61.4732 92.5293 60.5877 92.6133C58.8082 92.7895 57.3211 92.8902 56.2767 92.9573C55.7588 92.9909 55.3494 93.0077 55.0653 93.0245C54.7813 93.0329 54.6393 93.0413 54.6393 93.0413L54.6226 93.0329Z" fill="#074785"/>
<path d="M43.4111 83.5939L46.6777 84.2653L43.4111 84.9871L42.7427 88.5874L42.1329 84.9871L38.8579 84.2653L42.1329 83.5939L42.7427 80.002L43.4111 83.5939Z" fill="#074785"/>
<path d="M108.644 35.8403C109.963 28.2643 115.856 10.6412 122.091 10.8663C129.884 11.1478 139.863 17.446 139.863 21.27C139.863 25.5942 137.265 27.691 136.657 29.7296" stroke="#074785" stroke-width="3" stroke-linecap="round"/>
<path fill-rule="evenodd" clip-rule="evenodd" d="M133.009 40.7233C136.395 53.0187 129.22 65.7412 116.98 69.1353C104.74 72.5368 92.0751 65.3289 88.6963 53.0334C85.3102 40.738 92.4855 28.0229 104.725 24.6214C116.965 21.2199 129.623 28.4278 133.009 40.7233Z" fill="#FD6085"/>
<path fill-rule="evenodd" clip-rule="evenodd" d="M114.244 65.012C113.632 62.4304 113.027 59.8488 112.422 57.2735C112.689 57.2232 112.964 57.1667 113.231 57.1165C113.836 59.698 114.449 62.2796 115.054 64.8549C114.786 64.9052 114.519 64.9554 114.251 65.012H114.244Z" fill="#FFA4AC"/>
<path fill-rule="evenodd" clip-rule="evenodd" d="M107.226 38.6936C106.614 36.1141 106.009 33.5345 105.404 30.955C105.671 30.9048 105.939 30.8546 106.213 30.7981C106.818 33.3776 107.43 35.9572 108.036 38.5304C107.768 38.5806 107.501 38.6308 107.233 38.6873L107.226 38.6936Z" fill="#FFA4AC"/>
<path fill-rule="evenodd" clip-rule="evenodd" d="M121.189 35.609C119.622 37.5164 118.049 39.418 116.481 41.3254C116.296 41.1858 116.117 41.0405 115.931 40.9009C117.504 38.9935 119.071 37.0919 120.645 35.1844C120.83 35.324 121.009 35.4636 121.195 35.609H121.189Z" fill="#FFA4AC"/>
<path fill-rule="evenodd" clip-rule="evenodd" d="M102.772 54.9091C101.205 56.8166 99.6317 58.7182 98.0586 60.6256C97.8732 60.486 97.6937 60.3406 97.5083 60.2011C99.0754 58.2995 100.649 56.392 102.222 54.4846C102.407 54.6242 102.587 54.7638 102.772 54.9091Z" fill="#FFA4AC"/>
<path fill-rule="evenodd" clip-rule="evenodd" d="M125.384 51.847C122.818 51.1876 120.252 50.5282 117.686 49.8746C117.749 49.6548 117.819 49.4407 117.882 49.2209C120.449 49.8804 123.015 50.5398 125.581 51.1992C125.518 51.419 125.448 51.633 125.384 51.8528V51.847Z" fill="#FFA4AC"/>
<path fill-rule="evenodd" clip-rule="evenodd" d="M102.575 45.7042C100.009 44.825 97.4427 43.9457 94.8765 43.0743C94.94 42.7812 95.0099 42.4958 95.0734 42.2028C97.6396 43.082 100.206 43.9612 102.772 44.8404C102.708 45.1335 102.639 45.4188 102.575 45.7119V45.7042Z" fill="#FFA4AC"/>
<path d="M128.524 35.2458C128.106 34.7893 127.439 35.4667 127.849 35.9231C130.4 38.7135 131.118 43.2857 131.14 46.9375C131.14 47.556 132.093 47.556 132.093 46.9375C132.071 43.0059 131.257 38.2423 128.524 35.2458Z" fill="white"/>
<path d="M96.7294 31.211C93.5999 33.3241 91.5184 36.7771 90.6682 40.4289C90.5289 41.0253 91.4451 41.283 91.5843 40.6792C92.3759 37.2777 94.2888 34.0088 97.2058 32.0356C97.7115 31.6969 97.2351 30.865 96.7221 31.211H96.7294Z" fill="white"/>
<path d="M100.856 28.3394C100.174 28.6487 99.5512 29.0021 98.9795 29.4953C98.5178 29.9003 99.1921 30.5776 99.6538 30.1727C100.152 29.7383 100.731 29.4364 101.332 29.164C101.889 28.9063 101.406 28.0817 100.848 28.3394H100.856Z" fill="white"/>
<path d="M131.132 49.2562C130.964 49.8231 130.978 50.4269 130.751 50.9791C130.649 51.222 130.854 51.5018 131.081 51.5681C131.352 51.6417 131.565 51.4723 131.667 51.2367C131.895 50.6846 131.88 50.0808 132.049 49.5139C132.232 48.9249 131.308 48.6746 131.132 49.2636V49.2562Z" fill="white"/>
<circle cx="112.197" cy="45.2729" r="3.50912" transform="rotate(20.5347 112.197 45.2729)" fill="#074785"/>
<path d="M106.411 53.4108C106.206 52.9591 109.199 48.0534 110.721 45.657L112.775 46.4263C111.988 48.9422 110.436 54.1691 110.519 54.9494C110.622 55.9248 106.668 53.9754 106.411 53.4108Z" fill="#074785"/>
<circle cx="111.375" cy="44.9653" r="3.50912" transform="rotate(20.5347 111.375 44.9653)" fill="white"/>
<path d="M105.59 53.1032C105.384 52.6515 108.377 47.7458 109.9 45.3494L111.953 46.1187C111.167 48.6346 109.615 53.8615 109.698 54.6418C109.801 55.6172 105.847 53.6678 105.59 53.1032Z" fill="white"/>
</svg>
