<svg width="16" height="17" viewBox="0 0 16 17" fill="none" xmlns="http://www.w3.org/2000/svg">
<path d="M5.5 5.99536C5.5 6.2715 5.72386 6.49536 6 6.49536H6.60148L6.37904 7.5H5.5C5.22386 7.5 5 7.72386 5 8C5 8.27614 5.22386 8.5 5.5 8.5H6.15763L6.01634 9.13812C5.95665 9.40773 6.12682 9.67469 6.39643 9.73438C6.66604 9.79408 6.933 9.62391 6.9927 9.35429L7.18185 8.5H8.15061L8.00835 9.13733C7.94819 9.40684 8.1179 9.67408 8.38741 9.73424C8.65692 9.7944 8.92417 9.62469 8.98433 9.35518L9.17522 8.5H10C10.2761 8.5 10.5 8.27614 10.5 8C10.5 7.72386 10.2761 7.5 10 7.5H9.39844L9.62269 6.49536H10.5C10.7761 6.49536 11 6.2715 11 5.99536C11 5.71922 10.7761 5.49536 10.5 5.49536H9.84591L9.98738 4.86155C10.0475 4.59204 9.87783 4.3248 9.60832 4.26464C9.33881 4.20448 9.07156 4.37419 9.0114 4.6437L8.8213 5.49536L7.84711 5.49536L7.98764 4.86066C8.04733 4.59105 7.87716 4.32409 7.60755 4.2644C7.33794 4.2047 7.07098 4.37487 7.01128 4.64449L6.82289 5.49536H6C5.72386 5.49536 5.5 5.71922 5.5 5.99536ZM8.37383 7.5H7.40326L7.6257 6.49536H8.59808L8.37383 7.5ZM5 1.5L11 1.5C12.1046 1.5 13 2.39543 13 3.5L13 12.9969C13 13.2731 12.7761 13.4969 12.5 13.4969L4 13.4969V13.5C4 14.0523 4.44772 14.5 5 14.5L12.5 14.5C12.7761 14.5 13 14.7239 13 15C13 15.2761 12.7761 15.5 12.5 15.5L5 15.5C3.89543 15.5 3 14.6046 3 13.5L3 3.5C3 2.39543 3.89543 1.5 5 1.5ZM4 3.5L4 12.4969L12 12.4969L12 3.5C12 2.94772 11.5523 2.5 11 2.5L5 2.5C4.44771 2.5 4 2.94771 4 3.5Z" fill="currentColor"/>
</svg>
