<svg width="16" height="16" viewBox="0 0 16 16" fill="none" xmlns="http://www.w3.org/2000/svg">
<path d="M3.19995 3.20001C3.19995 2.60778 3.52171 2.09071 3.99995 1.81406V12.8C3.99995 13.2418 4.35812 13.6 4.79995 13.6H11.2C11.6418 13.6 12 13.2418 12 12.8V3.20001C12 2.75818 11.6418 2.40001 11.2 2.40001H9.59995V1.60001H11.2C12.0836 1.60001 12.8 2.31635 12.8 3.20001V12.8C12.8 13.6837 12.0836 14.4 11.2 14.4H4.79995C3.9163 14.4 3.19995 13.6837 3.19995 12.8V3.20001ZM4.79995 1.60001V6.80001C4.79995 6.95151 4.88555 7.09002 5.02107 7.15778C5.15658 7.22553 5.31874 7.21091 5.43995 7.12001L6.79995 6.10001L8.15995 7.12001C8.28116 7.21091 8.44332 7.22553 8.57884 7.15778C8.71435 7.09002 8.79995 6.95151 8.79995 6.80001V1.60001H4.79995ZM5.59995 6.00001V2.40001H7.99995V6.00001L7.03995 5.28001C6.89773 5.17334 6.70217 5.17334 6.55995 5.28001L5.59995 6.00001Z" fill="currentColor"/>
</svg>
