<svg width="16" height="17" viewBox="0 0 16 17" fill="none" xmlns="http://www.w3.org/2000/svg">
<path d="M14 6.5C14 5.94772 13.5523 5.5 13 5.5L13 11.5C13 13.1569 11.6569 14.5 10 14.5L5 14.5C5 15.0523 5.44772 15.5 6 15.5H10.2105C12.3034 15.5 14 13.8034 14 11.7105L14 6.5ZM7 1.5V5C7 5.82843 7.67157 6.5 8.5 6.5H12.0015L12.0015 12C12.0015 12.8284 11.3299 13.5 10.5015 13.5L4.5 13.5C3.67157 13.5 3 12.8284 3 12L3 3C3 2.17157 3.67157 1.5 4.5 1.5L7 1.5ZM8 1.75V5C8 5.27614 8.22386 5.5 8.5 5.5H11.75L8 1.75Z" fill="currentColor"/>
</svg>
