<svg width="16" height="17" viewBox="0 0 16 17" fill="none" xmlns="http://www.w3.org/2000/svg">
<path d="M7.83248 2.25502L8 2.25C9.46253 2.25 10.6584 3.3917 10.745 4.83248L10.75 5V5.5H11.5C12.3284 5.5 13 6.17157 13 7L13 13C13 13.8284 12.3284 14.5 11.5 14.5L4.5 14.5C3.67157 14.5 3 13.8284 3 13L3 7C3 6.17157 3.67157 5.5 4.5 5.5H5.25V5C5.25 3.53747 6.3917 2.3416 7.83248 2.25502L8 2.25L7.83248 2.25502ZM8 9C7.44772 9 7 9.44772 7 10C7 10.5523 7.44772 11 8 11C8.55228 11 9 10.5523 9 10C9 9.44772 8.55228 9 8 9ZM8.12781 3.75645L8 3.75C7.35279 3.75 6.82047 4.24187 6.75645 4.87219L6.75 5V5.5L9.25 5.5V5C9.25 4.35279 8.75813 3.82047 8.12781 3.75645L8 3.75L8.12781 3.75645Z" fill="#B4BAC4"/>
</svg>
