<svg width="16" height="17" viewBox="0 0 16 17" fill="none" xmlns="http://www.w3.org/2000/svg">
<path d="M5.5 5.5C5.5 5.91421 5.16421 6.25 4.75 6.25C4.33579 6.25 4 5.91421 4 5.5C4 5.08579 4.33579 4.75 4.75 4.75C5.16421 4.75 5.5 5.08579 5.5 5.5ZM5.5 8.5C5.5 8.91421 5.16421 9.25 4.75 9.25C4.33579 9.25 4 8.91421 4 8.5C4 8.08579 4.33579 7.75 4.75 7.75C5.16421 7.75 5.5 8.08579 5.5 8.5ZM4.75 12.25C5.16421 12.25 5.5 11.9142 5.5 11.5C5.5 11.0858 5.16421 10.75 4.75 10.75C4.33579 10.75 4 11.0858 4 11.5C4 11.9142 4.33579 12.25 4.75 12.25ZM6.5 5.5C6.5 5.22386 6.72386 5 7 5L11.5 5C11.7761 5 12 5.22386 12 5.5C12 5.77614 11.7761 6 11.5 6L7 6C6.72386 6 6.5 5.77614 6.5 5.5ZM7 8C6.72386 8 6.5 8.22386 6.5 8.5C6.5 8.77614 6.72386 9 7 9H11.5C11.7761 9 12 8.77614 12 8.5C12 8.22386 11.7761 8 11.5 8H7ZM6.5 11.5C6.5 11.2239 6.72386 11 7 11L11.5 11C11.7761 11 12 11.2239 12 11.5C12 11.7761 11.7761 12 11.5 12L7 12C6.72386 12 6.5 11.7761 6.5 11.5ZM4.5 2.5C3.11929 2.5 2 3.61929 2 5L2 12C2 13.3807 3.11929 14.5 4.5 14.5L11.5 14.5C12.8807 14.5 14 13.3807 14 12L14 5C14 3.61929 12.8807 2.5 11.5 2.5L4.5 2.5ZM3 5C3 4.17157 3.67157 3.5 4.5 3.5L11.5 3.5C12.3284 3.5 13 4.17157 13 5L13 12C13 12.8284 12.3284 13.5 11.5 13.5L4.5 13.5C3.67157 13.5 3 12.8284 3 12L3 5Z" fill="currentColor"/>
</svg>
