<svg width="16" height="17" viewBox="0 0 16 17" fill="none" xmlns="http://www.w3.org/2000/svg">
<path d="M12.4786 2.27141C11.5239 1.31676 9.97611 1.31675 9.02146 2.27141L2.39646 8.89641C2.34157 8.9513 2.30022 9.01821 2.27567 9.09185L1.02567 12.8419C0.96796 13.015 1.00916 13.2058 1.13315 13.3397C1.25714 13.4736 1.44424 13.5293 1.62128 13.485L5.62128 12.485C5.70919 12.4631 5.78948 12.4176 5.85356 12.3535L11.5 6.70709L11.5858 6.79289C11.9763 7.18342 11.9763 7.81658 11.5858 8.20711L10.1464 9.64645C9.95118 9.84171 9.95118 10.1583 10.1464 10.3536C10.3417 10.5488 10.6583 10.5488 10.8536 10.3536L12.2929 8.91421C13.0739 8.13316 13.0739 6.86683 12.2929 6.08579L12.2071 5.99999L12.4786 5.72852C13.4332 4.77386 13.4332 3.22606 12.4786 2.27141ZM4.96666 15.4999C3.73162 15.4999 2.75917 14.9334 2.11173 14.3932L3.39642 14.072C3.84174 14.3216 4.36919 14.4999 4.96666 14.4999C5.37205 14.4999 5.79005 14.3359 6.23585 14.043C6.6826 13.7494 7.11407 13.356 7.5497 12.9476L7.66313 12.8411C8.04752 12.4798 8.4472 12.1041 8.82928 11.8443C9.23733 11.5668 9.7781 11.3148 10.3462 11.5333C10.7215 11.6777 10.9652 11.9442 11.1371 12.2701C11.2983 12.5754 11.4093 12.9582 11.5173 13.3743C11.5667 13.5645 11.6504 13.7483 11.7463 13.8726C11.793 13.9332 11.8333 13.9675 11.8614 13.9848C11.8861 14 11.8971 14 11.8999 14C12.0218 14 12.231 13.9175 12.5299 13.7141C12.7153 13.5879 12.8736 13.4616 13.0321 13.3352C13.1304 13.2568 13.2288 13.1782 13.3338 13.0997C13.6127 12.8909 13.8544 12.7509 14.0314 12.6614C14.1198 12.6166 14.1922 12.5844 14.245 12.5626C14.2714 12.5517 14.2929 12.5434 14.3091 12.5373L14.3294 12.53L14.3365 12.5275L14.3392 12.5266L14.3404 12.5262C14.3405 12.5261 14.3414 12.5258 14.5 13L14.3414 12.5258C14.6033 12.4382 14.8866 12.5795 14.9742 12.8414C15.0614 13.1022 14.9217 13.3841 14.662 13.473L14.6581 13.4745C14.6527 13.4765 14.6422 13.4805 14.627 13.4868C14.5966 13.4993 14.5475 13.5209 14.4828 13.5537C14.3534 13.6191 14.1617 13.7291 13.9329 13.9003C13.8743 13.9441 13.7977 14.0049 13.7103 14.0742C13.529 14.2181 13.3012 14.3988 13.0925 14.5408C12.7816 14.7524 12.351 15 11.9 15C11.4644 15 11.1488 14.7353 10.9545 14.4834C10.7562 14.2264 10.6232 13.9102 10.5494 13.6256C10.4397 13.2031 10.3528 12.9264 10.2527 12.7367C10.1634 12.5675 10.0827 12.5034 9.98715 12.4666C9.90523 12.4351 9.74183 12.4331 9.39155 12.6712C9.07852 12.8841 8.73735 13.2043 8.33353 13.5834L8.23363 13.6772C7.8026 14.0813 7.31323 14.5316 6.78497 14.8787C6.25577 15.2264 5.64461 15.4999 4.96666 15.4999Z" fill="currentColor"/>
</svg>
