<svg width="16" height="17" viewBox="0 0 16 17" fill="none" xmlns="http://www.w3.org/2000/svg">
<path d="M6 1.50195C4.89543 1.50195 4 2.39738 4 3.50195V5.70703C4.32228 5.61588 4.65659 5.55337 5 5.52242V3.50195C5 2.94967 5.44771 2.50195 6 2.50195H8.99951V5.0029C8.99951 5.83133 9.67108 6.5029 10.4995 6.5029H13V13.498C13 14.0503 12.5523 14.498 12 14.498H9.74446C9.43145 14.8774 9.06858 15.2141 8.66586 15.498H12C13.1046 15.498 14 14.6026 14 13.498V5.91892C14 5.521 13.8419 5.13938 13.5605 4.85806L10.6424 1.9411C10.3611 1.65991 9.97969 1.50195 9.58196 1.50195H6ZM9.99951 5.0029V2.71237L12.7911 5.5029H10.4995C10.2234 5.5029 9.99951 5.27904 9.99951 5.0029ZM10 11C10 8.51472 7.98528 6.5 5.5 6.5C3.01472 6.5 1 8.51472 1 11C1 13.4853 3.01472 15.5 5.5 15.5C7.98528 15.5 10 13.4853 10 11ZM5.49993 12.8804C5.84484 12.8804 6.12444 13.16 6.12444 13.5049C6.12444 13.8498 5.84484 14.1294 5.49993 14.1294C5.15502 14.1294 4.87542 13.8498 4.87542 13.5049C4.87542 13.16 5.15502 12.8804 5.49993 12.8804ZM5.49997 8.00345C6.53102 8.00345 7.35337 8.84924 7.35337 9.95294C7.35337 10.5387 7.13905 10.8607 6.62574 11.2715L6.34869 11.4858C6.10295 11.6804 6.02024 11.7863 6.0034 11.9341L5.99187 12.0902C5.94952 12.3234 5.74537 12.5003 5.49991 12.5003C5.22376 12.5003 4.99992 12.2764 4.99993 12.0003C4.99995 11.4294 5.20993 11.1161 5.7157 10.7118L5.99369 10.4968C6.28218 10.2679 6.35337 10.1547 6.35337 9.95294C6.35337 9.39534 5.97235 9.00345 5.49997 9.00345C5.0062 9.00345 4.64099 9.36913 4.64655 9.94814C4.6492 10.2243 4.4275 10.4503 4.15137 10.4529C3.87524 10.4556 3.64924 10.2339 3.64659 9.95774C3.63568 8.82084 4.45202 8.00345 5.49997 8.00345Z" fill="currentColor"/>
</svg>
