<svg width="16" height="17" viewBox="0 0 16 17" fill="none" xmlns="http://www.w3.org/2000/svg">
<path d="M3.75 1.5C2.7835 1.5 2 2.2835 2 3.25L2 13.75C2 14.7165 2.7835 15.5 3.75 15.5L11.25 15.5C12.2165 15.5 13 14.7165 13 13.75L13 3.25C13 2.2835 12.2165 1.5 11.25 1.5L3.75 1.5ZM4 4.25C4 3.83579 4.33579 3.5 4.75 3.5L10.25 3.5C10.6642 3.5 11 3.83579 11 4.25V4.75C11 5.16421 10.6642 5.5 10.25 5.5L4.75 5.5C4.33579 5.5 4 5.16421 4 4.75V4.25ZM14 4.5H14.625C14.8321 4.5 15 4.66789 15 4.875V6.125C15 6.33211 14.8321 6.5 14.625 6.5H14V4.5ZM14.625 7.5H14L14 9.5H14.625C14.8321 9.5 15 9.33211 15 9.125L15 7.875C15 7.66789 14.8321 7.5 14.625 7.5ZM14 10.5H14.625C14.8321 10.5 15 10.6679 15 10.875V12.125C15 12.3321 14.8321 12.5 14.625 12.5H14V10.5Z" fill="currentColor"/>
</svg>
