<svg width="16" height="17" viewBox="0 0 16 17" fill="none" xmlns="http://www.w3.org/2000/svg">
<path d="M14 6.5C14 5.94772 13.5523 5.5 13 5.5L13 11.5C13 13.1569 11.6569 14.5 10 14.5L5 14.5C5 15.0523 5.44772 15.5 6 15.5H10.2105C12.3034 15.5 14 13.8034 14 11.7105L14 6.5ZM4.99854 1.5C3.89397 1.5 2.99854 2.39543 2.99854 3.5L2.99854 11.5C2.99854 12.6046 3.89397 13.5 4.99854 13.5L10 13.5C11.1046 13.5 12 12.6046 12 11.5L12 6H11.9985V4.91421C11.9985 4.51639 11.8405 4.13486 11.5592 3.85355L9.64498 1.93934C9.36368 1.65804 8.98215 1.5 8.58432 1.5L4.99854 1.5ZM10 12.5L4.99854 12.5C4.44625 12.5 3.99854 12.0523 3.99854 11.5L3.99854 3.5C3.99854 2.94772 4.44625 2.5 4.99854 2.5L7.99854 2.5V4C7.99854 4.82843 8.67011 5.5 9.49854 5.5H10.9985V6.56135L11 6.56102L11 11.5C11 12.0523 10.5523 12.5 10 12.5ZM10.7914 4.5H9.49854C9.22239 4.5 8.99854 4.27614 8.99854 4V2.70711L10.7914 4.5Z" fill="currentColor"/>
</svg>
