<svg width="12" height="13" viewBox="0 0 12 13" fill="none" xmlns="http://www.w3.org/2000/svg">
<path d="M4.61538 0L7.38416 0V3.25132C7.38416 4.02068 8.00408 4.64438 8.76878 4.64438L12 4.64438L12 11.1408C12 12.1666 11.1734 12.9982 10.1538 12.9982L7.07618 12.9982C8.37947 12.0736 9.23077 10.5472 9.23077 8.82085C9.23077 5.99985 6.95775 3.71299 4.15385 3.71299C3.67384 3.71299 3.20938 3.78001 2.76923 3.90526V1.8574C2.76923 0.831585 3.59578 0 4.61538 0ZM8.76878 3.71567L11.9969 3.71567L8.3154 0L8.30724 0V3.25132C8.30724 3.50778 8.51388 3.71567 8.76878 3.71567ZM8.30769 8.82085C8.30769 11.1289 6.44795 13 4.15385 13C1.85974 13 0 11.1289 0 8.82085C0 6.51276 1.85974 4.64169 4.15385 4.64169C6.44795 4.64169 8.30769 6.51276 8.30769 8.82085ZM4.15378 10.5671C3.8354 10.5671 3.57731 10.8268 3.57731 11.1471C3.57731 11.4674 3.8354 11.7271 4.15378 11.7271C4.47216 11.7271 4.73025 11.4674 4.73025 11.1471C4.73025 10.8268 4.47216 10.5671 4.15378 10.5671ZM4.15382 6.03795C3.18648 6.03795 2.43293 6.79706 2.44301 7.8529C2.44546 8.10934 2.65407 8.31523 2.90896 8.31277C3.16384 8.3103 3.36849 8.10042 3.36604 7.84398C3.36091 7.30625 3.69803 6.96665 4.15382 6.96665C4.58986 6.96665 4.94158 7.33059 4.94158 7.84844C4.94158 8.03585 4.87586 8.14095 4.60956 8.35352L4.35295 8.55322C3.88609 8.92871 3.69226 9.21961 3.69224 9.74981C3.69223 10.0063 3.89886 10.2142 4.15376 10.2142C4.38034 10.2142 4.56879 10.0499 4.60788 9.83331L4.61852 9.6883C4.63407 9.55108 4.71042 9.45274 4.93725 9.27202L5.19299 9.07299C5.66682 8.69146 5.86465 8.39244 5.86465 7.84844C5.86465 6.82343 5.10555 6.03795 4.15382 6.03795Z" fill="currentColor"/>
</svg>
