<svg width="16" height="17" viewBox="0 0 16 17" fill="none" xmlns="http://www.w3.org/2000/svg">
<path d="M7.17592 4.5L6.0679 3.61016C5.97913 3.53886 5.86868 3.5 5.75482 3.5H4C2.89543 3.5 2 4.39543 2 5.5L2 11.5C2 12.6046 2.89543 13.5 4 13.5L11.9978 13.5C13.1024 13.5 13.9978 12.6046 13.9978 11.5L13.9978 6.5C13.9978 5.39543 13.1024 4.5 11.9978 4.5H7.17592ZM4 4.5H5.5789L6.2907 5.07165L5.52014 5.9999L3 5.99887V5.5C3 4.94772 3.44772 4.5 4 4.5ZM3 11.5L3 6.99887L5.75462 7C5.90341 7.00006 6.04451 6.93385 6.13954 6.81936L7.23477 5.5H9.00044V7C9.00044 7.27614 9.2243 7.5 9.50044 7.5H9.99579L9.99578 8.5004H9.50044C9.2243 8.5004 9.00044 8.72425 9.00044 9.0004C9.00044 9.27654 9.2243 9.5004 9.50044 9.5004H9.99578L9.99578 10.5004H9.49577C9.21963 10.5004 8.99577 10.7243 8.99577 11.0004C8.99577 11.2765 9.21963 11.5004 9.49577 11.5004H9.99578L9.99577 12.5L4 12.5C3.44772 12.5 3 12.0523 3 11.5ZM10.9958 12.5L10.9958 10.5004H11.5004C11.7766 10.5004 12.0004 10.2765 12.0004 10.0004C12.0004 9.72425 11.7766 9.5004 11.5004 9.5004H10.9958L10.9958 7.5L11.5004 7.5C11.7766 7.5 12.0004 7.27614 12.0004 7V5.5C12.5515 5.50141 12.9978 5.94859 12.9978 6.5L12.9978 11.5C12.9978 12.0523 12.5501 12.5 11.9978 12.5H10.9958ZM10.0004 5.5L11.0004 5.5V6.5H10.0004V5.5Z" fill="currentColor"/>
</svg>
