<svg width="149" height="154" viewBox="0 0 149 154" fill="none" xmlns="http://www.w3.org/2000/svg">
<path d="M49.9345 43.3977C49.9345 43.3977 46.9225 43.1555 44.166 47.3775C51.3527 45.7461 55.2271 47.0971 55.2271 47.0971C55.2271 47.0971 53.1893 43.2033 49.9345 43.3977Z" fill="#808285"/>
<path d="M68.6739 43.8831C67.4282 42.4205 66.3645 40.805 65.5085 39.0875C66.7989 37.9531 66.9299 35.7035 66.4156 34.0689C65.9014 32.4342 64.5407 31.131 62.9405 30.5C61.3402 29.8691 59.5388 29.8723 57.8747 30.3025C55.856 30.8282 53.9172 32.0837 53.1155 34.0051C52.3137 35.9265 53.0101 38.5012 54.9137 39.3488C53.9779 41.8979 52.7194 44.412 50.9626 46.4832C55.9901 46.5246 61.0176 46.5692 66.0451 46.4227C66.866 46.4003 67.7316 46.3557 68.412 45.8969C69.0923 45.4412 69.2041 44.5044 68.6739 43.8831ZM62.7776 36.9749C61.8577 37.6185 60.628 37.7141 59.5899 37.2999C58.9862 37.0609 58.424 36.6339 58.143 36.0285C57.881 35.4645 57.8906 34.7985 58.0695 34.2027C58.2579 33.5781 58.6572 33.0333 59.1555 32.6413C59.8422 32.0996 63.3014 31.1819 64.0935 33.9987C64.4066 35.1076 63.6975 36.3344 62.7744 36.9749H62.7776Z" fill="#BCBEC0"/>
<path d="M55.1471 46.511C55.8211 44.0607 56.6835 41.6613 57.795 39.3798C55.8498 38.7903 54.3965 36.8657 54.3582 34.8391C54.3295 33.2746 55.1503 31.7483 56.4056 30.8242C54.9651 31.4902 53.7194 32.5576 53.1157 34.0011C52.314 35.9225 53.0103 38.4972 54.914 39.3447C53.9781 41.8939 52.7196 44.408 50.9629 46.4792C52.3555 46.4919 53.7513 46.5015 55.144 46.5078L55.1471 46.511Z" fill="#D1D3D4"/>
<path d="M31.4336 44.9961H96.28L104.569 139.295L40.508 147L31.4336 44.9961Z" fill="#EC5D7A"/>
<path d="M79.636 54.8493C79.636 54.8493 85.4875 52.6857 83.5903 45H75.4805L79.636 54.8493Z" fill="#D8506B"/>
<path d="M31.4339 44.9961L29 46.7678L38.1287 146.063L40.5083 147L31.4339 44.9961Z" fill="#FD869E"/>
<path d="M104.568 139.294L98.8574 74.2912L94.2899 48.9717L36.9432 47.8438C36.9432 47.8438 36.3235 122.314 48.0171 146.101L104.568 139.298V139.294Z" fill="#D8506C"/>
<path d="M38.0933 51.6167C38.0705 50.5264 38.945 49.6489 40.0355 49.6293L94.0043 48.663C95.07 48.6439 95.9631 49.4638 96.0377 50.527C97.9307 77.5215 101.114 104.418 106.253 130.986C106.487 132.199 105.582 133.336 104.347 133.384C86.4937 134.085 68.579 136.547 51.0179 139.836C49.9939 140.028 48.992 139.41 48.7381 138.4C43.7727 118.636 38.4754 69.8889 38.0933 51.6167Z" fill="white"/>
<path d="M77.1543 48.9648L79.6361 54.847C79.6361 54.847 83.4562 53.4386 83.9258 48.8438C81.6675 48.8852 79.4125 48.9234 77.1543 48.9648Z" fill="#E6E7E8"/>
<path d="M56.1533 44.119C60.2386 43.9342 64.3238 43.7493 68.4058 43.5613C67.6073 42.5863 66.8855 41.5507 66.2498 40.4609C64.854 40.5725 63.4806 40.8656 62.1454 41.3053C60.0437 41.9968 58.0634 43.0101 56.1533 44.119Z" fill="#808285"/>
<path d="M53.0928 54.8291L79.6357 54.8482C81.0347 51.8307 80.4246 48.2013 79.3099 44.9257C78.9458 43.8518 77.9907 43.0935 76.86 42.9883C68.2392 42.1949 59.4171 42.1375 49.9307 43.4057C52.8852 44.9575 53.3547 50.5816 53.0928 54.8323V54.8291Z" fill="#BCBEC0"/>
<path d="M80.0252 47.4219L52.5752 47.4983C52.9872 49.0884 53.1469 50.9174 53.1533 52.6731L80.3222 52.5297C80.5778 50.8823 80.4149 49.1362 80.0252 47.4219Z" fill="#D1D3D4"/>
<path d="M65.1981 43.028C63.5755 43.063 61.9114 43.1713 60.423 43.8214C60.1578 43.9361 59.8544 44.1528 59.9087 44.4364C59.9534 44.6849 60.2409 44.7964 60.4836 44.8602C64.2207 45.8416 68.1303 45.7938 71.9568 45.5134C72.7074 45.4592 76.5659 45.5675 76.403 44.5447C76.1858 43.1777 72.832 43.3434 71.8897 43.2574C69.6667 43.0598 67.4308 42.9833 65.2013 43.028H65.1981Z" fill="#D1D3D4"/>
<path d="M56.9222 45.1683C57.9471 45.1683 58.7779 44.8473 58.7779 44.4513C58.7779 44.0554 57.9471 43.7344 56.9222 43.7344C55.8973 43.7344 55.0664 44.0554 55.0664 44.4513C55.0664 44.8473 55.8973 45.1683 56.9222 45.1683Z" fill="#D1D3D4"/>
<path d="M93.5017 75.9184L82.9964 76.4506L80.9873 63.7431L91.4895 63.2109L93.4986 75.9184H93.5017ZM84.0824 75.1186L92.0197 74.7171L90.4131 64.5429L82.4758 64.9444L84.0824 75.1186Z" fill="#BCBEC0"/>
<path d="M96.7086 98.0811L86.2033 98.5654L84.2549 85.8515L94.7602 85.3672L96.7086 98.0811ZM87.2925 97.2367L95.233 96.8702L93.6711 86.6896L85.7306 87.056L87.2925 97.2367Z" fill="#BCBEC0"/>
<path d="M90.3295 120.828L88.1543 108.15L98.6501 107.48L100.825 120.159L90.3295 120.828ZM89.6555 109.332L91.3963 119.484L99.3272 118.98L97.5864 108.828L89.6555 109.332Z" fill="#BCBEC0"/>
<path opacity="0.5" d="M44.1719 70.9022C43.7439 70.9022 43.3894 70.5612 43.3734 70.1311C43.3606 69.6913 43.7056 69.3249 44.1464 69.309L77.2403 68.2542C77.6875 68.2415 78.0516 68.5856 78.0644 69.0254C78.0772 69.4651 77.7322 69.8315 77.2914 69.8475L44.1975 70.9022C44.1975 70.9022 44.1815 70.9022 44.1719 70.9022Z" fill="#808285"/>
<path opacity="0.5" d="M44.8142 74.2457C44.3862 74.2457 44.0317 73.9047 44.0157 73.4746C44.0029 73.0348 44.3479 72.6684 44.7887 72.6525L77.8826 71.5978C78.333 71.585 78.6908 71.9291 78.7067 72.3689C78.7195 72.8086 78.3745 73.175 77.9338 73.191L44.8398 74.2457C44.8398 74.2457 44.8238 74.2457 44.8142 74.2457Z" fill="#808285"/>
<path opacity="0.5" d="M45.4532 77.5875C45.0252 77.5875 44.6706 77.2466 44.6546 76.8164C44.6419 76.3767 44.9868 76.0103 45.4276 75.9943L61.9762 75.4654C62.4234 75.4494 62.7875 75.7968 62.8003 76.2365C62.813 76.6762 62.4681 77.0427 62.0273 77.0586L45.4787 77.5875C45.4787 77.5875 45.4627 77.5875 45.4532 77.5875Z" fill="#808285"/>
<path d="M43.4375 67.5795C43.0095 67.5795 42.655 67.2386 42.639 66.8084C42.6262 66.3687 42.9712 66.0023 43.412 65.9863L59.9606 65.4574C60.4077 65.4446 60.7719 65.7888 60.7846 66.2285C60.7974 66.6682 60.4524 67.0347 60.0117 67.0506L43.4631 67.5795C43.4631 67.5795 43.4471 67.5795 43.4375 67.5795Z" fill="#212B6B"/>
<path opacity="0.5" d="M48.6505 94.8149C48.2448 94.8149 47.8967 94.5058 47.8552 94.0916C47.8136 93.655 48.1362 93.2663 48.5738 93.2249L81.54 90.1213C81.9776 90.0767 82.3673 90.4017 82.4088 90.8382C82.4503 91.2748 82.1277 91.6635 81.6901 91.7049L48.724 94.8085C48.6984 94.8085 48.6728 94.8117 48.6473 94.8117L48.6505 94.8149Z" fill="#808285"/>
<path opacity="0.5" d="M49.4972 98.1113C49.0915 98.1113 48.7434 97.8022 48.7018 97.3879C48.6603 96.9514 48.9829 96.5627 49.4205 96.5212L82.3867 93.4177C82.8243 93.3762 83.214 93.6981 83.2555 94.1346C83.297 94.5711 82.9744 94.9599 82.5368 95.0013L49.5706 98.1081C49.5451 98.1081 49.5195 98.1113 49.494 98.1113H49.4972Z" fill="#808285"/>
<path opacity="0.5" d="M50.3429 101.407C49.9372 101.407 49.5891 101.098 49.5475 100.687C49.506 100.248 49.8286 99.862 50.2662 99.8205L66.7477 98.2687C67.1853 98.2305 67.575 98.5491 67.6165 98.9857C67.658 99.4254 67.3354 99.811 66.8978 99.8524L50.4163 101.404C50.3908 101.404 50.3652 101.407 50.3397 101.407H50.3429Z" fill="#808285"/>
<path d="M47.7081 91.5439C47.3025 91.5439 46.9543 91.2348 46.9128 90.8205C46.8713 90.384 47.1939 89.9952 47.6314 89.9538L64.1129 88.402C64.5505 88.3606 64.9402 88.6824 64.9817 89.119C65.0233 89.5555 64.7007 89.9443 64.2631 89.9857L47.7816 91.5375C47.756 91.5375 47.7305 91.5407 47.7049 91.5407L47.7081 91.5439Z" fill="#212B6B"/>
<path opacity="0.5" d="M52.5599 118.125C52.1574 118.125 51.8125 117.822 51.7677 117.418C51.7198 116.981 52.036 116.586 52.4736 116.538L85.3823 112.896C85.8199 112.845 86.216 113.164 86.2639 113.6C86.3118 114.037 85.9956 114.432 85.558 114.48L52.6493 118.122C52.6206 118.125 52.5886 118.128 52.5599 118.128V118.125Z" fill="#808285"/>
<path opacity="0.5" d="M53.461 121.406C53.0585 121.406 52.7136 121.103 52.6689 120.699C52.621 120.262 52.9372 119.867 53.3748 119.819L86.2835 116.177C86.721 116.126 87.1171 116.445 87.165 116.881C87.2129 117.318 86.8967 117.713 86.4591 117.761L53.5504 121.403C53.5217 121.406 53.4897 121.409 53.461 121.409V121.406Z" fill="#808285"/>
<path opacity="0.5" d="M54.3614 124.685C53.9589 124.685 53.614 124.382 53.5693 123.978C53.5213 123.541 53.8376 123.146 54.2751 123.098L70.7311 121.279C71.1687 121.228 71.5648 121.546 71.6127 121.983C71.6606 122.42 71.3444 122.815 70.9068 122.862L54.4508 124.682C54.4221 124.685 54.3901 124.688 54.3614 124.688V124.685Z" fill="#808285"/>
<path d="M51.5665 114.869C51.164 114.869 50.819 114.566 50.7743 114.161C50.7264 113.725 51.0426 113.33 51.4802 113.282L67.9362 111.462C68.377 111.411 68.7698 111.73 68.8177 112.167C68.8657 112.603 68.5494 112.998 68.1118 113.046L51.6559 114.866C51.6272 114.869 51.5952 114.872 51.5665 114.872V114.869Z" fill="#212B6B"/>
<path d="M80.9023 66.702C83.1861 67.4508 85.3006 68.4609 87.0318 70.2804C89.2741 67.3998 91.2959 64.7933 94.4613 62.5469C91.462 66.1667 89.1367 70.1625 87.5716 74.3749C86.0991 71.539 83.7674 68.7955 80.9023 66.702Z" fill="#212B6B"/>
<path d="M83.6992 88.2098C85.983 88.9586 88.0975 89.9687 89.8287 91.7882C92.0709 88.9076 94.0928 86.3011 97.2581 84.0547C94.2589 87.6745 91.9336 91.6703 90.3685 95.8827C88.896 93.0468 86.5643 90.3033 83.6992 88.2098Z" fill="#212B6B"/>
<g clip-path="url(#clip0_3673_7633)">
<path d="M92.5586 112.03L97.3969 116.648M96.7371 111.59L93.2184 116.868" stroke="#212B6B" stroke-width="1.5" stroke-linecap="round" stroke-linejoin="round"/>
</g>
<path d="M115.881 72.9993L122.255 74.3253L115.881 75.7353L114.578 82.7514L113.391 75.7353L107 74.3253L113.391 72.9993L114.578 66L115.881 72.9993Z" fill="#FFA4AC"/>
<path d="M128.881 92.9993L135.255 94.3253L128.881 95.7353L127.578 102.751L126.391 95.7353L120 94.3253L126.391 92.9993L127.578 86L128.881 92.9993Z" fill="#F15663"/>
<defs>
<clipPath id="clip0_3673_7633">
<rect width="10.5563" height="10.5563" fill="white" transform="translate(89.6992 109.172)"/>
</clipPath>
</defs>
</svg>
