<svg viewBox="0 0 10 13" fill="none" xmlns="http://www.w3.org/2000/svg">
<path d="M4.83248 0.755019L5 0.75C6.46253 0.75 7.6584 1.8917 7.74498 3.33248L7.75 3.5V4H8.5C9.32843 4 10 4.67157 10 5.5L10 11.5C10 12.3284 9.32843 13 8.5 13L1.5 13C0.671573 13 0 12.3284 0 11.5L0 5.5C0 4.67157 0.671573 4 1.5 4L2.25 4V3.5C2.25 2.03747 3.3917 0.841596 4.83248 0.755019L5 0.75L4.83248 0.755019ZM5 7.5C4.44772 7.5 4 7.94772 4 8.5C4 9.05228 4.44772 9.5 5 9.5C5.55228 9.5 6 9.05228 6 8.5C6 7.94772 5.55228 7.5 5 7.5ZM5.12781 2.25645L5 2.25C4.35279 2.25 3.82047 2.74187 3.75645 3.37219L3.75 3.5V4L6.25 4V3.5C6.25 2.85279 5.75813 2.32047 5.12781 2.25645L5 2.25L5.12781 2.25645Z" fill="currentColor"/>
</svg>
