<svg width="16" height="17" viewBox="0 0 16 17" fill="none" xmlns="http://www.w3.org/2000/svg">
<path d="M9.00043 4.5H8.65325L6.09435 6.86703C6.0019 6.95254 5.8806 7.00002 5.75467 6.99998L2 6.9988L2 11.5C2 12.6046 2.89543 13.5 4 13.5L9.99578 13.5L9.99578 11.5004H9.49579C9.21965 11.5004 8.99579 11.2765 8.99579 11.0004C8.99579 10.7243 9.21965 10.5004 9.49579 10.5004H9.99578L9.99579 9.5004H9.50043C9.22429 9.5004 9.00043 9.27654 9.00043 9.0004C9.00043 8.72425 9.22429 8.5004 9.50043 8.5004H9.99579L9.99579 7.5H9.50043C9.36782 7.5 9.24065 7.44732 9.14688 7.35355C9.05311 7.25978 9.00043 7.13261 9.00043 7V4.5ZM10.9958 13.5H11.9978C13.1024 13.5 13.9978 12.6046 13.9978 11.5L13.9978 6.5C13.9978 5.3963 13.1038 4.5014 12.0004 4.5V7C12.0004 7.27614 11.7766 7.5 11.5004 7.5L10.9958 7.5L10.9958 9.5004H11.5004C11.7766 9.5004 12.0004 9.72425 12.0004 10.0004C12.0004 10.2765 11.7766 10.5004 11.5004 10.5004H10.9958L10.9958 10.9973L10.9958 11.0004L10.9958 11.0035L10.9958 13.5ZM10.0004 4.5H11.0004V6.5L10.0004 6.5V4.5ZM2 5.9988V5.5C2 4.39543 2.89543 3.5 4 3.5H5.75482C5.86868 3.5 5.97913 3.53886 6.0679 3.61016L7.17592 4.5H7.1806L5.5591 5.99992L2 5.9988Z" fill="currentColor"/>
</svg>
