<svg width="16" height="17" viewBox="0 0 16 17" fill="none" xmlns="http://www.w3.org/2000/svg">
<path d="M4.49976 9.50305C4.22361 9.50305 3.99976 9.72691 3.99976 10.0031V12.0031C3.99976 12.2792 4.22361 12.5031 4.49976 12.5031C4.7759 12.5031 4.99976 12.2792 4.99976 12.0031V11.8366H5.33296C5.97736 11.8366 6.49976 11.3143 6.49976 10.6699C6.49976 10.0254 5.97736 9.50305 5.33296 9.50305H4.49976ZM5.33296 10.8366H4.99976V10.5031H5.33296C5.42508 10.5031 5.49976 10.5777 5.49976 10.6699C5.49976 10.762 5.42508 10.8366 5.33296 10.8366ZM10.0005 10.0024C10.0008 9.72653 10.2246 9.50305 10.5005 9.50305H11.4988C11.7749 9.50305 11.9988 9.72691 11.9988 10.0031C11.9988 10.2792 11.7749 10.5031 11.4988 10.5031H10.9998L10.9994 10.8375H11.4988C11.7749 10.8375 11.9988 11.0614 11.9988 11.3375C11.9988 11.6137 11.7749 11.8375 11.4988 11.8375H11L11.0005 12.0018C11.0012 12.2779 10.7779 12.5024 10.5017 12.503C10.2256 12.5037 10.0012 12.2805 10.0005 12.0043L9.99878 11.3369L10.0005 10.0024ZM7.49829 9.50305C7.22215 9.50305 6.99829 9.72691 6.99829 10.0031V12.0031C6.99829 12.2792 7.22215 12.5031 7.49829 12.5031H7.99974C8.82816 12.5031 9.49973 11.8315 9.49974 11.0031C9.49974 10.1746 8.82817 9.50305 7.99974 9.50305H7.49829ZM7.99829 11.5031V10.5031H7.99974C8.27588 10.5031 8.49974 10.7269 8.49974 11.0031C8.49974 11.2792 8.27588 11.5031 7.99974 11.5031H7.99829ZM9 2.50201L4.5 2.50201C3.67157 2.50201 3 3.17359 3 4.00201L3 7.58419C2.4174 7.79011 2 8.34573 2 8.99884L2 13.002C2 13.8305 2.67157 14.502 3.5 14.502L12.5 14.502C13.3284 14.502 14 13.8305 14 13.002L14 8.99884C14 8.34573 13.5826 7.79011 13 7.58419V6.5L10.5 6.5C9.67157 6.5 9 5.82843 9 5V2.50201ZM3.5 8.49884H12.5C12.7761 8.49884 13 8.7227 13 8.99884L13 13.002C13 13.2782 12.7761 13.502 12.5 13.502L3.5 13.502C3.22386 13.502 3 13.2782 3 13.002L3 8.99884C3 8.7227 3.22386 8.49884 3.5 8.49884ZM12.7056 5.5L10.5 5.5C10.2239 5.5 10 5.27614 10 5V2.79752L12.7056 5.5Z" fill="currentColor"/>
</svg>
