<svg width="108" height="84" viewBox="0 0 108 84" fill="none" xmlns="http://www.w3.org/2000/svg">
<rect x="19.5973" y="20.6548" width="45.5405" height="59.4556" rx="8" transform="rotate(-16.0665 19.5973 20.6548)" fill="white"/>
<rect x="22.7584" y="13.1445" width="54.2658" height="70.8102" rx="8" transform="rotate(-10.1485 22.7584 13.1445)" fill="#3F9161"/>
<rect x="38.7278" y="6.58838" width="20.1842" height="8.27222" rx="1" transform="rotate(-10.1485 38.7278 6.58838)" fill="#333333"/>
<line x1="46.5835" y1="26.016" x2="70.3461" y2="21.7624" stroke="white" stroke-width="2" stroke-linecap="round"/>
<line x1="47.3989" y1="30.5755" x2="55.2016" y2="29.1788" stroke="white" stroke-width="2" stroke-linecap="round"/>
<line x1="49.5569" y1="42.6268" x2="73.3194" y2="38.3733" stroke="white" stroke-width="2" stroke-linecap="round"/>
<line x1="50.3732" y1="47.1869" x2="58.1758" y2="45.7902" stroke="white" stroke-width="2" stroke-linecap="round"/>
<line x1="52.53" y1="59.2386" x2="76.2926" y2="54.9851" stroke="white" stroke-width="2" stroke-linecap="round"/>
<line x1="53.3459" y1="63.7979" x2="61.1486" y2="62.4013" stroke="white" stroke-width="2" stroke-linecap="round"/>
<path d="M37.1583 33.6194L34.5096 30.8914L35.4138 30.0101L36.9635 31.6046L40.2528 26.5461L41.3103 27.2346L37.1583 33.6194Z" fill="black"/>
<path d="M40.0741 49.9048L37.4253 47.1768L38.3296 46.2955L39.8793 47.8901L43.1686 42.8315L44.226 43.52L40.0741 49.9048Z" fill="white"/>
<path d="M42.9888 66.1924L40.34 63.4644L41.2443 62.5831L42.794 64.1776L46.0833 59.1191L47.1407 59.8076L42.9888 66.1924Z" fill="white"/>
<path d="M103.056 51.0092L108 52.0376L103.056 53.131L102.046 58.5724L101.126 53.131L96.1689 52.0376L101.126 51.0092L102.046 45.5808L103.056 51.0092Z" fill="#DCF0E4"/>
<path d="M6.88755 22.316L11.8313 23.3444L6.88755 24.4379L5.87677 29.8793L4.95671 24.4379L0 23.3444L4.95671 22.316L5.87677 16.8877L6.88755 22.316Z" fill="#DCF0E4"/>
<path d="M16.9251 55.347L20.1649 56.0225L16.9251 56.7397L16.2623 60.3172L15.6574 56.7397L12.4094 56.0225L15.6574 55.347L16.2623 51.7861L16.9251 55.347Z" fill="white"/>
<path fill-rule="evenodd" clip-rule="evenodd" d="M99.8213 17.1676C100.055 16.9723 100.262 16.8031 100.469 16.6208C101.992 15.306 103.34 13.8806 104.869 12.5658C105.193 12.286 105.543 12.0256 105.886 11.7718C106.139 11.583 106.825 11.1925 106.974 11.7262C107.059 12.0386 106.8 12.3901 106.638 12.6374C105.834 13.8546 104.668 14.7593 103.689 15.8137C102.478 17.1155 101.137 18.3782 99.9314 19.68C99.912 19.6995 99.899 19.7125 99.8796 19.732C99.7241 19.8882 99.601 19.8882 99.4519 19.7255C99.1928 19.4456 98.9336 19.1658 98.6744 18.8859C97.8904 18.0397 97.1129 17.1871 96.3289 16.3409C96.0827 16.0741 96.1216 15.8333 96.439 15.6445C96.7371 15.4688 97.0287 15.2995 97.3267 15.1238C97.5729 14.9741 97.7932 15.0001 97.9876 15.2019C98.5578 15.8137 99.1345 16.4191 99.7046 17.0309C99.737 17.0699 99.7694 17.109 99.8148 17.1676H99.8213Z" fill="#DCF0E4"/>
</svg>
