<svg width="16" height="16" viewBox="0 0 16 16" fill="none" xmlns="http://www.w3.org/2000/svg">
<path d="M2 5C2 4.17157 2.67157 3.5 3.5 3.5L9.5 3.5C10.3284 3.5 11 4.17157 11 5L11 11C11 11.8284 10.3284 12.5 9.5 12.5L3.5 12.5C2.67157 12.5 2 11.8284 2 11L2 5ZM3.5 2.5C2.11929 2.5 1 3.61929 1 5L1 11C1 12.3807 2.11929 13.5 3.5 13.5L9.5 13.5C10.8807 13.5 12 12.3807 12 11V10.4994L13.7999 11.85C14.2943 12.221 15 11.8682 15 11.2501L15 4.75496C15 4.13743 14.2954 3.78451 13.8009 4.15432L12 5.50093V5C12 3.61929 10.8807 2.5 9.5 2.5L3.5 2.5ZM12 6.74959L14 5.25407L14 10.7499L12 9.24921V6.74959Z" fill="currentColor"/>
</svg>
