<svg width="20" height="20" viewBox="0 0 20 20" fill="none" xmlns="http://www.w3.org/2000/svg">
<path d="M10 18C14.4183 18 18 14.4183 18 10C18 5.58172 14.4183 2 10 2C5.58172 2 2 5.58172 2 10C2 14.4183 5.58172 18 10 18ZM13.7069 8.70739L9.70361 12.7074C9.51595 12.8949 9.26147 13.0002 8.99619 13C8.7309 12.9998 8.47655 12.8943 8.28912 12.7065L6.29233 10.7065C5.90212 10.3157 5.90262 9.68254 6.29346 9.29233C6.6843 8.90212 7.31746 8.90262 7.70767 9.29346L8.99765 10.5855L12.2932 7.29261C12.6839 6.90224 13.3171 6.9025 13.7074 7.29318C14.0978 7.68386 14.0975 8.31703 13.7069 8.70739Z" fill="#3F9161"/>
</svg>
