<svg width="14" height="14" viewBox="0 0 14 14" fill="none" xmlns="http://www.w3.org/2000/svg">
<path d="M3.75 5C4.16421 5 4.5 4.66421 4.5 4.25C4.5 3.83579 4.16421 3.5 3.75 3.5C3.33579 3.5 3 3.83579 3 4.25C3 4.66421 3.33579 5 3.75 5ZM4.5 7.25C4.5 7.66421 4.16421 8 3.75 8C3.33579 8 3 7.66421 3 7.25C3 6.83579 3.33579 6.5 3.75 6.5C4.16421 6.5 4.5 6.83579 4.5 7.25ZM3.75 11C4.16421 11 4.5 10.6642 4.5 10.25C4.5 9.83579 4.16421 9.5 3.75 9.5C3.33579 9.5 3 9.83579 3 10.25C3 10.6642 3.33579 11 3.75 11ZM6 4.5C6 4.22386 6.22386 4 6.5 4L10.5 4C10.7761 4 11 4.22386 11 4.5C11 4.77614 10.7761 5 10.5 5H6.5C6.22386 5 6 4.77614 6 4.5ZM6.5 7C6.22386 7 6 7.22386 6 7.5C6 7.77614 6.22386 8 6.5 8H10.5C10.7761 8 11 7.77614 11 7.5C11 7.22386 10.7761 7 10.5 7H6.5ZM6 10.5C6 10.2239 6.22386 10 6.5 10L10.5 10C10.7761 10 11 10.2239 11 10.5C11 10.7761 10.7761 11 10.5 11L6.5 11C6.22386 11 6 10.7761 6 10.5ZM2.75 0L11.25 0C12.7688 0 14 1.23122 14 2.75L14 11.25C14 12.7688 12.7688 14 11.25 14L2.75 14C1.23122 14 0 12.7688 0 11.25L0 2.75C0 1.23122 1.23122 0 2.75 0ZM1 2.75L1 11.25C1 12.2165 1.7835 13 2.75 13L11.25 13C12.2165 13 13 12.2165 13 11.25L13 2.75C13 1.7835 12.2165 1 11.25 1L2.75 1C1.7835 1 1 1.7835 1 2.75Z" fill="currentColor"/>
</svg>
