<svg width="14" height="12" viewBox="0 0 14 12" fill="none" xmlns="http://www.w3.org/2000/svg">
<path d="M1.89286 0.5C1.1236 0.5 0.5 1.11561 0.5 1.875L0.5 6.45835C0.5 7.21774 1.1236 7.83335 1.89286 7.83335L8.39287 7.83335C9.16213 7.83335 9.78573 7.21774 9.78573 6.45835V1.875C9.78573 1.11561 9.16213 0.5 8.39287 0.5L1.89286 0.5ZM5.53307 2.08494L6.12178 2.98616L7.08726 3.1685C7.25841 3.20082 7.39682 3.32502 7.44568 3.49014C7.49455 3.65526 7.44564 3.83349 7.31903 3.95168L6.59896 4.62389L6.98012 5.86725C7.03626 6.05036 6.97127 6.24864 6.81712 6.36458C6.66297 6.48053 6.45208 6.48976 6.28814 6.38773L5.14288 5.67498L3.99762 6.38773C3.83368 6.48976 3.62279 6.48053 3.46864 6.36458C3.31449 6.24864 3.2495 6.05036 3.30564 5.86725L3.6868 4.62389L2.96673 3.95168C2.84012 3.83349 2.79121 3.65526 2.84007 3.49014C2.88894 3.32502 3.02734 3.20082 3.19849 3.1685L4.16398 2.98616L4.75269 2.08494C4.83818 1.95407 4.98513 1.875 5.14288 1.875C5.30063 1.875 5.44758 1.95407 5.53307 2.08494ZM2.43638 8.74999C2.62759 9.28404 3.14352 9.66666 3.74998 9.66666L8.85713 9.66666C10.3956 9.66666 11.6429 8.43544 11.6429 6.91666V3.70832C11.6429 3.10963 11.2553 2.60031 10.7143 2.41155V6.91666C10.7143 7.92918 9.88281 8.74999 8.85713 8.74999L2.43638 8.74999ZM4.29352 10.5833C4.48474 11.1174 5.00067 11.5 5.60713 11.5L9.32142 11.5C11.6292 11.5 13.5 9.65317 13.5 7.37499V5.54165C13.5 4.94297 13.1124 4.43365 12.5714 4.24489V7.37499C12.5714 9.14691 11.1163 10.5833 9.32142 10.5833L4.29352 10.5833Z" fill="currentColor"/>
</svg>
