<svg width="16" height="17" viewBox="0 0 16 17" fill="none" xmlns="http://www.w3.org/2000/svg">
<path d="M2 5C2 3.61929 3.11929 2.5 4.5 2.5L11.5 2.5C12.8807 2.5 14 3.61929 14 5L14 12C14 13.3807 12.8807 14.5 11.5 14.5L4.5 14.5C3.11929 14.5 2 13.3807 2 12L2 5ZM5.5 5.5C5.5 5.08579 5.16421 4.75 4.75 4.75C4.33579 4.75 4 5.08579 4 5.5C4 5.91421 4.33579 6.25 4.75 6.25C5.16421 6.25 5.5 5.91421 5.5 5.5ZM5.5 8.5C5.5 8.08579 5.16421 7.75 4.75 7.75C4.33579 7.75 4 8.08579 4 8.5C4 8.91421 4.33579 9.25 4.75 9.25C5.16421 9.25 5.5 8.91421 5.5 8.5ZM4.75 12.25C5.16421 12.25 5.5 11.9142 5.5 11.5C5.5 11.0858 5.16421 10.75 4.75 10.75C4.33579 10.75 4 11.0858 4 11.5C4 11.9142 4.33579 12.25 4.75 12.25ZM6.5 5.5C6.5 5.77614 6.72386 6 7 6L11.5 6C11.7761 6 12 5.77614 12 5.5C12 5.22386 11.7761 5 11.5 5L7 5C6.72386 5 6.5 5.22386 6.5 5.5ZM7 8C6.72386 8 6.5 8.22386 6.5 8.5C6.5 8.77614 6.72386 9 7 9H11.5C11.7761 9 12 8.77614 12 8.5C12 8.22386 11.7761 8 11.5 8H7ZM6.5 11.5C6.5 11.7761 6.72386 12 7 12L11.5 12C11.7761 12 12 11.7761 12 11.5C12 11.2239 11.7761 11 11.5 11L7 11C6.72386 11 6.5 11.2239 6.5 11.5Z" fill="currentColor"/>
</svg>
