<svg width="25" height="24" viewBox="0 0 25 24" fill="none" xmlns="http://www.w3.org/2000/svg">
<path d="M9.5 3V1H15.5V3H9.5ZM11.5 14H13.5V8H11.5V14ZM12.5 22C11.2667 22 10.1042 21.7625 9.0125 21.2875C7.92083 20.8125 6.96667 20.1667 6.15 19.35C5.33333 18.5333 4.6875 17.5792 4.2125 16.4875C3.7375 15.3958 3.5 14.2333 3.5 13C3.5 11.7667 3.7375 10.6042 4.2125 9.5125C4.6875 8.42083 5.33333 7.46667 6.15 6.65C6.96667 5.83333 7.92083 5.1875 9.0125 4.7125C10.1042 4.2375 11.2667 4 12.5 4C13.5333 4 14.525 4.16667 15.475 4.5C16.425 4.83333 17.3167 5.31667 18.15 5.95L19.55 4.55L20.95 5.95L19.55 7.35C20.1833 8.18333 20.6667 9.075 21 10.025C21.3333 10.975 21.5 11.9667 21.5 13C21.5 14.2333 21.2625 15.3958 20.7875 16.4875C20.3125 17.5792 19.6667 18.5333 18.85 19.35C18.0333 20.1667 17.0792 20.8125 15.9875 21.2875C14.8958 21.7625 13.7333 22 12.5 22ZM12.5 20C14.4333 20 16.0833 19.3167 17.45 17.95C18.8167 16.5833 19.5 14.9333 19.5 13C19.5 11.0667 18.8167 9.41667 17.45 8.05C16.0833 6.68333 14.4333 6 12.5 6C10.5667 6 8.91667 6.68333 7.55 8.05C6.18333 9.41667 5.5 11.0667 5.5 13C5.5 14.9333 6.18333 16.5833 7.55 17.95C8.91667 19.3167 10.5667 20 12.5 20Z" fill="black"/>
</svg>
