<svg width="16" height="16" viewBox="0 0 16 16" fill="none" xmlns="http://www.w3.org/2000/svg">
<path d="M4.79995 1.60001C3.9163 1.60001 3.19995 2.31635 3.19995 3.20001V12.8C3.19995 13.6837 3.9163 14.4 4.79995 14.4H11.2C12.0836 14.4 12.8 13.6837 12.8 12.8V3.20001C12.8 2.31635 12.0836 1.60001 11.2 1.60001H8.79995V6.80001C8.79995 6.95151 8.71435 7.09002 8.57884 7.15778C8.44332 7.22553 8.28116 7.21091 8.15995 7.12001L6.79995 6.10001L5.43995 7.12001C5.31874 7.21091 5.15658 7.22553 5.02107 7.15778C4.88555 7.09002 4.79995 6.95151 4.79995 6.80001V1.60001ZM7.99995 1.60001H5.59995V6.00001L6.55995 5.28001C6.70217 5.17334 6.89773 5.17334 7.03995 5.28001L7.99995 6.00001V1.60001Z" fill="currentColor"/>
</svg>
