<svg width="14" height="11" viewBox="0 0 14 11" fill="none" xmlns="http://www.w3.org/2000/svg">
<path d="M1.89286 0C1.1236 0 0.5 0.61561 0.5 1.375L0.5 5.95835C0.5 6.71774 1.1236 7.33335 1.89286 7.33335L8.39287 7.33335C9.16213 7.33335 9.78573 6.71774 9.78573 5.95835V1.375C9.78573 0.61561 9.16213 0 8.39287 0L1.89286 0ZM5.53307 1.58494L6.12178 2.48616L7.08726 2.6685C7.25841 2.70082 7.39682 2.82502 7.44568 2.99014C7.49455 3.15526 7.44564 3.33349 7.31903 3.45168L6.59896 4.12389L6.98012 5.36725C7.03626 5.55036 6.97127 5.74864 6.81712 5.86458C6.66297 5.98053 6.45208 5.98976 6.28814 5.88773L5.14288 5.17498L3.99762 5.88773C3.83368 5.98976 3.62279 5.98053 3.46864 5.86458C3.31449 5.74864 3.2495 5.55036 3.30564 5.36725L3.6868 4.12389L2.96673 3.45168C2.84012 3.33349 2.79121 3.15526 2.84007 2.99014C2.88894 2.82502 3.02734 2.70082 3.19849 2.6685L4.16398 2.48616L4.75269 1.58494C4.83818 1.45407 4.98513 1.375 5.14288 1.375C5.30063 1.375 5.44758 1.45407 5.53307 1.58494ZM2.43638 8.24999C2.62759 8.78404 3.14352 9.16666 3.74998 9.16666L8.85713 9.16666C10.3956 9.16666 11.6429 7.93544 11.6429 6.41666V3.20832C11.6429 2.60963 11.2553 2.10031 10.7143 1.91155V6.41666C10.7143 7.42918 9.88281 8.24999 8.85713 8.24999L2.43638 8.24999ZM4.29352 10.0833C4.48474 10.6174 5.00067 11 5.60713 11L9.32142 11C11.6292 11 13.5 9.15317 13.5 6.87499V5.04165C13.5 4.44297 13.1124 3.93365 12.5714 3.74489V6.87499C12.5714 8.64691 11.1163 10.0833 9.32142 10.0833L4.29352 10.0833Z" fill="currentColor"/>
</svg>
