<svg width="16" height="16" viewBox="0 0 16 16" fill="none" xmlns="http://www.w3.org/2000/svg">
<path d="M13.3334 12.6667V10.6667H4.66675C3.56218 10.6667 2.66675 11.5621 2.66675 12.6667M5.86675 14.6667H11.2001C11.9468 14.6667 12.3202 14.6667 12.6054 14.5214C12.8563 14.3935 13.0603 14.1895 13.1881 13.9387C13.3334 13.6534 13.3334 13.2801 13.3334 12.5333V3.46668C13.3334 2.71994 13.3334 2.34657 13.1881 2.06136C13.0603 1.81047 12.8563 1.6065 12.6054 1.47867C12.3202 1.33334 11.9468 1.33334 11.2001 1.33334H5.86675C4.74664 1.33334 4.18659 1.33334 3.75877 1.55133C3.38244 1.74308 3.07648 2.04904 2.88473 2.42536C2.66675 2.85319 2.66675 3.41324 2.66675 4.53334V11.4667C2.66675 12.5868 2.66675 13.1468 2.88473 13.5747C3.07648 13.951 3.38244 14.2569 3.75877 14.4487C4.18659 14.6667 4.74664 14.6667 5.86675 14.6667Z" stroke="#EEF8FE" stroke-width="1.4" stroke-linecap="round" stroke-linejoin="round"/>
</svg>
