<svg width="30" height="30" viewBox="0 0 30 30" fill="none" xmlns="http://www.w3.org/2000/svg">
<rect width="30" height="30" rx="15" fill="#F7EBF3"/>
<path d="M10 15.25C10 14.8358 10.3358 14.5 10.75 14.5C11.1642 14.5 11.5 14.8358 11.5 15.25C11.5 15.6642 11.1642 16 10.75 16C10.3358 16 10 15.6642 10 15.25ZM10.75 17.5C10.3358 17.5 10 17.8358 10 18.25C10 18.6642 10.3358 19 10.75 19C11.1642 19 11.5 18.6642 11.5 18.25C11.5 17.8358 11.1642 17.5 10.75 17.5ZM10 21.25C10 20.8358 10.3358 20.5 10.75 20.5C11.1642 20.5 11.5 20.8358 11.5 21.25C11.5 21.6642 11.1642 22 10.75 22C10.3358 22 10 21.6642 10 21.25ZM13.75 14.5C13.3358 14.5 13 14.8358 13 15.25C13 15.6642 13.3358 16 13.75 16H19.25C19.6642 16 20 15.6642 20 15.25C20 14.8358 19.6642 14.5 19.25 14.5H13.75ZM13 18.25C13 17.8358 13.3358 17.5 13.75 17.5H19.25C19.6642 17.5 20 17.8358 20 18.25C20 18.6642 19.6642 19 19.25 19H13.75C13.3358 19 13 18.6642 13 18.25ZM13.75 20.5C13.3358 20.5 13 20.8358 13 21.25C13 21.6642 13.3358 22 13.75 22H19.25C19.6642 22 20 21.6642 20 21.25C20 20.8358 19.6642 20.5 19.25 20.5H13.75ZM22.414 11.414L16.585 5.586C16.57 5.57105 16.5531 5.55808 16.5363 5.54519C16.5238 5.53567 16.5115 5.5262 16.5 5.516C16.429 5.452 16.359 5.389 16.281 5.336C16.2557 5.31894 16.2281 5.30548 16.2005 5.29207C16.1845 5.28426 16.1685 5.27647 16.153 5.268C16.1363 5.25859 16.1197 5.24897 16.103 5.23933C16.0488 5.20797 15.9944 5.17648 15.937 5.152C15.74 5.07 15.528 5.029 15.313 5.014C15.2933 5.01274 15.2738 5.01008 15.2542 5.00741C15.2271 5.00371 15.1999 5 15.172 5H9C7.896 5 7 5.896 7 7V23C7 24.104 7.896 25 9 25H21C22.104 25 23 24.104 23 23V12.828C23 12.298 22.789 11.789 22.414 11.414ZM21.5 23C21.5 23.275 21.276 23.5 21 23.5H9C8.724 23.5 8.5 23.275 8.5 23V7C8.5 6.725 8.724 6.5 9 6.5H15V11C15 12.104 15.896 13 17 13H21.5V23ZM16.5 7.621L20.378 11.5H17C16.724 11.5 16.5 11.275 16.5 11V7.621Z" fill="#9A407F"/>
</svg>
