<svg width="15" height="15" viewBox="0 0 15 15" fill="none" xmlns="http://www.w3.org/2000/svg">
<g clip-path="url(#clip0_10332_4144)">
<path d="M4.64141 7.07634C4.60027 7.11846 4.55119 7.15191 4.49702 7.17475C4.44286 7.19759 4.38471 7.20935 4.32597 7.20935C4.26723 7.20935 4.20908 7.19759 4.15492 7.17475C4.10076 7.15191 4.05167 7.11846 4.01053 7.07634C3.92679 6.99077 3.87987 6.87557 3.87987 6.75557C3.87987 6.63558 3.92679 6.52039 4.01053 6.43481L7.91294 2.47511C8.79294 1.78873 9.67812 1.45918 10.5594 1.50403C11.6698 1.56123 12.5342 1.98632 13.268 2.68375C14.016 3.39484 14.5 4.40946 14.5 5.63923C14.5 6.583 14.2269 7.41368 13.6504 8.15076L8.14847 13.8446C7.592 14.3029 6.97341 14.5245 6.31082 14.4979C5.46965 14.4628 4.84394 14.1898 4.37871 13.7276C3.83388 13.1875 3.5 12.5239 3.5 11.6314C3.5 10.9216 3.74394 10.2665 4.24735 9.65158L9.08994 4.68505C9.47818 4.26906 9.858 4.02207 10.2462 3.96227C10.5054 3.9215 10.7705 3.94489 11.0185 4.03041C11.2666 4.11593 11.4902 4.261 11.6698 4.45301C12.014 4.81895 12.1615 5.27524 12.1098 5.79457C12.0742 6.14882 11.9299 6.47511 11.6646 6.78775L7.21282 11.3688C7.17195 11.4111 7.12311 11.4448 7.06915 11.4679C7.01519 11.491 6.95718 11.5031 6.89852 11.5035C6.83986 11.5038 6.78171 11.4925 6.72747 11.47C6.67323 11.4476 6.62398 11.4145 6.58259 11.3727C6.49833 11.2877 6.45071 11.1728 6.44998 11.0528C6.44926 10.9328 6.49548 10.8173 6.57871 10.7312L11.0091 6.17351C11.1385 6.02077 11.2065 5.86672 11.2226 5.70293C11.2485 5.44293 11.1864 5.25119 11.0253 5.08024C10.9439 4.99279 10.8422 4.92686 10.7293 4.88831C10.6165 4.84976 10.4959 4.83978 10.3782 4.85925C10.221 4.8833 10.001 5.02694 9.72988 5.31684L4.90735 10.2613C4.55988 10.687 4.39165 11.1387 4.39165 11.6321C4.39165 12.2522 4.61488 12.6961 5.00118 13.0789C5.30853 13.3844 5.72588 13.5664 6.34706 13.5924C6.78706 13.61 7.19471 13.4637 7.54929 13.1751L12.9826 7.55278C13.4 7.01524 13.6084 6.38281 13.6084 5.63988C13.6084 4.6766 13.235 3.89532 12.6585 3.34674C12.0696 2.78645 11.3967 2.45626 10.5148 2.41076C9.86253 2.37696 9.17859 2.63175 8.49788 3.15564L4.64141 7.07634Z" fill="black"/>
</g>
<defs>
<clipPath id="clip0_10332_4144">
<rect width="14" height="14" fill="white" transform="translate(0.5 0.5)"/>
</clipPath>
</defs>
</svg>
