<svg width="30" height="30" viewBox="0 0 30 30" fill="none" xmlns="http://www.w3.org/2000/svg">
<rect width="30" height="30" rx="15" fill="#E6F6F1"/>
<path d="M15.5 12.25C15.5 11.8358 15.8358 11.5 16.25 11.5H19.75C20.1642 11.5 20.5 11.8358 20.5 12.25C20.5 12.6642 20.1642 13 19.75 13H16.25C15.8358 13 15.5 12.6642 15.5 12.25ZM16.2501 17C15.8358 17 15.5001 17.3358 15.5001 17.75C15.5001 18.1642 15.8358 18.5 16.2501 18.5H19.7499C20.1642 18.5 20.4999 18.1642 20.4999 17.75C20.4999 17.3358 20.1642 17 19.7499 17H16.2501ZM13.7803 11.7803C14.0732 11.4874 14.0732 11.0126 13.7803 10.7197C13.4874 10.4268 13.0126 10.4268 12.7197 10.7197L11.25 12.1893L10.7803 11.7197C10.4874 11.4268 10.0126 11.4268 9.71967 11.7197C9.42678 12.0126 9.42678 12.4874 9.71967 12.7803L10.7197 13.7803C11.0126 14.0732 11.4874 14.0732 11.7803 13.7803L13.7803 11.7803ZM13.7803 16.2197C14.0732 16.5126 14.0732 16.9874 13.7803 17.2803L11.7803 19.2803C11.4874 19.5732 11.0126 19.5732 10.7197 19.2803L9.71967 18.2803C9.42678 17.9874 9.42678 17.5126 9.71967 17.2197C10.0126 16.9268 10.4874 16.9268 10.7803 17.2197L11.25 17.6893L12.7197 16.2197C13.0126 15.9268 13.4874 15.9268 13.7803 16.2197ZM9.25 6C7.45507 6 6 7.45507 6 9.25V20.75C6 22.5449 7.45507 24 9.25 24H20.75C22.5449 24 24 22.5449 24 20.75V9.25C24 7.45507 22.5449 6 20.75 6H9.25ZM7.5 9.25C7.5 8.2835 8.2835 7.5 9.25 7.5H20.75C21.7165 7.5 22.5 8.2835 22.5 9.25V20.75C22.5 21.7165 21.7165 22.5 20.75 22.5H9.25C8.2835 22.5 7.5 21.7165 7.5 20.75V9.25Z" fill="#02A971"/>
</svg>
