<svg width="12" height="12" viewBox="0 0 12 12" fill="none" xmlns="http://www.w3.org/2000/svg">
<g clip-path="url(#clip0_14684_45725)">
<path d="M6 12C9.31371 12 12 9.31371 12 6C12 2.68629 9.31371 0 6 0C2.68629 0 0 2.68629 0 6C0 9.31371 2.68629 12 6 12Z" fill="#00BA00"/>
<path fill-rule="evenodd" clip-rule="evenodd" d="M4.12571 8.92638L1.93132 6.57773C1.63089 6.25619 1.64814 5.74746 1.96968 5.44704C2.29123 5.14661 2.79995 5.1639 3.10037 5.4854L4.79304 7.29702L7.4723 4.7937C7.49639 4.77116 7.52157 4.75052 7.5476 4.73153L8.80756 3.55434C9.1291 3.25392 9.63787 3.27121 9.93825 3.59275C10.2387 3.91425 10.2214 4.42302 9.89989 4.72345L6.05167 8.31896L6.04756 8.31456L4.71641 9.55831L4.12571 8.92638Z" fill="white"/>
</g>
<defs>
<clipPath id="clip0_14684_45725">
<rect width="12" height="12" fill="white"/>
</clipPath>
</defs>
</svg>
