<svg width="16" height="16" viewBox="0 0 16 16" fill="none" xmlns="http://www.w3.org/2000/svg">
<path d="M5.11542 15.0832H2.42313C2.00216 15.0832 1.64584 14.9373 1.35417 14.6457C1.06251 14.354 0.916672 13.9977 0.916672 13.5767V7.99984C0.916672 7.01692 1.10257 6.09602 1.47438 5.23713C1.84619 4.3781 2.35153 3.62914 2.99042 2.99025C3.62931 2.35136 4.37827 1.84602 5.2373 1.47421C6.09619 1.10241 7.01709 0.916504 8.00001 0.916504C8.98292 0.916504 9.90382 1.10241 10.7627 1.47421C11.6217 1.84602 12.3707 2.35136 13.0096 2.99025C13.6485 3.62914 14.1538 4.3781 14.5256 5.23713C14.8974 6.09602 15.0833 7.01692 15.0833 7.99984V13.5767C15.0833 13.9977 14.9375 14.354 14.6458 14.6457C14.3542 14.9373 13.9979 15.0832 13.5769 15.0832H10.8846V9.18567H13.8333V7.99984C13.8333 6.37484 13.2674 4.99637 12.1354 3.86442C11.0035 2.73248 9.62501 2.1665 8.00001 2.1665C6.37501 2.1665 4.99653 2.73248 3.86459 3.86442C2.73264 4.99637 2.16667 6.37484 2.16667 7.99984V9.18567H5.11542V15.0832ZM3.86542 10.4357H2.16667V13.5767C2.16667 13.6409 2.19341 13.6996 2.24688 13.753C2.30021 13.8064 2.35896 13.8332 2.42313 13.8332H3.86542V10.4357ZM12.1346 10.4357V13.8332H13.5769C13.641 13.8332 13.6998 13.8064 13.7531 13.753C13.8066 13.6996 13.8333 13.6409 13.8333 13.5767V10.4357H12.1346Z" fill="black"/>
</svg>
