<svg width="16" height="16" viewBox="0 0 16 16" fill="none" xmlns="http://www.w3.org/2000/svg">
<path d="M15.2321 13.3353L13.6251 10.6567V6.875C13.6251 3.96294 11.4009 1.56163 8.56257 1.27869V0.6875C8.56257 0.377 8.31057 0.125 8.00007 0.125C7.68957 0.125 7.43757 0.377 7.43757 0.6875V1.8125C7.43757 2.123 7.68957 2.375 8.00007 2.375C10.4813 2.375 12.5001 4.39381 12.5001 6.875V10.8125C12.5001 10.9149 12.5276 11.0144 12.5805 11.1022L13.7561 13.0625H2.24345L3.41964 11.1022C3.47251 11.0144 3.50007 10.9149 3.50007 10.8125V6.875C3.50007 5.14306 4.51257 3.545 6.07914 2.80363C6.35982 2.67088 6.47964 2.33562 6.34689 2.05437C6.21414 1.77369 5.87889 1.65387 5.59764 1.78663C3.64014 2.71306 2.37507 4.70994 2.37507 6.875V10.6567L0.768013 13.3359C0.663388 13.5097 0.661138 13.7257 0.7607 13.9029C0.860263 14.0789 1.04758 14.1875 1.25008 14.1875H5.82995C6.08139 15.1556 6.95495 15.875 8.00007 15.875C9.04576 15.875 9.91876 15.1556 10.1702 14.1875H14.7501C14.9526 14.1875 15.1393 14.0789 15.2394 13.9023C15.3396 13.7257 15.3368 13.5091 15.2321 13.3353ZM8.00007 14.75C7.58551 14.75 7.22664 14.5222 7.03145 14.1875H8.96814C8.77351 14.5222 8.41464 14.75 8.00007 14.75Z" fill="black"/>
</svg>
