<svg width="29" height="29" viewBox="0 0 29 29" fill="none" xmlns="http://www.w3.org/2000/svg">
<path d="M2.31742 22.5C1.72805 22.5 1.22921 22.2958 0.820874 21.8875C0.412541 21.4792 0.208374 20.9803 0.208374 20.391V5.35904H1.95837V20.391C1.95837 20.4808 1.9958 20.563 2.07067 20.6377C2.14533 20.7126 2.22758 20.75 2.31742 20.75H17.3493V22.5H2.31742ZM6.40075 18.4167C5.81139 18.4167 5.31254 18.2125 4.90421 17.8042C4.49587 17.3958 4.29171 16.897 4.29171 16.3076V3.02571C4.29171 2.43635 4.49587 1.9375 4.90421 1.52917C5.31254 1.12083 5.81139 0.916668 6.40075 0.916668H19.6827C20.272 0.916668 20.7709 1.12083 21.1792 1.52917C21.5875 1.9375 21.7917 2.43635 21.7917 3.02571V16.3076C21.7917 16.897 21.5875 17.3958 21.1792 17.8042C20.7709 18.2125 20.272 18.4167 19.6827 18.4167H6.40075ZM12.4584 10.3174L15.0834 8.74675L17.7084 10.3174V2.66667H12.4584V10.3174Z" fill="black"/>
</svg>
