<svg width="28" height="28" viewBox="0 0 28 28" fill="none" xmlns="http://www.w3.org/2000/svg">
<path d="M9.40075 18.6667H22.6827C22.7725 18.6667 22.8547 18.6293 22.9294 18.5544C23.0043 18.4797 23.0417 18.3975 23.0417 18.3076V5.02573C23.0417 4.9359 23.0043 4.85364 22.9294 4.77898C22.8547 4.70412 22.7725 4.66669 22.6827 4.66669H20.7084V12.3174L18.0834 10.7468L15.4584 12.3174V4.66669H9.40075C9.31092 4.66669 9.22867 4.70412 9.154 4.77898C9.07914 4.85364 9.04171 4.9359 9.04171 5.02573V18.3076C9.04171 18.3975 9.07914 18.4797 9.154 18.5544C9.22867 18.6293 9.31092 18.6667 9.40075 18.6667ZM9.40075 20.4167C8.81139 20.4167 8.31254 20.2125 7.90421 19.8042C7.49587 19.3959 7.29171 18.897 7.29171 18.3076V5.02573C7.29171 4.43637 7.49587 3.93752 7.90421 3.52919C8.31254 3.12085 8.81139 2.91669 9.40075 2.91669H22.6827C23.272 2.91669 23.7709 3.12085 24.1792 3.52919C24.5875 3.93752 24.7917 4.43637 24.7917 5.02573V18.3076C24.7917 18.897 24.5875 19.3959 24.1792 19.8042C23.7709 20.2125 23.272 20.4167 22.6827 20.4167H9.40075ZM5.31742 24.5C4.72805 24.5 4.22921 24.2959 3.82087 23.8875C3.41254 23.4792 3.20837 22.9803 3.20837 22.391V7.35906H4.95837V22.391C4.95837 22.4808 4.9958 22.5631 5.07067 22.6377C5.14533 22.7126 5.22758 22.75 5.31742 22.75H20.3493V24.5H5.31742ZM9.40075 4.66669H9.04171H23.0417H9.40075Z" fill="#999999"/>
</svg>
