<svg width="14" height="19" viewBox="0 0 14 19" fill="none" xmlns="http://www.w3.org/2000/svg">
<path d="M1.19045 18.8539C0.694316 19.2108 0.00244141 18.8563 0.00244141 18.2451V3.24915C0.00244141 1.45422 1.45752 -0.000854492 3.25244 -0.000854492H10.7508C12.5458 -0.000854492 14.0008 1.45422 14.0008 3.24915V18.2451C14.0008 18.8563 13.309 19.2108 12.8128 18.8539L7.00164 14.6729L1.19045 18.8539ZM12.5008 3.24915C12.5008 2.28265 11.7173 1.49915 10.7508 1.49915H3.25244C2.28594 1.49915 1.50244 2.28265 1.50244 3.24915V16.7815L6.56362 13.1402C6.82529 12.9519 7.17798 12.9519 7.43965 13.1402L12.5008 16.7815V3.24915Z" fill="#3A4F6C"/>
</svg>
