<svg width="600" height="600" viewBox="0 0 600 600" fill="none" xmlns="http://www.w3.org/2000/svg">
<mask id="mask0_903_865" style="mask-type:luminance" maskUnits="userSpaceOnUse" x="0" y="0" width="600" height="600">
<path d="M600 0H0V600H600V0Z" fill="white"/>
</mask>
<g mask="url(#mask0_903_865)">
<mask id="mask1_903_865" style="mask-type:luminance" maskUnits="userSpaceOnUse" x="1" y="-2" width="601" height="601">
<path d="M1.70898 -1.71484H601.709V598.285H1.70898V-1.71484Z" fill="white"/>
</mask>
<g mask="url(#mask1_903_865)">
<path d="M426.193 423.425C426.193 455.117 370.462 480.809 301.714 480.809C232.966 480.809 177.234 455.117 177.234 423.425C177.234 391.733 232.966 366.041 301.714 366.041C370.462 366.041 426.193 391.733 426.193 423.425Z" fill="url(#paint0_linear_903_865)"/>
<path d="M498.518 340.018C499.154 378.182 459.911 389.825 459.911 389.825L438.367 283.795C438.367 283.795 442.185 283.435 447.936 283.988C462.511 285.399 489.448 292.81 497.025 327.435C497.993 331.915 498.491 336.091 498.518 340.018Z" fill="url(#paint1_linear_903_865)"/>
<g style="mix-blend-mode:lighten">
<path d="M498.508 340.015C479.011 336.641 457.217 323.422 447.926 283.985C462.501 285.396 489.437 292.807 497.014 327.432C497.983 331.911 498.48 336.087 498.508 340.015Z" fill="#9999B1"/>
</g>
<path d="M104.915 340.018C104.279 378.182 143.522 389.825 143.522 389.825L165.066 283.795C165.066 283.795 161.248 283.435 155.497 283.988C140.922 285.399 113.985 292.81 106.408 327.435C105.439 331.915 104.942 336.091 104.915 340.018Z" fill="url(#paint2_linear_903_865)"/>
<g style="mix-blend-mode:lighten">
<path d="M104.92 340.015C124.416 336.641 146.21 323.422 155.502 283.985C140.927 285.396 113.99 292.807 106.413 327.432C105.445 331.911 104.947 336.087 104.92 340.015Z" fill="#9999B1"/>
</g>
<path d="M462.574 394.921C460.225 369.371 455.53 312.565 440.266 279.14C425.002 245.714 374.514 211.737 301.717 211.737C228.92 211.737 178.433 245.714 163.169 279.14C147.905 312.565 143.209 369.371 140.861 394.921C138.512 420.47 154.95 460.377 301.717 460.377C448.484 460.377 464.922 420.47 462.574 394.921Z" fill="url(#paint3_linear_903_865)"/>
<path d="M301.712 461.765C300.949 461.765 300.33 461.144 300.33 460.382V242.618C300.33 241.855 300.949 241.236 301.712 241.236C302.475 241.236 303.095 241.855 303.095 242.618V460.382C303.095 461.144 302.475 461.765 301.712 461.765Z" fill="white"/>
<g style="mix-blend-mode:multiply">
<path d="M421.602 300.832C417.026 286.768 405.835 276.647 392.491 274.372C368.673 270.313 329.205 264.386 301.72 264.386C274.235 264.386 234.767 270.313 210.949 274.372C197.605 276.647 186.414 286.768 181.838 300.832C175.075 321.616 166.279 355.67 163.259 398.882C162.158 414.633 171.613 429.002 185.507 432.597C213.006 439.711 250.655 444.755 301.72 444.755C352.785 444.755 390.434 439.711 417.933 432.597C431.827 429.002 441.282 414.633 440.181 398.882C437.161 355.67 428.365 321.616 421.602 300.832Z" fill="#9999B1"/>
</g>
<path d="M413.813 305.104C409.534 292.158 399.07 282.841 386.593 280.748C364.323 277.011 327.418 271.558 301.717 271.558C276.017 271.558 239.111 277.011 216.841 280.748C204.365 282.841 193.901 292.158 189.622 305.104C183.298 324.236 175.074 355.582 172.249 395.356C171.221 409.854 180.061 423.082 193.052 426.39C218.765 432.939 253.969 437.581 301.717 437.581C349.465 437.581 384.67 432.939 410.382 426.39C423.373 423.082 432.214 409.854 431.185 395.356C428.36 355.582 420.137 324.236 413.813 305.104Z" fill="url(#paint4_radial_903_865)"/>
<path d="M249.991 249.942C246.988 249.942 244.445 249.593 242.429 248.729C232.432 244.443 223.161 228.013 222.772 227.317C222.4 226.65 222.636 225.809 223.303 225.437C223.968 225.061 224.81 225.298 225.184 225.968C225.276 226.131 234.386 242.271 243.518 246.185C248.459 248.302 258.465 246.639 270.053 244.712C279.869 243.08 290.995 241.234 301.709 241.234C312.422 241.234 323.549 243.08 333.365 244.712C344.957 246.639 354.964 248.295 359.901 246.185C369.033 242.271 378.141 226.131 378.233 225.968C378.605 225.298 379.449 225.058 380.114 225.437C380.781 225.809 381.021 226.65 380.647 227.317C380.258 228.013 370.987 244.443 360.989 248.729C355.312 251.163 345.427 249.519 332.911 247.441C323.201 245.826 312.194 243.999 301.709 243.999C291.223 243.999 280.217 245.826 270.506 247.441C262.432 248.782 255.455 249.942 249.991 249.942Z" fill="white"/>
<path d="M339.082 207.053V214.907C339.082 214.907 325.253 221.184 301.719 221.184C278.186 221.184 267.98 214.298 267.98 214.298V207.053C267.98 205.533 268.478 204.095 269.362 202.932C269.943 202.102 270.718 201.41 271.658 200.913C276.691 198.257 287.062 194.22 303.545 194.22C320.028 194.22 330.37 198.257 335.403 200.913C336.73 201.631 337.754 202.711 338.39 204.011C338.832 204.952 339.082 205.975 339.082 207.053Z" fill="url(#paint5_linear_903_865)"/>
<g style="mix-blend-mode:lighten">
<path d="M338.387 204.011C329.068 206.361 317.894 207.717 305.893 207.717C292.12 207.717 279.426 205.919 269.359 202.932C269.941 202.102 270.715 201.41 271.655 200.913C276.688 198.257 287.059 194.22 303.542 194.22C320.025 194.22 330.367 198.257 335.401 200.913C336.727 201.631 337.751 202.711 338.387 204.011Z" fill="#9999B1"/>
</g>
<path d="M371.273 297.425H232.159V289.704H371.273V297.425ZM386.513 303.085H216.919V310.805H386.513V303.085ZM399.331 316.191H204.101V323.91H399.331V316.191ZM407.457 329.571H195.976V337.292H407.457V329.571ZM413.145 342.953H190.288V350.672H413.145V342.953ZM418.02 356.334H185.412V364.054H418.02V356.334ZM418.02 369.44H185.412V377.16H418.02V369.44ZM413.145 382.82H190.288V390.54H413.145V382.82ZM404.477 395.972H198.955V403.692H404.477V395.972ZM388.495 409.354H214.937V417.073H388.495V409.354ZM351.658 422.46H251.774V430.179H351.658V422.46Z" fill="url(#paint6_radial_903_865)"/>
</g>
<path fill-rule="evenodd" clip-rule="evenodd" d="M318.509 132.9C319.036 133.376 319.078 134.189 318.602 134.716C314.808 138.918 312.002 145.103 309.953 152.144C307.911 159.164 306.653 166.921 305.888 174.164C305.123 181.402 304.852 188.097 304.773 192.984C304.733 195.427 304.741 197.416 304.759 198.792C304.768 199.48 304.78 200.015 304.789 200.376C304.794 200.557 304.798 200.695 304.801 200.786L304.804 200.889L304.805 200.915L304.805 200.921L303.52 200.969C302.235 201.016 302.235 201.015 302.235 201.015L302.235 201.005L302.234 200.976L302.23 200.866C302.227 200.77 302.223 200.628 302.218 200.442C302.209 200.07 302.197 199.525 302.188 198.826C302.17 197.428 302.161 195.414 302.202 192.943C302.282 188.003 302.555 181.228 303.331 173.894C304.105 166.564 305.384 158.644 307.484 151.426C309.578 144.229 312.521 137.614 316.693 132.993C317.169 132.466 317.982 132.424 318.509 132.9ZM303.567 202.254C302.857 202.28 302.261 201.724 302.235 201.015L303.52 200.969L304.805 200.921C304.831 201.63 304.277 202.228 303.567 202.254Z" fill="#333366"/>
<path d="M336.308 134.432C336.308 137.972 335.312 141.264 333.571 144.084C330.334 149.504 324.418 153.099 317.641 153.099C307.327 153.099 298.975 144.747 298.975 134.432C298.975 127.961 302.266 122.264 307.272 118.918C310.231 116.926 313.798 115.766 317.641 115.766C327.956 115.766 336.308 124.118 336.308 134.432Z" fill="url(#paint7_linear_903_865)"/>
<g style="mix-blend-mode:lighten">
<path d="M336.312 134.432C336.312 137.972 335.316 141.264 333.574 144.084C333.326 144.111 333.105 144.111 332.856 144.111C318.862 144.111 307.497 132.884 307.275 118.918C310.234 116.926 313.802 115.766 317.645 115.766C327.96 115.766 336.312 124.118 336.312 134.432Z" fill="#9999B1"/>
</g>
<path fill-rule="evenodd" clip-rule="evenodd" d="M221.152 358.175C218.615 361.882 216.991 367.098 216.991 372.943C216.991 378.787 218.615 384.003 221.152 387.711C223.694 391.426 227.03 393.483 230.503 393.483C233.976 393.483 237.312 391.426 239.855 387.711C242.391 384.003 244.015 378.787 244.015 372.943C244.015 367.098 242.391 361.882 239.855 358.175C237.313 354.46 233.977 352.404 230.503 352.404C227.03 352.404 223.694 354.46 221.152 358.175ZM218.322 356.239C221.291 351.9 225.568 348.975 230.503 348.975C235.438 348.975 239.715 351.9 242.684 356.239C245.659 360.587 247.444 366.497 247.444 372.943C247.444 379.388 245.659 385.299 242.684 389.647C239.715 393.986 235.438 396.912 230.503 396.912C225.568 396.912 221.291 393.986 218.322 389.647C215.347 385.299 213.562 379.388 213.562 372.943C213.562 366.497 215.347 360.587 218.322 356.239ZM357.313 356.239C360.282 351.9 364.559 348.975 369.494 348.975C374.429 348.975 378.706 351.9 381.675 356.239C384.65 360.587 386.435 366.497 386.435 372.943C386.435 379.388 384.65 385.299 381.675 389.647C378.706 393.986 374.429 396.912 369.494 396.912C364.559 396.912 360.282 393.986 357.313 389.647C354.338 385.299 352.553 379.388 352.553 372.943C352.553 366.497 354.338 360.587 357.313 356.239ZM360.142 358.175C357.606 361.882 355.982 367.098 355.982 372.943C355.982 378.787 357.606 384.003 360.142 387.711C362.685 391.426 366.021 393.483 369.494 393.483C372.967 393.483 376.303 391.426 378.845 387.711C381.382 384.003 383.006 378.787 383.006 372.943C383.006 367.098 381.382 361.882 378.846 358.175C376.303 354.46 372.967 352.404 369.494 352.404C366.02 352.404 362.684 354.46 360.142 358.175Z" fill="#333366"/>
<path d="M245.736 372.937C245.736 385.227 238.918 395.192 230.509 395.192C222.101 395.192 215.283 385.227 215.283 372.937C215.283 360.648 222.101 350.684 230.509 350.684C238.918 350.684 245.736 360.648 245.736 372.937ZM354.274 372.937C354.274 385.227 361.092 395.192 369.5 395.192C377.909 395.192 384.727 385.227 384.727 372.937C384.727 360.648 377.909 350.684 369.5 350.684C361.092 350.684 354.274 360.648 354.274 372.937Z" fill="#333366"/>
<path d="M282.938 400.824C281.572 401.018 280.593 402.271 280.739 403.643C281.502 410.817 285.75 421.74 299.994 421.74C314.238 421.74 318.486 410.817 319.249 403.643C319.394 402.271 318.416 401.018 317.049 400.824C305.678 399.213 294.309 399.213 282.938 400.824Z" fill="#9999B1"/>
</g>
<defs>
<linearGradient id="paint0_linear_903_865" x1="178.285" y1="423.999" x2="427.244" y2="423.999" gradientUnits="userSpaceOnUse">
<stop stop-color="#333366"/>
<stop offset="0.5" stop-color="#333366"/>
<stop offset="1" stop-color="#333366"/>
</linearGradient>
<linearGradient id="paint1_linear_903_865" x1="425.148" y1="298.858" x2="493.694" y2="367.404" gradientUnits="userSpaceOnUse">
<stop stop-color="#333366"/>
<stop offset="0.5" stop-color="#333366"/>
<stop offset="1" stop-color="#333366"/>
</linearGradient>
<linearGradient id="paint2_linear_903_865" x1="-810.027" y1="298.858" x2="-878.571" y2="230.312" gradientUnits="userSpaceOnUse">
<stop stop-color="#333366"/>
<stop offset="0.5" stop-color="white"/>
<stop offset="1" stop-color="white"/>
</linearGradient>
<linearGradient id="paint3_linear_903_865" x1="192.003" y1="245.713" x2="413.386" y2="467.096" gradientUnits="userSpaceOnUse">
<stop stop-color="#66668C"/>
<stop offset="0.5" stop-color="#9999B2"/>
<stop offset="1" stop-color="#66668C"/>
</linearGradient>
<radialGradient id="paint4_radial_903_865" cx="0" cy="0" r="1" gradientUnits="userSpaceOnUse" gradientTransform="translate(303.431 355.426) scale(108.799 108.799)">
<stop stop-color="white"/>
<stop offset="0.5" stop-color="white"/>
<stop offset="1" stop-color="white"/>
</radialGradient>
<linearGradient id="paint5_linear_903_865" x1="269.144" y1="208.001" x2="340.246" y2="208.001" gradientUnits="userSpaceOnUse">
<stop stop-color="#333366"/>
<stop offset="0.5" stop-color="#333366"/>
<stop offset="1" stop-color="#333366"/>
</linearGradient>
<radialGradient id="paint6_radial_903_865" cx="0" cy="0" r="1" gradientUnits="userSpaceOnUse" gradientTransform="translate(303.43 360.569) scale(96.072 96.072)">
<stop stop-color="white" stop-opacity="0.2"/>
<stop offset="0.41" stop-color="white" stop-opacity="0.1"/>
<stop offset="1" stop-color="white" stop-opacity="0"/>
</radialGradient>
<linearGradient id="paint7_linear_903_865" x1="299.995" y1="136.003" x2="337.328" y2="136.003" gradientUnits="userSpaceOnUse">
<stop stop-color="#333366"/>
<stop offset="0.5" stop-color="#333366"/>
<stop offset="1" stop-color="#333366"/>
</linearGradient>
</defs>
</svg>
