<svg width="16" height="16" viewBox="0 0 16 16" fill="none" xmlns="http://www.w3.org/2000/svg">
<path d="M14.4286 12.7425L13.0001 10.3615V7C13.0001 4.4115 11.0231 2.277 8.50009 2.0255V1.5C8.50009 1.224 8.27609 1 8.00009 1C7.72409 1 7.50009 1.224 7.50009 1.5V2.5C7.50009 2.776 7.72409 3 8.00009 3C10.2056 3 12.0001 4.7945 12.0001 7V10.5C12.0001 10.591 12.0246 10.6795 12.0716 10.7575L13.1166 12.5H2.88309L3.92859 10.7575C3.97559 10.6795 4.00009 10.591 4.00009 10.5V7C4.00009 5.4605 4.90009 4.04 6.29259 3.381C6.54209 3.263 6.64859 2.965 6.53059 2.715C6.41259 2.4655 6.11459 2.359 5.86459 2.477C4.12459 3.3005 3.00009 5.0755 3.00009 7V10.3615L1.57159 12.743C1.47859 12.8975 1.47659 13.0895 1.56509 13.247C1.65359 13.4035 1.82009 13.5 2.00009 13.5H6.07109C6.29459 14.3605 7.07109 15 8.00009 15C8.92959 15 9.70559 14.3605 9.92909 13.5H14.0001C14.1801 13.5 14.3461 13.4035 14.4351 13.2465C14.5241 13.0895 14.5216 12.897 14.4286 12.7425ZM8.00009 14C7.63159 14 7.31259 13.7975 7.13909 13.5H8.86059C8.68759 13.7975 8.36859 14 8.00009 14Z" fill="#9A5C3A"/>
</svg>
