<svg width="320" height="56" viewBox="0 0 320 56" fill="none" xmlns="http://www.w3.org/2000/svg">
<mask id="path-1-inside-1_0_882" fill="white">
<path fill-rule="evenodd" clip-rule="evenodd" d="M128.97 10.6036C126.894 4.96377 122.18 0 116.17 0H11C4.92487 0 0 4.92486 0 11V44.6606C0 50.7357 4.92487 55.6606 11 55.6606H309C315.075 55.6606 320 50.7357 320 44.6606V11C320 4.92487 315.075 0 309 0L202.83 0C196.82 0 192.106 4.96376 190.03 10.6036C185.475 22.9754 173.525 31.8053 159.5 31.8053C145.475 31.8053 133.525 22.9754 128.97 10.6036Z"/>
</mask>
<path fill-rule="evenodd" clip-rule="evenodd" d="M128.97 10.6036C126.894 4.96377 122.18 0 116.17 0H11C4.92487 0 0 4.92486 0 11V44.6606C0 50.7357 4.92487 55.6606 11 55.6606H309C315.075 55.6606 320 50.7357 320 44.6606V11C320 4.92487 315.075 0 309 0L202.83 0C196.82 0 192.106 4.96376 190.03 10.6036C185.475 22.9754 173.525 31.8053 159.5 31.8053C145.475 31.8053 133.525 22.9754 128.97 10.6036Z" fill="white"/>
<path d="M128.97 10.6036L128.032 10.9491L128.97 10.6036ZM11 1H116.17V-1H11V1ZM1 44.6606V11H-1V44.6606H1ZM309 54.6606H11V56.6606H309V54.6606ZM319 11V44.6606H321V11H319ZM202.83 1L309 1V-1L202.83 -1V1ZM189.092 10.2581C184.678 22.2464 173.096 30.8053 159.5 30.8053V32.8053C173.954 32.8053 186.272 23.7044 190.968 10.9491L189.092 10.2581ZM159.5 30.8053C145.904 30.8053 134.322 22.2464 129.908 10.2581L128.032 10.9491C132.728 23.7044 145.046 32.8053 159.5 32.8053V30.8053ZM202.83 -1C196.227 -1 191.241 4.41912 189.092 10.2581L190.968 10.9491C192.971 5.50841 197.414 1 202.83 1V-1ZM321 11C321 4.37258 315.627 -1 309 -1V1C314.523 1 319 5.47715 319 11H321ZM309 56.6606C315.627 56.6606 321 51.288 321 44.6606H319C319 50.1835 314.523 54.6606 309 54.6606V56.6606ZM-1 44.6606C-1 51.288 4.37259 56.6606 11 56.6606V54.6606C5.47716 54.6606 1 50.1835 1 44.6606H-1ZM116.17 1C121.586 1 126.029 5.50841 128.032 10.9491L129.908 10.2581C127.759 4.41912 122.773 -1 116.17 -1V1ZM11 -1C4.37258 -1 -1 4.37257 -1 11H1C1 5.47715 5.47715 1 11 1V-1Z" fill="#B4BAC4" mask="url(#path-1-inside-1_0_882)"/>
</svg>
