<svg width="16" height="16" viewBox="0 0 16 16" fill="none" xmlns="http://www.w3.org/2000/svg">
<path d="M2 3.5C2 2.67157 2.67157 2 3.5 2H8C8.82843 2 9.5 2.67157 9.5 3.5V4.25H12.5C13.3284 4.25 14 4.92157 14 5.75V13.25C14 13.6642 13.6642 14 13.25 14H2.75C2.33579 14 2 13.6642 2 13.25V3.5ZM9.5 13.25H11V11.75H9.5V13.25ZM11.75 13.25H13.25V5.75C13.25 5.33579 12.9142 5 12.5 5H8C7.58579 5 7.25 5.33579 7.25 5.75V13.25H8.75V11.75C8.75 11.3358 9.08579 11 9.5 11H11C11.4142 11 11.75 11.3358 11.75 11.75V13.25ZM8.75 3.5C8.75 3.08579 8.41421 2.75 8 2.75H3.5C3.08579 2.75 2.75 3.08579 2.75 3.5V13.25H6.5V5.75C6.5 4.92157 7.17157 4.25 8 4.25H8.75V3.5ZM9.5 7.0625C9.5 7.37316 9.24816 7.625 8.9375 7.625C8.62684 7.625 8.375 7.37316 8.375 7.0625C8.375 6.75184 8.62684 6.5 8.9375 6.5C9.24816 6.5 9.5 6.75184 9.5 7.0625ZM4.4375 7.625C4.74816 7.625 5 7.37316 5 7.0625C5 6.75184 4.74816 6.5 4.4375 6.5C4.12684 6.5 3.875 6.75184 3.875 7.0625C3.875 7.37316 4.12684 7.625 4.4375 7.625ZM5 4.8125C5 5.12316 4.74816 5.375 4.4375 5.375C4.12684 5.375 3.875 5.12316 3.875 4.8125C3.875 4.50184 4.12684 4.25 4.4375 4.25C4.74816 4.25 5 4.50184 5 4.8125ZM8.9375 9.875C9.24816 9.875 9.5 9.62316 9.5 9.3125C9.5 9.00184 9.24816 8.75 8.9375 8.75C8.62684 8.75 8.375 9.00184 8.375 9.3125C8.375 9.62316 8.62684 9.875 8.9375 9.875ZM5 11.5625C5 11.8732 4.74816 12.125 4.4375 12.125C4.12684 12.125 3.875 11.8732 3.875 11.5625C3.875 11.2518 4.12684 11 4.4375 11C4.74816 11 5 11.2518 5 11.5625ZM4.4375 9.875C4.74816 9.875 5 9.62316 5 9.3125C5 9.00184 4.74816 8.75 4.4375 8.75C4.12684 8.75 3.875 9.00184 3.875 9.3125C3.875 9.62316 4.12684 9.875 4.4375 9.875ZM12.125 7.0625C12.125 7.37316 11.8732 7.625 11.5625 7.625C11.2518 7.625 11 7.37316 11 7.0625C11 6.75184 11.2518 6.5 11.5625 6.5C11.8732 6.5 12.125 6.75184 12.125 7.0625ZM11.5625 9.875C11.8732 9.875 12.125 9.62316 12.125 9.3125C12.125 9.00184 11.8732 8.75 11.5625 8.75C11.2518 8.75 11 9.00184 11 9.3125C11 9.62316 11.2518 9.875 11.5625 9.875Z" fill="#2BADF8"/>
</svg>
