<svg viewBox="0 0 19 19" fill="none" xmlns="http://www.w3.org/2000/svg">
<path d="M18.5 6V15.25C18.5 17.0449 17.0449 18.5 15.25 18.5H3.75C1.95507 18.5 0.5 17.0449 0.5 15.25V6H18.5ZM4.75 12.5C4.05964 12.5 3.5 13.0596 3.5 13.75C3.5 14.4404 4.05964 15 4.75 15C5.44036 15 6 14.4404 6 13.75C6 13.0596 5.44036 12.5 4.75 12.5ZM9.5 12.5C8.80964 12.5 8.25 13.0596 8.25 13.75C8.25 14.4404 8.80964 15 9.5 15C10.1904 15 10.75 14.4404 10.75 13.75C10.75 13.0596 10.1904 12.5 9.5 12.5ZM4.75 8C4.05964 8 3.5 8.55964 3.5 9.25C3.5 9.94036 4.05964 10.5 4.75 10.5C5.44036 10.5 6 9.94036 6 9.25C6 8.55964 5.44036 8 4.75 8ZM9.5 8C8.80964 8 8.25 8.55964 8.25 9.25C8.25 9.94036 8.80964 10.5 9.5 10.5C10.1904 10.5 10.75 9.94036 10.75 9.25C10.75 8.55964 10.1904 8 9.5 8ZM14.25 8C13.5596 8 13 8.55964 13 9.25C13 9.94036 13.5596 10.5 14.25 10.5C14.9404 10.5 15.5 9.94036 15.5 9.25C15.5 8.55964 14.9404 8 14.25 8ZM15.25 0.5C17.0449 0.5 18.5 1.95507 18.5 3.75V4.5H0.5V3.75C0.5 1.95507 1.95507 0.5 3.75 0.5H15.25Z" fill="currentColor"/>
</svg>
