<svg viewBox="0 0 19 19" fill="currentColor" xmlns="http://www.w3.org/2000/svg">
<path d="M15.25 0.5C17.0449 0.5 18.5 1.95507 18.5 3.75V15.25C18.5 17.0449 17.0449 18.5 15.25 18.5H3.75C1.95507 18.5 0.5 17.0449 0.5 15.25V3.75C0.5 1.95507 1.95507 0.5 3.75 0.5H15.25ZM17 6H2V15.25C2 16.2165 2.7835 17 3.75 17H15.25C16.2165 17 17 16.2165 17 15.25V6ZM5.25 12C5.94036 12 6.5 12.5596 6.5 13.25C6.5 13.9404 5.94036 14.5 5.25 14.5C4.55964 14.5 4 13.9404 4 13.25C4 12.5596 4.55964 12 5.25 12ZM9.5 12C10.1904 12 10.75 12.5596 10.75 13.25C10.75 13.9404 10.1904 14.5 9.5 14.5C8.80964 14.5 8.25 13.9404 8.25 13.25C8.25 12.5596 8.80964 12 9.5 12ZM5.25 8C5.94036 8 6.5 8.55964 6.5 9.25C6.5 9.94036 5.94036 10.5 5.25 10.5C4.55964 10.5 4 9.94036 4 9.25C4 8.55964 4.55964 8 5.25 8ZM9.5 8C10.1904 8 10.75 8.55964 10.75 9.25C10.75 9.94036 10.1904 10.5 9.5 10.5C8.80964 10.5 8.25 9.94036 8.25 9.25C8.25 8.55964 8.80964 8 9.5 8ZM13.75 8C14.4404 8 15 8.55964 15 9.25C15 9.94036 14.4404 10.5 13.75 10.5C13.0596 10.5 12.5 9.94036 12.5 9.25C12.5 8.55964 13.0596 8 13.75 8ZM15.25 2H3.75C2.7835 2 2 2.7835 2 3.75V4.5H17V3.75C17 2.7835 16.2165 2 15.25 2Z" fill="currentColor"/>
</svg>
