<svg width="29" height="28" viewBox="0 0 29 28" fill="none" xmlns="http://www.w3.org/2000/svg">
<path d="M6.75 3C4.95507 3 3.5 4.45507 3.5 6.25V21.75C3.5 23.5449 4.95507 25 6.75 25H22.25C24.0449 25 25.5 23.5449 25.5 21.75V6.25C25.5 4.45507 24.0449 3 22.25 3H6.75ZM5 9.503H24V21.75C24 22.7165 23.2165 23.5 22.25 23.5H6.75C5.7835 23.5 5 22.7165 5 21.75V9.503ZM19.7512 17.5014C19.0609 17.5014 18.5012 18.0611 18.5012 18.7514C18.5012 19.4418 19.0609 20.0014 19.7512 20.0014C20.4416 20.0014 21.0012 19.4418 21.0012 18.7514C21.0012 18.0611 20.4416 17.5014 19.7512 17.5014ZM14.4967 17.5014C13.8064 17.5014 13.2467 18.0611 13.2467 18.7514C13.2467 19.4418 13.8064 20.0014 14.4967 20.0014C15.1871 20.0014 15.7467 19.4418 15.7467 18.7514C15.7467 18.0611 15.1871 17.5014 14.4967 17.5014ZM19.7512 12.5014C19.0609 12.5014 18.5012 13.0611 18.5012 13.7514C18.5012 14.4418 19.0609 15.0014 19.7512 15.0014C20.4416 15.0014 21.0012 14.4418 21.0012 13.7514C21.0012 13.0611 20.4416 12.5014 19.7512 12.5014ZM14.4967 12.5014C13.8064 12.5014 13.2467 13.0611 13.2467 13.7514C13.2467 14.4418 13.8064 15.0014 14.4967 15.0014C15.1871 15.0014 15.7467 14.4418 15.7467 13.7514C15.7467 13.0611 15.1871 12.5014 14.4967 12.5014ZM9.24226 12.5014C8.5519 12.5014 7.99226 13.0611 7.99226 13.7514C7.99226 14.4418 8.5519 15.0014 9.24226 15.0014C9.93262 15.0014 10.4923 14.4418 10.4923 13.7514C10.4923 13.0611 9.93262 12.5014 9.24226 12.5014ZM6.75 4.5H22.25C23.2165 4.5 24 5.2835 24 6.25V8.003H5V6.25C5 5.2835 5.7835 4.5 6.75 4.5Z" fill="currentColor"/>
</svg>
