<svg width="24" height="24" viewBox="0 0 24 24" fill="none" xmlns="http://www.w3.org/2000/svg">
<rect width="24" height="24" rx="12" fill="#EBF2FF"/>
<path d="M12.1642 7.1017C12.1016 6.9661 11.9089 6.9661 11.8463 7.1017L11.13 8.65476C11.1045 8.71002 11.0521 8.74807 10.9917 8.75524L9.29328 8.95661C9.14499 8.9742 9.08543 9.15749 9.19507 9.25888L10.4507 10.4201C10.4954 10.4614 10.5154 10.523 10.5036 10.5827L10.1703 12.2602C10.1411 12.4067 10.2971 12.5199 10.4274 12.447L11.9198 11.6116C11.9729 11.5819 12.0376 11.5819 12.0907 11.6116L13.5831 12.447C13.7134 12.5199 13.8694 12.4067 13.8403 12.2602L13.5069 10.5827C13.4951 10.523 13.5151 10.4614 13.5598 10.4201L14.8154 9.25888C14.9251 9.15749 14.8655 8.9742 14.7172 8.95661L13.0188 8.75524C12.9584 8.74807 12.906 8.71002 12.8805 8.65476L12.1642 7.1017ZM18 10C18 11.777 17.2275 13.3736 16 14.4722V19.5002C16 19.6784 15.9051 19.8432 15.751 19.9327C15.5968 20.0221 15.4067 20.0227 15.2519 19.9343L12 18.0761L8.74807 19.9343C8.59332 20.0227 8.40319 20.0221 8.24904 19.9327C8.09488 19.8432 8 19.6784 8 19.5002V14.4722C6.7725 13.3736 6 11.777 6 10C6 6.68629 8.68629 4 12 4C15.3137 4 18 6.68629 18 10ZM12 16C10.9071 16 9.88252 15.7078 9 15.1973V18.6386L11.7519 17.0661C11.9056 16.9782 12.0944 16.9782 12.2481 17.0661L15 18.6386V15.1973C14.1175 15.7078 13.0929 16 12 16ZM12 15C14.7614 15 17 12.7614 17 10C17 7.23858 14.7614 5 12 5C9.23858 5 7 7.23858 7 10C7 12.7614 9.23858 15 12 15Z" fill="#1966FA"/>
</svg>
