<svg width="20" height="19" viewBox="0 0 20 19" fill="none" xmlns="http://www.w3.org/2000/svg">
<path d="M19.3078 18.6538L15.7693 15.1153H6.00001C5.51351 15.1153 5.09701 14.942 4.75051 14.5955C4.40401 14.2492 4.23076 13.8327 4.23076 13.346V12.7308H15.1155C15.6125 12.7308 16.038 12.5538 16.392 12.1998C16.746 11.8458 16.923 11.4202 16.923 10.923V4H17.5385C18.025 4 18.4415 4.17325 18.788 4.51975C19.1345 4.86625 19.3078 5.28275 19.3078 5.76925V18.6538ZM2.19226 10.6463L3.60776 9.23075H13.1155C13.2052 9.23075 13.2788 9.20192 13.3365 9.14425C13.3942 9.08659 13.423 9.01283 13.423 8.923V2.30775C13.423 2.21792 13.3942 2.14417 13.3365 2.0865C13.2788 2.02883 13.2052 2 13.1155 2H2.50001C2.41034 2 2.33659 2.02883 2.27876 2.0865C2.22109 2.14417 2.19226 2.21792 2.19226 2.30775V10.6463ZM0.692261 14.2693V2.30775C0.692261 1.81058 0.869261 1.385 1.22326 1.031C1.57726 0.677 2.00284 0.5 2.50001 0.5H13.1155C13.6125 0.5 14.038 0.677 14.392 1.031C14.746 1.385 14.923 1.81058 14.923 2.30775V8.923C14.923 9.42017 14.746 9.84575 14.392 10.1998C14.038 10.5538 13.6125 10.7308 13.1155 10.7308H4.23076L0.692261 14.2693Z" fill="black"/>
</svg>
