<svg width="16" height="16" viewBox="0 0 16 16" fill="none" xmlns="http://www.w3.org/2000/svg">
<path d="M8.00004 10.2595C8.19337 10.2595 8.35386 10.1957 8.4815 10.068C8.60928 9.9404 8.67317 9.77985 8.67317 9.58638C8.67317 9.39304 8.60928 9.23256 8.4815 9.10492C8.35386 8.97728 8.19337 8.91346 8.00004 8.91346C7.80671 8.91346 7.64622 8.97728 7.51858 9.10492C7.3908 9.23256 7.32692 9.39304 7.32692 9.58638C7.32692 9.77985 7.3908 9.9404 7.51858 10.068C7.64622 10.1957 7.80671 10.2595 8.00004 10.2595ZM7.37504 7.35888H8.62504V2.32679H7.37504V7.35888ZM0.083374 15.532V1.58971C0.083374 1.16874 0.229207 0.812419 0.520874 0.520752C0.812541 0.229085 1.16886 0.083252 1.58983 0.083252H14.4102C14.8312 0.083252 15.1875 0.229085 15.4792 0.520752C15.7709 0.812419 15.9167 1.16874 15.9167 1.58971V11.0768C15.9167 11.4978 15.7709 11.8541 15.4792 12.1458C15.1875 12.4374 14.8312 12.5833 14.4102 12.5833H3.03212L0.083374 15.532ZM2.50004 11.3333H14.4102C14.4744 11.3333 14.5332 11.3065 14.5865 11.253C14.64 11.1997 14.6667 11.141 14.6667 11.0768V1.58971C14.6667 1.52554 14.64 1.46679 14.5865 1.41346C14.5332 1.35999 14.4744 1.33325 14.4102 1.33325H1.58983C1.52567 1.33325 1.46692 1.35999 1.41358 1.41346C1.36011 1.46679 1.33337 1.52554 1.33337 1.58971V12.4872L2.50004 11.3333Z" fill="#666666"/>
</svg>
