<svg width="14" height="14" viewBox="0 0 14 14" fill="none" xmlns="http://www.w3.org/2000/svg">
<path d="M4.21793 8.25623C4.0547 8.25623 3.91559 8.19984 3.80059 8.08706C3.68559 7.97428 3.62809 7.83412 3.62809 7.66656C3.62809 7.49901 3.68559 7.35884 3.80059 7.24606C3.91559 7.13328 4.0547 7.0769 4.21793 7.0769C4.38115 7.0769 4.52026 7.13328 4.63526 7.24606C4.75015 7.35884 4.80759 7.49901 4.80759 7.66656C4.80759 7.83412 4.75015 7.97428 4.63526 8.08706C4.52026 8.19984 4.38115 8.25623 4.21793 8.25623ZM12.9666 10.6051L12.0666 9.66656H12.6281C12.688 9.66656 12.7371 9.64734 12.7756 9.6089C12.814 9.57045 12.8333 9.52129 12.8333 9.4614V1.87173C12.8333 1.81184 12.814 1.76267 12.7756 1.72423C12.7371 1.68578 12.688 1.66656 12.6281 1.66656H4.06659L3.06659 0.666562H12.6281C12.9649 0.666562 13.2499 0.783229 13.4833 1.01656C13.7166 1.2499 13.8333 1.53495 13.8333 1.87173V9.4614C13.8333 9.75028 13.7527 9.9924 13.5916 10.1877C13.4305 10.383 13.2221 10.5221 12.9666 10.6051ZM8.56659 6.16656L7.56659 5.16656H11.3333V6.16656H8.56659ZM13.0896 13.9947L9.74093 10.6666H3.52559L1.16659 13.0256V2.07173L0.0690918 0.974229L0.771758 0.271729L13.7923 13.2922L13.0896 13.9947ZM4.21793 6.25623C4.0547 6.25623 3.91559 6.19984 3.80059 6.08706C3.68559 5.97428 3.62809 5.83412 3.62809 5.66656C3.62809 5.49901 3.68559 5.35884 3.80059 5.24606C3.91559 5.13328 4.0547 5.0769 4.21793 5.0769C4.38115 5.0769 4.52026 5.13328 4.63526 5.24606C4.75015 5.35884 4.80759 5.49901 4.80759 5.66656C4.80759 5.83412 4.75015 5.97428 4.63526 6.08706C4.52026 6.19984 4.38115 6.25623 4.21793 6.25623ZM6.56659 4.16656L6.14743 3.7474V3.16656H11.3333V4.16656H6.56659ZM2.16659 3.07173V10.5897L3.09993 9.66656H8.76143L2.16659 3.07173Z" fill="black"/>
</svg>
