<svg width="20" height="21" viewBox="0 0 20 21" fill="none" xmlns="http://www.w3.org/2000/svg">
<g id="Checkmark Starburst">
<path id="Shape" d="M8.46149 2.39751L9.45114 2.78698C9.80417 2.92592 10.1967 2.92592 10.5498 2.78698L11.5394 2.39751C12.7508 1.92078 14.1221 2.4888 14.6415 3.68245L15.0659 4.65764C15.2173 5.00551 15.4949 5.2831 15.8428 5.43449L16.818 5.85888C18.0116 6.37833 18.5796 7.74966 18.1029 8.961L17.7134 9.95065C17.5745 10.3037 17.5745 10.6962 17.7134 11.0493L18.1029 12.0389C18.5796 13.2503 18.0116 14.6216 16.818 15.1411L15.8428 15.5654C15.4949 15.7168 15.2173 15.9944 15.0659 16.3423L14.6415 17.3175C14.1221 18.5111 12.7508 19.0792 11.5394 18.6024L10.5498 18.2129C10.1967 18.074 9.80417 18.074 9.45114 18.2129L8.46149 18.6024C7.25014 19.0792 5.87882 18.5111 5.35937 17.3175L4.93498 16.3423C4.78359 15.9944 4.506 15.7168 4.15813 15.5654L3.18293 15.1411C1.98929 14.6216 1.42127 13.2503 1.898 12.0389L2.28747 11.0493C2.42641 10.6962 2.42641 10.3037 2.28747 9.95065L1.898 8.961C1.42127 7.74966 1.98929 6.37833 3.18293 5.85888L4.15813 5.43449C4.506 5.2831 4.78359 5.00551 4.93498 4.65764L5.35937 3.68245C5.87882 2.4888 7.25014 1.92078 8.46149 2.39751ZM11.9056 3.32804L10.916 3.71752C10.3276 3.94908 9.67332 3.94908 9.08493 3.71752L8.09527 3.32804C7.38499 3.04851 6.58089 3.38157 6.2763 4.08148L5.85191 5.05668C5.5996 5.63647 5.13695 6.09911 4.55716 6.35143L3.58197 6.77581C2.88206 7.0804 2.54899 7.8845 2.82853 8.59479L3.21801 9.58444C3.44956 10.1728 3.44956 10.8271 3.21801 11.4155L2.82853 12.4051C2.54899 13.1154 2.88206 13.9195 3.58197 14.2241L4.55716 14.6485C5.13695 14.9008 5.5996 15.3635 5.85191 15.9433L6.2763 16.9185C6.58089 17.6184 7.38499 17.9514 8.09527 17.6719L9.08493 17.2824C9.67332 17.0509 10.3276 17.0509 10.916 17.2824L11.9056 17.6719C12.6159 17.9514 13.42 17.6184 13.7246 16.9185L14.149 15.9433C14.4013 15.3635 14.864 14.9008 15.4437 14.6485L16.4189 14.2241C17.1188 13.9195 17.4519 13.1154 17.1724 12.4051L16.7829 11.4155C16.5513 10.8271 16.5513 10.1728 16.7829 9.58444L17.1724 8.59479C17.4519 7.8845 17.1188 7.0804 16.4189 6.77581L15.4437 6.35143C14.864 6.09911 14.4013 5.63647 14.149 5.05668L13.7246 4.08148C13.42 3.38157 12.6159 3.04851 11.9056 3.32804ZM8.97905 12.2715L12.6267 8.16779C12.8102 7.96139 13.1262 7.9428 13.3326 8.12626C13.5161 8.28934 13.5512 8.55716 13.4278 8.75962L13.3742 8.83215L9.37416 13.3321C9.20427 13.5233 8.92251 13.5522 8.71913 13.4134L8.6469 13.3535L6.6469 11.3535C6.45164 11.1583 6.45164 10.8417 6.6469 10.6464C6.82047 10.4728 7.08989 10.4536 7.28476 10.5886L7.35401 10.6464L8.97905 12.2715L12.6267 8.16779L8.97905 12.2715Z" fill="#607290"/>
</g>
</svg>
