<svg width="17" height="16" viewBox="0 0 17 16" fill="none" xmlns="http://www.w3.org/2000/svg">
<g id="Checkmark Circle">
<path id="Shape" d="M8.5 2C11.8137 2 14.5 4.68629 14.5 8C14.5 11.3137 11.8137 14 8.5 14C5.18629 14 2.5 11.3137 2.5 8C2.5 4.68629 5.18629 2 8.5 2ZM10.6203 6.16398L7.74953 9.04242L6.35355 7.64645C6.15829 7.45118 5.84171 7.45118 5.64645 7.64645C5.45118 7.84171 5.45118 8.15829 5.64645 8.35355L7.39645 10.1036C7.59189 10.299 7.90884 10.2988 8.10403 10.1031L11.3283 6.87014C11.5233 6.67462 11.5229 6.35804 11.3274 6.16304C11.1319 5.96803 10.8153 5.96846 10.6203 6.16398Z" fill="#028D5E"/>
</g>
</svg>
