<svg width="28" height="28" viewBox="0 0 28 28" fill="none" xmlns="http://www.w3.org/2000/svg">
<path d="M14.0001 0.666626C12.2491 0.666626 10.5153 1.0115 8.89763 1.68157C7.27996 2.35163 5.81011 3.33375 4.57199 4.57187C2.07151 7.07235 0.666748 10.4637 0.666748 14C0.666748 17.5362 2.07151 20.9276 4.57199 23.428C5.81011 24.6662 7.27996 25.6483 8.89763 26.3184C10.5153 26.9884 12.2491 27.3333 14.0001 27.3333C17.5363 27.3333 20.9277 25.9285 23.4282 23.428C25.9287 20.9276 27.3334 17.5362 27.3334 14C27.3334 12.249 26.9885 10.5152 26.3185 8.89751C25.6484 7.27984 24.6663 5.80998 23.4282 4.57187C22.1901 3.33375 20.7202 2.35163 19.1025 1.68157C17.4849 1.0115 15.751 0.666626 14.0001 0.666626ZM19.6001 19.6L12.6667 15.3333V7.33329H14.6667V14.2666L20.6667 17.8666L19.6001 19.6Z" fill="black"/>
</svg>
