<svg width="10" height="11" viewBox="0 0 10 11" fill="none" xmlns="http://www.w3.org/2000/svg">
<path d="M5 0.5C7.76142 0.5 10 2.73858 10 5.5C10 8.26142 7.76142 10.5 5 10.5C2.23858 10.5 0 8.26142 0 5.5C0 2.73858 2.23858 0.5 5 0.5ZM5 1.5C2.79086 1.5 1 3.29086 1 5.5C1 7.70914 2.79086 9.5 5 9.5C7.20914 9.5 9 7.70914 9 5.5C9 3.29086 7.20914 1.5 5 1.5ZM4.5 3C4.74546 3 4.94961 3.17688 4.99194 3.41012L5 3.5V5.5H6.5C6.77614 5.5 7 5.72386 7 6C7 6.24546 6.82312 6.44961 6.58988 6.49194L6.5 6.5H4.5C4.25454 6.5 4.05039 6.32312 4.00806 6.08988L4 6V3.5C4 3.22386 4.22386 3 4.5 3Z" fill="black"/>
</svg>
