<svg width="16" height="17" viewBox="0 0 16 17" fill="none" xmlns="http://www.w3.org/2000/svg">
<path d="M8.00065 15.1667C11.6826 15.1667 14.6673 12.1819 14.6673 8.50001C14.6673 4.81811 11.6826 1.83334 8.00065 1.83334C4.31875 1.83334 1.33398 4.81811 1.33398 8.50001C1.33398 12.1819 4.31875 15.1667 8.00065 15.1667Z" fill="white"/>
<path d="M8.00065 4.50001V8.50001L10.6673 9.83334" fill="white"/>
<path d="M8.00065 4.50001V8.50001L10.6673 9.83334M14.6673 8.50001C14.6673 12.1819 11.6826 15.1667 8.00065 15.1667C4.31875 15.1667 1.33398 12.1819 1.33398 8.50001C1.33398 4.81811 4.31875 1.83334 8.00065 1.83334C11.6826 1.83334 14.6673 4.81811 14.6673 8.50001Z" stroke="#02A971" stroke-width="1.4" stroke-linecap="round" stroke-linejoin="round"/>
</svg>
