<svg width="60" height="61" viewBox="0 0 60 61" fill="none" xmlns="http://www.w3.org/2000/svg">
<g clip-path="url(#clip0_4223_5426)">
<mask id="mask0_4223_5426" style="mask-type:luminance" maskUnits="userSpaceOnUse" x="-14" y="-14" width="93" height="93">
<path d="M78.1818 -13.5317H-13.6364V78.2864H78.1818V-13.5317Z" fill="white"/>
</mask>
<g mask="url(#mask0_4223_5426)">
<path d="M30.7674 1.95605C31.7709 1.95605 32.5856 2.77078 32.5856 3.77424C32.5856 4.77769 31.7709 5.59242 30.7674 5.59242C29.7639 5.59242 28.9492 4.77769 28.9492 3.77424C28.9492 2.77078 29.7639 1.95605 30.7674 1.95605Z" stroke="#448984"/>
<path d="M31.6765 5.59229V8.31956H29.8583V5.59229H31.6765ZM31.6765 5.59229V8.31956H29.8583V5.59229H31.6765ZM31.6765 5.59229V8.31956H29.8583V5.59229H31.6765ZM31.6765 5.59229V8.31956H29.8583V5.59229H31.6765Z" fill="#448984"/>
<path d="M51.2042 14.4325L47.7895 17.8472C47.5137 18.123 47.1184 18.1754 46.9072 17.9642L45.6955 16.7525C45.4843 16.5414 45.5368 16.146 45.8126 15.8702L49.2273 12.4555C49.503 12.1797 49.8984 12.1273 50.1096 12.3384L51.3213 13.5501C51.5325 13.7613 51.48 14.1567 51.2042 14.4325Z" fill="#448984"/>
<path d="M12.8457 11.5884L16.2604 15.0031C16.5362 15.2789 16.5886 15.6743 16.3774 15.8854L15.1658 17.0971C14.9546 17.3083 14.5592 17.2559 14.2834 16.9801L10.8687 13.5654C10.5929 13.2896 10.5405 12.8942 10.7517 12.683L11.9633 11.4713C12.1745 11.2602 12.5699 11.3126 12.8457 11.5884Z" fill="#448984"/>
<path d="M30.3129 8.46118C43.5305 8.46118 54.2621 19.1928 54.2621 32.4104C54.2621 45.628 43.5305 56.3597 30.3129 56.3597C17.0953 56.3597 6.36365 45.628 6.36365 32.4104C6.36365 19.1928 17.0953 8.46118 30.3129 8.46118ZM30.3129 8.46118C43.5305 8.46118 54.2621 19.1928 54.2621 32.4104C54.2621 45.628 43.5305 56.3597 30.3129 56.3597C17.0953 56.3597 6.36365 45.628 6.36365 32.4104C6.36365 19.1928 17.0953 8.46118 30.3129 8.46118ZM30.3129 8.46118C43.5305 8.46118 54.2621 19.1928 54.2621 32.4104C54.2621 45.628 43.5305 56.3597 30.3129 56.3597C17.0953 56.3597 6.36365 45.628 6.36365 32.4104C6.36365 19.1928 17.0953 8.46118 30.3129 8.46118ZM30.3129 8.46118C43.5305 8.46118 54.2621 19.1928 54.2621 32.4104C54.2621 45.628 43.5305 56.3597 30.3129 56.3597C17.0953 56.3597 6.36365 45.628 6.36365 32.4104C6.36365 19.1928 17.0953 8.46118 30.3129 8.46118Z" fill="#F0F0D3"/>
<path d="M30.3129 8.46118C43.5305 8.46118 54.2621 19.1928 54.2621 32.4104C54.2621 45.628 43.5305 56.3597 30.3129 56.3597C17.0953 56.3597 6.36365 45.628 6.36365 32.4104C6.36365 19.1928 17.0953 8.46118 30.3129 8.46118Z" stroke="#064358" stroke-width="3"/>
<path d="M30.772 49.3967V52.4573C30.772 52.7107 30.5663 52.9164 30.3129 52.9164C30.0595 52.9164 29.8538 52.7107 29.8538 52.4573V49.3967C29.8538 49.1433 30.0595 48.9376 30.3129 48.9376C30.5663 48.9376 30.772 49.1433 30.772 49.3967ZM30.772 49.3967V52.4573C30.772 52.7107 30.5663 52.9164 30.3129 52.9164C30.0595 52.9164 29.8538 52.7107 29.8538 52.4573V49.3967C29.8538 49.1433 30.0595 48.9376 30.3129 48.9376C30.5663 48.9376 30.772 49.1433 30.772 49.3967ZM30.772 49.3967V52.4573C30.772 52.7107 30.5663 52.9164 30.3129 52.9164C30.0595 52.9164 29.8538 52.7107 29.8538 52.4573V49.3967C29.8538 49.1433 30.0595 48.9376 30.3129 48.9376C30.5663 48.9376 30.772 49.1433 30.772 49.3967ZM30.772 49.3967V52.4573C30.772 52.7107 30.5663 52.9164 30.3129 52.9164C30.0595 52.9164 29.8538 52.7107 29.8538 52.4573V49.3967C29.8538 49.1433 30.0595 48.9376 30.3129 48.9376C30.5663 48.9376 30.772 49.1433 30.772 49.3967ZM47.2992 31.9513H50.3599C50.6139 31.9513 50.8189 32.1563 50.8189 32.4104C50.8189 32.6644 50.6139 32.8694 50.3599 32.8694H47.2992C47.0452 32.8694 46.8402 32.6644 46.8402 32.4104C46.8402 32.1563 47.0452 31.9513 47.2992 31.9513ZM47.2992 31.9513H50.3599C50.6139 31.9513 50.8189 32.1563 50.8189 32.4104C50.8189 32.6644 50.6139 32.8694 50.3599 32.8694H47.2992C47.0452 32.8694 46.8402 32.6644 46.8402 32.4104C46.8402 32.1563 47.0452 31.9513 47.2992 31.9513ZM29.8538 15.424V12.3634C29.8538 12.1094 30.0589 11.9043 30.3129 11.9043C30.5669 11.9043 30.772 12.1094 30.772 12.3634V15.424C30.772 15.678 30.5669 15.8831 30.3129 15.8831C30.0589 15.8831 29.8538 15.678 29.8538 15.424ZM29.8538 15.424V12.3634C29.8538 12.1094 30.0589 11.9043 30.3129 11.9043C30.5669 11.9043 30.772 12.1094 30.772 12.3634V15.424C30.772 15.678 30.5669 15.8831 30.3129 15.8831C30.0589 15.8831 29.8538 15.678 29.8538 15.424ZM13.3265 32.8694H10.2659C10.0119 32.8694 9.80682 32.6644 9.80682 32.4104C9.80682 32.1563 10.0119 31.9513 10.2659 31.9513H13.3265C13.5806 31.9513 13.7856 32.1563 13.7856 32.4104C13.7856 32.6644 13.5806 32.8694 13.3265 32.8694ZM13.3265 32.8694H10.2659C10.0119 32.8694 9.80682 32.6644 9.80682 32.4104C9.80682 32.1563 10.0119 31.9513 10.2659 31.9513H13.3265C13.5806 31.9513 13.7856 32.1563 13.7856 32.4104C13.7856 32.6644 13.5806 32.8694 13.3265 32.8694ZM30.772 49.3967V52.4573C30.772 52.7107 30.5663 52.9164 30.3129 52.9164C30.0595 52.9164 29.8538 52.7107 29.8538 52.4573V49.3967C29.8538 49.1433 30.0595 48.9376 30.3129 48.9376C30.5663 48.9376 30.772 49.1433 30.772 49.3967ZM30.772 49.3967V52.4573C30.772 52.7107 30.5663 52.9164 30.3129 52.9164C30.0595 52.9164 29.8538 52.7107 29.8538 52.4573V49.3967C29.8538 49.1433 30.0595 48.9376 30.3129 48.9376C30.5663 48.9376 30.772 49.1433 30.772 49.3967Z" fill="#064358"/>
<path d="M39.2242 47.2332L40.2954 49.0886C40.3798 49.2348 40.3296 49.4222 40.1833 49.5066C40.0371 49.5911 39.8497 49.5409 39.7653 49.3946L38.694 47.5392C38.6096 47.3929 38.6598 47.2056 38.8061 47.1211C38.9524 47.0367 39.1397 47.0869 39.2242 47.2332ZM39.2242 47.2332L40.2954 49.0886C40.3798 49.2348 40.3296 49.4222 40.1833 49.5066C40.0371 49.5911 39.8497 49.5409 39.7653 49.3946L38.694 47.5392C38.6096 47.3929 38.6598 47.2056 38.8061 47.1211C38.9524 47.0367 39.1397 47.0869 39.2242 47.2332ZM39.2242 47.2332L40.2954 49.0886C40.3798 49.2348 40.3296 49.4222 40.1833 49.5066C40.0371 49.5911 39.8497 49.5409 39.7653 49.3946L38.694 47.5392C38.6096 47.3929 38.6598 47.2056 38.8061 47.1211C38.9524 47.0367 39.1397 47.0869 39.2242 47.2332Z" fill="#064358"/>
<path d="M45.4416 40.7919L47.297 41.8631C47.4433 41.9475 47.4935 42.1349 47.409 42.2812C47.3246 42.4274 47.1372 42.4776 46.9909 42.3932L45.1355 41.322C44.9893 41.2375 44.9391 41.0502 45.0235 40.9039C45.108 40.7576 45.2953 40.7074 45.4416 40.7919ZM45.4416 40.7919L47.297 41.8631C47.4433 41.9475 47.4935 42.1349 47.409 42.2812C47.3246 42.4274 47.1372 42.4776 46.9909 42.3932L45.1355 41.322C44.9893 41.2375 44.9391 41.0502 45.0235 40.9039C45.108 40.7576 45.2953 40.7074 45.4416 40.7919ZM45.4416 40.7919L47.297 41.8631C47.4433 41.9475 47.4935 42.1349 47.409 42.2812C47.3246 42.4274 47.1372 42.4776 46.9909 42.3932L45.1355 41.322C44.9893 41.2375 44.9391 41.0502 45.0235 40.9039C45.108 40.7576 45.2953 40.7074 45.4416 40.7919Z" fill="#064358"/>
<path d="M47.6053 32.1044H49.7477C49.9167 32.1044 50.0538 32.2416 50.0538 32.4105C50.0538 32.5794 49.9167 32.7166 49.7477 32.7166H47.6053C47.4364 32.7166 47.2993 32.5794 47.2993 32.4105C47.2993 32.2416 47.4364 32.1044 47.6053 32.1044ZM47.6053 32.1044H49.7477C49.9167 32.1044 50.0538 32.2416 50.0538 32.4105C50.0538 32.5794 49.9167 32.7166 49.7477 32.7166H47.6053C47.4364 32.7166 47.2993 32.5794 47.2993 32.4105C47.2993 32.2416 47.4364 32.1044 47.6053 32.1044ZM47.6053 32.1044H49.7477C49.9167 32.1044 50.0538 32.2416 50.0538 32.4105C50.0538 32.5794 49.9167 32.7166 49.7477 32.7166H47.6053C47.4364 32.7166 47.2993 32.5794 47.2993 32.4105C47.2993 32.2416 47.4364 32.1044 47.6053 32.1044Z" fill="#064358"/>
<path d="M45.1355 23.4992L46.9909 22.428C47.1372 22.3436 47.3246 22.3938 47.409 22.54C47.4935 22.6863 47.4433 22.8737 47.297 22.9581L45.4416 24.0293C45.2953 24.1138 45.108 24.0636 45.0235 23.9173C44.9391 23.771 44.9893 23.5837 45.1355 23.4992ZM45.1355 23.4992L46.9909 22.428C47.1372 22.3436 47.3246 22.3938 47.409 22.54C47.4935 22.6863 47.4433 22.8737 47.297 22.9581L45.4416 24.0293C45.2953 24.1138 45.108 24.0636 45.0235 23.9173C44.9391 23.771 44.9893 23.5837 45.1355 23.4992ZM45.1355 23.4992L46.9909 22.428C47.1372 22.3436 47.3246 22.3938 47.409 22.54C47.4935 22.6863 47.4433 22.8737 47.297 22.9581L45.4416 24.0293C45.2953 24.1138 45.108 24.0636 45.0235 23.9173C44.9391 23.771 44.9893 23.5837 45.1355 23.4992Z" fill="#064358"/>
<path d="M38.6941 17.2819L39.7653 15.4265C39.8497 15.2802 40.0371 15.23 40.1834 15.3145C40.3296 15.3989 40.3798 15.5863 40.2954 15.7326L39.2242 17.588C39.1397 17.7343 38.9524 17.7845 38.8061 17.7C38.6598 17.6155 38.6096 17.4282 38.6941 17.2819ZM38.6941 17.2819L39.7653 15.4265C39.8497 15.2802 40.0371 15.23 40.1834 15.3145C40.3296 15.3989 40.3798 15.5863 40.2954 15.7326L39.2242 17.588C39.1397 17.7343 38.9524 17.7845 38.8061 17.7C38.6598 17.6155 38.6096 17.4282 38.6941 17.2819ZM38.6941 17.2819L39.7653 15.4265C39.8497 15.2802 40.0371 15.23 40.1834 15.3145C40.3296 15.3989 40.3798 15.5863 40.2954 15.7326L39.2242 17.588C39.1397 17.7343 38.9524 17.7845 38.8061 17.7C38.6598 17.6155 38.6096 17.4282 38.6941 17.2819Z" fill="#064358"/>
<path d="M30.0068 15.1183V12.9758C30.0068 12.8069 30.144 12.6698 30.3129 12.6698C30.4818 12.6698 30.619 12.8069 30.619 12.9758V15.1183C30.619 15.2872 30.4818 15.4243 30.3129 15.4243C30.144 15.4243 30.0068 15.2872 30.0068 15.1183ZM30.0068 15.1183V12.9758C30.0068 12.8069 30.144 12.6698 30.3129 12.6698C30.4818 12.6698 30.619 12.8069 30.619 12.9758V15.1183C30.619 15.2872 30.4818 15.4243 30.3129 15.4243C30.144 15.4243 30.0068 15.2872 30.0068 15.1183ZM30.0068 15.1183V12.9758C30.0068 12.8069 30.144 12.6698 30.3129 12.6698C30.4818 12.6698 30.619 12.8069 30.619 12.9758V15.1183C30.619 15.2872 30.4818 15.4243 30.3129 15.4243C30.144 15.4243 30.0068 15.2872 30.0068 15.1183Z" fill="#064358"/>
<path d="M21.4016 17.5879L20.3304 15.7325C20.246 15.5862 20.2962 15.3989 20.4424 15.3144C20.5887 15.2299 20.7761 15.2801 20.8605 15.4264L21.9317 17.2818C22.0162 17.4281 21.966 17.6154 21.8197 17.6999C21.6734 17.7844 21.4861 17.7342 21.4016 17.5879ZM21.4016 17.5879L20.3304 15.7325C20.246 15.5862 20.2962 15.3989 20.4424 15.3144C20.5887 15.2299 20.7761 15.2801 20.8605 15.4264L21.9317 17.2818C22.0162 17.4281 21.966 17.6154 21.8197 17.6999C21.6734 17.7844 21.4861 17.7342 21.4016 17.5879ZM21.4016 17.5879L20.3304 15.7325C20.246 15.5862 20.2962 15.3989 20.4424 15.3144C20.5887 15.2299 20.7761 15.2801 20.8605 15.4264L21.9317 17.2818C22.0162 17.4281 21.966 17.6154 21.8197 17.6999C21.6734 17.7844 21.4861 17.7342 21.4016 17.5879Z" fill="#064358"/>
<path d="M15.1842 24.0294L13.3288 22.9582C13.1825 22.8738 13.1323 22.6864 13.2168 22.5401C13.3012 22.3938 13.4886 22.3436 13.6349 22.4281L15.4903 23.4993C15.6365 23.5838 15.6867 23.7711 15.6023 23.9174C15.5178 24.0637 15.3305 24.1139 15.1842 24.0294ZM15.1842 24.0294L13.3288 22.9582C13.1825 22.8738 13.1323 22.6864 13.2168 22.5401C13.3012 22.3938 13.4886 22.3436 13.6349 22.4281L15.4903 23.4993C15.6365 23.5838 15.6867 23.7711 15.6023 23.9174C15.5178 24.0637 15.3305 24.1139 15.1842 24.0294ZM15.1842 24.0294L13.3288 22.9582C13.1825 22.8738 13.1323 22.6864 13.2168 22.5401C13.3012 22.3938 13.4886 22.3436 13.6349 22.4281L15.4903 23.4993C15.6365 23.5838 15.6867 23.7711 15.6023 23.9174C15.5178 24.0637 15.3305 24.1139 15.1842 24.0294Z" fill="#064358"/>
<path d="M13.0205 32.7166H10.8781C10.7091 32.7166 10.572 32.5795 10.572 32.4106C10.572 32.2416 10.7091 32.1045 10.8781 32.1045H13.0205C13.1894 32.1045 13.3265 32.2416 13.3265 32.4106C13.3265 32.5795 13.1894 32.7166 13.0205 32.7166ZM13.0205 32.7166H10.8781C10.7091 32.7166 10.572 32.5795 10.572 32.4106C10.572 32.2416 10.7091 32.1045 10.8781 32.1045H13.0205C13.1894 32.1045 13.3265 32.2416 13.3265 32.4106C13.3265 32.5795 13.1894 32.7166 13.0205 32.7166ZM13.0205 32.7166H10.8781C10.7091 32.7166 10.572 32.5795 10.572 32.4106C10.572 32.2416 10.7091 32.1045 10.8781 32.1045H13.0205C13.1894 32.1045 13.3265 32.2416 13.3265 32.4106C13.3265 32.5795 13.1894 32.7166 13.0205 32.7166Z" fill="#064358"/>
<path d="M15.4903 41.3218L13.6349 42.393C13.4886 42.4775 13.3012 42.4273 13.2168 42.281C13.1323 42.1347 13.1825 41.9474 13.3288 41.8629L15.1842 40.7917C15.3305 40.7072 15.5178 40.7574 15.6023 40.9037C15.6867 41.05 15.6365 41.2374 15.4903 41.3218ZM15.4903 41.3218L13.6349 42.393C13.4886 42.4775 13.3012 42.4273 13.2168 42.281C13.1323 42.1347 13.1825 41.9474 13.3288 41.8629L15.1842 40.7917C15.3305 40.7072 15.5178 40.7574 15.6023 40.9037C15.6867 41.05 15.6365 41.2374 15.4903 41.3218ZM15.4903 41.3218L13.6349 42.393C13.4886 42.4775 13.3012 42.4273 13.2168 42.281C13.1323 42.1347 13.1825 41.9474 13.3288 41.8629L15.1842 40.7917C15.3305 40.7072 15.5178 40.7574 15.6023 40.9037C15.6867 41.05 15.6365 41.2374 15.4903 41.3218Z" fill="#064358"/>
<path d="M21.9317 47.5394L20.8605 49.3948C20.7761 49.5411 20.5887 49.5913 20.4424 49.5068C20.2962 49.4223 20.246 49.235 20.3304 49.0887L21.4016 47.2333C21.4861 47.087 21.6734 47.0368 21.8197 47.1213C21.966 47.2057 22.0162 47.3931 21.9317 47.5394ZM21.9317 47.5394L20.8605 49.3948C20.7761 49.5411 20.5887 49.5913 20.4424 49.5068C20.2962 49.4223 20.246 49.235 20.3304 49.0887L21.4016 47.2333C21.4861 47.087 21.6734 47.0368 21.8197 47.1213C21.966 47.2057 22.0162 47.3931 21.9317 47.5394ZM21.9317 47.5394L20.8605 49.3948C20.7761 49.5411 20.5887 49.5913 20.4424 49.5068C20.2962 49.4223 20.246 49.235 20.3304 49.0887L21.4016 47.2333C21.4861 47.087 21.6734 47.0368 21.8197 47.1213C21.966 47.2057 22.0162 47.3931 21.9317 47.5394Z" fill="#064358"/>
<path d="M30.619 49.703V51.8455C30.619 52.0144 30.4818 52.1515 30.3129 52.1515C30.144 52.1515 30.0068 52.0144 30.0068 51.8455V49.703C30.0068 49.5341 30.144 49.397 30.3129 49.397C30.4818 49.397 30.619 49.5341 30.619 49.703ZM30.619 49.703V51.8455C30.619 52.0144 30.4818 52.1515 30.3129 52.1515C30.144 52.1515 30.0068 52.0144 30.0068 51.8455V49.703C30.0068 49.5341 30.144 49.397 30.3129 49.397C30.4818 49.397 30.619 49.5341 30.619 49.703ZM30.619 49.703V51.8455C30.619 52.0144 30.4818 52.1515 30.3129 52.1515C30.144 52.1515 30.0068 52.0144 30.0068 51.8455V49.703C30.0068 49.5341 30.144 49.397 30.3129 49.397C30.4818 49.397 30.619 49.5341 30.619 49.703Z" fill="#064358"/>
<path d="M29.0423 35.0752C28.4364 35.5837 27.5927 35.5761 27.1581 35.0582C26.7235 34.5403 26.8624 33.7082 27.4683 33.1997C27.4683 33.1997 43.5925 20.383 44.0272 20.9009C44.4618 21.4188 29.0423 35.0752 29.0423 35.0752Z" fill="#DBA67C"/>
<path d="M33.5705 30.5204C33.1051 29.7163 33.3802 28.6856 34.1842 28.2202C34.9883 27.7549 36.019 28.0299 36.4844 28.834C36.9497 29.6381 36.6747 30.6687 35.8706 31.1341C35.0665 31.5995 34.0359 31.3244 33.5705 30.5204Z" stroke="#922C20"/>
<path d="M14.1962 41.561L33.931 30.1396L34.0843 30.4045L14.3495 41.8259L14.1962 41.561Z" fill="#912A1F"/>
<path d="M28.8334 33.4426C28.4738 32.8212 28.6863 32.0248 29.3077 31.6652C29.929 31.3056 30.7254 31.5181 31.085 32.1394C31.4446 32.7608 31.2321 33.5572 30.6108 33.9168C29.9895 34.2764 29.193 34.0639 28.8334 33.4426Z" stroke="#A55C54"/>
</g>
</g>
<defs>
<clipPath id="clip0_4223_5426">
<rect width="60" height="60" fill="white" transform="translate(0 0.104736)"/>
</clipPath>
</defs>
</svg>
