<svg width="20" height="21" viewBox="0 0 20 21" fill="none" xmlns="http://www.w3.org/2000/svg">
<path d="M10 2.5C14.4183 2.5 18 6.08172 18 10.5C18 14.9183 14.4183 18.5 10 18.5C5.58172 18.5 2 14.9183 2 10.5C2 6.08172 5.58172 2.5 10 2.5ZM9.5 5.5C9.22386 5.5 9 5.72386 9 6V11L9.00806 11.0899C9.05039 11.3231 9.25454 11.5 9.5 11.5H12.5L12.5899 11.4919C12.8231 11.4496 13 11.2455 13 11C13 10.7239 12.7761 10.5 12.5 10.5H10V6L9.99194 5.91012C9.94961 5.67688 9.74546 5.5 9.5 5.5Z" fill="currentColor"/>
</svg>
