<svg width="12" height="12" viewBox="0 0 12 12" fill="none" xmlns="http://www.w3.org/2000/svg">
<path d="M5.99798 0.477617C6.02277 0.752645 5.8199 0.995691 5.54488 1.02047C2.997 1.25008 1 3.39214 1 6.00007C1 8.76149 3.23858 11.0001 6 11.0001C8.60793 11.0001 10.75 9.00307 10.9796 6.4552C11.0044 6.18017 11.2474 5.9773 11.5225 6.00209C11.7975 6.02687 12.0003 6.26992 11.9756 6.54495C11.6999 9.60357 9.13011 12.0001 6 12.0001C2.68629 12.0001 0 9.31378 0 6.00007C0 2.86996 2.3965 0.300137 5.45512 0.0245104C5.73015 -0.000273673 5.9732 0.202589 5.99798 0.477617ZM5.5 3.00003C5.77614 3.00003 6 3.22389 6 3.50003V6.00003H7.5C7.77614 6.00003 8 6.22389 8 6.50003C8 6.77617 7.77614 7.00003 7.5 7.00003H5.5C5.22386 7.00003 5 6.77617 5 6.50003V3.50003C5 3.22389 5.22386 3.00003 5.5 3.00003ZM7.63608 0.225937C7.37036 0.150782 7.09403 0.305264 7.01887 0.570983C6.94372 0.836702 7.0982 1.11303 7.36392 1.18819C7.9114 1.34304 8.42095 1.58896 8.8752 1.90884C9.10098 2.06783 9.41289 2.01369 9.57189 1.78791C9.73088 1.56213 9.67674 1.25022 9.45096 1.09122C8.90614 0.707557 8.29422 0.412082 7.63608 0.225937ZM10.9088 2.54907C10.7498 2.32329 10.4379 2.26915 10.2121 2.42814C9.98634 2.58714 9.9322 2.89906 10.0912 3.12483C10.4111 3.57908 10.657 4.08863 10.8118 4.63611C10.887 4.90183 11.1633 5.05631 11.429 4.98116C11.6948 4.906 11.8492 4.62967 11.7741 4.36395C11.5879 3.70581 11.2925 3.09389 10.9088 2.54907Z" fill="currentColor"/>
</svg>
