<svg width="24" height="24" viewBox="0 0 24 24" fill="none" xmlns="http://www.w3.org/2000/svg">
<rect width="24" height="24" rx="12" fill="#F4F5F7"/>
<path d="M13.9761 5.35202C13.4235 4.8455 12.5701 4.86404 12.0401 5.39408L5.4242 12.0101C4.87748 12.5569 4.87748 13.4433 5.42421 13.99L6.35036 14.9162C6.6975 15.2633 7.19693 15.1797 7.49108 14.9837C7.66528 14.8676 7.87418 14.7999 8.1001 14.7999C8.70761 14.7999 9.2001 15.2924 9.2001 15.8999C9.2001 16.1258 9.13242 16.3347 9.01631 16.5089C8.82025 16.8031 8.73665 17.3025 9.0838 17.6496L9.98826 18.5541C10.5467 19.1126 11.4564 19.0988 11.9977 18.5236L18.5968 11.5121C19.1317 10.9438 19.0986 10.0479 18.5234 9.52056L17.637 8.708C17.418 8.50728 17.1409 8.46938 16.9104 8.51051C16.6834 8.55101 16.4682 8.67115 16.3128 8.84133C16.1111 9.06232 15.822 9.20007 15.5001 9.20007C14.8926 9.20007 14.4001 8.70759 14.4001 8.10007C14.4001 7.81221 14.5101 7.55095 14.6912 7.35463C14.8474 7.18521 14.9485 6.96038 14.9692 6.73074C14.9902 6.49751 14.9283 6.2249 14.7094 6.02428L13.9761 5.35202Z" fill="#607290"/>
</svg>
