<svg width="14" height="13" viewBox="0 0 14 13" fill="none" xmlns="http://www.w3.org/2000/svg">
<path d="M0.897052 0.452226L0.96967 0.368107C1.23594 0.101841 1.6526 0.0776349 1.94621 0.295489L2.03033 0.368107L7 5.33744L11.9697 0.368107C12.2359 0.101841 12.6526 0.0776349 12.9462 0.295489L13.0303 0.368107C13.2966 0.634374 13.3208 1.05104 13.1029 1.34465L13.0303 1.42877L8.061 6.39844L13.0303 11.3681C13.2966 11.6344 13.3208 12.051 13.1029 12.3446L13.0303 12.4288C12.7641 12.695 12.3474 12.7192 12.0538 12.5014L11.9697 12.4288L7 7.45944L2.03033 12.4288C1.76406 12.695 1.3474 12.7192 1.05379 12.5014L0.96967 12.4288C0.703403 12.1625 0.679197 11.7458 0.897052 11.4522L0.96967 11.3681L5.939 6.39844L0.96967 1.42877C0.703403 1.1625 0.679197 0.745837 0.897052 0.452226L0.96967 0.368107L0.897052 0.452226Z" fill="currentColor"/>
</svg>
