<svg width="16" height="16" viewBox="0 0 16 16" fill="none" xmlns="http://www.w3.org/2000/svg">
<g clip-path="url(#clip0_194_1279)">
<path d="M7.68 15.9996C11.9215 15.9996 15.36 12.5612 15.36 8.31965C15.36 4.0781 11.9215 0.639648 7.68 0.639648C3.43845 0.639648 0 4.0781 0 8.31965C0 12.5612 3.43845 15.9996 7.68 15.9996Z" fill="#C3AF5B"/>
<path d="M8.31965 15.36C12.5612 15.36 15.9996 11.9215 15.9996 7.68C15.9996 3.43845 12.5612 0 8.31965 0C4.0781 0 0.639648 3.43845 0.639648 7.68C0.639648 11.9215 4.0781 15.36 8.31965 15.36Z" fill="#FFEB83"/>
<path d="M14.7623 7.67946C14.7623 11.1999 11.8947 14.0543 8.35675 14.0543C4.81875 14.0543 1.95117 11.1999 1.95117 7.67946C1.95117 4.15906 4.81875 1.30469 8.35675 1.30469C11.8947 1.30469 14.7623 4.15906 14.7623 7.67946Z" stroke="#B5A930" stroke-width="0.32"/>
<path d="M11.3693 5.08276H11.4391V5.013V4.46816V4.39844H11.3693H6.16156H6.0918V4.46816V5.013V5.08276H6.16156H11.3693ZM7.44808 6.67308V5.73948V5.66972H7.37836H6.67008H6.60032V5.73948V11.7464V11.7885L6.63764 11.8081L7.36412 12.1895L7.46624 12.2431V12.1278V8.43904C7.76052 8.71444 7.99 8.91424 8.15376 9.03708C8.53212 9.32084 8.8608 9.47328 9.13548 9.47328C9.4084 9.47328 9.70036 9.3818 10.01 9.20532L10.0104 9.20508C10.3218 9.02452 10.5734 8.79188 10.7643 8.50716C10.9712 8.19992 11.0758 7.87172 11.0758 7.52384C11.0758 7.06632 10.8769 6.61628 10.4911 6.17484C10.0926 5.72072 9.66476 5.48356 9.20812 5.48356C8.99092 5.48356 8.749 5.5748 8.48468 5.7456C8.2196 5.91688 7.92632 6.17192 7.60488 6.50856L7.44808 6.67308ZM10.1514 6.38616L10.1517 6.38644C10.3819 6.59044 10.4869 6.79392 10.4869 6.99716C10.4869 7.3048 10.326 7.63644 9.98412 7.99316C9.60888 8.386 9.16956 8.58008 8.66328 8.58008C8.51316 8.58008 8.35716 8.54756 8.19488 8.48088C8.00964 8.40528 7.8764 8.32596 7.7906 8.24496C7.7058 8.16492 7.67056 8.0868 7.67056 8.00964C7.67056 7.8558 7.73136 7.68444 7.86256 7.4942C7.99376 7.30396 8.19276 7.09868 8.4622 6.87864C8.98928 6.44796 9.4166 6.24508 9.74844 6.24508C9.91552 6.24508 10.048 6.29336 10.1514 6.38616Z" fill="#494203" stroke="#494203" stroke-width="0.3487"/>
</g>
<defs>
<clipPath id="clip0_194_1279">
<rect width="16" height="16" fill="white"/>
</clipPath>
</defs>
</svg>
