<svg width="29" height="28" viewBox="0 0 29 28" fill="none" xmlns="http://www.w3.org/2000/svg">
<g clip-path="url(#clip0_3408_1531)">
<path d="M28.5 9.54762C28.5 13.1638 25.5685 16.0952 21.9524 16.0952C18.3362 16.0952 15.4048 13.1638 15.4048 9.54762C15.4048 5.93147 18.3362 3 21.9524 3C25.5685 3 28.5 5.93147 28.5 9.54762ZM21.9524 5.38095C21.6236 5.38095 21.3571 5.64745 21.3571 5.97619V10.7381C21.3571 11.0668 21.6236 11.3333 21.9524 11.3333C22.2811 11.3333 22.5476 11.0668 22.5476 10.7381V5.97619C22.5476 5.64745 22.2811 5.38095 21.9524 5.38095ZM21.9524 13.8631C22.3633 13.8631 22.6964 13.53 22.6964 13.119C22.6964 12.7081 22.3633 12.375 21.9524 12.375C21.5415 12.375 21.2083 12.7081 21.2083 13.119C21.2083 13.53 21.5415 13.8631 21.9524 13.8631ZM25.5238 19.369V16.414C26.1798 16.0721 26.7806 15.639 27.3095 15.1315V19.369C27.3095 21.5059 25.5773 23.2381 23.4405 23.2381H16.6101L10.6413 27.7032C9.98316 28.1954 9.05059 28.061 8.55835 27.4028C8.3659 27.1455 8.2619 26.8328 8.2619 26.5118L8.26097 23.2381H7.36905C5.23223 23.2381 3.5 21.5059 3.5 19.369V9.25C3.5 7.11318 5.23223 5.38095 7.36905 5.38095H15.4307C15.0777 5.9324 14.7927 6.53158 14.5875 7.16667H7.36905C6.21845 7.16667 5.28571 8.09941 5.28571 9.25V19.369C5.28571 20.5196 6.21845 21.4524 7.36905 21.4524H10.0462L10.0474 25.9173L16.0161 21.4524H23.4405C24.5911 21.4524 25.5238 20.5196 25.5238 19.369Z" fill="currentColor"/>
</g>
<defs>
<clipPath id="clip0_3408_1531">
<rect width="28" height="28" fill="white" transform="translate(0.5)"/>
</clipPath>
</defs>
</svg>
