<svg width="14" height="14" viewBox="0 0 14 14" fill="none" xmlns="http://www.w3.org/2000/svg">
<path d="M5.28369 10.2085C4.98901 10.2085 4.73958 10.1064 4.53542 9.90225C4.33125 9.69808 4.22917 9.44866 4.22917 9.15398V2.51302C4.22917 2.21834 4.33125 1.96891 4.53542 1.76475C4.73958 1.56058 4.98901 1.4585 5.28369 1.4585H10.1746C10.4693 1.4585 10.7188 1.56058 10.9229 1.76475C11.1271 1.96891 11.2292 2.21834 11.2292 2.51302V9.15398C11.2292 9.44866 11.1271 9.69808 10.9229 9.90225C10.7188 10.1064 10.4693 10.2085 10.1746 10.2085H5.28369ZM5.28369 9.3335H10.1746C10.2196 9.3335 10.2607 9.31478 10.298 9.27735C10.3355 9.24002 10.3542 9.19889 10.3542 9.15398V2.51302C10.3542 2.4681 10.3355 2.42697 10.298 2.38964C10.2607 2.35221 10.2196 2.3335 10.1746 2.3335H5.28369C5.23877 2.3335 5.19765 2.35221 5.16031 2.38964C5.12288 2.42697 5.10417 2.4681 5.10417 2.51302V9.15398C5.10417 9.19889 5.12288 9.24002 5.16031 9.27735C5.19765 9.31478 5.23877 9.3335 5.28369 9.3335ZM3.24202 12.2502C2.94734 12.2502 2.69792 12.1481 2.49375 11.9439C2.28958 11.7397 2.1875 11.4903 2.1875 11.1956V3.67968H3.0625V11.1956C3.0625 11.2406 3.08122 11.2817 3.11865 11.319C3.15598 11.3564 3.1971 11.3752 3.24202 11.3752H9.00798V12.2502H3.24202Z" fill="currentColor"/>
</svg>
