<svg width="25" height="25" viewBox="0 0 25 25" fill="none" xmlns="http://www.w3.org/2000/svg">
<g id="Library">
<path id="Shape" d="M4.5 3.5H5.5C6.55382 3.5 7.41812 4.3164 7.49451 5.35081L7.5 5.5V19.5C7.5 20.5538 6.6836 21.4181 5.64919 21.4945L5.5 21.5H4.5C3.44618 21.5 2.58188 20.6836 2.50549 19.6492L2.5 19.5V5.5C2.5 4.44618 3.3164 3.58188 4.35081 3.50549L4.5 3.5H5.5H4.5ZM10.5 3.5H11.5C12.5538 3.5 13.4181 4.3164 13.4945 5.35081L13.5 5.5V19.5C13.5 20.5538 12.6836 21.4181 11.6492 21.4945L11.5 21.5H10.5C9.44618 21.5 8.58188 20.6836 8.50549 19.6492L8.5 19.5V5.5C8.5 4.44618 9.3164 3.58188 10.3508 3.50549L10.5 3.5H11.5H10.5ZM17.4743 5.5005C18.3138 5.5005 19.0825 6.0311 19.3643 6.84636L19.4113 7.0025L22.4263 18.7485C22.6888 19.7689 22.113 20.8094 21.1295 21.1402L20.9863 21.1825L20.0173 21.4315C19.8513 21.4735 19.6833 21.4945 19.5193 21.4945C18.6807 21.4945 17.9112 20.963 17.6302 20.1476L17.5833 19.9915L14.5673 8.2465C14.3058 7.22514 14.8807 6.18555 15.8649 5.85484L16.0083 5.8125L16.9763 5.5635C17.1423 5.5205 17.3103 5.5005 17.4743 5.5005ZM5.5 5H4.5C4.25467 5 4.05042 5.17778 4.00806 5.41043L4 5.5V19.5C4 19.7444 4.17699 19.9494 4.41016 19.9919L4.5 20H5.5C5.74533 20 5.94958 19.8222 5.99194 19.5896L6 19.5V5.5C6 5.25556 5.82301 5.05062 5.58984 5.00809L5.5 5ZM11.5 5H10.5C10.2547 5 10.0504 5.17778 10.0081 5.41043L10 5.5V19.5C10 19.7444 10.177 19.9494 10.4102 19.9919L10.5 20H11.5C11.7453 20 11.9496 19.8222 11.9919 19.5896L12 19.5V5.5C12 5.25556 11.823 5.05062 11.5898 5.00809L11.5 5ZM17.4753 7.0005L17.4119 7.00437L17.3493 7.0165L16.3813 7.2645C16.2063 7.3095 16.1143 7.4275 16.0743 7.4955C16.0431 7.5483 15.9985 7.64718 16.0049 7.77422L16.0203 7.8745L19.0363 19.6185C19.1023 19.8765 19.3333 19.9945 19.5193 19.9945L19.5818 19.9906L19.6443 19.9785L20.6133 19.7295C20.8515 19.6691 21.0052 19.4458 20.9879 19.2102L20.9733 19.1215L17.9583 7.3755C17.8913 7.1185 17.6613 7.0005 17.4753 7.0005Z" fill="#607290"/>
</g>
</svg>
