<svg viewBox="0 0 25 25" fill="none" xmlns="http://www.w3.org/2000/svg">
<g id="Library">
<path id="Shape" d="M6 3.5C6.828 3.5 7.5 4.172 7.5 5V20C7.5 20.828 6.828 21.5 6 21.5H4C3.172 21.5 2.5 20.828 2.5 20V5C2.5 4.172 3.172 3.5 4 3.5H6ZM12 3.5C12.828 3.5 13.5 4.172 13.5 5V20C13.5 20.828 12.828 21.5 12 21.5H10C9.172 21.5 8.5 20.828 8.5 20V5C8.5 4.172 9.172 3.5 10 3.5H12ZM19.281 6.6238L22.495 19.1428C22.701 19.9448 22.218 20.7628 21.415 20.9688L19.539 21.4498C18.736 21.6558 17.919 21.1728 17.713 20.3698L14.499 7.8528C14.293 7.0498 14.776 6.2328 15.579 6.0268L17.455 5.5438C18.258 5.3388 19.075 5.8228 19.281 6.6238Z" fill="currentColor"/>
</g>
</svg>
