<svg width="40" height="40" viewBox="0 0 40 40" fill="none" xmlns="http://www.w3.org/2000/svg">
<path d="M26 14L14 26M14 14L26 26" stroke="white" stroke-width="1.4" stroke-linecap="round" stroke-linejoin="round"/>
<path d="M20 5.5C22.573 5.5 25.0996 6.18463 27.3206 7.48364C29.5415 8.78264 31.3769 10.6492 32.6382 12.8918C33.8995 15.1344 34.5414 17.6722 34.4979 20.2448C34.4545 22.8174 33.7273 25.3321 32.391 27.5309C31.0547 29.7296 29.1573 31.5331 26.8938 32.7564C24.6302 33.9797 22.0819 34.5786 19.5104 34.4917C16.9389 34.4049 14.4369 33.6353 12.261 32.2621C10.0852 30.8888 8.3139 28.9613 7.12902 26.6774" stroke="white" stroke-width="3" stroke-linecap="square"/>
</svg>
