<svg width="25" height="24" viewBox="0 0 25 24" fill="none" xmlns="http://www.w3.org/2000/svg">
<path d="M12.5 2C18.0228 2 22.5 6.47715 22.5 12C22.5 17.5228 18.0228 22 12.5 22C6.97715 22 2.5 17.5228 2.5 12C2.5 6.47715 6.97715 2 12.5 2ZM16.0303 8.46967L15.9462 8.39705C15.6852 8.2034 15.327 8.20101 15.0636 8.38988L14.9697 8.46967L12.5 10.939L10.0303 8.46967L9.94621 8.39705C9.68522 8.2034 9.32701 8.20101 9.06362 8.38988L8.96967 8.46967L8.89705 8.55379C8.7034 8.81478 8.70101 9.17299 8.88988 9.43638L8.96967 9.53033L11.439 12L8.96967 14.4697L8.89705 14.5538C8.7034 14.8148 8.70101 15.173 8.88988 15.4364L8.96967 15.5303L9.05379 15.6029C9.31478 15.7966 9.67299 15.799 9.93638 15.6101L10.0303 15.5303L12.5 13.061L14.9697 15.5303L15.0538 15.6029C15.3148 15.7966 15.673 15.799 15.9364 15.6101L16.0303 15.5303L16.1029 15.4462C16.2966 15.1852 16.299 14.827 16.1101 14.5636L16.0303 14.4697L13.561 12L16.0303 9.53033L16.1029 9.44621C16.2966 9.18522 16.299 8.82701 16.1101 8.56362L16.0303 8.46967L15.9462 8.39705L16.0303 8.46967Z" fill="currentColor"/>
</svg>
