<svg width="14" height="13" viewBox="0 0 14 13" fill="none" xmlns="http://www.w3.org/2000/svg">
<path d="M0.897052 0.553788L0.96967 0.46967C1.23594 0.203403 1.6526 0.179197 1.94621 0.397052L2.03033 0.46967L7 5.439L11.9697 0.46967C12.2359 0.203403 12.6526 0.179197 12.9462 0.397052L13.0303 0.46967C13.2966 0.735936 13.3208 1.1526 13.1029 1.44621L13.0303 1.53033L8.061 6.5L13.0303 11.4697C13.2966 11.7359 13.3208 12.1526 13.1029 12.4462L13.0303 12.5303C12.7641 12.7966 12.3474 12.8208 12.0538 12.6029L11.9697 12.5303L7 7.561L2.03033 12.5303C1.76406 12.7966 1.3474 12.8208 1.05379 12.6029L0.96967 12.5303C0.703403 12.2641 0.679197 11.8474 0.897052 11.5538L0.96967 11.4697L5.939 6.5L0.96967 1.53033C0.703403 1.26406 0.679197 0.8474 0.897052 0.553788L0.96967 0.46967L0.897052 0.553788Z" fill="#E32525"/>
</svg>
