<svg width="180" height="112" viewBox="0 0 180 112" fill="none" xmlns="http://www.w3.org/2000/svg">
<path d="M148.63 95.568C148.252 96.3493 147.265 97.9202 146.772 98.369C138.463 106.032 127.672 105.908 117.184 105.841C104.486 105.766 91.78 106.165 79.082 105.916C71.6604 105.775 64.2059 105.293 56.8418 104.32C45.4259 102.807 33.4429 98.0698 31.5443 84.4969C29.2348 68.0398 29.8019 51.1755 31.1991 34.6769C31.8731 26.7143 31.1005 10.1658 42.163 9.23494C62.8005 7.74715 83.8735 6.65833 104.758 7.09885C112.664 7.27339 120.636 7.90507 128.51 8.37053C138.282 8.89416 146.986 7.31495 150.306 19.6245C152.197 27.0135 151.145 34.1865 151.572 41.5506C152.32 54.1095 152.049 66.7017 151.103 79.2356C150.898 82.7348 151.079 90.6641 148.63 95.568Z" fill="#FD6085"/>
<path d="M145.646 95.568C145.268 96.3493 144.282 97.9202 143.789 98.369C135.479 106.032 124.688 105.908 114.201 105.841C101.503 105.766 88.7964 106.165 76.0983 105.916C68.6767 105.775 61.2223 105.293 53.8582 104.32C42.4423 102.807 30.4592 98.0698 28.5607 84.4969C26.2594 68.0481 26.8183 51.1755 28.2155 34.6769C28.8894 26.7143 28.1169 10.1658 39.1794 9.23494C59.8251 7.74715 80.8981 6.65833 101.774 7.09885C109.68 7.27339 117.653 7.90507 125.526 8.37053C135.298 8.89416 144.002 7.31495 147.323 19.6245C149.213 27.0135 148.161 34.1865 148.588 41.5506C149.336 54.1095 149.065 66.7017 148.12 79.2356C147.914 82.7348 148.095 90.6641 145.646 95.568Z" fill="#FFA4AC"/>
<path d="M112.097 100.273C112.097 100.273 112.491 100.181 113.182 100.065C113.872 99.9485 114.858 99.7905 116.042 99.6576C117.225 99.5163 118.606 99.3999 120.085 99.3002C121.565 99.2087 123.143 99.1505 124.713 99.1339C126.291 99.1173 127.869 99.1339 129.34 99.2004C130.819 99.2669 132.192 99.35 133.375 99.4747C134.559 99.5744 135.537 99.7157 136.227 99.8238C136.918 99.9318 137.312 100.015 137.312 100.015C137.312 100.015 136.918 100.106 136.227 100.231C135.537 100.347 134.55 100.505 133.367 100.638C132.183 100.78 130.803 100.896 129.323 100.996C127.844 101.087 126.266 101.137 124.688 101.162C123.11 101.179 121.54 101.162 120.061 101.095C118.581 101.029 117.201 100.946 116.025 100.821C114.842 100.713 113.864 100.58 113.173 100.48C112.483 100.372 112.097 100.289 112.097 100.289V100.273Z" fill="white"/>
<path d="M74.1084 9.48453C74.1084 9.48453 74.5029 9.39311 75.1933 9.27674C75.8837 9.16038 76.8699 9.00246 78.0534 8.86947C79.2369 8.72818 80.6177 8.61181 82.0971 8.51207C83.5765 8.42064 85.1545 8.36246 86.7243 8.34584C88.3023 8.32922 89.8803 8.34584 91.3515 8.41233C92.8309 8.47883 94.2034 8.56194 95.3869 8.68662C96.5704 8.78636 97.5485 8.92765 98.2388 9.03571C98.9292 9.14376 99.3237 9.22687 99.3237 9.22687C99.3237 9.22687 98.9292 9.3183 98.2388 9.44298C97.5485 9.55934 96.5622 9.71726 95.3787 9.85025C94.1952 9.99155 92.8144 10.1079 91.335 10.2076C89.8557 10.2991 88.2776 10.3489 86.6996 10.3739C85.1216 10.3905 83.5518 10.3739 82.0724 10.3074C80.593 10.2409 79.2123 10.1578 78.037 10.0331C76.8535 9.92505 75.8754 9.79207 75.1851 9.69233C74.4947 9.58427 74.1084 9.50116 74.1084 9.50116V9.48453Z" fill="white"/>
<path d="M129.636 79.6923L132.25 80.2408L129.636 80.8226L129.102 83.7151L128.617 80.8226L125.995 80.2408L128.617 79.6923L129.102 76.7998L129.636 79.6923Z" fill="white"/>
<path d="M47.9812 23.4149L54.2851 24.7281L47.9812 26.1328L46.6909 33.1229L45.5156 26.1328L39.1953 24.7281L45.5156 23.4149L46.6909 16.4414L47.9812 23.4149Z" fill="white"/>
<path fill-rule="evenodd" clip-rule="evenodd" d="M124.704 54.5084C125.074 74.3566 109.458 90.7555 89.8237 91.1295C70.189 91.4952 53.9815 75.7031 53.6116 55.8549C53.25 35.9984 68.8658 19.6078 88.4923 19.2338C108.119 18.8681 124.335 34.6602 124.696 54.5084H124.704Z" fill="#FD6085"/>
<path fill-rule="evenodd" clip-rule="evenodd" d="M75.6453 61.5396C75.6453 61.5396 113.574 33.8851 112.682 39.2192C111.789 44.5532 74.7805 71.6631 74.3032 71.4211C73.8258 71.1791 60.0207 76.9436 75.6453 61.5396Z" fill="#074785"/>
<path fill-rule="evenodd" clip-rule="evenodd" d="M102.998 65.3496C102.998 65.3496 73.8558 28.3533 73.2932 33.7333C72.7307 39.1133 101.138 75.3344 101.662 75.2318C102.186 75.1293 113.942 84.454 103.004 65.3504L102.998 65.3496Z" fill="#074785"/>
<path fill-rule="evenodd" clip-rule="evenodd" d="M73.1101 61.189C73.1101 61.189 111.039 33.5345 110.147 38.8686C109.254 44.2026 72.2454 71.3125 71.768 71.0705C71.2907 70.8285 57.4855 76.593 73.1101 61.189Z" fill="#F9D555"/>
<path fill-rule="evenodd" clip-rule="evenodd" d="M100.47 64.9998C100.47 64.9998 71.3216 28.0027 70.7591 33.3827C70.1965 38.7627 98.6035 74.9838 99.1276 74.8813C99.6518 74.7788 111.407 84.1034 100.47 64.9998Z" fill="#F9D555"/>
<path d="M50.3812 70.8495L53.003 71.3897L50.3812 71.9716L49.8469 74.8723L49.362 71.9716L46.7402 71.3897L49.362 70.8495L49.8469 67.957L50.3812 70.8495Z" fill="#074785"/>
<path d="M129.906 28.2431L133.917 29.0743L129.906 29.9719L129.093 34.4103L128.345 29.9719L124.317 29.0743L128.345 28.2431L129.093 23.8047L129.906 28.2431Z" fill="#074785"/>
</svg>
