<svg width="14" height="15" viewBox="0 0 14 15" fill="none" xmlns="http://www.w3.org/2000/svg">
<path d="M2.45678 14.7739C2.02045 14.7739 1.6477 14.6194 1.33853 14.3104C1.02951 14.0012 0.875 13.6285 0.875 13.1922V2.08644H0V0.773938H3.9375V0H9.1875V0.773938H13.125V2.08644H12.25V13.1922C12.25 13.6342 12.0969 14.0083 11.7906 14.3146C11.4844 14.6208 11.1102 14.7739 10.6682 14.7739H2.45678ZM10.9375 2.08644H2.1875V13.1922C2.1875 13.2708 2.21273 13.3353 2.26319 13.3857C2.31365 13.4362 2.37818 13.4614 2.45678 13.4614H10.6682C10.7356 13.4614 10.7973 13.4334 10.8533 13.3772C10.9094 13.3212 10.9375 13.2595 10.9375 13.1922V2.08644ZM4.291 11.7114H5.60328V3.83644H4.291V11.7114ZM7.52172 11.7114H8.834V3.83644H7.52172V11.7114Z" fill="#666666"/>
</svg>
