<svg width="150" height="143" viewBox="0 0 150 143" fill="none" xmlns="http://www.w3.org/2000/svg">
<path fill-rule="evenodd" clip-rule="evenodd" d="M79.247 143C61.4398 143 43.4269 141.97 25.6987 139.95C23.967 139.755 20.6064 138.444 18.7087 136.993C16.1388 135.011 14.9132 132.928 15.0713 130.798C15.2215 128.777 16.5579 127.061 19.0329 125.68C20.7408 124.736 23.453 124.143 25.2559 124.042C25.3666 124.042 25.4773 123.987 25.5485 123.901C25.6197 123.815 25.6592 123.706 25.6434 123.589C23.4293 104.225 23.6586 84.6111 26.3234 65.2937C26.9085 61.1275 30.5854 57.5933 34.6814 57.2578C49.4681 56.0719 64.4603 55.4712 79.2391 55.4712C94.0179 55.4712 109.01 56.0719 123.789 57.25C127.893 57.5855 131.57 61.1197 132.155 65.2781C134.82 84.6033 135.049 104.217 132.835 123.581C132.819 123.691 132.859 123.8 132.93 123.893C133.001 123.979 133.112 124.026 133.222 124.034C134.978 124.127 137.753 124.736 139.445 125.664C141.928 127.045 143.257 128.77 143.415 130.782C143.573 132.912 142.355 134.995 139.777 136.977C137.88 138.428 134.527 139.739 132.787 139.942C115.059 141.97 97.0384 142.992 79.2312 142.992L79.247 143Z" fill="#074785"/>
<path fill-rule="evenodd" clip-rule="evenodd" d="M129.348 128.629C128.937 131.555 126.225 134.161 123.41 134.395C93.852 136.759 64.2945 136.759 34.737 134.395C31.922 134.161 29.2098 131.555 28.7986 128.629C25.9045 107.634 25.9045 86.6397 28.7986 65.645C29.2098 62.7193 31.922 60.1135 34.737 59.8794C64.2945 57.5155 93.852 57.5155 123.41 59.8794C126.225 60.1135 128.937 62.7193 129.348 65.645C132.242 86.6397 132.242 107.634 129.348 128.629Z" fill="white"/>
<path fill-rule="evenodd" clip-rule="evenodd" d="M137.975 134.91C136.457 136.072 133.499 137.196 132.321 137.336C96.9043 141.385 61.2503 141.385 25.8413 137.336C24.6631 137.203 21.7058 136.072 20.1876 134.91C16.7005 132.226 16.7005 129.917 20.1876 127.974C21.7058 127.131 24.6631 126.593 25.8413 126.671C61.2582 129.292 96.9122 129.292 132.321 126.671C133.507 126.585 136.457 127.131 137.975 127.974C141.462 129.917 141.462 132.226 137.975 134.91Z" fill="#29AEFD"/>
<path fill-rule="evenodd" clip-rule="evenodd" d="M60.1272 128.387C59.8979 128.73 59.7634 129.152 59.7634 129.62V131.516C59.7634 132.858 60.8625 134.075 62.2226 134.2C73.4352 135.268 84.7268 135.261 95.9394 134.2C97.2994 134.075 98.3985 132.858 98.3985 131.516V129.62C98.3985 129.152 98.2641 128.73 98.0348 128.387C85.4068 128.715 72.763 128.715 60.1351 128.387H60.1272Z" fill="#074785"/>
<path d="M40.6595 127.615C40.6595 127.615 40.9679 127.615 41.5452 127.6C42.1224 127.6 42.9685 127.568 44.0518 127.568C45.1272 127.56 46.4398 127.537 47.9422 127.537C48.6934 127.537 49.492 127.529 50.3381 127.521C51.1763 127.521 52.0619 127.521 52.987 127.521C53.9122 127.521 54.869 127.521 55.8732 127.521C56.8695 127.521 57.8975 127.529 58.9571 127.537C61.0762 127.545 63.3061 127.553 65.615 127.56C70.225 127.6 75.1512 127.631 80.0696 127.67C82.5287 127.709 84.9879 127.701 87.4076 127.732C89.8272 127.748 92.2152 127.763 94.5162 127.779C96.8252 127.787 99.0471 127.795 101.166 127.802C102.226 127.818 103.246 127.787 104.242 127.787C105.239 127.787 106.195 127.787 107.12 127.787C107.579 127.787 108.038 127.787 108.473 127.787C108.915 127.787 109.342 127.771 109.762 127.763C110.6 127.763 111.398 127.748 112.15 127.74C112.901 127.74 113.604 127.724 114.253 127.717C114.901 127.701 115.494 127.685 116.04 127.678C117.115 127.646 117.969 127.646 118.547 127.631C119.124 127.631 119.432 127.631 119.432 127.631C119.432 127.631 119.132 127.67 118.554 127.756C117.985 127.834 117.139 127.951 116.072 128.091C115.534 128.161 114.941 128.231 114.3 128.317C113.652 128.395 112.948 128.45 112.205 128.528C110.71 128.661 109.018 128.848 107.168 128.965C105.318 129.082 103.317 129.238 101.198 129.324C99.0787 129.41 96.8489 129.527 94.532 129.581C93.3776 129.605 92.1994 129.628 91.0133 129.659C90.4202 129.667 89.8193 129.683 89.2183 129.698C88.6174 129.698 88.0164 129.706 87.4076 129.714C84.98 129.729 82.5129 129.737 80.0458 129.714C78.8123 129.698 77.5788 129.683 76.3531 129.675C75.1275 129.659 73.9019 129.62 72.6921 129.597C70.2645 129.55 67.8765 129.464 65.5676 129.371C63.2586 129.293 61.0288 129.16 58.9096 129.058C56.7905 128.957 54.7899 128.824 52.9475 128.7C51.1051 128.583 49.4129 128.45 47.9105 128.325C46.4082 128.208 45.1035 128.083 44.036 127.99C42.9606 127.896 42.1145 127.795 41.5452 127.74C40.9679 127.678 40.6675 127.646 40.6675 127.646L40.6595 127.615Z" fill="#074785"/>
<path d="M40.0981 112.745L45.1271 113.767L40.0981 114.859L39.0701 120.297L38.1371 114.859L33.1001 113.767L38.1371 112.745L39.0701 107.323L40.0981 112.745Z" fill="#FFA4AC"/>
<path d="M115.976 109.897L124.247 111.582L115.976 113.384L114.284 122.333L112.742 113.384L104.44 111.582L112.742 109.897L114.284 100.971L115.976 109.897Z" fill="#FFA4AC"/>
<path d="M55.0188 119.555L57.5334 120.062L55.0188 120.616L54.5049 123.331L54.0304 120.616L51.508 120.062L54.0304 119.555L54.5049 116.84L55.0188 119.555Z" fill="#074785"/>
<path d="M103.918 98.7014L106.44 99.2163L103.918 99.7624L103.412 102.485L102.937 99.7624L100.415 99.2163L102.937 98.7014L103.412 95.9863L103.918 98.7014Z" fill="#074785"/>
<path d="M131.957 33.7431L138.813 35.1318L131.957 36.622L130.558 44.0337L129.284 36.622L122.413 35.1318L129.284 33.7431L130.558 26.3469L131.957 33.7431Z" fill="#FD6085"/>
<path d="M43.6142 17.6312C43.8982 16.9644 44.6705 16.645 45.3293 16.9252L91.278 36.3516C91.9367 36.6318 92.2434 37.405 91.9594 38.0718L65.2512 100.453C64.9672 101.119 64.1949 101.439 63.5361 101.159L17.5874 81.7323C16.9287 81.4521 16.622 80.6789 16.906 80.0121L43.6142 17.6312Z" fill="#F9D555"/>
<path d="M23.17 72.4697C23.2268 72.3296 23.8174 72.4473 24.4819 72.733L64.5358 89.8285C65.2002 90.1143 65.6943 90.4561 65.6318 90.5906C65.575 90.7307 64.9787 90.613 64.3143 90.3272L24.2661 73.2317C23.6016 72.946 23.1076 72.6042 23.1644 72.4641L23.17 72.4697Z" fill="white"/>
<path d="M25.4814 66.9729C25.5382 66.8328 26.1288 66.9504 26.7932 67.2362L66.8642 84.3373C67.5286 84.6231 68.0227 84.9649 67.9602 85.105C67.8977 85.245 67.3071 85.1274 66.6427 84.8416L26.5774 67.7405C25.913 67.4547 25.4189 67.1129 25.4757 66.9729H25.4814Z" fill="white"/>
<path d="M27.7872 61.4809C27.844 61.3408 28.4346 61.4585 29.0991 61.7443L69.1814 78.8566C69.8458 79.1423 70.3399 79.4841 70.2831 79.6242C70.2263 79.7587 69.6357 79.641 68.9712 79.3609L28.8889 62.2486C28.2245 61.9628 27.7304 61.621 27.7872 61.4809Z" fill="white"/>
<path d="M30.0984 55.9909C30.1552 55.8508 30.7458 55.9685 31.4102 56.2543L71.4925 73.3666C72.157 73.6523 72.651 73.9941 72.5942 74.1342C72.5374 74.2743 71.9468 74.151 71.2824 73.8709L31.2001 56.7586C30.5357 56.4784 30.0416 56.131 30.0984 55.9909Z" fill="white"/>
<path d="M32.4039 50.4941C32.4607 50.354 33.0513 50.4717 33.7158 50.7574L73.7981 67.8698C74.4625 68.1555 74.9566 68.4973 74.8998 68.6374C74.843 68.7775 74.2524 68.6598 73.5879 68.3741L33.5056 51.2617C32.8412 50.976 32.3471 50.6342 32.4039 50.4941Z" fill="white"/>
<path d="M34.7097 45.0024C34.7665 44.8623 35.3571 44.98 36.0216 45.2657L76.1038 62.3781C76.7683 62.6582 77.2624 63.0056 77.2056 63.1457C77.1488 63.2858 76.5582 63.1681 75.8937 62.8824L35.8114 45.77C35.147 45.4843 34.6529 45.1425 34.7097 45.0024Z" fill="white"/>
<path d="M37.0211 39.5122C37.0779 39.3721 37.6685 39.4897 38.333 39.7755L78.4152 56.8878C79.0797 57.1736 79.5738 57.5154 79.517 57.6555C79.4602 57.7956 78.8696 57.6779 78.2051 57.3921L38.1228 40.2798C37.4584 39.994 36.9643 39.6522 37.0211 39.5122Z" fill="white"/>
<path d="M39.3267 34.0205C39.3835 33.8804 39.9741 33.9981 40.6386 34.2838L80.7209 51.3961C81.3853 51.6819 81.8794 52.0237 81.8226 52.1638C81.7658 52.3039 81.1752 52.1862 80.5107 51.9004L40.4284 34.7881C39.764 34.5023 39.2699 34.1605 39.3267 34.0205Z" fill="white"/>
<path d="M41.6381 28.5236C41.6949 28.3836 42.2855 28.5012 42.95 28.787L83.0323 45.8993C83.6967 46.1851 84.1908 46.5269 84.134 46.6669C84.0772 46.807 83.4866 46.6894 82.8221 46.4036L42.7398 29.2913C42.0754 29.0111 41.5813 28.6637 41.6381 28.5236Z" fill="white"/>
<path d="M87.6207 41.9152C87.6207 41.9152 88.7906 39.3825 85.1447 37.0124C83.8612 36.1775 82.555 35.3818 81.2432 34.5862C79.9825 33.8185 78.6422 33.1125 77.478 32.188C77.0237 31.8238 76.9158 31.0841 76.8079 30.5126C76.7909 30.4117 76.7682 30.3109 76.7511 30.21L62.7127 24.2762C62.5707 24.3715 62.4287 24.4611 62.2924 24.5564C61.804 24.8813 61.1964 25.3352 60.6114 25.268C59.1292 25.1055 57.6754 24.6684 56.2329 24.3266C54.7394 23.9736 53.2458 23.6206 51.7352 23.3068C47.4646 22.4327 46.4651 25.0326 46.4651 25.0326L67.1139 33.303L87.615 41.9152H87.6207Z" fill="#074785"/>
<path d="M84.8776 35.544C83.5942 34.7091 82.288 33.9134 80.9762 33.1178C79.7154 32.3501 78.3752 31.6497 77.211 30.7196C76.7567 30.3554 76.6488 29.6157 76.5409 29.0442C76.4103 28.3606 76.2683 27.6826 76.2001 26.9878C75.9389 24.4719 75.6834 22.1914 74.0478 20.3255C73.1903 19.3506 71.3673 18.5997 70.0555 18.6894C67.5567 18.8575 65.7395 20.2919 63.7461 21.8832C63.1953 22.3259 62.6047 22.7013 62.0254 23.0935C61.537 23.4241 60.9237 23.8724 60.3444 23.8108C58.8622 23.6483 57.4084 23.2112 55.9659 22.8694C54.4723 22.5108 52.9788 22.1578 51.4682 21.8496C47.1919 20.9755 46.1981 23.5754 46.1981 23.5754L66.8469 31.8402L87.348 40.458C87.348 40.458 88.5179 37.9253 84.872 35.5552L84.8776 35.544Z" fill="#FFA4AC"/>
<path d="M71.5039 23.9578C71.1461 24.4061 70.4873 24.4845 70.033 24.1315C69.5787 23.7729 69.4992 23.1229 69.8626 22.6747C70.2204 22.2264 70.8792 22.148 71.3335 22.5066C71.7878 22.8596 71.8673 23.5095 71.5095 23.9578H71.5039Z" fill="#074785"/>
<path d="M71.8388 20.875C71.8388 20.875 71.9637 20.9366 72.1739 21.0543C72.2818 21.1103 72.4067 21.1832 72.5373 21.2896C72.6736 21.3905 72.8383 21.5026 72.986 21.6482C73.0655 21.7211 73.145 21.7939 73.2245 21.8724C73.304 21.9508 73.3778 22.0405 73.4573 22.1301C73.622 22.3094 73.764 22.5224 73.9173 22.7353C73.9911 22.8473 74.0536 22.965 74.1218 23.0827C74.1899 23.2003 74.2524 23.3236 74.3035 23.4525C74.4284 23.7046 74.5136 23.968 74.6045 24.2369C74.6783 24.5059 74.7521 24.7749 74.7976 25.0494L74.8316 25.2511L74.8543 25.4529C74.8714 25.5873 74.8884 25.7162 74.8941 25.8451C74.9111 26.1028 74.9282 26.3494 74.9225 26.5847C74.9225 26.82 74.9111 27.0386 74.8998 27.2459C74.8884 27.4476 74.8657 27.6325 74.843 27.8006C74.8259 27.9631 74.8032 28.1088 74.7805 28.2265C74.7408 28.4618 74.7067 28.5963 74.7067 28.5963C74.7067 28.5963 74.6726 28.4618 74.6272 28.2265C74.5818 27.9967 74.5193 27.6605 74.4511 27.2683C74.4171 27.0722 74.383 26.8593 74.3432 26.6351C74.3092 26.411 74.2581 26.1813 74.2183 25.9403C74.1672 25.705 74.1218 25.4529 74.0593 25.2063C74.0025 24.9598 73.9344 24.7132 73.8605 24.4667C73.781 24.2257 73.7072 23.9792 73.6106 23.7495C73.5255 23.5141 73.4119 23.2956 73.3153 23.0771C73.2018 22.8698 73.1052 22.6568 72.9803 22.4719C72.9235 22.3767 72.8724 22.2814 72.8156 22.1974C72.7531 22.1077 72.6963 22.0293 72.6452 21.9452C72.543 21.7771 72.4237 21.6426 72.3329 21.5082C72.2363 21.3793 72.1455 21.2616 72.0716 21.172C71.9183 20.9871 71.8388 20.875 71.8388 20.875Z" fill="#FD6085"/>
<path d="M62.9343 24.1135C62.9343 24.1135 63.0138 24.007 63.1671 23.8333C63.3204 23.6596 63.5476 23.4187 63.8372 23.1497C64.1212 22.8752 64.4733 22.5726 64.8651 22.2756C65.0639 22.1243 65.2683 21.973 65.4841 21.8274C65.6999 21.6761 65.9271 21.5416 66.1486 21.4015C66.3814 21.267 66.6086 21.1326 66.8471 21.0149C67.0799 20.8972 67.3184 20.7852 67.5513 20.6899C67.7784 20.589 68.017 20.5106 68.2328 20.4378C68.4542 20.3705 68.67 20.3145 68.8688 20.2753C69.0733 20.2416 69.2493 20.2024 69.4197 20.1968C69.5844 20.1912 69.7263 20.18 69.8456 20.1856C70.0841 20.208 70.2147 20.2248 70.2147 20.2248C70.2147 20.2248 70.0841 20.2697 69.8626 20.3257C69.7547 20.3537 69.6241 20.4153 69.4765 20.4602C69.4026 20.4826 69.3231 20.5162 69.2436 20.5554C69.1641 20.589 69.0789 20.6227 68.9881 20.6619C68.9029 20.6955 68.812 20.7459 68.7212 20.7908C68.6303 20.8356 68.5281 20.8748 68.4315 20.9308C68.2384 21.0317 68.0283 21.1326 67.8239 21.2558C67.7217 21.3175 67.6081 21.3679 67.5059 21.4295C67.4036 21.4912 67.2901 21.5528 67.1821 21.6144C66.9663 21.7433 66.7449 21.8722 66.5234 22.0011C66.0804 22.27 65.6375 22.5334 65.2286 22.7855C65.0185 22.9088 64.8197 23.0321 64.6266 23.1497C64.4392 23.2674 64.2518 23.3683 64.0814 23.4691C63.9167 23.57 63.7577 23.654 63.6157 23.7381C63.4795 23.8221 63.3545 23.8837 63.2523 23.9398C63.0478 24.0518 62.9286 24.1079 62.9286 24.1079L62.9343 24.1135Z" fill="white"/>
<path d="M48.3221 22.9641C48.3221 22.9641 48.4698 23.0201 48.7537 23.1266C49.032 23.2331 49.4466 23.3899 49.9691 23.5917C51.014 24.0007 52.5076 24.5666 54.2908 25.2782C55.1824 25.6312 56.1478 26.0179 57.17 26.4269C58.1922 26.8359 59.2656 27.273 60.3786 27.7213C61.4917 28.1751 62.6389 28.6458 63.8031 29.1221C64.9673 29.6039 66.1485 30.0914 67.3354 30.5789C68.5166 31.072 69.6979 31.5651 70.8564 32.0526C72.0149 32.54 73.1564 33.0219 74.2638 33.4926C76.4729 34.4283 78.5287 35.3136 80.2892 36.0813C82.0497 36.8433 83.5092 37.5045 84.5314 37.9528C85.0425 38.1825 85.4457 38.3618 85.7183 38.4851C85.9909 38.6084 86.1385 38.6756 86.1385 38.6756C86.1385 38.6756 85.9909 38.6196 85.7069 38.5131C85.4286 38.4066 85.0141 38.2498 84.4916 38.048C83.4467 37.639 81.9531 37.0731 80.1699 36.3615C78.381 35.6554 76.3025 34.8262 74.082 33.9184C72.969 33.4646 71.8218 32.9995 70.6576 32.5176C69.4934 32.0358 68.3122 31.5483 67.1253 31.0608C65.944 30.5677 64.7628 30.0746 63.6043 29.5871C62.4458 29.0997 61.3043 28.6122 60.1969 28.1471C59.0952 27.6764 58.0275 27.217 57.0167 26.7855C56.0058 26.3485 55.0517 25.9338 54.1715 25.5528C52.411 24.7908 50.9515 24.1296 49.9293 23.6813C49.4182 23.4516 49.015 23.2723 48.7424 23.149C48.4698 23.0257 48.3221 22.9585 48.3221 22.9585V22.9641Z" fill="#FD6085"/>
<path d="M9.54412 108.461L16.3918 109.857L9.54412 111.348L8.14453 118.759L6.87145 111.348L0 109.857L6.87145 108.461L8.14453 101.073L9.54412 108.461Z" fill="#FD6085"/>
</svg>
