<svg width="41" height="40" viewBox="0 0 41 40" fill="none" xmlns="http://www.w3.org/2000/svg">
<path d="M20.2 40C31.2456 40 40.2 31.0457 40.2 20C40.2 8.95431 31.2456 0 20.2 0C9.15426 0 0.199951 8.95431 0.199951 20C0.199951 31.0457 9.15426 40 20.2 40Z" fill="#FFD21F"/>
<path d="M9.57628 19.2263C9.13754 19.2263 8.70508 18.9944 8.47317 18.587C8.12845 17.9791 8.34155 17.2081 8.94951 16.8634L11.7699 15.2652L8.91191 13.6419C8.30395 13.2971 8.09085 12.5262 8.43557 11.9183C8.78029 11.3103 9.55121 11.0972 10.1592 11.4419L14.9602 14.1683C15.355 14.394 15.5995 14.8139 15.5995 15.2714C15.5995 15.729 15.355 16.1489 14.9602 16.3745L10.1968 19.0759C10.0025 19.1887 9.78311 19.2388 9.57628 19.2388V19.2263Z" fill="#403408"/>
<path d="M30.8676 19.2093C30.6545 19.2093 30.4351 19.1529 30.2409 19.0401L25.5464 16.3136C25.1578 16.088 24.9259 15.6743 24.9259 15.2293C24.9259 14.7843 25.1641 14.3707 25.5464 14.145L30.2032 11.4437C30.7987 11.099 31.5696 11.2995 31.9143 11.9012C32.259 12.4967 32.0585 13.2676 31.4568 13.6123L28.6677 15.2293L31.4944 16.8715C32.0898 17.2162 32.2966 17.9871 31.9456 18.5825C31.7137 18.9837 31.2938 19.203 30.8613 19.203L30.8676 19.2093Z" fill="#403408"/>
<path d="M29.1245 29.3371C28.8299 29.3371 28.5416 29.1992 28.3599 28.9422C27.6641 27.9707 26.1348 26.3787 24.9816 26.2659C24.6369 26.2283 24.3611 26.3349 24.0853 26.5918C20.9139 29.945 19.2154 28.9735 17.3351 27.3502C16.9402 27.0118 16.5391 26.6608 16.0816 26.3662C14.7716 25.5075 12.6845 27.9832 12.064 28.9171C11.7757 29.3496 11.1928 29.4624 10.7604 29.1741C10.3279 28.8858 10.2151 28.3029 10.4971 27.8704C11.7694 25.9588 14.6024 23.1572 17.1095 24.793C17.6673 25.1565 18.1436 25.5702 18.5636 25.9275C19.9926 27.1559 20.5253 27.6197 22.7629 25.2568C23.4711 24.5862 24.2922 24.3042 25.1759 24.3919C27.5451 24.6301 29.6635 27.5194 29.8954 27.8454C30.1963 28.2653 30.096 28.8544 29.6761 29.1553C29.5131 29.2744 29.3188 29.3308 29.1308 29.3308L29.1245 29.3371Z" fill="#403408"/>
</svg>
