<svg width="8" height="9" viewBox="0 0 8 9" fill="none" xmlns="http://www.w3.org/2000/svg">
<path d="M0.682842 4.98265C0.526632 5.13886 0.273366 5.13886 0.117157 4.98265C-0.039053 4.82644 -0.039053 4.57317 0.117157 4.41696L3.71716 0.816962C3.87337 0.660752 4.12663 0.660752 4.28284 0.816962L7.88284 4.41696C8.03905 4.57317 8.03905 4.82644 7.88284 4.98265C7.72663 5.13886 7.47337 5.13886 7.31716 4.98265L4 1.66549L0.682842 4.98265ZM0.682842 8.18265C0.526632 8.33886 0.273366 8.33886 0.117157 8.18265C-0.039053 8.02644 -0.039053 7.77317 0.117157 7.61696L3.71716 4.01696C3.87337 3.86075 4.12663 3.86075 4.28284 4.01696L7.88284 7.61696C8.03905 7.77317 8.03905 8.02644 7.88284 8.18265C7.72663 8.33886 7.47337 8.33886 7.31716 8.18265L4 4.86549L0.682842 8.18265Z" fill="currentColor"/>
</svg>
