<svg width="16" height="16" viewBox="0 0 16 16" fill="none" xmlns="http://www.w3.org/2000/svg">
<path d="M10.5771 9.99982C10.5938 10.1333 10.6113 10.2851 10.6278 10.4503C10.7013 11.1896 10.7587 12.2431 10.614 13.1277C10.5422 13.5669 10.4132 14.0144 10.1722 14.3639C9.91554 14.736 9.52549 14.9998 8.99961 14.9998C8.48302 14.9998 8.16852 14.6301 7.97561 14.3087C7.78329 13.9882 7.61472 13.5533 7.44216 13.1081L7.42903 13.0742C6.88232 11.664 6.13467 9.75738 4.12266 8.41604C3.81572 8.21142 3.52425 8.06416 3.26934 7.95846C2.57275 7.6696 1.94726 6.90135 2.11203 6.02196L2.33601 4.82657C2.47651 4.07669 3.03141 3.47206 3.76651 3.26786L8.71658 1.89284C10.6928 1.34389 12.7154 2.60422 13.0934 4.62015L13.5469 7.0391C13.8354 8.57763 12.6551 9.99982 11.0898 9.99982H10.5771ZM12.1105 4.80444C11.8405 3.36448 10.3958 2.46425 8.98423 2.85636L4.03416 4.23138C3.6666 4.33348 3.38916 4.63579 3.3189 5.01074L3.09493 6.20612C3.0418 6.48965 3.25605 6.87038 3.65238 7.03473C3.96167 7.16298 4.31143 7.34004 4.67736 7.58399C6.96425 9.10859 7.80593 11.2798 8.35333 12.6919L8.36142 12.7127C8.55096 13.2017 8.69012 13.5559 8.83304 13.7941C8.9022 13.9093 8.95384 13.9647 8.98464 13.9889C8.99274 13.9953 8.99807 13.9984 9.00069 13.9998C9.14256 13.9995 9.24588 13.9456 9.34895 13.7962C9.46794 13.6236 9.56524 13.3448 9.62714 12.9663C9.7499 12.2157 9.70429 11.2692 9.63268 10.5493C9.60429 10.2639 9.57259 10.0212 9.54807 9.85047C9.53582 9.76516 9.5254 9.69799 9.51812 9.65265L9.50974 9.60153L9.50764 9.58915L9.50717 9.5864C9.48173 9.44094 9.52181 9.29124 9.6168 9.17818C9.66829 9.1169 9.73303 9.06965 9.80505 9.03923C9.86592 9.01352 9.93197 8.99982 9.99961 8.99982H11.0898C12.029 8.99982 12.7372 8.14651 12.5641 7.22339L12.1105 4.80444Z" fill="#607290"/>
</svg>
