<svg width="16" height="16" viewBox="0 0 16 16" fill="none" xmlns="http://www.w3.org/2000/svg">
<path d="M13.0933 4.62015C12.7153 2.60422 10.6927 1.34389 8.71648 1.89284L3.76641 3.26786C3.0313 3.47206 2.47641 4.07669 2.3359 4.82657L2.11193 6.02196C1.94716 6.90135 2.57265 7.6696 3.26923 7.95846C3.52414 8.06416 3.81561 8.21142 4.12255 8.41604C5.80149 9.53534 6.60293 11.0526 7.1379 12.3416C7.23413 12.5734 7.32641 12.8109 7.41549 13.0402C7.56169 13.4165 7.69929 13.7706 7.83161 14.0413C7.9427 14.2686 8.07619 14.4967 8.25084 14.6719C8.43707 14.8588 8.6861 14.9998 8.99951 14.9998C9.35669 14.9998 9.66513 14.8766 9.91093 14.6605C10.1467 14.4533 10.3045 14.1793 10.413 13.8992C10.6275 13.3456 10.6946 12.6483 10.7026 12.0061C10.7108 11.3527 10.6578 10.7053 10.6038 10.2252C10.5948 10.1455 10.5858 10.0701 10.577 9.99982H11.0897C12.655 9.99982 13.8353 8.57763 13.5468 7.0391L13.0933 4.62015Z" fill="#F8C6C6" stroke="#E32525" stroke-linecap="round" stroke-linejoin="round"/>
</svg>
