<svg width="10" height="15" viewBox="0 0 10 15" fill="none" xmlns="http://www.w3.org/2000/svg">
<path d="M2.50016 14.1666C2.04183 14.1666 1.64947 14.0034 1.32308 13.677C0.996691 13.3506 0.833496 12.9583 0.833496 12.4999C0.833496 12.0416 0.996691 11.6492 1.32308 11.3228C1.64947 10.9964 2.04183 10.8333 2.50016 10.8333C2.9585 10.8333 3.35086 10.9964 3.67725 11.3228C4.00363 11.6492 4.16683 12.0416 4.16683 12.4999C4.16683 12.9583 4.00363 13.3506 3.67725 13.677C3.35086 14.0034 2.9585 14.1666 2.50016 14.1666ZM7.50016 14.1666C7.04183 14.1666 6.64947 14.0034 6.32308 13.677C5.99669 13.3506 5.8335 12.9583 5.8335 12.4999C5.8335 12.0416 5.99669 11.6492 6.32308 11.3228C6.64947 10.9964 7.04183 10.8333 7.50016 10.8333C7.9585 10.8333 8.35086 10.9964 8.67725 11.3228C9.00363 11.6492 9.16683 12.0416 9.16683 12.4999C9.16683 12.9583 9.00363 13.3506 8.67725 13.677C8.35086 14.0034 7.9585 14.1666 7.50016 14.1666ZM2.50016 9.16658C2.04183 9.16658 1.64947 9.00339 1.32308 8.677C0.996691 8.35061 0.833496 7.95825 0.833496 7.49992C0.833496 7.04158 0.996691 6.64922 1.32308 6.32283C1.64947 5.99645 2.04183 5.83325 2.50016 5.83325C2.9585 5.83325 3.35086 5.99645 3.67725 6.32283C4.00363 6.64922 4.16683 7.04158 4.16683 7.49992C4.16683 7.95825 4.00363 8.35061 3.67725 8.677C3.35086 9.00339 2.9585 9.16658 2.50016 9.16658ZM7.50016 9.16658C7.04183 9.16658 6.64947 9.00339 6.32308 8.677C5.99669 8.35061 5.8335 7.95825 5.8335 7.49992C5.8335 7.04158 5.99669 6.64922 6.32308 6.32283C6.64947 5.99645 7.04183 5.83325 7.50016 5.83325C7.9585 5.83325 8.35086 5.99645 8.67725 6.32283C9.00363 6.64922 9.16683 7.04158 9.16683 7.49992C9.16683 7.95825 9.00363 8.35061 8.67725 8.677C8.35086 9.00339 7.9585 9.16658 7.50016 9.16658ZM2.50016 4.16658C2.04183 4.16658 1.64947 4.00339 1.32308 3.677C0.996691 3.35061 0.833496 2.95825 0.833496 2.49992C0.833496 2.04159 0.996691 1.64922 1.32308 1.32284C1.64947 0.996446 2.04183 0.833252 2.50016 0.833252C2.9585 0.833252 3.35086 0.996446 3.67725 1.32284C4.00363 1.64922 4.16683 2.04159 4.16683 2.49992C4.16683 2.95825 4.00363 3.35061 3.67725 3.677C3.35086 4.00339 2.9585 4.16658 2.50016 4.16658ZM7.50016 4.16658C7.04183 4.16658 6.64947 4.00339 6.32308 3.677C5.99669 3.35061 5.8335 2.95825 5.8335 2.49992C5.8335 2.04159 5.99669 1.64922 6.32308 1.32284C6.64947 0.996446 7.04183 0.833252 7.50016 0.833252C7.9585 0.833252 8.35086 0.996446 8.67725 1.32284C9.00363 1.64922 9.16683 2.04159 9.16683 2.49992C9.16683 2.95825 9.00363 3.35061 8.67725 3.677C8.35086 4.00339 7.9585 4.16658 7.50016 4.16658Z" fill="#333333"/>
</svg>
