<svg width="25" height="24" viewBox="0 0 25 24" fill="none" xmlns="http://www.w3.org/2000/svg">
<path d="M18.5 1.5H6.5C5.90326 1.5 5.33097 1.73705 4.90901 2.15901C4.48705 2.58097 4.25 3.15326 4.25 3.75V20.25C4.25 20.8467 4.48705 21.419 4.90901 21.841C5.33097 22.2629 5.90326 22.5 6.5 22.5H15.5C15.6986 22.4972 15.8888 22.4195 16.0325 22.2825L20.5325 17.7825C20.602 17.7124 20.657 17.6293 20.6943 17.5379C20.7317 17.4466 20.7506 17.3487 20.75 17.25V3.75C20.75 3.15326 20.5129 2.58097 20.091 2.15901C19.669 1.73705 19.0967 1.5 18.5 1.5ZM5.75 20.25V3.75C5.75 3.55109 5.82902 3.36032 5.96967 3.21967C6.11032 3.07902 6.30109 3 6.5 3H18.5C18.6989 3 18.8897 3.07902 19.0303 3.21967C19.171 3.36032 19.25 3.55109 19.25 3.75V16.5H17C16.4033 16.5 15.831 16.7371 15.409 17.159C14.9871 17.581 14.75 18.1533 14.75 18.75V21H6.5C6.30109 21 6.11032 20.921 5.96967 20.7803C5.82902 20.6397 5.75 20.4489 5.75 20.25ZM18.1925 18L16.25 19.9425V18.75C16.25 18.5511 16.329 18.3603 16.4697 18.2197C16.6103 18.079 16.8011 18 17 18H18.1925Z" fill="#999999"/>
<path d="M13.0625 12.4577L11.3225 7.95773C11.2672 7.81784 11.1711 7.6978 11.0467 7.61322C10.9224 7.52863 10.7754 7.4834 10.625 7.4834C10.4746 7.4834 10.3276 7.52863 10.2032 7.61322C10.0789 7.6978 9.98279 7.81784 9.9275 7.95773L7.3025 14.7077C7.25822 14.8009 7.23364 14.9022 7.23031 15.0054C7.22698 15.1085 7.24496 15.2112 7.28313 15.3071C7.3213 15.4029 7.37884 15.4899 7.45215 15.5625C7.52545 15.6351 7.61295 15.6918 7.70917 15.729C7.80539 15.7663 7.90826 15.7833 8.01135 15.7789C8.11444 15.7746 8.21553 15.7491 8.30829 15.7039C8.40105 15.6587 8.4835 15.5949 8.55047 15.5164C8.61744 15.4379 8.66749 15.3464 8.6975 15.2477L9.3875 13.5002H11.8625L12.5525 15.2702C12.6069 15.4112 12.7026 15.5324 12.827 15.6181C12.9515 15.7037 13.0989 15.7498 13.25 15.7502C13.3426 15.751 13.4344 15.7332 13.52 15.6977C13.7046 15.6257 13.8532 15.4835 13.9333 15.3022C14.0134 15.1209 14.0185 14.9153 13.9475 14.7302L13.0625 12.4577ZM9.9725 12.0002L10.625 10.3202L11.2775 12.0002H9.9725Z" fill="#999999"/>
<path d="M14 9H14.75V9.75C14.75 9.94891 14.829 10.1397 14.9697 10.2803C15.1103 10.421 15.3011 10.5 15.5 10.5C15.6989 10.5 15.8897 10.421 16.0303 10.2803C16.171 10.1397 16.25 9.94891 16.25 9.75V9H17C17.1989 9 17.3897 8.92098 17.5303 8.78033C17.671 8.63968 17.75 8.44891 17.75 8.25C17.75 8.05109 17.671 7.86032 17.5303 7.71967C17.3897 7.57902 17.1989 7.5 17 7.5H16.25V6.75C16.25 6.55109 16.171 6.36032 16.0303 6.21967C15.8897 6.07902 15.6989 6 15.5 6C15.3011 6 15.1103 6.07902 14.9697 6.21967C14.829 6.36032 14.75 6.55109 14.75 6.75V7.5H14C13.8011 7.5 13.6103 7.57902 13.4697 7.71967C13.329 7.86032 13.25 8.05109 13.25 8.25C13.25 8.44891 13.329 8.63968 13.4697 8.78033C13.6103 8.92098 13.8011 9 14 9Z" fill="#999999"/>
</svg>
