<svg width="41" height="40" viewBox="0 0 41 40" fill="none" xmlns="http://www.w3.org/2000/svg">
<path d="M20.6 40C31.6457 40 40.6 31.0457 40.6 20C40.6 8.95431 31.6457 0 20.6 0C9.55428 0 0.599976 8.95431 0.599976 20C0.599976 31.0457 9.55428 40 20.6 40Z" fill="#FFD21F"/>
<path d="M9.97056 19.2242C9.53183 19.2242 9.09936 18.9923 8.86746 18.5849C8.52274 17.977 8.73584 17.2061 9.3438 16.8613L12.1642 15.2631L9.3062 13.6398C8.69824 13.2951 8.48513 12.5241 8.82985 11.9162C9.17457 11.3082 9.94549 11.0951 10.5535 11.4398L15.3545 14.1663C15.7493 14.3919 15.9938 14.8118 15.9938 15.2694C15.9938 15.7269 15.7493 16.1468 15.3545 16.3725L10.5911 19.0738C10.3968 19.1866 10.1774 19.2368 9.97056 19.2368V19.2242Z" fill="#403408"/>
<path d="M31.268 19.2064C31.0549 19.2064 30.8355 19.15 30.6412 19.0371L25.9468 16.3107C25.5582 16.0851 25.3263 15.6714 25.3263 15.2264C25.3263 14.7814 25.5645 14.3678 25.9468 14.1421L30.6036 11.4408C31.1991 11.0961 31.97 11.2966 32.3147 11.8983C32.6594 12.4937 32.4589 13.2646 31.8572 13.6094L29.0681 15.2264L31.8948 16.8685C32.4902 17.2133 32.697 17.9842 32.346 18.5796C32.1141 18.9807 31.6942 19.2001 31.2617 19.2001L31.268 19.2064Z" fill="#403408"/>
<path d="M13.436 28.92C13.3419 28.92 13.2479 28.9075 13.1539 28.8824C12.6149 28.7257 12.3078 28.1679 12.4582 27.6289C13.0536 25.5418 15.5356 21.5869 20.6375 21.5869C25.7393 21.5869 28.1837 25.5167 28.754 27.5976C28.9045 28.1366 28.5848 28.7007 28.0458 28.8511C27.5068 29.0015 26.9427 28.6819 26.7923 28.1429C26.7421 27.9611 25.451 23.6302 20.6375 23.6302C15.8239 23.6302 14.4701 28.0112 14.4137 28.1993C14.2821 28.6443 13.8747 28.9326 13.436 28.9326V28.92Z" fill="#403408"/>
</svg>
