<svg width="10" height="14" viewBox="0 0 10 14" fill="none" xmlns="http://www.w3.org/2000/svg">
<path d="M2 0C0.89543 0 0 0.895431 0 2V12C0 13.1046 0.895431 14 2 14H8C9.10457 14 10 13.1046 10 12V4.41421C10 4.01639 9.84196 3.63486 9.56066 3.35355L6.64645 0.43934C6.36514 0.158035 5.98361 0 5.58579 0H2ZM1 2C1 1.44772 1.44772 1 2 1H5V3.5C5 4.32843 5.67157 5 6.5 5H9V12C9 12.5523 8.55229 13 8 13H2C1.44772 13 1 12.5523 1 12V2ZM8.79289 4H6.5C6.22386 4 6 3.77614 6 3.5V1.20711L8.79289 4ZM4 6.5C4 6.22386 4.22386 6 4.5 6H7.5C7.77614 6 8 6.22386 8 6.5C8 6.77614 7.77614 7 7.5 7H4.5C4.22386 7 4 6.77614 4 6.5ZM4.5 8C4.22386 8 4 8.22386 4 8.5C4 8.77614 4.22386 9 4.5 9H7.5C7.77614 9 8 8.77614 8 8.5C8 8.22386 7.77614 8 7.5 8H4.5ZM4 10.5C4 10.2239 4.22386 10 4.5 10H7.5C7.77614 10 8 10.2239 8 10.5C8 10.7761 7.77614 11 7.5 11H4.5C4.22386 11 4 10.7761 4 10.5ZM2.5 7C2.77614 7 3 6.77614 3 6.5C3 6.22386 2.77614 6 2.5 6C2.22386 6 2 6.22386 2 6.5C2 6.77614 2.22386 7 2.5 7ZM3 8.5C3 8.77614 2.77614 9 2.5 9C2.22386 9 2 8.77614 2 8.5C2 8.22386 2.22386 8 2.5 8C2.77614 8 3 8.22386 3 8.5ZM2.5 11C2.77614 11 3 10.7761 3 10.5C3 10.2239 2.77614 10 2.5 10C2.22386 10 2 10.2239 2 10.5C2 10.7761 2.22386 11 2.5 11Z" fill="black"/>
</svg>
