<svg width="24" height="24" viewBox="0 0 24 24" fill="none" xmlns="http://www.w3.org/2000/svg">
<rect width="24" height="24" rx="12" fill="#FEF8EB"/>
<path d="M10.5063 5.40098C11.4313 4.86992 12.5687 4.86992 13.4937 5.40098L20.749 9.5664C20.9042 9.65555 21 9.82095 21 10C21 10.1791 20.9042 10.3445 20.7489 10.4336L18 12.0118V16.5C18 16.6326 17.9473 16.7598 17.8536 16.8535L17.852 16.8551L17.8496 16.8574L17.8428 16.8642L17.8201 16.8859C17.801 16.9039 17.7741 16.9288 17.7394 16.9596C17.6701 17.0213 17.5696 17.1067 17.4389 17.2078C17.1777 17.41 16.7948 17.6761 16.2978 17.9412C15.3033 18.4716 13.8479 19 12 19C10.1521 19 8.69675 18.4716 7.70221 17.9412C7.20518 17.6761 6.82226 17.41 6.5611 17.2078C6.43043 17.1067 6.32994 17.0213 6.26059 16.9596C6.22591 16.9288 6.19898 16.9039 6.17992 16.8859C6.07226 16.7819 6 16.6537 6 16.5V12.0118L4 10.8636L4 15.5C4 15.7761 3.77614 16 3.5 16C3.22386 16 3 15.7761 3 15.5V10C3 9.81064 3.10529 9.64582 3.26052 9.56096L10.5063 5.40098ZM13.4937 14.599C12.5687 15.13 11.4313 15.13 10.5063 14.599L7 12.5859V16.2772C7.04686 16.3168 7.10469 16.364 7.17327 16.4171C7.39649 16.5899 7.73232 16.8239 8.17279 17.0588C9.05325 17.5284 10.3479 18 12 18C13.6521 18 14.9467 17.5284 15.8272 17.0588C16.2677 16.8239 16.6035 16.5899 16.8267 16.4171C16.8953 16.364 16.9531 16.3168 17 16.2772V12.5859L13.4937 14.599ZM12.9958 6.26822C12.3791 5.91418 11.6209 5.91418 11.0042 6.26822L4.50423 10L11.0042 13.7317C11.6209 14.0858 12.3791 14.0858 12.9958 13.7317L19.4958 10L12.9958 6.26822Z" fill="#F3B119"/>
</svg>
