<svg width="154" height="123" viewBox="0 0 154 123" fill="none" xmlns="http://www.w3.org/2000/svg">
<g clip-path="url(#clip0_351_49562)">
<path fill-rule="evenodd" clip-rule="evenodd" d="M128.075 87.1308C129.052 86.023 131.049 83.3374 133.246 78.0082L129.754 78.9734L128.292 79.6448C126.797 58.1349 122.586 36.0627 116.997 13.5877C116.654 12.2197 115.284 11.1706 113.948 11.2713C87.8397 13.1932 60.5874 18.5392 32.65 24.9762C32.4996 22.4165 32.107 17.9433 31.2381 18.4973C30.0267 19.2778 25.8662 27.729 25.8662 27.729C25.649 28.1318 25.532 28.5766 25.5571 29.0214C26.6431 52.3609 31.1044 76.3717 37.1949 100.878C37.5374 102.254 38.9075 103.295 40.2442 103.194C67.7806 101.163 96.5952 95.3303 126.137 88.4233C126.621 88.3058 127.081 88.0792 127.457 87.7687C127.691 87.5756 127.908 87.3658 128.083 87.1225L128.075 87.1308Z" fill="#F1854F"/>
<path d="M133.422 77.01C133.48 78.3192 132.352 79.6536 130.915 79.9893C101.374 86.8879 72.5676 92.7291 45.0229 94.76C43.6861 94.8607 42.316 93.8117 41.9735 92.4437C35.883 67.9461 31.4218 43.9269 30.3357 20.5874C30.2772 19.2782 31.405 17.9438 32.842 17.6081C62.3835 10.7011 91.1981 4.85993 118.734 2.82895C120.071 2.72824 121.441 3.7773 121.784 5.15367C127.874 29.6513 132.327 53.6705 133.422 77.01Z" fill="#F7CB71"/>
<path d="M69.3018 40.267C69.3101 40.4516 69.1347 40.6447 68.9175 40.695C64.406 41.6769 59.9949 42.5078 55.7926 42.8015C55.5837 42.8183 55.3748 42.6673 55.3247 42.4742C54.389 38.983 53.7123 35.5672 53.5452 32.2438C53.5369 32.0592 53.7123 31.8661 53.9295 31.8158C58.4409 30.8339 62.8521 30.003 67.0628 29.7093C67.2716 29.6925 67.4805 29.8436 67.5306 30.0366C68.4663 33.5279 69.143 36.9436 69.3101 40.267H69.3018Z" fill="white"/>
<path d="M73.0855 60.8203C73.0938 61.005 72.9184 61.198 72.7011 61.2399C68.1897 62.2219 63.7786 63.0527 59.5763 63.3465C59.3674 63.3548 59.1585 63.2122 59.1084 63.0191C58.1727 59.5279 57.496 56.1121 57.3289 52.7887C57.3205 52.6041 57.496 52.4111 57.7132 52.3607C62.233 51.3788 66.6358 50.5479 70.8465 50.2542C71.047 50.2374 71.2558 50.3885 71.3143 50.5815C72.25 54.0728 72.9267 57.4885 73.0938 60.8119L73.0855 60.8203Z" fill="white"/>
<path d="M76.8704 81.3818C76.8787 81.5665 76.7033 81.7595 76.4861 81.8015C71.9663 82.7834 67.5635 83.6142 63.3528 83.908C63.144 83.9248 62.9351 83.7737 62.885 83.5807C61.9576 80.0894 61.2726 76.6737 61.1055 73.3503C61.1055 73.1656 61.2726 72.9726 61.4898 72.9222C66.0096 71.9403 70.4124 71.1095 74.623 70.8157C74.8319 70.7989 75.0324 70.95 75.0909 71.143C76.0182 74.6343 76.7033 78.05 76.8704 81.3735V81.3818Z" fill="white"/>
<g clip-path="url(#clip1_351_49562)">
<path d="M41.6114 105.887C55.6266 100.021 62.2332 83.9048 56.3677 69.8896C50.5021 55.8744 34.3856 49.2678 20.3704 55.1334C6.35521 60.9989 -0.251377 77.1155 5.61418 91.1306C11.4797 105.146 27.5963 111.752 41.6114 105.887Z" fill="url(#paint0_linear_351_49562)"/>
<path fill-rule="evenodd" clip-rule="evenodd" d="M20.3775 91.7923C19.1351 91.3762 18.1847 90.2592 18.5225 89.2675C20.3489 83.9387 26.1374 76.1649 30.357 68.6419C31.1643 67.2057 33.4374 67.4565 34.2046 68.9098C38.2181 76.5468 43.5772 84.2522 45.2605 89.6266C45.5696 90.6239 44.5906 91.7125 43.3367 92.0943C35.6531 94.26 27.9981 94.1575 20.3775 91.7809V91.7923Z" fill="#074785"/>
<path fill-rule="evenodd" clip-rule="evenodd" d="M18.9217 91.103C17.6792 90.6869 16.7345 89.5699 17.0666 88.5782C18.893 83.2494 24.6872 75.4756 28.9069 67.9583C29.7142 66.5221 31.9872 66.7729 32.7544 68.2262C36.768 75.8632 42.127 83.5686 43.8103 88.943C44.1195 89.9403 43.1404 91.0289 41.8866 91.4107C34.203 93.5765 26.548 93.4739 18.9274 91.0973L18.9217 91.103Z" fill="#FFC107"/>
<path d="M29.3128 74.8766C29.4436 74.7093 29.6304 74.585 29.8733 74.5038C30.1162 74.4225 30.3497 74.3843 30.5786 74.3891C30.7701 74.3891 30.9569 74.3986 31.1391 74.4082C31.3213 74.4177 31.4988 74.4416 31.6716 74.4751C32.0312 74.5659 32.2835 74.7523 32.4189 75.0152C32.5544 75.2781 32.6338 75.5792 32.6478 75.909C32.6618 76.2388 32.6478 76.5638 32.5917 76.8793C32.5403 77.1995 32.503 77.4529 32.489 77.6536C32.3348 79.4699 32.1667 81.291 32.0359 83.1073C32.0172 83.3558 31.9985 83.5996 31.9845 83.8433C31.9658 84.0919 31.9098 84.3261 31.8117 84.546C31.7183 84.7563 31.5595 84.9044 31.34 85C31.1204 85.0956 30.8962 85.1339 30.6627 85.1243C30.4291 85.1147 30.2049 85.0526 29.9901 84.9475C29.7706 84.8375 29.6164 84.6894 29.5277 84.4886C29.4903 84.3787 29.4576 84.2353 29.4343 84.0728C29.4109 83.9055 29.3876 83.7525 29.3689 83.6187C29.3502 83.4084 29.3362 83.1885 29.3315 82.9591C29.3315 82.7297 29.3222 82.5002 29.3082 82.266C29.2147 80.1964 29.0886 78.1316 28.9999 76.062C28.9952 75.9138 29.0092 75.7226 29.0513 75.4836C29.0933 75.2446 29.182 75.0439 29.3128 74.8766ZM31.6249 86.7494C31.7183 86.8641 31.793 87.0123 31.8397 87.1844C32.0452 87.9874 31.737 88.9433 30.8262 89.0007C30.3077 89.0341 29.7239 88.8095 29.5464 88.2646C29.4903 88.0686 29.4576 87.8392 29.4529 87.5811C29.4436 87.0744 29.6304 86.6251 30.1209 86.4626C30.686 86.2762 31.2932 86.3384 31.6295 86.7494H31.6249Z" fill="white"/>
</g>
<path d="M143.197 51.8401L149.571 53.1661L143.197 54.5761L141.893 61.5922L140.707 54.5761L134.316 53.1661L140.707 51.8401L141.893 44.8408L143.197 51.8401Z" fill="#FFA4AC"/>
<path d="M17.3867 33.5032L23.7611 34.8292L17.3867 36.2392L16.0834 43.2553L14.897 36.2392L8.50586 34.8292L14.897 33.5032L16.0834 26.5039L17.3867 33.5032Z" fill="#FFA4AC"/>
<path d="M122.26 61.593L125.527 62.2644L122.26 62.9861L121.592 66.5865L120.982 62.9861L117.707 62.2644L120.982 61.593L121.592 58.001L122.26 61.593Z" fill="#074785"/>
<path d="M87.2299 45.2765L90.4965 45.9479L87.2299 46.6781L86.5615 50.2701L85.9517 46.6781L82.6851 45.9479L85.9517 45.2765L86.5615 41.6846L87.2299 45.2765Z" fill="#074785"/>
<path d="M112.084 23.1119L115.351 23.7917L112.084 24.5134L111.424 28.1138L110.815 24.5134L107.54 23.7917L110.815 23.1119L111.424 19.5283L112.084 23.1119Z" fill="#074785"/>
<path d="M42.9677 31.7912L46.2343 32.4626L42.9677 33.1843L42.2993 36.7847L41.6895 33.1843L38.4229 32.4626L41.6895 31.7912L42.2993 28.1992L42.9677 31.7912Z" fill="#074785"/>
<path d="M92.4267 25.7994L95.6933 26.4792L92.4267 27.2009L91.7584 30.8013L91.1485 27.2009L87.8735 26.4792L91.1485 25.7994L91.7584 22.2158L92.4267 25.7994Z" fill="white"/>
<path d="M99.7362 73.8371L103.003 74.5085L99.7362 75.2302L99.0679 78.8306L98.4664 75.2302L95.1914 74.5085L98.4664 73.8371L99.0679 70.2451L99.7362 73.8371Z" fill="white"/>
<path fill-rule="evenodd" clip-rule="evenodd" d="M65.1156 36.2215C65.4164 35.9698 65.6837 35.7516 65.9511 35.5166C67.9144 33.8213 69.6521 31.9833 71.6238 30.2881C72.0415 29.9272 72.4926 29.5915 72.9354 29.2642C73.2613 29.0208 74.1468 28.5173 74.339 29.2054C74.4476 29.6083 74.1134 30.0615 73.9045 30.3804C72.8686 31.9498 71.3648 33.1163 70.1033 34.4759C68.541 36.1544 66.8116 37.7825 65.2577 39.461C65.2326 39.4862 65.2159 39.503 65.1908 39.5282C64.9903 39.7296 64.8316 39.7296 64.6394 39.5198C64.3052 39.1589 63.9711 38.798 63.6369 38.4371C62.626 37.3461 61.6235 36.2467 60.6126 35.1557C60.2951 34.8116 60.3452 34.5011 60.7546 34.2577C61.1389 34.0311 61.5148 33.8129 61.8991 33.5863C62.2166 33.3933 62.5007 33.4268 62.7513 33.687C63.4865 34.4759 64.2301 35.2564 64.9652 36.0453C65.007 36.0956 65.0488 36.146 65.1073 36.2215H65.1156Z" fill="#F1854F"/>
<path fill-rule="evenodd" clip-rule="evenodd" d="M68.85 56.7997C69.1508 56.5479 69.4181 56.3297 69.6855 56.0947C71.6488 54.3994 73.3865 52.5615 75.3581 50.8662C75.7759 50.5053 76.227 50.1696 76.6698 49.8423C76.9956 49.5989 77.8812 49.0954 78.0734 49.7836C78.182 50.1864 77.8478 50.6396 77.6389 50.9585C76.603 52.5279 75.0992 53.6944 73.8376 55.054C72.2753 56.7325 70.546 58.3607 68.992 60.0392C68.967 60.0643 68.9503 60.0811 68.9252 60.1063C68.7247 60.3077 68.5659 60.3077 68.3738 60.1063C68.0396 59.7454 67.7054 59.3845 67.3713 59.0237C66.3604 57.9326 65.3578 56.8332 64.3469 55.7422C64.0295 55.3981 64.0796 55.0876 64.489 54.8442C64.8733 54.6176 65.2576 54.3994 65.6335 54.1728C65.951 53.9798 66.2351 54.0134 66.4857 54.2735C67.2209 55.0624 67.9644 55.8513 68.6996 56.6318C68.7414 56.6822 68.7832 56.7325 68.8417 56.8081L68.85 56.7997Z" fill="#F1854F"/>
<path fill-rule="evenodd" clip-rule="evenodd" d="M72.0917 76.8163C72.3925 76.5645 72.6598 76.3463 72.9272 76.1113C74.8905 74.416 76.6282 72.5781 78.5998 70.8828C79.0176 70.5219 79.4687 70.1862 79.9115 69.8589C80.2373 69.6155 81.1229 69.112 81.3151 69.8002C81.4237 70.203 81.0895 70.6562 80.8806 70.9751C79.853 72.5445 78.3492 73.711 77.0793 75.0706C75.517 76.7491 73.7877 78.3773 72.2337 80.0558C72.2087 80.0809 72.192 80.0977 72.1669 80.1229C71.958 80.3243 71.8077 80.3243 71.6155 80.1229C71.2813 79.762 70.9471 79.4011 70.613 79.0403C69.6021 77.9492 68.5995 76.8498 67.5886 75.7588C67.2712 75.4147 67.3213 75.1042 67.7307 74.8608C68.115 74.6342 68.4909 74.416 68.8752 74.1894C69.1927 73.9964 69.4767 74.03 69.7274 74.2901C70.4626 75.079 71.2061 75.8595 71.9413 76.6484C71.9831 76.6988 72.0249 76.7491 72.0833 76.8247L72.0917 76.8163Z" fill="#F1854F"/>
<path d="M57.6885 9.24842C55.2991 7.58671 52.2581 7.90562 49.8604 9.35752C48.0641 10.4485 46.0089 12.2277 45.9087 14.6112C46.5854 14.4601 47.4041 14.2755 48.2145 14.0993C48.6239 12.9495 49.8353 12.1102 50.7459 11.506C52.4419 10.3898 54.5639 10.0289 56.3434 11.0948C57.6467 11.8753 58.2984 12.9831 58.4154 14.586C58.4989 15.7694 58.29 16.7681 57.6217 17.4646C57.2374 17.1038 56.7361 16.8856 56.2014 16.8856C54.9566 16.8856 53.9541 18.0353 53.9541 19.4537C53.9541 20.872 54.9649 22.0218 56.2014 22.0218C57.3627 22.0218 58.3235 21.0063 58.4404 19.7054C59.8106 18.7235 60.5457 17.2213 60.6042 15.2322C60.6794 12.6725 59.6685 10.5996 57.6885 9.22324V9.24842Z" fill="#074785"/>
<path d="M80.5881 4.93494C78.2071 3.27323 75.1577 3.59214 72.7599 5.04404C71.089 6.05953 69.1926 7.67088 68.8584 9.81096C69.5852 9.67668 70.4625 9.51723 71.3063 9.36616C71.8242 8.4346 72.8518 7.72124 73.6455 7.20091C75.3415 6.08471 77.4635 5.72383 79.243 6.78967C80.5463 7.57017 81.198 8.67798 81.3149 10.2809C81.4068 11.4643 81.1896 12.463 80.5213 13.1596C80.137 12.7987 79.6357 12.5805 79.101 12.5805C77.8562 12.5805 76.8536 13.7302 76.8536 15.1486C76.8536 16.5669 77.8645 17.7167 79.101 17.7167C80.2623 17.7167 81.223 16.7012 81.34 15.4003C82.7101 14.4184 83.4453 12.9162 83.5038 10.9272C83.579 8.36746 82.5681 6.29452 80.5881 4.92655V4.93494Z" fill="#074785"/>
<path d="M103.496 1.11658C101.107 -0.545129 98.0658 -0.226215 95.668 1.22568C94.0222 2.22439 92.1675 3.79378 91.7832 5.8835C92.4599 5.78279 93.3371 5.6653 94.2227 5.53941C94.7407 4.60785 95.7599 3.91127 96.5536 3.39094C98.2496 2.27474 100.372 1.91386 102.151 2.97971C103.454 3.76021 104.106 4.86801 104.223 6.47097C104.307 7.65431 104.098 8.65302 103.429 9.34959C103.045 8.98871 102.552 8.77051 102.009 8.77051C100.764 8.77051 99.7617 9.92028 99.7617 11.3386C99.7617 12.7569 100.773 13.9067 102.009 13.9067C103.179 13.9067 104.131 12.8912 104.248 11.5904C105.618 10.6085 106.362 9.10621 106.412 7.11719C106.487 4.55749 105.476 2.48455 103.496 1.10819V1.11658Z" fill="#074785"/>
<path d="M110.898 80.6351C110.898 80.6351 111.157 80.5176 111.625 80.3414C112.084 80.1651 112.753 79.9217 113.555 79.6784C114.357 79.4182 115.292 79.158 116.303 78.8811C117.314 78.6209 118.4 78.3691 119.495 78.1341C120.581 77.9075 121.684 77.7061 122.711 77.5467C123.747 77.3872 124.708 77.2613 125.543 77.1858C126.379 77.0935 127.072 77.0599 127.565 77.0347C128.058 77.0096 128.342 77.0179 128.342 77.0179C128.342 77.0179 128.083 77.1354 127.615 77.3117C127.156 77.4879 126.487 77.7313 125.685 77.9747C124.883 78.2349 123.948 78.495 122.937 78.7636C121.926 79.0237 120.84 79.2755 119.745 79.5021C118.659 79.7287 117.556 79.9217 116.529 80.0896C115.493 80.2407 114.532 80.3749 113.697 80.4505C112.861 80.5344 112.159 80.5764 111.675 80.6015C111.182 80.6267 110.898 80.6183 110.898 80.6183V80.6351Z" fill="white"/>
<path d="M34.1539 21.3421C34.1539 21.3421 34.4129 21.2246 34.8807 21.0484C35.3402 20.8722 36.0086 20.6288 36.8106 20.3854C37.6126 20.1252 38.5483 19.8567 39.5592 19.5881C40.5701 19.3279 41.6562 19.0762 42.7423 18.8412C43.8284 18.6146 44.9311 18.4132 45.9587 18.2537C46.9947 18.1026 47.9555 17.9684 48.7909 17.8928C49.6264 17.8005 50.3198 17.7669 50.8127 17.7418C51.3056 17.7166 51.5897 17.725 51.5897 17.725C51.5897 17.725 51.3307 17.8425 50.8628 18.0187C50.4033 18.195 49.735 18.4383 48.9329 18.6817C48.1309 18.9419 47.1952 19.2021 46.1843 19.4706C45.1734 19.7308 44.0873 19.9825 42.9929 20.2091C41.9068 20.4357 40.804 20.6288 39.7764 20.7966C38.7405 20.9477 37.7797 21.082 36.9443 21.1575C36.1088 21.2414 35.4154 21.2834 34.9225 21.3086C34.4296 21.3337 34.1455 21.3253 34.1455 21.3253L34.1539 21.3421Z" fill="white"/>
<path d="M62.2417 93.0309C62.2417 93.0309 62.3837 92.9974 62.6594 92.9302C62.9351 92.8715 63.3278 92.7624 63.8374 92.6533C64.347 92.5358 64.9653 92.3931 65.6754 92.2504C66.3855 92.0994 67.1876 91.9231 68.0648 91.7469C68.942 91.5706 69.8861 91.3776 70.8886 91.193C71.8911 90.9999 72.9521 90.7901 74.0466 90.5971C75.141 90.4041 76.2772 90.2027 77.4302 90.0012C78.5831 89.7998 79.7527 89.6152 80.9307 89.4222C82.1003 89.2375 83.2783 89.0445 84.4312 88.8683C85.5841 88.6836 86.7287 88.5242 87.8315 88.3647C88.9343 88.1969 89.9953 88.0458 91.0062 87.9031C92.0171 87.7605 92.9778 87.6346 93.8634 87.5255C94.3062 87.4751 94.7239 87.3996 95.1333 87.3492C95.5343 87.2989 95.9186 87.2485 96.2779 87.1982C96.9963 87.1058 97.6229 87.0303 98.1493 86.9716C98.6673 86.9128 99.0766 86.8709 99.3523 86.8457C99.628 86.8205 99.7784 86.8037 99.7784 86.8037C99.7784 86.8037 99.6364 86.8457 99.369 86.9296C99.1017 87.0051 98.709 87.131 98.2078 87.2653C97.7065 87.408 97.0966 87.5842 96.3948 87.7688C95.6931 87.9535 94.8994 88.1717 94.0305 88.3815C93.1616 88.5829 92.2176 88.8095 91.215 89.0193C90.2125 89.2375 89.1598 89.4725 88.0654 89.6907C86.971 89.9005 85.8348 90.1187 84.6818 90.3202C83.5289 90.53 82.3509 90.7314 81.1813 90.9244C78.8337 91.2937 76.4777 91.6546 74.2638 91.9315C73.161 92.0742 72.0833 92.1917 71.0724 92.3176C70.0531 92.4434 69.0924 92.5274 68.2068 92.6113C66.4273 92.7875 64.9402 92.8883 63.8959 92.9554C63.3779 92.989 62.9685 93.0057 62.6845 93.0225C62.4004 93.0309 62.2584 93.0393 62.2584 93.0393L62.2417 93.0309Z" fill="#074785"/>
<path d="M52.3922 68.1728C51.916 67.6524 51.1558 68.4245 51.6236 68.9449C54.531 72.1256 55.3497 77.3373 55.3748 81.5C55.3748 82.205 56.4609 82.205 56.4609 81.5C56.4358 77.0184 55.5084 71.5885 52.3922 68.1728Z" fill="white"/>
<path d="M14.4026 62.3285C10.8352 64.7372 8.46254 68.6732 7.49342 72.8359C7.33468 73.5157 8.37899 73.8094 8.53773 73.1212C9.44001 69.2439 11.6205 65.5177 14.9456 63.2685C15.5221 62.8824 14.979 61.9341 14.3942 62.3285H14.4026Z" fill="white"/>
<path d="M19.1062 59.0562C18.3293 59.4086 17.6191 59.8115 16.9675 60.3738C16.4412 60.8354 17.2098 61.6075 17.7361 61.1459C18.3042 60.6507 18.9642 60.3066 19.6493 59.9961C20.2842 59.7024 19.7328 58.7624 19.0979 59.0562H19.1062Z" fill="white"/>
<path d="M55.3663 84.1431C55.1741 84.7894 55.1908 85.4775 54.9318 86.107C54.8149 86.3839 55.0488 86.7028 55.3078 86.7784C55.6169 86.8623 55.8592 86.6693 55.9761 86.4007C56.2351 85.7713 56.2184 85.0831 56.4106 84.4369C56.6194 83.7655 55.5668 83.4801 55.3663 84.1515V84.1431Z" fill="white"/>
</g>
<defs>
<linearGradient id="paint0_linear_351_49562" x1="13.9307" y1="48.6957" x2="100.444" y2="209.978" gradientUnits="userSpaceOnUse">
<stop stop-color="#7BFFB9"/>
<stop offset="1" stop-color="#0E9DFB"/>
</linearGradient>
<clipPath id="clip0_351_49562">
<rect width="153.046" height="123" fill="white" transform="translate(0.477051)"/>
</clipPath>
<clipPath id="clip1_351_49562">
<rect width="55" height="55" fill="white" transform="translate(3.47705 53)"/>
</clipPath>
</defs>
</svg>
