<svg width="153" height="184" viewBox="0 0 153 184" fill="none" xmlns="http://www.w3.org/2000/svg">
<path d="M79.4151 147.27C120.055 147.27 153 114.302 153 73.6349C153 32.9674 120.055 0 79.4151 0C38.7754 0 5.8304 32.9674 5.8304 73.6349C5.8304 114.302 38.7754 147.27 79.4151 147.27Z" fill="#F5F5F5"/>
<path d="M133.946 133.091C129.826 131.196 122.823 125.902 127.766 119.884C133.946 112.362 136.952 115.203 136.117 117.544C135.282 119.884 128.601 127.073 124.259 121.054C119.916 115.036 124.426 106.009 126.096 105.508M1 53.3506C1.83503 56.1368 4.77456 61.1408 9.85207 58.8673C16.1987 56.0253 17.7016 52.0133 25.0505 58.8673C30.9295 64.3504 36.2965 60.0374 38.2448 57.1954M122.589 22.5912C120.863 18.7464 118.447 11.391 122.589 12.7284C127.766 14.3999 119.248 22.424 108.893 12.7284" stroke="#666666" stroke-width="2" stroke-linecap="round"/>
<path d="M82.4745 10.3121L83.4313 13.1347L86.0169 14.1791L83.4313 15.2235L82.4745 18.0461L81.5178 15.2235L78.9322 14.1791L81.5178 13.1347L82.4745 10.3121Z" fill="url(#paint0_radial_1317_3533)"/>
<path d="M24.9915 83.7859L26.0787 86.9614L29.0169 88.1363L26.0787 89.3112L24.9915 92.4867L23.9043 89.3112L20.9661 88.1363L23.9043 86.9614L24.9915 83.7859Z" fill="#666666"/>
<path d="M50.3339 100.847L58.0837 108.602L34.5923 132.109C32.4524 134.251 28.9828 134.251 26.8429 132.109C24.7026 129.968 24.7026 126.496 26.8429 124.354L50.3339 100.847Z" fill="#666666"/>
<path d="M48.661 103.121L29.017 122.779" stroke="black" stroke-width="2" stroke-linecap="round"/>
<path d="M58.568 90.1841L68.7395 100.362L57.5949 111.515C56.337 112.773 54.2982 112.773 53.0403 111.515L47.4234 105.894C46.1655 104.635 46.1655 102.595 47.4234 101.336L58.568 90.1841Z" fill="#999999"/>
<path d="M84.3594 112.001C105.923 112.001 123.403 94.5089 123.403 72.9308C123.403 51.3527 105.923 33.8602 84.3594 33.8602C62.796 33.8602 45.3154 51.3527 45.3154 72.9308C45.3154 94.5089 62.796 112.001 84.3594 112.001Z" fill="#999999"/>
<path d="M84.2167 103.179C100.862 103.179 114.356 89.6759 114.356 73.0192C114.356 56.3624 100.862 42.8595 84.2167 42.8595C67.5713 42.8595 54.0775 56.3624 54.0775 73.0192C54.0775 89.6759 67.5713 103.179 84.2167 103.179Z" fill="#E6E6E6"/>
<path d="M102.092 92.5609C112.926 81.7194 112.926 64.1414 102.092 53.2999" stroke="black" stroke-width="2" stroke-linecap="round"/>
<path fill-rule="evenodd" clip-rule="evenodd" d="M81.5086 54.783C79.6723 54.783 78.2077 56.3173 78.2918 58.1528L79.3381 81.0328C79.417 82.7536 80.8339 84.1081 82.5552 84.1081H84.0027C85.724 84.1081 87.1409 82.7536 87.2195 81.0328L88.2661 58.1528C88.3499 56.3173 86.8852 54.783 85.049 54.783H81.5086ZM83.1178 93.1312C85.2522 93.1312 86.9822 91.4 86.9822 89.2641C86.9822 87.1285 85.2522 85.3971 83.1178 85.3971C80.9836 85.3971 79.2534 87.1285 79.2534 89.2641C79.2534 91.4 80.9836 93.1312 83.1178 93.1312Z" fill="white"/>
<path d="M138.509 72.8291C140.287 72.8291 141.729 71.3863 141.729 69.6066C141.729 67.8268 140.287 66.384 138.509 66.384C136.73 66.384 135.288 67.8268 135.288 69.6066C135.288 71.3863 136.73 72.8291 138.509 72.8291Z" fill="url(#paint1_linear_1317_3533)"/>
<path d="M32.5316 168.088V178.27H30.891L26.0934 171.334H26.0089V178.27H24.1644V168.088H25.815L30.6076 175.028H30.6971V168.088H32.5316ZM37.7928 178.419C37.0471 178.419 36.4007 178.255 35.8539 177.927C35.307 177.599 34.8828 177.14 34.5811 176.55C34.2828 175.96 34.1337 175.27 34.1337 174.481C34.1337 173.693 34.2828 173.002 34.5811 172.408C34.8828 171.815 35.307 171.354 35.8539 171.026C36.4007 170.698 37.0471 170.534 37.7928 170.534C38.5385 170.534 39.1848 170.698 39.7317 171.026C40.2786 171.354 40.7012 171.815 40.9995 172.408C41.3011 173.002 41.4519 173.693 41.4519 174.481C41.4519 175.27 41.3011 175.96 40.9995 176.55C40.7012 177.14 40.2786 177.599 39.7317 177.927C39.1848 178.255 38.5385 178.419 37.7928 178.419ZM37.8027 176.977C38.2071 176.977 38.5452 176.866 38.8169 176.644C39.0887 176.419 39.2909 176.117 39.4235 175.739C39.5594 175.361 39.6273 174.94 39.6273 174.476C39.6273 174.009 39.5594 173.587 39.4235 173.209C39.2909 172.828 39.0887 172.524 38.8169 172.299C38.5452 172.074 38.2071 171.961 37.8027 171.961C37.3884 171.961 37.0437 172.074 36.7686 172.299C36.4969 172.524 36.293 172.828 36.1571 173.209C36.0246 173.587 35.9583 174.009 35.9583 174.476C35.9583 174.94 36.0246 175.361 36.1571 175.739C36.293 176.117 36.4969 176.419 36.7686 176.644C37.0437 176.866 37.3884 176.977 37.8027 176.977ZM46.5316 178.27V168.088H50.3498C51.132 168.088 51.7882 168.224 52.3185 168.496C52.8522 168.767 53.2549 169.149 53.5266 169.639C53.8017 170.126 53.9393 170.695 53.9393 171.344C53.9393 171.997 53.8001 172.564 53.5217 173.045C53.2466 173.522 52.8406 173.891 52.3036 174.153C51.7667 174.412 51.1071 174.541 50.3249 174.541H47.6055V173.01H50.0763C50.5337 173.01 50.9083 172.947 51.1999 172.821C51.4916 172.692 51.707 172.504 51.8462 172.259C51.9888 172.011 52.06 171.706 52.06 171.344C52.06 170.983 51.9888 170.675 51.8462 170.42C51.7037 170.161 51.4866 169.966 51.195 169.833C50.9033 169.697 50.5271 169.629 50.0664 169.629H48.3761V178.27H46.5316ZM51.7915 173.656L54.3121 178.27H52.2539L49.7781 173.656H51.7915ZM58.8288 178.419C58.0632 178.419 57.402 178.26 56.8452 177.942C56.2917 177.62 55.8658 177.166 55.5675 176.579C55.2692 175.989 55.12 175.295 55.12 174.496C55.12 173.711 55.2692 173.021 55.5675 172.428C55.8691 171.832 56.29 171.368 56.8303 171.036C57.3705 170.701 58.0052 170.534 58.7344 170.534C59.205 170.534 59.6491 170.61 60.0668 170.763C60.4877 170.912 60.8589 171.144 61.1804 171.459C61.5052 171.774 61.7604 172.175 61.946 172.662C62.1316 173.146 62.2244 173.722 62.2244 174.392V174.944H55.9652V173.731H60.4993C60.496 173.386 60.4214 173.079 60.2756 172.811C60.1297 172.539 59.9259 172.325 59.6641 172.17C59.4055 172.014 59.1039 171.936 58.7592 171.936C58.3913 171.936 58.0682 172.025 57.7898 172.204C57.5114 172.38 57.2943 172.612 57.1385 172.9C56.986 173.185 56.9081 173.499 56.9048 173.84V174.899C56.9048 175.343 56.986 175.724 57.1484 176.043C57.3108 176.357 57.5379 176.599 57.8295 176.768C58.1212 176.934 58.4626 177.017 58.8537 177.017C59.1155 177.017 59.3525 176.98 59.5646 176.908C59.7768 176.831 59.9607 176.72 60.1165 176.574C60.2723 176.429 60.3899 176.248 60.4695 176.033L62.1499 176.221C62.0438 176.666 61.8416 177.053 61.5433 177.385C61.2483 177.713 60.8705 177.968 60.4098 178.15C59.9491 178.329 59.4221 178.419 58.8288 178.419ZM69.7825 172.652L68.1419 172.831C68.0955 172.665 68.0143 172.509 67.8983 172.364C67.7856 172.218 67.6331 172.1 67.4409 172.011C67.2486 171.921 67.0133 171.876 66.7349 171.876C66.3604 171.876 66.0455 171.958 65.7903 172.12C65.5384 172.282 65.4141 172.493 65.4174 172.751C65.4141 172.973 65.4953 173.154 65.661 173.293C65.8301 173.432 66.1085 173.547 66.4963 173.636L67.7988 173.915C68.5214 174.07 69.0583 174.317 69.4096 174.655C69.7643 174.993 69.9432 175.436 69.9466 175.983C69.9432 176.463 69.8024 176.888 69.524 177.256C69.2489 177.62 68.8661 177.905 68.3755 178.111C67.885 178.316 67.3216 178.419 66.6852 178.419C65.7505 178.419 64.9982 178.223 64.4281 177.832C63.858 177.438 63.5183 176.889 63.4089 176.187L65.1639 176.018C65.2434 176.362 65.4125 176.623 65.671 176.798C65.9295 176.974 66.2659 177.062 66.6802 177.062C67.1078 177.062 67.4508 176.974 67.7093 176.798C67.9712 176.623 68.1021 176.405 68.1021 176.147C68.1021 175.928 68.0176 175.748 67.8485 175.605C67.6828 175.462 67.4243 175.353 67.073 175.277L65.7704 175.003C65.0379 174.851 64.496 174.594 64.1447 174.233C63.7934 173.868 63.6194 173.408 63.6227 172.851C63.6194 172.38 63.747 171.972 64.0055 171.628C64.2673 171.28 64.6303 171.011 65.0943 170.822C65.5616 170.63 66.1002 170.534 66.71 170.534C67.6049 170.534 68.3092 170.725 68.823 171.106C69.34 171.487 69.6599 172.002 69.7825 172.652ZM76.2978 175.058V170.633H78.0975V178.27H76.3525V176.913H76.2729C76.1006 177.34 75.8172 177.69 75.4228 177.962C75.0317 178.233 74.5494 178.369 73.976 178.369C73.4756 178.369 73.0331 178.258 72.6486 178.036C72.2675 177.811 71.9692 177.484 71.7537 177.057C71.5383 176.626 71.4306 176.105 71.4306 175.496V170.633H73.2303V175.217C73.2303 175.701 73.3629 176.086 73.628 176.371C73.8932 176.656 74.2412 176.798 74.6721 176.798C74.9372 176.798 75.1941 176.734 75.4426 176.604C75.6912 176.475 75.8951 176.283 76.0542 176.028C76.2166 175.769 76.2978 175.446 76.2978 175.058ZM81.7479 168.088V178.27H79.9482V168.088H81.7479ZM87.4118 170.633V172.025H83.0218V170.633H87.4118ZM84.1056 168.804H85.9054V175.973C85.9054 176.215 85.9418 176.4 86.0147 176.53C86.091 176.656 86.1904 176.742 86.313 176.788C86.4357 176.835 86.5716 176.858 86.7207 176.858C86.8334 176.858 86.9361 176.85 87.0289 176.833C87.1251 176.816 87.198 176.801 87.2477 176.788L87.551 178.195C87.4548 178.228 87.3173 178.265 87.1383 178.305C86.9627 178.344 86.7472 178.368 86.492 178.374C86.0413 178.387 85.6352 178.319 85.274 178.17C84.9127 178.018 84.626 177.783 84.4139 177.464C84.2051 177.146 84.1023 176.748 84.1056 176.271V168.804ZM96.2575 170.633V172.025H91.7433V170.633H96.2575ZM92.8718 178.27V169.913C92.8718 169.399 92.9779 168.971 93.19 168.63C93.4054 168.288 93.6938 168.033 94.055 167.864C94.4163 167.695 94.8174 167.611 95.2582 167.611C95.5697 167.611 95.8465 167.636 96.0884 167.685C96.3304 167.735 96.5094 167.78 96.6254 167.819L96.2674 169.212C96.1912 169.188 96.0951 169.165 95.979 169.142C95.863 169.115 95.7338 169.102 95.5913 169.102C95.2565 169.102 95.0195 169.183 94.8803 169.346C94.7444 169.505 94.6765 169.734 94.6765 170.032V178.27H92.8718ZM100.711 178.419C99.965 178.419 99.3187 178.255 98.7718 177.927C98.225 177.599 97.8007 177.14 97.4991 176.55C97.2008 175.96 97.0517 175.27 97.0517 174.481C97.0517 173.693 97.2008 173.002 97.4991 172.408C97.8007 171.815 98.225 171.354 98.7718 171.026C99.3187 170.698 99.965 170.534 100.711 170.534C101.456 170.534 102.103 170.698 102.65 171.026C103.197 171.354 103.619 171.815 103.917 172.408C104.219 173.002 104.37 173.693 104.37 174.481C104.37 175.27 104.219 175.96 103.917 176.55C103.619 177.14 103.197 177.599 102.65 177.927C102.103 178.255 101.456 178.419 100.711 178.419ZM100.721 176.977C101.125 176.977 101.463 176.866 101.735 176.644C102.007 176.419 102.209 176.117 102.341 175.739C102.477 175.361 102.545 174.94 102.545 174.476C102.545 174.009 102.477 173.587 102.341 173.209C102.209 172.828 102.007 172.524 101.735 172.299C101.463 172.074 101.125 171.961 100.721 171.961C100.306 171.961 99.9617 172.074 99.6866 172.299C99.4148 172.524 99.211 172.828 99.0751 173.209C98.9425 173.587 98.8762 174.009 98.8762 174.476C98.8762 174.94 98.9425 175.361 99.0751 175.739C99.211 176.117 99.4148 176.419 99.6866 176.644C99.9617 176.866 100.306 176.977 100.721 176.977ZM110.765 175.058V170.633H112.564V178.27H110.819V176.913H110.74C110.567 177.34 110.284 177.69 109.89 177.962C109.498 178.233 109.016 178.369 108.443 178.369C107.942 178.369 107.5 178.258 107.115 178.036C106.734 177.811 106.436 177.484 106.221 177.057C106.005 176.626 105.897 176.105 105.897 175.496V170.633H107.697V175.217C107.697 175.701 107.83 176.086 108.095 176.371C108.36 176.656 108.708 176.798 109.139 176.798C109.404 176.798 109.661 176.734 109.909 176.604C110.158 176.475 110.362 176.283 110.521 176.028C110.683 175.769 110.765 175.446 110.765 175.058ZM116.215 173.795V178.27H114.415V170.633H116.135V171.931H116.225C116.4 171.503 116.68 171.164 117.065 170.912C117.453 170.66 117.932 170.534 118.502 170.534C119.029 170.534 119.488 170.647 119.879 170.872C120.273 171.097 120.578 171.424 120.794 171.851C121.012 172.279 121.12 172.798 121.117 173.408V178.27H119.317V173.686C119.317 173.176 119.184 172.776 118.919 172.488C118.657 172.199 118.294 172.055 117.83 172.055C117.516 172.055 117.235 172.125 116.99 172.264C116.748 172.4 116.558 172.597 116.419 172.856C116.283 173.114 116.215 173.427 116.215 173.795ZM125.78 178.404C125.18 178.404 124.643 178.25 124.169 177.942C123.695 177.633 123.321 177.186 123.046 176.599C122.771 176.013 122.633 175.3 122.633 174.462C122.633 173.613 122.772 172.897 123.051 172.314C123.332 171.727 123.712 171.285 124.189 170.986C124.666 170.685 125.198 170.534 125.785 170.534C126.232 170.534 126.6 170.61 126.889 170.763C127.177 170.912 127.406 171.092 127.575 171.305C127.744 171.513 127.875 171.711 127.968 171.896H128.042V168.088H129.847V178.27H128.077V177.067H127.968C127.875 177.252 127.74 177.449 127.565 177.658C127.389 177.864 127.157 178.039 126.869 178.185C126.58 178.331 126.218 178.404 125.78 178.404ZM126.282 176.927C126.663 176.927 126.988 176.825 127.257 176.619C127.525 176.41 127.729 176.12 127.868 175.749C128.007 175.378 128.077 174.945 128.077 174.452C128.077 173.958 128.007 173.529 127.868 173.164C127.732 172.799 127.53 172.516 127.262 172.314C126.996 172.112 126.67 172.011 126.282 172.011C125.881 172.011 125.546 172.115 125.278 172.324C125.009 172.533 124.807 172.821 124.671 173.189C124.535 173.557 124.468 173.978 124.468 174.452C124.468 174.929 124.535 175.355 124.671 175.729C124.811 176.101 125.014 176.394 125.283 176.609C125.555 176.821 125.888 176.927 126.282 176.927Z" fill="#999999"/>
<defs>
<radialGradient id="paint0_radial_1317_3533" cx="0" cy="0" r="1" gradientUnits="userSpaceOnUse" gradientTransform="translate(82.4744 14.179) rotate(90) scale(3.86704 3.54237)">
<stop stop-color="#B5B5B5"/>
<stop offset="1" stop-color="#F1F1F1" stop-opacity="0"/>
</radialGradient>
<linearGradient id="paint1_linear_1317_3533" x1="138.509" y1="66.384" x2="138.509" y2="72.8291" gradientUnits="userSpaceOnUse">
<stop stop-color="#CDCDCD"/>
<stop offset="1" stop-color="#E0D5D5" stop-opacity="0"/>
</linearGradient>
</defs>
</svg>
