<svg width="110" height="100" viewBox="0 0 110 100" fill="none" xmlns="http://www.w3.org/2000/svg">
<mask id="mask0_7571_7489" style="mask-type:luminance" maskUnits="userSpaceOnUse" x="-22" y="-22" width="153" height="149">
<path d="M130.183 -21.7822H-21.1927V126.733H130.183V-21.7822Z" fill="white"/>
</mask>
<g mask="url(#mask0_7571_7489)">
<g opacity="0.999997">
<path d="M50.5646 97.0501C87.9781 100.765 107.26 91.7355 108.411 69.9616C110.137 37.3008 81.0591 40.8291 72.591 32.2212C64.1224 23.6134 73.6091 35.8462 57.3001 18.0087C46.427 6.11686 31.9387 6.05579 13.8354 17.8259C-0.767027 29.486 -2.34634 44.7775 9.09694 63.6999C20.5402 82.6219 34.3626 93.7388 50.5646 97.0501Z" fill="#F2F2F2"/>
</g>
<mask id="mask1_7571_7489" style="mask-type:luminance" maskUnits="userSpaceOnUse" x="32" y="15" width="55" height="9">
<path d="M86.789 15.369H32.7162L32.6851 23.7624H86.7574L86.789 15.369Z" fill="white"/>
</mask>
<g mask="url(#mask1_7571_7489)">
<path d="M33.4902 15.795C40.4194 15.795 41.2855 18.0183 41.2855 20.2376V22.6588C41.2855 23.0425 41.823 23.3542 42.4843 23.3542L83.3123 23.1615C83.9741 23.1615 84.5111 22.8499 84.5111 22.4663V19.856C84.5111 17.475 81.1842 15.5444 77.0808 15.5444C76.8028 15.5444 33.2001 15.795 33.4902 15.795Z" fill="#CCCCCC"/>
<path d="M33.489 16.2018C33.489 16.5648 34.0325 16.8593 34.7016 16.8593C77.0895 16.8593 77.0973 16.8591 77.1051 16.8593C79.8829 16.8619 82.1335 18.0943 82.1379 19.6156V22.7348H83.3366C83.9979 22.7348 84.5349 22.441 84.5349 22.0787V19.6156C84.5527 17.366 81.2371 15.5346 77.1294 15.5249H77.0813H76.6339C76.5239 15.5285 76.417 15.5381 76.3083 15.5444H34.6998C34.0312 15.5444 33.489 15.8388 33.489 16.2018Z" fill="#CCCCCC"/>
</g>
<mask id="mask2_7571_7489" style="mask-type:luminance" maskUnits="userSpaceOnUse" x="14" y="14" width="74" height="78">
<path d="M87.0823 14.5369H14.6472V91.9173H87.0823V14.5369Z" fill="white"/>
</mask>
<g mask="url(#mask2_7571_7489)">
<path d="M81.0282 18.1424V15.7134H34.0181C27.8584 15.7227 22.8672 20.6607 22.8578 26.754V90.1513C22.8578 90.8638 23.4425 91.4421 24.1626 91.4421H64.4131C70.5649 91.4231 75.5438 86.487 75.548 80.4016V23.7166V23.656C75.5862 20.6871 78.0276 18.1507 81.0282 18.1466C81.0405 18.1466 81.0518 18.1429 81.0636 18.1424H81.0282Z" fill="white"/>
<path d="M33.9926 15.7135C27.8324 15.7232 22.8408 20.6612 22.8314 26.7544V63.8702L50.9383 15.6792L33.9926 15.7135Z" fill="#F2F2F2"/>
<path d="M22.8573 41.7243V27.5724C22.8672 21.4787 27.8584 16.5411 34.0186 16.5314H81.0282M19.5167 89.6868C22.324 89.6868 22.8318 86.7604 22.8318 84.9112C22.8318 69.7881 22.8573 59.0978 22.8573 55.2628M23.103 46.0479V47.7482" stroke="#CCCCCC" stroke-width="2" stroke-miterlimit="10" stroke-linecap="round"/>
<path d="M81.0282 15.675H80.541C76.2742 15.9299 72.9435 19.4254 72.9378 23.6564V23.7772V80.3697C72.9298 84.226 70.297 87.5923 66.5272 88.5667C66.115 88.6717 65.693 88.7235 65.2714 88.7277V88.729H65.2388H65.2054H16.4075C18.3665 90.4256 20.929 91.4569 23.7363 91.4592H23.7538H37.8232H64.4136C64.7003 91.4592 65.1436 91.4592 65.4312 91.4162C65.9382 91.3704 66.4409 91.2871 66.9356 91.1668C71.989 90.0023 75.5678 85.5478 75.5744 80.4127V23.6994V23.6393C75.6116 20.8564 77.7667 18.5528 80.5665 18.3011C80.7212 18.2928 81.0173 18.2937 81.1711 18.3011L81.0282 15.675Z" fill="#CCCCCC"/>
</g>
<mask id="mask3_7571_7489" style="mask-type:luminance" maskUnits="userSpaceOnUse" x="11" y="81" width="56" height="11">
<path d="M66.6055 81.1881H11.8179V91.686H66.6055V81.1881Z" fill="white"/>
</mask>
<g mask="url(#mask3_7571_7489)">
<path d="M82.7014 36.857H82.2025C77.8325 37.0412 74.4226 39.5622 74.4163 42.6142V42.7013V83.5232C74.4081 86.3048 71.7116 88.7334 67.8507 89.4359C66.9741 89.5938 66.0535 89.5938 65.1774 89.4359C61.3043 88.7234 58.6088 86.2781 58.6194 83.4861V82.244C58.6247 81.7297 58.0307 81.3092 57.2927 81.3062H48.8216H42.0111H31.5115H20.5184H13.9479C13.2104 81.3062 12.6115 81.7237 12.6115 82.238V83.5546C12.6057 87.9515 17.7166 91.5187 24.0248 91.5224H24.0417H38.4515H65.6845C65.9786 91.5224 66.4331 91.5224 66.7272 91.4914C67.2469 91.4583 67.7623 91.3986 68.2689 91.3115C73.4446 90.4718 77.1094 87.2587 77.1157 83.5546V42.6456V42.6019C77.1539 40.5948 79.3616 38.9325 82.2295 38.7516C82.3957 38.7453 82.5618 38.7453 82.7285 38.7516C85.8263 38.7549 88.3364 40.5047 88.3417 42.664V47.0923H89.6781C90.4161 47.0923 91.015 46.6751 91.015 46.1608V42.664C91.0343 39.4705 87.3366 36.871 82.7555 36.857H82.7014Z" fill="#CCCCCC"/>
</g>
<mask id="mask4_7571_7489" style="mask-type:luminance" maskUnits="userSpaceOnUse" x="-22" y="-22" width="153" height="149">
<path d="M-21.1927 -21.7822H130.183V126.733H-21.1927V-21.7822Z" fill="white"/>
</mask>
<g mask="url(#mask4_7571_7489)">
<path d="M82.1422 64.5266C83.2085 63.8948 84.5803 64.2299 85.209 65.2743L93.1515 78.468C93.7782 79.5091 93.4258 80.8655 92.3645 81.498L92.36 81.5006C91.2938 82.1319 89.9217 81.7978 89.2927 80.7528L81.3501 67.5595C80.7235 66.518 81.0759 65.1616 82.1371 64.5296L82.1422 64.5266Z" fill="#F5F5F5"/>
<path d="M83.8056 67.2727C91.9784 62.9427 95.0319 52.9447 90.6269 44.941C86.2215 36.9369 76.0256 33.9583 67.853 38.2882C59.6804 42.618 56.6257 52.6168 61.0311 60.621C65.4362 68.6247 75.6329 71.6026 83.8056 67.2727Z" fill="#F5F5F5"/>
<path d="M83.8056 67.2727C91.9784 62.9427 95.0319 52.9447 90.6269 44.941C86.2215 36.9369 76.0256 33.9583 67.853 38.2882C59.6804 42.618 56.6257 52.6168 61.0311 60.621C65.4362 68.6247 75.6329 71.6026 83.8056 67.2727Z" stroke="#F5F5F5" stroke-width="3" stroke-miterlimit="10"/>
</g>
<path d="M33.3711 66.0355H46.1296" stroke="#666666" stroke-width="2" stroke-miterlimit="10" stroke-linecap="round"/>
<path d="M33.3711 54.3763H46.1296" stroke="#666666" stroke-width="2" stroke-miterlimit="10" stroke-linecap="round"/>
<path d="M33.3707 42.717H62.2901" stroke="#666666" stroke-width="2" stroke-miterlimit="10" stroke-linecap="round"/>
<path d="M33.3707 30.2251H65.6317" stroke="#666666" stroke-width="2" stroke-miterlimit="10" stroke-linecap="round"/>
<path d="M86.301 62.2099C87.3673 61.5782 88.7391 61.9133 89.3678 62.9577L97.3103 76.1514C97.937 77.1925 97.5846 78.5489 96.5233 79.1813L96.5188 79.184C95.4526 79.8153 94.0805 79.4811 93.4515 78.4362L85.5089 65.2429C84.8823 64.2014 85.2347 62.845 86.2959 62.213L86.301 62.2099Z" fill="#666666"/>
<path d="M87.9644 64.956C96.1373 60.626 99.1907 50.6281 94.7857 42.6244C90.3804 34.6203 80.1844 31.6417 72.0118 35.9716C63.8393 40.3014 60.7846 50.3002 65.1899 58.3043C69.5951 66.3081 79.7917 69.286 87.9644 64.956Z" fill="white"/>
<path d="M87.9644 64.9561C96.1373 60.626 99.1907 50.6281 94.7857 42.6244C90.3804 34.6203 80.1844 31.6417 72.0118 35.9716C63.8393 40.3014 60.7846 50.3002 65.1899 58.3043C69.5951 66.3081 79.7917 69.286 87.9644 64.9561Z" stroke="#666666" stroke-width="2" stroke-miterlimit="10"/>
</g>
</svg>
