<svg width="200" height="186" viewBox="0 0 200 186" fill="none" xmlns="http://www.w3.org/2000/svg">
<g id="3">
<g id="Seeker">
<path id="Path 12" fill-rule="evenodd" clip-rule="evenodd" d="M94.8136 97.3943C89.8644 97.9652 86.0666 97.8968 83.4202 97.189C80.7738 96.4813 78.6867 94.9758 77.159 92.6727C75.4936 89.1502 74.5698 87.1316 74.3876 86.6167C73.4945 84.0935 73.3956 81.6135 73.5665 79.9449C73.7896 77.7656 74.9871 74.9258 77.159 71.4255C77.4683 68.9919 77.9815 66.8363 78.6986 64.9589C79.4157 63.0815 80.8527 60.3785 83.0096 56.8501L83.3176 45.2513C84.2276 42.5964 85.083 40.7146 85.8836 39.6059C86.6843 38.4973 87.6081 37.9156 88.655 37.861C89.5383 37.7771 90.3595 37.9824 91.1184 38.4769C91.8774 38.9713 93.3144 40.2373 95.4294 42.2747C97.1761 39.2264 99.1606 36.8998 101.383 35.2949C103.605 33.69 106.547 32.4583 110.21 31.5997L110.723 30.5733L110.785 24.5358L109.081 9.83928H106.823L110.313 4.7071C110.624 3.57626 110.932 2.75511 111.236 2.24365C111.541 1.7322 112.11 1.15057 112.942 0.498789C112.958 0.309799 113.642 0.207077 114.997 0.190623C116.351 0.174169 118.485 0.242651 121.398 0.396067C122.642 0.681701 123.497 1.05806 123.964 1.52515C124.431 1.99223 124.842 2.98446 125.196 4.50181L130.2 9.8465L127.044 10.0446L126.736 19.7957C126.297 21.468 125.886 22.5971 125.504 23.183C125.122 23.7688 124.506 24.2136 123.656 24.5173L118.627 24.8253L118.011 30.7786L118.422 31.5997C120.99 32.334 122.735 32.9156 123.656 33.3447C125.868 34.375 127.869 35.8669 129.404 38.4769C130.479 40.3039 131.591 42.8281 133.099 45.4566C134.427 47.7709 136.856 51.8424 140.387 57.6712L143.877 60.7505L145.622 64.2404L149.83 67.4224L151.781 61.0585C147.812 55.0367 145.827 51.2047 145.827 49.5624C145.827 48.8759 146.242 48.2289 146.648 47.8174C147.214 47.2445 147.992 46.8923 149.317 46.9963C150.201 47.0656 151.056 47.613 151.883 48.6386L163.687 80.3555C162.512 84.2057 161.486 87.0797 160.608 88.9775C159.73 90.8753 158.43 92.7571 156.707 94.6229C154.226 96.0149 152.139 96.8361 150.446 97.0864C148.754 97.3367 145.982 97.0972 142.132 96.3679C140.784 95.7507 139.894 95.1691 139.463 94.6229C137.866 92.5981 137.198 90.0298 136.384 88.6696C135.241 86.7591 134.556 84.9799 134.331 83.3321L128.994 65.9854L105.899 65.2668L103.744 82.8189C102.565 87.5892 101.299 91.0791 99.9457 93.2886C98.5921 95.498 96.8814 96.8666 94.8136 97.3943Z" fill="white"/>
<path id="Combined Shape" fill-rule="evenodd" clip-rule="evenodd" d="M96.4042 101.176C95.9862 101.1 95.678 101.063 95.4797 101.064C94.7187 101.067 94.0973 101.028 93.7335 100.447C93.2274 99.6402 93.3643 98.6815 94.1443 97.5712L96.3015 96.8521H97.3287L104.827 97.1603L107.19 96.8521L115.511 96.5439C116.401 96.9548 116.709 97.7424 116.435 98.9066C116.161 100.071 115.408 100.79 114.175 101.064L111.71 101.176L95.0688 177.48H84.3857C86.2146 165.492 87.6869 156.477 88.8028 150.434C89.9187 144.391 92.4525 127.971 96.4042 101.176ZM122.496 101.176C122.479 100.933 121.829 100.896 120.544 101.064C119.448 100.516 119.003 99.6599 119.209 98.4957C119.414 97.3315 119.928 96.7151 120.749 96.6467L122.29 96.8521H127.015L131.741 97.1603L136.979 96.6467C138.623 96.7836 139.445 97.5369 139.445 98.9066C139.445 99.685 139.182 100.089 138.828 100.447C138.649 100.629 138.307 100.834 137.801 101.064L136.158 101.176L140.369 177.583H129.275C127.781 163.842 126.822 154.21 126.399 148.686C125.895 142.106 123.045 109.402 122.496 101.176Z" fill="#263238"/>
<path id="Combined Shape_2" fill-rule="evenodd" clip-rule="evenodd" d="M96.4042 101.073H111.71L95.0688 177.377H84.3857C86.2146 165.39 87.6869 156.374 88.8028 150.331C89.9187 144.288 92.4525 127.868 96.4042 101.073ZM122.496 101.073H136.158L140.369 177.48H129.275C127.781 163.739 126.822 154.107 126.399 148.583C125.895 142.003 123.045 109.299 122.496 101.073Z" stroke="#263E4B" stroke-width="0.308166"/>
<path id="Path 218" fill-rule="evenodd" clip-rule="evenodd" d="M105.958 32.9954L94.3767 33.0498C88.5987 33.077 83.848 37.6126 83.5535 43.3832L83.3594 47.1867C83.5403 45.2309 83.78 43.8597 84.0784 43.0733C84.5522 41.8248 85.0994 41.1067 85.722 40.2967C86.6634 39.0719 87.7296 38.0385 88.5982 37.8286C90.5842 37.3487 92.8098 38.8913 95.2751 42.4562C95.6881 41.6576 96.0305 41.0406 96.3024 40.6052C96.8452 39.7359 97.423 38.7972 98.4595 37.8286C100.514 35.909 103.014 34.2979 105.958 32.9954Z" fill="#FF725E"/>
<path id="Path 233" fill-rule="evenodd" clip-rule="evenodd" d="M96.5068 96.6508C97.5635 97.0363 99.5494 97.2077 102.465 97.165C104.052 97.1417 106.91 96.6678 109.347 96.5479C110.706 96.4811 112.761 96.4811 115.51 96.5479L117.873 90.275H120.133L120.852 96.5479C123.256 96.6983 124.968 96.8011 125.988 96.8564C128.182 96.9754 130.007 97.0621 131.432 97.0621C133.852 97.0621 135.633 96.8907 136.774 96.5479L131.535 67.2397L107.19 68.1653C106.872 72.6282 105.708 77.53 103.697 82.8708C103.269 84.009 103.201 85.4478 102.773 86.8814C102.121 89.0659 101.404 91.1788 100.616 92.6402C99.8683 94.0265 98.4986 95.3634 96.5068 96.6508Z" fill="#FF725E"/>
<path id="Combined Shape_3" d="M136.612 96.6163L134.26 82.8969C134.246 82.813 134.302 82.7332 134.386 82.7188C134.47 82.7044 134.549 82.7608 134.564 82.8447L136.904 96.4966H137.237C138.541 96.4966 139.599 97.5555 139.599 98.8618C139.599 100.168 138.541 101.227 137.237 101.227H121.028C119.871 101.227 118.934 100.288 118.934 99.1302C118.934 99.0333 118.94 98.9365 118.954 98.8405L119.077 97.9575C119.187 97.1628 119.803 96.5411 120.582 96.413L119.994 90.4293H117.98L115.722 96.4247C116.352 96.5705 116.798 97.159 116.747 97.8241C116.743 97.8815 116.735 97.9385 116.723 97.9948L116.535 98.8934C116.251 100.253 115.053 101.227 113.665 101.227H94.8735C94.0076 101.227 93.3057 100.524 93.3057 99.6574C93.3057 99.4933 93.3313 99.3303 93.3818 99.1742C93.5188 98.7502 93.6898 98.2025 93.8946 97.5313C93.9195 97.4498 94.0056 97.4039 94.087 97.4288C94.1684 97.4537 94.2142 97.5399 94.1894 97.6214C93.9841 98.2941 93.8126 98.8434 93.675 99.2692C93.6345 99.3946 93.6138 99.5256 93.6138 99.6574C93.6138 100.354 94.1778 100.919 94.8735 100.919H113.665C114.907 100.919 115.979 100.047 116.233 98.8302L116.421 97.9316C116.43 97.8883 116.436 97.8445 116.44 97.8005C116.483 97.2384 116.064 96.7476 115.503 96.7021C114.229 96.6771 113.327 96.6643 112.799 96.6637C111.368 96.6621 107.336 96.8963 106.492 97.0094C104.577 97.266 103.562 97.3029 101.906 97.2471C101.852 97.2453 101.852 97.2453 101.798 97.2434C101.206 97.2234 100.923 97.2164 100.545 97.2164C99.1749 97.2164 98.1512 97.182 97.4719 97.1128C96.6747 97.0316 96.3137 96.918 96.3548 96.6291L96.6599 96.6725C96.663 96.6502 96.6568 96.6334 96.6528 96.626C96.6744 96.6426 96.7188 96.6631 96.784 96.6836C96.9353 96.7313 97.1762 96.7726 97.5031 96.8059C98.1698 96.8738 99.1844 96.9079 100.545 96.9079C100.927 96.9079 101.213 96.9149 101.808 96.9351C101.862 96.9369 101.862 96.9369 101.916 96.9388C103.557 96.9941 104.554 96.9577 106.451 96.7036C107.309 96.5886 111.356 96.3536 112.799 96.3552C113.315 96.3558 114.184 96.368 115.405 96.3916L117.729 90.2206C117.752 90.1605 117.809 90.1208 117.874 90.1208H120.133H121.469C121.554 90.1208 121.623 90.1898 121.623 90.275C121.623 90.3602 121.554 90.4293 121.469 90.4293H120.303L120.893 96.43C121.573 96.5424 122.933 96.5994 124.961 96.5994C125.724 96.5994 129.451 96.8077 130.523 96.9086C131.744 97.0235 133.776 96.9264 136.612 96.6163ZM136.78 96.8051L136.791 96.907C133.86 97.2318 131.763 97.3351 130.494 97.2157C129.431 97.1157 125.713 96.9079 124.961 96.9079C122.792 96.9079 121.382 96.8434 120.72 96.7122L120.721 96.7054C120.032 96.777 119.478 97.31 119.382 98.0001L119.259 98.8831C119.247 98.965 119.242 99.0476 119.242 99.1302C119.242 100.118 120.041 100.919 121.028 100.919H137.237C138.371 100.919 139.291 99.9977 139.291 98.8618C139.291 97.7259 138.371 96.8051 137.237 96.8051H136.78Z" fill="#263E4B"/>
<path id="Combined Shape_4" d="M118.842 24.8201L118.244 31.1405C123.113 32.7972 126.226 34.236 127.596 35.4692C129.372 37.0683 133.924 46.3106 136.257 52.3761C136.962 54.208 138.054 55.3682 140.704 57.5158L140.927 57.6963C143.589 59.8531 144.677 61.0176 145.343 62.8685C146.371 65.7259 148.429 66.4126 151.604 64.9403C151.682 64.9045 151.773 64.9382 151.809 65.0155C151.845 65.0928 151.811 65.1845 151.734 65.2203C148.403 66.7645 146.146 66.0115 145.053 62.973C144.412 61.193 143.352 60.0581 140.733 57.9361L140.51 57.7556C137.819 55.5748 136.7 54.386 135.97 52.4869C133.657 46.4746 129.114 37.251 127.39 35.6986C126.051 34.4928 122.926 33.0536 118.03 31.3934C117.962 31.3705 117.919 31.304 117.926 31.2328L118.532 24.8201H116.744C116.659 24.8201 116.59 24.751 116.59 24.6659C116.59 24.5807 116.659 24.5116 116.744 24.5116H118.7C118.701 24.5116 118.702 24.5116 118.703 24.5116H122.125C124.245 24.5116 125.475 23.6485 126.117 21.9045C126.633 20.503 126.759 18.883 126.759 15.4201V13.0614C126.759 13.0288 126.759 13.0023 126.759 12.9423C126.761 11.7957 126.708 11.135 126.462 10.1277C126.457 10.1217 126.45 10.1143 126.441 10.1058C126.417 10.0817 126.384 10.0503 126.341 10.0118H111.65C111.565 10.0118 111.496 9.94269 111.496 9.8575C111.496 9.77231 111.565 9.70325 111.65 9.70325H126.4C126.437 9.70325 126.474 9.71703 126.502 9.74201C126.684 9.90323 126.738 9.95739 126.755 10.0263C127.013 11.0784 127.069 11.7628 127.067 12.9427C127.067 13.0027 127.067 13.029 127.067 13.0614V15.4201C127.067 18.9221 126.94 20.5623 126.407 22.0112C125.72 23.8762 124.375 24.8201 122.125 24.8201H118.842ZM163.848 80.1536L164.144 80.2407C161.563 89.0161 158.822 94.1316 155.887 95.5959C151.268 97.9011 145.619 98.0784 141.021 95.8208C140.413 95.5224 139.936 95.1057 139.452 94.4653C139.107 94.0087 138.766 93.4594 138.223 92.5059C138.081 92.2564 137.539 91.2958 137.459 91.1549C137.119 90.5543 136.824 90.0431 136.511 89.5103C136.081 88.7805 135.472 87.1693 134.676 84.6659L134.97 84.5723C135.758 87.0534 136.363 88.6508 136.776 89.3537C137.091 89.8881 137.386 90.4007 137.727 91.0027C137.807 91.1441 138.349 92.1042 138.491 92.353C139.028 93.2955 139.363 93.8361 139.698 94.2791C140.155 94.8831 140.595 95.2681 141.157 95.5438C145.665 97.7576 151.213 97.5835 155.75 95.3198C158.58 93.9074 161.291 88.849 163.848 80.1536Z" fill="#263E4B"/>
<path id="Combined Shape_5" fill-rule="evenodd" clip-rule="evenodd" d="M121.572 32.5841L123.421 33.304C124.722 37.2803 125.715 40.6739 126.399 43.4847C127.084 46.2956 127.529 50.4776 127.735 56.0307L125.167 55.3108C125.372 50.8546 124.996 46.9126 124.037 43.4847C123.619 41.9917 122.797 38.3582 121.572 32.5841ZM105.855 32.9955L107.601 32.2756C108.012 35.315 108.218 37.7145 108.218 39.4741C108.218 41.2338 108.218 43.0163 108.218 44.8216L105.547 48.6265C105.958 47.3925 106.163 44.6159 106.163 40.2968C106.163 35.9777 106.06 33.5439 105.855 32.9955Z" fill="#FF725E"/>
<path id="Combined Shape_6" d="M121.524 32.6162L121.464 32.3368L123.647 33.1866L123.67 33.2559C124.972 37.2358 125.966 40.633 126.652 43.4482C127.34 46.2711 127.786 50.4623 127.992 56.025L128 56.2362L125.11 55.4263L125.116 55.3037C125.321 50.8631 124.945 46.9373 123.991 43.5263C123.573 42.0289 122.751 38.3938 121.524 32.6162ZM124.288 43.4431C125.243 46.8563 125.623 50.7737 125.429 55.1953L127.676 55.8251C127.467 50.3866 127.026 46.2843 126.353 43.5213C125.673 40.731 124.689 37.3642 123.4 33.4213L121.885 32.8314C123.077 38.4399 123.879 41.9787 124.288 43.4431ZM105.814 33.0496L105.761 32.9097L107.83 32.0569L107.857 32.2549C108.269 35.3006 108.475 37.7064 108.475 39.4741V44.8704L105.171 49.5771L105.504 48.5777C105.907 47.3652 106.112 44.5986 106.112 40.2968C106.112 36.0118 106.009 33.5711 105.814 33.0496ZM106.42 40.2968C106.42 43.8628 106.281 46.3807 105.999 47.8611L108.167 44.7728V39.4741C108.167 37.7609 107.97 35.4338 107.578 32.4944L106.145 33.0852C106.331 33.8574 106.42 36.2411 106.42 40.2968Z" fill="#263E4B"/>
<path id="Combined Shape_7" d="M118.65 33.0393L118.946 32.9517L132.919 80.1681C133.718 84.3414 136.596 86.4187 141.602 86.4187C146.611 86.4187 150.728 83.0719 153.96 76.3489L154.237 76.4827C150.959 83.3025 146.746 86.7272 141.602 86.7272C136.456 86.7272 133.445 84.5539 132.62 80.2409L118.65 33.0393ZM126.247 71.2269L126.552 71.2739C124.966 81.5574 121.985 86.7272 117.565 86.7272C113.989 86.7272 111.61 75.5889 110.632 54.2896C110.447 50.2735 110.344 43.4159 110.323 33.7157L110.631 33.715C110.653 43.411 110.755 50.265 110.939 54.2754C111.905 75.2974 114.281 86.4187 117.565 86.4187C121.774 86.4187 124.682 81.3734 126.247 71.2269Z" fill="#263E4B"/>
<path id="Combined Shape_8" fill-rule="evenodd" clip-rule="evenodd" d="M141.598 66.1684L152.361 65.0372L152.998 71.0943L142.234 72.2256L141.598 66.1684ZM131.614 55.3098L130.603 45.6856C131.009 44.6449 132.078 44.0336 133.811 43.8514C135.544 43.6693 136.717 44.045 137.33 44.9785L138.342 54.6027L131.614 55.3098ZM159.868 52.3402L153.141 53.0472L152.13 43.423C152.535 42.3824 153.605 41.771 155.338 41.5889C157.07 41.4068 158.243 41.7825 158.857 42.716L159.868 52.3402Z" fill="#263E4B"/>
<path id="Combined Shape_9" fill-rule="evenodd" clip-rule="evenodd" d="M130.77 65.9963L129.206 51.1226C129.861 49.5114 131.575 48.5601 134.347 48.2687C137.12 47.9773 138.994 48.5515 139.97 49.9913L141.533 64.865L130.77 65.9963ZM163.06 62.6025L152.296 63.7338L150.733 48.8601C151.388 47.2489 153.102 46.2976 155.874 46.0062C158.647 45.7148 160.521 46.289 161.496 47.7288L163.06 62.6025Z" fill="white"/>
<path id="Combined Shape_10" fill-rule="evenodd" clip-rule="evenodd" d="M130.701 66.0377L129.138 51.164C129.793 49.5528 131.507 48.6015 134.279 48.3101C137.052 48.0187 138.926 48.5929 139.901 50.0327L141.465 64.9064L130.701 66.0377ZM162.991 62.6439L152.228 63.7752L150.665 48.9014C151.32 47.2902 153.033 46.3389 155.806 46.0475C158.578 45.7562 160.452 46.3304 161.428 47.7702L162.991 62.6439Z" fill="white" stroke="#263E4B" stroke-width="0.308166" stroke-linecap="round" stroke-linejoin="round"/>
<path id="Combined Shape_11" fill-rule="evenodd" clip-rule="evenodd" d="M130.437 82.4815L128.629 65.2746C129.565 63.392 131.938 62.2503 135.75 61.8497C139.562 61.449 142.122 62.0722 143.428 63.7191L145.237 80.926L130.437 82.4815ZM166.764 78.6634L151.964 80.2189L150.156 63.0121C151.091 61.1294 153.465 59.9878 157.277 59.5871C161.089 59.1865 163.649 59.8096 164.955 61.4566L166.764 78.6634Z" fill="white"/>
<path id="Combined Shape_12" d="M130.406 82.6399C130.321 82.6488 130.246 82.5873 130.237 82.5026L128.428 65.2957C128.425 65.2666 128.43 65.2371 128.443 65.2109C129.408 63.2708 131.828 62.1069 135.687 61.7013C139.546 61.2957 142.155 61.931 143.502 63.6282C143.52 63.6512 143.531 63.6789 143.534 63.708L145.343 80.9149C145.352 80.9996 145.29 81.0755 145.206 81.0844L130.406 82.6399ZM145.02 80.7937L143.233 63.7854C141.957 62.2145 139.457 61.6152 135.719 62.0081C131.981 62.4009 129.66 63.5069 128.739 65.3086L130.527 82.3169L145.02 80.7937ZM166.869 78.6523C166.878 78.737 166.817 78.8129 166.732 78.8218L151.933 80.3773C151.848 80.3862 151.772 80.3247 151.763 80.24L149.955 63.0332C149.952 63.004 149.957 62.9746 149.97 62.9483C150.934 61.0082 153.355 59.8443 157.214 59.4387C161.073 59.0331 163.682 59.6684 165.028 61.3657C165.047 61.3886 165.058 61.4163 165.061 61.4455L166.869 78.6523ZM166.547 78.5311L164.759 61.5228C163.484 59.952 160.983 59.3527 157.246 59.7455C153.508 60.1384 151.187 61.2444 150.266 63.0461L152.054 80.0544L166.547 78.5311Z" fill="#263E4B"/>
<path id="Combined Shape_13" fill-rule="evenodd" clip-rule="evenodd" d="M138.055 84.2325C133.969 84.6621 130.537 83.8803 130.39 82.4865C130.244 81.0926 133.438 79.6144 137.525 79.1849C141.612 78.7554 145.043 79.5371 145.19 80.931C145.336 82.3248 142.142 83.803 138.055 84.2325ZM159.582 81.97C155.495 82.3995 152.063 81.6178 151.917 80.2239C151.77 78.83 154.965 77.3519 159.052 76.9223C163.138 76.4928 166.57 77.2745 166.717 78.6684C166.863 80.0623 163.669 81.5404 159.582 81.97Z" fill="#263E4B"/>
<path id="Oval" d="M126.752 68.9045C128.045 68.7687 128.982 67.6107 128.846 66.3179C128.71 65.0252 127.553 64.0873 126.26 64.2231C124.968 64.3589 124.031 65.5169 124.167 66.8097C124.303 68.1025 125.46 69.0403 126.752 68.9045ZM126.72 68.5977C125.597 68.7157 124.591 67.9008 124.473 66.7775C124.355 65.6542 125.17 64.6479 126.293 64.5299C127.416 64.4119 128.421 65.2269 128.54 66.3501C128.658 67.4734 127.843 68.4797 126.72 68.5977Z" fill="#263E4B"/>
<path id="Combined Shape_14" d="M77.4297 71.4498L79.5055 70.6941C79.5855 70.665 79.6739 70.7063 79.703 70.7863C79.7321 70.8664 79.6908 70.9549 79.6109 70.984L77.7652 71.6559L79.6366 72.763C79.7098 72.8063 79.7341 72.9009 79.6908 72.9742C79.6476 73.0476 79.5531 73.0719 79.4798 73.0286L77.3902 71.7924L77.351 71.8067C77.3328 71.8133 77.3142 71.8163 77.2959 71.816C73.5232 76.8455 72.6506 81.8072 74.6673 86.7199C76.6333 91.5091 77.5169 93.2184 79.0063 94.6937C80.7235 96.3946 83.0881 97.2786 87.1766 97.7315C94.8867 98.5857 99.3898 96.0278 101.395 90.3266C102.648 86.7644 103.365 84.27 103.545 82.8514C103.556 82.7669 103.633 82.7071 103.717 82.7178C103.802 82.7285 103.861 82.8057 103.851 82.8902C103.667 84.3369 102.946 86.8472 101.686 90.4291C99.6309 96.2713 94.9899 98.9076 87.1427 98.0382C82.9915 97.5782 80.5643 96.6709 78.7896 94.9131C77.2594 93.3973 76.3651 91.6674 74.3823 86.8372C72.3108 81.7909 73.2245 76.6879 77.1124 71.5472C77.5308 66.3275 79.4235 61.4422 82.7884 56.8938C86.143 52.3593 89.6002 48.9503 93.161 46.6677C95.5676 40.2841 99.062 36.009 103.646 33.8519C105.929 32.7771 107.643 32.0627 108.791 31.708C109.559 31.4704 110.106 31.3829 110.412 31.4794L110.94 21.778C110.945 21.6929 111.017 21.6277 111.102 21.6319C111.187 21.637 111.252 21.7097 111.248 21.7948L110.698 31.8869C110.687 32.0868 110.39 32.0787 110.39 31.8785C110.39 31.6897 109.915 31.6833 108.882 32.0027C107.751 32.3523 106.049 33.062 103.777 34.1311C99.2612 36.2562 95.8122 40.4841 93.4314 46.8244C93.4196 46.8556 93.3981 46.8822 93.37 46.9001C89.8283 49.1608 86.3832 52.5529 83.036 57.0774C79.731 61.5448 77.8629 66.3347 77.4297 71.4498Z" fill="#263E4B"/>
<path id="Path 112" fill-rule="evenodd" clip-rule="evenodd" d="M110.58 30.6302L109.137 34.2847C109.054 34.4958 109.157 34.7345 109.368 34.8178C109.452 34.8507 109.543 34.8555 109.629 34.8316L115.793 33.1215L119.872 34.5745C120.086 34.6507 120.321 34.5391 120.397 34.3253C120.443 34.1975 120.422 34.0554 120.343 33.9457L118.079 30.8359C117.659 31.2016 116.76 31.3844 115.381 31.3844C114.002 31.3844 112.402 31.133 110.58 30.6302Z" fill="white"/>
<path id="Combined Shape_15" d="M115.697 33.2338L109.773 34.8773C109.654 34.9101 109.528 34.9034 109.414 34.8582C109.124 34.7434 108.982 34.4148 109.096 34.1243L110.539 30.4706C110.568 30.3973 110.648 30.3577 110.723 30.3786C112.533 30.8779 114.119 31.1272 115.483 31.1272C116.827 31.1272 117.697 30.9504 118.08 30.6166C118.148 30.5573 118.253 30.5691 118.306 30.6422L120.568 33.7508C120.678 33.9018 120.707 34.0974 120.644 34.2735C120.539 34.5678 120.216 34.7215 119.922 34.6167L116.005 33.2215C116.012 33.28 116.02 33.3487 116.029 33.4276C116.068 33.7622 116.126 34.2809 116.203 34.9839C116.357 36.3894 116.588 38.532 116.896 41.4115C116.905 41.4962 116.844 41.5722 116.76 41.5813C116.675 41.5904 116.599 41.5291 116.59 41.4444C116.282 38.5651 116.051 36.4228 115.897 35.0175C115.82 34.3151 115.762 33.7968 115.723 33.463C115.713 33.3732 115.704 33.2967 115.697 33.2338ZM115.693 31.4343C115.727 31.5665 115.759 31.7137 115.79 31.8745C115.84 32.1366 115.88 32.3887 115.926 32.7213L115.946 32.8622C115.946 32.866 115.947 32.8698 115.947 32.8734L120.026 34.3261C120.159 34.3737 120.306 34.3038 120.354 34.1701C120.382 34.09 120.369 34.0011 120.319 33.9325L118.149 30.9507C117.684 31.2609 116.868 31.4179 115.693 31.4343ZM115.644 32.9282C115.643 32.921 115.642 32.9134 115.641 32.9053L115.621 32.7641C115.575 32.4363 115.536 32.1886 115.487 31.9329C115.451 31.7458 115.414 31.5789 115.374 31.4352C114.04 31.4227 112.507 31.1816 110.775 30.7125L109.383 34.2377C109.331 34.3697 109.395 34.5191 109.527 34.5713C109.579 34.5919 109.637 34.5949 109.69 34.58L115.644 32.9282Z" fill="#263E4B"/>
<path id="Path 114" fill-rule="evenodd" clip-rule="evenodd" d="M94.6582 65.9334C103.183 52.3311 108.079 44.8241 109.347 43.4123C110.338 42.3105 112.033 42.2199 113.135 43.2099C113.96 43.9509 114.244 45.1228 113.849 46.1589L110.786 54.2101" fill="#FFBE9D"/>
<path id="Path 114_2" d="M94.7532 66.0877C103.268 52.5011 108.167 44.9893 109.427 43.5879C110.36 42.5488 111.958 42.4642 112.996 43.3989C113.773 44.0983 114.04 45.2039 113.668 46.1811L110.606 54.2276L110.894 54.3374L113.956 46.291C114.373 45.1946 114.074 43.9542 113.202 43.1695C112.038 42.1209 110.245 42.2158 109.197 43.3816C107.92 44.8037 103.026 52.3059 94.4922 65.9238L94.7532 66.0877Z" fill="#263E4B"/>
<path id="Combined Shape_16" fill-rule="evenodd" clip-rule="evenodd" d="M113.699 15.9306C113.459 15.8598 113.205 15.8218 112.943 15.8218C111.468 15.8218 110.272 17.0188 110.272 18.4955C110.272 19.7502 111.135 20.803 112.299 21.0912L112.179 23.579C112.146 24.2425 111.594 24.7611 110.93 24.7518L107.76 24.7073C107.557 24.7045 107.355 24.6742 107.16 24.6173C105.961 24.2682 105.273 23.0138 105.622 21.8155L109.106 9.85731H109.518L109.52 9.85498L110.003 9.85731H111.813L111.813 9.86601L116.11 9.88669C115.614 12.1688 115.169 13.6937 114.774 14.4616C114.492 15.0099 114.133 15.4996 113.699 15.9306ZM128.299 9.85731C128.703 11.5712 128.077 12.4282 126.421 12.4282C124.765 12.4282 122.28 11.5712 118.967 9.85731H128.299Z" fill="#263E4B"/>
<path id="Path 113" fill-rule="evenodd" clip-rule="evenodd" d="M90.2794 69.5231L104.227 57.095C106.258 55.2857 108.892 54.3018 111.611 54.3368L127.493 54.5413C129.663 54.5692 131.436 56.2802 131.542 58.4473C131.641 60.4984 130.059 62.242 128.008 62.3417C127.962 62.344 127.915 62.3454 127.868 62.3459L114.422 62.493C113.599 62.502 112.94 63.1762 112.949 63.9988C112.949 63.9993 112.949 63.9999 112.949 64.0004C112.959 64.8333 113.625 65.5096 114.457 65.5324L128.337 65.9127C130.228 65.9646 131.737 67.5074 131.747 69.3993C131.757 71.2637 130.253 72.783 128.389 72.7928C128.383 72.7929 128.377 72.7929 128.371 72.7929H115.141C114.327 72.7929 113.668 73.4525 113.668 74.2663C113.668 74.2722 113.668 74.2781 113.668 74.284C113.679 75.1787 114.249 75.9707 115.095 76.2642L123.566 79.2052C125.032 79.7141 125.808 81.315 125.299 82.781C125.276 82.8461 125.251 82.9104 125.224 82.9736C124.546 84.5441 122.779 85.3343 121.156 84.7928L107.384 80.1971L99.933 85.1698C96.1118 87.7201 90.9467 86.6898 88.3965 82.8686C88.1566 82.5093 87.9452 82.1318 87.764 81.7396C87.115 80.3349 86.9126 78.3225 87.1567 75.7022C87.3785 73.3217 88.4944 71.1137 90.2794 69.5231Z" fill="#FFBE9D"/>
<path id="Combined Shape_17" d="M89.7248 84.1289L92.3229 82.4569C91.4314 81.6047 90.7115 80.5579 90.1035 79.3405C89.2223 77.5761 89.512 74.2022 90.956 69.1971L90.464 69.6355C88.7052 71.2027 87.6059 73.3795 87.3881 75.7266C87.1477 78.3172 87.3479 80.3007 87.9827 81.6748C88.1597 82.0578 88.366 82.4265 88.5998 82.7776C88.9324 83.2772 89.3105 83.7282 89.7248 84.1289ZM89.9579 84.3457C92.6655 86.766 96.7611 87.154 99.9218 85.0445L100.641 84.5647C97.7844 85.081 95.461 84.6595 93.5993 83.4634C93.2283 83.225 92.8818 82.9611 92.5572 82.6729L89.9579 84.3457ZM91.1201 68.6378C91.1204 68.637 91.1206 68.6361 91.1209 68.6353C91.1384 68.5765 91.1878 68.536 91.2445 68.527L104.205 56.9788C106.264 55.1445 108.933 54.1471 111.689 54.1826L127.579 54.3871C129.827 54.416 131.665 56.1913 131.774 58.4398C131.878 60.5758 130.233 62.3917 128.099 62.4957C128.05 62.4981 128.002 62.4995 127.953 62.5001L114.501 62.6472C113.764 62.6553 113.174 63.2596 113.182 63.9971L113.182 63.9986C113.191 64.7486 113.79 65.3576 114.539 65.3781L128.424 65.7587C130.396 65.8127 131.97 67.4234 131.98 69.3985C131.99 71.348 130.42 72.9368 128.473 72.9471L128.454 72.9471H115.218C114.491 72.9471 113.901 73.5377 113.901 74.2663C113.901 74.2742 113.901 74.2742 113.901 74.2821C113.911 75.1118 114.439 75.8461 115.223 76.1179L123.698 79.0602C125.242 79.5963 126.06 81.2839 125.524 82.8297C125.5 82.8991 125.474 82.9675 125.444 83.0348C124.734 84.679 122.886 85.5064 121.188 84.9399L107.486 80.3672L100.093 85.3012C96.1993 87.8997 90.939 86.8465 88.3434 82.9487C88.1007 82.5844 87.8866 82.2018 87.703 81.8043C87.0416 80.3727 86.8363 78.338 87.0813 75.698C87.3063 73.2732 88.442 71.0242 90.2591 69.4051L91.1201 68.6378ZM91.3905 68.81C89.8482 74.0046 89.5172 77.4767 90.3791 79.2025C91.231 80.9081 92.3038 82.2644 93.7657 83.2037C95.6689 84.4265 98.0783 84.8107 101.097 84.1597C101.14 84.1506 101.181 84.1597 101.215 84.1817L107.44 80.0269L121.286 84.6472C122.832 85.1631 124.515 84.4097 125.162 82.9124C125.188 82.8521 125.211 82.7908 125.233 82.7286C125.713 81.3438 124.98 79.8319 123.597 79.3517L115.122 76.4094C114.216 76.095 113.604 75.2456 113.593 74.2858C113.593 74.2761 113.593 74.2761 113.593 74.2663C113.593 73.3673 114.32 72.6386 115.218 72.6386H128.454L128.471 72.6386C130.248 72.6292 131.681 71.1793 131.672 69.4001C131.662 67.5915 130.221 66.1165 128.415 66.067L114.53 65.6865C113.616 65.6615 112.885 64.9179 112.874 64.0023L112.874 64.0005C112.864 63.0926 113.591 62.3487 114.498 62.3388L127.95 62.1916C127.995 62.1911 128.039 62.1897 128.084 62.1876C130.048 62.0919 131.562 60.4206 131.467 58.4548C131.365 56.3691 129.66 54.7224 127.575 54.6956L111.685 54.491C109.006 54.4566 106.411 55.4261 104.41 57.2092L91.3905 68.81Z" fill="#263E4B"/>
<path id="Path 107" fill-rule="evenodd" clip-rule="evenodd" d="M159.8 58.1319L159.802 58.5501C159.812 60.6828 161.543 62.4064 163.676 62.4064H166.599C164.184 62.5921 162.609 63.3806 161.874 64.7716C160.717 66.9626 161.555 69.6767 163.746 70.8338C164.392 71.1749 165.111 71.3531 165.841 71.3531H167.113L166.766 71.5236C164.321 72.7231 163.312 75.6769 164.512 78.1211C164.584 78.2685 164.664 78.4122 164.75 78.5516C165.918 80.1783 168.184 80.5502 169.81 79.3823C169.919 79.3043 170.023 79.2203 170.123 79.1307L172.39 77.0877C173.642 75.9594 174.232 74.2696 173.952 72.6074C173.932 72.4863 173.912 72.3767 173.893 72.2786C173.774 71.6791 173.364 70.7879 172.66 69.6049C173.139 68.6451 173.276 67.4796 173.071 66.1085C172.865 64.7374 172.283 63.5376 171.325 62.5092C171.791 61.3122 171.86 59.9753 171.53 58.4986C171.399 57.9138 171.218 57.4155 170.987 57.0036C170.563 56.2481 169.799 55.7452 168.937 55.6548L163.203 55.0527C161.511 54.875 159.994 56.1031 159.817 57.7958C159.805 57.9074 159.799 58.0196 159.8 58.1319Z" fill="#FFBE9D"/>
<path id="Combined Shape_18" d="M167.157 71.0961L172.618 69.3748C173.059 68.4566 173.183 67.3422 172.986 66.0286C172.785 64.6921 172.22 63.5238 171.287 62.52L171.286 62.5607L166.552 62.4677C164.256 62.667 162.771 63.4277 162.078 64.7409C160.961 66.8554 161.768 69.4758 163.88 70.5938C164.503 70.9237 165.197 71.0961 165.902 71.0961H167.157ZM167.238 71.394L166.898 71.5607C164.534 72.7209 163.557 75.58 164.715 77.9467C164.786 78.0907 164.864 78.2311 164.943 78.3588C166.062 79.918 168.232 80.2735 169.79 79.1528C169.893 79.0787 169.992 78.9989 170.086 78.9139L172.352 76.8727C173.567 75.7778 174.138 74.1367 173.866 72.5227C173.847 72.406 173.827 72.3003 173.809 72.2057C173.698 71.6453 173.314 70.8026 172.657 69.686L167.238 71.394ZM166.667 62.1614L171.286 62.2521C171.707 61.1101 171.761 59.837 171.447 58.4295C171.319 57.8593 171.144 57.3755 170.921 56.9778C170.521 56.2651 169.801 55.7907 168.989 55.7054L163.254 55.1033C161.646 54.9345 160.206 56.1026 160.037 57.7124C160.026 57.8185 160.021 57.9251 160.021 58.0318L160.023 58.4465C160.033 60.4943 161.694 62.1494 163.739 62.1494H166.667L166.667 62.1614ZM161.805 64.5967C162.354 63.5583 163.346 62.8465 164.776 62.4579H163.739C161.524 62.4579 159.725 60.6656 159.715 58.448L159.713 58.0332C159.712 57.9153 159.718 57.7975 159.731 57.6803C159.917 55.901 161.509 54.6099 163.286 54.7965L169.021 55.3986C169.933 55.4943 170.741 56.0268 171.19 56.8268C171.428 57.2524 171.614 57.7642 171.748 58.3622C172.076 59.8307 172.017 61.1685 171.57 62.3721C172.511 63.4074 173.085 64.6121 173.29 65.9828C173.495 67.3478 173.367 68.5196 172.902 69.495C173.588 70.6564 173.991 71.5373 174.111 72.146C174.13 72.2435 174.15 72.352 174.17 72.4714C174.46 74.1895 173.851 75.9364 172.558 77.102L170.292 79.1432C170.189 79.2357 170.082 79.3226 169.97 79.4033C168.274 80.6234 165.911 80.2364 164.687 78.5303C164.597 78.3853 164.514 78.2358 164.439 78.0825C163.243 75.6414 164.182 72.7083 166.531 71.4046H165.902C165.147 71.4046 164.403 71.2199 163.736 70.8666C161.473 69.6689 160.609 66.8618 161.805 64.5967ZM163.735 55.9246C163.82 55.9234 163.89 55.9915 163.891 56.0766C163.892 56.1618 163.824 56.2319 163.739 56.2331C162.603 56.2491 162.099 56.9286 162.197 58.3516C162.295 59.7809 162.8 60.4224 163.727 60.3576C163.812 60.3517 163.886 60.4157 163.892 60.5007C163.897 60.5857 163.833 60.6594 163.749 60.6654C162.622 60.7442 161.998 59.9527 161.889 58.3726C161.78 56.7861 162.406 55.9434 163.735 55.9246ZM165.207 64.7209C165.292 64.7138 165.367 64.7768 165.374 64.8617C165.381 64.9466 165.318 65.0212 165.233 65.0283C164.101 65.1236 163.646 65.8366 163.842 67.2493C164.04 68.6683 164.589 69.2729 165.509 69.1437C165.593 69.1318 165.671 69.1906 165.683 69.275C165.695 69.3593 165.636 69.4373 165.552 69.4492C164.433 69.6064 163.755 68.8604 163.537 67.2917C163.318 65.7167 163.883 64.8324 165.207 64.7209ZM167.367 73.7164C167.451 73.6989 167.532 73.7524 167.55 73.8358C167.567 73.9192 167.514 74.0009 167.43 74.0183C166.319 74.2508 165.953 75.014 166.321 76.3922C166.69 77.7766 167.309 78.3098 168.206 78.0694C168.288 78.0473 168.372 78.0962 168.394 78.1785C168.417 78.2608 168.368 78.3453 168.286 78.3674C167.194 78.6597 166.431 78.0019 166.023 76.4715C165.613 74.9349 166.066 73.9884 167.367 73.7164Z" fill="#263E4B"/>
<path id="Mask" fill-rule="evenodd" clip-rule="evenodd" d="M33.8921 101.318L38.88 153.41H41.4481L39.0023 100.816C38.9381 99.4364 37.7673 98.3696 36.3872 98.4338C36.3449 98.4357 36.3027 98.4388 36.2606 98.4429C34.8132 98.584 33.7535 99.8705 33.8921 101.318Z" fill="white"/>
<path id="Mask_2" d="M33.7385 101.236L38.7398 153.467H41.6093L39.156 100.712C39.0879 99.2472 37.8449 98.1147 36.3798 98.1829C36.335 98.1849 36.2902 98.1882 36.2455 98.1925C34.7135 98.3419 33.5918 99.7036 33.7385 101.236ZM39.0199 153.159L34.0452 101.206C33.9147 99.8434 34.9126 98.6321 36.2754 98.4992C36.3149 98.4954 36.3545 98.4925 36.3941 98.4907C37.6892 98.4305 38.788 99.4315 38.8482 100.727L41.2865 153.159H39.0199Z" fill="#263E4B"/>
<path id="Combined Shape_19" d="M37.6218 154.914C37.5896 154.993 37.4996 155.031 37.4209 154.998C37.3421 154.966 37.3044 154.876 37.3366 154.798C39.3695 149.827 40.5529 146.354 40.8858 144.387C40.9 144.303 40.9796 144.246 41.0635 144.261C41.1474 144.275 41.2039 144.354 41.1897 144.438C40.8519 146.434 39.663 149.923 37.6218 154.914ZM40.773 137.523C40.8 137.603 40.7565 137.691 40.6759 137.718C40.5952 137.745 40.5078 137.701 40.4808 137.621C39.5761 134.923 37.7482 132.621 34.9922 130.713C34.9222 130.665 34.9048 130.569 34.9532 130.499C35.0016 130.429 35.0976 130.411 35.1676 130.46C37.9761 132.404 39.8461 134.759 40.773 137.523ZM38.5624 148.448C38.5273 148.526 38.436 148.56 38.3585 148.525C38.281 148.49 38.2466 148.399 38.2817 148.321C38.5566 147.715 38.7406 147.221 38.8337 146.841C40.1126 141.627 39.3198 137.816 37.0556 135.108C37.001 135.042 37.0097 134.945 37.075 134.891C37.1403 134.836 37.2374 134.845 37.292 134.91C39.6209 137.696 40.4346 141.607 39.133 146.915C39.0347 147.315 38.8445 147.826 38.5624 148.448ZM34.9303 98.7716C34.9195 98.6872 34.9792 98.61 35.0636 98.5993C35.1481 98.5885 35.2252 98.6482 35.236 98.7326C36.5713 109.2 41.582 114.735 50.2899 115.385C50.3748 115.391 50.4384 115.465 50.4321 115.55C50.4257 115.635 50.3518 115.698 50.267 115.692C41.4024 115.031 36.283 109.375 34.9303 98.7716ZM37.1864 98.613C37.1783 98.5283 37.2405 98.4531 37.3252 98.445C37.4099 98.437 37.4851 98.4991 37.4932 98.5839C38.3684 107.801 42.5349 112.606 50.0204 113.156C50.1052 113.163 50.169 113.236 50.1627 113.321C50.1565 113.406 50.0826 113.47 49.9978 113.464C42.3508 112.901 38.0749 107.97 37.1864 98.613Z" fill="#263E4B"/>
<path id="Combined Shape_20" fill-rule="evenodd" clip-rule="evenodd" d="M119.209 16.8503C118.811 16.8503 118.49 16.482 118.49 16.0277C118.49 15.5733 118.811 15.205 119.209 15.205C119.606 15.205 119.928 15.5733 119.928 16.0277C119.928 16.482 119.606 16.8503 119.209 16.8503ZM125.577 16.8503C125.18 16.8503 124.858 16.482 124.858 16.0277C124.858 15.5733 125.18 15.205 125.577 15.205C125.974 15.205 126.296 15.5733 126.296 16.0277C126.296 16.482 125.974 16.8503 125.577 16.8503ZM117.785 15.3047C117.73 15.3697 117.633 15.3777 117.568 15.3227C117.503 15.2676 117.495 15.1703 117.55 15.1053C117.575 15.0763 117.619 15.0281 117.68 14.9669C117.782 14.8658 117.897 14.7649 118.022 14.6704C118.388 14.395 118.77 14.228 119.155 14.228C119.713 14.228 120.019 14.3615 120.327 14.7002C120.376 14.7537 120.425 14.8121 120.49 14.8921C120.509 14.9156 120.627 15.0623 120.663 15.1075C120.717 15.1736 120.707 15.2708 120.641 15.3246C120.575 15.3784 120.478 15.3684 120.425 15.3024C120.387 15.2561 120.269 15.1091 120.251 15.0865C120.189 15.0107 120.143 14.9563 120.099 14.908C119.85 14.6338 119.627 14.5365 119.155 14.5365C118.848 14.5365 118.524 14.6781 118.207 14.9169C118.094 15.0023 117.99 15.0942 117.897 15.1859C117.843 15.2404 117.804 15.2822 117.785 15.3047ZM124.363 15.3003C124.31 15.3673 124.214 15.3789 124.147 15.3262C124.08 15.2736 124.068 15.1766 124.121 15.1096C124.144 15.0806 124.185 15.0323 124.242 14.971C124.337 14.8697 124.443 14.7685 124.56 14.6738C124.902 14.3965 125.26 14.228 125.623 14.228C126.147 14.228 126.435 14.3636 126.723 14.7045C126.769 14.758 126.814 14.8165 126.875 14.8965C126.892 14.92 127.001 15.0667 127.036 15.1119C127.087 15.1798 127.074 15.2766 127.006 15.328C126.938 15.3794 126.841 15.366 126.79 15.298C126.755 15.2517 126.645 15.1047 126.628 15.0821C126.571 15.0064 126.529 14.952 126.488 14.9038C126.258 14.6317 126.056 14.5365 125.623 14.5365C125.344 14.5365 125.046 14.6766 124.754 14.9135C124.649 14.9987 124.553 15.0903 124.467 15.1818C124.416 15.2362 124.381 15.2779 124.363 15.3003ZM123.282 18.1358H124.495L123.138 14.6439C123.107 14.5645 123.146 14.4751 123.226 14.4442C123.305 14.4133 123.394 14.4526 123.425 14.532L124.863 18.2341C124.903 18.3352 124.828 18.4443 124.72 18.4443H123.282C123.197 18.4443 123.128 18.3752 123.128 18.29C123.128 18.2048 123.197 18.1358 123.282 18.1358ZM122.533 20.2771C122.458 20.3173 122.364 20.289 122.324 20.2139C122.284 20.1388 122.312 20.0453 122.387 20.0051C122.945 19.7058 123.483 19.7058 123.978 20.0095C124.051 20.054 124.074 20.149 124.029 20.2216C123.985 20.2943 123.89 20.3171 123.818 20.2726C123.418 20.0279 122.997 20.0279 122.533 20.2771Z" fill="#263E4B"/>
<path id="Path 118" fill-rule="evenodd" clip-rule="evenodd" d="M9.19336 110.628L17.4111 136.028L57.9864 130.578V100.858L17.9023 108.884L17.4111 112.376L14.7823 109.509L9.19336 110.628Z" fill="white"/>
<path id="Path 118_2" d="M14.8958 109.31C14.8593 109.271 14.8048 109.253 14.7519 109.264L9.16296 110.383C9.07263 110.401 9.01825 110.493 9.04661 110.581L17.2644 135.981C17.2873 136.052 17.3577 136.097 17.4315 136.087L58.0067 130.636C58.0832 130.626 58.1403 130.561 58.1403 130.484V100.764C58.1403 100.667 58.0513 100.594 57.956 100.613L17.8719 108.639C17.8077 108.652 17.7587 108.704 17.7496 108.768L17.3039 111.937L14.8958 109.31ZM14.7273 109.583L17.2974 112.386C17.3854 112.482 17.5454 112.432 17.5636 112.303L18.0395 108.92L57.8321 100.952V130.349L17.518 135.764L9.39305 110.651L14.7273 109.583Z" fill="#263E4B"/>
<path id="Path 216" fill-rule="evenodd" clip-rule="evenodd" d="M0.154297 181.334H13.8163C19.1977 167.313 24.1385 158.559 28.6387 155.072C28.9045 154.866 27.3193 152.582 23.8831 148.221C26.1104 149.984 27.6513 151.115 28.5056 151.614C28.9079 151.849 28.9422 148.49 28.6083 141.536L32.2867 152.683C33.687 151.979 34.755 151.486 35.4907 151.203C45.8314 147.227 54.3231 157.27 60.9658 181.334H199.846" fill="white"/>
<path id="Path 216_2" d="M28.4277 151.698C28.5742 151.784 28.7064 151.704 28.7786 151.55C28.8254 151.45 28.8615 151.298 28.8907 151.089C28.9464 150.69 28.9783 150.069 28.9869 149.223C29.0021 147.727 28.9445 145.52 28.8142 142.603L32.1401 152.682C32.1696 152.772 32.2716 152.814 32.3556 152.772C33.7519 152.07 34.8158 151.578 35.5458 151.298C45.7649 147.368 54.1958 157.34 60.8171 181.326C60.8355 181.392 60.8963 181.439 60.9656 181.439H199.846C199.931 181.439 200 181.37 200 181.285C200 181.2 199.931 181.131 199.846 181.131H61.0829C54.4232 157.071 45.8812 146.993 35.4352 151.01C34.7222 151.284 33.7032 151.753 32.3769 152.416L28.7544 141.439C28.6982 141.269 28.4456 141.315 28.4542 141.495C28.621 144.969 28.6958 147.544 28.6787 149.22C28.6702 150.054 28.639 150.664 28.5855 151.046C28.5636 151.203 28.5381 151.319 28.5117 151.39C27.652 150.875 26.1392 149.761 23.9785 148.051C23.8353 147.937 23.6488 148.123 23.7619 148.267C25.4782 150.445 26.7319 152.104 27.5224 153.243C27.9155 153.809 28.1932 154.246 28.3546 154.551C28.4322 154.697 28.4816 154.811 28.5027 154.888C28.5068 154.903 28.5095 154.916 28.5112 154.926C24.0013 158.445 19.0735 167.176 13.7102 181.131H0.154083C0.0689854 181.131 0 181.2 0 181.285C0 181.37 0.0689854 181.439 0.154083 181.439H13.8161C13.8799 181.439 13.9371 181.399 13.96 181.34C19.3317 167.344 24.2618 158.609 28.7328 155.144C28.9855 154.949 28.6761 154.365 27.7755 153.067C27.1074 152.105 26.1127 150.776 24.7909 149.08C26.4898 150.401 27.7009 151.273 28.4277 151.698Z" fill="#263E4B"/>
<path id="Path 207" d="M120.797 0.0366211H114.961C112.339 0.0366211 110.211 2.15131 110.185 4.76987L106.72 9.76952C106.649 9.87181 106.722 10.0117 106.847 10.0117H130.267C130.403 10.0117 130.473 9.84829 130.378 9.75034L125.367 4.5501C125.334 2.05165 123.3 0.0366211 120.797 0.0366211ZM110.465 4.90641C110.483 4.88059 110.492 4.84991 110.492 4.81848C110.492 2.34792 112.493 0.345128 114.961 0.345128H120.797C123.151 0.345128 125.06 2.25584 125.06 4.61281C125.06 4.65276 125.075 4.69116 125.103 4.71991L129.905 9.70318H107.141L110.465 4.90641Z" fill="#263E4B"/>
<path id="Path 208" fill-rule="evenodd" clip-rule="evenodd" d="M125.15 4.71558L110.272 4.92125L109.245 6.46378H126.811L125.15 4.71558Z" fill="#FF725E"/>
<path id="Path 208_2" d="M125.251 4.45851L110.373 4.6642C110.322 4.6649 110.275 4.69059 110.247 4.73287L109.219 6.27541C109.151 6.37792 109.225 6.51523 109.348 6.51523H126.913C127.049 6.51523 127.118 6.35293 127.025 6.25469L125.365 4.50648C125.335 4.47531 125.294 4.45793 125.251 4.45851ZM126.554 6.20672H109.636L110.458 4.97155L125.188 4.76793L126.554 6.20672Z" fill="#263E4B"/>
<path id="Path 215" fill-rule="evenodd" clip-rule="evenodd" d="M83.4621 177.274L81.7158 185.706H88.4955H114.792C113.276 182.503 111.495 180.275 109.451 179.022C107.406 177.77 103.674 177.187 98.2541 177.274L101.028 162.877L84.3866 162.98L84.1812 173.778L83.4621 177.274Z" fill="#455A64"/>
<path id="Path 215 Copy 2" fill-rule="evenodd" clip-rule="evenodd" d="M128.145 176.04V185.81L132.254 185.707H158.551C157.035 182.503 155.254 180.275 153.21 179.022C151.165 177.77 147.433 177.187 142.013 177.274L144.581 163.108L126.604 162.98L127.94 173.778L128.145 176.04Z" fill="#455A64"/>
<path id="Path 228" fill-rule="evenodd" clip-rule="evenodd" d="M84.1804 173.88C85.7532 174.135 86.9859 175.129 87.8784 176.863C88.771 178.596 89.2503 180.927 89.3165 183.855L82.126 183.753" fill="#FF725E"/>
<path id="Path 228 Copy 2" fill-rule="evenodd" clip-rule="evenodd" d="M128.146 173.88C130.951 174.547 132.8 175.746 133.693 177.48C134.585 179.213 134.996 181.338 134.925 183.856L128.146 183.753V173.88Z" fill="#FF725E"/>
<path id="Combined Shape_21" d="M89.2908 162.898L90.4347 155.01H87.9817V154.702H90.4793L91.0907 150.485H88.9062V150.177H100.822V150.485H98.4334L97.6522 154.702H99.8974V155.01H97.5951L96.1414 162.856L101.214 162.825L98.9419 174.62L99.7267 172.468C99.7596 172.378 99.8007 172.29 99.8494 172.207C100.295 171.448 101.271 171.194 102.031 171.639C102.158 171.714 102.274 171.809 102.372 171.92C102.887 172.502 102.833 173.391 102.251 173.907L98.5993 177.141C99.2867 176.97 100.974 176.536 103.454 175.891C103.536 175.869 103.62 175.919 103.642 176.001C103.663 176.084 103.614 176.168 103.532 176.189C101.725 176.659 100.423 176.996 99.563 177.215C104.306 177.237 107.626 177.827 109.531 178.994C111.604 180.264 113.403 182.515 114.931 185.743L115.036 185.964H81.5264L83.311 177.346L84.0272 173.863L84.2352 162.93L89.2908 162.898ZM89.6025 162.896L92.5824 162.878L93.7866 155.01H90.746L89.6025 162.896ZM92.8944 162.876L95.8276 162.858L97.2817 155.01H94.0984L92.8944 162.876ZM98.3845 177.529C98.3712 177.532 98.3576 177.532 98.3439 177.531L94.8686 177.634C94.7835 177.636 94.7126 177.569 94.71 177.484C94.7075 177.399 94.7745 177.328 94.8595 177.326L97.9632 177.234L94.2058 173.907C93.6239 173.391 93.57 172.502 94.0853 171.92C94.1835 171.809 94.2987 171.714 94.4265 171.639C95.1857 171.194 96.1622 171.448 96.6077 172.207C96.6564 172.29 96.6975 172.378 96.7304 172.468L98.2286 176.576L98.2767 176.444L100.841 163.135L84.5376 163.236L84.3373 173.765C87.536 174.716 89.3697 178.007 89.4689 183.599H113.43C112.217 181.618 110.863 180.171 109.37 179.256C107.373 178.033 103.708 177.454 98.3845 177.529ZM98.5746 176.527L98.5224 176.797L102.047 173.676C102.501 173.274 102.544 172.579 102.141 172.124C102.064 172.038 101.974 171.964 101.875 171.905C101.262 171.546 100.475 171.751 100.115 172.363C100.076 172.43 100.043 172.501 100.016 172.574L98.5746 176.527ZM113.615 183.907H82.267L81.9049 185.655H114.548C114.247 185.034 113.936 184.451 113.615 183.907ZM82.3308 183.599H89.1607C89.0631 178.16 87.3104 174.999 84.2982 174.075L83.6128 177.408L82.3308 183.599ZM96.4409 172.574C96.4143 172.501 96.3812 172.43 96.3419 172.363C95.9826 171.751 95.1949 171.546 94.5825 171.905C94.4827 171.964 94.3927 172.038 94.316 172.124C93.9135 172.579 93.9557 173.274 94.4101 173.676L98.0035 176.858L96.4409 172.574ZM98.12 150.485H94.7909L94.1455 154.702H97.3388L98.12 150.485ZM94.4792 150.485H91.4021L90.7907 154.702H93.8338L94.4792 150.485Z" fill="#263E4B"/>
<path id="Path 119" fill-rule="evenodd" clip-rule="evenodd" d="M82.8449 53.1514H79.4551L83.1531 47.2898" fill="#FF725E"/>
<path id="Combined Shape_22" d="M130.215 162.846L129.079 155.01H127.118V154.702H129.034L128.423 150.485H126.502V150.177H138.931V150.485H136.277L136.701 154.702H139.034V155.01H136.732L137.526 162.888L144.764 162.93L142.421 176.515L143.897 172.468C143.93 172.378 143.971 172.29 144.019 172.207C144.465 171.448 145.441 171.194 146.2 171.639C146.328 171.714 146.443 171.809 146.542 171.92C147.057 172.502 147.003 173.391 146.421 173.907L142.933 176.996C143.802 176.775 145.262 176.399 147.213 175.891C147.295 175.869 147.379 175.919 147.401 176.001C147.422 176.084 147.373 176.168 147.291 176.189C145.485 176.659 144.183 176.996 143.324 177.215C148.12 177.228 151.474 177.818 153.393 178.994C155.466 180.264 157.265 182.515 158.793 185.743L158.897 185.964H127.993L127.991 185.811L127.89 173.901L126.429 162.825L130.215 162.846ZM130.527 162.848L133.621 162.866L132.925 155.01H129.39L130.527 162.848ZM133.931 162.868L137.216 162.886L136.423 155.01H133.234L133.931 162.868ZM128.177 173.73C132.64 174.629 134.943 177.934 135.076 183.599H157.292C156.079 181.618 154.725 180.171 153.232 179.256C151.242 178.037 147.596 177.458 142.304 177.528C142.283 177.533 142.263 177.533 142.243 177.529C142.206 177.53 142.17 177.53 142.133 177.531C142.123 177.532 142.113 177.532 142.103 177.531L138.628 177.634C138.543 177.636 138.472 177.569 138.469 177.484C138.467 177.399 138.533 177.328 138.619 177.326L141.722 177.234L137.965 173.907C137.383 173.391 137.329 172.502 137.844 171.92C137.943 171.809 138.058 171.714 138.186 171.639C138.945 171.194 139.921 171.448 140.367 172.207C140.415 172.29 140.457 172.378 140.489 172.468L142.062 176.78L144.398 163.236L126.78 163.135L128.177 173.73ZM128.198 174.049L128.28 183.599H134.768C134.637 178.108 132.451 174.94 128.198 174.049ZM157.477 183.907H128.283L128.298 185.655H158.409C158.109 185.034 157.798 184.451 157.477 183.907ZM140.2 172.574C140.173 172.501 140.14 172.43 140.101 172.363C139.742 171.751 138.954 171.546 138.342 171.905C138.242 171.964 138.152 172.038 138.075 172.124C137.673 172.579 137.715 173.274 138.169 173.676L141.763 176.858L140.2 172.574ZM144.186 172.574L142.624 176.858L146.217 173.676C146.671 173.274 146.714 172.579 146.311 172.124C146.234 172.038 146.144 171.964 146.045 171.905C145.432 171.546 144.644 171.751 144.285 172.363C144.246 172.43 144.213 172.501 144.186 172.574ZM135.967 150.485H132.834L133.207 154.702H136.392L135.967 150.485ZM132.524 150.485H128.734L129.346 154.702H132.898L132.524 150.485Z" fill="#263E4B"/>
<path id="404 copy" d="M29.976 121.628L30.2792 123.542L28.5179 123.821L28.7453 125.257L26.4808 125.616L26.2534 124.18L20.0385 125.164L19.7353 123.25L25.0844 116.799L27.349 116.441L28.2147 121.907L29.976 121.628ZM22.176 122.863L25.9502 122.265L25.4435 119.066L22.176 122.863ZM36.276 124.193C32.7785 124.747 30.8625 123.398 30.3977 120.464C29.935 117.542 31.3423 115.679 34.8397 115.125C38.3246 114.573 40.2531 115.92 40.7139 118.83C41.1767 121.752 39.7608 123.641 36.276 124.193ZM35.9748 122.291C37.9625 121.977 38.7107 120.838 38.4494 119.188C38.1901 117.551 37.1287 116.712 35.1409 117.027C33.1532 117.342 32.401 118.455 32.6623 120.105C32.9256 121.767 33.987 122.606 35.9748 122.291ZM51.8665 118.161L52.1697 120.075L50.4084 120.354L50.6358 121.79L48.3713 122.148L48.1438 120.713L41.929 121.697L41.6258 119.783L46.9749 113.332L49.2394 112.974L50.1052 118.44L51.8665 118.161ZM44.0664 119.396L47.8406 118.798L47.334 115.599L44.0664 119.396Z" fill="#FF725E"/>
<path id="404 copy_2" d="M30.2023 121.35L30.5537 123.569L28.7924 123.848L29.0198 125.284L26.4509 125.691L26.2235 124.255L20.0086 125.239L19.6704 123.104L25.1011 116.555L27.5752 116.163L28.441 121.629L30.2023 121.35ZM28.1848 121.982L27.319 116.516L25.2641 116.841L19.9966 123.193L20.2648 124.887L26.4796 123.902L26.707 125.338L28.6672 125.028L28.4398 123.592L30.2011 123.313L29.9461 121.703L28.1848 121.982ZM21.8833 122.98L25.6418 118.613L26.2246 122.292L21.8833 122.98ZM25.8721 122.036L25.4415 119.318L22.6649 122.544L25.8721 122.036ZM36.3982 124.244C32.8821 124.801 30.8313 123.465 30.3437 120.387C29.8584 117.322 31.3963 115.429 34.9138 114.872C38.4181 114.317 40.4809 115.652 40.9643 118.704C41.4499 121.771 39.9013 123.689 36.3982 124.244ZM36.35 123.94C39.6915 123.411 41.1178 121.643 40.6599 118.753C40.2044 115.876 38.3051 114.647 34.962 115.176C31.6057 115.708 30.1906 117.45 30.6481 120.338C31.1079 123.241 32.9955 124.471 36.35 123.94ZM36.097 122.343C34.0883 122.661 32.8945 121.835 32.6083 120.028C32.3243 118.235 33.2054 117.092 35.215 116.774C37.2198 116.456 38.417 117.278 38.6998 119.063C38.9847 120.862 38.101 122.025 36.097 122.343ZM36.0488 122.038C37.8876 121.747 38.6532 120.739 38.3954 119.111C38.1399 117.498 37.1035 116.786 35.2632 117.078C33.418 117.37 32.6559 118.359 32.9126 119.98C33.1717 121.615 34.2052 122.33 36.0488 122.038ZM52.0927 117.883L52.4441 120.102L50.6828 120.381L50.9102 121.817L48.3413 122.224L48.1139 120.788L41.8991 121.772L41.5608 119.637L46.9916 113.088L49.4657 112.696L50.3314 118.162L52.0927 117.883ZM50.0753 118.515L49.2095 113.049L47.1546 113.374L41.887 119.726L42.1552 121.42L48.3701 120.435L48.5975 121.871L50.5577 121.561L50.3303 120.125L52.0916 119.846L51.8366 118.236L50.0753 118.515ZM43.7738 119.513L47.5323 115.145L48.1151 118.825L43.7738 119.513ZM47.7625 118.569L47.332 115.851L44.5554 119.077L47.7625 118.569Z" fill="#263E4B"/>
<path id="Combined Shape_23" d="M83.1138 47.1243C83.1325 47.0542 83.1483 46.9891 83.1615 46.9289L83.33 43.3726C83.6092 37.4773 88.4648 32.8413 94.3602 32.8413H105.958V33.1498H94.3602C88.6294 33.1498 83.9092 37.6565 83.6378 43.3872L83.5888 44.4212C84.1335 42.3299 85.1838 40.4591 86.7413 38.8526C89.0891 36.431 91.9967 37.6379 95.4001 42.3663C95.4499 42.4354 95.4342 42.5318 95.3652 42.5816C95.2962 42.6314 95.1999 42.6157 95.1501 42.5466C91.8424 37.9513 89.1344 36.8272 86.9625 39.0675C84.9183 41.1759 83.7708 43.7471 83.5128 46.6862C83.5057 46.7679 83.4908 46.862 83.4681 46.9689L82.9996 56.8608L82.6918 56.8462L82.8644 53.2028H79.5586C79.4373 53.2028 79.3636 53.0689 79.4284 52.9662L83.1138 47.1243ZM82.879 52.8943L83.1258 47.6831L79.8382 52.8943H82.879Z" fill="#263E4B"/>
<path id="Combined Shape_24" d="M128.589 60.931C128.504 60.9278 128.438 60.8561 128.441 60.771C128.445 60.6859 128.516 60.6195 128.601 60.6228C129.736 60.6661 130.275 60.014 130.252 58.5879C130.229 57.1553 129.758 56.4883 128.829 56.5045C128.744 56.506 128.674 56.4381 128.672 56.3529C128.671 56.2678 128.738 56.1975 128.824 56.196C129.953 56.1763 130.535 56.9993 130.56 58.5829C130.586 60.1729 129.918 60.9818 128.589 60.931ZM128.261 71.7817C128.176 71.774 128.113 71.699 128.121 71.6142C128.129 71.5293 128.204 71.4668 128.289 71.4745C129.42 71.5772 129.992 70.9542 130.044 69.5288C130.096 68.097 129.66 67.4062 128.732 67.3738C128.646 67.3708 128.58 67.2994 128.583 67.2142C128.586 67.1291 128.657 67.0625 128.742 67.0654C129.871 67.1049 130.409 67.9572 130.352 69.54C130.294 71.1291 129.584 71.9019 128.261 71.7817ZM121.525 83.7884C121.447 83.7542 121.412 83.6633 121.446 83.5853C121.48 83.5072 121.571 83.4717 121.649 83.5058C122.696 83.9648 123.394 83.6638 123.817 82.5681C124.242 81.465 124.019 80.7844 123.145 80.4489C123.066 80.4184 123.026 80.3292 123.056 80.2496C123.087 80.1701 123.176 80.1303 123.256 80.1608C124.303 80.563 124.587 81.4282 124.104 82.679C123.619 83.9372 122.735 84.3185 121.525 83.7884ZM110.431 42.7251L110.729 42.8046C110.167 44.9149 108.994 46.1603 107.221 46.5154L107.16 46.2128C108.811 45.8824 109.898 44.7282 110.431 42.7251Z" fill="#263E4B"/>
<path id="Path 236" d="M93.1742 46.8153L93.5851 48.3578C93.607 48.4401 93.6914 48.489 93.7737 48.4671C93.8559 48.4451 93.9048 48.3606 93.8828 48.2783L93.4719 46.7358C93.45 46.6534 93.3656 46.6045 93.2834 46.6265C93.2011 46.6484 93.1523 46.7329 93.1742 46.8153Z" fill="#263E4B"/>
<path id="Path 237" d="M93.2884 46.9258L94.6238 47.2343C94.7067 47.2535 94.7895 47.2017 94.8086 47.1187C94.8277 47.0357 94.776 46.9529 94.6931 46.9337L93.3577 46.6252C93.2748 46.606 93.1921 46.6578 93.1729 46.7408C93.1538 46.8238 93.2055 46.9067 93.2884 46.9258Z" fill="#263E4B"/>
<path id="Shape" d="M151.273 47.9022C150.234 46.648 148.428 46.5154 146.939 47.496C146.359 47.878 145.936 48.4221 145.737 49.0439C145.236 50.6107 147.204 54.6146 151.644 61.1563C151.692 61.2267 151.788 61.245 151.858 61.1972C151.929 61.1493 151.947 61.0534 151.899 60.9829C147.532 54.5477 145.574 50.5658 146.031 49.1379C146.208 48.5846 146.586 48.0977 147.109 47.7537C148.474 46.8546 150.104 46.9743 151.036 48.0991C151.09 48.1647 151.187 48.1738 151.253 48.1194C151.318 48.0651 151.327 47.9678 151.273 47.9022Z" fill="#263E4B"/>
</g>
</g>
</svg>
