<svg viewBox="0 0 25 25" fill="none" xmlns="http://www.w3.org/2000/svg">
<path d="M8.327 16.673L14.7308 14.7308L16.673 8.327L10.2692 10.2693L8.327 16.673ZM12.4978 13.8077C12.1339 13.8077 11.8254 13.6803 11.5723 13.4255C11.3189 13.1708 11.1923 12.8616 11.1923 12.4978C11.1923 12.1339 11.3197 11.8254 11.5745 11.5723C11.8292 11.3189 12.1384 11.1923 12.5022 11.1923C12.8661 11.1923 13.1746 11.3197 13.4277 11.5745C13.6811 11.8292 13.8077 12.1384 13.8077 12.5022C13.8077 12.8661 13.6803 13.1746 13.4255 13.4277C13.1708 13.6811 12.8616 13.8077 12.4978 13.8077ZM12.5017 22C11.1877 22 9.95267 21.7507 8.7965 21.252C7.64033 20.7533 6.63467 20.0766 5.7795 19.2218C4.92433 18.3669 4.24725 17.3617 3.74825 16.206C3.24942 15.0503 3 13.8156 3 12.5017C3 11.1877 3.24933 9.95267 3.748 8.7965C4.24667 7.64033 4.92342 6.63467 5.77825 5.7795C6.63308 4.92433 7.63833 4.24725 8.794 3.74825C9.94967 3.24942 11.1844 3 12.4983 3C13.8123 3 15.0473 3.24933 16.2035 3.748C17.3597 4.24667 18.3653 4.92342 19.2205 5.77825C20.0757 6.63308 20.7528 7.63833 21.2518 8.794C21.7506 9.94967 22 11.1844 22 12.4983C22 13.8123 21.7507 15.0473 21.252 16.2035C20.7533 17.3597 20.0766 18.3653 19.2218 19.2205C18.3669 20.0757 17.3617 20.7528 16.206 21.2518C15.0503 21.7506 13.8156 22 12.5017 22Z" fill="currentColor"/>
</svg>
