<svg viewBox="0 0 25 25" fill="none" xmlns="http://www.w3.org/2000/svg">
<path d="M8 17L15 15L17 8L10 10L8 17ZM12.5 14C12.0833 14 11.7292 13.8542 11.4375 13.5625C11.1458 13.2708 11 12.9167 11 12.5C11 12.0833 11.1458 11.7292 11.4375 11.4375C11.7292 11.1458 12.0833 11 12.5 11C12.9167 11 13.2708 11.1458 13.5625 11.4375C13.8542 11.7292 14 12.0833 14 12.5C14 12.9167 13.8542 13.2708 13.5625 13.5625C13.2708 13.8542 12.9167 14 12.5 14ZM12.5 22.5C11.1167 22.5 9.81667 22.2375 8.6 21.7125C7.38333 21.1875 6.325 20.475 5.425 19.575C4.525 18.675 3.8125 17.6167 3.2875 16.4C2.7625 15.1833 2.5 13.8833 2.5 12.5C2.5 11.1167 2.7625 9.81667 3.2875 8.6C3.8125 7.38333 4.525 6.325 5.425 5.425C6.325 4.525 7.38333 3.8125 8.6 3.2875C9.81667 2.7625 11.1167 2.5 12.5 2.5C13.8833 2.5 15.1833 2.7625 16.4 3.2875C17.6167 3.8125 18.675 4.525 19.575 5.425C20.475 6.325 21.1875 7.38333 21.7125 8.6C22.2375 9.81667 22.5 11.1167 22.5 12.5C22.5 13.8833 22.2375 15.1833 21.7125 16.4C21.1875 17.6167 20.475 18.675 19.575 19.575C18.675 20.475 17.6167 21.1875 16.4 21.7125C15.1833 22.2375 13.8833 22.5 12.5 22.5ZM12.5 20.5C14.7167 20.5 16.6042 19.7208 18.1625 18.1625C19.7208 16.6042 20.5 14.7167 20.5 12.5C20.5 10.2833 19.7208 8.39583 18.1625 6.8375C16.6042 5.27917 14.7167 4.5 12.5 4.5C10.2833 4.5 8.39583 5.27917 6.8375 6.8375C5.27917 8.39583 4.5 10.2833 4.5 12.5C4.5 14.7167 5.27917 16.6042 6.8375 18.1625C8.39583 19.7208 10.2833 20.5 12.5 20.5Z" fill="currentColor"/>
</svg>
