<svg width="141" height="104" viewBox="0 0 141 104" fill="none" xmlns="http://www.w3.org/2000/svg">
<g id="Group 1410084764">
<g id="Group 1410084492">
<rect id="Rectangle 26812" x="32.0391" y="21.3844" width="58.72" height="76.6622" rx="8" transform="rotate(-5.91794 32.0391 21.3844)" fill="#D0D1FF"/>
<rect id="Rectangle 26810" x="37.7578" y="12.5723" width="69.9704" height="91.3028" rx="8" fill="#9294F5"/>
<g id="Group 1410084489">
<line id="Line 98274" x1="64.7832" y1="34.6113" x2="96.4884" y2="34.6113" stroke="white" stroke-width="2" stroke-linecap="round"/>
<line id="Line 98275" x1="64.7822" y1="40.5842" x2="75.5817" y2="40.5842" stroke="white" stroke-width="2" stroke-linecap="round"/>
</g>
<g id="Group 1410084490">
<line id="Line 98274_2" x1="64.7832" y1="56.37" x2="96.4884" y2="56.37" stroke="white" stroke-width="2" stroke-linecap="round"/>
<line id="Line 98275_2" x1="64.7832" y1="62.3434" x2="75.5827" y2="62.3434" stroke="white" stroke-width="2" stroke-linecap="round"/>
</g>
<g id="Group 1410084491">
<line id="Line 98274_3" x1="64.7822" y1="78.1295" x2="96.4875" y2="78.1295" stroke="white" stroke-width="2" stroke-linecap="round"/>
<line id="Line 98275_3" x1="64.7822" y1="84.1021" x2="75.5817" y2="84.1021" stroke="white" stroke-width="2" stroke-linecap="round"/>
</g>
</g>
<path id="Vector" d="M133.753 67.7734L140.127 69.0994L133.753 70.5093L132.45 77.5254L131.263 70.5093L124.872 69.0994L131.263 67.7734L132.45 60.774L133.753 67.7734Z" fill="#FFA4AC"/>
<path id="Vector_2" d="M9.75289 30.7734L16.1274 32.0994L9.75289 33.5093L8.44959 40.5254L7.26326 33.5093L0.87207 32.0994L7.26326 30.7734L8.44959 23.774L9.75289 30.7734Z" fill="#FFA4AC"/>
<path id="Vector_3" d="M22.6947 73.3654L26.8721 74.2364L22.6947 75.1611L21.84 79.774L21.0601 75.1611L16.8721 74.2364L21.0601 73.3654L21.84 68.774L22.6947 73.3654Z" fill="white"/>
<g id="Group 1410084493">
<path id="Vector_4" fill-rule="evenodd" clip-rule="evenodd" d="M129.581 24.1382C129.882 23.8864 130.15 23.6682 130.417 23.4332C132.38 21.7379 134.118 19.9 136.09 18.2047C136.507 17.8438 136.958 17.5081 137.401 17.1808C137.727 16.9374 138.613 16.4339 138.805 17.1221C138.913 17.5249 138.579 17.9781 138.37 18.297C137.334 19.8664 135.831 21.033 134.569 22.3925C133.007 24.071 131.277 25.6992 129.723 27.3777C129.698 27.4028 129.682 27.4196 129.657 27.4448C129.456 27.6462 129.297 27.6462 129.105 27.4364C128.771 27.0755 128.437 26.7146 128.103 26.3538C127.092 25.2628 126.089 24.1633 125.078 23.0723C124.761 22.7282 124.811 22.4177 125.22 22.1743C125.605 21.9477 125.981 21.7295 126.365 21.5029C126.682 21.3099 126.966 21.3435 127.217 21.6036C127.952 22.3925 128.696 23.173 129.431 23.9619C129.473 24.0123 129.515 24.0626 129.573 24.1382H129.581Z" fill="#FFA4AC"/>
</g>
<path id="Vector_5" d="M96.4733 0.86801C96.7238 0.570407 97.0817 0.34933 97.5471 0.204779C98.0124 0.0602291 98.4598 -0.00779437 98.8983 0.000708581C99.2651 0.000708581 99.6231 0.0177153 99.9721 0.0347212C100.321 0.0517271 100.661 0.0942413 100.992 0.153762C101.681 0.315318 102.164 0.646933 102.424 1.1146C102.683 1.58226 102.836 2.11794 102.862 2.70465C102.889 3.29135 102.862 3.86955 102.755 4.43075C102.657 5.00045 102.585 5.4511 102.558 5.80823C102.263 9.03935 101.941 12.279 101.69 15.5101C101.654 15.9523 101.619 16.3859 101.592 16.8196C101.556 17.2617 101.449 17.6784 101.261 18.0695C101.082 18.4436 100.777 18.7072 100.357 18.8773C99.9363 19.0473 99.5068 19.1154 99.0593 19.0983C98.6119 19.0813 98.1824 18.9708 97.7708 18.7837C97.3502 18.5882 97.0549 18.3246 96.8849 17.9675C96.8133 17.7719 96.7507 17.5168 96.7059 17.2277C96.6612 16.9301 96.6164 16.658 96.5806 16.4199C96.5448 16.0458 96.518 15.6546 96.509 15.2465C96.509 14.8384 96.4912 14.4302 96.4643 14.0136C96.2853 10.3318 96.0437 6.65852 95.8737 2.97674C95.8648 2.71315 95.8916 2.37303 95.9721 1.94789C96.0527 1.52274 96.2227 1.16561 96.4733 0.86801ZM100.903 21.9894C101.082 22.1934 101.225 22.457 101.314 22.7631C101.708 24.1916 101.117 25.8922 99.3725 25.9942C98.3793 26.0538 97.2607 25.6541 96.9207 24.6848C96.8133 24.3362 96.7507 23.928 96.7417 23.4689C96.7238 22.5676 97.0817 21.7683 98.0213 21.4792C99.1041 21.1476 100.267 21.2581 100.912 21.9894H100.903Z" fill="#F6C24C"/>
</g>
</svg>
