<svg viewBox="0 0 14 15" fill="none" xmlns="http://www.w3.org/2000/svg">
<path d="M13.5625 1.375V5.3125C13.5625 5.55433 13.3668 5.75 13.125 5.75C12.8832 5.75 12.6875 5.55433 12.6875 5.3125V2.43113L6.43431 8.68431C6.34889 8.76973 6.23689 8.8125 6.125 8.8125C6.01311 8.8125 5.90111 8.76973 5.81569 8.68431C5.64473 8.51336 5.64473 8.23653 5.81569 8.06569L12.0689 1.8125H9.1875C8.94567 1.8125 8.75 1.61683 8.75 1.375C8.75 1.13317 8.94567 0.9375 9.1875 0.9375H13.125C13.3668 0.9375 13.5625 1.13317 13.5625 1.375ZM11.8125 12.75V7.5C11.8125 7.25817 11.6168 7.0625 11.375 7.0625C11.1332 7.0625 10.9375 7.25817 10.9375 7.5V12.75C10.9375 12.9914 10.7414 13.1875 10.5 13.1875H1.75C1.50861 13.1875 1.3125 12.9914 1.3125 12.75V4C1.3125 3.75861 1.50861 3.5625 1.75 3.5625H7C7.24183 3.5625 7.4375 3.36683 7.4375 3.125C7.4375 2.88317 7.24183 2.6875 7 2.6875H1.75C1.02627 2.6875 0.4375 3.27627 0.4375 4V12.75C0.4375 13.4737 1.02627 14.0625 1.75 14.0625H10.5C11.2237 14.0625 11.8125 13.4737 11.8125 12.75Z" fill="currentColor"/>
</svg>
