<svg width="23" height="23" viewBox="0 0 23 23" fill="none" xmlns="http://www.w3.org/2000/svg">
<path d="M11.3437 0C8.38177 0 5.54117 1.17662 3.44678 3.27103C1.3524 5.36544 0.175781 8.20606 0.175781 11.168C0.175781 14.1299 1.3524 16.9706 3.44678 19.065C5.54117 21.1594 8.38177 22.336 11.3437 22.336C14.3056 22.336 17.1462 21.1594 19.2406 19.065C21.335 16.9706 22.5116 14.1299 22.5116 11.168C22.5116 8.20606 21.335 5.36544 19.2406 3.27103C17.1462 1.17662 14.3056 0 11.3437 0Z" fill="#039BE5"/>
<path d="M12.8556 14.1321H15.7457L16.1995 11.1961H12.855V9.59144C12.855 8.37178 13.2535 7.29025 14.3944 7.29025H16.2277V4.72807C15.9056 4.68458 15.2244 4.58936 13.9371 4.58936C11.2492 4.58936 9.67333 6.00887 9.67333 9.24288V11.1961H6.91016V14.1321H9.67333V22.2019C10.2206 22.2842 10.7748 22.34 11.3438 22.34C11.8581 22.34 12.3601 22.293 12.8556 22.226V14.1321Z" fill="white"/>
</svg>
