<svg width="74" height="70" viewBox="0 0 74 70" fill="none" xmlns="http://www.w3.org/2000/svg">
<g clip-path="url(#clip0_4210_4278)">
<path d="M69.0253 32.8491L73.0415 33.6795L69.0253 34.5574L68.203 38.9466L67.4522 34.5574L63.4242 33.6795L67.4522 32.8491L68.203 28.4836L69.0253 32.8491Z" fill="#FFA4AC"/>
<path d="M64.8659 8.58861L72.7552 10.2138L64.8659 11.9458L63.2452 20.5581L61.7793 11.9458L53.8662 10.2138L61.7793 8.58861L63.2452 0L64.8659 8.58861Z" fill="#FD6085"/>
<path d="M5.56553 35.7543L9.58166 36.5847L5.56553 37.4625L4.74323 41.8517L3.99244 37.4625L-0.0356126 36.5847L3.99244 35.7543L4.74323 31.377L5.56553 35.7543Z" fill="#FFA4AC"/>
<path d="M20.0653 14.117C20.0653 14.117 18.568 13.9966 17.1976 16.0955C20.7703 15.2845 22.6964 15.9561 22.6964 15.9561C22.6964 15.9561 21.6833 14.0204 20.0653 14.117Z" fill="#808285"/>
<path d="M29.3811 14.3584C28.7618 13.6313 28.2331 12.8282 27.8075 11.9744C28.449 11.4105 28.5141 10.2921 28.2585 9.4795C28.0028 8.66689 27.3264 8.01901 26.5309 7.70537C25.7354 7.39173 24.8398 7.39331 24.0126 7.60716C23.009 7.86853 22.0452 8.49264 21.6467 9.44782C21.2481 10.403 21.5943 11.6829 22.5406 12.1043C22.0754 13.3715 21.4498 14.6213 20.5764 15.651C23.0757 15.6715 25.575 15.6937 28.0743 15.6209C28.4824 15.6098 28.9127 15.5876 29.2509 15.3595C29.5891 15.133 29.6447 14.6673 29.3811 14.3584ZM26.4499 10.9242C25.9926 11.2441 25.3813 11.2917 24.8652 11.0857C24.5651 10.9669 24.2857 10.7547 24.1459 10.4537C24.0157 10.1733 24.0205 9.84225 24.1094 9.54603C24.2031 9.23556 24.4016 8.96469 24.6493 8.76985C24.9907 8.50056 26.7103 8.04436 27.1041 9.44465C27.2597 9.9959 26.9072 10.6058 26.4483 10.9242H26.4499Z" fill="#BCBEC0"/>
<path d="M22.6566 15.6647C22.9916 14.4466 23.4204 13.2538 23.9729 12.1196C23.0059 11.8266 22.2835 10.8698 22.2644 9.86235C22.2501 9.08459 22.6582 8.32583 23.2822 7.86646C22.5661 8.19752 21.9468 8.72818 21.6467 9.44575C21.2482 10.4009 21.5943 11.6808 22.5407 12.1022C22.0754 13.3694 21.4498 14.6192 20.5765 15.6489C21.2688 15.6552 21.9627 15.66 22.655 15.6631L22.6566 15.6647Z" fill="#D1D3D4"/>
<path d="M10.8681 14.9116H43.1047L47.2252 61.7899L15.3792 65.6202L10.8681 14.9116Z" fill="#EC5D7A"/>
<path d="M34.8305 19.8099C34.8305 19.8099 37.7395 18.7343 36.7963 14.9136H32.7648L34.8305 19.8099Z" fill="#D8506B"/>
<path d="M10.8682 14.9116L9.65827 15.7924L14.1964 65.1544L15.3793 65.6202L10.8682 14.9116Z" fill="#FD869E"/>
<path d="M47.225 61.7893L44.386 29.4747L42.1153 16.8879L13.607 16.3271C13.607 16.3271 13.299 53.3479 19.1121 65.1728L47.225 61.7909V61.7893Z" fill="#D8506C"/>
<path d="M14.2068 19.1899C14.1685 18.1 15.0416 17.2167 16.132 17.1972L41.0167 16.7516C42.0824 16.7325 42.9752 17.5525 43.0522 18.6155C43.9723 31.3199 45.4744 43.9785 47.8394 56.493C48.0689 57.7072 47.1634 58.8439 45.9292 58.903C37.7557 59.2946 29.5642 60.411 21.5157 61.8894C20.491 62.0776 19.4899 61.462 19.2538 60.4473C16.9352 50.4812 14.5388 28.6371 14.2068 19.1899Z" fill="white"/>
<path d="M33.5969 16.8847L34.8306 19.8088C34.8306 19.8088 36.7297 19.1087 36.9631 16.8245C35.8405 16.8451 34.7195 16.8641 33.5969 16.8847Z" fill="#E6E7E8"/>
<path d="M23.1568 14.4757C25.1877 14.3838 27.2185 14.292 29.2478 14.1985C28.8508 13.7138 28.492 13.199 28.176 12.6572C27.4821 12.7127 26.7993 12.8584 26.1356 13.077C25.0908 13.4207 24.1063 13.9245 23.1568 14.4757Z" fill="#808285"/>
<path d="M21.6353 19.8L34.8304 19.8095C35.5259 18.3094 35.2226 16.5052 34.6684 14.8768C34.4874 14.3429 34.0127 13.9659 33.4506 13.9137C29.1649 13.5192 24.7793 13.4907 20.0634 14.1212C21.5321 14.8926 21.7656 17.6884 21.6353 19.8016V19.8Z" fill="#BCBEC0"/>
<path d="M35.024 16.1177L21.378 16.1557C21.5829 16.9461 21.6623 17.8554 21.6654 18.7282L35.1717 18.6569C35.2987 17.838 35.2178 16.9699 35.024 16.1177Z" fill="#D1D3D4"/>
<path d="M27.6532 13.9334C26.8465 13.9508 26.0193 14.0047 25.2793 14.3278C25.1475 14.3848 24.9967 14.4925 25.0237 14.6335C25.0459 14.7571 25.1888 14.8125 25.3095 14.8442C27.1673 15.3321 29.1108 15.3083 31.0131 15.1689C31.3862 15.142 33.3043 15.1959 33.2234 14.6874C33.1154 14.0078 31.4481 14.0902 30.9797 14.0474C29.8746 13.9492 28.7631 13.9112 27.6548 13.9334H27.6532Z" fill="#D1D3D4"/>
<path d="M23.539 14.9972C24.0485 14.9972 24.4616 14.8377 24.4616 14.6408C24.4616 14.444 24.0485 14.2844 23.539 14.2844C23.0295 14.2844 22.6165 14.444 22.6165 14.6408C22.6165 14.8377 23.0295 14.9972 23.539 14.9972Z" fill="#D1D3D4"/>
<path d="M41.7235 30.284L36.5011 30.5485L35.5023 24.2313L40.7232 23.9668L41.7219 30.284H41.7235ZM37.041 29.8864L40.9868 29.6868L40.1881 24.6289L36.2423 24.8285L37.041 29.8864Z" fill="#BCBEC0"/>
<path d="M43.3177 41.3013L38.0953 41.5421L37.1267 35.2217L42.3492 34.981L43.3177 41.3013ZM38.6368 40.8815L42.5842 40.6994L41.8077 35.6383L37.8603 35.8205L38.6368 40.8815Z" fill="#BCBEC0"/>
<path d="M40.1465 52.6097L39.0652 46.3068L44.2829 45.9741L45.3642 52.277L40.1465 52.6097ZM39.8115 46.8945L40.6769 51.9412L44.6195 51.6909L43.7541 46.6442L39.8115 46.8945Z" fill="#BCBEC0"/>
<path opacity="0.5" d="M17.2006 27.7901C16.9878 27.7901 16.8115 27.6207 16.8036 27.4068C16.7973 27.1882 16.9687 27.006 17.1879 26.9981L33.6396 26.4738C33.8619 26.4675 34.0429 26.6385 34.0493 26.8571C34.0556 27.0757 33.8841 27.2579 33.665 27.2658L17.2133 27.7901C17.2133 27.7901 17.2053 27.7901 17.2006 27.7901Z" fill="#808285"/>
<path opacity="0.5" d="M17.5199 29.4523C17.3071 29.4523 17.1309 29.2828 17.1229 29.0689C17.1166 28.8503 17.2881 28.6682 17.5072 28.6602L33.9589 28.1359C34.1828 28.1296 34.3607 28.3007 34.3686 28.5193C34.3749 28.7379 34.2035 28.92 33.9843 28.9279L17.5326 29.4523C17.5326 29.4523 17.5247 29.4523 17.5199 29.4523Z" fill="#808285"/>
<path opacity="0.5" d="M17.8375 31.1136C17.6247 31.1136 17.4485 30.9441 17.4405 30.7302C17.4342 30.5116 17.6057 30.3295 17.8248 30.3216L26.0515 30.0586C26.2738 30.0507 26.4548 30.2234 26.4611 30.442C26.4675 30.6605 26.296 30.8427 26.0769 30.8506L17.8502 31.1136C17.8502 31.1136 17.8423 31.1136 17.8375 31.1136Z" fill="#808285"/>
<path d="M16.8355 26.1384C16.6227 26.1384 16.4465 25.9689 16.4385 25.7551C16.4322 25.5365 16.6037 25.3543 16.8228 25.3464L25.0495 25.0834C25.2718 25.0771 25.4528 25.2482 25.4591 25.4668C25.4655 25.6854 25.294 25.8675 25.0749 25.8754L16.8482 26.1384C16.8482 26.1384 16.8403 26.1384 16.8355 26.1384Z" fill="#212B6B"/>
<path opacity="0.5" d="M19.427 39.6779C19.2253 39.6779 19.0522 39.5242 19.0316 39.3183C19.011 39.1013 19.1713 38.908 19.3889 38.8874L35.7771 37.3446C35.9946 37.3224 36.1883 37.484 36.209 37.701C36.2296 37.918 36.0693 38.1112 35.8517 38.1318L19.4635 39.6747C19.4508 39.6747 19.4381 39.6763 19.4254 39.6763L19.427 39.6779Z" fill="#808285"/>
<path opacity="0.5" d="M19.8479 41.3165C19.6462 41.3165 19.4731 41.1629 19.4525 40.957C19.4319 40.7399 19.5922 40.5467 19.8098 40.5261L36.198 38.9832C36.4155 38.9626 36.6093 39.1226 36.6299 39.3396C36.6505 39.5567 36.4902 39.7499 36.2726 39.7705L19.8844 41.3149C19.8717 41.3149 19.859 41.3165 19.8463 41.3165H19.8479Z" fill="#808285"/>
<path opacity="0.5" d="M20.2683 42.9551C20.0666 42.9551 19.8936 42.8015 19.8729 42.5971C19.8523 42.3785 20.0126 42.1869 20.2302 42.1663L28.4235 41.3949C28.641 41.3758 28.8348 41.5343 28.8554 41.7513C28.876 41.9699 28.7157 42.1615 28.4981 42.1821L20.3048 42.9536C20.2921 42.9536 20.2794 42.9551 20.2667 42.9551H20.2683Z" fill="#808285"/>
<path d="M18.9585 38.0517C18.7568 38.0517 18.5838 37.898 18.5631 37.6921C18.5425 37.4751 18.7028 37.2818 18.9204 37.2613L27.1137 36.4898C27.3312 36.4692 27.525 36.6292 27.5456 36.8462C27.5662 37.0632 27.4059 37.2565 27.1883 37.2771L18.995 38.0485C18.9823 38.0485 18.9696 38.0501 18.9569 38.0501L18.9585 38.0517Z" fill="#212B6B"/>
<path opacity="0.5" d="M21.3704 51.2657C21.1703 51.2657 20.9988 51.1152 20.9766 50.914C20.9528 50.697 21.11 50.5006 21.3275 50.4768L37.6872 48.6662C37.9047 48.6409 38.1016 48.7993 38.1254 49.0163C38.1492 49.2333 37.992 49.4297 37.7745 49.4535L21.4149 51.2641C21.4006 51.2657 21.3847 51.2672 21.3704 51.2672V51.2657Z" fill="#808285"/>
<path opacity="0.5" d="M21.8184 52.8968C21.6183 52.8968 21.4468 52.7463 21.4246 52.5451C21.4008 52.3281 21.558 52.1317 21.7755 52.1079L38.1352 50.2973C38.3527 50.272 38.5496 50.4304 38.5734 50.6474C38.5972 50.8644 38.44 51.0609 38.2225 51.0846L21.8628 52.8952C21.8485 52.8968 21.8327 52.8983 21.8184 52.8983V52.8968Z" fill="#808285"/>
<path opacity="0.5" d="M22.266 54.5268C22.0659 54.5268 21.8944 54.3763 21.8722 54.1752C21.8484 53.9581 22.0056 53.7617 22.2231 53.738L30.4037 52.8335C30.6213 52.8081 30.8182 52.9665 30.842 53.1836C30.8658 53.4006 30.7086 53.597 30.4911 53.6207L22.3104 54.5252C22.2962 54.5268 22.2803 54.5284 22.266 54.5284V54.5268Z" fill="#808285"/>
<path d="M20.8766 49.6469C20.6765 49.6469 20.505 49.4965 20.4828 49.2953C20.459 49.0783 20.6162 48.8818 20.8337 48.8581L29.0143 47.9536C29.2334 47.9282 29.4287 48.0867 29.4526 48.3037C29.4764 48.5207 29.3192 48.7171 29.1016 48.7409L20.921 49.6454C20.9067 49.6469 20.8909 49.6485 20.8766 49.6485V49.6469Z" fill="#212B6B"/>
<path d="M35.4601 25.7021C36.5954 26.0743 37.6466 26.5765 38.5072 27.481C39.6219 26.049 40.627 24.7532 42.2005 23.6365C40.7095 25.436 39.5536 27.4223 38.7755 29.5165C38.0435 28.1067 36.8844 26.7428 35.4601 25.7021Z" fill="#212B6B"/>
<g clip-path="url(#clip1_4210_4278)">
<path d="M41.2547 48.2355L43.6599 50.5314L41.2547 48.2355ZM43.3319 48.0168L41.5827 50.6407L43.3319 48.0168Z" fill="#E95454"/>
<path d="M41.2547 48.2355L43.6599 50.5314M43.3319 48.0168L41.5827 50.6407" stroke="#E95454" stroke-width="1.5" stroke-linecap="round" stroke-linejoin="round"/>
</g>
<path d="M39.2662 37.0055L41.6714 39.3014L39.2662 37.0055ZM41.3434 36.7869L39.5942 39.4108L41.3434 36.7869Z" fill="#E95454"/>
<path d="M39.2662 37.0055L41.6714 39.3014M41.3434 36.7869L39.5942 39.4108" stroke="#E95454" stroke-width="1.5" stroke-linecap="round" stroke-linejoin="round"/>
<path d="M52.8487 28.8328L56.0176 29.492L52.8487 30.1929L52.2008 33.6807L51.611 30.1929L48.4338 29.492L51.611 28.8328L52.2008 25.3533L52.8487 28.8328Z" fill="#FFA4AC"/>
<path d="M59.3113 38.7752L62.4802 39.4344L59.3113 40.1353L58.6634 43.6231L58.0736 40.1353L54.8964 39.4344L58.0736 38.7752L58.6634 35.2957L59.3113 38.7752Z" fill="white"/>
</g>
<defs>
<clipPath id="clip0_4210_4278">
<rect width="73.077" height="69.1" fill="white" transform="translate(0.46151)"/>
</clipPath>
<clipPath id="clip1_4210_4278">
<rect width="5.24779" height="5.24779" fill="white" transform="translate(39.8332 46.8149)"/>
</clipPath>
</defs>
</svg>
