<svg width="180" height="112" viewBox="0 0 180 112" fill="none" xmlns="http://www.w3.org/2000/svg">
<g clip-path="url(#clip0_1535_13436)">
<path fill-rule="evenodd" clip-rule="evenodd" d="M136.441 80.0487C137.339 79.031 139.173 76.5637 141.192 71.6678L137.983 72.5544L136.64 73.1713C135.266 53.4102 131.398 33.1325 126.263 12.4847C125.949 11.228 124.69 10.2642 123.462 10.3567C99.4766 12.1224 74.44 17.0337 48.7739 22.9474C48.6358 20.5958 48.275 16.4863 47.4768 16.9952C46.3639 17.7122 42.5416 25.4763 42.5416 25.4763C42.3421 25.8464 42.2346 26.255 42.2577 26.6637C43.2554 48.1056 47.354 70.1643 52.9493 92.6779C53.264 93.9424 54.5227 94.8984 55.7507 94.8059C81.0483 92.9401 107.52 87.5815 134.66 81.2361C135.105 81.1281 135.527 80.92 135.873 80.6347C136.088 80.4573 136.287 80.2646 136.448 80.041L136.441 80.0487Z" fill="#F1854F"/>
<path d="M141.353 70.7498C141.407 71.9526 140.371 73.1785 139.05 73.4869C111.911 79.8247 85.4465 85.1909 60.1413 87.0568C58.9132 87.1493 57.6545 86.1855 57.3398 84.9288C51.7445 62.4229 47.646 40.3565 46.6482 18.9146C46.5945 17.7118 47.6306 16.4859 48.9508 16.1775C76.0904 9.83201 102.562 4.46575 127.86 2.59989C129.088 2.50737 130.347 3.47114 130.661 4.7356C136.257 27.2415 140.348 49.3079 141.353 70.7498Z" fill="#F9D555"/>
<path d="M82.4458 36.9955C82.4535 37.1651 82.2923 37.3424 82.0927 37.3887C77.9481 38.2908 73.8956 39.0541 70.0349 39.3239C69.8431 39.3393 69.6512 39.2006 69.6051 39.0232C68.7455 35.8158 68.1238 32.6778 67.9703 29.6246C67.9626 29.4549 68.1238 29.2776 68.3234 29.2313C72.468 28.3293 76.5205 27.5659 80.3888 27.2961C80.5807 27.2807 80.7726 27.4195 80.8187 27.5968C81.6783 30.8042 82.3 33.9422 82.4535 36.9955H82.4458Z" fill="white"/>
<path d="M85.9223 55.8782C85.93 56.0478 85.7688 56.2251 85.5692 56.2637C81.4246 57.1658 77.3721 57.9291 73.5114 58.1989C73.3196 58.2066 73.1277 58.0755 73.0816 57.8982C72.222 54.6908 71.6003 51.5528 71.4468 48.4996C71.4391 48.3299 71.6003 48.1526 71.7999 48.1063C75.9522 47.2043 79.997 46.4409 83.8653 46.1711C84.0496 46.1557 84.2414 46.2945 84.2952 46.4718C85.1548 49.6792 85.7765 52.8172 85.93 55.8705L85.9223 55.8782Z" fill="white"/>
<path d="M89.3991 74.7678C89.4068 74.9374 89.2456 75.1148 89.046 75.1533C84.8937 76.0554 80.8489 76.8187 76.9805 77.0886C76.7887 77.104 76.5968 76.9652 76.5507 76.7879C75.6988 73.5804 75.0694 70.4424 74.9159 67.3892C74.9159 67.2196 75.0694 67.0422 75.269 66.996C79.4213 66.0939 83.4661 65.3306 87.3344 65.0607C87.5263 65.0453 87.7105 65.1841 87.7643 65.3614C88.6162 68.5689 89.2456 71.7069 89.3991 74.7601V74.7678Z" fill="white"/>
<path fill-rule="evenodd" clip-rule="evenodd" d="M73.8805 96.6104L58.2383 77.0498L46.9327 87.3043L34.5525 84.9835L32.9023 109.641C32.8639 110.188 33.1556 110.388 33.5394 110.095L40.7387 104.575C41.1225 104.282 41.7058 104.39 42.0435 104.814L48.2221 112.732C48.5522 113.156 48.8668 113.064 48.9282 112.524L50.778 94.1895L61.9531 107.266C62.3139 107.682 62.6362 107.605 62.6746 107.081L63.3424 97.3352C63.3807 96.8109 63.8105 96.4177 64.3094 96.4639L73.6042 97.3198C74.103 97.366 74.2259 97.0499 73.8805 96.6181V96.6104Z" fill="#29AEFD"/>
<path fill-rule="evenodd" clip-rule="evenodd" d="M62.2753 82.1001L58.2381 77.0576L46.9325 87.3121L34.5523 84.9914L34.0688 92.208C37.1696 93.5573 40.6772 94.1124 44.5609 93.8195C52.6966 93.2181 58.7984 89.1934 62.2676 82.1078L62.2753 82.1001Z" fill="#074785"/>
<path fill-rule="evenodd" clip-rule="evenodd" d="M66.5042 59.9872C70.0501 72.8632 62.536 86.1863 49.7184 89.7407C36.9007 93.3027 23.6379 85.7545 20.0996 72.8786C16.5536 60.0026 24.0677 46.6872 36.8854 43.1251C49.703 39.5631 62.9582 47.1113 66.5042 59.9872Z" fill="#FD6085"/>
<path fill-rule="evenodd" clip-rule="evenodd" d="M40.7156 60.0636L46.7561 50.2871L47.301 61.7752L58.7448 62.1376L49.1124 68.3597L54.5234 78.4985L44.3384 73.2325L38.3056 83.0089L37.7607 71.5208L26.3092 71.1507L35.9416 64.9287L30.5383 54.7898L40.7156 60.0636Z" fill="white"/>
<path fill-rule="evenodd" clip-rule="evenodd" d="M47.4926 86.5022C46.8248 83.3333 46.1648 80.1645 45.5047 77.0033C45.7964 76.9416 46.0957 76.8722 46.3874 76.8105C47.0474 79.9794 47.7152 83.1483 48.3752 86.3094C48.0836 86.3711 47.7919 86.4328 47.5003 86.5022H47.4926Z" fill="#FFA4AC"/>
<path fill-rule="evenodd" clip-rule="evenodd" d="M38.5281 55.5001C37.8604 52.3313 37.2003 49.1624 36.5402 45.9935C36.8319 45.9319 37.1235 45.8702 37.4229 45.8008C38.0829 48.9696 38.7507 52.1385 39.4108 55.2997C39.1191 55.3614 38.8274 55.423 38.5358 55.4924L38.5281 55.5001Z" fill="#FFA4AC"/>
<path fill-rule="evenodd" clip-rule="evenodd" d="M56.6115 51.9916C54.6006 54.5205 52.582 57.0417 50.5711 59.5706C50.3331 59.3856 50.1029 59.1928 49.8649 59.0078C51.8835 56.4789 53.8944 53.9576 55.913 51.4287C56.151 51.6138 56.3812 51.7988 56.6191 51.9916H56.6115Z" fill="#FFA4AC"/>
<path fill-rule="evenodd" clip-rule="evenodd" d="M35.0898 74.7826C33.0789 77.3115 31.0603 79.8327 29.0418 82.3616C28.8038 82.1766 28.5736 81.9838 28.3356 81.7988C30.3465 79.2776 32.3651 76.7487 34.3837 74.2197C34.6217 74.4048 34.8519 74.5898 35.0898 74.7826Z" fill="#FFA4AC"/>
<path fill-rule="evenodd" clip-rule="evenodd" d="M62.0374 72.8481C58.9366 71.9691 55.8358 71.0901 52.735 70.2189C52.8117 69.9259 52.8962 69.6406 52.9729 69.3477C56.0737 70.2266 59.1745 71.1056 62.2753 71.9845C62.1986 72.2775 62.1141 72.5628 62.0374 72.8558V72.8481Z" fill="#FFA4AC"/>
<path fill-rule="evenodd" clip-rule="evenodd" d="M32.4112 64.475C29.3104 63.5961 26.2096 62.7171 23.1088 61.8459C23.1855 61.5529 23.2699 61.2676 23.3467 60.9746C26.4475 61.8536 29.5483 62.7325 32.6491 63.6115C32.5723 63.9045 32.4879 64.1897 32.4112 64.4827V64.475Z" fill="#FFA4AC"/>
<path d="M150.333 47.6275L156.19 48.8457L150.333 50.141L149.136 56.5867L148.046 50.141L142.175 48.8457L148.046 47.6275L149.136 41.1973L150.333 47.6275Z" fill="#FFA4AC"/>
<path d="M34.7515 30.7808L40.6077 31.999L34.7515 33.2943L33.5542 39.74L32.4643 33.2943L26.5927 31.999L32.4643 30.7808L33.5542 24.3506L34.7515 30.7808Z" fill="#FFA4AC"/>
<path d="M131.1 56.587L134.101 57.2039L131.1 57.8669L130.485 61.1746L129.925 57.8669L126.917 57.2039L129.925 56.587L130.485 53.2871L131.1 56.587Z" fill="#074785"/>
<path d="M98.9168 41.5978L101.918 42.2146L98.9168 42.8854L98.3028 46.1853L97.7425 42.8854L94.7415 42.2146L97.7425 41.5978L98.3028 38.2979L98.9168 41.5978Z" fill="#074785"/>
<path d="M121.751 21.2346L124.752 21.8591L121.751 22.5222L121.144 25.8299L120.584 22.5222L117.575 21.8591L120.584 21.2346L121.144 17.9424L121.751 21.2346Z" fill="#074785"/>
<path d="M58.2536 29.2081L61.2547 29.825L58.2536 30.488L57.6396 33.7957L57.0793 30.488L54.0783 29.825L57.0793 29.2081L57.6396 25.9082L58.2536 29.2081Z" fill="#074785"/>
<path d="M103.691 23.7034L106.692 24.3279L103.691 24.991L103.077 28.2986L102.517 24.991L99.5081 24.3279L102.517 23.7034L103.077 20.4111L103.691 23.7034Z" fill="white"/>
<path d="M110.407 67.8361L113.408 68.4529L110.407 69.116L109.793 72.4236L109.24 69.116L106.231 68.4529L109.24 67.8361L109.793 64.5361L110.407 67.8361Z" fill="white"/>
<path fill-rule="evenodd" clip-rule="evenodd" d="M78.6009 33.2791C78.8772 33.0478 79.1228 32.8473 79.3684 32.6314C81.1721 31.074 82.7686 29.3854 84.5799 27.828C84.9637 27.4965 85.3782 27.1881 85.7849 26.8874C86.0843 26.6638 86.8979 26.2012 87.0744 26.8334C87.1742 27.2035 86.8671 27.6198 86.6753 27.9128C85.7235 29.3546 84.342 30.4263 83.183 31.6754C81.7478 33.2174 80.159 34.7132 78.7314 36.2552C78.7084 36.2783 78.693 36.2937 78.67 36.3169C78.4858 36.5019 78.34 36.5019 78.1634 36.3092C77.8564 35.9776 77.5494 35.6461 77.2424 35.3145C76.3137 34.3122 75.3927 33.3022 74.464 32.2999C74.1723 31.9838 74.2183 31.6985 74.5944 31.4749C74.9475 31.2667 75.2929 31.0663 75.6459 30.8581C75.9376 30.6808 76.1986 30.7116 76.4288 30.9506C77.1042 31.6754 77.7873 32.3924 78.4628 33.1172C78.5011 33.1634 78.5395 33.2097 78.5932 33.2791H78.6009Z" fill="#F1854F"/>
<path fill-rule="evenodd" clip-rule="evenodd" d="M82.0317 52.1834C82.308 51.9521 82.5536 51.7516 82.7992 51.5357C84.6029 49.9783 86.1994 48.2897 88.0107 46.7323C88.3945 46.4008 88.8089 46.0924 89.2157 45.7917C89.5151 45.5681 90.3286 45.1055 90.5052 45.7377C90.6049 46.1078 90.2979 46.5241 90.1061 46.8171C89.1543 48.2589 87.7728 49.3306 86.6138 50.5797C85.1785 52.1217 83.5898 53.6175 82.1622 55.1595C82.1392 55.1826 82.1238 55.198 82.1008 55.2212C81.9166 55.4062 81.7707 55.4062 81.5942 55.2212C81.2872 54.8896 80.9802 54.5581 80.6732 54.2266C79.7445 53.2242 78.8234 52.2142 77.8947 51.2119C77.6031 50.8958 77.6491 50.6105 78.0252 50.3869C78.3783 50.1787 78.7313 49.9783 79.0767 49.7701C79.3684 49.5928 79.6293 49.6236 79.8596 49.8626C80.535 50.5874 81.2181 51.3121 81.8935 52.0292C81.9319 52.0754 81.9703 52.1217 82.024 52.1911L82.0317 52.1834Z" fill="#F1854F"/>
<path fill-rule="evenodd" clip-rule="evenodd" d="M85.0094 70.573C85.2857 70.3417 85.5313 70.1412 85.7769 69.9254C87.5806 68.3679 89.177 66.6794 90.9884 65.1219C91.3721 64.7904 91.7866 64.482 92.1934 64.1813C92.4927 63.9577 93.3063 63.4951 93.4828 64.1273C93.5826 64.4974 93.2756 64.9138 93.0837 65.2068C92.1397 66.6486 90.7581 67.7203 89.5915 68.9693C88.1562 70.5113 86.5674 72.0071 85.1398 73.5491C85.1168 73.5723 85.1015 73.5877 85.0784 73.6108C84.8866 73.7959 84.7484 73.7959 84.5719 73.6108C84.2649 73.2793 83.9578 72.9477 83.6508 72.6162C82.7221 71.6139 81.8011 70.6039 80.8724 69.6015C80.5807 69.2854 80.6268 69.0001 81.0029 68.7765C81.3559 68.5684 81.7013 68.3679 82.0544 68.1597C82.346 67.9824 82.607 68.0132 82.8373 68.2523C83.5127 68.977 84.1958 69.6941 84.8712 70.4188C84.9096 70.4651 84.948 70.5113 85.0017 70.5807L85.0094 70.573Z" fill="#F1854F"/>
<path fill-rule="evenodd" clip-rule="evenodd" d="M104.665 53.7793C104.872 54.2265 105.079 54.6737 105.287 55.1286C104.849 55.4216 104.412 55.7145 103.974 56.0075C103.683 56.1849 103.383 56.3622 103.099 56.5472C102.654 56.8402 102.309 56.8479 102.04 56.3622C101.764 55.8765 101.994 55.5064 102.431 55.2134C102.999 54.8356 103.583 54.4655 104.158 54.0877C104.327 53.9875 104.504 53.8872 104.673 53.7793H104.665Z" fill="#074785"/>
<path fill-rule="evenodd" clip-rule="evenodd" d="M159.773 20.4334C158.89 17.8197 143.394 24.8745 128.78 33.5869C117.728 40.2254 105.647 50.1792 103.92 53.0165C103.375 54.0959 104.181 56.7019 105.24 56.5169C109.515 55.6611 123.101 49.2771 134.314 42.6386C141.813 38.1745 147.991 33.5869 152.643 29.4543C157.217 25.3756 160.249 21.7673 159.781 20.4334H159.773Z" fill="#A089E4"/>
<path fill-rule="evenodd" clip-rule="evenodd" d="M117.015 41.459C114.628 43.2246 112.433 44.9825 110.475 46.6556C111.627 48.8993 112.709 51.1198 113.768 53.3095C116.216 52.2223 118.918 50.9425 121.727 49.5315C120.177 46.8715 118.642 44.1807 117.007 41.4667L117.015 41.459Z" fill="#074785"/>
<path fill-rule="evenodd" clip-rule="evenodd" d="M142.942 37.0568C152.812 30.1331 160.364 22.6465 159.773 20.4337C159.121 18.244 148.959 22.5463 137.569 28.5756C139.319 31.3821 141.061 34.204 142.942 37.0568Z" fill="#FFA4AC"/>
<path d="M155.959 21.4277C155.844 21.1887 155.682 20.6721 155.59 20.4177L153.986 20.8109C153.986 20.8109 153.71 20.1787 153.157 19.3845C151.745 17.3414 149.512 16.6166 147.24 18.0353C144.315 19.8626 141.407 21.7053 138.528 23.5018C135.044 25.6837 133.087 26.6938 128.121 29.9706C127.591 30.3252 129.118 30.5874 129.295 30.6105C129.786 30.6722 130.293 30.6568 130.769 30.518C131.244 30.3792 131.621 30.0862 132.043 29.8318C136.901 26.74 141.951 23.5634 147.485 20.0476C149.75 18.5981 151.146 19.0684 152.029 21.5357C151.392 21.8672 150.724 22.1525 150.087 22.484C151.077 24.2805 152.589 26.686 153.672 28.5056C154.424 27.8349 156.181 26.2311 157.716 24.3576C156.696 23.016 156.45 22.4223 155.951 21.4277H155.959Z" fill="#074785"/>
<path fill-rule="evenodd" clip-rule="evenodd" d="M127.092 44.5127C130.523 42.8319 133.754 40.9429 136.802 38.784C137.93 37.9668 136.763 36.3631 135.643 37.1572C132.626 39.2775 129.433 41.1125 126.064 42.7471C124.805 43.3484 125.795 45.1449 127.092 44.5127Z" fill="white"/>
<path d="M71.7772 8.4983C69.5821 6.97169 66.7883 7.26467 64.5855 8.59853C62.9353 9.60085 61.0472 11.2354 60.9551 13.4251C61.5768 13.2863 62.3289 13.1167 63.0734 12.9548C63.4495 11.8985 64.5624 11.1275 65.399 10.5723C66.9571 9.54688 68.9066 9.21534 70.5415 10.1945C71.7388 10.9116 72.3375 11.9293 72.4449 13.4019C72.5217 14.4891 72.3298 15.4066 71.7158 16.0465C71.3627 15.715 70.9022 15.5145 70.411 15.5145C69.2674 15.5145 68.3463 16.5708 68.3463 17.8738C68.3463 19.1768 69.275 20.2331 70.411 20.2331C71.4778 20.2331 72.3605 19.3002 72.4679 18.1051C73.7267 17.203 74.4021 15.8229 74.4558 13.9956C74.5249 11.644 73.5962 9.73963 71.7772 8.47517V8.4983Z" fill="#074785"/>
<path d="M92.8154 4.53541C90.628 3.0088 87.8265 3.30178 85.6237 4.63564C84.0887 5.56857 82.3464 7.04891 82.0394 9.015C82.7071 8.89164 83.513 8.74514 84.2882 8.60636C84.7641 7.75054 85.7081 7.09517 86.4373 6.61715C87.9954 5.5917 89.9449 5.26016 91.5797 6.23935C92.777 6.95639 93.3757 7.97413 93.4832 9.44677C93.5676 10.5339 93.368 11.4514 92.754 12.0913C92.401 11.7598 91.9404 11.5593 91.4492 11.5593C90.3056 11.5593 89.3846 12.6156 89.3846 13.9186C89.3846 15.2217 90.3133 16.278 91.4492 16.278C92.5161 16.278 93.3987 15.345 93.5062 14.15C94.7649 13.2479 95.4403 11.8678 95.4941 10.0404C95.5632 7.68886 94.6344 5.78445 92.8154 4.5277V4.53541Z" fill="#074785"/>
<path d="M113.861 1.02759C111.666 -0.499014 108.872 -0.206029 106.669 1.12783C105.157 2.04533 103.453 3.48713 103.1 5.40695C103.722 5.31443 104.528 5.20649 105.342 5.09084C105.817 4.23501 106.754 3.59507 107.483 3.11704C109.041 2.09159 110.99 1.76006 112.625 2.73925C113.823 3.45629 114.421 4.47403 114.529 5.94666C114.606 7.03379 114.414 7.9513 113.8 8.59124C113.447 8.25971 112.994 8.05924 112.495 8.05924C111.351 8.05924 110.43 9.11553 110.43 10.4185C110.43 11.7216 111.359 12.7779 112.495 12.7779C113.569 12.7779 114.444 11.8449 114.552 10.6499C115.811 9.74776 116.494 8.36765 116.54 6.54034C116.609 4.18875 115.68 2.28435 113.861 1.01988V1.02759Z" fill="#074785"/>
<path d="M120.661 74.0802C120.661 74.0802 120.899 73.9722 121.328 73.8103C121.75 73.6484 122.364 73.4248 123.101 73.2012C123.838 72.9622 124.698 72.7232 125.626 72.4687C126.555 72.2297 127.553 71.9984 128.558 71.7825C129.556 71.5744 130.569 71.3893 131.513 71.2428C132.465 71.0963 133.348 70.9807 134.115 70.9113C134.883 70.8265 135.52 70.7956 135.973 70.7725C136.426 70.7494 136.687 70.7571 136.687 70.7571C136.687 70.7571 136.449 70.865 136.019 71.027C135.597 71.1889 134.983 71.4125 134.246 71.6361C133.509 71.8751 132.649 72.1141 131.721 72.3608C130.792 72.5998 129.794 72.8311 128.789 73.0393C127.791 73.2475 126.778 73.4248 125.834 73.579C124.882 73.7178 123.999 73.8412 123.232 73.9105C122.464 73.9876 121.82 74.0262 121.374 74.0493C120.922 74.0725 120.661 74.0647 120.661 74.0647V74.0802Z" fill="white"/>
<path d="M50.1564 19.6095C50.1564 19.6095 50.3944 19.5015 50.8242 19.3396C51.2463 19.1777 51.8603 18.9541 52.5971 18.7305C53.334 18.4915 54.1936 18.2448 55.1223 17.998C56.051 17.759 57.0488 17.5277 58.0466 17.3118C59.0444 17.1037 60.0575 16.9186 61.0015 16.7721C61.9533 16.6333 62.8359 16.51 63.6035 16.4406C64.371 16.3558 65.008 16.3249 65.4609 16.3018C65.9137 16.2787 66.1747 16.2864 66.1747 16.2864C66.1747 16.2864 65.9367 16.3943 65.5069 16.5562C65.0848 16.7182 64.4708 16.9418 63.7339 17.1653C62.9971 17.4044 62.1375 17.6434 61.2088 17.8901C60.2801 18.1291 59.2823 18.3604 58.2768 18.5686C57.279 18.7768 56.2659 18.9541 55.3219 19.1083C54.3701 19.2471 53.4875 19.3704 52.72 19.4398C51.9524 19.5169 51.3154 19.5555 50.8625 19.5786C50.4097 19.6018 50.1487 19.594 50.1487 19.594L50.1564 19.6095Z" fill="white"/>
<path d="M75.9602 85.469C75.9602 85.469 76.0907 85.4381 76.344 85.3765C76.5973 85.3225 76.958 85.2222 77.4262 85.122C77.8944 85.0141 78.4623 84.883 79.1147 84.7519C79.7671 84.6131 80.504 84.4512 81.3099 84.2893C82.1158 84.1274 82.9831 83.9501 83.9041 83.7805C84.8251 83.6031 85.7999 83.4104 86.8053 83.233C87.8108 83.0557 88.8546 82.8707 89.9138 82.6856C90.973 82.5006 92.0475 82.3309 93.1297 82.1536C94.2043 81.984 95.2865 81.8067 96.3457 81.6447C97.4048 81.4751 98.4564 81.3286 99.4695 81.1821C100.483 81.0279 101.457 80.8891 102.386 80.7581C103.315 80.627 104.197 80.5114 105.011 80.4111C105.418 80.3649 105.802 80.2955 106.178 80.2492C106.546 80.2029 106.899 80.1567 107.229 80.1104C107.889 80.0256 108.465 79.9562 108.948 79.9022C109.424 79.8483 109.8 79.8097 110.054 79.7866C110.307 79.7635 110.445 79.748 110.445 79.748C110.445 79.748 110.315 79.7866 110.069 79.8637C109.823 79.9331 109.463 80.0487 109.002 80.1721C108.542 80.3032 107.981 80.4651 107.337 80.6347C106.692 80.8043 105.963 81.0048 105.165 81.1976C104.366 81.3826 103.499 81.5908 102.578 81.7835C101.657 81.984 100.69 82.1999 99.6844 82.4003C98.6789 82.5931 97.6351 82.7936 96.5759 82.9786C95.5167 83.1714 94.4345 83.3564 93.36 83.5337C91.2032 83.873 89.0388 84.2045 87.0049 84.4589C85.9918 84.59 85.0016 84.698 84.0729 84.8136C83.1366 84.9293 82.2539 85.0064 81.4403 85.0835C79.8055 85.2454 78.4393 85.3379 77.4799 85.3996C77.004 85.4304 76.628 85.4458 76.367 85.4613C76.106 85.469 75.9756 85.4767 75.9756 85.4767L75.9602 85.469Z" fill="#074785"/>
<path d="M61.8066 54.2505C61.3691 53.7725 60.6707 54.4818 61.1005 54.9598C63.7715 57.882 64.5236 62.67 64.5467 66.4942C64.5467 67.1419 65.5444 67.1419 65.5444 66.4942C65.5214 62.377 64.6695 57.3885 61.8066 54.2505Z" fill="white"/>
<path d="M28.5124 50.025C25.2351 52.2378 23.0553 55.8538 22.165 59.6781C22.0192 60.3026 22.9786 60.5724 23.1244 59.9402C23.9533 56.3781 25.9566 52.9548 29.0113 50.8885C29.5409 50.5338 29.042 49.6626 28.5048 50.025H28.5124Z" fill="white"/>
<path d="M32.8332 47.0184C32.1194 47.3422 31.467 47.7123 30.8684 48.2289C30.3848 48.6529 31.091 49.3623 31.5745 48.9382C32.0964 48.4833 32.7028 48.1672 33.3321 47.8819C33.9154 47.6121 33.4089 46.7485 32.8256 47.0184H32.8332Z" fill="white"/>
<path d="M64.5397 68.9223C64.3632 69.5159 64.3786 70.1482 64.1406 70.7264C64.0332 70.9809 64.2481 71.2738 64.486 71.3432C64.77 71.4203 64.9926 71.243 65.1 70.9963C65.338 70.418 65.3226 69.7858 65.4991 69.1921C65.691 68.5753 64.7239 68.3132 64.5397 68.93V68.9223Z" fill="white"/>
</g>
<defs>
<clipPath id="clip0_1535_13436">
<rect width="180" height="112" fill="white"/>
</clipPath>
</defs>
</svg>
