<svg width="40" height="40" viewBox="0 0 40 40" fill="none" xmlns="http://www.w3.org/2000/svg">
<path d="M21.5 24C21.9142 24 22.25 24.3358 22.25 24.75C22.25 25.1642 21.9142 25.5 21.5 25.5H18.5C18.0858 25.5 17.75 25.1642 17.75 24.75C17.75 24.3358 18.0858 24 18.5 24H21.5ZM24.5 19C24.9142 19 25.25 19.3358 25.25 19.75C25.25 20.1642 24.9142 20.5 24.5 20.5H15.5C15.0858 20.5 14.75 20.1642 14.75 19.75C14.75 19.3358 15.0858 19 15.5 19H24.5ZM27.5 14C27.9142 14 28.25 14.3358 28.25 14.75C28.25 15.1642 27.9142 15.5 27.5 15.5H12.5C12.0858 15.5 11.75 15.1642 11.75 14.75C11.75 14.3358 12.0858 14 12.5 14H27.5Z" fill="currentColor"/>
</svg>
