<svg width="14" height="14" viewBox="0 0 14 14" fill="none" xmlns="http://www.w3.org/2000/svg">
<path d="M5.90626 12.9062C5.79023 12.9062 5.67895 12.8602 5.5969 12.7781C5.51485 12.6961 5.46876 12.5848 5.46876 12.4688V8.26219L1.41314 3.80187C1.25349 3.62595 1.14833 3.40746 1.11044 3.17293C1.07255 2.93841 1.10354 2.69792 1.19966 2.48067C1.29578 2.26341 1.45289 2.07873 1.65193 1.94903C1.85097 1.81933 2.08338 1.75019 2.32095 1.75H11.6791C11.9166 1.75019 12.149 1.81933 12.3481 1.94903C12.5471 2.07873 12.7042 2.26341 12.8004 2.48067C12.8965 2.69792 12.9275 2.93841 12.8896 3.17293C12.8517 3.40746 12.7465 3.62595 12.5869 3.80187L8.53126 8.26219V10.7188C8.53122 10.7843 8.51646 10.849 8.48806 10.908C8.45966 10.9671 8.41836 11.019 8.3672 11.06L6.1797 12.81C6.10214 12.8722 6.0057 12.9062 5.90626 12.9062ZM2.32095 2.625C2.25287 2.62517 2.1863 2.64507 2.12929 2.68229C2.07229 2.7195 2.02729 2.77245 1.99975 2.83471C1.97221 2.89696 1.9633 2.96587 1.97411 3.03309C1.98491 3.1003 2.01497 3.16295 2.06064 3.21344L6.23001 7.80719C6.30144 7.88574 6.34187 7.98759 6.34376 8.09375V11.5588L7.65626 10.5V8.09375C7.656 7.98457 7.69657 7.87923 7.77001 7.79844L11.9394 3.20469C11.9823 3.15397 12.0101 3.09214 12.0193 3.02633C12.0286 2.96053 12.0191 2.89344 11.9919 2.83281C11.9647 2.77219 11.9209 2.7205 11.8655 2.68373C11.8101 2.64696 11.7455 2.62659 11.6791 2.625H2.32095Z" fill="currentColor"/>
</svg>
