<svg width="25" height="24" viewBox="0 0 25 24" fill="none" xmlns="http://www.w3.org/2000/svg">
<rect x="0.25" width="24" height="24" rx="12" fill="#F3EFFE"/>
<path d="M6.75 15H17.75C18.1493 15 18.3875 14.5549 18.166 14.2226L15.3509 10L18.166 5.77735C18.3875 5.44507 18.1493 5 17.75 5H6.25C5.97386 5 5.75 5.22386 5.75 5.5V19.5C5.75 19.7761 5.97386 20 6.25 20C6.52614 20 6.75 19.7761 6.75 19.5V15ZM6.75 14V6H16.8157L14.334 9.72265C14.222 9.8906 14.222 10.1094 14.334 10.2774L16.8157 14H6.75Z" fill="#6A3DED"/>
</svg>
