<svg width="180" height="112" viewBox="0 0 180 112" fill="none" xmlns="http://www.w3.org/2000/svg">
<g clip-path="url(#clip0_19_14437)">
<path d="M61.8522 98.2813L59.3104 109.627L64.0114 108.99L71.9139 101.881L61.8522 98.2813Z" fill="#FFC727"/>
<path d="M61.8522 98.2813L59.3104 109.627L64.0114 108.99L71.9139 101.881L61.8522 98.2813Z" fill="#F1854F"/>
<path d="M124.877 88.6445L130.342 98.906L125.641 99.5425L116.132 94.7902L124.877 88.6445Z" fill="#F1854F"/>
<path d="M125.645 87.2767C141.864 65.9779 137.746 35.5639 116.447 19.345C95.148 3.12616 64.734 7.24425 48.5151 28.543C32.2962 49.8418 36.4143 80.2559 57.7131 96.4748C79.0119 112.694 109.426 108.576 125.645 87.2767Z" fill="#F1854F"/>
<path d="M92.6002 103.038C117.915 99.6102 135.658 76.31 132.23 50.9954C128.802 25.6808 105.502 7.93791 80.1877 11.3655C54.8731 14.7932 37.1302 38.0933 40.5578 63.4079C43.9854 88.7225 67.2856 106.465 92.6002 103.038Z" fill="#F1854F"/>
<path d="M121.527 83.9583C136.026 64.9182 132.344 37.7296 113.304 23.2308C94.2642 8.73193 67.0755 12.4133 52.5767 31.4533C38.0779 50.4934 41.7592 77.682 60.7993 92.1808C79.8393 106.68 107.028 102.998 121.527 83.9583Z" fill="white"/>
<path d="M127.78 42.9011C109.83 57.3967 80.3246 81.184 63.8029 94.2709C58.1888 90.6985 53.4153 85.8571 49.9339 80.0828L101.887 16.9777C113.737 21.3042 123.367 30.71 127.78 42.9011Z" fill="#EBEBEB"/>
<path d="M130.159 53.3874C130.661 58.3154 130.302 63.1454 129.21 67.726L79.0834 100.308C76.6275 99.8482 74.2353 99.1827 71.9276 98.3169C86.84 86.7777 114.099 65.7654 130.16 53.3902L130.159 53.3874Z" fill="#EBEBEB"/>
<path d="M82.0726 17.8252L81.2441 17.9374L82.1255 24.4469L82.954 24.3347L82.0726 17.8252Z" fill="#C7C7C7"/>
<path d="M62.8023 25.6563L62.1387 26.1694L66.1567 31.3661L66.8203 30.853L62.8023 25.6563Z" fill="#C7C7C7"/>
<path d="M50.0241 42.0751L49.707 42.8486L55.7851 45.3401L56.1022 44.5666L50.0241 42.0751Z" fill="#C7C7C7"/>
<path d="M53.6814 61.8025L47.1719 62.6839L47.284 63.5123L53.7936 62.6309L53.6814 61.8025Z" fill="#C7C7C7"/>
<path d="M60.1987 77.942L55.002 81.9601L55.5133 82.6214L60.71 78.6033L60.1987 77.942Z" fill="#C7C7C7"/>
<path d="M73.9121 88.6583L71.4238 94.7377L72.2001 95.0554L74.6884 88.976L73.9121 88.6583Z" fill="#C7C7C7"/>
<path d="M91.9769 90.9665L91.1484 91.0786L92.0298 97.5881L92.8583 97.476L91.9769 90.9665Z" fill="#C7C7C7"/>
<path d="M107.947 84.0439L107.283 84.557L111.301 89.7537L111.965 89.2406L107.947 84.0439Z" fill="#C7C7C7"/>
<path d="M118.319 70.0666L118.002 70.8401L124.08 73.3315L124.397 72.558L118.319 70.0666Z" fill="#C7C7C7"/>
<path d="M126.822 51.9003L120.312 52.7817L120.425 53.6102L126.934 52.7288L126.822 51.9003Z" fill="#C7C7C7"/>
<path d="M118.589 32.7973L113.393 36.8153L113.904 37.4767L119.101 33.4586L118.589 32.7973Z" fill="#C7C7C7"/>
<path d="M101.91 20.3663L99.4219 26.4457L100.198 26.7634L102.686 20.684L101.91 20.3663Z" fill="#C7C7C7"/>
<path d="M126.629 52.9113L85.1377 59.716L84.6365 55.6344L126.493 51.8029L126.629 52.9113Z" fill="#FFC727"/>
<path d="M83.3762 28.3792L89.468 59.8321L85.3857 60.3277L82.2678 28.515L83.3762 28.3792Z" fill="#263238"/>
<path d="M87.2411 59.0962C88.0088 58.9923 88.5469 58.2856 88.443 57.5179C88.339 56.7502 87.6324 56.2121 86.8647 56.3161C86.097 56.42 85.5589 57.1266 85.6628 57.8944C85.7668 58.6621 86.4734 59.2002 87.2411 59.0962Z" fill="#FFC727"/>
<path d="M63.9518 95.5268L61.41 106.872L66.111 106.236L74.0135 99.126L63.9518 95.5268Z" fill="#FFC727"/>
<path opacity="0.1" d="M63.9518 95.5268L61.41 106.872L66.111 106.236L74.0135 99.126L63.9518 95.5268Z" fill="black"/>
<path d="M124.237 87.3645L129.701 97.6259L125 98.2624L115.492 93.5102L124.237 87.3645Z" fill="#FFC727"/>
<path opacity="0.1" d="M124.237 87.3645L129.701 97.6259L125 98.2624L115.492 93.5102L124.237 87.3645Z" fill="black"/>
<path d="M127.744 84.5213C143.963 63.2225 139.845 32.8084 118.546 16.5896C97.2476 0.370721 66.8336 4.48882 50.6147 25.7876C34.3959 47.0864 38.5139 77.5005 59.8127 93.7193C81.1115 109.938 111.526 105.82 127.744 84.5213Z" fill="#FFC727"/>
<path opacity="0.1" d="M94.6998 100.283C120.014 96.8552 137.757 73.555 134.33 48.2404C130.902 22.9258 107.602 5.18293 82.2873 8.61055C56.9727 12.0382 39.2298 35.3383 42.6574 60.6529C46.0851 85.9675 69.3852 103.71 94.6998 100.283Z" fill="black"/>
<path d="M123.626 81.2028C138.125 62.1628 134.444 34.9742 115.404 20.4753C96.3638 5.97649 69.1751 9.65786 54.6763 28.6979C40.1775 47.7379 43.8588 74.9266 62.8989 89.4254C81.9389 103.924 109.128 100.243 123.626 81.2028Z" fill="white"/>
<path opacity="0.8" d="M129.882 40.1462C111.932 54.6417 82.4261 78.429 65.9044 91.5159C60.2904 87.9436 55.5168 83.1021 52.0354 77.3278L103.988 14.2227C115.839 18.5492 125.468 27.955 129.882 40.1462Z" fill="#EBEBEB"/>
<path opacity="0.8" d="M132.259 50.6324C132.76 55.5605 132.402 60.3905 131.309 64.971L81.183 97.5529C78.7271 97.0932 76.3349 96.4277 74.0272 95.562C88.9396 84.0228 116.199 63.0105 132.259 50.6352L132.259 50.6324Z" fill="#EBEBEB"/>
<path d="M84.1741 15.0702L83.3457 15.1824L84.2271 21.6919L85.0555 21.5797L84.1741 15.0702Z" fill="#C7C7C7"/>
<path d="M64.9038 22.9017L64.2402 23.4148L68.2583 28.6115L68.9219 28.0984L64.9038 22.9017Z" fill="#C7C7C7"/>
<path d="M52.1257 39.321L51.8086 40.0945L57.8867 42.586L58.2038 41.8125L52.1257 39.321Z" fill="#C7C7C7"/>
<path d="M55.7829 59.0474L49.2734 59.9288L49.3856 60.7573L55.8951 59.8759L55.7829 59.0474Z" fill="#C7C7C7"/>
<path d="M62.3002 75.187L57.1035 79.205L57.6149 79.8664L62.8116 75.8483L62.3002 75.187Z" fill="#C7C7C7"/>
<path d="M76.0137 85.9033L73.5254 91.9827L74.3017 92.3004L76.79 86.221L76.0137 85.9033Z" fill="#C7C7C7"/>
<path d="M94.0784 88.2114L93.25 88.3236L94.1314 94.8331L94.9598 94.7209L94.0784 88.2114Z" fill="#C7C7C7"/>
<path d="M110.048 81.2889L109.385 81.8019L113.403 86.9986L114.066 86.4856L110.048 81.2889Z" fill="#C7C7C7"/>
<path d="M120.421 67.3115L120.104 68.0851L126.182 70.5765L126.499 69.803L120.421 67.3115Z" fill="#C7C7C7"/>
<path d="M128.924 49.1444L122.414 50.0258L122.526 50.8542L129.036 49.9728L128.924 49.1444Z" fill="#C7C7C7"/>
<path d="M120.691 30.0422L115.494 34.0603L116.005 34.7217L121.202 30.7036L120.691 30.0422Z" fill="#C7C7C7"/>
<path d="M104.012 17.6112L101.523 23.6906L102.3 24.0084L104.788 17.929L104.012 17.6112Z" fill="#C7C7C7"/>
<path d="M136.358 18.0438C136.645 27.4408 129.251 35.2989 119.854 35.5868C116.056 35.6989 112.512 34.5634 109.61 32.5366L101.335 34.9189L104.568 27.0488C103.203 24.6961 102.398 21.9764 102.311 19.0831C102.023 9.6861 109.418 1.82799 118.815 1.54013C128.212 1.25226 136.07 8.64672 136.358 18.0438Z" fill="#FD6085"/>
<path d="M136.359 18.0463C136.422 21.1784 135.707 24.3466 134.112 27.0585C133.756 27.7584 133.257 28.3737 132.819 29.0292C132.303 29.6192 131.834 30.2512 131.239 30.7754C130.136 31.8954 128.847 32.8256 127.475 33.5939C126.113 34.3952 124.601 34.8982 123.08 35.2913C122.303 35.4381 121.537 35.6181 120.745 35.656C119.959 35.7416 119.165 35.7659 118.376 35.7271C115.209 35.5874 112.093 34.5395 109.471 32.7383L109.677 32.7728L101.417 35.2086L100.817 35.3869L101.057 34.8066L104.268 26.9257L104.286 27.2144C101.592 22.6775 101.271 16.8763 103.291 12.0337C104.294 9.60998 105.856 7.42255 107.812 5.68788C109.767 3.94639 112.144 2.70256 114.65 2.00964C117.163 1.32261 119.823 1.19826 122.378 1.68431C124.927 2.17809 127.353 3.25009 129.427 4.7927C133.63 7.82878 136.222 12.8926 136.365 18.0453L136.359 18.0463ZM136.359 18.0463C136.181 12.8913 133.559 7.86616 129.355 4.87866C127.266 3.37966 124.847 2.36213 122.326 1.92005C119.8 1.4925 117.188 1.65898 114.747 2.37084C112.307 3.08951 110.015 4.3427 108.148 6.06539C106.287 7.78716 104.807 9.91495 103.842 12.2573C102.855 14.5957 102.531 17.1702 102.664 19.6897C102.846 22.2095 103.597 24.6869 104.844 26.8823L104.926 27.0238L104.863 27.171L101.601 35.0312L101.241 34.6292L109.53 32.3005L109.644 32.2712L109.736 32.335C112.253 34.1296 115.276 35.2109 118.38 35.4007C119.156 35.4482 119.932 35.4402 120.706 35.3701C121.486 35.3476 122.248 35.189 123.014 35.0576C124.518 34.6945 126.028 34.2265 127.386 33.4533C128.757 32.72 130.056 31.8161 131.161 30.7097C131.75 30.1932 132.22 29.568 132.743 28.9772C133.183 28.3352 133.683 27.7267 134.039 27.0268C135.643 24.3345 136.386 21.1694 136.344 18.0413L136.359 18.0463Z" fill="#29AEFD"/>
<path d="M127.113 10.6518C125.81 14.4695 108.645 31.5774 111.905 25.643C115.164 19.7085 126.46 8.52918 127.113 10.6518Z" fill="white"/>
<path d="M111.495 10.6518C112.798 14.4695 129.962 31.5774 126.703 25.643C123.443 19.7085 112.147 8.52918 111.495 10.6518Z" fill="white"/>
<path fill-rule="evenodd" clip-rule="evenodd" d="M93.4824 52.7814C93.2549 51.9725 93.0458 51.2633 92.857 50.5245C91.434 45.1525 90.5825 39.8009 89.1447 34.4188C88.8421 33.2755 88.45 32.1363 88.0625 31.0221C87.7805 30.1977 86.8229 28.2364 85.6511 29.2213C84.972 29.8025 85.0152 31.0081 84.999 31.8247C84.934 35.8529 86.1835 39.7343 86.7711 43.6641C87.5052 48.5216 88.5956 53.492 89.3148 58.3395C89.3287 58.4143 89.338 58.4642 89.3519 58.539C89.463 59.1377 89.7438 59.3296 90.3373 59.1908C91.3646 58.9565 92.392 58.7222 93.4193 58.4879C96.5263 57.7803 99.6287 57.0478 102.736 56.3402C103.713 56.1154 104 55.5056 103.57 54.5802C103.164 53.7148 102.763 52.8744 102.357 52.009C102.029 51.2838 101.486 50.9998 100.728 51.1569C98.4743 51.6634 96.2156 52.145 93.9615 52.6515C93.8267 52.6901 93.692 52.7286 93.4972 52.7915L93.4824 52.7814Z" fill="#F1854F"/>
<path fill-rule="evenodd" clip-rule="evenodd" d="M94.6318 52.9489C95.4681 52.8672 96.2048 52.8045 96.9617 52.7121C102.484 52.0871 107.779 50.9372 113.316 50.3223C114.491 50.1891 115.695 50.1407 116.874 50.0971C117.744 50.0605 119.919 50.2405 119.427 51.69C119.132 52.5338 117.993 52.9314 117.239 53.243C113.509 54.7663 109.439 55.0116 105.564 55.8912C100.771 56.9712 95.7443 57.7602 90.9666 58.8504C90.8918 58.8646 90.842 58.8741 90.7672 58.8883C90.169 59.0022 89.8883 58.8103 89.8021 58.2069C89.6473 57.1646 89.4925 56.1223 89.3377 55.08C88.8687 51.9281 88.4247 48.7716 87.9557 45.6198C87.8102 44.6274 88.2742 44.1387 89.2925 44.2032C90.2462 44.267 91.1749 44.3356 92.1286 44.3994C92.9235 44.4418 93.3853 44.8446 93.5141 45.6077C93.8607 47.8919 94.2322 50.1713 94.5789 52.4554C94.5919 52.595 94.6049 52.7345 94.617 52.9388L94.6318 52.9489Z" fill="#F1854F"/>
<path d="M92.749 52.8396L90.6549 38.7103L90.5312 37.7972L103.949 35.9804L105.926 51.3752L102.45 51.8718L92.749 52.8396Z" fill="#EBEBEB"/>
<path d="M16.8796 35.0055L23.0248 35.4395L17.2269 37.5708L16.8956 44.3148L14.8926 37.8869L8.72101 37.3763L14.5452 35.3216L14.769 28.6082L16.8796 35.0055Z" fill="#FFA4AC"/>
<path d="M157.595 21.3488L161.464 21.622L157.814 22.9638L157.605 27.2097L156.344 23.1628L152.458 22.8414L156.125 21.5478L156.266 17.3211L157.595 21.3488Z" fill="#FFA4AC"/>
<path d="M164.485 70.0129L170.63 70.447L164.832 72.5782L164.501 79.3222L162.498 72.8943L156.326 72.3837L162.151 70.329L162.374 63.6156L164.485 70.0129Z" fill="#FFA4AC"/>
</g>
<defs>
<clipPath id="clip0_19_14437">
<rect width="180" height="112" fill="white"/>
</clipPath>
</defs>
</svg>
