<svg width="16" height="16" viewBox="0 0 16 16" fill="none" xmlns="http://www.w3.org/2000/svg">
<path d="M1.6001 3.79961C1.6001 2.58458 2.58507 1.59961 3.8001 1.59961H12.2001C13.4151 1.59961 14.4001 2.58458 14.4001 3.79961V8.79961H13.6001V6.39961H6.96578L8.28294 7.71677C8.43915 7.87298 8.43915 8.12624 8.28294 8.28245C8.12673 8.43866 7.87346 8.43866 7.71726 8.28245L6.4001 6.96529V10.3996H7.29726C7.23426 10.5717 7.2001 10.7571 7.2001 10.9493V11.1996H3.8001C2.58507 11.1996 1.6001 10.2146 1.6001 8.99961V3.79961ZM2.4001 6.39961V8.99961C2.4001 9.77281 3.0269 10.3996 3.8001 10.3996H5.6001V6.96529L4.28294 8.28245C4.12673 8.43866 3.87346 8.43866 3.71726 8.28245C3.56105 8.12624 3.56105 7.87298 3.71726 7.71677L5.03441 6.39961H2.4001ZM3.41415 5.59961C3.27801 5.36427 3.2001 5.09104 3.2001 4.79961C3.2001 3.91595 3.91644 3.19961 4.8001 3.19961C5.09153 3.19961 5.36476 3.27752 5.6001 3.41366V2.39961H3.8001C3.0269 2.39961 2.4001 3.02641 2.4001 3.79961V5.59961H3.41415ZM4.8001 5.59961H5.6001V4.79961C5.6001 4.35778 5.24193 3.99961 4.8001 3.99961C4.35827 3.99961 4.0001 4.35778 4.0001 4.79961C4.0001 5.24144 4.35827 5.59961 4.8001 5.59961ZM6.4001 4.79961V5.59961H7.2001C7.64193 5.59961 8.0001 5.24144 8.0001 4.79961C8.0001 4.35778 7.64193 3.99961 7.2001 3.99961C6.75827 3.99961 6.4001 4.35778 6.4001 4.79961ZM8.58605 5.59961H13.6001V3.79961C13.6001 3.02641 12.9733 2.39961 12.2001 2.39961H6.4001V3.41366C6.63544 3.27752 6.90867 3.19961 7.2001 3.19961C8.08375 3.19961 8.8001 3.91595 8.8001 4.79961C8.8001 5.09104 8.72218 5.36427 8.58605 5.59961ZM15.2001 10.7996V13.1996C15.2001 13.8624 14.6628 14.3996 14.0001 14.3996H9.2001C8.53736 14.3996 8.0001 13.8624 8.0001 13.1996V10.7996C8.0001 10.1369 8.53736 9.59961 9.2001 9.59961H14.0001C14.6628 9.59961 15.2001 10.1369 15.2001 10.7996ZM14.4001 13.1996V12.3996C13.7374 12.3996 13.2001 12.9369 13.2001 13.5996H14.0001C14.0001 13.3787 14.1792 13.1996 14.4001 13.1996ZM14.0001 10.3996H13.2001C13.2001 11.0623 13.7374 11.5996 14.4001 11.5996V10.7996C14.1792 10.7996 14.0001 10.6205 14.0001 10.3996ZM9.20013 10.3996C9.20013 10.6205 9.02101 10.7996 8.8001 10.7996L8.80013 11.5996C9.46287 11.5996 10.0001 11.0624 10.0001 10.3996H9.20013ZM8.8001 13.1996C9.02101 13.1996 9.20013 13.3787 9.20013 13.5996H10.0001C10.0001 12.9369 9.46284 12.3996 8.8001 12.3996V13.1996ZM11.6001 10.7996C10.9374 10.7996 10.4001 11.3369 10.4001 11.9996C10.4001 12.6624 10.9374 13.1996 11.6001 13.1996C12.2629 13.1996 12.8001 12.6624 12.8001 11.9996C12.8001 11.3369 12.2629 10.7996 11.6001 10.7996Z" fill="#2BADF8"/>
</svg>
