<svg width="16" height="18" viewBox="0 0 16 18" fill="none" xmlns="http://www.w3.org/2000/svg">
<path d="M10.1052 0.578949C11.6167 0.578949 12.8421 1.80427 12.8421 3.31579C12.8421 3.85857 12.6841 4.36445 12.4115 4.78993L14.5263 4.78948C15.1076 4.78948 15.5789 5.26075 15.5789 5.84211V8.78948C15.5789 9.29845 15.2177 9.72306 14.7376 9.82089L14.7368 14.6842C14.7368 16.1436 13.5945 17.3362 12.1553 17.4167L12 17.4211H3.99997C2.54057 17.4211 1.34797 16.2788 1.26746 14.8395L1.26313 14.6842L1.26317 9.82106C0.782675 9.72355 0.421021 9.29875 0.421021 8.78948V5.84211C0.421021 5.26075 0.8923 4.78948 1.47365 4.78948L3.58839 4.78993C3.31587 4.36445 3.15786 3.85857 3.15786 3.31579C3.15786 1.80427 4.38319 0.578949 5.8947 0.578949C6.74148 0.578949 7.49844 0.963508 8.00046 1.56751C8.5015 0.963508 9.25846 0.578949 10.1052 0.578949ZM7.36839 9.84126H2.52628V14.6842C2.52628 15.4574 3.12175 16.0915 3.8791 16.153L3.99997 16.1579H7.36839V9.84126ZM13.4737 9.84126H8.63155V16.1579H12C12.7732 16.1579 13.4073 15.5624 13.4688 14.8051L13.4737 14.6842V9.84126ZM7.36839 6.05263H1.68418V8.57895L7.36839 8.57811V6.05263ZM14.3158 8.57895V6.05263H8.63155V8.57811L14.3158 8.57895ZM10.1052 1.84211C9.29134 1.84211 8.63155 2.5019 8.63155 3.31579V4.78863H10.1254L10.2261 4.78459C10.9835 4.72311 11.5789 4.08899 11.5789 3.31579C11.5789 2.5019 10.9191 1.84211 10.1052 1.84211ZM5.8947 1.84211C5.08081 1.84211 4.42102 2.5019 4.42102 3.31579C4.42102 4.08899 5.01648 4.72311 5.77384 4.78459L5.87449 4.78863H7.36839V3.31579L7.3635 3.19493C7.30202 2.43757 6.6679 1.84211 5.8947 1.84211Z" fill="#E0482A"/>
</svg>
