<svg width="16" height="17" viewBox="0 0 16 17" fill="none" xmlns="http://www.w3.org/2000/svg">
<path d="M0 5.4668C0 3.94801 1.23122 2.7168 2.75 2.7168H13.25C14.7688 2.7168 16 3.94801 16 5.4668V11.9668C16 13.4856 14.7688 14.7168 13.25 14.7168H2.75C1.23122 14.7168 0 13.4856 0 11.9668V5.4668ZM1 8.7168V11.9668C1 12.9333 1.7835 13.7168 2.75 13.7168H5V9.4239L3.35355 11.0704C3.15829 11.2656 2.84171 11.2656 2.64645 11.0704C2.45118 10.8751 2.45118 10.5585 2.64645 10.3632L4.29289 8.7168H1ZM2.26756 7.7168C2.09739 7.42262 2 7.08108 2 6.7168C2 5.61223 2.89543 4.7168 4 4.7168C4.36429 4.7168 4.70583 4.81419 5 4.98436V3.7168H2.75C1.7835 3.7168 1 4.5003 1 5.4668V7.7168H2.26756ZM4 7.7168H5V6.7168C5 6.16451 4.55228 5.7168 4 5.7168C3.44772 5.7168 3 6.16451 3 6.7168C3 7.26908 3.44772 7.7168 4 7.7168ZM6 6.7168V7.7168H7C7.55228 7.7168 8 7.26908 8 6.7168C8 6.16451 7.55228 5.7168 7 5.7168C6.44772 5.7168 6 6.16451 6 6.7168ZM8.73244 7.7168H15V5.4668C15 4.5003 14.2165 3.7168 13.25 3.7168H6V4.98436C6.29417 4.81419 6.63571 4.7168 7 4.7168C8.10457 4.7168 9 5.61223 9 6.7168C9 7.08108 8.90261 7.42262 8.73244 7.7168ZM6.70711 8.7168L8.35355 10.3632C8.54882 10.5585 8.54882 10.8751 8.35355 11.0704C8.15829 11.2656 7.84171 11.2656 7.64645 11.0704L6 9.4239V13.7168H13.25C14.2165 13.7168 15 12.9333 15 11.9668V8.7168H6.70711Z" fill="currentColor"/>
</svg>
