<svg width="156" height="120" viewBox="0 0 156 120" fill="none" xmlns="http://www.w3.org/2000/svg">
<g id="Layer_1">
<g clip-path="url(#clip0_9_2366)">
<path id="Vector" d="M96.1931 49.8835C97.0571 56.5416 101.123 61.4835 105.29 60.9287C109.444 60.3738 112.125 54.5287 111.261 47.8706C110.397 41.2126 106.332 36.2706 102.164 36.8255C98.0099 37.3803 95.3292 43.2255 96.1931 49.8835Z" fill="#EA366E"/>
<path id="Vector_2" d="M49.9356 29.3032C49.9356 29.3032 27.8799 32.9806 19.8504 61.071C11.8336 89.1742 16.5725 125.535 16.5725 125.535L57.2918 113.123L55.5258 63.2129L49.9356 29.3032Z" fill="black"/>
<path id="Vector_3" d="M119.532 91.7033C119.532 91.7033 108.999 84.5162 94.8843 84.0775C80.7564 83.6388 88.1126 123.161 88.1126 123.161H129.454L119.532 91.7033Z" fill="#ADA4F7"/>
<path id="Vector_4" d="M227.397 120.349L235.274 165.51C235.274 165.51 219.304 188.633 179.106 193.858C146.403 198.104 112.951 174.658 112.951 174.658L119.532 91.7036C119.532 91.7036 152.438 117.368 174.214 124.323C196.27 131.368 227.384 120.349 227.384 120.349H227.397Z" fill="#ADA4F7"/>
<path id="Vector_5" d="M74.8115 84.0777C74.8115 84.0777 59.2226 83.1874 44.3959 91.2519C25.9865 101.265 22.5562 226.891 23.8521 228.504C25.148 230.116 50.4054 234.258 89.8668 232.22C129.328 230.181 128.007 225.884 130.167 224.671C131.387 223.987 135.681 177.884 126.101 139.51C118.771 110.142 104.833 86.2842 104.833 86.2842C104.833 86.2842 103.258 100.71 74.8115 84.0777Z" fill="#ADA4F7"/>
<path id="Vector_6" d="M58.5484 86.1416C58.5484 86.1416 6.30576 95.1739 -9.6008 147.742C-25.5074 200.309 17.448 216.967 62.5123 218.361C107.577 219.754 112.684 215.251 112.684 215.251L109.012 174.167L76.3353 163.238L58.5611 86.1416H58.5484Z" fill="#ADA4F7"/>
<path id="Vector_7" d="M68.7378 69.9228C68.7378 69.9228 56.1599 70.4905 48.9181 52.6712C41.6763 34.8518 50.7349 20.9034 50.7349 20.9034L66.5144 29.3034L75.0902 61.1357L68.7251 69.9228H68.7378Z" fill="black"/>
<path id="Vector_8" d="M69.182 62.2193L67.4287 83.2C67.4287 83.2 70.6558 89.5484 82.6619 91.5871C91.6062 93.1097 94.9349 91.3161 94.9349 91.3161L94.5664 80.5806L94.198 70.1032L72.7775 63.3419L69.182 62.2064V62.2193Z" fill="#FFA28D"/>
<path id="Vector_9" d="M72.7773 63.3673C72.7773 63.9479 72.9425 64.6447 73.2093 65.4447C76.9573 76.3221 89.4081 79.677 94.5663 80.5931L94.1978 70.1157L72.7773 63.3544V63.3673Z" fill="black"/>
<path id="Vector_10" d="M102.8 22.6835C102.8 22.6835 111.452 49.9222 105.951 64.1802C100.449 78.4254 87.5286 74.7867 79.9437 71.148C72.3589 67.5093 69.1827 62.2319 69.1827 62.2319C69.1827 62.2319 61.5851 64.0125 57.3544 56.5673C53.1236 49.1222 56.9351 41.4577 61.3183 40.0641C65.7015 38.6706 70.3896 42.2577 70.3896 42.2577L67.2261 34.2706C67.2261 34.2706 87.5031 -2.59395 102.813 22.6835H102.8Z" fill="#FFA28D"/>
<path id="Vector_11" d="M68.7382 53.6779C68.5095 53.6779 68.2808 53.6004 68.103 53.4327L59.362 45.8327C58.9554 45.4714 58.9046 44.8392 59.2604 44.4263C59.6161 44.0134 60.2386 43.9617 60.6452 44.323L69.3862 51.923C69.7927 52.2843 69.8436 52.9166 69.4878 53.3295C69.2972 53.5617 69.0177 53.6779 68.7382 53.6779Z" fill="black"/>
<path id="Vector_12" d="M60.2644 52.8262C59.7943 52.8262 59.375 52.4778 59.2988 51.9875C59.2098 51.4455 59.5656 50.9294 60.0992 50.8391L66.3627 49.7681C66.8963 49.6778 67.4045 50.0391 67.4935 50.581C67.5824 51.1229 67.2266 51.6391 66.693 51.7294L60.4295 52.8004C60.4295 52.8004 60.3152 52.8133 60.2644 52.8133V52.8262Z" fill="black"/>
<path id="Vector_13" d="M84.6442 32.4263C84.4028 32.4263 84.1741 32.336 83.9835 32.1682C83.5769 31.794 83.5515 31.1618 83.92 30.7618C87.0962 27.2392 90.8696 28.2586 92.4196 29.2908C92.8769 29.5876 93.004 30.2069 92.6991 30.6715C92.3942 31.136 91.797 31.265 91.3396 30.9682C91.0093 30.7618 88.138 29.0327 85.3556 32.1166C85.1651 32.336 84.8983 32.4392 84.6315 32.4392L84.6442 32.4263Z" fill="black"/>
<path id="Vector_14" d="M104.768 33.1611C104.514 33.1611 104.273 33.0707 104.082 32.8772C102.151 30.9546 100.893 31.2901 100.83 31.3159C100.322 31.4707 99.7754 31.1869 99.5976 30.6707C99.4324 30.1546 99.6738 29.6127 100.169 29.432C100.411 29.3417 102.609 28.6191 105.455 31.4578C105.848 31.8449 105.848 32.4772 105.467 32.8772C105.277 33.0707 105.023 33.174 104.768 33.174V33.1611Z" fill="black"/>
<path id="Vector_15" d="M99.2428 54.2069C98.9379 54.2069 98.633 54.065 98.4424 53.7811C98.1248 53.3295 98.2264 52.7101 98.6711 52.3876C100.462 51.0843 97.7945 44.8908 95.4186 41.1101C95.1264 40.6456 95.2662 40.0263 95.7235 39.7295C96.1809 39.4327 96.7908 39.5747 97.083 40.0392C98.2391 41.8714 103.778 51.1488 99.8145 54.0134C99.6367 54.1424 99.4461 54.194 99.2428 54.194V54.2069Z" fill="black"/>
<path id="Vector_16" d="M103.042 43.123C102.572 43.123 102.166 42.7875 102.077 42.3101L101.187 37.381C101.137 37.0971 101.213 36.8004 101.391 36.581L102.979 34.5681C103.322 34.1294 103.932 34.0649 104.364 34.4133C104.796 34.7617 104.859 35.381 104.516 35.8197L103.22 37.4713L104.033 41.9488C104.135 42.4907 103.779 43.0068 103.246 43.1101C103.182 43.1101 103.131 43.123 103.068 43.123H103.042Z" fill="black"/>
<path id="Vector_17" d="M88.1258 43.3545C87.6557 43.3545 87.2491 43.019 87.1602 42.5416L86.2709 37.6126C86.22 37.3029 86.309 36.9803 86.5122 36.748L88.5577 34.5029C88.9262 34.1029 89.5487 34.0771 89.9426 34.4513C90.3364 34.8255 90.3618 35.4577 89.9934 35.8577L88.2909 37.7287L89.0913 42.1674C89.193 42.7093 88.8372 43.2255 88.3036 43.3287C88.2401 43.3287 88.1893 43.3416 88.1258 43.3416V43.3545Z" fill="black"/>
<path id="Vector_18" d="M70.377 42.2452L72.7782 45.071L71.5839 40.9935C71.5839 40.9935 77.2376 40.9548 84.6446 36.2064C92.0516 31.4581 93.8048 19.9097 93.8048 19.9097C93.8048 19.9097 97.0192 21.4322 100.526 24.2064C104.032 26.9806 104.769 29.9484 104.769 29.9484C104.769 29.9484 114.044 3.84515 94.5798 0.438702C75.1159 -2.95485 61.2929 13.8064 61.2929 13.8064C61.2929 13.8064 50.1507 15.3806 49.0327 26.4645C47.9147 37.5484 55.5503 46.1548 55.5503 46.1548C55.5503 46.1548 60.5307 36.9548 70.377 42.2323V42.2452Z" fill="black"/>
<path id="Vector_19" d="M94.9484 91.3292L96.1173 100.761C96.1173 100.761 70.4661 89.8453 68.7509 84.955C67.0357 80.0518 93.805 87.6905 93.805 87.6905L94.9484 91.3292Z" fill="#FFA28D"/>
<path id="Vector_20" d="M96.1046 101.755C95.9648 101.755 95.8251 101.729 95.698 101.665C94.6816 101.187 70.7837 90.013 66.6165 83.7678C66.3116 83.3162 66.4259 82.6839 66.8833 82.3743C67.3279 82.0646 67.9505 82.1807 68.2554 82.6452C71.546 87.5872 89.6759 96.5549 95.0374 99.1355L94.148 83.8452C94.1099 83.2904 94.5292 82.8259 95.0755 82.7872C95.6218 82.7484 96.0792 83.1742 96.1173 83.7291L97.1083 100.697C97.1337 101.045 96.9685 101.381 96.6763 101.587C96.5111 101.703 96.3206 101.755 96.1173 101.755H96.1046Z" fill="#8758E7"/>
<path id="Vector_21" d="M94.6441 63.277C94.4154 63.277 94.1994 63.2512 93.9707 63.1995C91.2519 62.5544 90.5912 58.3092 90.5277 57.8318C90.4769 57.5092 90.6039 57.1737 90.8453 56.9544C91.0867 56.735 91.417 56.6447 91.7346 56.7221L98.6334 58.3737C98.9383 58.4512 99.1924 58.6705 99.3195 58.9673C99.4465 59.2641 99.4084 59.5995 99.2433 59.8705C99.0146 60.2447 97.0834 63.2899 94.6568 63.2899L94.6441 63.277ZM92.8273 59.0318C93.1576 60.0382 93.7039 61.0834 94.4154 61.2512C95.1269 61.4189 96.0035 60.7221 96.6896 59.9479L92.8273 59.0189V59.0318Z" fill="black"/>
<path id="Vector_22" d="M58.5862 52.7742C59.4502 59.4322 63.5158 64.3742 67.683 63.8193C71.8375 63.2645 74.5182 57.4193 73.6543 50.7612C72.7903 44.1032 68.7248 39.1612 64.5576 39.7161C60.3903 40.2709 57.7223 46.1161 58.5862 52.7742Z" fill="#EA366E"/>
<path id="Vector_23" d="M55.9818 53.1221C56.8457 59.7801 60.9113 64.7221 65.0785 64.1672C69.2457 63.6124 71.9137 57.7672 71.0498 51.1091C70.1859 44.4511 66.1203 39.5091 61.9531 40.064C57.7859 40.6188 55.1178 46.464 55.9818 53.1221Z" fill="white"/>
<path id="Vector_24" d="M66.1082 9.16077C66.1082 9.16077 61.6107 15.264 63.2496 28.0898C64.8759 40.9285 68.8144 46.1672 68.8144 46.1672H60.5943C60.5943 46.1672 56.4525 33.2769 57.4308 22.4898C58.3964 11.7027 59.1714 9.16077 66.1082 9.16077Z" fill="white"/>
<path id="Vector_25" d="M55.5126 64.2063C55.2839 64.2063 55.0552 64.1289 54.8774 63.9612C37.3446 48.6967 46.3651 29.0579 46.454 28.8644C46.6827 28.3741 47.2798 28.1547 47.7626 28.3999C48.2581 28.6321 48.4614 29.2386 48.22 29.7289C47.8642 30.4773 39.7839 48.2063 56.1479 62.4515C56.5671 62.8128 56.6052 63.445 56.2495 63.8579C56.0589 64.0902 55.7794 64.2063 55.4999 64.2063H55.5126Z" fill="#FFAF45"/>
<path id="Vector_26" d="M33.4058 44.3357C30.7251 44.3357 28.0062 43.9357 25.7575 42.7615C23.4452 41.5486 21.8825 39.6647 21.1329 37.1486C20.4976 35.0454 20.7517 33.5228 21.8825 32.6196C24.6013 30.4389 32.3132 33.6002 38.2718 36.6196C33.4312 31.8067 27.5235 25.0583 27.8538 21.0583C27.9427 19.897 28.5271 18.9551 29.5308 18.3615C31.3349 17.2647 33.2026 17.0712 35.0956 17.7809C41.8165 20.297 46.4157 33.8454 46.6062 34.426C46.7841 34.9551 46.5046 35.5099 45.9964 35.6905C45.4882 35.8712 44.9165 35.5873 44.7513 35.0712C44.7132 34.9422 40.2665 21.8454 34.4222 19.6518C33.1009 19.1615 31.8304 19.2906 30.5472 20.0776C30.0899 20.3486 29.8739 20.7099 29.823 21.226C29.4546 25.7422 41.0288 36.7744 45.5136 40.6325C45.5644 40.6841 45.5899 40.7099 45.6153 40.7357C45.7423 40.8776 45.8185 41.0454 45.844 41.226C45.8694 41.3422 45.8694 41.4454 45.844 41.5615C45.8185 41.6905 45.7804 41.8196 45.7042 41.9357C45.5899 42.1293 45.412 42.2841 45.1833 42.3615C44.8403 42.4776 39.1993 44.3615 33.4185 44.3615L33.4058 44.3357ZM24.5378 33.8196C23.9026 33.8196 23.4198 33.9357 23.1021 34.1938C22.5685 34.6196 22.7718 35.7164 23.0259 36.568C23.6357 38.5809 24.8173 40.026 26.6722 40.9938C31.3095 43.4196 38.7038 42.026 42.3628 41.0841C36.1247 37.5357 28.1079 33.8325 24.5505 33.8325L24.5378 33.8196Z" fill="#FFAF45"/>
<path id="Vector_27" d="M143.568 28.9294L151.919 30.6936L143.568 32.5696L141.861 41.9045L140.306 32.5696L131.934 30.6936L140.306 28.9294L141.861 19.6167L143.568 28.9294Z" fill="#FFA4AC"/>
</g>
</g>
<defs>
<clipPath id="clip0_9_2366">
<rect x="0.5" width="155" height="120" rx="40" fill="white"/>
</clipPath>
</defs>
</svg>
