<svg width="23" height="23" viewBox="0 0 23 23" fill="none" xmlns="http://www.w3.org/2000/svg">
<mask id="mask0_5134_8809" style="mask-type:alpha" maskUnits="userSpaceOnUse" x="0" y="0" width="23" height="23">
<ellipse cx="11.3925" cy="11.17" rx="11.1679" ry="11.168" fill="#D9D9D9"/>
</mask>
<g mask="url(#mask0_5134_8809)">
<path d="M20.3292 7.69482L18.105 8.91814L15.8809 11.0311V18.282H18.9947C19.7318 18.282 20.3292 17.6846 20.3292 16.9475V7.69482Z" fill="#4CAF50"/>
<path d="M1.64648 7.69482L3.25413 8.4555L6.09486 11.0311V18.282H2.981C2.2439 18.282 1.64648 17.6846 1.64648 16.9475V7.69482Z" fill="#1E88E5"/>
<path d="M15.8797 5.46985L10.9865 9.13979L6.09327 5.46985L5.64844 8.04993L6.09327 11.0304L10.9865 14.7003L15.8797 11.0304L16.3245 8.04993L15.8797 5.46985Z" fill="#E53935"/>
<path d="M1.64648 5.95966V7.69543L6.09486 11.0317V5.47122L4.70519 4.42985C4.37423 4.18163 3.97209 4.04773 3.5584 4.04773C2.50235 4.04773 1.64648 4.9036 1.64648 5.95966Z" fill="#C62828"/>
<path d="M20.3292 5.95966V7.69543L15.8809 11.0317V5.47122L17.2705 4.42985C17.6015 4.18163 18.0036 4.04773 18.4173 4.04773C19.4734 4.04773 20.3292 4.9036 20.3292 5.95966Z" fill="#FBC02D"/>
</g>
</svg>
