<svg width="21" height="20" viewBox="0 0 21 20" fill="none" xmlns="http://www.w3.org/2000/svg">
<g id="Google">
<path id="Vector" d="M18.5047 8.36788H17.8335V8.33329H10.3335V11.6666H15.043C14.356 13.607 12.5097 15 10.3335 15C7.57221 15 5.33346 12.7612 5.33346 9.99996C5.33346 7.23871 7.57221 4.99996 10.3335 4.99996C11.608 4.99996 12.7676 5.48079 13.6505 6.26621L16.0076 3.90913C14.5193 2.52204 12.5285 1.66663 10.3335 1.66663C5.73137 1.66663 2.00012 5.39788 2.00012 9.99996C2.00012 14.602 5.73137 18.3333 10.3335 18.3333C14.9355 18.3333 18.6668 14.602 18.6668 9.99996C18.6668 9.44121 18.6093 8.89579 18.5047 8.36788Z" fill="#FFC107"/>
<path id="Vector_2" d="M2.96106 6.12121L5.69898 8.12913C6.43981 6.29496 8.23398 4.99996 10.3336 4.99996C11.6081 4.99996 12.7677 5.48079 13.6506 6.26621L16.0077 3.90913C14.5194 2.52204 12.5286 1.66663 10.3336 1.66663C7.13273 1.66663 4.35689 3.47371 2.96106 6.12121Z" fill="#FF3D00"/>
<path id="Vector_3" d="M10.3334 18.3334C12.4859 18.3334 14.4418 17.5096 15.9205 16.17L13.3413 13.9875C12.5047 14.6213 11.4647 15 10.3334 15C8.16592 15 6.32551 13.618 5.63217 11.6892L2.91467 13.783C4.29384 16.4817 7.09467 18.3334 10.3334 18.3334Z" fill="#4CAF50"/>
<path id="Vector_4" d="M18.5047 8.36796H17.8335V8.33337H10.3335V11.6667H15.0431C14.7131 12.5988 14.1135 13.4025 13.3402 13.988C13.3406 13.9875 13.341 13.9875 13.3414 13.9871L15.9206 16.1696C15.7381 16.3355 18.6668 14.1667 18.6668 10C18.6668 9.44129 18.6093 8.89587 18.5047 8.36796Z" fill="#1976D2"/>
</g>
</svg>
