<svg width="20" height="21" viewBox="0 0 20 21" fill="none" xmlns="http://www.w3.org/2000/svg">
<path d="M4 15.0002V11.6652L8.00843 13.9664C9.24174 14.6745 10.7583 14.6745 11.9916 13.9665L16 11.6652V15.0002C16 15.1328 15.9473 15.26 15.8536 15.3537L15.852 15.3553L15.8496 15.3576L15.8428 15.3644L15.8201 15.3861C15.801 15.4041 15.7741 15.429 15.7394 15.4598C15.6701 15.5215 15.5696 15.6069 15.4389 15.708C15.1777 15.9102 14.7948 16.1763 14.2978 16.4414C13.3033 16.9718 11.8479 17.5002 10 17.5002C8.15211 17.5002 6.69675 16.9718 5.70221 16.4414C5.20518 16.1763 4.82226 15.9102 4.5611 15.708C4.43043 15.6069 4.32994 15.5215 4.26059 15.4598C4.22591 15.429 4.19898 15.4041 4.17992 15.3861L4.15724 15.3644C4.05938 15.2686 4 15.138 4 15.0002ZM18.7489 8.93388L11.4937 13.0992C10.5687 13.6303 9.4313 13.6303 8.50632 13.0992L2 9.36386L2 14.0002C2 14.2763 1.77614 14.5002 1.5 14.5002C1.22386 14.5002 1 14.2763 1 14.0002V8.50026C1 8.31025 1.10598 8.14493 1.26206 8.06032L8.5063 3.90123C8.85317 3.70208 9.22992 3.57761 9.61413 3.52782C9.73586 3.51205 9.85834 3.50377 9.98086 3.50299C10.3739 3.50049 10.7674 3.57515 11.1377 3.72697C11.2591 3.77676 11.3781 3.83484 11.4937 3.90123L18.749 8.06664C18.9042 8.1558 19 8.32119 19 8.50026C19 8.67933 18.9042 8.84472 18.7489 8.93388Z" fill="currentColor"/>
</svg>
