<svg width="30" height="30" viewBox="0 0 30 30" fill="none" xmlns="http://www.w3.org/2000/svg">
<rect width="30" height="30" rx="15" fill="#E6F6F1"/>
<path d="M12.9088 6.69964C14.1832 5.88267 15.8168 5.88267 17.0912 6.69964L25.1548 11.8686C25.3689 12.0059 25.4989 12.2424 25.5 12.4968C25.5011 12.7512 25.3732 12.9888 25.1602 13.1279L22 15.1926V20.75C22 20.9122 21.9474 21.0701 21.85 21.2L21.8489 21.2014L21.8477 21.2031L21.8446 21.2071L21.8364 21.2178C21.8321 21.2233 21.8269 21.2298 21.8209 21.2373C21.8179 21.2411 21.8146 21.2452 21.8111 21.2495C21.7904 21.2751 21.7619 21.3095 21.7253 21.3513C21.6522 21.4348 21.5469 21.5483 21.4081 21.6816C21.1305 21.9481 20.7176 22.2948 20.1587 22.6387C19.0359 23.3297 17.3387 24 15 24C12.6613 24 10.9641 23.3297 9.8413 22.6387C9.2824 22.2948 8.86951 21.9481 8.59193 21.6816C8.45308 21.5483 8.34778 21.4348 8.27468 21.3513C8.23204 21.3025 8.1901 21.2531 8.15107 21.2014C8.14956 21.1994 8.15 21.2 8.15 21.2C8.05263 21.0701 8 20.9122 8 20.75V15.1926L6 13.8859V19.25C6 19.6642 5.66421 20 5.25 20C4.83579 20 4.5 19.6642 4.5 19.25V12.5C4.5 12.2295 4.64318 11.9925 4.85788 11.8605L12.9088 6.69964ZM17.1194 18.3812C15.8317 19.2225 14.1683 19.2225 12.8806 18.3812L9.5 16.1725V20.4687C9.5368 20.5072 9.58034 20.5512 9.63073 20.5996C9.84143 20.8018 10.1707 21.0802 10.6274 21.3612C11.5359 21.9203 12.9637 22.5 15 22.5C17.0363 22.5 18.4641 21.9203 19.3726 21.3612C19.8293 21.0802 20.1586 20.8018 20.3693 20.5996C20.4197 20.5512 20.4632 20.5072 20.5 20.4687V16.1725L17.1194 18.3812ZM16.2817 7.96246C15.5006 7.46173 14.4994 7.46173 13.7183 7.96246L6.63041 12.506L13.701 17.1254C14.4902 17.6411 15.5098 17.6411 16.299 17.1254L23.3696 12.506L16.2817 7.96246Z" fill="#02A971"/>
</svg>
