<svg width="16" height="16" viewBox="0 0 16 16" fill="none" xmlns="http://www.w3.org/2000/svg">
<path d="M10.0215 0.771409C10.9761 -0.183245 12.5239 -0.183242 13.4786 0.771411C14.4332 1.72606 14.4332 3.27386 13.4786 4.22852L12.2071 5.49999L12.2929 5.58579C13.0739 6.36683 13.0739 7.63316 12.2929 8.41421L10.8536 9.85355C10.6583 10.0488 10.3417 10.0488 10.1464 9.85355C9.95118 9.65829 9.95118 9.34171 10.1464 9.14645L11.5858 7.70711C11.9763 7.31658 11.9763 6.68342 11.5858 6.29289L11.5 6.20709L4.85356 12.8535C4.78948 12.9176 4.70919 12.9631 4.62128 12.985L0.621278 13.985C0.444236 14.0293 0.257142 13.9736 0.133149 13.8397C0.00915603 13.7058 -0.0320399 13.515 0.0256687 13.3419L1.27567 9.59185C1.30022 9.51821 1.34157 9.4513 1.39646 9.39641L10.0215 0.771409ZM1.2684 14.9044C1.25117 14.8919 1.23411 14.8794 1.21723 14.8668L2.56599 14.5296C3.10397 14.8001 3.75399 15.0001 4.49999 15.0001C5.007 15.0001 5.5139 14.8226 6.03382 14.5265C6.55597 14.2292 7.05793 13.8322 7.5597 13.4245L7.68984 13.3186C8.13473 12.9562 8.59192 12.5838 9.0274 12.3271C9.49919 12.0491 10.0707 11.83 10.6581 12.0258C11.4795 12.2997 11.739 13.0557 11.979 13.8567C12.0338 14.0397 12.1279 14.2206 12.2393 14.3457C12.3501 14.4702 12.4391 14.5002 12.5 14.5002C12.6869 14.5002 12.9559 14.3984 13.2974 14.197C13.5131 14.0697 13.7005 13.9402 13.8854 13.8124C13.9984 13.7343 14.1108 13.6567 14.2279 13.5807C14.5458 13.3745 14.82 13.237 15.0189 13.1498C15.1184 13.1061 15.1993 13.075 15.2575 13.0542C15.2866 13.0437 15.3101 13.0358 15.3275 13.0302L15.3489 13.0235L15.3561 13.0213L15.3587 13.0205L15.3599 13.0202L15.5 13.5002C15.3608 13.0199 15.36 13.0202 15.3599 13.0202C15.6251 12.9433 15.9034 13.0958 15.9802 13.361C16.0569 13.6254 15.9053 13.9019 15.6415 13.9797L15.6346 13.9819C15.6271 13.9843 15.6136 13.9888 15.5948 13.9956C15.557 14.0091 15.4977 14.0317 15.4205 14.0656C15.2659 14.1334 15.0401 14.2458 14.7721 14.4197C14.7012 14.4656 14.6107 14.5279 14.5085 14.5982C14.3006 14.7411 14.044 14.9176 13.8054 15.0583C13.4432 15.2719 12.9742 15.5002 12.5 15.5002C12.0609 15.5001 11.7209 15.2674 11.4924 15.0106C11.2643 14.7544 11.1084 14.4353 11.021 14.1436C10.7585 13.2672 10.607 13.0629 10.3419 12.9745C10.1792 12.9203 9.93829 12.9511 9.53508 13.1887C9.16862 13.4046 8.77114 13.7281 8.30732 14.1055L8.19028 14.2006C7.69205 14.6054 7.13152 15.0522 6.52866 15.3955C5.92358 15.74 5.24299 16.0001 4.49999 16.0001C3.11223 16.0001 2.01112 15.4446 1.2684 14.9044Z" fill="#E77059"/>
</svg>
