<svg width="41" height="40" viewBox="0 0 41 40" fill="none" xmlns="http://www.w3.org/2000/svg">
<path d="M20.3999 40C31.4456 40 40.3999 31.0457 40.3999 20C40.3999 8.9543 31.4456 0 20.3999 0C9.35421 0 0.399902 8.9543 0.399902 20C0.399902 31.0457 9.35421 40 20.3999 40Z" fill="#FFD21F"/>
<path d="M11.2927 20.2937C10.4905 20.2937 9.83862 19.6419 9.83862 18.8396V15.3548C9.83862 14.5589 10.4905 13.9008 11.2927 13.9008C12.095 13.9008 12.7468 14.5526 12.7468 15.3548V18.8396C12.7468 19.6419 12.095 20.2937 11.2927 20.2937Z" fill="#403408"/>
<path d="M29.5063 20.2937C28.7041 20.2937 28.0522 19.6419 28.0522 18.8396V15.3548C28.0522 14.5589 28.7041 13.9008 29.5063 13.9008C30.3086 13.9008 30.9604 14.5526 30.9604 15.3548V18.8396C30.9604 19.6419 30.3086 20.2937 29.5063 20.2937Z" fill="#403408"/>
<path d="M20.4438 31.5826C15.3357 31.5826 12.8976 27.6527 12.3272 25.5719C12.1768 25.0329 12.4965 24.4688 13.0355 24.3184C13.5808 24.1679 14.1386 24.4876 14.289 25.0266C14.3392 25.2084 15.6303 29.5393 20.4438 29.5393C25.2574 29.5393 26.6112 25.1582 26.6676 24.9702C26.8243 24.4312 27.3884 24.1241 27.9274 24.2808C28.4664 24.4375 28.7735 24.9953 28.6231 25.5343C28.0276 27.6214 25.5457 31.5763 20.4438 31.5763V31.5826Z" fill="#403408"/>
</svg>
