<svg width="16" height="16" viewBox="0 0 16 16" fill="none" xmlns="http://www.w3.org/2000/svg">
<path d="M9.36833 2.44667C8.53719 1.90321 7.4632 1.90319 6.63206 2.44663L1.22638 5.98105C1.08632 6.07262 1.00135 6.2282 1.00002 6.39554C0.999868 6.41403 1.00074 6.4324 1.00261 6.45057C1.00104 6.46667 1.00024 6.48299 1.00024 6.4995L1.00024 10.4995C1.00024 10.7756 1.2241 10.9995 1.50024 10.9995C1.77639 10.9995 2.00024 10.7756 2.00024 10.4995L2.00024 7.34193L3.00024 8.01883V11.6995C3.00024 11.8182 3.04303 11.9336 3.11988 12.024L3.12063 12.0249L3.12261 12.0272L3.12848 12.034L3.14777 12.0558C3.16397 12.0738 3.18685 12.0989 3.21627 12.1298C3.27509 12.1917 3.36021 12.2776 3.4705 12.3794C3.69075 12.5827 4.01336 12.8514 4.42924 13.1197C5.25989 13.6555 6.47808 14.1995 8.00034 14.1995C9.52261 14.1995 10.7408 13.6555 11.5714 13.1197C11.9872 12.8514 12.3098 12.5827 12.53 12.3794C12.6403 12.2776 12.7254 12.1917 12.7842 12.1298C12.8137 12.0988 12.8365 12.0738 12.8527 12.0558L12.872 12.034L12.8779 12.0272L12.8799 12.0249L12.8812 12.0233C12.9581 11.9329 13.0002 11.8181 13.0002 11.6995V8.01857L14.7803 6.81358C14.9189 6.71978 15.0017 6.60489 15 6.39554C14.9986 6.2282 14.9137 6.07263 14.7736 5.98105L9.36833 2.44667ZM12.0002 8.69551V11.5017C11.9603 11.5419 11.9107 11.5901 11.8517 11.6446C11.6657 11.8163 11.3883 12.0477 11.0292 12.2794C10.3099 12.7435 9.27808 13.1995 8.00034 13.1995C6.7226 13.1995 5.69075 12.7435 4.97135 12.2794C4.6122 12.0477 4.33479 11.8163 4.14877 11.6446C4.08975 11.5901 4.04014 11.5419 4.00024 11.5017V8.69573L6.59878 10.4547C7.44521 11.0276 8.55518 11.0276 9.4016 10.4546L12.0002 8.69551ZM3.50024 11.6995L3.11988 12.024C3.11988 12.024 3.11928 12.0233 3.50024 11.6995ZM7.1793 3.2836C7.67799 2.95754 8.32238 2.95755 8.82106 3.28362L13.5974 6.3995L8.84103 9.62653C8.33317 9.97032 7.66719 9.97033 7.15933 9.62656L2.40264 6.40675L7.1793 3.2836Z" fill="currentColor"/>
</svg>
