<svg width="24" height="24" viewBox="0 0 24 24" fill="none" xmlns="http://www.w3.org/2000/svg">
<rect width="24" height="24" rx="12" fill="#F7EBF3"/>
<path d="M12.3973 17.4426L17.3927 12.3999C18.7403 11.0312 18.736 8.82079 17.3792 7.45038C16.049 6.10673 13.917 6.07199 12.5584 7.35308C12.5291 7.3807 12.5001 7.40893 12.4716 7.43778L11.9945 7.9206L11.5108 7.4321C11.4843 7.40532 11.4575 7.37906 11.4304 7.35332C10.0689 6.0622 7.93333 6.08194 6.60907 7.41951C5.25842 8.78375 5.26501 11.0004 6.62153 12.3706L11.643 17.4426C11.8513 17.653 12.189 17.653 12.3973 17.4426ZM13.0401 8.00063C14.0773 6.95347 15.7621 6.95402 16.8107 8.01323C17.8603 9.07338 17.8619 10.7823 16.8235 11.8378L16.8227 11.8387L12.0202 16.6865L7.19004 11.8077C6.13936 10.7465 6.13838 9.03201 7.17758 7.98236C8.21229 6.93724 9.89597 6.93806 10.9423 7.99495L11.7105 8.77084C11.8671 8.92905 12.1228 8.92892 12.2793 8.77057L13.0401 8.00063Z" fill="#B64F97"/>
</svg>
