<svg width="13" height="15" viewBox="0 0 13 15" fill="none" xmlns="http://www.w3.org/2000/svg">
<path d="M7.375 14.8509L7.25969 12.875H6.625C4.95575 12.875 3.53844 12.2923 2.37306 11.1269C1.20769 9.96156 0.625 8.54425 0.625 6.875C0.625 5.20575 1.20769 3.78844 2.37306 2.62306C3.53844 1.45769 4.95575 0.875 6.625 0.875C7.45963 0.875 8.23969 1.031 8.96519 1.343C9.69069 1.655 10.326 2.08362 10.8711 2.62887C11.4164 3.174 11.845 3.80931 12.157 4.53481C12.469 5.26031 12.625 6.04038 12.625 6.875C12.625 7.726 12.4923 8.54306 12.2269 9.32619C11.9616 10.1093 11.5969 10.842 11.1329 11.5243C10.669 12.2065 10.1159 12.8296 9.4735 13.3934C8.83125 13.9574 8.13175 14.4433 7.375 14.8509ZM8.5 12.7625C9.3875 12.0125 10.1094 11.1344 10.6656 10.1281C11.2219 9.12188 11.5 8.0375 11.5 6.875C11.5 5.5125 11.0281 4.35938 10.0844 3.41563C9.14062 2.47188 7.9875 2 6.625 2C5.2625 2 4.10938 2.47188 3.16563 3.41563C2.22188 4.35938 1.75 5.5125 1.75 6.875C1.75 8.2375 2.22188 9.39062 3.16563 10.3344C4.10938 11.2781 5.2625 11.75 6.625 11.75H8.5V12.7625ZM6.62781 10.8298C6.81156 10.8298 6.96763 10.7656 7.096 10.6372C7.22425 10.5088 7.28838 10.3528 7.28838 10.1692C7.28838 9.98556 7.22425 9.82956 7.096 9.70119C6.96763 9.57281 6.81156 9.50863 6.62781 9.50863C6.44419 9.50863 6.28819 9.57281 6.15981 9.70119C6.03144 9.82956 5.96725 9.98556 5.96725 10.1692C5.96725 10.3528 6.03144 10.5088 6.15981 10.6372C6.28819 10.7656 6.44419 10.8298 6.62781 10.8298ZM6.19225 8.54225H7.08644C7.09606 8.201 7.14444 7.94813 7.23156 7.78363C7.31856 7.61925 7.55481 7.34425 7.94031 6.95863C8.16056 6.7385 8.33969 6.50675 8.47769 6.26338C8.61569 6.02013 8.68469 5.75094 8.68469 5.45581C8.68469 4.86631 8.48344 4.41462 8.08094 4.10075C7.67856 3.78675 7.19806 3.62975 6.63944 3.62975C6.13269 3.62975 5.70506 3.76969 5.35656 4.04956C5.00794 4.32931 4.75863 4.66631 4.60862 5.06056L5.44225 5.38644C5.524 5.16919 5.65719 4.96344 5.84181 4.76919C6.02644 4.57494 6.29231 4.47781 6.63944 4.47781C7.02019 4.47781 7.30338 4.58238 7.489 4.7915C7.6745 5.00075 7.76725 5.22987 7.76725 5.47887C7.76725 5.71062 7.70356 5.91206 7.57619 6.08319C7.44881 6.25431 7.29044 6.43463 7.10106 6.62413C6.70194 6.97025 6.45069 7.26106 6.34731 7.49656C6.24394 7.73219 6.19225 8.08075 6.19225 8.54225Z" fill="currentColor"/>
</svg>
