<svg width="24" height="24" viewBox="0 0 24 24" fill="none" xmlns="http://www.w3.org/2000/svg">
<path d="M11.5 8.50238C11.5 8.22624 11.7239 8.00238 12 8.00238C12.2761 8.00238 12.5 8.22624 12.5 8.50238V9.50391C12.5 9.78005 12.2761 10.0039 12 10.0039C11.7239 10.0039 11.5 9.78005 11.5 9.50391V8.50238ZM14.8506 9.44332C14.6553 9.24806 14.3388 9.24806 14.1435 9.44332L13.4353 10.1515C13.2401 10.3468 13.2401 10.6634 13.4353 10.8586C13.6306 11.0539 13.9472 11.0539 14.1424 10.8586L14.8506 10.1504C15.0459 9.95517 15.0459 9.63858 14.8506 9.44332ZM9.8521 9.44332C9.65684 9.24806 9.34026 9.24806 9.145 9.44332C8.94973 9.63858 8.94973 9.95517 9.145 10.1504L9.85318 10.8586C10.0484 11.0539 10.365 11.0539 10.5603 10.8586C10.7556 10.6634 10.7556 10.3468 10.5603 10.1515L9.8521 9.44332ZM12 4C15.3137 4 18 6.59693 18 9.80041C18 11.4774 17.2546 13.0164 15.7961 14.3942C15.7324 14.4544 15.6831 14.5269 15.6512 14.6065L15.6251 14.6883L14.6891 18.6051C14.5048 19.3763 13.8236 19.935 13.0181 19.9947L12.8748 20H11.1255C10.3065 20 9.59 19.4839 9.34866 18.7385L9.31108 18.6047L8.37626 14.6886C8.34955 14.5766 8.29016 14.4745 8.20516 14.3942C6.8153 13.0819 6.07265 11.6235 6.00507 10.039L6 9.80041L6.00321 9.60894C6.1077 6.49409 8.75257 4 12 4ZM9.955 17L10.2739 18.3344L10.3 18.4305C10.3969 18.7298 10.6758 18.9517 11.0116 18.993L11.1255 19L12.8379 19.0007L12.9442 18.9974C13.2865 18.9721 13.5726 18.7609 13.6854 18.4718L13.7165 18.3727L14.045 17H9.955ZM12 5C9.36782 5 7.21188 6.95301 7.0151 9.41357L7.00307 9.62569L6.99977 9.77916L7.00416 9.99642C7.05977 11.3003 7.67758 12.5208 8.89167 13.6671C9.07995 13.8449 9.22191 14.0647 9.30572 14.3078L9.34894 14.4564L9.716 16H11.5002V11.4971C11.5002 11.2209 11.7241 10.9971 12.0002 10.9971C12.2764 10.9971 12.5002 11.2209 12.5002 11.4971V16H14.285L14.6722 14.3851L14.7231 14.2343C14.8091 14.0198 14.9409 13.8265 15.1094 13.6673C16.3825 12.4646 17 11.1805 17 9.80041C17 7.15693 14.7689 5 12 5Z" fill="#E0482A"/>
</svg>
