<svg width="24" height="24" viewBox="0 0 24 24" fill="none" xmlns="http://www.w3.org/2000/svg">
<path d="M12 4C15.3137 4 18 6.59693 18 9.80041C18 11.4774 17.2546 13.0164 15.7961 14.3942C15.7324 14.4544 15.6831 14.5269 15.6512 14.6065L15.6251 14.6883L14.6891 18.6051C14.5048 19.3763 13.8236 19.935 13.0181 19.9947L12.8748 20H11.1255C10.3065 20 9.59 19.4839 9.34866 18.7385L9.31108 18.6047L8.37626 14.6886C8.34955 14.5766 8.29016 14.4745 8.20516 14.3942C6.8153 13.0819 6.07265 11.6235 6.00507 10.039L6 9.80041L6.00321 9.60894C6.1077 6.49409 8.75257 4 12 4ZM14.045 17H9.955L10.2739 18.3344L10.3 18.4305C10.3969 18.7298 10.6758 18.9517 11.0116 18.993L11.1255 19L12.8379 19.0007L12.9442 18.9974C13.2865 18.9721 13.5726 18.7609 13.6854 18.4718L13.7165 18.3727L14.045 17ZM12 5C9.36782 5 7.21188 6.95301 7.0151 9.41357L7.00307 9.62569L6.99977 9.77916L7.00416 9.99642C7.05977 11.3003 7.67758 12.5208 8.89167 13.6671C9.07995 13.8449 9.22191 14.0647 9.30572 14.3078L9.34894 14.4564L9.716 16H14.285L14.6722 14.3851L14.7231 14.2343C14.8091 14.0198 14.9409 13.8265 15.1094 13.6673C16.3825 12.4646 17 11.1805 17 9.80041C17 7.15693 14.7689 5 12 5Z" fill="#0A192B"/>
</svg>
