<svg width="25" height="25" viewBox="0 0 25 25" fill="none" xmlns="http://www.w3.org/2000/svg">
<g id="Home">
<path id="Shape" d="M13.9508 3.03318C13.1128 2.32618 11.8872 2.32618 11.0492 3.03318L4.29916 8.72772C3.79241 9.15523 3.5 9.78447 3.5 10.4475V19.7526C3.5 20.7191 4.2835 21.5026 5.25 21.5026H8.25C9.2165 21.5026 10 20.7191 10 19.7526V15.75C10 15.0707 10.5418 14.518 11.2169 14.5004H13.7831C14.4582 14.518 15 15.0707 15 15.75V19.7526C15 20.7191 15.7835 21.5026 16.75 21.5026H19.75C20.7165 21.5026 21.5 20.7191 21.5 19.7526V10.4475C21.5 9.78447 21.2076 9.15523 20.7008 8.72772L13.9508 3.03318Z" fill="#0A192B"/>
</g>
</svg>
