<svg width="14" height="19" viewBox="0 0 14 19" fill="none" xmlns="http://www.w3.org/2000/svg">
<path d="M1.19045 18.854C0.694316 19.211 0.00244141 18.8564 0.00244141 18.2452V3.24927C0.00244141 1.45434 1.45752 -0.000732422 3.25244 -0.000732422H10.7508C12.5458 -0.000732422 14.0008 1.45434 14.0008 3.24927V18.2452C14.0008 18.8564 13.309 19.211 12.8128 18.854L7.00164 14.6731L1.19045 18.854ZM12.5008 3.24927C12.5008 2.28277 11.7173 1.49927 10.7508 1.49927H3.25244C2.28594 1.49927 1.50244 2.28277 1.50244 3.24927V16.7817L6.56362 13.1403C6.82529 12.9521 7.17798 12.9521 7.43965 13.1403L12.5008 16.7817V3.24927Z" fill="#2165AA"/>
</svg>
