<svg width="22" height="16" viewBox="0 0 22 16" fill="none" xmlns="http://www.w3.org/2000/svg">
<path d="M0 0.000350952H22V5.33362H0V0.000350952Z" fill="#FF9933"/>
<path d="M0 5.33434H22V10.6676H0V5.33434Z" fill="#F4F5F7"/>
<path d="M0 10.6664H22V15.9996H0V10.6664Z" fill="#128807"/>
<path d="M11.0003 10.1342C12.2153 10.1342 13.2003 9.17904 13.2003 8.00085C13.2003 6.82265 12.2153 5.86754 11.0003 5.86754C9.78527 5.86754 8.80029 6.82265 8.80029 8.00085C8.80029 9.17904 9.78527 10.1342 11.0003 10.1342Z" fill="#F4F5F7"/>
<path d="M11.0002 9.86645C12.0633 9.86645 12.9252 9.03073 12.9252 7.99981C12.9252 6.96889 12.0633 6.13316 11.0002 6.13316C9.93705 6.13316 9.0752 6.96889 9.0752 7.99981C9.0752 9.03073 9.93705 9.86645 11.0002 9.86645Z" fill="#F4F5F7"/>
<path d="M11.0002 8.37396C11.2129 8.37396 11.3852 8.20682 11.3852 8.00063C11.3852 7.79445 11.2129 7.6273 11.0002 7.6273C10.7876 7.6273 10.6152 7.79445 10.6152 8.00063C10.6152 8.20682 10.7876 8.37396 11.0002 8.37396Z" fill="#000088"/>
<path d="M12.896 8.33996C12.9502 8.34688 13 8.30987 13.0071 8.25731C13.0143 8.20474 12.9761 8.15652 12.9219 8.1496C12.8677 8.14268 12.8179 8.17968 12.8108 8.23225C12.8037 8.28481 12.8418 8.33304 12.896 8.33996Z" fill="#000088"/>
<path d="M11.0006 9.86656L11.0666 8.74657L11.0006 8.21324L10.9346 8.74657L11.0006 9.86656Z" fill="#000088"/>
<path d="M12.7408 8.80431C12.7913 8.8246 12.8492 8.80134 12.8701 8.75236C12.8911 8.70338 12.8671 8.64722 12.8166 8.62693C12.766 8.60664 12.7081 8.6299 12.6872 8.67889C12.6663 8.72787 12.6903 8.78403 12.7408 8.80431Z" fill="#000088"/>
<path d="M10.5019 9.80335L10.8645 8.73809L10.9431 8.20637L10.737 8.70496L10.5019 9.80335Z" fill="#000088"/>
<path d="M12.4658 9.2111C12.5092 9.24337 12.5713 9.23544 12.6046 9.19338C12.6379 9.15132 12.6297 9.09105 12.5864 9.05878C12.543 9.0265 12.4808 9.03443 12.4475 9.0765C12.4143 9.11856 12.4224 9.17882 12.4658 9.2111Z" fill="#000088"/>
<path d="M10.0372 9.61454L10.6718 8.6766L10.8897 8.18273L10.5575 8.6126L10.0372 9.61454Z" fill="#000088"/>
<path d="M12.0926 9.53908C12.1259 9.58114 12.1881 9.58908 12.2314 9.5568C12.2748 9.52453 12.283 9.46426 12.2497 9.4222C12.2164 9.38014 12.1543 9.3722 12.1109 9.40448C12.0675 9.43676 12.0594 9.49702 12.0926 9.53908Z" fill="#000088"/>
<path d="M9.6389 9.32013L10.5023 8.57343L10.8445 8.15106L10.4089 8.48292L9.6389 9.32013Z" fill="#000088"/>
<path d="M11.644 9.75822C11.6649 9.8072 11.7229 9.83046 11.7734 9.81017C11.8239 9.78988 11.8479 9.73373 11.8269 9.68475C11.806 9.63576 11.7481 9.6125 11.6976 9.63279C11.6471 9.65308 11.6231 9.70924 11.644 9.75822Z" fill="#000088"/>
<path d="M9.33279 8.93126L10.3661 8.42669L10.8094 8.1046L10.3001 8.31584L9.33279 8.93126Z" fill="#000088"/>
<path d="M11.1526 9.86278C11.1597 9.91534 11.2094 9.95234 11.2636 9.94542C11.3178 9.9385 11.356 9.89028 11.3489 9.83772C11.3417 9.78515 11.292 9.74815 11.2378 9.75507C11.1836 9.76199 11.1454 9.81021 11.1526 9.86278Z" fill="#000088"/>
<path d="M9.14069 8.48227L10.2734 8.25421L10.7876 8.05436L10.2392 8.13057L9.14069 8.48227Z" fill="#000088"/>
<path d="M10.6501 9.83608C10.643 9.88864 10.6812 9.93687 10.7354 9.94379C10.7896 9.95071 10.8393 9.9137 10.8465 9.86114C10.8536 9.80857 10.8154 9.76035 10.7612 9.75343C10.707 9.74651 10.6573 9.78351 10.6501 9.83608Z" fill="#000088"/>
<path d="M9.07527 7.99793L10.2303 8.06193L10.7803 7.99793L10.2303 7.93393L9.07527 7.99793Z" fill="#000088"/>
<path d="M10.1713 9.68352C10.1504 9.7325 10.1743 9.78866 10.2249 9.80895C10.2754 9.82924 10.3333 9.80598 10.3542 9.757C10.3751 9.70801 10.3511 9.65186 10.3006 9.63157C10.2501 9.61128 10.1922 9.63454 10.1713 9.68352Z" fill="#000088"/>
<path d="M9.14021 7.51315L10.2388 7.86484L10.7871 7.94106L10.2729 7.74121L9.14021 7.51315Z" fill="#000088"/>
<path d="M9.74847 9.42057C9.71518 9.46263 9.72337 9.52289 9.76674 9.55517C9.81012 9.58745 9.87227 9.57951 9.90555 9.53745C9.93884 9.49539 9.93066 9.43512 9.88728 9.40285C9.8439 9.37057 9.78175 9.37851 9.74847 9.42057Z" fill="#000088"/>
<path d="M9.33271 7.06506L10.3 7.68047L10.8093 7.89171L10.366 7.56962L9.33271 7.06506Z" fill="#000088"/>
<path d="M9.41176 9.06272C9.36839 9.095 9.3602 9.15526 9.39349 9.19732C9.42677 9.23938 9.48892 9.24732 9.5323 9.21504C9.57568 9.18277 9.58386 9.1225 9.55057 9.08044C9.51729 9.03838 9.45514 9.03044 9.41176 9.06272Z" fill="#000088"/>
<path d="M9.63883 6.68318L10.4089 7.52038L10.8444 7.85225L10.5022 7.42987L9.63883 6.68318Z" fill="#000088"/>
<path d="M9.18384 8.62533C9.13332 8.64562 9.10934 8.70178 9.13026 8.75076C9.15118 8.79974 9.2091 8.823 9.25961 8.80271C9.31012 8.78242 9.33411 8.72627 9.31319 8.67728C9.29226 8.6283 9.23435 8.60504 9.18384 8.62533Z" fill="#000088"/>
<path d="M10.0381 6.38374L10.5584 7.38568L10.8906 7.81555L10.6728 7.32168L10.0381 6.38374Z" fill="#000088"/>
<path d="M9.07864 8.1526C9.02443 8.15952 8.98627 8.20775 8.99341 8.26031C9.00055 8.31288 9.05028 8.34988 9.10448 8.34296C9.15869 8.33604 9.19685 8.28782 9.18971 8.23525C9.18258 8.18269 9.13285 8.14568 9.07864 8.1526Z" fill="#000088"/>
<path d="M10.5023 6.20119L10.7375 7.29957L10.9436 7.79817L10.865 7.26645L10.5023 6.20119Z" fill="#000088"/>
<path d="M9.10396 7.65878C9.04975 7.65186 9.00002 7.68886 8.99289 7.74143C8.98575 7.79399 9.02391 7.84221 9.07812 7.84913C9.13232 7.85605 9.18205 7.81905 9.18919 7.76649C9.19633 7.71392 9.15817 7.6657 9.10396 7.65878Z" fill="#000088"/>
<path d="M10.9994 6.13218L10.9334 7.25216L10.9994 7.78549L11.0654 7.25216L10.9994 6.13218Z" fill="#000088"/>
<path d="M9.25921 7.19442C9.2087 7.17413 9.15078 7.19739 9.12986 7.24637C9.10894 7.29536 9.13292 7.35151 9.18344 7.3718C9.23395 7.39209 9.29186 7.36883 9.31279 7.31985C9.33371 7.27086 9.30972 7.21471 9.25921 7.19442Z" fill="#000088"/>
<path d="M11.4981 6.19539L11.1355 7.26065L11.0569 7.79237L11.263 7.29377L11.4981 6.19539Z" fill="#000088"/>
<path d="M9.5332 6.78568C9.48983 6.75341 9.42768 6.76134 9.39439 6.8034C9.36111 6.84547 9.36929 6.90573 9.41267 6.938C9.45605 6.97028 9.51819 6.96235 9.55148 6.92028C9.58476 6.87822 9.57658 6.81796 9.5332 6.78568Z" fill="#000088"/>
<path d="M11.9623 6.38224L11.3277 7.32018L11.1098 7.81405L11.442 7.38418L11.9623 6.38224Z" fill="#000088"/>
<path d="M9.90688 6.4577C9.87359 6.41564 9.81144 6.4077 9.76807 6.43998C9.72469 6.47225 9.71651 6.53252 9.74979 6.57458C9.78308 6.61664 9.84522 6.62458 9.8886 6.5923C9.93198 6.56003 9.94016 6.49976 9.90688 6.4577Z" fill="#000088"/>
<path d="M12.3606 6.67665L11.4972 7.42335L11.155 7.84572L11.5906 7.51386L12.3606 6.67665Z" fill="#000088"/>
<path d="M10.357 6.24051C10.336 6.19153 10.2781 6.16827 10.2276 6.18856C10.1771 6.20885 10.1531 6.26501 10.174 6.31399C10.195 6.36297 10.2529 6.38623 10.3034 6.36594C10.3539 6.34565 10.3779 6.2895 10.357 6.24051Z" fill="#000088"/>
<path d="M12.6682 7.06747L11.6349 7.57204L11.1916 7.89413L11.7009 7.68289L12.6682 7.06747Z" fill="#000088"/>
<path d="M10.8479 6.13596C10.8408 6.08339 10.7911 6.04639 10.7369 6.05331C10.6827 6.06023 10.6445 6.10845 10.6516 6.16102C10.6588 6.21358 10.7085 6.25059 10.7627 6.24366C10.8169 6.23674 10.8551 6.18852 10.8479 6.13596Z" fill="#000088"/>
<path d="M12.8598 7.51647L11.7271 7.74452L11.2129 7.94438L11.7612 7.86816L12.8598 7.51647Z" fill="#000088"/>
<path d="M11.3499 6.16461C11.357 6.11204 11.3188 6.06382 11.2646 6.0569C11.2104 6.04998 11.1607 6.08698 11.1535 6.13955C11.1464 6.19211 11.1846 6.24034 11.2388 6.24726C11.293 6.25418 11.3427 6.21717 11.3499 6.16461Z" fill="#000088"/>
<path d="M12.9247 8.00276L11.7697 7.93876L11.2197 8.00276L11.7697 8.06676L12.9247 8.00276Z" fill="#000088"/>
<path d="M11.8282 6.31521C11.8492 6.26623 11.8252 6.21007 11.7747 6.18978C11.7241 6.16949 11.6662 6.19275 11.6453 6.24174C11.6244 6.29072 11.6484 6.34688 11.6989 6.36717C11.7494 6.38746 11.8073 6.36419 11.8282 6.31521Z" fill="#000088"/>
<path d="M12.8593 8.48558L11.7607 8.13389L11.2124 8.05767L11.7266 8.25753L12.8593 8.48558Z" fill="#000088"/>
<path d="M12.2515 6.58012C12.2848 6.53806 12.2766 6.47779 12.2333 6.44552C12.1899 6.41324 12.1277 6.42117 12.0944 6.46324C12.0612 6.5053 12.0693 6.56556 12.1127 6.59784C12.1561 6.63011 12.2182 6.62218 12.2515 6.58012Z" fill="#000088"/>
<path d="M12.6673 8.93368L11.7 8.31826L11.1907 8.10702L11.634 8.42911L12.6673 8.93368Z" fill="#000088"/>
<path d="M12.5882 6.93992C12.6316 6.90764 12.6398 6.84738 12.6065 6.80532C12.5732 6.76326 12.5111 6.75532 12.4677 6.7876C12.4243 6.81987 12.4161 6.88014 12.4494 6.9222C12.4827 6.96426 12.5449 6.9722 12.5882 6.93992Z" fill="#000088"/>
<path d="M12.3612 9.31946L11.5911 8.48226L11.1556 8.15039L11.4978 8.57277L12.3612 9.31946Z" fill="#000088"/>
<path d="M12.8176 7.37536C12.8681 7.35507 12.8921 7.29891 12.8712 7.24993C12.8503 7.20094 12.7924 7.17768 12.7419 7.19797C12.6913 7.21826 12.6674 7.27442 12.6883 7.3234C12.7092 7.37239 12.7671 7.39565 12.8176 7.37536Z" fill="#000088"/>
<path d="M11.9634 9.61695L11.443 8.61501L11.1109 8.18513L11.3287 8.67901L11.9634 9.61695Z" fill="#000088"/>
<path d="M12.9223 7.85004C12.9765 7.84312 13.0147 7.79489 13.0076 7.74233C13.0004 7.68976 12.9507 7.65276 12.8965 7.65968C12.8423 7.6666 12.8041 7.71482 12.8113 7.76739C12.8184 7.81995 12.8681 7.85696 12.9223 7.85004Z" fill="#000088"/>
<path d="M11.4987 9.80145L11.2635 8.70307L11.0574 8.20447L11.136 8.73619L11.4987 9.80145Z" fill="#000088"/>
</svg>
