<svg width="16" height="17" viewBox="0 0 16 17" fill="none" xmlns="http://www.w3.org/2000/svg">
<path d="M8 7.75781C8.27614 7.75781 8.5 7.98167 8.5 8.25781V11.2578C8.5 11.534 8.27614 11.7578 8 11.7578C7.72386 11.7578 7.5 11.534 7.5 11.2578V8.25781C7.5 7.98167 7.72386 7.75781 8 7.75781ZM8.00001 7.00688C8.41369 7.00688 8.74905 6.67152 8.74905 6.25784C8.74905 5.84416 8.41369 5.50881 8.00001 5.50881C7.58633 5.50881 7.25098 5.84416 7.25098 6.25784C7.25098 6.67152 7.58633 7.00688 8.00001 7.00688ZM2 8.75781C2 5.4441 4.68629 2.75781 8 2.75781C11.3137 2.75781 14 5.4441 14 8.75781C14 12.0715 11.3137 14.7578 8 14.7578C4.68629 14.7578 2 12.0715 2 8.75781ZM8 3.75781C5.23858 3.75781 3 5.99639 3 8.75781C3 11.5192 5.23858 13.7578 8 13.7578C10.7614 13.7578 13 11.5192 13 8.75781C13 5.99639 10.7614 3.75781 8 3.75781Z" fill="currentColor"/>
</svg>
