<svg width="16" height="16" viewBox="0 0 16 16" fill="none" xmlns="http://www.w3.org/2000/svg">
<g clip-path="url(#clip0_1196_2409)">
<path d="M8.00065 14.6667C11.6826 14.6667 14.6673 11.6819 14.6673 8C14.6673 4.3181 11.6826 1.33334 8.00065 1.33334C4.31875 1.33334 1.33398 4.3181 1.33398 8C1.33398 11.6819 4.31875 14.6667 8.00065 14.6667Z" fill="white"/>
<path d="M8.00065 5.33334V8M8.00065 10.6667H8.00732M14.6673 8C14.6673 11.6819 11.6826 14.6667 8.00065 14.6667C4.31875 14.6667 1.33398 11.6819 1.33398 8C1.33398 4.3181 4.31875 1.33334 8.00065 1.33334C11.6826 1.33334 14.6673 4.3181 14.6673 8Z" stroke="currentColor" stroke-width="1.4" stroke-linecap="round" stroke-linejoin="round"/>
</g>
<defs>
<clipPath id="clip0_1196_2409">
<rect width="16" height="16" fill="white"/>
</clipPath>
</defs>
</svg>
