<svg width="20" height="21" viewBox="0 0 20 21" fill="none" xmlns="http://www.w3.org/2000/svg">
<path d="M10.0003 18.8333C14.6027 18.8333 18.3337 15.1023 18.3337 10.5C18.3337 5.89759 14.6027 2.16663 10.0003 2.16663C5.39795 2.16663 1.66699 5.89759 1.66699 10.5C1.66699 15.1023 5.39795 18.8333 10.0003 18.8333Z" fill="#607290"/>
<path d="M10.0003 13.8333V10.5M10.0003 7.16663H10.0087M18.3337 10.5C18.3337 15.1023 14.6027 18.8333 10.0003 18.8333C5.39795 18.8333 1.66699 15.1023 1.66699 10.5C1.66699 5.89759 5.39795 2.16663 10.0003 2.16663C14.6027 2.16663 18.3337 5.89759 18.3337 10.5Z" stroke="white" stroke-width="1.4" stroke-linecap="round" stroke-linejoin="round"/>
</svg>
