<svg width="24" height="23" viewBox="0 0 24 23" fill="none" xmlns="http://www.w3.org/2000/svg">
<g clip-path="url(#clip0_5134_8819)">
<path d="M18.3428 22.3262L5.94053 22.3379C3.21204 22.3404 0.977775 20.1105 0.974675 17.382L0.962893 4.97963C0.960412 2.25112 3.19033 0.016838 5.91883 0.0137374L18.3211 0.00195519C21.0495 -0.000525275 23.2838 2.22942 23.2869 4.95793L23.2987 17.3603C23.3018 20.0894 21.0713 22.3237 18.3428 22.3262Z" fill="url(#paint0_radial_5134_8819)"/>
<path d="M18.3428 22.3262L5.94053 22.3379C3.21204 22.3404 0.977775 20.1105 0.974675 17.382L0.962893 4.97963C0.960412 2.25112 3.19033 0.016838 5.91883 0.0137374L18.3211 0.00195519C21.0495 -0.000525275 23.2838 2.22942 23.2869 4.95793L23.2987 17.3603C23.3018 20.0894 21.0713 22.3237 18.3428 22.3262Z" fill="url(#paint1_radial_5134_8819)"/>
<path d="M12.1318 15.8262C9.56651 15.8262 7.47852 13.7388 7.47852 11.1729C7.47852 8.60688 9.56651 6.51953 12.1318 6.51953C14.6971 6.51953 16.7851 8.60688 16.7851 11.1729C16.7851 13.7388 14.6971 15.8262 12.1318 15.8262ZM12.1318 7.84905C10.2991 7.84905 8.80803 9.34012 8.80803 11.1729C8.80803 13.0056 10.2991 14.4967 12.1318 14.4967C13.9645 14.4967 15.4556 13.0056 15.4556 11.1729C15.4556 9.34012 13.9645 7.84905 12.1318 7.84905Z" fill="white"/>
<path d="M16.7842 7.44727C17.2982 7.44727 17.7148 7.0306 17.7148 6.5166C17.7148 6.00261 17.2982 5.58594 16.7842 5.58594C16.2702 5.58594 15.8535 6.00261 15.8535 6.5166C15.8535 7.0306 16.2702 7.44727 16.7842 7.44727Z" fill="white"/>
<path d="M15.9976 19.5459H8.26597C5.77961 19.5459 3.75586 17.5228 3.75586 15.0358V7.3041C3.75586 4.81707 5.77961 2.79395 8.26597 2.79395H15.9976C18.484 2.79395 20.5077 4.81707 20.5077 7.3041V15.0358C20.5077 17.5228 18.484 19.5459 15.9976 19.5459ZM8.26597 4.08256C6.48963 4.08256 5.04446 5.52774 5.04446 7.3041V15.0358C5.04446 16.8121 6.48963 18.2573 8.26597 18.2573H15.9976C17.7739 18.2573 19.2191 16.8121 19.2191 15.0358V7.3041C19.2191 5.52774 17.7739 4.08256 15.9976 4.08256H8.26597Z" fill="white"/>
</g>
<defs>
<radialGradient id="paint0_radial_5134_8819" cx="0" cy="0" r="1" gradientUnits="userSpaceOnUse" gradientTransform="translate(9.26619 22.3541) scale(27.8424 27.8426)">
<stop stop-color="#FFDD55"/>
<stop offset="0.328" stop-color="#FF543F"/>
<stop offset="0.348" stop-color="#FC5245"/>
<stop offset="0.504" stop-color="#E64771"/>
<stop offset="0.643" stop-color="#D53E91"/>
<stop offset="0.761" stop-color="#CC39A4"/>
<stop offset="0.841" stop-color="#C837AB"/>
</radialGradient>
<radialGradient id="paint1_radial_5134_8819" cx="0" cy="0" r="1" gradientUnits="userSpaceOnUse" gradientTransform="translate(4.55706 -0.27691) scale(18.4874 12.3183)">
<stop stop-color="#4168C9"/>
<stop offset="0.999" stop-color="#4168C9" stop-opacity="0"/>
</radialGradient>
<clipPath id="clip0_5134_8819">
<rect width="22.3358" height="22.336" fill="white" transform="translate(0.962891 0.00195312)"/>
</clipPath>
</defs>
</svg>
