<svg width="67" height="24" viewBox="0 0 67 24" fill="none" xmlns="http://www.w3.org/2000/svg">
<path d="M6.36148 9.62024C6.36148 10.887 5.78776 11.5112 4.72751 11.5112C3.66726 11.5112 3.22205 11.0018 3.22205 9.71663V4.22266H0V10.4005C0 12.8056 1.25302 14.1136 3.41023 14.1136C4.58063 14.1687 5.70514 13.6134 6.36148 12.6311V13.8291H9.56517V4.23184H6.34312L6.36148 9.62024Z" fill="#FF0031"/>
<path d="M17.2802 3.94716C16.1098 3.8829 14.9853 4.4245 14.3152 5.38835V4.24091H11.1758V17.7349H14.3978V12.7871C15.0771 13.6867 16.1603 14.1824 17.2894 14.1181C18.8913 14.1916 20.3738 13.2736 21.0209 11.8049C21.714 10.0286 21.714 8.05961 21.0209 6.27877C20.3738 4.79627 18.8913 3.87372 17.2802 3.94257V3.94716ZM17.8769 10.5151C17.574 11.1531 16.913 11.5341 16.2108 11.479C14.9991 11.479 14.3473 10.7125 14.3473 9.28508V8.77561C14.3473 7.35737 14.9991 6.5817 16.2108 6.5817C16.913 6.52662 17.5648 6.90757 17.8677 7.54555C18.0421 8.02289 18.1248 8.54153 18.0972 9.051C18.1202 9.52834 18.0513 10.0332 17.8723 10.5106L17.8769 10.5151Z" fill="#FF0031"/>
<path d="M42.7399 3.96095C41.9642 3.95177 41.2574 4.40157 40.9315 5.09463V4.23175H37.7324V13.8474H40.9545V7.77507C40.9545 7.10496 41.0095 6.94431 41.2803 6.83416C41.5741 7.38493 42.157 7.71999 42.7858 7.69704C43.7726 7.72917 44.5942 6.96267 44.6355 5.97587V5.83359C44.6906 4.86055 43.9516 4.02521 42.9878 3.97013H42.7399V3.96095Z" fill="#FF0031"/>
<path d="M50.075 3.94727C47.9132 3.94727 46.2792 4.58525 45.6413 5.99431C45.4668 6.42575 45.3613 6.88014 45.3521 7.34371H48.6292C48.6384 7.14635 48.6751 6.95358 48.7486 6.76998C48.9413 6.34772 49.3636 6.15036 50.1117 6.15036C50.8599 6.15036 51.2454 6.36608 51.4428 6.78834C51.5805 7.11422 51.6264 7.46763 51.5942 7.80728V7.95874H50.153C47.8031 7.95874 45.935 8.30756 45.2328 9.80842C45.0675 10.2215 44.9941 10.6713 45.0033 11.1165C44.9849 11.5847 45.0767 12.0574 45.2741 12.4797C45.7514 13.5537 46.8943 14.0999 48.4135 14.0999C49.9327 14.0999 50.9746 13.5904 51.5851 12.6954V13.8337H54.8071V8.31674C54.8301 7.51353 54.697 6.70573 54.3986 5.94841C53.779 4.57148 52.4066 3.94727 50.0704 3.94727H50.075ZM51.6126 9.89104C51.6447 10.249 51.5897 10.6162 51.4382 10.9513C51.1903 11.5112 50.635 11.8142 49.7629 11.8142C49.2626 11.8876 48.7669 11.6627 48.4869 11.2404C48.3584 10.9605 48.3584 10.6346 48.4869 10.3546C48.6935 9.84514 49.4508 9.75794 50.3779 9.75794H51.6126V9.89563V9.89104Z" fill="#FF0031"/>
<path d="M63.2698 0.247803V5.27821C62.586 4.38779 61.5074 3.88291 60.3783 3.94717C58.7672 3.86914 57.2756 4.80087 56.6467 6.28337C55.9537 8.05962 55.9537 10.0286 56.6467 11.8095C57.2939 13.2828 58.7764 14.2008 60.3783 14.1227C61.5441 14.1962 62.664 13.6546 63.3433 12.7045V13.8519H66.4827V0.247803H63.2698ZM63.3066 9.31722C63.3066 10.7355 62.6548 11.5111 61.4431 11.5111C60.7409 11.5662 60.0799 11.1853 59.7862 10.5473C59.6118 10.0516 59.5292 9.53294 59.5567 9.01429C59.5337 8.50483 59.6118 7.99536 59.7862 7.50884C60.0799 6.87086 60.7409 6.48991 61.4431 6.54499C62.6548 6.54499 63.3066 7.32066 63.3066 8.73891V9.32181V9.31722Z" fill="#FF0031"/>
<path d="M30.467 9.08778H32.5416L32.4636 9.40447C32.2066 10.4785 30.9306 11.2083 29.8795 11.2083C28.4292 11.2083 26.5611 10.5152 26.5611 7.19219C26.5611 4.44291 27.7636 3.1027 29.6317 3.1027C30.6506 3.1027 31.4171 3.34136 31.8853 4.0436C32.101 4.36948 32.2295 4.73666 32.2754 5.12679H35.9519C35.9289 3.93804 35.4516 2.80895 34.6208 1.95525L34.5566 1.89099C33.4412 0.679288 31.7522 0 29.6684 0C25.4182 0 22.6689 2.8319 22.6689 7.20596C22.6689 12.2777 26.1434 14.0677 29.1268 14.0677C30.8021 14.0677 32.2984 13.5582 33.2163 12.5944L33.2576 13.8474H36.1492V6.60929H30.4579L30.467 9.08778Z" fill="#FF0031"/>
<path d="M26.6307 18.0195H25.3685L23.8539 19.7774V18.0195H22.7432V22.4762H23.8539V20.5256L25.419 22.4762H26.7271L24.8223 20.1079L26.6307 18.0195Z" fill="black"/>
<path d="M28.9533 19.479C28.7376 19.479 28.554 19.5249 28.4071 19.6121C28.2602 19.6993 28.1455 19.8278 28.0583 19.9885V19.5479H27.0898V22.4761H28.0583V20.6953C28.0583 20.5806 28.0812 20.4842 28.1226 20.4016C28.1639 20.3189 28.2235 20.2593 28.3016 20.218C28.3796 20.1767 28.4668 20.1537 28.5678 20.1537C28.7192 20.1537 28.8294 20.1996 28.8936 20.296C28.9579 20.3878 28.99 20.5209 28.99 20.6953V22.4761H29.9906V20.5943C29.9906 20.2409 29.908 19.9701 29.7428 19.7727C29.5775 19.5754 29.3113 19.479 28.9487 19.479H28.9533Z" fill="black"/>
<path d="M33.1113 19.6673C32.8589 19.5387 32.5743 19.4745 32.2576 19.4745C31.9409 19.4745 31.6517 19.5387 31.3993 19.6673C31.1469 19.7958 30.9449 19.9748 30.8026 20.1997C30.6604 20.4292 30.5869 20.7 30.5869 21.0075C30.5869 21.315 30.6604 21.5812 30.8026 21.8107C30.9449 22.0402 31.1469 22.2192 31.3993 22.3431C31.6517 22.4716 31.9409 22.5359 32.2576 22.5359C32.5743 22.5359 32.8589 22.4716 33.1113 22.3431C33.3638 22.2146 33.5611 22.0356 33.708 21.8107C33.8549 21.5812 33.9283 21.315 33.9283 21.0075C33.9283 20.7 33.8549 20.4292 33.708 20.1997C33.5611 19.9702 33.3638 19.7912 33.1113 19.6673ZM32.8451 21.4022C32.7854 21.5124 32.7028 21.595 32.5973 21.6546C32.4917 21.7143 32.3815 21.7418 32.2576 21.7418C32.1337 21.7418 32.0143 21.7143 31.9134 21.6546C31.8124 21.595 31.7298 21.5124 31.6655 21.4022C31.6013 21.292 31.5691 21.1635 31.5691 21.0121C31.5691 20.8606 31.6013 20.7275 31.6655 20.6173C31.7298 20.5072 31.8124 20.42 31.9134 20.3649C32.0143 20.3052 32.1291 20.2777 32.2576 20.2777C32.3861 20.2777 32.4963 20.3052 32.5973 20.3649C32.7028 20.4246 32.7854 20.5072 32.8451 20.6173C32.9048 20.7275 32.9369 20.8606 32.9369 21.0121C32.9369 21.1635 32.9048 21.2966 32.8451 21.4022Z" fill="black"/>
<path d="M37.3021 21.0488L36.4347 19.323L35.6039 21.0488L34.9935 19.5479H33.9883L35.4937 22.6598L36.4438 20.9157L37.4123 22.6598L38.9177 19.5479H37.9126L37.3021 21.0488Z" fill="black"/>
<path d="M40.2165 17.51H39.248V22.4762H40.2165V17.51Z" fill="black"/>
<path d="M42.878 21.7509C42.7587 21.8152 42.6118 21.8473 42.442 21.8473C42.2951 21.8473 42.1666 21.8152 42.0656 21.7509C41.9646 21.6867 41.8866 21.5903 41.8361 21.4618C41.8086 21.3883 41.7856 21.3103 41.7765 21.2185H44.0071C44.0163 21.191 44.0209 21.1497 44.0209 21.1084V20.9707C44.0209 20.6586 43.9612 20.3878 43.8373 20.1674C43.7134 19.9471 43.5344 19.7773 43.3049 19.6626C43.0708 19.5478 42.7862 19.4882 42.4466 19.4882C42.1069 19.4882 41.8132 19.5478 41.5653 19.6718C41.3175 19.7957 41.1293 19.9701 40.9962 20.1996C40.8631 20.4291 40.7988 20.6999 40.7988 21.012C40.7988 21.3241 40.8677 21.5903 41.0008 21.8198C41.1385 22.0493 41.3267 22.2283 41.5745 22.3522C41.8224 22.4761 42.1161 22.5404 42.4558 22.5404C42.8275 22.5404 43.1442 22.4669 43.4058 22.3246C43.6675 22.1824 43.874 21.9621 44.0255 21.6775L43.1672 21.4664C43.0937 21.5949 42.9973 21.6913 42.878 21.7509ZM42.061 20.2225C42.1574 20.1583 42.2813 20.1261 42.4236 20.1261C42.5384 20.1261 42.6393 20.1537 42.722 20.2042C42.8046 20.2547 42.8734 20.3281 42.9193 20.4199C42.956 20.4933 42.979 20.5851 42.9882 20.6815H41.7948C41.8086 20.6218 41.8224 20.5622 41.8407 20.5117C41.8912 20.3832 41.9646 20.2868 42.061 20.2225Z" fill="black"/>
<path d="M46.8353 20.0161C46.739 19.8738 46.6242 19.7545 46.4865 19.6673C46.2983 19.5433 46.078 19.4837 45.8348 19.4837C45.5915 19.4837 45.3712 19.5433 45.1601 19.6627C44.9489 19.782 44.7745 19.9518 44.6414 20.1767C44.5083 20.4016 44.4395 20.6816 44.4395 21.0121C44.4395 21.3425 44.5083 21.6179 44.6414 21.8428C44.7745 22.0677 44.9489 22.2421 45.1601 22.3615C45.3712 22.4808 45.5961 22.5405 45.8348 22.5405C46.0734 22.5405 46.2983 22.4808 46.4865 22.3569C46.6242 22.2697 46.739 22.1503 46.8353 22.008V22.4808H47.7946V17.5146H46.8353V20.0207V20.0161ZM46.7344 21.416C46.6655 21.5307 46.5783 21.6133 46.4773 21.673C46.3718 21.7327 46.2662 21.7602 46.156 21.7602C46.0275 21.7602 45.9128 21.7281 45.8072 21.6684C45.7016 21.6087 45.6144 21.5215 45.5548 21.4068C45.4905 21.2966 45.4584 21.1635 45.4584 21.0075C45.4584 20.8514 45.4905 20.7229 45.5548 20.6082C45.619 20.498 45.7016 20.4108 45.8072 20.3465C45.9128 20.2869 46.0321 20.2548 46.156 20.2548C46.2662 20.2548 46.3718 20.2823 46.4773 20.342C46.5829 20.4016 46.6655 20.4888 46.7344 20.599C46.8032 20.7137 46.8353 20.8468 46.8353 21.0029C46.8353 21.1589 46.8032 21.2966 46.7344 21.4068V21.416Z" fill="black"/>
<path d="M50.764 19.9931C50.6677 19.8554 50.5529 19.7407 50.4152 19.6581C50.227 19.5433 50.0067 19.4836 49.7635 19.4836C49.5202 19.4836 49.2999 19.5387 49.0888 19.6489C48.8776 19.759 48.7032 19.9243 48.5701 20.1446C48.437 20.3649 48.3682 20.6403 48.3682 20.9707C48.3682 21.3012 48.437 21.572 48.5701 21.7923C48.7032 22.0126 48.8776 22.1778 49.0888 22.2926C49.2999 22.4073 49.5248 22.4624 49.7635 22.4624C50.0021 22.4624 50.227 22.4027 50.4152 22.288C50.5529 22.2054 50.6677 22.0906 50.764 21.9529V22.4119C50.764 22.5909 50.7319 22.7378 50.6677 22.8617C50.6034 22.9811 50.5116 23.0729 50.4015 23.1371C50.2913 23.1968 50.1674 23.2289 50.0343 23.2289C49.9103 23.2289 49.8002 23.2105 49.7038 23.1692C49.6074 23.1279 49.5294 23.0683 49.4697 22.9856C49.4146 22.903 49.3779 22.8066 49.3642 22.6873H48.437C48.46 22.9443 48.5288 23.1738 48.6481 23.3712C48.7675 23.5686 48.9419 23.72 49.1806 23.8348C49.4146 23.9449 49.713 24 50.0756 24C50.3785 24 50.6493 23.9449 50.888 23.8393C51.1312 23.7292 51.324 23.5594 51.4709 23.3253C51.6178 23.0912 51.6912 22.7883 51.6912 22.4165V19.5525H50.7686V19.9977L50.764 19.9931ZM50.6585 21.3655C50.5896 21.471 50.5024 21.549 50.4015 21.6041C50.2959 21.6592 50.1903 21.6821 50.0802 21.6821C49.9517 21.6821 49.8369 21.6546 49.7313 21.5995C49.6258 21.5445 49.5386 21.4618 49.4789 21.3563C49.4146 21.2461 49.3825 21.1176 49.3825 20.9707C49.3825 20.8239 49.4146 20.6908 49.4789 20.5806C49.5432 20.475 49.6258 20.3924 49.7313 20.3373C49.8369 20.2823 49.9562 20.2547 50.0802 20.2547C50.1628 20.2547 50.2408 20.2685 50.3234 20.3006C50.406 20.3282 50.4749 20.3741 50.5437 20.4337C50.608 20.4934 50.6631 20.5668 50.7044 20.6586C50.7457 20.7458 50.764 20.8514 50.764 20.9707C50.764 21.1268 50.7319 21.2599 50.6631 21.3655H50.6585Z" fill="black"/>
<path d="M54.335 21.7509C54.2157 21.8152 54.0688 21.8473 53.899 21.8473C53.7521 21.8473 53.6236 21.8152 53.5226 21.7509C53.4217 21.6867 53.3436 21.5903 53.2932 21.4618C53.2656 21.3883 53.2427 21.3103 53.2335 21.2185H55.4641C55.4733 21.191 55.4779 21.1497 55.4779 21.1084V20.9707C55.4779 20.6586 55.4182 20.3878 55.2943 20.1674C55.1704 19.9471 54.9914 19.7773 54.7619 19.6626C54.5278 19.5478 54.2432 19.4882 53.9036 19.4882C53.564 19.4882 53.2702 19.5478 53.0224 19.6718C52.7745 19.7957 52.5863 19.9701 52.4532 20.1996C52.3201 20.4291 52.2559 20.6999 52.2559 21.012C52.2559 21.3241 52.3247 21.5903 52.4578 21.8198C52.5955 22.0493 52.7837 22.2283 53.0315 22.3522C53.2794 22.4761 53.5731 22.5404 53.9128 22.5404C54.2846 22.5404 54.6013 22.4669 54.8629 22.3246C55.1245 22.1824 55.331 21.9621 55.4825 21.6775L54.6242 21.4664C54.5508 21.5949 54.4544 21.6913 54.335 21.7509ZM53.5181 20.2225C53.6144 20.1583 53.7384 20.1261 53.8807 20.1261C53.9954 20.1261 54.0964 20.1537 54.179 20.2042C54.2616 20.2547 54.3305 20.3281 54.3764 20.4199C54.4131 20.4933 54.436 20.5851 54.4452 20.6815H53.2518C53.2656 20.6218 53.2794 20.5622 53.2977 20.5117C53.3482 20.3832 53.4217 20.2868 53.5181 20.2225Z" fill="black"/>
<path d="M59.155 19.6443H57.241V18.0195H56.167V22.4762H57.241V20.6082H59.155V22.4762H60.2336V18.0195H59.155V19.6443Z" fill="black"/>
<path d="M63.0138 21.3288C63.0138 21.4435 62.9908 21.5399 62.9495 21.6225C62.9082 21.7051 62.8485 21.7648 62.7751 21.8061C62.7017 21.8474 62.6099 21.8704 62.5043 21.8704C62.3482 21.8704 62.2381 21.8245 62.1738 21.7281C62.1096 21.6317 62.0774 21.4986 62.0774 21.3288V19.5479H61.0723V21.4297C61.0723 21.7786 61.1549 22.0494 61.3247 22.2467C61.4945 22.4441 61.7607 22.5405 62.1233 22.5405C62.3391 22.5405 62.5181 22.4946 62.6649 22.4028C62.8072 22.311 62.9265 22.1871 63.0138 22.031V22.4716H63.973V19.5433H63.0138V21.3242V21.3288Z" fill="black"/>
<path d="M66.3466 19.5479H65.8279V18.5289H64.9008V19.5479H64.3867V20.3419H64.9008V22.4761H65.8279V20.3419H66.3466V19.5479Z" fill="black"/>
</svg>
