<svg width="122" height="45" viewBox="0 0 122 45" fill="none" xmlns="http://www.w3.org/2000/svg">
<path d="M11.7203 17.6576C11.7203 19.9801 10.6685 21.1245 8.72467 21.1245C6.7809 21.1245 5.96468 20.1904 5.96468 17.8344V7.76208H0.0576172V19.0881C0.0576172 23.4974 2.35481 25.8955 6.30968 25.8955C8.45541 25.9965 10.517 24.9783 11.7203 23.1776V25.3738H17.5937V7.77891H11.6866L11.7203 17.6576Z" fill="#FF0031"/>
<path d="M31.7383 7.25721C29.5926 7.13941 27.531 8.13233 26.3025 9.89939V7.79574H20.5469V32.5347H26.4539V23.4637C27.6993 25.113 29.6851 26.0218 31.7551 25.904C34.6918 26.0386 37.4098 24.3557 38.5962 21.663C39.8668 18.4066 39.8668 14.7967 38.5962 11.5318C37.4098 8.81391 34.6918 7.12258 31.7383 7.24879V7.25721ZM32.8322 19.2985C32.2768 20.4681 31.0651 21.1665 29.7777 21.0656C27.5563 21.0656 26.3614 19.6603 26.3614 17.0434V16.1094C26.3614 13.5093 27.5563 12.0872 29.7777 12.0872C31.0651 11.9862 32.26 12.6846 32.8154 13.8543C33.1351 14.7294 33.2866 15.6802 33.2361 16.6142C33.2782 17.4894 33.152 18.415 32.8238 19.2901L32.8322 19.2985Z" fill="#FF0031"/>
<path d="M78.4147 7.28248C76.9926 7.26565 75.6968 8.09028 75.0994 9.36088V7.77894H69.2344V25.4075H75.1414V14.275C75.1414 13.0465 75.2424 12.752 75.7389 12.55C76.2774 13.5598 77.3461 14.174 78.4989 14.132C80.308 14.1909 81.8142 12.7856 81.89 10.9765V10.7156C81.9909 8.93174 80.6362 7.40028 78.8691 7.29931H78.4147V7.28248Z" fill="#FF0031"/>
<path d="M91.8619 7.2572C87.8987 7.2572 84.903 8.42683 83.7334 11.0101C83.4137 11.8011 83.2201 12.6341 83.2033 13.484H89.2113C89.2282 13.1222 89.2955 12.7688 89.4301 12.4322C89.7835 11.658 90.5577 11.2962 91.9293 11.2962C93.3008 11.2962 94.0077 11.6917 94.3695 12.4658C94.6219 13.0633 94.7061 13.7112 94.6472 14.3339V14.6116H92.005C87.6967 14.6116 84.2719 15.2511 82.9845 18.0026C82.6816 18.76 82.547 19.5846 82.5638 20.4008C82.5301 21.2591 82.6984 22.1258 83.0602 22.8999C83.9354 24.869 86.0306 25.8703 88.8158 25.8703C91.6011 25.8703 93.5112 24.9363 94.6303 23.2954V25.3822H100.537V15.2679C100.579 13.7953 100.335 12.3144 99.7885 10.926C98.6525 8.40159 96.1366 7.2572 91.8535 7.2572H91.8619ZM94.6808 18.1541C94.7397 18.8104 94.6388 19.4836 94.3611 20.0979C93.9067 21.1245 92.8885 21.6798 91.2897 21.6798C90.3725 21.8145 89.4638 21.4021 88.9505 20.628C88.7149 20.1147 88.7149 19.5173 88.9505 19.004C89.3291 18.07 90.7175 17.9101 92.4173 17.9101H94.6808V18.1625V18.1541Z" fill="#FF0031"/>
<path d="M116.053 0.475098V9.6975C114.799 8.06506 112.822 7.13946 110.752 7.25726C107.799 7.11421 105.064 8.82238 103.911 11.5403C102.64 14.7967 102.64 18.4066 103.911 21.6715C105.097 24.3726 107.815 26.0555 110.752 25.9124C112.889 26.0471 114.943 25.0541 116.188 23.3123V25.416H121.943V0.475098H116.053ZM116.121 17.1023C116.121 19.7024 114.926 21.1245 112.704 21.1245C111.417 21.2255 110.205 20.5271 109.667 19.3575C109.347 18.4487 109.195 17.4978 109.246 16.547C109.204 15.613 109.347 14.6789 109.667 13.787C110.205 12.6174 111.417 11.919 112.704 12.0199C114.926 12.0199 116.121 13.442 116.121 16.0421V17.1108V17.1023Z" fill="#FF0031"/>
<path d="M55.9146 16.6815H59.718L59.575 17.2621C59.1037 19.2312 56.7645 20.5691 54.8375 20.5691C52.1785 20.5691 48.7538 19.2985 48.7538 13.2063C48.7538 8.16596 50.9584 5.7089 54.3831 5.7089C56.2512 5.7089 57.6564 6.14646 58.5147 7.43389C58.9102 8.03133 59.1458 8.70449 59.23 9.41973H65.9701C65.928 7.24035 65.0529 5.17036 63.5298 3.60525L63.412 3.48744C61.3673 1.26599 58.2707 0.0206299 54.4505 0.0206299C46.6585 0.0206299 41.6182 5.21244 41.6182 13.2315C41.6182 22.5297 47.988 25.8114 53.4575 25.8114C56.5289 25.8114 59.272 24.8773 60.955 23.1103L61.0307 25.4075H66.3319V12.1376H55.8978L55.9146 16.6815Z" fill="#FF0031"/>
<path d="M48.8821 33.0564H46.568L43.7912 36.2792V33.0564H41.7549V41.227H43.7912V37.6508L46.6606 41.227H49.0588L45.5667 36.885L48.8821 33.0564Z" fill="black"/>
<path d="M53.14 35.7323C52.7445 35.7323 52.4079 35.8164 52.1386 35.9763C51.8694 36.1362 51.659 36.3718 51.4991 36.6663V35.8585H49.7236V41.227H51.4991V37.9622C51.4991 37.7518 51.5412 37.5751 51.6169 37.4236C51.6927 37.2722 51.802 37.1628 51.9451 37.0871C52.0881 37.0113 52.248 36.9692 52.4331 36.9692C52.7108 36.9692 52.9128 37.0534 53.0306 37.2301C53.1484 37.3984 53.2073 37.6424 53.2073 37.9622V41.227H55.0417V37.777C55.0417 37.1291 54.8902 36.6327 54.5873 36.2708C54.2844 35.909 53.7963 35.7323 53.1316 35.7323H53.14Z" fill="black"/>
<path d="M60.7638 36.0773C60.301 35.8417 59.7793 35.7239 59.1987 35.7239C58.6181 35.7239 58.0879 35.8417 57.6251 36.0773C57.1623 36.3129 56.7921 36.6411 56.5312 37.0534C56.2704 37.4741 56.1357 37.9706 56.1357 38.5344C56.1357 39.0981 56.2704 39.5862 56.5312 40.0069C56.7921 40.4276 57.1623 40.7558 57.6251 40.983C58.0879 41.2186 58.6181 41.3364 59.1987 41.3364C59.7793 41.3364 60.301 41.2186 60.7638 40.983C61.2266 40.7474 61.5884 40.4192 61.8577 40.0069C62.1269 39.5862 62.2616 39.0981 62.2616 38.5344C62.2616 37.9706 62.1269 37.4741 61.8577 37.0534C61.5884 36.6327 61.2266 36.3045 60.7638 36.0773ZM60.2757 39.258C60.1663 39.46 60.0149 39.6114 59.8213 39.7208C59.6278 39.8302 59.4259 39.8807 59.1987 39.8807C58.9715 39.8807 58.7527 39.8302 58.5676 39.7208C58.3824 39.6114 58.231 39.46 58.1132 39.258C57.9954 39.0561 57.9365 38.8204 57.9365 38.5428C57.9365 38.2651 57.9954 38.0211 58.1132 37.8191C58.231 37.6172 58.3824 37.4573 58.5676 37.3563C58.7527 37.2469 58.9631 37.1964 59.1987 37.1964C59.4343 37.1964 59.6362 37.2469 59.8213 37.3563C60.0149 37.4657 60.1663 37.6172 60.2757 37.8191C60.3851 38.0211 60.444 38.2651 60.444 38.5428C60.444 38.8204 60.3851 39.0645 60.2757 39.258Z" fill="black"/>
<path d="M68.4464 38.6101L66.8561 35.4462L65.333 38.6101L64.2139 35.8585H62.3711L65.1311 41.5636L66.8729 38.366L68.6484 41.5636L71.4084 35.8585H69.5656L68.4464 38.6101Z" fill="black"/>
<path d="M73.7892 32.1224H72.0137V41.227H73.7892V32.1224Z" fill="black"/>
<path d="M78.6692 39.8975C78.4505 40.0153 78.1812 40.0742 77.8699 40.0742C77.6006 40.0742 77.365 40.0153 77.1799 39.8975C76.9947 39.7797 76.8517 39.603 76.7591 39.3674C76.7086 39.2328 76.6666 39.0897 76.6497 38.9214H80.7392C80.7561 38.871 80.7645 38.7952 80.7645 38.7195V38.4671C80.7645 37.8949 80.6551 37.3984 80.4279 36.9945C80.2007 36.5906 79.8725 36.2793 79.4518 36.0689C79.0227 35.8585 78.5009 35.7491 77.8783 35.7491C77.2556 35.7491 76.7171 35.8585 76.2627 36.0857C75.8083 36.3129 75.4633 36.6327 75.2193 37.0534C74.9752 37.4741 74.8574 37.9706 74.8574 38.5428C74.8574 39.115 74.9836 39.603 75.2277 40.0238C75.4801 40.4445 75.8251 40.7727 76.2795 40.9999C76.7339 41.227 77.2724 41.3449 77.8951 41.3449C78.5767 41.3449 79.1573 41.2102 79.6369 40.9494C80.1166 40.6885 80.4952 40.2846 80.7729 39.7629L79.1994 39.3758C79.0647 39.6114 78.888 39.7882 78.6692 39.8975ZM77.1714 37.0955C77.3481 36.9777 77.5753 36.9188 77.8362 36.9188C78.0466 36.9188 78.2317 36.9693 78.3831 37.0618C78.5346 37.1544 78.6608 37.289 78.745 37.4573C78.8123 37.5919 78.8544 37.7602 78.8712 37.9369H76.6834C76.7086 37.8275 76.7339 37.7182 76.7675 37.6256C76.8601 37.39 76.9947 37.2133 77.1714 37.0955Z" fill="black"/>
<path d="M85.9237 36.7168C85.747 36.456 85.5366 36.2372 85.2842 36.0773C84.9392 35.8501 84.5353 35.7407 84.0893 35.7407C83.6433 35.7407 83.2394 35.8501 82.8523 36.0689C82.4653 36.2877 82.1455 36.599 81.9015 37.0113C81.6575 37.4236 81.5312 37.9369 81.5312 38.5428C81.5312 39.1486 81.6575 39.6535 81.9015 40.0658C82.1455 40.4781 82.4653 40.7979 82.8523 41.0167C83.2394 41.2355 83.6517 41.3448 84.0893 41.3448C84.5269 41.3448 84.9392 41.2355 85.2842 41.0083C85.5366 40.8484 85.747 40.6296 85.9237 40.3688V41.2355H87.6823V32.1309H85.9237V36.7252V36.7168ZM85.7386 39.2833C85.6123 39.4936 85.4525 39.6451 85.2673 39.7545C85.0738 39.8639 84.8803 39.9144 84.6783 39.9144C84.4427 39.9144 84.2323 39.8555 84.0388 39.7461C83.8453 39.6367 83.6854 39.4768 83.576 39.2664C83.4582 39.0645 83.3993 38.8205 83.3993 38.5344C83.3993 38.2483 83.4582 38.0127 83.576 37.8023C83.6938 37.6003 83.8453 37.4405 84.0388 37.3227C84.2323 37.2133 84.4511 37.1544 84.6783 37.1544C84.8803 37.1544 85.0738 37.2049 85.2673 37.3143C85.4609 37.4236 85.6123 37.5835 85.7386 37.7855C85.8648 37.9958 85.9237 38.2399 85.9237 38.526C85.9237 38.812 85.8648 39.0645 85.7386 39.2664V39.2833Z" fill="black"/>
<path d="M93.1258 36.6747C92.9491 36.4223 92.7388 36.2119 92.4863 36.0605C92.1413 35.8501 91.7374 35.7407 91.2914 35.7407C90.8455 35.7407 90.4416 35.8417 90.0545 36.0436C89.6674 36.2456 89.3477 36.5485 89.1036 36.9524C88.8596 37.3563 88.7334 37.8612 88.7334 38.4671C88.7334 39.0729 88.8596 39.5694 89.1036 39.9733C89.3477 40.3772 89.6674 40.6801 90.0545 40.8905C90.4416 41.1008 90.8539 41.2018 91.2914 41.2018C91.729 41.2018 92.1413 41.0924 92.4863 40.882C92.7388 40.7306 92.9491 40.5202 93.1258 40.2678V41.1092C93.1258 41.4374 93.0669 41.7067 92.9491 41.9339C92.8313 42.1526 92.663 42.3209 92.4611 42.4387C92.2591 42.5481 92.0319 42.607 91.7879 42.607C91.5607 42.607 91.3588 42.5734 91.1821 42.4976C91.0053 42.4219 90.8623 42.3125 90.7529 42.1611C90.6519 42.0096 90.5846 41.8329 90.5594 41.6141H88.8596C88.9017 42.0853 89.0279 42.5061 89.2467 42.8679C89.4655 43.2297 89.7852 43.5074 90.2228 43.7178C90.6519 43.9197 91.1989 44.0207 91.8636 44.0207C92.419 44.0207 92.9155 43.9197 93.353 43.7262C93.799 43.5242 94.1524 43.2129 94.4217 42.7837C94.6909 42.3546 94.8256 41.7992 94.8256 41.1176V35.8669H93.1342V36.6832L93.1258 36.6747ZM92.9323 39.1907C92.8061 39.3842 92.6462 39.5273 92.4611 39.6283C92.2675 39.7292 92.074 39.7713 91.8721 39.7713C91.6364 39.7713 91.4261 39.7208 91.2325 39.6198C91.039 39.5189 90.8791 39.3674 90.7697 39.1739C90.6519 38.9719 90.593 38.7363 90.593 38.4671C90.593 38.1978 90.6519 37.9538 90.7697 37.7518C90.8875 37.5583 91.039 37.4068 91.2325 37.3058C91.4261 37.2049 91.6449 37.1544 91.8721 37.1544C92.0235 37.1544 92.1666 37.1796 92.318 37.2385C92.4695 37.289 92.5957 37.3732 92.7219 37.4825C92.8397 37.5919 92.9407 37.7266 93.0164 37.8949C93.0922 38.0547 93.1258 38.2483 93.1258 38.4671C93.1258 38.7531 93.0669 38.9972 92.9407 39.1907H92.9323Z" fill="black"/>
<path d="M99.6731 39.8975C99.4544 40.0153 99.1851 40.0742 98.8738 40.0742C98.6045 40.0742 98.3689 40.0153 98.1838 39.8975C97.9986 39.7797 97.8556 39.603 97.763 39.3674C97.7125 39.2328 97.6705 39.0897 97.6536 38.9214H101.743C101.76 38.871 101.768 38.7952 101.768 38.7195V38.4671C101.768 37.8949 101.659 37.3984 101.432 36.9945C101.205 36.5906 100.876 36.2793 100.456 36.0689C100.027 35.8585 99.5049 35.7491 98.8822 35.7491C98.2595 35.7491 97.721 35.8585 97.2666 36.0857C96.8122 36.3129 96.4672 36.6327 96.2232 37.0534C95.9791 37.4741 95.8613 37.9706 95.8613 38.5428C95.8613 39.115 95.9875 39.603 96.2316 40.0238C96.484 40.4445 96.829 40.7727 97.2834 40.9999C97.7378 41.227 98.2763 41.3449 98.899 41.3449C99.5806 41.3449 100.161 41.2102 100.641 40.9494C101.12 40.6885 101.499 40.2846 101.777 39.7629L100.203 39.3758C100.069 39.6114 99.8919 39.7882 99.6731 39.8975ZM98.1753 37.0955C98.3521 36.9777 98.5793 36.9188 98.8401 36.9188C99.0505 36.9188 99.2356 36.9693 99.3871 37.0618C99.5385 37.1544 99.6647 37.289 99.7489 37.4573C99.8162 37.5919 99.8583 37.7602 99.8751 37.9369H97.6873C97.7125 37.8275 97.7378 37.7182 97.7714 37.6256C97.864 37.39 97.9986 37.2133 98.1753 37.0955Z" fill="black"/>
<path d="M108.509 36.0353H105V33.0565H103.031V41.2271H105V37.8024H108.509V41.2271H110.487V33.0565H108.509V36.0353Z" fill="black"/>
<path d="M115.584 39.1234C115.584 39.3337 115.542 39.5104 115.466 39.6619C115.39 39.8134 115.281 39.9228 115.146 39.9985C115.012 40.0742 114.843 40.1163 114.65 40.1163C114.364 40.1163 114.162 40.0322 114.044 39.8554C113.926 39.6787 113.867 39.4347 113.867 39.1234V35.8585H112.024V39.3085C112.024 39.948 112.176 40.4445 112.487 40.8063C112.799 41.1681 113.287 41.3448 113.951 41.3448C114.347 41.3448 114.675 41.2607 114.944 41.0924C115.205 40.9241 115.424 40.6969 115.584 40.4108V41.2186H117.342V35.8501H115.584V39.115V39.1234Z" fill="black"/>
<path d="M121.695 35.8585H120.744V33.9905H119.044V35.8585H118.102V37.3142H119.044V41.227H120.744V37.3142H121.695V35.8585Z" fill="black"/>
</svg>
