<svg width="16" height="16" viewBox="0 0 16 16" fill="none" xmlns="http://www.w3.org/2000/svg">
<g clip-path="url(#clip0_32_22045)">
<path d="M14.0001 5.33334C13.0334 5.33334 12.4934 6.29334 12.7134 7.00668L10.3467 9.38001C10.1467 9.32001 9.85341 9.32001 9.65341 9.38001L7.95341 7.68001C8.18008 6.96668 7.64008 6.00001 6.66675 6.00001C5.70008 6.00001 5.15341 6.96001 5.38008 7.68001L2.34008 10.7133C1.62675 10.4933 0.666748 11.0333 0.666748 12C0.666748 12.7333 1.26675 13.3333 2.00008 13.3333C2.96675 13.3333 3.50675 12.3733 3.28675 11.66L6.32008 8.62001C6.52008 8.68001 6.81341 8.68001 7.01341 8.62001L8.71341 10.32C8.48675 11.0333 9.02675 12 10.0001 12C10.9667 12 11.5134 11.04 11.2867 10.32L13.6601 7.95334C14.3734 8.17334 15.3334 7.63334 15.3334 6.66668C15.3334 5.93334 14.7334 5.33334 14.0001 5.33334Z" fill="currentColor"/>
<path d="M10 6L10.6267 4.62L12 4L10.6267 3.38L10 2L9.38667 3.38L8 4L9.38667 4.62L10 6Z" fill="currentColor"/>
<path d="M2.33341 7.33333L2.66675 6L4.00008 5.66667L2.66675 5.33333L2.33341 4L2.00008 5.33333L0.666748 5.66667L2.00008 6L2.33341 7.33333Z" fill="currentColor"/>
</g>
<defs>
<clipPath id="clip0_32_22045">
<rect width="16" height="16" fill="white"/>
</clipPath>
</defs>
</svg>
