<svg width="21" height="17" viewBox="0 0 21 17" fill="none" xmlns="http://www.w3.org/2000/svg">
<path d="M6.70693 0.5C7.16749 0.5 7.6153 0.641286 7.99094 0.902348L8.14734 1.0215L10.522 3H18.25C19.3867 3 20.3266 3.84297 20.4785 4.93788L20.4948 5.09595L20.5 5.25V14.25C20.5 15.4409 19.5748 16.4156 18.404 16.4948L18.25 16.5H2.75C1.55914 16.5 0.584355 15.5748 0.505191 14.404L0.5 14.25V2.75C0.5 1.55914 1.42516 0.584355 2.59595 0.505191L2.75 0.5H6.70693ZM8.14734 6.4785C7.79353 6.77334 7.35906 6.95148 6.90335 6.99141L6.70693 7L2 6.999V14.25C2 14.6297 2.28215 14.9435 2.64823 14.9932L2.75 15H18.25C18.6297 15 18.9435 14.7178 18.9932 14.3518L19 14.25V5.25C19 4.8703 18.7178 4.55651 18.3518 4.50685L18.25 4.5H10.521L8.14734 6.4785ZM6.70693 2H2.75C2.3703 2 2.05651 2.28215 2.00685 2.64823L2 2.75V5.499L6.70693 5.5C6.84729 5.5 6.9841 5.46063 7.10221 5.38738L7.18706 5.32617L9.078 3.749L7.18706 2.17383C7.07923 2.08398 6.94893 2.02664 6.81129 2.0073L6.70693 2Z" fill="#607290"/>
</svg>
