<svg width="21" height="17" viewBox="0 0 21 17" fill="none" xmlns="http://www.w3.org/2000/svg">
<path d="M12.321 3H18.25C19.3867 3 20.3266 3.84297 20.4785 4.93788L20.4948 5.09595L20.5 5.25V14.25C20.5 15.4409 19.5748 16.4156 18.404 16.4948L18.25 16.5H2.75C1.55914 16.5 0.584355 15.5748 0.505191 14.404L0.5 14.25V6.999L6.70693 7L6.90335 6.99141C7.29396 6.95719 7.66896 6.82142 7.99094 6.59765L8.14734 6.4785L12.321 3ZM6.70693 0.5C7.16749 0.5 7.6153 0.641286 7.99094 0.902348L8.14734 1.0215L10.25 2.773L7.18706 5.32617L7.10221 5.38738C7.01363 5.44232 6.91452 5.4782 6.81129 5.4927L6.70693 5.5L0.5 5.499V2.75C0.5 1.55914 1.42516 0.584355 2.59595 0.505191L2.75 0.5H6.70693Z" fill="#0A192B"/>
</svg>
