<svg width="32" height="32" viewBox="0 0 32 32" fill="none" xmlns="http://www.w3.org/2000/svg">
<path d="M16 8C19.3137 8 22 10.5969 22 13.8004C22 15.4774 21.2546 17.0164 19.7961 18.3942C19.7324 18.4544 19.6831 18.5269 19.6512 18.6065L19.6251 18.6883L18.6891 22.6051C18.5048 23.3763 17.8236 23.935 17.0181 23.9947L16.8748 24H15.1255C14.3065 24 13.59 23.4839 13.3487 22.7385L13.3111 22.6047L12.3763 18.6886C12.3495 18.5766 12.2902 18.4745 12.2052 18.3942C10.8153 17.0819 10.0726 15.6235 10.0051 14.039L10 13.8004L10.0032 13.6089C10.1077 10.4941 12.7526 8 16 8ZM18.045 21H13.955L14.2739 22.3344L14.3 22.4305C14.3969 22.7298 14.6758 22.9517 15.0116 22.993L15.1255 23L16.8379 23.0007L16.9442 22.9974C17.2865 22.9721 17.5726 22.7609 17.6854 22.4718L17.7165 22.3727L18.045 21ZM16 9C13.3678 9 11.2119 10.953 11.0151 13.4136L11.0031 13.6257L10.9998 13.7792L11.0042 13.9964C11.0598 15.3003 11.6776 16.5208 12.8917 17.6671C13.0799 17.8449 13.2219 18.0647 13.3057 18.3078L13.3489 18.4564L13.716 20H18.285L18.6722 18.3851L18.7231 18.2343C18.8091 18.0198 18.9409 17.8265 19.1094 17.6673C20.3825 16.4646 21 15.1805 21 13.8004C21 11.1569 18.7689 9 16 9Z" fill="#0A192B"/>
</svg>
