<svg width="16" height="8" viewBox="0 0 16 8" fill="none" xmlns="http://www.w3.org/2000/svg">
<path d="M7.00711 7.78206H3.86607C2.81968 7.78206 1.92773 7.41331 1.19023 6.67581C0.452735 5.93845 0.0839844 5.04664 0.0839844 4.00039C0.0839844 2.95414 0.452735 2.0622 1.19023 1.32456C1.92773 0.586784 2.81968 0.217896 3.86607 0.217896H7.00711V1.4679H3.86607C3.16621 1.4679 2.56926 1.71498 2.07523 2.20914C1.58107 2.70331 1.33398 3.30026 1.33398 3.99998C1.33398 4.6997 1.58107 5.29664 2.07523 5.79081C2.56926 6.28498 3.16621 6.53206 3.86607 6.53206H7.00711V7.78206ZM4.87565 4.62498V3.37498H11.1257V4.62498H4.87565ZM8.99419 7.78206V6.53206H12.1352C12.8351 6.53206 13.432 6.28498 13.9261 5.79081C14.4202 5.29664 14.6673 4.6997 14.6673 3.99998C14.6673 3.30026 14.4202 2.70331 13.9261 2.20914C13.432 1.71498 12.8351 1.4679 12.1352 1.4679H8.99419V0.217896H12.1352C13.1816 0.217896 14.0736 0.586645 14.8111 1.32414C15.5486 2.06151 15.9173 2.95331 15.9173 3.99956C15.9173 5.04581 15.5486 5.93776 14.8111 6.67539C14.0736 7.41317 13.1816 7.78206 12.1352 7.78206H8.99419Z" fill="currentColor"/>
</svg>
