<svg width="20" height="20" viewBox="0 0 20 20" fill="none" xmlns="http://www.w3.org/2000/svg">
<g id="LinkedIn">
<path id="Vector" d="M3.50883 5.83337H3.5305C4.693 5.83337 5.41675 5.00004 5.41675 3.95837C5.39508 2.89379 4.693 2.08337 3.55258 2.08337C2.41216 2.08337 1.66675 2.89379 1.66675 3.95837C1.66675 5.00004 2.39008 5.83337 3.50883 5.83337ZM1.66675 7.08337H5.41675V17.9167H1.66675V7.08337ZM18.3334 11.0417C18.3334 8.85546 16.5613 7.08337 14.3751 7.08337C13.103 7.08337 11.9742 7.68587 11.2501 8.61837V7.08337H7.50008V17.9167H11.2501V11.6667C11.2501 10.7463 11.9963 10 12.9167 10C13.8372 10 14.5834 10.7463 14.5834 11.6667V17.9167H18.3334C18.3334 17.9167 18.3334 11.648 18.3334 11.0417Z" fill="currentColor"/>
</g>
</svg>
