<svg width="24" height="23" viewBox="0 0 24 23" fill="none" xmlns="http://www.w3.org/2000/svg">
<g clip-path="url(#clip0_5134_8825)">
<ellipse cx="11.871" cy="11.17" rx="11.1679" ry="11.168" fill="#0288D1"/>
<path d="M8.35257 17.3753H5.81711V9.07687H8.35257V17.3753ZM7.08484 7.91354C6.26455 7.91354 5.66797 7.2931 5.66797 6.43999C5.66797 5.58687 6.33912 4.96643 7.08484 4.96643C7.90513 4.96643 8.50171 5.58687 8.50171 6.43999C8.50171 7.2931 7.90513 7.91354 7.08484 7.91354ZM17.5995 17.3753H15.064V12.8771C15.064 11.5587 14.542 11.1709 13.7963 11.1709C13.0506 11.1709 12.3049 11.7913 12.3049 12.9547V17.3753H9.76943V9.07687H12.1557V10.2402C12.3794 9.69732 13.2743 8.84421 14.542 8.84421C15.9589 8.84421 17.4503 9.69732 17.4503 12.2567V17.3753H17.5995Z" fill="white"/>
</g>
<defs>
<clipPath id="clip0_5134_8825">
<rect width="22.3358" height="22.336" fill="white" transform="translate(0.701172 0.00195312)"/>
</clipPath>
</defs>
</svg>
