<svg width="23" height="28" viewBox="0 0 23 28" fill="none" xmlns="http://www.w3.org/2000/svg">
<path d="M11.395 23.5288H4.91998C3.13498 23.5288 1.68248 22.0728 1.68248 20.2825V8.54875C1.68248 6.76375 3.13498 5.31213 4.91998 5.31213H5.98311C6.06536 5.59388 6.18698 5.866 6.37336 6.1075C6.83098 6.7025 7.52398 7.04288 8.27386 7.04288H12.9035C13.6534 7.04288 14.3464 6.70075 14.8049 6.10663C14.9904 5.86513 15.112 5.59388 15.1942 5.31213H16.26C18.045 5.31213 19.4975 6.76375 19.4975 8.54875V13.6246C19.4975 14.0595 19.8501 14.4121 20.285 14.4121C20.7199 14.4121 21.0725 14.0595 21.0725 13.6246V8.54875C21.0725 5.89575 18.9139 3.73625 16.26 3.73625H15.1452L15.0394 3.33638C14.7567 2.26538 13.8922 1.43238 12.8379 1.21275C12.0941 1.05788 11.3416 0.973879 10.5769 0.963379C9.83486 0.973879 9.08236 1.05788 8.33861 1.21275C7.28423 1.43238 6.41973 2.26625 6.13711 3.33638L6.03298 3.73625H4.91998C2.26611 3.73625 0.107483 5.89575 0.107483 8.54875V20.2825C0.107483 22.9408 2.26611 25.1046 4.91998 25.1046H11.395C11.8299 25.1046 12.1825 24.752 12.1825 24.3171C12.1825 23.8823 11.8299 23.5288 11.395 23.5288ZM7.47761 4.43275L7.66136 3.738C7.79261 3.23925 8.18548 2.8525 8.66148 2.75363C9.30723 2.61975 9.95911 2.54713 10.5777 2.53663C11.2191 2.54713 11.8719 2.61975 12.5176 2.75363C12.9927 2.8525 13.3856 3.23925 13.5177 3.738L13.7006 4.43275C13.7662 4.68125 13.7146 4.94113 13.5571 5.145C13.3996 5.34888 13.1616 5.46613 12.9035 5.46613H8.27386C8.01661 5.46613 7.77861 5.34888 7.62111 5.145C7.46361 4.94113 7.41198 4.68213 7.47761 4.43275Z" fill="currentColor"/>
<path d="M9.204 10.535C8.76913 10.535 8.4165 10.8877 8.4165 11.3225C8.4165 11.7574 8.76913 12.11 9.204 12.11H15.7464C16.1813 12.11 16.5339 11.7574 16.5339 11.3225C16.5339 10.8877 16.1813 10.535 15.7464 10.535H9.204Z" fill="currentColor"/>
<path d="M6.15722 10.535H5.43185C4.99697 10.535 4.64435 10.8877 4.64435 11.3225C4.64435 11.7574 4.99697 12.11 5.43185 12.11H6.15722C6.5921 12.11 6.94472 11.7574 6.94472 11.3225C6.94472 10.8877 6.5921 10.535 6.15722 10.535Z" fill="currentColor"/>
<path d="M13.4425 15.2775C13.4425 14.8426 13.0899 14.49 12.655 14.49H9.20748C8.77261 14.49 8.41998 14.8426 8.41998 15.2775C8.41998 15.7124 8.77261 16.065 9.20748 16.065H12.655C13.0899 16.065 13.4425 15.7124 13.4425 15.2775Z" fill="currentColor"/>
<path d="M6.15722 14.4926H5.43185C4.99697 14.4926 4.64435 14.8452 4.64435 15.2801C4.64435 15.715 4.99697 16.0676 5.43185 16.0676H6.15722C6.5921 16.0676 6.94472 15.715 6.94472 15.2801C6.94472 14.8452 6.5921 14.4926 6.15722 14.4926Z" fill="currentColor"/>
<path d="M10.5375 20.0297C10.9724 20.0297 11.325 19.677 11.325 19.2422C11.325 18.8073 10.9724 18.4547 10.5375 18.4547H9.20748C8.77261 18.4547 8.41998 18.8073 8.41998 19.2422C8.41998 19.677 8.77261 20.0297 9.20748 20.0297H10.5375Z" fill="currentColor"/>
<path d="M6.15722 18.4564H5.43185C4.99697 18.4564 4.64435 18.809 4.64435 19.2439C4.64435 19.6787 4.99697 20.0314 5.43185 20.0314H6.15722C6.5921 20.0314 6.94472 19.6787 6.94472 19.2439C6.94472 18.809 6.5921 18.4564 6.15722 18.4564Z" fill="currentColor"/>
<path d="M17.786 15.4542C14.9702 15.4542 12.6804 17.7703 12.6804 20.6167C12.6804 22.8681 14.3875 24.9313 15.8199 26.2648C16.3711 26.7776 17.0781 27.034 17.786 27.034C18.4939 27.034 19.2009 26.7776 19.753 26.2648C21.1854 24.9313 22.8925 22.8681 22.8925 20.6167C22.8925 17.7712 20.6009 15.4542 17.786 15.4542ZM18.6794 25.1116C18.1789 25.578 17.394 25.578 16.8926 25.1116C15.9074 24.1946 14.2545 22.3912 14.2545 20.6167C14.2545 18.6383 15.8391 17.0292 17.786 17.0292C19.7337 17.0292 21.3175 18.6383 21.3175 20.6167C21.3175 22.3912 19.6646 24.1946 18.6794 25.1116Z" fill="currentColor"/>
<path d="M17.786 19.7715C17.3511 19.7715 16.9985 20.1556 16.9985 20.5914C16.9985 21.0271 17.3511 21.3789 17.786 21.3789C18.2208 21.3789 18.5735 21.0262 18.5735 20.5914V20.5275C18.5726 20.0917 18.2208 19.7715 17.786 19.7715Z" fill="currentColor"/>
</svg>
