<svg width="127" height="106" viewBox="0 0 127 106" fill="none" xmlns="http://www.w3.org/2000/svg">
<path d="M60.4674 4.41159L3.39194 33.2664C-0.159418 35.803 0.855256 38.9739 1.80651 40.2423C18.7177 59.7959 53.3646 99.791 56.6623 103.342C59.96 106.894 64.5895 105.456 66.492 104.294L68.3945 103.342C84.6716 93.7241 118.494 73.79 123.567 70.9996C128.641 68.2093 125.259 63.4953 122.933 61.4871C107.396 44.5758 75.3704 9.73863 71.5654 5.67993C67.7603 1.62123 62.5813 3.14325 60.4674 4.41159Z" fill="#F1854F"/>
<path d="M60.9254 1.36459L3.84995 30.2194C0.29859 32.756 1.31326 35.9269 2.26452 37.1953C19.1758 56.7489 53.8226 96.744 57.1203 100.295C60.418 103.847 65.0475 102.409 66.95 101.247L68.8525 100.295C85.1296 90.6771 118.952 70.743 124.025 67.9526C129.099 65.1623 125.717 60.4483 123.391 58.4401C107.854 41.5288 75.8284 6.69163 72.0234 2.63293C68.2183 -1.42576 63.0393 0.0962486 60.9254 1.36459Z" fill="#F7CB71"/>
<path d="M11.9007 34.482C11.9007 34.482 12.0654 34.3558 12.3688 34.1532C12.6663 33.9521 13.1012 33.6688 13.6311 33.3634C14.1583 33.046 14.779 32.7007 15.4532 32.3429C16.1288 31.9911 16.8593 31.6328 17.5925 31.2865C18.327 30.9461 19.0777 30.6209 19.7818 30.3379C20.4932 30.0595 21.1539 29.8054 21.7353 29.6138C22.3139 29.4103 22.8012 29.2719 23.1474 29.1726C23.4936 29.0734 23.6969 29.0324 23.6969 29.0324C23.6969 29.0324 23.5322 29.1587 23.2288 29.3612C22.9313 29.5624 22.4964 29.8457 21.9665 30.1511C21.4393 30.4684 20.8172 30.8078 20.143 31.1656C19.4674 31.5174 18.737 31.8757 17.9965 32.2175C17.2619 32.5578 16.5099 32.8771 15.8072 33.166C15.0957 33.4444 14.435 33.6985 13.8536 33.8901C13.2736 34.0877 12.7877 34.232 12.4415 34.3313C12.0953 34.4306 11.892 34.4715 11.892 34.4715L11.9007 34.482Z" fill="white"/>
<path d="M105.04 71.812C105.04 71.812 105.254 71.6081 105.653 71.275C106.043 70.9448 106.616 70.4772 107.32 69.9639C108.018 69.4341 108.847 68.8586 109.744 68.2408C110.648 67.6396 111.627 67.0208 112.621 66.4156C113.609 65.8216 114.623 65.2465 115.577 64.7384C116.539 64.2274 117.439 63.7751 118.233 63.415C119.021 63.0385 119.69 62.7683 120.165 62.5749C120.64 62.3815 120.922 62.2925 120.922 62.2925C120.922 62.2925 120.708 62.4965 120.309 62.8296C119.919 63.1598 119.346 63.6273 118.642 64.1407C117.944 64.6705 117.115 65.246 116.215 65.8555C115.311 66.4568 114.332 67.0755 113.335 67.6724C112.347 68.2665 111.331 68.8333 110.379 69.3497C109.414 69.8525 108.517 70.313 107.723 70.6731C106.932 71.0413 106.258 71.3227 105.791 71.5132C105.316 71.7066 105.034 71.7955 105.034 71.7955L105.04 71.812Z" fill="white"/>
<path d="M22.3776 18.5607C22.0531 18.1014 22.2076 17.4614 22.7059 17.2007L46.8112 4.58933C47.2024 4.38465 47.6836 4.48342 47.9626 4.82565L52.8995 10.8819C53.2686 11.3348 53.1334 12.012 52.6186 12.2883L28.2033 25.3929C27.7897 25.6149 27.2754 25.4937 27.0045 25.1102L22.3776 18.5607Z" fill="#2D1E2F"/>
<line x1="40.773" y1="41.5465" x2="68.3114" y2="26.58" stroke="white" stroke-width="1.85914" stroke-linecap="round"/>
<path d="M73.7149 75.5287C73.7937 75.7039 73.6981 75.9577 73.5044 76.0814C69.5138 78.7621 65.5784 81.252 61.6228 83.1493C61.4274 83.2456 61.1678 83.1796 61.0454 83.0124C58.8116 79.9946 56.8408 76.957 55.4058 73.8101C55.335 73.6317 55.4225 73.3812 55.6131 73.2493C59.6036 70.5686 63.539 68.0787 67.4946 66.1814C67.69 66.0852 67.9416 66.1543 68.0721 66.3184C70.3059 69.3361 72.2767 72.3737 73.7116 75.5206L73.7149 75.5287Z" fill="white"/>
<line x1="42.6422" y1="52.645" x2="81.6197" y2="30.1112" stroke="white" stroke-width="1.85914" stroke-linecap="round"/>
<line x1="55.1506" y1="57.2909" x2="82.1888" y2="41.4386" stroke="white" stroke-width="1.85914" stroke-linecap="round"/>
<g clip-path="url(#clip0_3673_6807)">
<path d="M40.3708 77.7022H36.3979V64.5663C36.3979 58.8325 31.7336 54.1682 25.9997 54.1682C20.2659 54.1682 15.6016 58.8325 15.6016 64.5663V77.7022H11.6287V64.5663C11.6317 56.6432 18.0781 50.1968 26.0013 50.1968C33.9244 50.1968 40.3708 56.6432 40.3708 64.5663V77.7022Z" fill="#72716F"/>
<path d="M44.9118 71.4685H7.09184C6.24101 71.4685 5.55127 72.1582 5.55127 73.0091V97.5823C5.55127 98.4331 6.24101 99.1229 7.09184 99.1229H44.9118C45.7627 99.1229 46.4524 98.4331 46.4524 97.5823V73.0091C46.4524 72.1582 45.7627 71.4685 44.9118 71.4685Z" fill="#FD6085"/>
<path d="M36.3992 71.4683C36.3992 71.4683 39.81 67.2113 40.2369 62.6321V71.4683H36.3992Z" fill="#5C5A5A"/>
<path d="M46.4523 97.5827V82.5264C33.9925 93.0673 16.0268 97.0281 5.84595 98.4821C6.1255 98.868 6.57825 99.1232 7.09178 99.1232H44.9118C45.7626 99.1232 46.4523 98.4335 46.4523 97.5827Z" fill="#EA5578"/>
<path d="M29.3817 81.1312C29.3817 79.264 27.8685 77.7507 26.0013 77.7507C24.1341 77.7507 22.6208 79.264 22.6208 81.1312C22.6208 82.2433 23.1617 83.2278 23.9913 83.8447L22.9156 91.4883H29.087L28.0113 83.8447C28.8409 83.2293 29.3817 82.2448 29.3817 81.1312Z" fill="white"/>
<path d="M22.9155 91.4869C22.9155 91.4869 27.7378 89.6425 28.0918 84.4146L29.0869 91.4869H22.9155Z" fill="#ECECEC"/>
</g>
<defs>
<clipPath id="clip0_3673_6807">
<rect width="40.9011" height="48.9261" fill="white" transform="translate(5.55151 50.1968)"/>
</clipPath>
</defs>
</svg>
