<svg width="180" height="112" viewBox="0 0 180 112" fill="none" xmlns="http://www.w3.org/2000/svg">
<path d="M141.608 21.2043L144.644 21.8363L141.608 22.5072L140.994 25.854L140.427 22.5072L137.383 21.8363L140.427 21.2043L140.994 17.8731L141.608 21.2043Z" fill="#FFA4AC"/>
<path d="M11.7788 19.7317L17.7043 20.9643L11.7788 22.2749L10.5673 28.7969L9.4645 22.2749L3.52344 20.9643L9.4645 19.7317L10.5673 13.2253L11.7788 19.7317Z" fill="#FFA4AC"/>
<path d="M169.806 61.5624L175.732 62.795L169.806 64.1056L168.595 70.6276L167.492 64.1056L161.551 62.795L167.492 61.5624L168.595 55.056L169.806 61.5624Z" fill="#FFA4AC"/>
<path d="M84.4678 7.41157L27.3924 36.2664C23.8411 38.803 24.8557 41.9739 25.807 43.2423C42.7182 62.7959 77.3651 102.791 80.6628 106.342C83.9605 109.894 88.59 108.456 90.4925 107.294L92.395 106.342C108.672 96.7241 142.495 76.79 147.568 73.9996C152.641 71.2093 149.259 66.4953 146.934 64.487C131.397 47.5758 99.3709 12.7386 95.5658 8.67991C91.7608 4.62122 86.5818 6.14323 84.4678 7.41157Z" fill="#F1854F"/>
<path d="M84.9249 4.36459L27.8495 33.2194C24.2981 35.756 25.3128 38.9269 26.264 40.1953C43.1753 59.7489 77.8222 99.744 81.1199 103.295C84.4175 106.847 89.047 105.409 90.9495 104.247L92.852 103.295C109.129 93.6771 142.952 73.743 148.025 70.9526C153.098 68.1623 149.716 63.4483 147.391 61.4401C131.854 44.5288 99.8279 9.69163 96.0229 5.63293C92.2178 1.57424 87.0388 3.09625 84.9249 4.36459Z" fill="#F7CB71"/>
<path d="M35.9022 37.482C35.9022 37.482 36.0668 37.3557 36.3703 37.1532C36.6678 36.9521 37.1027 36.6688 37.6326 36.3634C38.1597 36.046 38.7805 35.7006 39.4547 35.3429C40.1303 34.991 40.8607 34.6328 41.5939 34.2865C42.3285 33.9461 43.0791 33.6208 43.7832 33.3379C44.4946 33.0595 45.1554 32.8054 45.7368 32.6138C46.3154 32.4102 46.8027 32.2719 47.1489 32.1726C47.4951 32.0733 47.6984 32.0324 47.6984 32.0324C47.6984 32.0324 47.5337 32.1587 47.2303 32.3612C46.9327 32.5623 46.4979 32.8457 45.9679 33.1511C45.4408 33.4684 44.8187 33.8078 44.1445 34.1656C43.4689 34.5174 42.7384 34.8757 41.9979 35.2174C41.2633 35.5578 40.5113 35.8771 39.8086 36.166C39.0972 36.4444 38.4365 36.6985 37.8551 36.8901C37.2751 37.0877 36.7891 37.232 36.4429 37.3313C36.0967 37.4305 35.8934 37.4715 35.8934 37.4715L35.9022 37.482Z" fill="white"/>
<path d="M129.041 74.8121C129.041 74.8121 129.255 74.6082 129.654 74.2751C130.044 73.9449 130.617 73.4773 131.321 72.964C132.019 72.4342 132.848 71.8587 133.746 71.2409C134.649 70.6397 135.629 70.0209 136.622 69.4158C137.611 68.8217 138.624 68.2467 139.578 67.7385C140.54 67.2275 141.44 66.7752 142.234 66.4152C143.022 66.0387 143.691 65.7684 144.167 65.575C144.642 65.3816 144.923 65.2927 144.923 65.2927C144.923 65.2927 144.709 65.4966 144.31 65.8297C143.92 66.1599 143.347 66.6275 142.643 67.1408C141.945 67.6706 141.116 68.2461 140.216 68.8556C139.313 69.4569 138.333 70.0757 137.336 70.6726C136.348 71.2666 135.332 71.8334 134.381 72.3498C133.416 72.8526 132.519 73.3132 131.725 73.6732C130.933 74.0414 130.259 74.3228 129.792 74.5133C129.317 74.7067 129.035 74.7957 129.035 74.7957L129.041 74.8121Z" fill="white"/>
<path d="M46.3785 21.5608C46.0541 21.1015 46.2085 20.4614 46.7068 20.2008L70.8121 7.58939C71.2034 7.38471 71.6846 7.48348 71.9636 7.82571L76.9004 13.882C77.2696 14.3349 77.1344 15.0121 76.6195 15.2884L52.2043 28.393C51.7907 28.615 51.2764 28.4937 51.0055 28.1103L46.3785 21.5608Z" fill="#2D1E2F"/>
<line x1="64.7733" y1="44.5464" x2="92.3116" y2="29.5799" stroke="white" stroke-width="1.85914" stroke-linecap="round"/>
<path d="M97.7144 78.5287C97.7932 78.7039 97.6977 78.9576 97.5039 79.0814C93.5133 81.762 89.5779 84.2519 85.6223 86.1492C85.427 86.2455 85.1673 86.1796 85.0449 86.0123C82.8111 82.9945 80.8403 79.9569 79.4053 76.81C79.3346 76.6316 79.422 76.3811 79.6126 76.2492C83.6031 73.5686 87.5386 71.0787 91.4941 69.1814C91.6895 69.0851 91.9411 69.1542 92.0716 69.3183C94.3054 72.3361 96.2762 75.3737 97.7112 78.5206L97.7144 78.5287Z" fill="white"/>
<line x1="66.6422" y1="55.6451" x2="105.62" y2="33.1113" stroke="white" stroke-width="1.85914" stroke-linecap="round"/>
<line x1="79.1521" y1="60.2909" x2="106.19" y2="44.4386" stroke="white" stroke-width="1.85914" stroke-linecap="round"/>
<g clip-path="url(#clip0_19_14518)">
<path d="M64.3711 80.7024H60.3981V67.5665C60.3981 61.8327 55.7338 57.1684 50 57.1684C44.2661 57.1684 39.6019 61.8327 39.6019 67.5665V80.7024H35.6289V67.5665C35.6319 59.6433 42.0783 53.1969 50.0015 53.1969C57.9247 53.1969 64.3711 59.6433 64.3711 67.5665V80.7024Z" fill="#72716F"/>
<path d="M68.9133 74.4686H31.0933C30.2425 74.4686 29.5527 75.1583 29.5527 76.0092V100.582C29.5527 101.433 30.2425 102.123 31.0933 102.123H68.9133C69.7641 102.123 70.4539 101.433 70.4539 100.582V76.0092C70.4539 75.1583 69.7641 74.4686 68.9133 74.4686Z" fill="#FD6085"/>
<path d="M60.4004 74.4685C60.4004 74.4685 63.8112 70.2114 64.2382 65.6322V74.4685H60.4004Z" fill="#5C5A5A"/>
<path d="M70.4541 100.583V85.5263C57.9943 96.0673 40.0285 100.028 29.8477 101.482C30.1272 101.868 30.58 102.123 31.0935 102.123H68.9135C69.7643 102.123 70.4541 101.433 70.4541 100.583Z" fill="#EA5578"/>
<path d="M53.3839 84.1314C53.3839 82.2642 51.8707 80.7509 50.0035 80.7509C48.1363 80.7509 46.623 82.2642 46.623 84.1314C46.623 85.2435 47.1639 86.228 47.9935 86.8449L46.9178 94.4885H53.0892L52.0135 86.8449C52.8431 86.2295 53.3839 85.245 53.3839 84.1314Z" fill="white"/>
<path d="M46.916 94.4869C46.916 94.4869 51.7383 92.6424 52.0923 87.4145L53.0874 94.4869H46.916Z" fill="#ECECEC"/>
</g>
<defs>
<clipPath id="clip0_19_14518">
<rect width="40.9011" height="48.9261" fill="white" transform="translate(29.5527 53.1969)"/>
</clipPath>
</defs>
</svg>
