<svg width="360" height="184" viewBox="0 0 360 184" fill="none" xmlns="http://www.w3.org/2000/svg">
<g clip-path="url(#clip0_1_835)">
<path fill-rule="evenodd" clip-rule="evenodd" d="M-25.1049 0.0216856V0.0216856L-26.5272 -1.30858L-27.9185 -2.66984L-29.2777 -4.06171L-30.6038 -5.4837L-31.8957 -6.93526L-33.1525 -8.4158L-34.3734 -9.92465L-35.5576 -11.4611L-36.7043 -13.0245L-37.8129 -14.6138L-38.8829 -16.2284L-39.9138 -17.8674L-40.9051 -19.5296L-41.8566 -21.2143L-42.7679 -22.9205L-43.6389 -24.6471L-44.4696 -26.3932L-45.2598 -28.1577L-46.0095 -29.9395L-46.719 -31.7376L-47.3883 -33.551L-48.0176 -35.3786L-48.6073 -37.2194L-49.1576 -39.0723L-49.6689 -40.9364L-50.1416 -42.8106L-50.5761 -44.694L-50.9729 -46.5856L-51.3324 -48.4844L-51.6553 -50.3896L-51.9419 -52.3003L-52.1929 -54.2155L-52.4087 -56.1345L-52.5898 -58.0565L-52.7369 -59.9807L-52.8503 -61.9064L-52.9306 -63.8328L-52.9781 -65.7592L-52.9935 -67.685L-52.977 -69.6095L-52.929 -71.5322L-52.8498 -73.4524L-52.7397 -75.3695L-52.599 -77.283L-52.428 -79.1923L-52.2266 -81.0969L-51.9953 -82.9963L-51.734 -84.8899L-51.4431 -86.7771L-51.1226 -88.6576L-50.7727 -90.5307L-50.3936 -92.396L-49.9853 -94.253L-49.548 -96.1011L-49.0817 -97.9399L-48.5867 -99.7688L-48.0629 -101.587L-47.5105 -103.395L-46.9296 -105.191L-46.3202 -106.976L-45.6824 -108.748L-45.0164 -110.507L-44.3222 -112.253L-43.5999 -113.985L-42.8496 -115.702L-42.0714 -117.404L-41.2656 -119.091L-40.4321 -120.762L-39.5712 -122.417L-38.6831 -124.054L-37.7679 -125.674L-36.8258 -127.276L-35.8571 -128.859L-34.8622 -130.423L-33.8411 -131.968L-32.7943 -133.492L-31.7221 -134.996L-30.6249 -136.479L-29.5031 -137.94L-28.3572 -139.38L-27.1875 -140.797L-25.9947 -142.192L-24.7793 -143.563L-23.5417 -144.911L-22.2828 -146.235L-21.003 -147.534L-19.7031 -148.81L-18.3839 -150.06L-17.046 -151.286L-15.6901 -152.487L-14.3173 -153.662L-12.9282 -154.812L-11.5238 -155.936L-10.1049 -157.035L-8.67246 -158.109L-7.22744 -159.157L-5.7708 -160.179L-4.3035 -161.176L-2.82656 -162.148L-1.34103 -163.095L0.152137 -164.017L1.65187 -164.915L3.15712 -165.788L4.66685 -166.638L6.18004 -167.465L7.69561 -168.268L9.21256 -169.05L10.7299 -169.809L12.2465 -170.547L13.7614 -171.265L15.2738 -171.963L16.7829 -172.641L18.2878 -173.3L19.7881 -173.942L21.2834 -174.565L22.7731 -175.17L24.2569 -175.759L25.7346 -176.331L27.206 -176.886L28.671 -177.425L30.1294 -177.949L31.5812 -178.456L33.0263 -178.949L34.4647 -179.426L35.8965 -179.887L37.3216 -180.334L38.7402 -180.766L40.1521 -181.183L41.5576 -181.586L42.9565 -181.974L44.349 -182.347L45.7349 -182.707L47.1143 -183.052L48.4872 -183.383L49.8535 -183.701L51.213 -184.005L52.5658 -184.295L53.9116 -184.573L55.2502 -184.838L56.5814 -185.091L57.905 -185.333L59.2207 -185.563L60.5283 -185.783L61.8272 -185.993L63.1173 -186.194L64.398 -186.387L65.669 -186.572L66.9299 -186.752L68.1804 -186.926L69.4203 -187.096L70.6493 -187.262L71.8672 -187.426L73.0738 -187.589L74.269 -187.751L75.4527 -187.914L76.6248 -188.078L77.7854 -188.245L78.9345 -188.415L80.0722 -188.589L81.1986 -188.768L82.3139 -188.953L83.4183 -189.145L84.5121 -189.344L85.5956 -189.552L86.6691 -189.768L87.733 -189.994L88.7878 -190.23L89.8338 -190.477L90.8716 -190.735L91.9017 -191.004L92.9246 -191.285L93.941 -191.579L94.9515 -191.885L95.9566 -192.204L96.957 -192.535L97.9534 -192.879L98.9464 -193.237L99.9368 -193.606L100.925 -193.989L101.912 -194.384L102.899 -194.791L103.885 -195.21L104.873 -195.64L105.862 -196.081L106.853 -196.533L107.847 -196.994L108.844 -197.466L109.845 -197.945L110.851 -198.433L111.862 -198.928L112.879 -199.43L113.903 -199.938L114.933 -200.45L115.97 -200.967L117.015 -201.487L118.068 -202.01L119.13 -202.534L120.2 -203.059L121.28 -203.584L122.368 -204.108L123.467 -204.63L124.575 -205.149L125.693 -205.665L126.821 -206.176L127.959 -206.682L129.108 -207.182L130.267 -207.676L131.436 -208.162L132.616 -208.64L133.806 -209.11L135.006 -209.571L136.216 -210.021L137.437 -210.462L138.668 -210.893L139.909 -211.314L141.16 -211.724L142.421 -212.125L143.693 -212.516L144.974 -212.899L146.266 -213.274L147.569 -213.641L148.882 -214.001L150.207 -214.355L151.542 -214.705L152.89 -215.05L154.249 -215.392L155.621 -215.733L157.006 -216.072L158.405 -216.41L159.819 -216.75L161.247 -217.091L162.691 -217.435L164.151 -217.782L165.629 -218.133L167.124 -218.489L168.638 -218.849L170.172 -219.216L171.726 -219.588L173.301 -219.966L174.898 -220.35L176.517 -220.74L178.159 -221.136L179.825 -221.536L181.515 -221.942L183.23 -222.351L184.97 -222.763L186.735 -223.176L188.526 -223.59L190.342 -224.003L192.184 -224.414L194.051 -224.821L195.943 -225.222L197.861 -225.617L199.803 -226.004L201.77 -226.38L203.761 -226.745L205.776 -227.097L207.813 -227.433L209.872 -227.753L211.953 -228.054L214.054 -228.335L216.175 -228.594L218.314 -228.829L220.47 -229.038L222.642 -229.22L224.829 -229.373L227.03 -229.495L229.242 -229.584L231.464 -229.639L233.695 -229.659L235.933 -229.641L238.176 -229.584L240.423 -229.487L242.671 -229.348L244.919 -229.166L247.164 -228.94L249.405 -228.668L251.64 -228.349L253.866 -227.983L256.081 -227.568L258.284 -227.104L260.472 -226.589L262.643 -226.024L264.794 -225.406L266.925 -224.737L269.031 -224.015L271.112 -223.241L273.165 -222.414L275.188 -221.533L277.18 -220.6L279.137 -219.614L281.058 -218.576L282.941 -217.485L284.785 -216.343L286.587 -215.149L288.345 -213.905L290.059 -212.611L291.726 -211.268L293.345 -209.876L294.914 -208.438L296.433 -206.954L297.899 -205.425L299.313 -203.852L300.672 -202.238L301.975 -200.582L303.223 -198.887L304.415 -197.155L305.549 -195.386L306.625 -193.583L307.643 -191.746L308.603 -189.879L309.505 -187.982L310.348 -186.057L311.133 -184.107L311.86 -182.132L312.529 -180.135L313.14 -178.117L313.693 -176.08L314.189 -174.026L314.628 -171.956L315.011 -169.872L315.337 -167.775L315.608 -165.668L315.823 -163.551L315.985 -161.427L316.093 -159.297L316.148 -157.162L316.151 -155.024L316.104 -152.884L316.006 -150.744L315.86 -148.605L315.665 -146.469L315.424 -144.336L315.138 -142.209L314.807 -140.088L314.434 -137.975L314.019 -135.87L313.564 -133.775L313.069 -131.69L312.538 -129.618L311.97 -127.558L311.368 -125.511L310.732 -123.479L310.064 -121.462L309.366 -119.461L308.638 -117.475L307.883 -115.507L307.1 -113.557L306.292 -111.624L305.46 -109.709L304.604 -107.814L303.726 -105.937L302.827 -104.08L301.909 -102.243L300.971 -100.426L300.016 -98.6287L299.045 -96.8518L298.058 -95.0954L297.057 -93.3595L296.042 -91.6442L295.016 -89.9495L293.977 -88.2754L292.928 -86.6218L291.87 -84.9887L290.803 -83.376L289.727 -81.7836L288.645 -80.2114L287.556 -78.6591L286.461 -77.1267L285.362 -75.6139L284.257 -74.1205L283.149 -72.6464L282.037 -71.1912L280.923 -69.7548L279.806 -68.3368L278.687 -66.9371L277.566 -65.5554L276.445 -64.1915L275.322 -62.845L274.198 -61.5158L273.074 -60.2035L271.95 -58.9079L270.826 -57.6287L269.702 -56.3658L268.578 -55.1188L267.454 -53.8876L266.332 -52.6718L265.21 -51.4712L264.088 -50.2857L262.967 -49.1149L261.847 -47.9587L260.728 -46.8169L259.61 -45.6892L258.493 -44.5754L257.377 -43.4754L256.261 -42.3889L255.147 -41.3157L254.034 -40.2557L252.922 -39.2086L251.81 -38.1743L250.7 -37.1524L249.591 -36.1429L248.484 -35.1455L247.377 -34.16L246.273 -33.1862L245.169 -32.2238L244.067 -31.2726L242.967 -30.3323L241.868 -29.4027L240.771 -28.4836L239.677 -27.5745L238.584 -26.6753L237.494 -25.7857L236.406 -24.9052L235.321 -24.0335L234.239 -23.1701L233.161 -22.3145L232.086 -21.466L231.016 -20.624L229.951 -19.7876L228.891 -18.9559L227.838 -18.128L226.792 -17.3029L225.754 -16.4795L224.725 -15.6567L223.704 -14.8332L222.694 -14.0077L221.694 -13.179L220.705 -12.3458L219.728 -11.5066L218.763 -10.66L217.811 -9.80473L216.872 -8.93921L215.946 -8.06208L215.034 -7.17191L214.135 -6.26728L213.251 -5.34683L212.38 -4.40919L211.523 -3.45306L210.68 -2.47718L209.85 -1.48033L209.032 -0.461377L208.227 0.580747L207.434 1.64705L206.652 2.73843L205.88 3.8557L205.118 4.99958L204.365 6.17068L203.619 7.36953L202.879 8.5965L202.145 9.85188L201.415 11.1358L200.688 12.4484L199.963 13.7895L199.237 15.1589L198.51 16.5563L197.781 17.9812L197.047 19.433L196.308 20.911L195.562 22.4142L194.806 23.9418L194.04 25.4925L193.263 27.065L192.472 28.6581L191.665 30.27L190.843 31.8993L190.002 33.544L189.143 35.2023L188.262 36.8723L187.359 38.5517L186.433 40.2383L185.483 41.9299L184.506 43.624L183.503 45.3182L182.472 47.0099L181.412 48.6964L180.323 50.375L179.204 52.043L178.053 53.6977L176.871 55.3361L175.658 56.9554L174.412 58.5528L173.133 60.1254L171.823 61.6703L170.479 63.1847L169.104 64.6656L167.696 66.1104L166.257 67.5161L164.786 68.8802L163.285 70.2L161.753 71.4728L160.193 72.6963L158.603 73.8678L156.987 74.9852L155.344 76.0462L153.677 77.0487L151.985 77.9907L150.271 78.8703L148.536 79.6859L146.781 80.4359L145.009 81.1188L143.22 81.7334L141.416 82.2785L139.6 82.7532L137.773 83.1567L135.936 83.4883L134.092 83.7477L132.242 83.9345L130.388 84.0488L128.532 84.0904L126.677 84.0597L124.823 83.9572L122.972 83.7834L121.127 83.5391L119.289 83.2253L117.46 82.8431L115.641 82.3939L113.835 81.8795L112.041 81.3017L110.263 80.6627L108.501 79.9649L106.756 79.2108L105.029 78.4032L103.321 77.5449L101.634 76.639L99.9674 75.6886L98.3219 74.6971L96.6979 73.6677L95.0958 72.604L93.5156 71.5093L91.9571 70.3872L90.4203 69.2412L88.9047 68.0749L87.4098 66.8916L85.9352 65.695L84.4799 64.4882L83.0432 63.2748L81.624 62.0579L80.2214 60.8406L78.834 59.6259L77.4608 58.4167L76.1002 57.2156L74.7509 56.0252L73.4115 54.8479L72.0805 53.6857L70.7564 52.5406L69.4375 51.4144L68.1225 50.3085L66.8098 49.2241L65.4979 48.1624L64.1854 47.1241L62.871 46.1096L61.5532 45.1196L60.2307 44.1542L58.9023 43.2135L57.5666 42.2976L56.2226 41.4063L54.8691 40.5392L53.5049 39.6961L52.1292 38.8761L50.7409 38.0788L49.3393 37.3033L47.9235 36.5486L46.4929 35.8137L45.047 35.0974L43.5852 34.3986L42.1072 33.7158L40.6126 33.0478L39.1012 32.3929L37.5731 31.7497L36.0281 31.1164L34.4665 30.4916L32.8883 29.8734L31.294 29.2602L29.684 28.6501L28.0587 28.0413L26.4188 27.4321L24.765 26.8206L23.0981 26.2051L21.419 25.5837L19.7287 24.9548L18.0282 24.3164L16.3186 23.6669L14.6012 23.0047L12.8771 22.328L11.1479 21.6354L9.41471 20.9252L7.67917 20.1959L5.94267 19.4462L4.20678 18.6748L2.47302 17.8803L0.743042 17.0616L-0.981572 16.2175L-2.69922 15.3471L-4.40819 14.4493L-6.10688 13.5233L-7.79361 12.5684L-9.46679 11.5839L-11.1247 10.5691L-12.7658 9.52354L-14.3886 8.44685L-15.9913 7.3387L-17.5725 6.19883L-19.1306 5.02709L-20.6643 3.82346L-22.1722 2.58793L-23.6528 1.32061L-25.1049 0.0216856" fill="#FB546E"/>
<path fill-rule="evenodd" clip-rule="evenodd" d="M189.722 49.0756V49.0756L190.749 47.8732L191.818 46.6952L192.927 45.5427L194.075 44.4164L195.261 43.3172L196.483 42.2459L197.741 41.2033L199.032 40.1901L200.355 39.207L201.71 38.2546L203.094 37.3336L204.508 36.4445L205.948 35.5879L207.415 34.7644L208.907 33.9744L210.422 33.2183L211.96 32.4965L213.518 31.8092L215.095 31.1567L216.689 30.5389L218.299 29.9559L219.921 29.4073L221.553 28.8926L223.192 28.4111L224.835 27.9619L226.478 27.5438L228.118 27.1557L229.753 26.7962L231.379 26.4638L232.994 26.1575L234.595 25.8757L236.181 25.6175L237.75 25.3815L239.301 25.1665L240.832 24.9714L242.343 24.7951L243.831 24.6362L245.297 24.4936L246.738 24.3662L248.155 24.2525L249.546 24.1514L250.911 24.0614L252.248 23.9813L253.558 23.9097L254.838 23.8452L256.089 23.7862L257.31 23.7314L258.501 23.6793L259.66 23.6283L260.788 23.5769L261.884 23.5236L262.948 23.4669L263.979 23.4053L264.978 23.3373L265.944 23.2613L266.878 23.1761L267.779 23.0801L268.648 22.9722L269.485 22.8508L270.29 22.715L271.065 22.5634L271.809 22.3951L272.524 22.209L273.209 22.0042L273.867 21.7799L274.498 21.5353L275.102 21.2698L275.682 20.9828L276.238 20.6739L276.771 20.3426L277.283 19.9887L277.775 19.6119L278.248 19.212L278.703 18.7891L279.142 18.3429L279.566 17.8737L279.977 17.3813L280.375 16.8661L280.762 16.3281L281.139 15.7674L281.507 15.1844L281.869 14.579L282.223 13.9517L282.573 13.3024L282.918 12.6314L283.26 11.9389L283.6 11.2248L283.939 10.4892L284.277 9.73218L284.616 8.95367L284.955 8.15357L285.297 7.33172L285.641 6.48794L285.989 5.62196L286.34 4.73348L286.696 3.82215L287.058 2.88756L287.425 1.92931L287.799 0.946939L288.18 -0.0600184L288.569 -1.09203L288.967 -2.14958L289.374 -3.23307L289.791 -4.3429L290.219 -5.47942L290.658 -6.6429L291.11 -7.83348L291.575 -9.05124L292.055 -10.2961L292.55 -11.5678L293.061 -12.8659L293.589 -14.1898L294.136 -15.5387L294.702 -16.9115L295.289 -18.3068L295.898 -19.7231L296.529 -21.1584L297.185 -22.6106L297.865 -24.077L298.572 -25.5547L299.305 -27.0406L300.066 -28.5309L300.856 -30.0218L301.676 -31.5087L302.525 -32.9871L303.405 -34.452L304.315 -35.8982L305.256 -37.3206L306.227 -38.7143L307.229 -40.0746L308.259 -41.3969L309.319 -42.6769L310.405 -43.9109L311.519 -45.0951L312.657 -46.2264L313.82 -47.3019L315.005 -48.3191L316.21 -49.2761L317.435 -50.171L318.676 -51.0026L319.934 -51.77L321.205 -52.4726L322.488 -53.1102L323.781 -53.6828L325.083 -54.1909L326.392 -54.6353L327.706 -55.017L329.024 -55.3373L330.344 -55.5976L331.665 -55.7997L332.986 -55.9456L334.305 -56.0372L335.622 -56.0768L336.935 -56.0666L338.244 -56.0093L339.549 -55.907L340.847 -55.7625L342.139 -55.5782L343.425 -55.3565L344.704 -55.1L345.975 -54.8112L347.24 -54.4923L348.497 -54.1457L349.747 -53.7735L350.989 -53.3777L352.225 -52.9604L353.453 -52.5232L354.675 -52.0678L355.889 -51.5957L357.097 -51.1081L358.299 -50.6062L359.495 -50.0909L360.684 -49.5629L361.868 -49.0228L363.045 -48.4711L364.217 -47.9078L365.382 -47.3331L366.54 -46.7468L367.692 -46.1486L368.837 -45.538L369.975 -44.9144L371.104 -44.2771L372.224 -43.6251L373.335 -42.9575L374.435 -42.2732L375.523 -41.571L376.599 -40.8497L377.66 -40.1078L378.706 -39.3442L379.734 -38.5573L380.744 -37.7459L381.733 -36.9085L382.701 -36.0439L383.644 -35.1507L384.561 -34.2276L385.449 -33.2736L386.308 -32.2876L387.135 -31.2687L387.927 -30.216L388.683 -29.1289L389.401 -28.007L390.078 -26.8498L390.713 -25.6574L391.304 -24.4296L391.849 -23.1669L392.347 -21.8697L392.796 -20.5388L393.194 -19.175L393.542 -17.7795L393.838 -16.3537L394.081 -14.8994L394.272 -13.4182L394.409 -11.9123L394.494 -10.384L394.527 -8.83578L394.508 -7.27024L394.44 -5.69025L394.323 -4.09878L394.16 -2.49897L393.952 -0.894013L393.703 0.712769L393.415 2.31803L393.091 3.91839L392.735 5.51053L392.35 7.0913L391.94 8.65766L391.509 10.2069L391.06 11.7365L390.596 13.2442L390.121 14.7283L389.637 16.187L389.149 17.619L388.658 19.0232L388.166 20.3988L387.677 21.7453L387.193 23.0622L386.714 24.3495L386.243 25.6072L385.782 26.8355L385.33 28.0349L384.89 29.2058L384.461 30.349L384.046 31.4651L383.643 32.5549L383.253 33.6193L382.877 34.6594L382.515 35.6759L382.165 36.6699L381.829 37.6424L381.505 38.5944L381.194 39.5268L380.896 40.4405L380.609 41.3364L380.333 42.2155L380.069 43.0786L379.816 43.9264L379.574 44.7597L379.342 45.5793L379.12 46.3858L378.908 47.1798L378.707 47.962L378.516 48.7328L378.335 49.4929L378.165 50.2427L378.006 50.9829L377.858 51.7137L377.722 52.4357L377.599 53.1495L377.489 53.8554L377.393 54.5539L377.311 55.2457L377.245 55.9311L377.196 56.6107L377.163 57.2852L377.149 57.9551L377.155 58.6211L377.18 59.2838L377.227 59.9439L377.296 60.6023L377.388 61.2597L377.504 61.9169L377.645 62.5748L377.812 63.2344L378.005 63.8966L378.225 64.5623L378.473 65.2325L378.749 65.9084L379.054 66.5909L379.388 67.2812L379.751 67.9802L380.144 68.6892L380.566 69.4091L381.017 70.1412L381.498 70.8866L382.008 71.6462L382.546 72.4213L383.112 73.2128L383.706 74.0218L384.327 74.8494L384.975 75.6965L385.648 76.5641L386.346 77.4532L387.067 78.3646L387.812 79.2993L388.578 80.2579L389.364 81.2414L390.17 82.2504L390.994 83.2856L391.835 84.3477L392.691 85.4371L393.56 86.5545L394.442 87.7001L395.335 88.8744L396.236 90.0776L397.144 91.3098L398.057 92.5711L398.972 93.8614L399.887 95.1804L400.8 96.5278L401.707 97.9028L402.605 99.3047L403.492 100.732L404.362 102.184L405.213 103.659L406.041 105.155L406.842 106.671L407.611 108.203L408.346 109.75L409.041 111.309L409.692 112.877L410.296 114.45L410.847 116.026L411.342 117.601L411.776 119.171L412.146 120.732L412.449 122.28L412.679 123.81L412.836 125.32L412.915 126.804L412.914 128.258L412.832 129.677L412.666 131.059L412.414 132.398L412.077 133.691L411.654 134.934L411.144 136.123L410.548 137.255L409.867 138.327L409.101 139.335L408.254 140.278L407.326 141.153L406.32 141.959L405.24 142.693L404.088 143.355L402.868 143.943L401.584 144.458L400.24 144.9L398.84 145.27L397.39 145.567L395.895 145.794L394.358 145.953L392.786 146.045L391.184 146.074L389.556 146.042L387.909 145.953L386.248 145.81L384.578 145.618L382.904 145.381L381.232 145.104L379.565 144.791L377.909 144.448L376.269 144.081L374.648 143.693L373.051 143.292L371.481 142.882L369.941 142.469L368.436 142.06L366.966 141.658L365.535 141.27L364.145 140.902L362.797 140.558L361.492 140.243L360.232 139.962L359.016 139.72L357.845 139.519L356.719 139.366L355.637 139.261L354.597 139.21L353.6 139.214L352.642 139.275L351.724 139.396L350.841 139.577L349.993 139.82L349.176 140.124L348.389 140.49L347.627 140.918L346.889 141.406L346.172 141.952L345.472 142.556L344.786 143.215L344.111 143.927L343.445 144.688L342.784 145.496L342.125 146.346L341.466 147.237L340.805 148.162L340.137 149.12L339.462 150.105L338.776 151.113L338.079 152.14L337.368 153.183L336.641 154.236L335.898 155.295L335.137 156.358L334.357 157.419L333.557 158.476L332.736 159.525L331.896 160.563L331.034 161.587L330.151 162.594L329.247 163.583L328.322 164.551L327.377 165.496L326.412 166.416L325.426 167.309L324.422 168.173L323.399 169.005L322.357 169.804L321.298 170.565L320.223 171.288L319.132 171.969L318.026 172.605L316.906 173.193L315.774 173.732L314.631 174.218L313.479 174.648L312.319 175.02L311.152 175.332L309.98 175.58L308.806 175.763L307.631 175.878L306.457 175.924L305.287 175.899L304.122 175.801L302.965 175.63L301.817 175.383L300.681 175.062L299.56 174.665L298.455 174.193L297.368 173.646L296.302 173.025L295.259 172.331L294.24 171.565L293.247 170.73L292.282 169.827L291.347 168.859L290.442 167.829L289.569 166.74L288.729 165.595L287.922 164.399L287.149 163.156L286.411 161.869L285.707 160.543L285.037 159.183L284.401 157.794L283.799 156.381L283.228 154.948L282.689 153.502L282.179 152.046L281.698 150.587L281.242 149.129L280.811 147.678L280.402 146.239L280.013 144.815L279.64 143.413L279.282 142.037L278.935 140.69L278.596 139.378L278.263 138.104L277.932 136.87L277.599 135.682L277.263 134.541L276.919 133.45L276.564 132.411L276.195 131.427L275.809 130.498L275.404 129.626L274.975 128.812L274.521 128.056L274.038 127.358L273.525 126.718L272.978 126.135L272.397 125.608L271.778 125.137L271.121 124.719L270.424 124.352L269.685 124.036L268.904 123.766L268.079 123.541L267.211 123.359L266.299 123.216L265.343 123.109L264.342 123.035L263.298 122.991L262.211 122.973L261.081 122.98L259.909 123.006L258.697 123.049L257.446 123.106L256.156 123.173L254.83 123.248L253.469 123.326L252.074 123.405L250.647 123.483L249.19 123.556L247.706 123.622L246.195 123.677L244.66 123.72L243.104 123.748L241.528 123.758L239.935 123.749L238.327 123.717L236.708 123.661L235.08 123.578L233.446 123.467L231.81 123.324L230.174 123.15L228.541 122.941L226.913 122.698L225.293 122.419L223.683 122.104L222.084 121.752L220.498 121.363L218.928 120.936L217.375 120.473L215.839 119.972L214.323 119.434L212.827 118.86L211.353 118.25L209.902 117.603L208.474 116.922L207.07 116.206L205.691 115.456L204.339 114.673L203.013 113.857L201.714 113.009L200.444 112.129L199.202 111.219L197.99 110.279L196.808 109.31L195.657 108.313L194.537 107.287L193.45 106.235L192.397 105.156L191.377 104.052L190.393 102.922L189.444 101.769L188.533 100.593L187.659 99.3935L186.825 98.1728L186.031 96.9311L185.277 95.6695L184.566 94.3887L183.899 93.0897L183.275 91.7734L182.698 90.4408L182.167 89.093L181.684 87.7309L181.249 86.3558L180.865 84.9687L180.531 83.5708L180.249 82.1633L180.019 80.7476L179.843 79.3248L179.72 77.8963L179.652 76.4635L179.64 75.0278L179.682 73.5905L179.781 72.1531L179.935 70.717L180.145 69.2837L180.411 67.8546L180.733 66.4312L181.111 65.015L181.544 63.6072L182.031 62.2095L182.572 60.8232L183.166 59.4497L183.813 58.0903L184.512 56.7463L185.261 55.4191L186.059 54.1098L186.905 52.8197L187.799 51.5499L188.738 50.3015L189.722 49.0756" fill="#FFDC98"/>
<path d="M391 -24.0001C391 24.6009 351.601 63.9999 303 63.9999C254.399 63.9999 215 24.6009 215 -24.0001L303 -24L391 -24.0001Z" fill="#91A0E4"/>
<rect width="360" height="184" fill="url(#paint0_linear_1_835)"/>
</g>
<defs>
<linearGradient id="paint0_linear_1_835" x1="180" y1="0" x2="180" y2="184" gradientUnits="userSpaceOnUse">
<stop stop-color="#F9F6F1" stop-opacity="0"/>
<stop offset="1" stop-color="#F7F4ED"/>
</linearGradient>
<clipPath id="clip0_1_835">
<rect width="360" height="184" fill="white"/>
</clipPath>
</defs>
</svg>
