<svg width="23" height="23" viewBox="0 0 23 23" fill="none" xmlns="http://www.w3.org/2000/svg">
<path d="M0.478539 11.0326C0.478015 12.9092 0.972195 14.7416 1.91187 16.3568L0.388672 21.8751L6.08011 20.3944C7.65429 21.2447 9.41804 21.6903 11.2104 21.6904H11.2151C17.1319 21.6904 21.9483 16.913 21.9508 11.041C21.952 8.19555 20.8362 5.51991 18.8091 3.5069C16.7823 1.49406 14.0867 0.384966 11.2146 0.383667C5.29714 0.383667 0.480982 5.1608 0.478539 11.0326Z" fill="url(#paint0_linear_5330_17348)"/>
<path d="M0.0933567 11.0309C0.0927459 12.975 0.604637 14.873 1.57782 16.5459L0 22.2621L5.89552 20.7283C7.51992 21.6071 9.34884 22.0705 11.2099 22.0712H11.2147C17.3438 22.0712 22.3332 17.1219 22.3358 11.0397C22.3369 8.09204 21.181 5.32021 19.0814 3.23508C16.9816 1.15022 14.1896 0.00121203 11.2147 0C5.08454 0 0.0957997 4.94855 0.0933567 11.0309ZM3.60427 16.2578L3.38414 15.9111C2.45877 14.4511 1.97035 12.764 1.97105 11.0316C1.97305 5.97609 6.11949 1.86306 11.2182 1.86306C13.6873 1.8641 16.0078 2.81918 17.7531 4.55204C19.4984 6.28507 20.4587 8.5888 20.4581 11.039C20.4558 16.0945 16.3093 20.208 11.2147 20.208H11.211C9.55213 20.2071 7.9252 19.7651 6.50635 18.9298L6.1687 18.7311L2.67018 19.6412L3.60427 16.2578Z" fill="url(#paint1_linear_5330_17348)"/>
<path d="M8.43778 6.41557C8.2296 5.95647 8.01052 5.94721 7.81255 5.93915C7.65044 5.93223 7.46512 5.93275 7.27998 5.93275C7.09466 5.93275 6.79357 6.00192 6.53906 6.27766C6.28429 6.55365 5.56641 7.22062 5.56641 8.57714C5.56641 9.93375 6.56218 11.2447 6.701 11.4289C6.83998 11.6127 8.62336 14.4855 11.4478 15.5907C13.7951 16.5092 14.2728 16.3265 14.7823 16.2805C15.2918 16.2346 16.4264 15.6137 16.6579 14.9698C16.8895 14.3261 16.8895 13.7742 16.8201 13.6589C16.7506 13.544 16.5653 13.475 16.2874 13.3372C16.0094 13.1993 14.6433 12.5323 14.3886 12.4402C14.1338 12.3483 13.9486 12.3024 13.7633 12.5785C13.578 12.8541 13.0458 13.475 12.8837 13.6589C12.7216 13.8432 12.5594 13.8662 12.2816 13.7283C12.0036 13.5899 11.1087 13.2991 10.0469 12.3599C9.22084 11.629 8.66314 10.7265 8.50103 10.4504C8.33893 10.1748 8.48367 10.0253 8.62301 9.88795C8.74786 9.76441 8.90099 9.56598 9.04006 9.40504C9.17861 9.24402 9.22485 9.12913 9.31751 8.94525C9.41026 8.76119 9.36384 8.60017 9.29448 8.46226C9.22485 8.32435 8.68487 6.96072 8.43778 6.41557Z" fill="white"/>
<defs>
<linearGradient id="paint0_linear_5330_17348" x1="1116.79" y1="2226.21" x2="1116.79" y2="0" gradientUnits="userSpaceOnUse">
<stop stop-color="#1FAF38"/>
<stop offset="1" stop-color="#60D669"/>
</linearGradient>
<linearGradient id="paint1_linear_5330_17348" x1="1116.79" y1="2226.21" x2="1116.79" y2="0" gradientUnits="userSpaceOnUse">
<stop stop-color="#F9F9F9"/>
<stop offset="1" stop-color="white"/>
</linearGradient>
</defs>
</svg>
