<svg width="12" height="12" viewBox="0 0 12 12" fill="none" xmlns="http://www.w3.org/2000/svg">
<path d="M1.53817 11.6663C1.2014 11.6663 0.916341 11.5497 0.683008 11.3163C0.449674 11.083 0.333008 10.798 0.333008 10.4612V1.53817C0.333008 1.2014 0.449674 0.916341 0.683008 0.683008C0.916341 0.449674 1.2014 0.333008 1.53817 0.333008H6.00601V1.33301H1.53817C1.48684 1.33301 1.43984 1.3544 1.39717 1.39717C1.3544 1.43984 1.33301 1.48684 1.33301 1.53817V10.4612C1.33301 10.5125 1.3544 10.5595 1.39717 10.6022C1.43984 10.645 1.48684 10.6663 1.53817 10.6663H6.00601V11.6663H1.53817ZM8.82017 8.84584L8.12784 8.12267L9.75101 6.49967H4.06384V5.49967H9.75101L8.12784 3.87667L8.82017 3.15351L11.6663 5.99967L8.82017 8.84584Z" fill="currentColor"/>
</svg>
