<svg width="133" height="134" viewBox="0 0 133 134" fill="none" xmlns="http://www.w3.org/2000/svg">
<path d="M132.121 67.9544C132.121 101.438 104.964 128.587 71.4797 128.587C37.9866 128.587 10.8381 101.438 10.8381 67.9544C10.8381 34.4613 37.9866 7.31274 71.4797 7.31274C104.964 7.31274 132.121 34.4613 132.121 67.9544Z" fill="#F2F2F2"/>
<path d="M84.8142 31.5381V100.286C84.8142 104.325 81.5405 107.598 77.5015 107.598H8.75397C4.71489 107.598 1.43198 104.325 1.43198 100.286V31.5381C1.43198 27.499 4.71489 24.2161 8.75397 24.2161H77.5015C81.5405 24.2161 84.8142 27.499 84.8142 31.5381Z" fill="#F2F2F2"/>
<path d="M84.8142 31.5381V35.6786H1.43198V31.5381C1.43198 27.499 4.71489 24.2161 8.75397 24.2161H77.5015C81.5405 24.2161 84.8142 27.499 84.8142 31.5381Z" fill="#999999"/>
<path fill-rule="evenodd" clip-rule="evenodd" d="M36.1054 133.428C35.8656 133.428 35.6259 133.4 35.3953 133.327C33.6709 132.81 31.9925 132.109 30.3972 131.252C29.2814 130.652 28.8018 129.324 29.2722 128.162C30.056 126.235 29.6134 124.05 28.1471 122.583C27.1788 121.606 25.8878 121.071 24.5138 121.071C23.8406 121.071 23.1859 121.2 22.568 121.449C22.2729 121.569 21.9686 121.634 21.6551 121.634C20.7421 121.634 19.9029 121.136 19.4695 120.324C18.6119 118.738 17.9203 117.06 17.4039 115.335C17.035 114.118 17.6344 112.836 18.7963 112.347C20.7052 111.536 21.9409 109.673 21.9409 107.598C21.9409 105.523 20.7052 103.661 18.7963 102.858C17.6344 102.37 17.035 101.088 17.4039 99.8704C17.9203 98.146 18.6119 96.4584 19.4695 94.8723C19.9029 94.07 20.7421 93.572 21.6551 93.572C21.9686 93.572 22.2729 93.6274 22.568 93.7472C23.1859 94.0055 23.8406 94.1253 24.5138 94.1253C25.8878 94.1253 27.1788 93.5905 28.1471 92.6222C29.6134 91.156 30.056 88.9612 29.2722 87.0431C28.8018 85.8812 29.2814 84.544 30.3972 83.9446C31.9925 83.087 33.6709 82.3954 35.3953 81.8697C35.6259 81.8052 35.8656 81.7683 36.1054 81.7683C37.1106 81.7683 37.9958 82.3585 38.3832 83.2714C39.1854 85.1803 41.0482 86.416 43.1231 86.416C45.2072 86.416 47.0607 85.1803 47.8722 83.2714C48.2503 82.3585 49.1448 81.7683 50.1408 81.7683C50.3898 81.7683 50.6295 81.8052 50.8601 81.879C52.5845 82.3954 54.2628 83.087 55.8582 83.9446C56.9648 84.544 57.4535 85.8812 56.974 87.0431C56.1902 88.9612 56.6328 91.156 58.1083 92.6222C59.0766 93.5905 60.3676 94.1253 61.7416 94.1253C62.4148 94.1253 63.0695 94.0055 63.6874 93.7472C63.9825 93.6274 64.2868 93.572 64.6003 93.572C65.5133 93.572 66.3432 94.07 66.7766 94.8723C67.6343 96.4584 68.3351 98.146 68.8515 99.8704C69.2204 101.088 68.621 102.37 67.459 102.858C65.5409 103.661 64.3052 105.523 64.3052 107.598C64.3052 109.673 65.5409 111.536 67.459 112.347C68.621 112.836 69.2204 114.118 68.8515 115.335C68.3351 117.06 67.6343 118.738 66.7766 120.324C66.3432 121.136 65.5133 121.634 64.6003 121.634C64.2868 121.634 63.9825 121.569 63.6874 121.449C63.0695 121.2 62.4148 121.071 61.7416 121.071C60.3676 121.071 59.0766 121.606 58.1083 122.583C56.6328 124.05 56.1902 126.235 56.974 128.162C57.4535 129.324 56.9648 130.652 55.8582 131.252C54.2628 132.109 52.5845 132.81 50.8601 133.327C50.6295 133.4 50.3898 133.428 50.1408 133.428C49.1448 133.428 48.2503 132.847 47.8722 131.934C47.0607 130.016 45.2072 128.78 43.1231 128.78C41.0482 128.78 39.1854 130.016 38.3832 131.934C37.9958 132.847 37.1106 133.428 36.1054 133.428ZM43.1231 97.9615C40.5502 97.9615 38.1342 98.9667 36.3083 100.783C34.4916 102.609 33.4865 105.025 33.4865 107.598C33.4865 110.171 34.4916 112.596 36.3083 114.413C36.5573 114.662 36.8155 114.893 37.0829 115.105C38.7797 116.479 40.9283 117.235 43.1231 117.235C45.7052 117.235 48.1212 116.239 49.9379 114.413C53.4329 110.918 53.728 105.394 50.6295 101.558C50.4174 101.291 50.1869 101.032 49.9379 100.783C48.1212 98.9667 45.7052 97.9615 43.1231 97.9615Z" fill="white"/>
<path fill-rule="evenodd" clip-rule="evenodd" d="M38.8719 83.0593C39.5912 84.7838 41.2603 85.8904 43.1231 85.8904C44.9859 85.8904 46.6642 84.7838 47.3835 83.0593C47.8538 81.9527 48.9328 81.2427 50.1408 81.2427C50.4359 81.2427 50.731 81.2888 51.0076 81.3718C52.769 81.8974 54.4842 82.6075 56.1072 83.4835C57.4536 84.212 58.0438 85.8258 57.4628 87.2368C56.762 88.9612 57.1585 90.9346 58.4772 92.2441C59.3532 93.1202 60.5059 93.5997 61.7416 93.5997C62.3503 93.5997 62.9312 93.489 63.4845 93.2585C63.8442 93.1202 64.2223 93.0464 64.6004 93.0464C65.707 93.0464 66.7213 93.6458 67.247 94.6233C68.123 96.2463 68.8331 97.9615 69.3587 99.7137C69.8014 101.189 69.0729 102.748 67.662 103.347C65.9467 104.066 64.8401 105.735 64.8401 107.598C64.8401 109.461 65.9467 111.13 67.662 111.859C69.0729 112.449 69.8014 114.007 69.3587 115.483C68.8331 117.244 68.123 118.959 67.247 120.582C66.7213 121.551 65.707 122.159 64.6004 122.159C64.2223 122.159 63.8442 122.085 63.4845 121.938C62.9312 121.717 62.3503 121.597 61.7416 121.597C60.5059 121.597 59.3532 122.076 58.4772 122.952C57.1585 124.271 56.762 126.235 57.4628 127.96C58.0438 129.371 57.4536 130.994 56.1072 131.722C54.4842 132.589 52.769 133.308 51.0076 133.834C50.731 133.917 50.4359 133.963 50.1408 133.963C48.9328 133.963 47.8538 133.244 47.3835 132.137C46.6642 130.422 44.9859 129.315 43.1231 129.315C41.2603 129.315 39.5912 130.422 38.8719 132.137C38.4016 133.244 37.3227 133.963 36.1054 133.963C35.8196 133.963 35.5245 133.917 35.2478 133.834C33.4865 133.308 31.7713 132.589 30.1482 131.722C28.7927 130.994 28.2117 129.371 28.7834 127.96C29.4935 126.235 29.097 124.271 27.7783 122.952C26.9022 122.076 25.7403 121.597 24.5138 121.597C23.9052 121.597 23.3242 121.717 22.7709 121.938C22.4113 122.085 22.0332 122.159 21.6551 122.159C20.5485 122.159 19.5341 121.551 19.0085 120.582C18.1324 118.959 17.4223 117.244 16.8967 115.483C16.4541 114.007 17.1826 112.449 18.5935 111.859C20.3087 111.139 21.4153 109.461 21.4153 107.598C21.4153 105.735 20.3087 104.066 18.5935 103.347C17.1826 102.748 16.4541 101.189 16.8967 99.7137C17.4223 97.9523 18.1324 96.2463 19.0085 94.6233C19.5341 93.6458 20.5485 93.0464 21.6551 93.0464C22.0332 93.0464 22.4113 93.1109 22.7709 93.2585C23.3242 93.489 23.9052 93.5997 24.5138 93.5997C25.7403 93.5997 26.9022 93.1202 27.7783 92.2441C29.097 90.9346 29.4935 88.9612 28.7834 87.2368C28.2117 85.8258 28.7927 84.212 30.1482 83.4835C31.7713 82.6075 33.4865 81.8974 35.2478 81.3718C35.5245 81.2796 35.8196 81.2427 36.1054 81.2427C37.3227 81.2427 38.4016 81.9527 38.8719 83.0593ZM35.5521 82.3769C33.8369 82.8933 32.1954 83.5758 30.6462 84.4149C29.7794 84.876 29.3921 85.9273 29.7609 86.8402C30.6001 88.8966 30.1851 91.3312 28.5252 92.9911C27.4186 94.1069 25.9616 94.6602 24.5138 94.6602C23.7853 94.6602 23.0568 94.5219 22.3652 94.236C22.1346 94.1438 21.8949 94.0977 21.6551 94.0977C20.9542 94.0977 20.2811 94.4758 19.9399 95.1213C19.1007 96.6705 18.4183 98.312 17.9111 100.018C17.6252 100.968 18.0863 101.982 18.9993 102.369C21.0372 103.227 22.4758 105.247 22.4758 107.598C22.4758 109.95 21.0372 111.969 18.9993 112.827C18.0863 113.214 17.6252 114.238 17.9111 115.178C18.4183 116.894 19.1007 118.535 19.9399 120.075C20.2811 120.721 20.9542 121.099 21.6551 121.099C21.8949 121.099 22.1346 121.053 22.3652 120.96C23.0568 120.684 23.7853 120.545 24.5138 120.545C25.9616 120.545 27.4186 121.099 28.5252 122.205C30.1851 123.865 30.6001 126.309 29.7609 128.356C29.3921 129.269 29.7794 130.32 30.6462 130.791C32.1954 131.621 33.8369 132.303 35.5521 132.819C35.7366 132.875 35.921 132.902 36.1054 132.902C36.8708 132.902 37.5901 132.46 37.8944 131.731C38.752 129.684 40.7716 128.255 43.1231 128.255C45.4839 128.255 47.4942 129.684 48.361 131.731C48.6653 132.46 49.3846 132.902 50.1408 132.902C50.3314 132.902 50.5189 132.875 50.7033 132.819C52.4186 132.303 54.06 131.621 55.6 130.791C56.4669 130.32 56.8634 129.269 56.4853 128.356C55.6554 126.309 56.0703 123.865 57.7302 122.205C58.8368 121.099 60.2938 120.545 61.7416 120.545C62.4702 120.545 63.1987 120.684 63.8811 120.96C64.1208 121.053 64.3606 121.099 64.6004 121.099C65.3012 121.099 65.9652 120.721 66.3156 120.075C67.1455 118.535 67.8372 116.894 68.3444 115.178C68.6302 114.238 68.1599 113.214 67.2562 112.827C65.2182 111.969 63.7796 109.95 63.7796 107.598C63.7796 105.247 65.2182 103.227 67.2562 102.369C68.1599 101.982 68.6302 100.968 68.3444 100.018C67.8372 98.312 67.1455 96.6705 66.3156 95.1213C65.9652 94.4758 65.3012 94.0977 64.6004 94.0977C64.3606 94.0977 64.1208 94.1438 63.8811 94.236C63.1987 94.5219 62.4702 94.6602 61.7416 94.6602C60.2938 94.6602 58.8368 94.1069 57.7302 92.9911C56.0703 91.3312 55.6554 88.8966 56.4853 86.8402C56.8634 85.9273 56.4669 84.876 55.6 84.4149C54.06 83.5758 52.4186 82.8933 50.7033 82.3769C50.5189 82.3216 50.3345 82.2939 50.1408 82.2939C49.3846 82.2939 48.6653 82.7458 48.361 83.4743C47.4942 85.5123 45.4839 86.9417 43.1231 86.9417C40.7716 86.9417 38.752 85.5123 37.8944 83.4743C37.5901 82.7458 36.8708 82.2939 36.1054 82.2939C35.921 82.2939 35.7366 82.3216 35.5521 82.3769ZM36.7509 115.52C36.4682 115.292 36.1976 115.049 35.9394 114.791C31.9649 110.817 31.9649 104.38 35.9394 100.415C37.9221 98.4319 40.5226 97.4359 43.1231 97.4359C45.7328 97.4359 48.3334 98.4319 50.316 100.415C50.5742 100.673 50.8171 100.943 51.0445 101.226C54.2721 105.219 54.0231 111.075 50.316 114.791C48.3334 116.774 45.7328 117.77 43.1231 117.77C40.8638 117.77 38.6045 117.013 36.7509 115.52ZM49.5691 114.044C52.8704 110.743 53.1471 105.514 50.2238 101.89C50.0209 101.632 49.7996 101.392 49.5691 101.161C47.8446 99.437 45.5576 98.4872 43.1231 98.4872C40.6978 98.4872 38.4108 99.437 36.6864 101.161C34.9619 102.877 34.0213 105.164 34.0213 107.598C34.0213 110.033 34.9619 112.32 36.6864 114.044C36.9169 114.275 37.1659 114.496 37.4149 114.699C39.0195 115.99 41.0482 116.709 43.1231 116.709C45.5576 116.709 47.8446 115.759 49.5691 114.044Z" fill="#999999"/>
<path fill-rule="evenodd" clip-rule="evenodd" d="M74.6796 93.9319C74.5444 93.9319 74.4122 93.9165 74.2831 93.8858C73.2318 93.6276 72.199 93.2679 71.2123 92.8069C70.4284 92.438 70.0411 91.5343 70.327 90.7135C70.6867 89.6438 70.3823 88.4727 69.5432 87.7257C69.0268 87.2646 68.372 87.0156 67.6804 87.0156C67.2654 87.0156 66.8504 87.1079 66.4816 87.2831C66.251 87.3845 66.0113 87.4398 65.7623 87.4398C65.1721 87.4398 64.6096 87.1263 64.296 86.6283C63.7335 85.7062 63.254 84.7194 62.8851 83.7051C62.59 82.8751 62.9589 81.9714 63.7335 81.5841C64.7479 81.0953 65.3658 80.0441 65.3012 78.919C65.2366 77.794 64.5081 76.8165 63.4476 76.4384C62.6269 76.1525 62.1658 75.2857 62.3687 74.4373C62.6177 73.3768 62.9866 72.3532 63.4384 71.3665C63.7243 70.7671 64.3329 70.3798 64.9877 70.3798C65.1782 70.3798 65.3596 70.4105 65.5317 70.472C65.8268 70.5734 66.1312 70.6288 66.4447 70.6288C67.2378 70.6288 67.9939 70.2875 68.5288 69.6881C69.2757 68.849 69.4509 67.6502 68.9714 66.6358C68.5933 65.8427 68.8792 64.9113 69.6262 64.4502C70.5483 63.8877 71.535 63.4082 72.5494 63.0393C72.74 62.9717 72.9337 62.9379 73.1304 62.9379C73.7851 62.9379 74.3845 63.3068 74.6612 63.8877C75.1315 64.8376 76.1182 65.4554 77.1695 65.4554C77.2248 65.4554 77.2801 65.4554 77.3355 65.4554C78.4605 65.3909 79.4288 64.6623 79.8069 63.6018C80.0466 62.9287 80.6922 62.4768 81.4207 62.4768C81.5498 62.4768 81.6819 62.4922 81.8172 62.5229C82.8685 62.7719 83.9013 63.1315 84.8788 63.5926C85.6719 63.9615 86.0592 64.8652 85.7733 65.6859C85.4136 66.7557 85.718 67.9268 86.5571 68.683C87.0735 69.1348 87.7283 69.3931 88.4199 69.3931C88.8349 69.3931 89.2498 69.3008 89.6187 69.1164C89.8493 69.015 90.089 68.9596 90.338 68.9596C90.9282 68.9596 91.4907 69.2732 91.795 69.7711C92.3668 70.7025 92.8371 71.68 93.2059 72.7036C93.5103 73.5244 93.1414 74.4373 92.3576 74.8154C91.3524 75.3134 90.7345 76.3554 90.7991 77.4804C90.8636 78.6147 91.5921 79.583 92.6526 79.9611C93.4734 80.2562 93.9345 81.1138 93.7316 81.9714C93.4734 83.0227 93.1137 84.0555 92.6526 85.033C92.376 85.6324 91.7674 86.0197 91.1126 86.0197C90.922 86.0197 90.7376 85.989 90.5593 85.9275C90.2735 85.826 89.9691 85.7799 89.6556 85.7799C88.8625 85.7799 88.0971 86.1211 87.5715 86.7113C86.8153 87.5505 86.6493 88.7493 87.1289 89.7729C87.4977 90.5568 87.2211 91.4974 86.4741 91.9492C85.552 92.521 84.5653 92.9913 83.5509 93.3601C83.3603 93.4278 83.1666 93.4616 82.9699 93.4616C82.3152 93.4616 81.7158 93.0927 81.4299 92.5117C80.9688 91.5619 79.9821 90.9441 78.9216 90.9441C78.8724 90.9441 78.8202 90.9471 78.7648 90.9533C77.6398 91.0178 76.6715 91.7371 76.2934 92.8069C76.0537 93.48 75.4081 93.9319 74.6796 93.9319ZM78.0548 72.7497C76.4963 72.7497 75.0208 73.4137 73.988 74.5664C73.0197 75.6546 72.531 77.0562 72.6048 78.504C72.6877 79.9611 73.3333 81.2982 74.4214 82.2665C74.569 82.3956 74.7196 82.5155 74.8733 82.6261C75.8047 83.2993 76.902 83.6497 78.0455 83.6497C79.5948 83.6497 81.0795 82.9858 82.1123 81.8331C83.9751 79.749 83.9658 76.6228 82.0938 74.548C81.9647 74.4066 81.8264 74.2713 81.6789 74.1422C80.6829 73.2477 79.3919 72.7497 78.0548 72.7497Z" fill="white"/>
<path fill-rule="evenodd" clip-rule="evenodd" d="M81.9463 61.9789C83.0345 62.2371 84.1042 62.6152 85.1186 63.0855C86.1698 63.5834 86.677 64.773 86.3082 65.8704C86.0131 66.7188 86.262 67.6594 86.926 68.2588C87.341 68.6277 87.8666 68.8306 88.4199 68.8306C88.7519 68.8306 89.0839 68.7568 89.379 68.6185C89.6833 68.4709 90.006 68.3971 90.338 68.3971C91.1219 68.3971 91.8688 68.8121 92.2746 69.4853C92.8647 70.4351 93.3535 71.4587 93.7316 72.51C94.1281 73.6074 93.6486 74.8062 92.6065 75.3226C91.795 75.7191 91.3063 76.5491 91.3524 77.4528C91.4077 78.3565 91.9887 79.1312 92.8371 79.4355C93.9252 79.8228 94.5431 80.9663 94.2757 82.1005C94.0175 83.1887 93.6394 84.2584 93.1598 85.2728C92.791 86.0658 91.9887 86.5823 91.1126 86.5823C90.8637 86.5823 90.6147 86.5361 90.3841 86.4531C90.1444 86.3794 89.9046 86.3333 89.6556 86.3333C89.0193 86.3333 88.4107 86.6099 87.9865 87.0802C87.3871 87.7534 87.2488 88.7125 87.6361 89.5332C88.134 90.5752 87.756 91.8201 86.7692 92.4288C85.8102 93.0097 84.7958 93.5077 83.7445 93.8858C83.4955 93.978 83.2281 94.0241 82.9699 94.0241C82.1031 94.0241 81.31 93.5262 80.9319 92.7608C80.5631 91.9954 79.77 91.5066 78.9216 91.5066C78.8847 91.5066 78.8448 91.5066 78.8017 91.5066C77.898 91.5619 77.1234 92.1429 76.8191 92.9913C76.4963 93.8858 75.6387 94.4852 74.6796 94.4852C74.5013 94.4852 74.3261 94.4668 74.154 94.4299C73.0658 94.1625 71.9961 93.7936 70.9817 93.3141C69.9305 92.8253 69.4141 91.6265 69.7922 90.5291C70.0872 89.6807 69.8383 88.7401 69.1651 88.1407C68.7593 87.7718 68.2337 87.569 67.6804 87.569C67.3484 87.569 67.0164 87.6427 66.7213 87.7903C66.417 87.9286 66.0943 88.0024 65.7623 88.0024C64.9785 88.0024 64.2315 87.5874 63.8257 86.9234C63.2356 85.9644 62.7468 84.9408 62.3595 83.8895C61.963 82.8014 62.4517 81.5933 63.4938 81.0861C64.3053 80.6896 64.794 79.8504 64.7387 78.9467C64.6926 78.0522 64.1116 77.2684 63.2632 76.9641C62.1658 76.5767 61.5572 75.4333 61.8246 74.299C62.0828 73.2108 62.4609 72.1503 62.9405 71.1267C63.3093 70.3337 64.1116 69.8265 64.9877 69.8265C65.2367 69.8265 65.4856 69.8634 65.7162 69.9464C65.9467 70.0294 66.1957 70.0663 66.4447 70.0663C67.081 70.0663 67.6896 69.7896 68.1138 69.3193C68.7132 68.6461 68.8515 67.6871 68.4642 66.8756C67.9663 65.8243 68.3444 64.5794 69.3311 63.9707C70.2901 63.3898 71.3045 62.901 72.3558 62.5137C72.6048 62.4215 72.8722 62.3754 73.1304 62.3754C73.9972 62.3754 74.7903 62.8734 75.1684 63.6388C75.5373 64.4042 76.3303 64.8929 77.1695 64.8929C77.2125 64.8929 77.2556 64.8929 77.2986 64.8929C78.2023 64.8468 78.9769 64.2566 79.2812 63.4082C79.604 62.5137 80.4616 61.9143 81.4207 61.9143C81.599 61.9143 81.7742 61.9358 81.9463 61.9789ZM80.3325 63.7863C79.8991 65.022 78.7556 65.935 77.3631 66.0087C77.3017 66.0149 77.2371 66.0179 77.1695 66.0179C75.86 66.0179 74.7073 65.2526 74.1632 64.1367C73.9696 63.731 73.5546 63.5004 73.1304 63.5004C73.0013 63.5004 72.8722 63.5189 72.7431 63.565C71.7471 63.9246 70.7973 64.3857 69.912 64.9298C69.4233 65.2341 69.2296 65.8704 69.4786 66.396C70.0319 67.5764 69.8752 69.0242 68.9438 70.0663C68.2798 70.804 67.3669 71.1821 66.4447 71.1821C66.0758 71.1821 65.707 71.1267 65.3565 71.0069C65.2336 70.9638 65.1106 70.9423 64.9877 70.9423C64.5543 70.9423 64.1393 71.1913 63.9456 71.6063C63.5122 72.5469 63.1618 73.5336 62.9128 74.5664C62.7745 75.1289 63.088 75.7191 63.6321 75.9128C64.8678 76.3554 65.7807 77.4989 65.8545 78.8822C65.9375 80.2746 65.1537 81.5103 63.9825 82.0913C63.4569 82.3495 63.2171 82.9581 63.4108 83.5114C63.7796 84.5074 64.2315 85.448 64.7756 86.3333C64.9877 86.6837 65.3658 86.8866 65.7623 86.8866C65.9191 86.8866 66.0851 86.8497 66.2418 86.7759C66.6937 86.5638 67.1824 86.4531 67.6804 86.4531C68.4735 86.4531 69.2757 86.7298 69.912 87.3015C70.9541 88.2329 71.2768 89.6623 70.8526 90.898C70.659 91.4513 70.9264 92.0507 71.4521 92.2997C72.3927 92.7423 73.3886 93.0927 74.4122 93.3417C74.5044 93.3602 74.5936 93.3694 74.6796 93.3694C75.1592 93.3694 75.6018 93.0743 75.7586 92.6132C76.2012 91.3867 77.3447 90.4738 78.7372 90.3908C78.7986 90.3908 78.8601 90.3908 78.9216 90.3908C80.2403 90.3908 81.393 91.147 81.9371 92.272C82.1307 92.6685 82.5365 92.9083 82.9699 92.9083C83.099 92.9083 83.2281 92.8806 83.3572 92.8345C84.3532 92.4749 85.2938 92.0138 86.179 91.4697C86.677 91.1654 86.8707 90.5383 86.6217 90.0127C86.0592 88.8231 86.2252 87.3753 87.1565 86.3333C87.8205 85.5955 88.7334 85.2174 89.6556 85.2174C90.0245 85.2174 90.3933 85.282 90.7438 85.4019C90.8667 85.4388 90.9897 85.4572 91.1126 85.4572C91.5461 85.4572 91.9518 85.2082 92.1455 84.7932C92.5881 83.8526 92.9385 82.8659 93.1875 81.8423C93.3258 81.2706 93.0123 80.6804 92.459 80.4867C91.2325 80.0441 90.3196 78.9006 90.2366 77.5174C90.1628 76.1249 90.9374 74.8892 92.1178 74.3174C92.6434 74.0592 92.8832 73.4414 92.6803 72.8881C92.3207 71.9014 91.8688 70.9515 91.3247 70.0663C91.1034 69.7158 90.7253 69.5222 90.338 69.5222C90.1812 69.5222 90.0153 69.5498 89.8585 69.6236C89.4066 69.8449 88.9087 69.9464 88.4199 69.9464C87.6268 69.9464 86.8246 69.6697 86.1883 69.098C85.1462 68.1666 84.8235 66.7465 85.2477 65.5015C85.4321 64.9575 85.1739 64.3488 84.6483 64.0998C83.7076 63.6572 82.7117 63.3068 81.6881 63.067C81.5959 63.0424 81.5067 63.0301 81.4207 63.0301C80.9411 63.0301 80.4985 63.3252 80.3325 63.7863ZM74.5505 83.0872C74.3784 82.9643 74.2093 82.829 74.0433 82.6815C71.5719 80.4683 71.3598 76.669 73.573 74.1976C74.7534 72.8696 76.4041 72.1965 78.0548 72.1965C79.4749 72.1965 80.9043 72.6944 82.057 73.718C82.2168 73.8656 82.3674 74.0193 82.5088 74.1791C84.5468 76.42 84.5929 79.8965 82.5273 82.202C81.3469 83.5299 79.6962 84.2123 78.0455 84.2123C76.8283 84.2123 75.5926 83.8342 74.5505 83.0872ZM81.6973 81.455C83.3664 79.5922 83.3572 76.7796 81.6789 74.9261C81.5621 74.797 81.4391 74.674 81.31 74.5572C80.4063 73.7549 79.2536 73.3123 78.0548 73.3123C76.6623 73.3123 75.3251 73.9025 74.403 74.9445C73.5361 75.9128 73.0935 77.1669 73.1673 78.4764C73.2411 79.7767 73.8128 80.9755 74.7903 81.8515C74.9194 81.9683 75.0577 82.0759 75.2053 82.1743C76.0352 82.7737 77.0219 83.0872 78.0455 83.0872C79.438 83.0872 80.7659 82.497 81.6973 81.455Z" fill="#999999"/>
<path d="M13.4754 108.161H8.75396C4.41056 108.161 0.878662 104.629 0.878662 100.285V31.538C0.878662 27.1946 4.41056 23.6627 8.75396 23.6627H77.5014C81.8448 23.6627 85.3767 27.1946 85.3767 31.538V58.705C85.3767 59.0186 85.1277 59.2675 84.8142 59.2675C84.5099 59.2675 84.2609 59.0186 84.2609 58.705V31.538C84.2609 27.8125 81.227 24.7785 77.5014 24.7785H8.75396C5.02841 24.7785 1.99448 27.8125 1.99448 31.538V100.285C1.99448 104.011 5.02841 107.045 8.75396 107.045H13.4754C13.7798 107.045 14.0287 107.294 14.0287 107.598C14.0287 107.912 13.7798 108.161 13.4754 108.161Z" fill="#999999"/>
<path d="M43.2061 49.5202H11.4282C10.377 49.5202 9.51935 48.6718 9.51935 47.6113C9.51935 46.56 10.377 45.7024 11.4282 45.7024H43.2061C44.2573 45.7024 45.115 46.56 45.115 47.6113C45.115 48.6718 44.2573 49.5202 43.2061 49.5202Z" fill="#999999"/>
<path d="M63.0695 59.5442H11.4282C10.377 59.5442 9.51935 58.6865 9.51935 57.6353C9.51935 56.5748 10.377 55.7172 11.4282 55.7172H63.0695C64.13 55.7172 64.9876 56.5748 64.9876 57.6353C64.9876 58.6865 64.13 59.5442 63.0695 59.5442Z" fill="white"/>
<path d="M54.0139 69.5682H11.4282C10.377 69.5682 9.51935 68.7106 9.51935 67.6501C9.51935 66.5988 10.377 65.7412 11.4282 65.7412H54.0139C55.0743 65.7412 55.932 66.5988 55.932 67.6501C55.932 68.7106 55.0743 69.5682 54.0139 69.5682Z" fill="white"/>
<path d="M12.876 29.952C12.876 30.8741 12.1291 31.6303 11.1977 31.6303C10.2663 31.6303 9.51935 30.8741 9.51935 29.952C9.51935 29.0206 10.2663 28.2644 11.1977 28.2644C12.1291 28.2644 12.876 29.0206 12.876 29.952Z" fill="white"/>
<path d="M20.1335 29.952C20.1335 30.8741 19.3773 31.6303 18.4459 31.6303C17.5238 31.6303 16.7676 30.8741 16.7676 29.952C16.7676 29.0206 17.5238 28.2644 18.4459 28.2644C19.3773 28.2644 20.1335 29.0206 20.1335 29.952Z" fill="white"/>
<path d="M27.3817 29.952C27.3817 30.8741 26.6347 31.6303 25.7034 31.6303C24.772 31.6303 24.025 30.8741 24.025 29.952C24.025 29.0206 24.772 28.2644 25.7034 28.2644C26.6347 28.2644 27.3817 29.0206 27.3817 29.952Z" fill="white"/>
<path d="M112.184 56.7777V99.6031C112.184 102.194 110.082 104.306 107.481 104.306C104.89 104.306 102.778 102.194 102.778 99.6031V56.7777H112.184Z" fill="white"/>
<path opacity="0.2" d="M112.184 57.5891V61.6374C110.755 62.3106 109.169 62.6795 107.481 62.6795C105.803 62.6795 104.207 62.3106 102.778 61.6374V57.5891H112.184Z" fill="#F5F5F5"/>
<path d="M118.575 48.847C118.575 54.961 113.641 59.913 107.546 59.9407C101.432 59.9776 96.4704 55.1085 96.3874 49.0038C96.3413 45.4719 97.9367 42.3181 100.463 40.2617C100.971 39.8375 101.745 40.2063 101.745 40.8703V48.386C105.166 50.8758 109.805 50.8758 113.226 48.386V40.8703C113.226 40.2063 113.992 39.8375 114.499 40.2525C116.989 42.2904 118.575 45.3889 118.575 48.847Z" fill="white"/>
<path opacity="0.2" d="M107.195 94.4665C106.393 94.4665 105.747 93.821 105.747 93.0187V68.8672C105.747 68.0649 106.393 67.4102 107.195 67.4102C107.997 67.4102 108.643 68.0649 108.643 68.8672V93.0187C108.643 93.821 107.997 94.4665 107.195 94.4665Z" fill="#F5F5F5"/>
<path fill-rule="evenodd" clip-rule="evenodd" d="M107.481 104.859C104.585 104.859 102.225 102.499 102.225 99.603V59.2583C100.408 58.3361 98.8588 56.9621 97.743 55.2561C96.5165 53.4025 95.8618 51.2447 95.8341 49.0038C95.7788 45.435 97.3464 42.0876 100.113 39.8282C100.509 39.4963 101.063 39.4317 101.533 39.653C102.003 39.8744 102.298 40.3447 102.298 40.8703V48.0909C105.434 50.2303 109.528 50.2303 112.664 48.0909V40.8703C112.664 40.3447 112.959 39.8744 113.438 39.653C113.909 39.4317 114.453 39.4963 114.858 39.8282C117.579 42.0507 119.137 45.3428 119.137 48.847C119.137 51.1063 118.492 53.3011 117.265 55.1823C116.14 56.916 114.582 58.3177 112.747 59.2491V99.603C112.747 102.499 110.386 104.859 107.481 104.859ZM100.952 40.6398C100.915 40.6398 100.869 40.649 100.814 40.6951C98.3147 42.7331 96.9038 45.767 96.9499 48.9946C97.0052 53.0706 99.3291 56.6762 103.018 58.4007C103.211 58.4929 103.341 58.6865 103.341 58.9079V99.603C103.341 101.881 105.203 103.744 107.481 103.744C109.768 103.744 111.631 101.881 111.631 99.603V58.8986C111.631 58.6865 111.751 58.4837 111.954 58.3914C115.633 56.667 118.021 52.923 118.021 48.847C118.021 45.6748 116.61 42.7054 114.148 40.6859C114.056 40.6121 113.964 40.6398 113.918 40.6582C113.862 40.6859 113.789 40.7412 113.789 40.8703V48.3859C113.789 48.5612 113.696 48.7271 113.558 48.8378C109.925 51.4752 105.047 51.4752 101.413 48.8378C101.266 48.7364 101.183 48.5612 101.183 48.3859V40.8703C101.183 40.7412 101.1 40.6859 101.054 40.6674C101.026 40.649 100.998 40.6398 100.952 40.6398Z" fill="#999999"/>
<path d="M107.481 60.5033C104.401 60.5033 101.505 59.3229 99.3107 57.1743C97.1067 55.0072 95.871 52.1116 95.8341 49.0039C95.8249 48.6996 96.0739 48.4414 96.3782 48.4414C96.6917 48.4414 96.9499 48.6811 96.9499 48.9947C97.0237 54.7305 101.745 59.3875 107.481 59.3875C107.5 59.3875 107.518 59.3875 107.536 59.3875C113.318 59.3506 118.021 54.6291 118.021 48.8471C118.021 48.5428 118.27 48.2938 118.575 48.2938C118.888 48.2938 119.137 48.5428 119.137 48.8471C119.137 51.9548 117.929 54.8689 115.744 57.0728C113.558 59.2676 110.644 60.4849 107.546 60.5033C107.527 60.5033 107.506 60.5033 107.481 60.5033Z" fill="#999999"/>
<path d="M25.1409 7.31278C25.1409 11.3519 21.8672 14.6256 17.8281 14.6256C13.789 14.6256 10.5153 11.3519 10.5153 7.31278C10.5153 3.27369 13.789 0 17.8281 0C21.8672 0 25.1409 3.27369 25.1409 7.31278Z" fill="#F2F2F2"/>
<path d="M120.539 9.99632C120.539 11.0753 119.663 11.9605 118.575 11.9605C117.496 11.9605 116.62 11.0753 116.62 9.99632C116.62 8.90816 117.496 8.0321 118.575 8.0321C119.663 8.0321 120.539 8.90816 120.539 9.99632Z" fill="#999999"/>
<path d="M89.7755 109.876C89.7755 112.615 87.553 114.837 84.8142 114.837C82.0846 114.837 79.8622 112.615 79.8622 109.876C79.8622 107.146 82.0846 104.924 84.8142 104.924C87.553 104.924 89.7755 107.146 89.7755 109.876Z" fill="white"/>
</svg>
