<svg width="14" height="18" viewBox="0 0 14 18" fill="none" xmlns="http://www.w3.org/2000/svg">
<path d="M2 4C0.89543 4 0 4.89543 0 6V12C0 13.1046 0.895431 14 2 14H8C9.10457 14 10 13.1046 10 12V10.9713L12.8413 12.8182C13.3402 13.1425 14 12.7844 14 12.1893V5.81097C14 5.21571 13.3398 4.85768 12.8409 5.18236L10 7.03118V6C10 4.89543 9.10457 4 8 4H2ZM10 8.22429L13 6.27195V11.7287L10 9.77866V8.22429ZM9 6V12C9 12.5523 8.55229 13 8 13H2C1.44772 13 1 12.5523 1 12V6C1 5.44772 1.44772 5 2 5H8C8.55229 5 9 5.44772 9 6ZM3.89163 1.0301C3.5251 1.16339 3.23931 1.29759 3.04215 1.40046C2.94354 1.45191 2.86697 1.49558 2.81343 1.52748C2.78666 1.54343 2.76563 1.55645 2.75046 1.56603L2.73212 1.57776L2.72627 1.58158L2.72418 1.58296L2.72265 1.58397C2.72248 1.58409 2.72265 1.58397 3 2L2.72265 1.58397C2.49289 1.73715 2.4308 2.04759 2.58398 2.27735C2.73709 2.50702 3.04691 2.56943 3.27664 2.4165L3.28445 2.41151C3.29248 2.40644 3.30612 2.39797 3.32524 2.38658C3.3635 2.36379 3.42365 2.32934 3.50472 2.28704C3.66694 2.20241 3.9124 2.08661 4.23337 1.9699C4.87525 1.73649 5.81727 1.5 7 1.5C8.18273 1.5 9.12475 1.73649 9.76663 1.9699C10.0876 2.08661 10.3331 2.20241 10.4953 2.28704C10.5764 2.32934 10.6365 2.36379 10.6748 2.38658C10.6939 2.39797 10.7075 2.40644 10.7155 2.41151L10.7233 2.41646C10.7232 2.41637 10.7227 2.41603 10.9848 2.02283L10.7233 2.41646C10.953 2.56908 11.263 2.5069 11.416 2.27735C11.5692 2.04759 11.5064 1.73669 11.2767 1.58351L11 2C11.2774 1.58397 11.2768 1.58362 11.2767 1.58351L11.2758 1.58296L11.2737 1.58158L11.2679 1.57776L11.2495 1.56603C11.2344 1.55645 11.2133 1.54343 11.1866 1.52748C11.133 1.49558 11.0565 1.45191 10.9578 1.40046C10.7607 1.29759 10.4749 1.16339 10.1084 1.0301C9.37525 0.763514 8.31727 0.5 7 0.5C5.68273 0.5 4.62475 0.763514 3.89163 1.0301ZM3.27664 2.4165C3.27605 2.41689 3.27652 2.41658 3.27664 2.4165V2.4165ZM10.7233 2.41646C10.7232 2.41639 10.7234 2.41653 10.7233 2.41646V2.41646ZM3.89163 16.9699C4.62475 17.2365 5.68273 17.5 7 17.5C8.31727 17.5 9.37525 17.2365 10.1084 16.9699C10.4749 16.8366 10.7607 16.7024 10.9578 16.5995C11.0565 16.5481 11.133 16.5044 11.1866 16.4725C11.2133 16.4566 11.2344 16.4436 11.2495 16.434L11.2679 16.4222L11.2737 16.4184L11.2758 16.417L11.2767 16.4165C11.2768 16.4164 11.2774 16.416 11 16L11.2767 16.4165C11.5064 16.2633 11.5692 15.9524 11.416 15.7226C11.263 15.4931 10.953 15.4309 10.7233 15.5835L10.9848 15.9772C10.7227 15.584 10.7232 15.5836 10.7233 15.5835L10.7155 15.5885C10.7075 15.5936 10.6939 15.602 10.6748 15.6134C10.6365 15.6362 10.5764 15.6707 10.4953 15.713C10.3331 15.7976 10.0876 15.9134 9.76663 16.0301C9.12475 16.2635 8.18273 16.5 7 16.5C5.81727 16.5 4.87525 16.2635 4.23337 16.0301C3.9124 15.9134 3.66694 15.7976 3.50472 15.713C3.42365 15.6707 3.3635 15.6362 3.32524 15.6134C3.30612 15.602 3.29248 15.5936 3.28445 15.5885L3.27664 15.5835C3.04691 15.4306 2.73709 15.493 2.58398 15.7226C2.4308 15.9524 2.49289 16.2628 2.72265 16.416L3 16C2.72265 16.416 2.72248 16.4159 2.72265 16.416L2.72418 16.417L2.72627 16.4184L2.73212 16.4222L2.75046 16.434C2.76563 16.4436 2.78666 16.4566 2.81343 16.4725C2.86697 16.5044 2.94354 16.5481 3.04215 16.5995C3.23931 16.7024 3.5251 16.8366 3.89163 16.9699ZM3.27664 15.5835C3.27605 15.5831 3.27652 15.5834 3.27664 15.5835V15.5835ZM10.7233 15.5835C10.7232 15.5836 10.7234 15.5835 10.7233 15.5835V15.5835Z" fill="white"/>
</svg>
