<svg width="12" height="14" viewBox="0 0 12 14" fill="none" xmlns="http://www.w3.org/2000/svg">
<path d="M2.76779 1.92224L2.76885 1.92158L2.77855 1.91561C2.78792 1.90989 2.80302 1.9008 2.82356 1.88881C2.86466 1.86481 2.92741 1.82927 3.00944 1.786C3.17373 1.69934 3.414 1.5824 3.71144 1.46518C4.30989 1.22934 5.12055 1 5.99999 1C6.87944 1 7.6901 1.22934 8.28854 1.46518C8.58598 1.5824 8.82625 1.69934 8.99055 1.786C9.07258 1.82927 9.13533 1.86481 9.17642 1.88881C9.19697 1.9008 9.21207 1.90989 9.22143 1.91561L9.23113 1.92158L9.23199 1.92211C9.46503 2.06955 9.77423 2.0009 9.9221 1.768C10.0701 1.53488 10.0011 1.22591 9.768 1.07789L9.76679 1.07713L9.765 1.076L9.7597 1.07268L9.74223 1.06193C9.72759 1.053 9.70697 1.04061 9.68069 1.02526C9.62813 0.994568 9.5528 0.951983 9.45709 0.901502C9.26592 0.800663 8.99212 0.667602 8.65519 0.534819C7.98488 0.270661 7.04554 0 5.99999 0C4.95444 0 4.0151 0.270661 3.3448 0.534819C3.00786 0.667602 2.73407 0.800663 2.54289 0.901502C2.44719 0.951983 2.37185 0.994568 2.3193 1.02526C2.29301 1.04061 2.27239 1.053 2.25775 1.06193L2.24029 1.07268L2.23498 1.076L2.23319 1.07713L2.23223 1.07774C1.99911 1.22575 1.92987 1.53488 2.07789 1.768C2.22586 2.00106 2.53469 2.07008 2.76779 1.92224ZM2 3C0.895431 3 0 3.89543 0 5V9C0 10.1046 0.895431 11 2 11H6C7.10457 11 8 10.1046 8 9V5C8 3.89543 7.10457 3 6 3H2ZM12 4.5C12 4.31062 11.893 4.13749 11.7236 4.05279C11.5542 3.96809 11.3515 3.98637 11.2 4.1L9.2 5.6C9.0741 5.69443 9 5.84262 9 6V8C9 8.15738 9.0741 8.30558 9.2 8.4L11.2 9.9C11.3515 10.0136 11.5542 10.0319 11.7236 9.94722C11.893 9.86252 12 9.68939 12 9.5V4.5ZM2.76885 12.0785L2.76779 12.0778C2.53469 11.93 2.22586 11.999 2.07789 12.2321C1.92987 12.4652 1.99911 12.7743 2.23223 12.9223L2.23319 12.9229L2.23498 12.9241L2.24029 12.9274L2.25775 12.9381C2.27239 12.9471 2.29301 12.9595 2.3193 12.9748C2.37185 13.0055 2.44719 13.0481 2.54289 13.0986C2.73407 13.1994 3.00786 13.3325 3.3448 13.4652C4.0151 13.7294 4.95444 14.0001 5.99999 14.0001C7.04554 14.0001 7.98488 13.7294 8.65519 13.4652C8.99212 13.3325 9.26592 13.1994 9.45709 13.0986C9.5528 13.0481 9.62813 13.0055 9.68069 12.9748C9.70697 12.9595 9.72759 12.9471 9.74223 12.9381L9.7597 12.9274L9.765 12.9241L9.76679 12.9229L9.768 12.9222C10.0011 12.7742 10.0701 12.4652 9.9221 12.2321C9.77423 11.9992 9.46503 11.9305 9.23199 12.078L9.23113 12.0785L9.22143 12.0845C9.21207 12.0902 9.19697 12.0993 9.17642 12.1113C9.13533 12.1353 9.07258 12.1708 8.99055 12.2141C8.82625 12.3007 8.58598 12.4177 8.28854 12.5349C7.6901 12.7707 6.87944 13.0001 5.99999 13.0001C5.12055 13.0001 4.30989 12.7707 3.71144 12.5349C3.414 12.4177 3.17373 12.3007 3.00944 12.2141C2.92741 12.1708 2.86466 12.1353 2.82356 12.1113C2.80302 12.0993 2.78792 12.0902 2.77855 12.0845L2.76885 12.0785Z" fill="currentColor"/>
</svg>
