<svg width="16" height="12" viewBox="0 0 16 12" fill="none" xmlns="http://www.w3.org/2000/svg">
<path d="M0 1.14844C0 0.734224 0.335786 0.398438 0.75 0.398438H15.25C15.6642 0.398438 16 0.734224 16 1.14844C16 1.56265 15.6642 1.89844 15.25 1.89844H0.75C0.335786 1.89844 0 1.56265 0 1.14844ZM0 6.14844C0 5.73422 0.335786 5.39844 0.75 5.39844H15.25C15.6642 5.39844 16 5.73422 16 6.14844C16 6.56265 15.6642 6.89844 15.25 6.89844H0.75C0.335786 6.89844 0 6.56265 0 6.14844ZM0.75 10.3984C0.335786 10.3984 0 10.7342 0 11.1484C0 11.5627 0.335786 11.8984 0.75 11.8984H15.25C15.6642 11.8984 16 11.5627 16 11.1484C16 10.7342 15.6642 10.3984 15.25 10.3984H0.75Z" fill="white"/>
</svg>
