<svg width="14" height="14" viewBox="0 0 14 14" fill="none" xmlns="http://www.w3.org/2000/svg">
<path d="M3.5 3C3.22386 3 3 3.22386 3 3.5C3 3.77614 3.22386 4 3.5 4L10.5 4C10.7761 4 11 3.77614 11 3.5C11 3.22386 10.7761 3 10.5 3L3.5 3ZM3 6.5C3 6.22386 3.22386 6 3.5 6L7.5 6C7.77614 6 8 6.22386 8 6.5C8 6.77614 7.77614 7 7.5 7L3.5 7C3.22386 7 3 6.77614 3 6.5ZM3.5 9C3.22386 9 3 9.22386 3 9.5C3 9.77614 3.22386 10 3.5 10L10.5 10C10.7761 10 11 9.77614 11 9.5C11 9.22386 10.7761 9 10.5 9L3.5 9ZM14 2.5C14 1.11929 12.8807 0 11.5 0L2.5 0C1.11929 0 0 1.11929 0 2.5L0 11.5C0 12.8807 1.11929 14 2.5 14L11.5 14C12.8807 14 14 12.8807 14 11.5L14 2.5ZM2.5 1L11.5 1C12.3284 1 13 1.67157 13 2.5L13 11.5C13 12.3284 12.3284 13 11.5 13L2.5 13C1.67157 13 1 12.3284 1 11.5L1 2.5C1 1.67157 1.67157 1 2.5 1Z" fill="currentColor"/>
</svg>
