<svg width="17" height="17" viewBox="0 0 17 17" fill="none" xmlns="http://www.w3.org/2000/svg">
<path d="M6.53828 0.5C2.94843 0.5 0.0382771 3.41015 0.0382771 7C0.0382771 8.151 0.337867 9.23335 0.863526 10.1719L0.0677853 12.2542C-0.225499 13.0216 0.480483 13.7957 1.2716 13.5741L3.75898 12.8774C4.60219 13.2768 5.5448 13.5 6.53828 13.5C10.1281 13.5 13.0383 10.5899 13.0383 7C13.0383 3.41015 10.1281 0.5 6.53828 0.5ZM1.03828 7C1.03828 3.96243 3.50071 1.5 6.53828 1.5C9.57584 1.5 12.0383 3.96243 12.0383 7C12.0383 10.0376 9.57584 12.5 6.53828 12.5C5.63615 12.5 4.78612 12.2832 4.03606 11.8993L3.86185 11.8101L1.0019 12.6111L1.97101 10.0753L1.84272 9.86552C1.33247 9.03135 1.03828 8.05079 1.03828 7ZM9.50087 16.5C7.53124 16.5 5.76622 15.6239 4.57422 14.2402C5.13727 14.3926 5.7266 14.481 6.33392 14.4973C7.22932 15.129 8.32176 15.5 9.50087 15.5C10.403 15.5 11.253 15.2832 12.0031 14.8993L12.1773 14.8101L15.0373 15.6111L14.0681 13.0752L14.1964 12.8655C14.7067 12.0313 15.0009 11.0508 15.0009 9.99999C15.0009 8.84552 14.6452 7.77414 14.0374 6.88943C14.0286 6.28165 13.9475 5.69137 13.8024 5.1268C15.1506 6.31779 16.0009 8.0596 16.0009 9.99999C16.0009 11.151 15.7013 12.2333 15.1756 13.1719L15.9714 15.2542C16.2646 16.0216 15.5587 16.7957 14.7675 16.5741L12.2802 15.8774C11.437 16.2768 10.4943 16.5 9.50087 16.5Z" fill="currentColor"/>
</svg>
