<svg width="12" height="16" viewBox="0 0 12 16" fill="none" xmlns="http://www.w3.org/2000/svg">
<path d="M5.99999 9.24998C5.41776 9.24998 4.92499 9.04831 4.52165 8.64498C4.11832 8.24165 3.91665 7.74887 3.91665 7.16665V2.16665C3.91665 1.58442 4.11832 1.09165 4.52165 0.688312C4.92499 0.284979 5.41776 0.083313 5.99999 0.083313C6.58221 0.083313 7.07499 0.284979 7.47832 0.688312C7.88165 1.09165 8.08332 1.58442 8.08332 2.16665V7.16665C8.08332 7.74887 7.88165 8.24165 7.47832 8.64498C7.07499 9.04831 6.58221 9.24998 5.99999 9.24998ZM5.37499 14.6666V12.5448C4.13457 12.4016 3.07151 11.892 2.18582 11.016C1.30026 10.1399 0.781583 9.07206 0.629778 7.81248C0.607417 7.63512 0.653875 7.48317 0.769153 7.35665C0.88457 7.22998 1.03096 7.16665 1.20832 7.16665C1.38568 7.16665 1.53415 7.22783 1.65374 7.35019C1.77346 7.47241 1.85311 7.6222 1.89269 7.79956C2.04436 8.81998 2.51096 9.66401 3.29249 10.3316C4.07401 10.9994 4.97651 11.3333 5.99999 11.3333C7.03735 11.3333 7.94332 10.996 8.7179 10.3212C9.49249 9.64665 9.95561 8.80609 10.1073 7.79956C10.1469 7.6222 10.2265 7.47241 10.3462 7.35019C10.4658 7.22783 10.6143 7.16665 10.7917 7.16665C10.969 7.16665 11.1154 7.22998 11.2308 7.35665C11.3461 7.48317 11.3926 7.63512 11.3702 7.81248C11.2184 9.04428 10.7032 10.1039 9.82457 10.9912C8.94582 11.8785 7.87929 12.3963 6.62499 12.5448V14.6666C6.62499 14.844 6.56512 14.9925 6.4454 15.1121C6.32582 15.2318 6.17735 15.2916 5.99999 15.2916C5.82263 15.2916 5.67415 15.2318 5.55457 15.1121C5.43485 14.9925 5.37499 14.844 5.37499 14.6666Z" fill="black"/>
</svg>
