<svg width="24" height="24" viewBox="0 0 24 24" fill="none" xmlns="http://www.w3.org/2000/svg">
<path d="M12.6667 12C12.6667 10.8306 12.5847 9.68174 12.4266 8.55962C12.3241 7.83189 11.479 7.51321 10.8937 7.95772L9.8696 8.73556C9.52168 8.9998 9.09682 9.14286 8.65993 9.14286H8C6.89543 9.14286 6 10.0383 6 11.1429V12.8571C6 13.9617 6.89543 14.8571 8 14.8571H8.65993C9.09681 14.8571 9.52168 15.0002 9.8696 15.2644L10.8937 16.0423C11.479 16.4868 12.3241 16.1681 12.4266 15.4404C12.5847 14.3183 12.6667 13.1694 12.6667 12Z" fill="white" stroke="white" stroke-linejoin="round"/>
<path d="M15 10L19 14M15 14L19 10" stroke="white" stroke-width="1.5" stroke-linecap="round" stroke-linejoin="round"/>
</svg>
