<svg width="15" height="12" viewBox="0 0 15 12" fill="none" xmlns="http://www.w3.org/2000/svg">
<path d="M6.5 5.73828C5.77813 5.73828 5.16019 5.48128 4.64619 4.96728C4.13206 4.45316 3.875 3.83516 3.875 3.11328C3.875 2.39141 4.13206 1.77347 4.64619 1.25947C5.16019 0.745344 5.77813 0.488281 6.5 0.488281C7.22188 0.488281 7.83981 0.745344 8.35381 1.25947C8.86794 1.77347 9.125 2.39141 9.125 3.11328C9.125 3.83516 8.86794 4.45316 8.35381 4.96728C7.83981 5.48128 7.22188 5.73828 6.5 5.73828ZM0.875 11.4499V9.78247C0.875 9.40372 0.971625 9.06072 1.16488 8.75347C1.35813 8.44622 1.62787 8.20847 1.97412 8.04022C2.59712 7.72972 3.27019 7.47034 3.99331 7.26209C4.71631 7.05397 5.55188 6.94991 6.5 6.94991H6.71919C6.77981 6.94991 6.84519 6.95759 6.91531 6.97297C6.83944 7.14984 6.77675 7.33009 6.72725 7.51372C6.67763 7.69747 6.6365 7.88453 6.60388 8.07491H6.5C5.6365 8.07491 4.87206 8.17416 4.20669 8.37266C3.54131 8.57128 2.96919 8.79509 2.49031 9.04409C2.32019 9.13547 2.19594 9.24222 2.11756 9.36434C2.03919 9.48647 2 9.62584 2 9.78247V10.3249H6.725C6.78075 10.5153 6.85313 10.7085 6.94212 10.9047C7.031 11.1008 7.12881 11.2825 7.23556 11.4499H0.875ZM11.0793 12.0051L10.9121 11.0098C10.7332 10.957 10.5649 10.8878 10.4071 10.8023C10.2495 10.7167 10.0995 10.6094 9.95713 10.4805L9.00669 10.8109L8.47306 9.90359L9.24913 9.26909C9.19525 9.07484 9.16831 8.88347 9.16831 8.69497C9.16831 8.50659 9.19525 8.31528 9.24913 8.12103L8.48038 7.47191L9.014 6.56478L9.95713 6.90228C10.0946 6.77341 10.2434 6.66741 10.4036 6.58428C10.5637 6.50103 10.7332 6.43297 10.9121 6.38009L11.0793 5.38503H12.1466L12.3067 6.38009C12.4856 6.43297 12.6551 6.50297 12.8152 6.59009C12.9752 6.67709 13.1239 6.78884 13.2614 6.92534L14.2048 6.56478L14.7384 7.49497L13.9696 8.14409C14.0235 8.32447 14.0504 8.51234 14.0504 8.70772C14.0504 8.90309 14.0235 9.09022 13.9696 9.26909L14.7457 9.90359L14.2121 10.8109L13.2614 10.4805C13.1192 10.6094 12.9692 10.7167 12.8114 10.8023C12.6538 10.8878 12.4856 10.957 12.3067 11.0098L12.1466 12.0051H11.0793ZM11.6064 10.123C11.9993 10.123 12.3353 9.98309 12.6146 9.70334C12.8939 9.42359 13.0336 9.08728 13.0336 8.69441C13.0336 8.30153 12.8938 7.96547 12.614 7.68622C12.3343 7.40684 11.9979 7.26716 11.6051 7.26716C11.2123 7.26716 10.8763 7.40703 10.5969 7.68678C10.3175 7.96653 10.1778 8.30284 10.1778 8.69572C10.1778 9.08847 10.3177 9.42453 10.5974 9.70391C10.8772 9.98328 11.2135 10.123 11.6064 10.123ZM6.5 4.61328C6.9125 4.61328 7.26563 4.46641 7.55938 4.17266C7.85313 3.87891 8 3.52578 8 3.11328C8 2.70078 7.85313 2.34766 7.55938 2.05391C7.26563 1.76016 6.9125 1.61328 6.5 1.61328C6.0875 1.61328 5.73438 1.76016 5.44063 2.05391C5.14688 2.34766 5 2.70078 5 3.11328C5 3.52578 5.14688 3.87891 5.44063 4.17266C5.73438 4.46641 6.0875 4.61328 6.5 4.61328Z" fill="currentColor"/>
</svg>
