<svg width="16" height="16" viewBox="0 0 16 16" fill="none" xmlns="http://www.w3.org/2000/svg">
<path d="M15.53 5.42643V10.765C15.53 11.7681 14.7168 12.5813 13.7137 12.5813H2.81625C1.81316 12.5813 1 11.7681 1 10.765V5.31625C1 4.31316 1.81316 3.5 2.81625 3.5H13.6036L12.6955 4.40813H2.81625C2.31471 4.40813 1.90812 4.81471 1.90812 5.31625V10.765C1.90812 11.2665 2.31471 11.6731 2.81625 11.6731H13.7137C14.2153 11.6731 14.6219 11.2665 14.6219 10.765V6.33455L15.53 5.42643ZM2.81625 6.67844C2.81625 6.42767 3.01954 6.22438 3.27031 6.22438H5.08656C5.33733 6.22438 5.54063 6.42767 5.54063 6.67844C5.54063 6.92921 5.33733 7.1325 5.08656 7.1325H3.27031C3.01954 7.1325 2.81625 6.92921 2.81625 6.67844ZM2.81625 9.40281C2.81625 9.15204 3.01954 8.94875 3.27031 8.94875H7.35687C7.60765 8.94875 7.81094 9.15204 7.81094 9.40281C7.81094 9.65358 7.60765 9.85688 7.35687 9.85688H3.27031C3.01954 9.85688 2.81625 9.65358 2.81625 9.40281ZM15.397 3.63299C15.5743 3.81031 15.5743 4.09781 15.397 4.27513L9.94826 9.72388C9.77094 9.90121 9.48344 9.90121 9.30612 9.72388C9.12879 9.54656 9.12879 9.25906 9.30612 9.08174L14.7549 3.63299C14.9322 3.45567 15.2197 3.45567 15.397 3.63299Z" fill="#2065AA"/>
</svg>
