<svg width="200" height="203" viewBox="0 0 200 203" fill="none" xmlns="http://www.w3.org/2000/svg">
<g id="Group 1410084767">
<g id="no-connection/pana">
<g id="background-complete">
<path id="Vector" d="M75.1092 8.11805C75.3457 6.42113 72.9437 5.02447 71.1421 4.87889C70.2823 4.8061 69.3906 4.93803 68.5763 4.65597C66.8157 4.04181 66.1105 1.76257 64.3863 1.01647C63.0988 0.475093 61.6203 0.957327 60.3737 1.58514C59.1272 2.21296 57.8898 3.00455 56.4977 3.09553C55.2875 3.17287 53.9682 2.72249 52.9082 3.3139C52.1166 3.76884 51.7026 4.67872 50.9747 5.2019C50.2173 5.67027 49.3402 5.90889 48.4498 5.88885C47.562 5.86479 46.6777 6.00832 45.843 6.31194C45.0378 6.68044 44.3736 7.53573 44.5419 8.40466L75.1092 8.11805Z" fill="#F5F5F5"/>
<path id="Vector_2" d="M195.899 108.527C196.29 105.702 192.301 103.378 189.302 103.136C187.874 103.018 186.391 103.236 185.035 102.763C182.105 101.744 180.941 97.9547 178.07 96.7445C175.932 95.8347 173.466 96.649 171.392 97.6908C169.317 98.7326 167.27 100.047 164.95 100.198C162.934 100.325 160.746 99.5788 158.981 100.566C157.666 101.298 156.979 102.813 155.769 103.705C154.559 104.597 153.039 104.765 151.565 104.847C150.091 104.929 148.572 104.938 147.234 105.552C145.897 106.166 144.787 107.581 145.064 109.028L195.899 108.527Z" fill="#EBEBEB"/>
<path id="Vector_3" d="M44.2233 39.577C44.519 37.4161 41.4663 35.6373 39.1735 35.4508C38.0816 35.3643 36.9488 35.5326 35.9116 35.1687C33.6687 34.3862 32.7725 31.4882 30.5797 30.5647C28.9465 29.8732 27.0585 30.4919 25.4707 31.2881C23.883 32.0842 22.318 33.1078 20.5438 33.2079C19.0015 33.3034 17.3273 32.753 15.9944 33.4854C14.989 34.0495 14.4658 35.2051 13.5377 35.8875C12.6096 36.5699 11.4496 36.7018 10.3213 36.761C9.19306 36.8201 8.04662 36.8338 7.00936 37.3024C5.9721 37.7709 5.13957 38.8537 5.34884 39.9592L44.2233 39.577Z" fill="#F5F5F5"/>
<path id="Vector_4" d="M164.996 157.338L154.874 201.285L159.155 201.271L169.296 157.752L164.996 157.338Z" fill="#E0E0E0"/>
<path id="Vector_5" d="M183.457 157.338L193.616 201.285H197.683L187.856 157.338H183.457Z" fill="#E0E0E0"/>
<path id="Vector_6" d="M158.163 124.332L163.927 154.59H170.474L164.318 124.332H158.163Z" fill="#E0E0E0"/>
<path id="Vector_7" d="M57.7893 157.338L49.5322 201.285H53.7358L62.3615 157.338H57.7893Z" fill="#E0E0E0"/>
<path id="Vector_8" d="M75.1504 157.338L84.5858 201.044H88.7394L79.627 157.338H75.1504Z" fill="#E0E0E0"/>
<path id="Vector_9" d="M50.9561 124.332L56.7201 154.59H63.2667L57.1114 124.332H50.9561Z" fill="#E0E0E0"/>
<path id="Vector_10" d="M37.9912 121.584L39.1695 127.084H170.669L169.136 121.584H37.9912Z" fill="#EBEBEB"/>
<path id="Vector_11" d="M40.502 132.266L41.8941 137.766H172.502L171.315 132.266H40.502Z" fill="#EBEBEB"/>
<path id="Vector_12" d="M43.0996 143.326L44.3916 148.826H174.599L173.366 143.326H43.0996Z" fill="#EBEBEB"/>
<path id="Vector_13" d="M193.461 154.59H53.0537V160.09H193.461V154.59Z" fill="#EBEBEB"/>
<path id="Vector_14" d="M136.566 86.4674C135.481 86.4678 134.415 86.1829 133.475 85.6413C132.535 85.0997 131.754 84.3204 131.21 83.3816C130.667 82.4428 130.379 81.3775 130.377 80.2926C130.375 79.2077 130.658 78.1413 131.198 77.2003L148.941 46.2646C149.476 45.318 150.254 44.5311 151.194 43.985C152.134 43.4388 153.203 43.1531 154.291 43.1573C155.375 43.1509 156.441 43.4322 157.381 43.9724C158.321 44.5127 159.101 45.2927 159.641 46.2327L177.565 77.0638C178.11 78.0032 178.399 79.0693 178.401 80.1553C178.404 81.2413 178.121 82.3089 177.581 83.251C177.041 84.1931 176.262 84.9765 175.324 85.5227C174.385 86.0689 173.319 86.3586 172.233 86.3628L136.571 86.472L136.566 86.4674ZM154.309 44.9998C153.546 44.9975 152.796 45.1986 152.136 45.5824C151.476 45.9662 150.931 46.5189 150.556 47.1835L132.813 78.1193C132.434 78.7791 132.236 79.5269 132.237 80.2877C132.238 81.0486 132.439 81.7957 132.821 82.4542C133.202 83.1127 133.749 83.6594 134.408 84.0396C135.067 84.4198 135.815 84.6201 136.575 84.6204L172.238 84.5112C172.997 84.5066 173.742 84.303 174.398 83.9206C175.054 83.5382 175.598 82.9905 175.976 82.3321C176.354 81.6737 176.552 80.9277 176.552 80.1685C176.551 79.4093 176.352 78.6635 175.973 78.0056L158.048 47.179C157.673 46.5165 157.129 45.9656 156.471 45.5827C155.813 45.1998 155.066 44.9986 154.304 44.9998H154.309Z" fill="#EBEBEB"/>
<path id="Vector_15" d="M150.824 58.3842L151.657 69.9259C151.688 70.3814 151.886 70.8093 152.212 71.1288C152.538 71.4482 152.97 71.637 153.426 71.6593C153.906 71.684 154.377 71.5236 154.742 71.2112C155.107 70.8988 155.338 70.4583 155.387 69.9805L156.57 58.366C156.591 58.1586 156.567 57.9492 156.501 57.7516C156.435 57.554 156.327 57.3727 156.186 57.2197C156.044 57.0666 155.872 56.9453 155.68 56.8637C155.488 56.7821 155.282 56.7422 155.073 56.7464L152.257 56.8101C152.058 56.8145 151.862 56.8593 151.681 56.9418C151.5 57.0243 151.337 57.1427 151.203 57.2899C151.069 57.4371 150.966 57.61 150.901 57.7981C150.836 57.9862 150.81 58.1856 150.824 58.3842Z" fill="#EBEBEB"/>
<path id="Vector_16" d="M156.543 78.1285C156.372 78.6581 156.047 79.125 155.611 79.4703C155.174 79.8156 154.645 80.0238 154.09 80.0686C153.535 80.1133 152.98 79.9926 152.494 79.7218C152.007 79.4509 151.612 79.0419 151.358 78.5466C151.104 78.0513 151.003 77.4919 151.066 76.9389C151.13 76.3859 151.356 75.8643 151.717 75.4398C152.077 75.0153 152.555 74.7071 153.09 74.5541C153.625 74.401 154.193 74.41 154.724 74.58C155.076 74.693 155.403 74.8746 155.686 75.1143C155.968 75.3539 156.201 75.647 156.37 75.9766C156.539 76.3062 156.641 76.666 156.671 77.0352C156.701 77.4045 156.657 77.776 156.543 78.1285Z" fill="#EBEBEB"/>
</g>
<g id="Floor">
<path id="Vector_17" d="M200 201.23C200 201.294 155.225 201.348 100.004 201.348C44.7841 201.348 0 201.294 0 201.23C0 201.166 44.7659 201.112 100.004 201.112C155.243 201.112 200 201.162 200 201.23Z" fill="#263238"/>
</g>
<g id="Device">
<path id="Vector_18" d="M130.717 152.424L84.7684 152.392C79.2455 152.392 74.7598 147.684 74.7598 141.879V20.8653C74.7598 15.0603 79.2455 10.3517 84.7684 10.3562L130.694 10.3835C136.222 10.3835 140.703 15.0921 140.703 20.8971L140.68 141.911C140.726 147.72 136.245 152.424 130.717 152.424Z" fill="#263238"/>
<path id="Vector_19" d="M130.703 14.6691H121.796C121.195 14.6985 120.63 14.965 120.225 15.4101C119.82 15.8552 119.607 16.4427 119.635 17.0438V18.7408C119.662 19.3427 119.449 19.9308 119.043 20.376C118.637 20.8213 118.071 21.0872 117.469 21.1155H100.113C99.5114 21.0861 98.9458 20.819 98.5406 20.3729C98.1355 19.9268 97.9239 19.3382 97.9524 18.7362V17.0438C97.9796 16.4427 97.7674 15.8552 97.3624 15.4101C96.9574 14.965 96.3925 14.6985 95.7914 14.6691H84.8729C81.0014 14.6691 77.8623 17.9674 77.8623 22.0345V140.145C77.8623 144.208 80.9968 147.506 84.8638 147.511L130.703 147.538C134.575 147.538 137.714 144.244 137.714 140.177L137.705 22.0482C137.705 17.9537 134.575 14.6691 130.703 14.6691Z" fill="white"/>
<path id="Vector_20" d="M90.3558 136.36V139.249C90.3555 139.306 90.34 139.361 90.3111 139.41C90.2821 139.459 90.2407 139.499 90.1911 139.526C90.1415 139.553 90.0855 139.567 90.0289 139.566C89.9723 139.564 89.9171 139.547 89.869 139.518L87.5943 138.071C87.5493 138.042 87.5122 138.002 87.4864 137.955C87.4607 137.909 87.4473 137.856 87.4473 137.802C87.4473 137.749 87.4607 137.696 87.4864 137.649C87.5122 137.602 87.5493 137.563 87.5943 137.534L89.869 136.087C89.9174 136.057 89.9731 136.041 90.0301 136.039C90.0871 136.038 90.1434 136.052 90.1931 136.08C90.2429 136.108 90.2842 136.148 90.3128 136.198C90.3414 136.247 90.3563 136.303 90.3558 136.36Z" fill="#E0E0E0"/>
<path id="Vector_21" d="M109.035 137.775C109.034 138.169 108.917 138.554 108.697 138.881C108.478 139.208 108.166 139.463 107.802 139.613C107.438 139.763 107.037 139.802 106.651 139.724C106.265 139.647 105.91 139.457 105.632 139.178C105.354 138.899 105.164 138.544 105.088 138.158C105.011 137.771 105.051 137.371 105.202 137.007C105.353 136.643 105.608 136.332 105.936 136.113C106.263 135.895 106.649 135.778 107.042 135.778C107.571 135.779 108.078 135.99 108.452 136.365C108.825 136.739 109.035 137.246 109.035 137.775Z" fill="#E0E0E0"/>
<path id="Vector_22" d="M126.173 136.037H124.198C123.729 136.037 123.348 136.418 123.348 136.888V138.872C123.348 139.341 123.729 139.722 124.198 139.722H126.173C126.643 139.722 127.024 139.341 127.024 138.872V136.888C127.024 136.418 126.643 136.037 126.173 136.037Z" fill="#E0E0E0"/>
<path id="Vector_23" d="M129.935 72.1645C132.87 60.0164 125.4 47.7897 113.252 44.8552C101.104 41.9208 88.8776 49.3899 85.9431 61.538C83.0087 73.686 90.4778 85.9128 102.626 88.8472C114.774 91.7816 127.001 84.3125 129.935 72.1645Z" fill="#F5F5F5"/>
<path id="Vector_24" d="M108.948 76.8135C108.947 77.1835 108.836 77.5449 108.63 77.852C108.423 78.159 108.13 78.398 107.788 78.5385C107.446 78.6791 107.07 78.7149 106.707 78.6415C106.344 78.5681 106.012 78.3888 105.751 78.1262C105.49 77.8636 105.313 77.5296 105.243 77.1664C105.172 76.8032 105.21 76.4272 105.353 76.086C105.496 75.7448 105.738 75.4536 106.046 75.2495C106.355 75.0453 106.717 74.9373 107.087 74.9391C107.582 74.9427 108.055 75.1418 108.403 75.4929C108.752 75.844 108.948 76.3187 108.948 76.8135Z" fill="#455A64"/>
<path id="Vector_25" d="M103.343 74.4115C103.82 73.8979 104.397 73.4865 105.037 73.2021C105.678 72.9177 106.37 72.7662 107.07 72.7569C107.771 72.7475 108.467 72.8804 109.115 73.1476C109.763 73.4148 110.35 73.8107 110.841 74.3114C111.796 75.2758 113.288 73.7973 112.333 72.8328C111.646 72.1407 110.828 71.5929 109.926 71.2218C109.025 70.8506 108.058 70.6636 107.083 70.6716C106.108 70.6797 105.144 70.8827 104.249 71.2687C103.354 71.6547 102.544 72.2159 101.869 72.9193C100.937 73.8974 102.415 75.3941 103.352 74.4115H103.343Z" fill="#455A64"/>
<path id="Vector_26" d="M96.9926 65.7221C99.836 63.2655 103.23 61.7187 107.029 61.7096C110.821 61.6555 114.49 63.0517 117.287 65.6129C118.27 66.5228 119.767 65.0625 118.78 64.1344C115.591 61.1813 111.397 59.5544 107.051 59.585C102.679 59.585 98.7942 61.4048 95.5232 64.2117C94.4996 65.0989 95.9781 66.5865 97.0063 65.7039L96.9926 65.7221Z" fill="#455A64"/>
<path id="Vector_27" d="M99.4998 70.5307C100.448 69.4728 101.605 68.6227 102.898 68.0342C104.19 67.4457 105.591 67.1315 107.012 67.1114C108.432 67.0913 109.841 67.3658 111.15 67.9175C112.459 68.4692 113.64 69.2862 114.617 70.3169C115.564 71.2859 117.056 69.8074 116.11 68.8338C114.937 67.6081 113.525 66.6363 111.961 65.9787C110.397 65.3211 108.715 64.9917 107.019 65.0109C105.322 65.0301 103.648 65.3975 102.1 66.0903C100.551 66.7831 99.1614 67.7866 98.0167 69.0385C97.1068 70.0303 98.5762 71.5271 99.4998 70.5307Z" fill="#455A64"/>
<path id="Vector_28" d="M124.745 61.7586C125.296 58.6387 123.215 55.6622 120.095 55.1104C116.975 54.5586 113.998 56.6404 113.446 59.7603C112.895 62.8802 114.976 65.8568 118.096 66.4086C121.216 66.9604 124.193 64.8785 124.745 61.7586Z" fill="#FF725E"/>
<path id="Vector_29" d="M121.46 59.1553L120.646 58.3414L117.002 61.9862L117.816 62.8L121.46 59.1553Z" fill="white"/>
<path id="Vector_30" d="M117.818 58.3372L117.004 59.1511L120.649 62.7959L121.463 61.982L117.818 58.3372Z" fill="white"/>
<path id="Vector_31" d="M106.419 27.3026C106.704 27.1315 107.01 26.9984 107.329 26.9068L107.515 25.9969L109.03 25.9696L109.249 26.8795C109.567 26.9601 109.873 27.0825 110.159 27.2434L110.918 26.7339L112.01 27.7894L111.532 28.5718C111.704 28.8566 111.837 29.1624 111.928 29.4817L112.838 29.6682L112.865 31.1877L111.956 31.4016C111.877 31.7194 111.756 32.0254 111.596 32.3114L112.097 33.0757L111.046 34.1676L110.263 33.7126C109.978 33.882 109.672 34.0135 109.353 34.1039L109.167 35.0138L107.652 35.0411L107.433 34.1312C107.116 34.0497 106.81 33.9274 106.524 33.7672L105.755 34.2677L104.663 33.2168L105.141 32.4343C104.969 32.1498 104.836 31.8439 104.745 31.5244L103.835 31.3379L103.808 29.8229L104.717 29.6046C104.797 29.287 104.918 28.9811 105.077 28.6947L104.576 27.9258L105.632 26.8385L106.414 27.2935L106.419 27.3026ZM107.224 29.327C107 29.5588 106.85 29.8517 106.793 30.1687C106.736 30.4858 106.774 30.8127 106.902 31.1081C107.031 31.4036 107.244 31.6543 107.515 31.8285C107.786 32.0027 108.103 32.0927 108.425 32.0869C108.747 32.0812 109.06 31.9801 109.325 31.7963C109.589 31.6126 109.793 31.3544 109.911 31.0546C110.029 30.7548 110.056 30.4267 109.987 30.1119C109.918 29.7971 109.758 29.5097 109.526 29.2861C109.215 28.9864 108.798 28.8224 108.367 28.8301C107.935 28.8378 107.524 29.0165 107.224 29.327Z" fill="#E0E0E0"/>
<path id="Vector_32" d="M87.1792 30.6919C86.7243 30.6919 86.0919 30.6919 85.4868 30.6919C84.7635 30.6919 84.0401 30.6919 83.5351 30.6919C83.4748 30.6919 83.4169 30.668 83.3743 30.6253C83.3316 30.5826 83.3077 30.5248 83.3077 30.4645C83.3071 30.4348 83.3124 30.4053 83.3233 30.3777C83.3342 30.3502 83.3506 30.3251 83.3713 30.3039C83.3921 30.2827 83.4169 30.2659 83.4442 30.2544C83.4716 30.2429 83.5009 30.237 83.5306 30.237C84.0356 30.237 84.768 30.237 85.4959 30.237C86.2238 30.237 86.9426 30.2643 87.4476 30.237C87.4773 30.2364 87.5067 30.2417 87.5343 30.2526C87.5619 30.2636 87.587 30.2799 87.6082 30.3006C87.6294 30.3214 87.6462 30.3462 87.6577 30.3735C87.6692 30.4009 87.6751 30.4302 87.6751 30.4599C87.6757 30.4898 87.6704 30.5195 87.6595 30.5473C87.6486 30.5751 87.6324 30.6005 87.6117 30.6221C87.591 30.6436 87.5662 30.6609 87.5389 30.6729C87.5115 30.6849 87.482 30.6913 87.4521 30.6919H87.1792Z" fill="#263238"/>
<path id="Vector_33" d="M84.9179 32.2205C84.886 32.2198 84.8546 32.2126 84.8256 32.1993C84.7967 32.186 84.7708 32.1669 84.7495 32.1431L83.3847 30.5827C83.3476 30.5397 83.3271 30.4848 83.3271 30.428C83.3271 30.3712 83.3476 30.3163 83.3847 30.2733L84.7495 28.8539C84.7695 28.8298 84.7941 28.81 84.822 28.7959C84.8499 28.7817 84.8805 28.7735 84.9117 28.7716C84.943 28.7698 84.9742 28.7744 85.0036 28.7853C85.033 28.7961 85.0598 28.8128 85.0824 28.8345C85.105 28.8561 85.1229 28.8822 85.1349 28.9111C85.147 28.94 85.1529 28.971 85.1524 29.0023C85.1519 29.0336 85.145 29.0645 85.132 29.0929C85.1191 29.1214 85.1004 29.1469 85.0771 29.1678L83.8715 30.4371L85.118 31.8429C85.147 31.8759 85.1658 31.9165 85.1722 31.96C85.1786 32.0034 85.1723 32.0478 85.154 32.0877C85.1357 32.1276 85.1063 32.1614 85.0692 32.185C85.0322 32.2085 84.9891 32.2209 84.9452 32.2205H84.9179Z" fill="#263238"/>
<path id="Vector_34" d="M131.814 29.3681C132.203 29.3681 132.519 29.0524 132.519 28.6629C132.519 28.2735 132.203 27.9578 131.814 27.9578C131.424 27.9578 131.108 28.2735 131.108 28.6629C131.108 29.0524 131.424 29.3681 131.814 29.3681Z" fill="#263238"/>
<path id="Vector_35" d="M132.518 30.8922C132.519 31.0329 132.478 31.1708 132.4 31.2882C132.323 31.4056 132.212 31.4972 132.082 31.5515C131.952 31.6058 131.809 31.6202 131.671 31.593C131.533 31.5658 131.406 31.4981 131.307 31.3986C131.207 31.299 131.139 31.1721 131.112 31.0341C131.085 30.896 131.099 30.7529 131.154 30.623C131.208 30.4932 131.299 30.3824 131.417 30.3047C131.534 30.2271 131.672 30.1861 131.813 30.187C132 30.187 132.179 30.2613 132.311 30.3936C132.444 30.5258 132.518 30.7052 132.518 30.8922Z" fill="#263238"/>
<path id="Vector_36" d="M131.814 33.8264C132.203 33.8264 132.519 33.5107 132.519 33.1213C132.519 32.7318 132.203 32.4161 131.814 32.4161C131.424 32.4161 131.108 32.7318 131.108 33.1213C131.108 33.5107 131.424 33.8264 131.814 33.8264Z" fill="#263238"/>
<path id="Vector_37" d="M92.6118 97.9727C91.5394 98.0897 90.4599 98.1293 89.3818 98.091C88.3051 98.1292 87.2272 98.0897 86.1562 97.9727C87.2272 97.8558 88.3051 97.8163 89.3818 97.8544C90.4599 97.8162 91.5394 97.8557 92.6118 97.9727Z" fill="#263238"/>
<path id="Vector_38" d="M104.199 105.525C104.199 105.588 100.232 105.643 95.341 105.643C90.4505 105.643 86.4834 105.588 86.4834 105.525C86.4834 105.461 90.4459 105.406 95.341 105.406C100.236 105.406 104.199 105.461 104.199 105.525Z" fill="#263238"/>
<path id="Vector_39" d="M104.199 113.036C104.199 113.099 100.232 113.154 95.341 113.154C90.4505 113.154 86.4834 113.099 86.4834 113.036C86.4834 112.972 90.4459 112.917 95.341 112.917C100.236 112.917 104.199 112.963 104.199 113.036Z" fill="#263238"/>
<path id="Vector_40" d="M127.614 102.69H121.136C119.571 102.69 118.302 103.958 118.302 105.522C118.302 107.086 119.571 108.354 121.136 108.354H127.614C129.18 108.354 130.449 107.086 130.449 105.522C130.449 103.958 129.18 102.69 127.614 102.69Z" fill="#EBEBEB"/>
<path id="Vector_41" d="M123.474 105.525C123.474 105.994 123.335 106.454 123.074 106.844C122.813 107.235 122.442 107.539 122.008 107.719C121.574 107.898 121.097 107.945 120.636 107.854C120.175 107.762 119.752 107.536 119.42 107.204C119.088 106.872 118.862 106.449 118.77 105.988C118.679 105.527 118.726 105.05 118.905 104.616C119.085 104.182 119.389 103.811 119.78 103.55C120.171 103.289 120.63 103.15 121.099 103.15C121.411 103.15 121.72 103.211 122.008 103.331C122.296 103.45 122.558 103.625 122.779 103.845C122.999 104.066 123.174 104.328 123.293 104.616C123.413 104.904 123.474 105.213 123.474 105.525Z" fill="#E0E0E0"/>
<path id="Vector_42" d="M127.619 115.861H121.136C120.384 115.861 119.663 115.562 119.132 115.031C118.6 114.499 118.302 113.778 118.302 113.027C118.302 112.275 118.6 111.554 119.132 111.022C119.663 110.491 120.384 110.192 121.136 110.192H127.619C128.371 110.192 129.091 110.491 129.623 111.022C130.155 111.554 130.453 112.275 130.453 113.027C130.453 113.778 130.155 114.499 129.623 115.031C129.091 115.562 128.371 115.861 127.619 115.861Z" fill="#EBEBEB"/>
<path id="Vector_43" d="M121.099 115.401C122.411 115.401 123.474 114.338 123.474 113.027C123.474 111.715 122.411 110.652 121.099 110.652C119.788 110.652 118.725 111.715 118.725 113.027C118.725 114.338 119.788 115.401 121.099 115.401Z" fill="#E0E0E0"/>
<path id="Vector_44" d="M104.199 120.578C104.199 120.647 100.232 120.697 95.341 120.697C90.4505 120.697 86.4834 120.647 86.4834 120.578C86.4834 120.51 90.4459 120.46 95.341 120.46C100.236 120.46 104.199 120.515 104.199 120.578Z" fill="#263238"/>
<path id="Vector_45" d="M127.619 124.25H121.136C120.764 124.25 120.396 124.178 120.052 124.036C119.708 123.894 119.395 123.685 119.132 123.423C118.869 123.16 118.66 122.848 118.518 122.504C118.375 122.16 118.302 121.792 118.302 121.42C118.302 120.668 118.6 119.947 119.132 119.416C119.663 118.884 120.384 118.586 121.136 118.586H127.619C128.371 118.586 129.091 118.884 129.623 119.416C130.155 119.947 130.453 120.668 130.453 121.42C130.453 121.792 130.38 122.16 130.237 122.504C130.095 122.848 129.886 123.16 129.623 123.423C129.359 123.685 129.047 123.894 128.703 124.036C128.359 124.178 127.991 124.25 127.619 124.25Z" fill="#EBEBEB"/>
<path id="Vector_46" d="M121.099 123.795C122.411 123.795 123.474 122.732 123.474 121.42C123.474 120.109 122.411 119.045 121.099 119.045C119.788 119.045 118.725 120.109 118.725 121.42C118.725 122.732 119.788 123.795 121.099 123.795Z" fill="#E0E0E0"/>
</g>
<g id="Sun">
<path id="Vector_47" d="M181.737 22.6203C182.39 18.5772 179.641 14.7705 175.598 14.1178C171.555 13.4652 167.748 16.2137 167.096 20.2568C166.443 24.2999 169.192 28.1066 173.235 28.7593C177.278 29.4119 181.085 26.6635 181.737 22.6203Z" fill="#FF725E"/>
<path id="Vector_48" d="M173.363 38.0211C173.322 38.0211 173.285 36.6563 173.285 34.9594C173.285 33.2625 173.322 31.9022 173.363 31.9022C173.441 32.9192 173.467 33.9397 173.44 34.9594C173.467 35.9806 173.441 37.0026 173.363 38.0211Z" fill="#FF725E"/>
<path id="Vector_49" d="M169.09 30.1779C169.127 30.1779 168.431 31.479 167.535 33.0304C166.638 34.5817 165.879 35.8282 165.842 35.8055C165.806 35.7828 166.502 34.5089 167.398 32.953C168.294 31.3972 169.054 30.1552 169.09 30.1779Z" fill="#FF725E"/>
<path id="Vector_50" d="M164.705 27.4484C164.163 27.9793 163.586 28.4718 162.976 28.9224C162.399 29.4153 161.791 29.8712 161.156 30.2872C161.698 29.7563 162.275 29.2638 162.885 28.8132C163.46 28.3177 164.068 27.8617 164.705 27.4484Z" fill="#FF725E"/>
<path id="Vector_51" d="M180.759 35.0049C180.67 34.7614 180.605 34.5101 180.563 34.2542C180.459 33.7993 180.304 33.1442 180.108 32.4345C179.913 31.7248 179.726 31.0969 179.585 30.642C179.49 30.3994 179.42 30.148 179.376 29.8914C179.506 30.1177 179.611 30.3571 179.69 30.6056C179.858 31.0605 180.067 31.6838 180.259 32.3935C180.45 33.1032 180.582 33.7583 180.663 34.2133C180.723 34.473 180.755 34.7384 180.759 35.0049Z" fill="#FF725E"/>
<path id="Vector_52" d="M188.279 29.6684C187.516 29.1019 186.784 28.4944 186.086 27.8486C185.356 27.2442 184.658 26.6002 183.998 25.9197C184.761 26.4861 185.493 27.0936 186.191 27.7394C186.922 28.3439 187.619 28.9878 188.279 29.6684Z" fill="#FF725E"/>
<path id="Vector_53" d="M191.159 22.3348C190.852 22.316 190.548 22.2734 190.249 22.2074C189.698 22.1164 188.938 21.9981 188.097 21.9026C187.255 21.8071 186.486 21.7479 185.931 21.7115C185.626 21.7109 185.322 21.685 185.021 21.6342C185.323 21.5932 185.628 21.5825 185.931 21.6023C186.491 21.6023 187.264 21.6524 188.111 21.7479C188.957 21.8434 189.721 21.9799 190.267 22.0982C190.571 22.1494 190.869 22.2286 191.159 22.3348Z" fill="#FF725E"/>
<path id="Vector_54" d="M191.168 15.124C191.168 15.1695 189.576 15.5789 187.583 16.0793C185.591 16.5798 183.971 16.921 183.944 16.88C183.916 16.8391 185.541 16.4251 187.529 15.9292C189.517 15.4333 191.159 15.083 191.168 15.124Z" fill="#FF725E"/>
<path id="Vector_55" d="M182.797 6.72595C182.829 6.72595 182.065 7.97248 181.082 9.45558C180.099 10.9387 179.262 12.1306 179.235 12.1033C179.208 12.076 179.968 10.8568 180.95 9.37369C181.521 8.46037 182.137 7.57665 182.797 6.72595Z" fill="#FF725E"/>
<path id="Vector_56" d="M174.477 4.96985C174.5 5.30912 174.5 5.64964 174.477 5.98891C174.477 6.61672 174.477 7.48111 174.477 8.43648C174.477 9.39184 174.477 10.2562 174.504 10.8931C174.528 11.2309 174.528 11.5699 174.504 11.9076C174.439 11.5748 174.404 11.2368 174.399 10.8977C174.363 10.2699 174.331 9.40094 174.331 8.44102C174.331 7.48111 174.358 6.62127 174.395 5.98436C174.391 5.64441 174.419 5.30485 174.477 4.96985Z" fill="#FF725E"/>
<path id="Vector_57" d="M168.18 12.8084C168.144 12.8312 167.361 11.621 166.438 10.1061C165.514 8.59116 164.786 7.34008 164.823 7.31733C164.859 7.29458 165.641 8.50927 166.57 10.047C167.498 11.5846 168.239 12.7902 168.18 12.8084Z" fill="#FF725E"/>
<path id="Vector_58" d="M164.418 16.0066C164.152 15.9958 163.888 15.9545 163.631 15.8838C163.149 15.7791 162.489 15.6199 161.766 15.4288C161.043 15.2378 160.401 14.9739 159.946 14.8147C159.692 14.7338 159.447 14.6271 159.214 14.4962C159.477 14.544 159.734 14.6171 159.983 14.7146C160.438 14.8602 161.097 15.0694 161.802 15.2787C162.508 15.488 163.167 15.67 163.65 15.7973C163.912 15.8426 164.169 15.9127 164.418 16.0066Z" fill="#FF725E"/>
<path id="Vector_59" d="M162.78 21.7025C162 21.8586 161.209 21.9604 160.414 22.0073C159.625 22.1088 158.831 22.1605 158.035 22.162C158.816 22.0052 159.606 21.9018 160.401 21.8526C161.19 21.7538 161.985 21.7036 162.78 21.7025Z" fill="#FF725E"/>
</g>
<g id="plant-2">
<path id="Vector_60" d="M157.722 153.862L164.355 201.116L166.083 201.171C164.982 185.121 163.809 168.752 157.722 153.862Z" fill="#455A64"/>
<path id="Vector_61" d="M176.152 151.646C171.516 156.71 169.651 163.711 168.477 170.485C166.812 180.089 166.657 191.435 167.162 201.171L169.583 201.225C168.624 184.432 170.853 167.61 176.152 151.646Z" fill="#455A64"/>
<path id="Vector_62" d="M158.942 181.818C158.409 179.475 157.8 177.095 156.462 175.098C154.643 172.405 151.717 170.704 148.756 169.375C145.794 168.047 142.687 166.991 140.012 165.153C142.996 170.044 149.766 171.345 153.205 175.922C154.92 178.196 155.634 181.053 156.303 183.824C157.772 189.866 158.673 195.093 160.138 201.112H162.103C161.457 194.62 160.401 188.176 158.942 181.818Z" fill="#455A64"/>
<path id="Vector_63" d="M171.353 201.171C171.353 201.171 173.013 182.405 174.246 178.956C175.479 175.508 187.125 165.99 187.016 166.441C186.907 166.891 178.277 177.305 177.044 179.457C175.811 181.608 173.7 201.171 173.7 201.171H171.353Z" fill="#455A64"/>
</g>
<g id="plant-1">
<path id="Vector_64" d="M116.294 181.545C116.754 181.729 117.172 182.003 117.523 182.353C117.874 182.702 118.151 183.119 118.337 183.578C118.708 184.5 118.864 185.494 118.792 186.485C118.697 188.396 117.746 190.384 116.681 191.976C114.993 190.684 114.47 188.278 114.279 187.036C113.979 185.08 114.625 181.358 116.304 181.545" fill="#FF725E"/>
<path id="Vector_65" d="M118.733 194.984C118.589 194.448 118.589 193.884 118.734 193.349C118.878 192.813 119.162 192.326 119.556 191.935C119.955 191.552 120.427 191.253 120.943 191.054C121.459 190.856 122.01 190.763 122.563 190.78C122.814 190.763 123.066 190.801 123.301 190.889C123.536 190.978 123.75 191.116 123.928 191.294C124.067 191.491 124.151 191.721 124.17 191.961C124.19 192.202 124.144 192.443 124.037 192.659C123.823 193.088 123.498 193.453 123.095 193.714C121.767 194.674 120.307 195.357 118.71 194.988" fill="#FF725E"/>
<path id="Vector_66" d="M117.064 200.934C117.065 200.803 117.075 200.672 117.096 200.543C117.128 200.265 117.169 199.906 117.219 199.478C117.323 198.293 117.617 197.132 118.088 196.039C118.583 194.946 119.36 194.003 120.34 193.309C120.638 193.107 120.959 192.941 121.295 192.814C121.386 192.777 121.478 192.746 121.573 192.723L121.673 192.7C121.225 192.888 120.797 193.12 120.395 193.391C119.453 194.095 118.703 195.024 118.215 196.094C117.745 197.173 117.438 198.317 117.306 199.488C117.237 199.942 117.183 200.297 117.137 200.548C117.127 200.679 117.102 200.808 117.064 200.934Z" fill="#263238"/>
<path id="Vector_67" d="M116.05 184.42C116.068 184.474 116.078 184.531 116.082 184.588L116.141 185.075C116.195 185.503 116.259 186.112 116.332 186.872C116.482 188.392 116.655 190.489 116.787 192.809C116.919 195.129 117.01 197.236 117.046 198.76C117.046 199.524 117.073 200.124 117.073 200.579V201.071C117.073 201.184 117.073 201.244 117.073 201.244C117.069 201.186 117.069 201.128 117.073 201.071L117.051 200.579C117.051 200.124 117.01 199.528 116.978 198.76C116.914 197.236 116.823 195.12 116.682 192.814C116.541 190.507 116.382 188.396 116.259 186.877C116.195 186.13 116.15 185.512 116.114 185.08C116.114 184.879 116.086 184.716 116.077 184.588C116.064 184.533 116.055 184.477 116.05 184.42Z" fill="#263238"/>
<path id="Vector_68" d="M116.044 196.321C115.778 195.184 115.244 194.127 114.486 193.237C113.729 192.348 112.771 191.652 111.691 191.208C111.14 190.985 110.431 190.862 110.017 191.289C109.603 191.717 109.748 192.422 110.017 192.959C110.56 194.074 111.422 195.004 112.493 195.631C113.564 196.257 114.797 196.553 116.035 196.48" fill="#FF725E"/>
<path id="Vector_69" d="M112.064 192.986C112.184 193.017 112.302 193.059 112.414 193.114C112.523 193.159 112.66 193.214 112.81 193.291C112.96 193.369 113.137 193.45 113.319 193.569C113.521 193.684 113.715 193.812 113.902 193.951C114.12 194.106 114.329 194.273 114.529 194.451C114.988 194.859 115.398 195.316 115.753 195.816C116.101 196.325 116.389 196.873 116.608 197.449C116.701 197.7 116.78 197.955 116.845 198.214C116.904 198.44 116.951 198.669 116.986 198.901C117.019 199.09 117.04 199.282 117.05 199.474C117.061 199.625 117.061 199.777 117.05 199.929C117.061 200.051 117.061 200.175 117.05 200.297C117.018 200.297 117.05 199.77 116.89 198.932C116.851 198.705 116.8 198.481 116.736 198.259C116.666 198.005 116.583 197.754 116.486 197.509C116.264 196.945 115.98 196.408 115.639 195.907C115.291 195.412 114.892 194.954 114.447 194.542C114.252 194.363 114.047 194.194 113.833 194.037C113.642 193.883 113.442 193.764 113.265 193.646C112.546 193.205 112.055 193.014 112.064 192.986Z" fill="#263238"/>
</g>
<g id="Character">
<path id="Vector_70" d="M36.3394 176.181L23.542 186.677L36.5214 202.659C37.9726 201.326 34.324 190.566 34.324 190.566L42.7995 184.197L36.3394 176.181Z" fill="#455A64"/>
<g id="Group" opacity="0.6">
<path id="Vector_71" d="M31.0028 185.066C30.8316 184.951 30.6239 184.902 30.4192 184.93C30.2145 184.957 30.0271 185.059 29.8927 185.216C29.7703 185.384 29.7166 185.591 29.7428 185.797C29.7691 186.003 29.8732 186.191 30.0338 186.322C30.2177 186.44 30.4379 186.488 30.6543 186.457C30.8706 186.426 31.0686 186.318 31.2121 186.153C31.3211 185.965 31.3531 185.742 31.3013 185.531C31.2496 185.32 31.1182 185.137 30.9346 185.021" fill="white"/>
</g>
<g id="Group_2" opacity="0.6">
<path id="Vector_72" d="M23.5918 186.631L24.8793 185.566L36.7622 201.416C36.7622 201.416 37.0261 202.381 36.4574 202.704L23.5918 186.631Z" fill="white"/>
</g>
<path id="Vector_73" d="M34.6152 190.762C34.5379 190.826 34.1603 190.462 33.6189 190.284C33.0775 190.107 32.5634 190.166 32.5361 190.066C32.5088 189.966 33.0548 189.72 33.7326 189.952C34.4105 190.184 34.7016 190.721 34.6152 190.762Z" fill="#263238"/>
<path id="Vector_74" d="M35.2838 193.005C35.2247 193.082 34.8289 192.855 34.2693 192.855C33.7097 192.855 33.3139 193.064 33.2548 192.987C33.1956 192.909 33.596 192.495 34.2738 192.504C34.9517 192.513 35.3566 192.941 35.2838 193.005Z" fill="#263238"/>
<path id="Vector_75" d="M34.0333 195.584C33.956 195.53 34.2608 195.102 34.8522 194.956C35.4436 194.811 35.9077 195.038 35.8667 195.12C35.8258 195.202 35.4118 195.166 34.9568 195.293C34.5019 195.42 34.1198 195.657 34.0333 195.584Z" fill="#263238"/>
<path id="Vector_76" d="M36.3853 189.092C36.2897 189.12 36.1078 188.674 35.7165 188.255C35.3253 187.837 34.9113 187.609 34.9431 187.514C34.975 187.418 35.5255 187.514 35.9758 188.019C36.4262 188.524 36.4808 189.083 36.3853 189.092Z" fill="#263238"/>
<path id="Vector_77" d="M37.973 187.191C37.9412 187.218 37.6455 186.95 37.327 186.385C37.1449 186.055 37.0029 185.703 36.9039 185.339C36.8458 185.124 36.8032 184.905 36.7766 184.684C36.7555 184.553 36.7555 184.419 36.7766 184.288C36.7931 184.193 36.8394 184.106 36.9089 184.038C36.9785 183.971 37.0675 183.928 37.1632 183.915C37.2492 183.909 37.3353 183.924 37.4144 183.958C37.4935 183.992 37.5634 184.044 37.6182 184.111C37.7014 184.213 37.7703 184.326 37.8229 184.447C37.9194 184.652 37.9971 184.865 38.0549 185.084C38.1532 185.452 38.1916 185.833 38.1687 186.213C38.1867 186.566 38.0927 186.916 37.9002 187.213C37.8502 187.213 37.9457 186.822 37.9002 186.213C37.886 185.859 37.8264 185.509 37.7228 185.171C37.6604 184.974 37.5829 184.782 37.4908 184.598C37.3998 184.393 37.2815 184.247 37.1723 184.265C37.0632 184.284 37.1178 184.265 37.095 184.356C37.0819 184.451 37.0819 184.548 37.095 184.643C37.1177 184.851 37.1511 185.057 37.1951 185.262C37.2742 185.609 37.3854 185.949 37.5272 186.276C37.699 186.569 37.8481 186.875 37.973 187.191Z" fill="#263238"/>
<path id="Vector_78" d="M37.7815 187.163C37.7451 187.163 37.8997 186.763 38.382 186.322C38.6675 186.069 38.9936 185.866 39.3464 185.721C39.5566 185.637 39.7745 185.573 39.997 185.53C40.1377 185.488 40.2868 185.483 40.4301 185.514C40.5735 185.546 40.7063 185.614 40.8159 185.712C40.8725 185.785 40.9073 185.872 40.9161 185.964C40.925 186.056 40.9076 186.148 40.8659 186.231C40.8047 186.347 40.7282 186.454 40.6385 186.549C40.4842 186.728 40.3031 186.881 40.1016 187.004C39.7661 187.204 39.3864 187.318 38.9961 187.336C38.3274 187.359 37.968 187.109 37.9907 187.081C38.3181 187.099 38.6461 187.099 38.9734 187.081C39.3189 187.037 39.6509 186.919 39.947 186.736C40.1182 186.63 40.2717 186.498 40.4019 186.344C40.552 186.181 40.6385 186.008 40.5702 185.958C40.4979 185.912 40.4167 185.882 40.3319 185.871C40.2472 185.859 40.1609 185.865 40.0789 185.89C39.8765 185.925 39.6772 185.977 39.4829 186.044C39.1581 186.166 38.8518 186.333 38.573 186.54C38.0499 186.877 37.8269 187.191 37.7815 187.163Z" fill="#263238"/>
<path id="Vector_79" d="M30.5439 184.752L30.6986 201.294L51.2891 201.207C51.1617 199.242 40.4889 195.334 40.4889 195.334L40.8255 184.729L30.5439 184.752Z" fill="#455A64"/>
<g id="Group_3" opacity="0.6">
<path id="Vector_80" d="M34.1186 194.47C33.9203 194.531 33.7517 194.663 33.645 194.841C33.5384 195.019 33.5013 195.23 33.5408 195.434C33.5955 195.634 33.7245 195.805 33.9013 195.912C34.0781 196.02 34.2893 196.055 34.4916 196.012C34.6976 195.942 34.8718 195.801 34.9828 195.614C35.0938 195.427 35.1342 195.207 35.0967 194.993C35.0189 194.79 34.8655 194.625 34.6688 194.532C34.472 194.44 34.2472 194.427 34.0412 194.497" fill="white"/>
</g>
<g id="Group_4" opacity="0.6">
<path id="Vector_81" d="M30.6934 201.239V199.565L50.4968 200.238C50.4968 200.238 51.4067 200.639 51.3066 201.285L30.6934 201.239Z" fill="white"/>
</g>
<path id="Vector_82" d="M40.825 195.239C40.825 195.339 40.32 195.389 39.8242 195.693C39.3283 195.998 39.069 196.444 38.978 196.403C38.887 196.362 39.0326 195.784 39.6376 195.398C40.2427 195.011 40.8569 195.148 40.825 195.239Z" fill="#263238"/>
<path id="Vector_83" d="M42.9857 196.121C42.9857 196.221 42.5762 196.394 42.235 196.822C41.8938 197.249 41.7801 197.695 41.6982 197.695C41.6163 197.695 41.5344 197.122 41.9666 196.599C42.3988 196.076 42.9857 196.026 42.9857 196.121Z" fill="#263238"/>
<path id="Vector_84" d="M44.2241 198.705C44.1331 198.705 43.9921 198.223 44.2241 197.672C44.4561 197.122 44.952 196.899 44.9929 196.981C45.0339 197.063 44.7473 197.363 44.538 197.818C44.3287 198.273 44.3242 198.691 44.2241 198.705Z" fill="#263238"/>
<path id="Vector_85" d="M40.6341 192.814C40.5886 192.905 40.1291 192.768 39.5604 192.814C38.9918 192.859 38.5505 193.037 38.4959 192.95C38.4413 192.864 38.8689 192.495 39.5377 192.463C40.2065 192.431 40.6796 192.732 40.6341 192.814Z" fill="#263238"/>
<path id="Vector_86" d="M40.1286 190.375C39.7921 190.468 39.4369 190.468 39.1005 190.375C38.5073 190.27 37.9393 190.054 37.4263 189.738C37.3105 189.674 37.2047 189.592 37.1124 189.497C37.0486 189.424 37.0098 189.333 37.0016 189.236C36.9934 189.14 37.0163 189.043 37.0669 188.96C37.1181 188.888 37.1863 188.828 37.2656 188.788C37.3448 188.747 37.4328 188.727 37.5218 188.728C37.6527 188.728 37.7829 188.746 37.9085 188.783C38.5038 188.92 39.0538 189.208 39.5054 189.62C39.983 190.075 40.1514 190.434 40.115 190.453C40.0786 190.471 39.8375 190.175 39.3461 189.811C39.067 189.6 38.761 189.427 38.4362 189.297C38.2429 189.22 38.0436 189.159 37.8403 189.115C37.6219 189.06 37.4399 189.06 37.3853 189.156C37.3308 189.252 37.3853 189.206 37.4126 189.27C37.4785 189.341 37.5553 189.4 37.6401 189.447C37.8167 189.56 37.9989 189.663 38.186 189.756C38.5071 189.914 38.8422 190.04 39.1869 190.134C39.5057 190.194 39.8203 190.274 40.1286 190.375Z" fill="#263238"/>
<path id="Vector_87" d="M40.0015 190.516C39.9651 190.516 39.7649 190.175 39.724 189.52C39.7048 189.139 39.7509 188.757 39.8604 188.392C39.9261 188.174 40.013 187.964 40.1198 187.764C40.1745 187.627 40.2636 187.508 40.3784 187.416C40.4932 187.324 40.6298 187.264 40.7749 187.241C40.8706 187.238 40.965 187.264 41.046 187.315C41.127 187.366 41.191 187.44 41.2298 187.527C41.282 187.648 41.3187 187.775 41.339 187.905C41.3838 188.214 41.3667 188.529 41.2886 188.831C41.2105 189.133 41.0729 189.417 40.8841 189.665C40.4837 190.202 40.0652 190.325 40.0561 190.289C40.047 190.252 40.37 190.043 40.6748 189.529C40.8537 189.234 40.964 188.903 40.9978 188.56C41.0272 188.362 41.0272 188.161 40.9978 187.964C40.9614 187.746 40.8795 187.568 40.7976 187.591C40.7157 187.614 40.5201 187.755 40.4382 187.932C40.3375 188.111 40.2523 188.298 40.1835 188.492C40.0701 188.823 40.0043 189.17 39.9878 189.52C39.9469 190.125 40.0561 190.502 40.0015 190.516Z" fill="#263238"/>
<path id="Vector_88" d="M32.3085 88.8832C32.3085 88.8832 29.4196 91.9722 28.0048 94.9339C26.5899 97.8955 25.68 104.942 25.68 104.942C25.68 104.942 21.6948 113.818 22.2998 118.359C22.9049 122.899 26.9629 153.98 26.9629 153.98C26.9629 153.98 26.7628 184.17 29.638 189.552L30.2794 192.459L41.8895 190.375L41.8167 188.633L44.5463 129.436L51.5341 89.1334L32.3085 88.8832Z" fill="#263238"/>
<path id="Vector_89" d="M57.9266 97.6861C57.9266 97.6861 64.8644 135.901 65.4786 142.529C66.0928 149.158 42.4633 184.133 42.4633 184.133L31.6631 172.883L47.1674 144.062L42.1267 115.015L49.1372 89.3517L56.4981 89.611L57.9266 97.6861Z" fill="#263238"/>
<path id="Vector_90" d="M27.8369 180.148C27.8487 180.432 27.876 180.714 27.9188 180.994C27.9916 181.549 28.1281 182.359 28.3192 183.415C28.7058 185.516 29.3337 188.565 30.1753 192.372V192.454H30.2572L41.8717 190.416H41.9582V190.325C42.2812 182.359 42.6679 172.837 43.0819 162.624C43.5095 151.637 43.9053 141.447 44.2329 133.089C45.1018 126.375 45.8206 120.806 46.3256 116.935C46.5667 115.006 46.7578 113.491 46.8897 112.444C46.9488 111.935 46.9989 111.535 47.0307 111.266C47.0626 110.998 47.0671 110.861 47.0671 110.861C47.0671 110.861 47.0398 110.993 46.9989 111.262C46.9579 111.53 46.8988 111.93 46.826 112.435C46.6804 113.477 46.4712 114.992 46.2028 116.916C45.6932 120.77 44.9517 126.334 44.0418 133.053C43.7051 141.41 43.2912 151.601 42.8453 162.588C42.445 172.801 42.0719 182.323 41.7626 190.289L41.8535 190.184L30.2526 192.272L30.3482 192.336C29.4838 188.533 28.8332 185.489 28.4192 183.396C28.2145 182.346 28.0644 181.536 27.9643 180.985C27.9143 180.712 27.887 180.503 27.8688 180.362C27.8619 180.29 27.8512 180.219 27.8369 180.148Z" fill="#455A64"/>
<path id="Vector_91" d="M14.3574 73.0695C14.3574 73.0695 21.5454 57.5743 23.2424 56.7509C24.9393 55.9275 29.8162 55.6499 30.4759 56.578L17.592 75.1304L14.3574 73.0695Z" fill="#455A64"/>
<path id="Vector_92" d="M14.7299 70.9768C14.4124 70.801 14.0401 70.7523 13.6881 70.8403C11.4543 71.3953 3.29275 73.5699 2.38287 75.9038C1.32742 78.5925 7.78298 113.532 8.61552 114.478C9.44806 115.424 22.2864 113.836 22.6822 112.344C23.078 110.852 18.5059 73.1923 18.5059 73.1923L14.7299 70.9768Z" fill="#455A64"/>
<path id="Vector_93" d="M4.5988 94.7745C4.5988 94.7745 3.8709 94.82 3.14755 96.426C2.4242 98.0319 3.69802 111.07 4.65794 112.403C5.61786 113.736 8.42028 114.018 8.42028 114.018L4.5988 94.7745Z" fill="#455A64"/>
<path id="Vector_94" d="M18.9055 113.059C18.8796 113.034 18.8581 113.004 18.8418 112.972L18.6689 112.704C18.5188 112.467 18.3186 112.108 18.0821 111.63C17.4312 110.276 16.9381 108.852 16.6126 107.386C16.1401 105.214 15.7998 103.015 15.5936 100.803C15.3297 98.3095 15.0385 95.5708 14.7292 92.6956C14.1105 86.9452 13.5964 81.7316 13.5099 77.9329C13.4644 76.0358 13.5099 74.5026 13.56 73.4426C13.5873 72.9149 13.6191 72.5009 13.6464 72.2234C13.6464 72.096 13.6692 71.9959 13.6783 71.9095C13.6735 71.8732 13.6735 71.8365 13.6783 71.8003C13.6833 71.8365 13.6833 71.8733 13.6783 71.9095C13.6783 71.9959 13.6783 72.1006 13.6783 72.2279C13.6783 72.5236 13.6783 72.9331 13.6373 73.4472C13.61 74.5026 13.5964 76.0358 13.6646 77.9283C13.792 81.7134 14.3334 86.9224 14.9521 92.6728C15.2524 95.5435 15.539 98.2822 15.7983 100.775C15.9923 102.983 16.3144 105.178 16.7627 107.349C17.0715 108.81 17.5367 110.233 18.1503 111.594C18.3732 112.071 18.5598 112.435 18.6962 112.681L18.8464 112.959C18.8919 113.036 18.9101 113.036 18.9055 113.059Z" fill="#263238"/>
<path id="Vector_95" d="M14.8113 92.3361C14.3089 92.4592 13.8001 92.5549 13.2873 92.6227C12.3501 92.7819 11.0535 93.0321 9.64778 93.3824C8.24202 93.7327 6.97274 94.1149 6.06741 94.4106C5.58403 94.5914 5.09031 94.7434 4.58887 94.8655C4.70124 94.7834 4.82551 94.719 4.95737 94.6745C5.20303 94.5653 5.56243 94.4197 6.01282 94.2514C8.3634 93.3743 10.805 92.7638 13.2918 92.4316C13.7468 92.3725 14.1517 92.3315 14.4201 92.3179C14.5507 92.3051 14.6825 92.3112 14.8113 92.3361Z" fill="#263238"/>
<path id="Vector_96" d="M4.42992 93.3324C4.45888 93.4005 4.47728 93.4726 4.48451 93.5462C4.51635 93.7145 4.55275 93.9193 4.59824 94.1649L4.97584 96.4396C5.29885 98.364 5.76743 101.021 6.34066 103.942C6.91388 106.862 7.52349 109.496 7.96933 111.398C8.1877 112.308 8.36513 113.081 8.50161 113.65L8.63809 114.264C8.65885 114.335 8.66957 114.409 8.66994 114.482C8.63316 114.419 8.60704 114.35 8.5926 114.278L8.41062 113.673C8.26049 113.149 8.05122 112.385 7.80555 111.439C7.31877 109.546 6.69551 106.917 6.10864 103.992C5.52177 101.066 5.08048 98.4004 4.79842 96.4624C4.65739 95.4979 4.55275 94.7109 4.49361 94.1877C4.46631 93.9375 4.44356 93.7327 4.42537 93.5599C4.41815 93.4841 4.41968 93.4078 4.42992 93.3324Z" fill="#263238"/>
<path id="Vector_97" d="M13.5603 77.6007C13.5407 77.2759 13.5651 76.9499 13.633 76.6316C13.8635 75.0862 14.2648 73.5711 14.8295 72.1141C14.9282 71.8045 15.0674 71.5092 15.2435 71.2361C15.3072 71.2634 14.7886 72.6464 14.3337 74.4206C13.8787 76.1949 13.6421 77.6098 13.5603 77.6007Z" fill="#263238"/>
<path id="Vector_98" d="M58.6628 44.4267C58.59 43.1119 58.4262 36.6927 58.3489 35.7374C58.2673 34.4059 57.6932 33.1523 56.7384 32.2207C56.2677 31.7593 55.6717 31.4465 55.0247 31.3211C54.3776 31.1958 53.7079 31.2634 53.0989 31.5155C52.7144 31.6127 52.3624 31.81 52.0787 32.0873C51.7951 32.3645 51.5898 32.7119 51.4839 33.0942C48.7907 42.6479 49.2092 52.8703 48.0264 62.7698C51.543 63.343 56.2744 63.111 59.8275 62.9244C59.8184 55.0176 59.1496 52.9841 58.6628 44.4267Z" fill="#263238"/>
<path id="Vector_99" d="M57.1848 57.9246C57.1641 57.8414 57.1549 57.7557 57.1576 57.6699C57.1576 57.4788 57.1348 57.2149 57.1212 56.9374C57.1212 56.2687 57.0711 55.3497 57.0393 54.2351C56.9892 51.924 56.9255 48.7758 56.8527 45.3229C56.8254 43.5805 56.7982 41.9245 56.7754 40.4141C56.7754 39.6589 56.7754 38.9446 56.7527 38.2713C56.7607 37.6623 56.7181 37.0536 56.6253 36.4516C56.5714 36.0124 56.4211 35.5905 56.1852 35.2161C55.9492 34.8417 55.6335 34.5242 55.2605 34.2861C54.9793 34.1317 54.6698 34.0357 54.3506 34.004C54.3506 34.004 54.3506 34.004 54.4143 34.004C54.4778 33.997 54.5419 33.997 54.6053 34.004C54.8553 34.0271 55.0981 34.0998 55.3196 34.2178C55.6697 34.4039 55.9718 34.6686 56.2022 34.9912C56.5081 35.4196 56.7148 35.9107 56.8072 36.4288C56.9142 37.0463 56.9675 37.6719 56.9665 38.2986C56.9665 38.9719 56.9938 39.6907 57.012 40.4414C57.0393 41.9518 57.0711 43.626 57.1075 45.3502C57.153 48.8168 57.1939 51.9559 57.2258 54.2624C57.2258 55.3815 57.2258 56.296 57.2258 56.9647C57.2258 57.265 57.2258 57.5061 57.2258 57.7017C57.2183 57.777 57.2047 57.8516 57.1848 57.9246Z" fill="#455A64"/>
<path id="Vector_100" d="M53.9865 54.2943C53.9559 54.1048 53.9422 53.913 53.9456 53.7211C53.9456 53.348 53.9229 52.8112 53.9229 52.147C53.9229 50.8186 53.9501 48.9624 54.0002 46.9562C54.0502 44.9499 54.1048 43.1438 54.1458 41.7699C54.1458 41.1421 54.1822 40.6143 54.1958 40.2003C54.1916 40.0065 54.2084 39.8128 54.2459 39.6226C54.2766 39.8136 54.2903 40.0069 54.2868 40.2003C54.2868 40.5688 54.2868 41.1102 54.2868 41.7744C54.2868 43.1028 54.2595 44.959 54.2095 46.9607C54.1594 48.9624 54.1003 50.7731 54.0639 52.147C54.0411 52.7748 54.0275 53.3025 54.0138 53.7211C54.0254 53.9126 54.0162 54.1048 53.9865 54.2943Z" fill="#455A64"/>
<path id="Vector_101" d="M30.8201 56.751C30.3652 56.751 21.785 57.3606 19.7924 66.5503C17.7998 75.7401 17.2266 88.6148 17.2266 88.6148L26.53 87.7049L30.8201 56.751Z" fill="#FF725E"/>
<path id="Vector_102" d="M35.0339 54.7174L36.5443 51.9286L49.7375 51.5692L50.6474 53.944L58.4223 56.751L57.7717 91.1988L63.5312 123.004C63.5312 123.004 63.4721 127.594 48.1361 129.05L46.9214 112.426L39.2557 112.244L39.465 128.481C39.465 128.481 25.9352 128.263 21.6451 125.201C21.6451 125.201 20.344 109.733 24.0381 98.5916C27.2727 88.8377 28.5329 86.3083 28.5329 86.3083L28.7967 57.0785L35.0339 54.7174Z" fill="#FF725E"/>
<g id="Group_5" opacity="0.3">
<path id="Vector_103" d="M30.9575 57.1467C28.3067 68.4929 25.6529 79.8436 22.9961 91.1988L25.6939 94.0604C27.0762 93.4157 28.2472 92.3921 29.0711 91.1085C29.8949 89.8249 30.3376 88.3339 30.3479 86.8087C30.3479 85.2346 29.8475 83.7014 29.7838 82.1274C29.6382 78.5788 31.6035 75.326 32.5134 71.8913C33.7645 67.028 32.85 61.8053 30.9575 57.1467Z" fill="black"/>
</g>
<path id="Vector_104" d="M56.7383 56.3097C59.9228 56.8966 62.3749 60.2631 63.1074 63.8753C63.5305 65.9908 64.7634 76.1905 64.7634 76.1905L65.4412 79.9301C65.4412 79.9301 66.0099 92.782 63.2848 94.2197C60.1003 95.8938 58.2805 94.0559 57.225 92.7093C56.1696 91.3626 55.0459 82.6005 55.0459 82.6005L56.2333 61.6279L56.7383 56.3097Z" fill="#FF725E"/>
<path id="Vector_105" d="M58.2442 61.4686C58.2433 61.5923 58.2312 61.7157 58.2078 61.8371C58.1714 62.0949 58.1214 62.4452 58.0577 62.888C57.9121 63.7979 57.712 65.1309 57.4617 66.7414C57.2115 68.3518 56.8885 70.3126 56.5519 72.4599C56.3744 73.5336 56.1925 74.6618 56.0014 75.831C55.8103 77.0002 55.5738 78.2058 55.4737 79.4705C55.4123 80.185 55.4123 80.9034 55.4737 81.6178C56.4609 86.0353 57.3844 89.9341 58.0805 92.7274C58.4308 94.0922 58.7128 95.2205 58.9175 96.0166C59.0131 96.3851 59.0904 96.6763 59.1496 96.8992C59.1849 97.0007 59.2078 97.1061 59.2178 97.2131C59.171 97.1171 59.1344 97.0165 59.1086 96.9128L58.8357 96.0393C58.6082 95.2751 58.2897 94.1605 57.9258 92.7683C57.1888 89.9841 56.238 86.0853 55.2462 81.6724C55.1849 80.9458 55.1849 80.2153 55.2462 79.4887C55.3463 78.224 55.5829 77.0138 55.7785 75.8492C55.9741 74.6846 56.1652 73.5745 56.3426 72.4781C56.7065 70.3354 57.0341 68.3837 57.3071 66.7687C57.58 65.1536 57.8166 63.8571 57.9804 62.9244C58.0623 62.4922 58.126 62.1419 58.176 61.8826C58.1834 61.7425 58.2063 61.6037 58.2442 61.4686Z" fill="#263238"/>
<path id="Vector_106" d="M24.4795 58.8983L26.8907 91.1989C26.8907 91.1989 31.4036 70.6221 31.5856 65.3584C31.7239 62.3395 31.4173 59.3167 30.6757 56.3871C30.6757 56.3871 26.2992 55.6819 24.4795 58.8983Z" fill="#455A64"/>
<path id="Vector_107" d="M23.087 56.851C23.385 56.9431 23.6596 57.0983 23.8923 57.3059C24.1639 57.5231 24.3675 57.8136 24.4791 58.143C24.6074 58.5322 24.6884 58.9354 24.7203 59.344C24.7976 60.1993 24.7931 60.9727 24.7931 61.5323C24.8126 61.836 24.8004 62.1409 24.7567 62.4421C24.6664 62.1474 24.6219 61.8405 24.6247 61.5323C24.5792 60.9772 24.561 60.2038 24.4837 59.3622C24.4064 58.5206 24.2153 57.7654 23.8058 57.4151C23.3964 57.0648 23.0643 56.8873 23.087 56.851Z" fill="#263238"/>
<path id="Vector_108" d="M39.8198 58.0201C39.8198 58.0201 39.7152 57.9337 39.5469 57.738C39.3786 57.5424 39.142 57.2831 38.8463 56.8964H38.9828C38.6552 57.8472 38.1548 59.2257 37.5861 60.7725L37.5042 60.9908L37.3814 60.8043C37.3131 60.6997 37.2312 60.595 37.1676 60.4859C36.7861 59.8017 36.4707 59.0826 36.2258 58.3386C35.9847 57.6607 35.7709 57.0511 35.6162 56.5188C35.4615 55.9865 35.3069 55.6089 35.2022 55.3132C35.1395 55.1665 35.0908 55.0142 35.0566 54.8583C35.1553 54.9832 35.2336 55.1229 35.2887 55.2723C35.4206 55.5452 35.5844 55.9547 35.7754 56.4597C35.9665 56.9646 36.1894 57.5834 36.4306 58.2385C36.6838 58.964 36.9972 59.667 37.3677 60.3403C37.4314 60.4449 37.5042 60.5405 37.5679 60.636L37.3632 60.6678C37.9409 59.1256 38.4641 57.7562 38.8372 56.8191L38.8872 56.6871L38.9737 56.8009C39.2834 57.1874 39.5661 57.5947 39.8198 58.0201Z" fill="#263238"/>
<path id="Vector_109" d="M50.2834 55.8C50.2485 55.9502 50.195 56.0953 50.1242 56.2322C50.0059 56.5052 49.8239 56.8919 49.5965 57.3696C49.369 57.8473 49.0869 58.4114 48.7548 59.0347C48.4062 59.7181 48.0079 60.375 47.5629 61L47.4128 61.2047L47.3536 60.9545L47.3309 60.8499C46.9578 59.2621 46.6348 57.82 46.421 56.7554L46.5666 56.7918C46.2496 57.0946 45.9002 57.3616 45.5248 57.588C45.2791 57.7654 45.1654 57.8928 45.1517 57.8791C45.1381 57.8655 45.2291 57.7244 45.4656 57.5152C45.813 57.2639 46.1386 56.9838 46.4392 56.6781L46.5438 56.5552L46.5893 56.7145C46.8532 57.7563 47.2035 59.1939 47.5765 60.7816V60.8862L47.3673 60.8408C47.8034 60.2251 48.1999 59.5823 48.5546 58.9164L49.4372 57.2831L50.0332 56.1776C50.1005 56.0419 50.1846 55.915 50.2834 55.8Z" fill="#263238"/>
<path id="Vector_110" d="M40.0472 57.8928C40.0472 57.8928 38.7689 74.4981 38.4367 76.6363C38.1046 78.7745 39.242 112.244 39.242 112.244L46.7212 112.726C46.7212 112.726 46.7985 85.089 46.7212 84.8979C46.6438 84.7069 46.7576 65.3857 46.7576 65.3857L45.0606 57.6881L42.1672 61.1138L40.0472 57.8928Z" fill="white"/>
<path id="Vector_111" d="M48.3951 73.6792C48.3951 73.7156 48.1312 73.7748 47.9993 74.1342C47.9609 74.2306 47.9439 74.3342 47.9494 74.4379C47.9549 74.5416 47.9828 74.6428 48.0311 74.7347C48.1005 74.8358 48.1991 74.9135 48.3136 74.9574C48.4282 75.0012 48.5534 75.0093 48.6726 74.9804C48.7941 74.9665 48.9084 74.9154 48.9997 74.8339C49.0909 74.7524 49.1547 74.6446 49.1821 74.5254C49.1953 74.4224 49.1858 74.3177 49.1544 74.2187C49.123 74.1197 49.0703 74.0288 49.0001 73.9522C48.8554 73.8064 48.6698 73.7081 48.4679 73.6701C48.4679 73.6701 48.527 73.6246 48.6498 73.6246C48.8212 73.6429 48.9814 73.7182 49.1048 73.8385C49.2041 73.9291 49.2809 74.0417 49.3291 74.1673C49.3773 74.2929 49.3955 74.428 49.3823 74.5618C49.3454 74.7263 49.261 74.8763 49.1395 74.9932C49.018 75.1101 48.8649 75.1887 48.6991 75.2193C48.5333 75.2498 48.3622 75.2309 48.207 75.165C48.0518 75.0991 47.9195 74.989 47.8264 74.8484C47.7653 74.7279 47.7334 74.5946 47.7334 74.4594C47.7334 74.3243 47.7653 74.191 47.8264 74.0705C47.901 73.9101 48.0299 73.7812 48.1904 73.7065C48.3223 73.6565 48.3905 73.6656 48.3951 73.6792Z" fill="#263238"/>
<path id="Vector_112" d="M48.395 88.1735C48.395 88.2099 48.1312 88.2736 47.9992 88.6284C47.9609 88.7249 47.9439 88.8285 47.9494 88.9322C47.9548 89.0358 47.9827 89.1371 48.0311 89.2289C48.1045 89.3256 48.2034 89.4001 48.3166 89.4438C48.4299 89.4876 48.5531 89.4991 48.6725 89.4769C48.7919 89.4547 48.9028 89.3998 48.9928 89.3182C49.0827 89.2367 49.1483 89.1317 49.1821 89.0151C49.1956 88.9121 49.1863 88.8073 49.1548 88.7083C49.1234 88.6092 49.0706 88.5183 49.0001 88.4419C48.7453 88.1553 48.4633 88.1962 48.4678 88.1553C48.4724 88.1143 48.527 88.1098 48.6498 88.1143C48.8208 88.1303 48.9813 88.2041 49.1047 88.3236C49.2032 88.4149 49.2795 88.5276 49.3276 88.653C49.3757 88.7784 49.3944 88.9132 49.3823 89.047C49.3454 89.2115 49.2609 89.3615 49.1395 89.4784C49.018 89.5953 48.8648 89.6739 48.699 89.7044C48.5332 89.735 48.3621 89.7161 48.207 89.6502C48.0518 89.5842 47.9195 89.4741 47.8264 89.3336C47.7653 89.2138 47.7334 89.0813 47.7334 88.9469C47.7334 88.8124 47.7653 88.6799 47.8264 88.5602C47.901 88.3998 48.0299 88.2709 48.1903 88.1962C48.3222 88.1507 48.3905 88.1644 48.395 88.1735Z" fill="#263238"/>
<path id="Vector_113" d="M49.0457 105.707C49.0457 105.743 48.7819 105.807 48.6499 106.162C48.6116 106.258 48.5945 106.362 48.6 106.465C48.6055 106.569 48.6334 106.67 48.6818 106.762C48.7552 106.859 48.8541 106.933 48.9673 106.977C49.0806 107.021 49.2038 107.032 49.3232 107.01C49.4426 106.988 49.5535 106.933 49.6435 106.851C49.7334 106.77 49.799 106.665 49.8328 106.548C49.8463 106.445 49.837 106.341 49.8055 106.241C49.7741 106.142 49.7213 106.051 49.6508 105.975C49.396 105.688 49.114 105.729 49.1185 105.688C49.1231 105.648 49.1777 105.643 49.3005 105.648C49.4719 105.662 49.6329 105.736 49.7554 105.857C49.8556 105.947 49.9333 106.059 49.9823 106.185C50.0312 106.311 50.0501 106.446 50.0375 106.58C50.0014 106.746 49.9172 106.897 49.7953 107.015C49.6735 107.133 49.5195 107.212 49.3527 107.243C49.1859 107.274 49.0138 107.254 48.858 107.187C48.7022 107.12 48.5697 107.009 48.4771 106.867C48.417 106.747 48.3857 106.614 48.3857 106.48C48.3857 106.346 48.417 106.213 48.4771 106.093C48.5517 105.933 48.6806 105.804 48.841 105.729C48.9866 105.684 49.0457 105.698 49.0457 105.707Z" fill="#263238"/>
<g id="Group_6" opacity="0.3">
<path id="Vector_114" d="M58.7531 73.5471C58.5893 72.2232 58.239 70.9267 58.1526 69.5937C58.0434 68.0014 58.3209 66.4091 58.007 64.8214C56.9243 66.6412 56.6786 68.8112 56.6741 70.9176C56.6695 73.0239 56.8651 75.1394 56.5649 77.223C56.3601 78.6515 55.8961 80.3666 55.7232 81.7997C55.5503 83.2327 55.9598 84.0198 56.3783 86.1716C57.8205 82.0999 59.2808 77.8372 58.7531 73.5471Z" fill="black"/>
</g>
<path id="Vector_115" d="M56.2292 70.1625C57.0883 72.618 57.3665 75.2392 57.0421 77.8204C56.7177 80.4016 55.7994 82.8724 54.3594 85.0389" fill="#FF725E"/>
<path id="Vector_116" d="M54.3588 85.039C54.3179 85.0117 54.8138 84.2929 55.4143 83.0281C55.7605 82.2911 56.0554 81.5311 56.2969 80.7534C56.5827 79.7933 56.7926 78.8122 56.9247 77.8191C57.041 76.8243 57.0806 75.822 57.0429 74.8211C57.0039 74.0041 56.9081 73.1908 56.7563 72.3871C56.4879 71.0223 56.1831 70.1943 56.2286 70.1761C56.3275 70.3567 56.4068 70.5474 56.4652 70.7448C56.5334 70.9313 56.6108 71.1588 56.6835 71.4272C56.7563 71.6956 56.8564 72.005 56.9201 72.3371C57.0972 73.1475 57.2113 73.9703 57.2613 74.7983C57.382 76.8295 57.126 78.8655 56.5061 80.8035C56.2499 81.5843 55.9351 82.3447 55.5644 83.0782C55.4143 83.4012 55.2459 83.6742 55.1095 83.9153C54.9911 84.125 54.8621 84.3285 54.7228 84.5249C54.62 84.7087 54.498 84.881 54.3588 85.039Z" fill="#263238"/>
<path id="Vector_117" d="M33.6321 92.1087C33.3127 91.911 33.0193 91.6741 32.7586 91.4036C31.4292 90.171 30.2627 88.7736 29.2875 87.2454C29.065 86.9396 28.883 86.6062 28.7461 86.2537C28.998 86.5367 29.2248 86.8412 29.424 87.1635C29.8288 87.7231 30.3975 88.4874 31.0708 89.2972C31.7441 90.107 32.3947 90.7985 32.8906 91.2989C33.16 91.5476 33.408 91.8185 33.6321 92.1087Z" fill="#263238"/>
<path id="Vector_118" d="M30.6395 92.5864C30.4471 92.3249 30.2938 92.0367 30.1845 91.7311C29.5441 90.2987 29.0856 88.7917 28.8197 87.2454C28.7416 86.9286 28.7095 86.6023 28.7242 86.2764C28.7924 86.2764 29.0563 87.7185 29.5885 89.4609C30.1208 91.2033 30.7031 92.5636 30.6395 92.5864Z" fill="#263238"/>
<path id="Vector_119" d="M45.2702 83.9198C45.2702 83.9516 44.9927 83.7742 44.5423 83.5968C43.9544 83.3673 43.3228 83.2715 42.6933 83.3164C42.0638 83.3612 41.4522 83.5456 40.9028 83.8561C40.4843 84.0972 40.2613 84.311 40.2295 84.2746C40.3766 84.0431 40.5781 83.851 40.8164 83.7151C41.3694 83.346 42.0092 83.1281 42.6725 83.0827C43.3349 83.0318 43.9989 83.1574 44.5969 83.4467C44.8567 83.5469 45.0879 83.7094 45.2702 83.9198Z" fill="#263238"/>
<path id="Vector_120" d="M20.0111 82.8416C20.0111 82.8416 16.6673 86.4811 16.9221 89.0196C17.1768 91.5582 18.3597 97.1448 21.4714 96.9765C24.5832 96.8082 27.4357 91.772 27.8406 87.7776C28.2455 83.7833 27.8406 74.3843 27.8406 74.3843L23.3776 75.3897L20.0111 82.8416Z" fill="#FFBE9D"/>
<path id="Vector_121" d="M13.3704 59.5488C15.6815 62.5013 21.4092 69.6211 21.4092 69.6211L26.8002 68.2563C26.9927 68.2082 27.1662 68.1029 27.2977 67.9543C27.4293 67.8057 27.5128 67.6207 27.5372 67.4237C27.5531 67.2949 27.5431 67.1642 27.508 67.0392C27.4728 66.9142 27.4132 66.7975 27.3324 66.6958L19.7759 57.1422C19.494 56.7837 19.1052 56.5244 18.6659 56.4017C18.2267 56.279 17.7598 56.2993 17.3329 56.4597L13.8799 57.7563C13.7105 57.8203 13.5584 57.9231 13.4358 58.0565C13.3133 58.1899 13.2236 58.3501 13.1741 58.5243C13.1246 58.6986 13.1165 58.882 13.1506 59.0599C13.1847 59.2377 13.26 59.4052 13.3704 59.5488Z" fill="#263238"/>
<path id="Vector_122" d="M26.9627 67.0461C26.7769 66.8949 26.6034 66.7291 26.444 66.5503C26.121 66.2136 25.6616 65.7268 25.1111 65.1127C24.0101 63.8798 22.5361 62.1283 21.0166 60.1083C20.639 59.6034 20.2751 59.1075 19.9293 58.6207C19.6435 58.1443 19.2587 57.7347 18.8011 57.4197C18.5788 57.3163 18.3366 57.2627 18.0914 57.2627C17.8462 57.2627 17.604 57.3163 17.3817 57.4197L16.1079 57.8746L14.2472 58.4888C14.0233 58.5754 13.7918 58.6409 13.5557 58.6844C13.7682 58.574 13.9887 58.4797 14.2153 58.4023L16.0351 57.7154L17.3044 57.2604C17.5478 57.1695 17.8014 57.1084 18.0595 57.0785C18.3479 57.0546 18.637 57.1147 18.8921 57.2513C19.3845 57.5754 19.7992 58.0041 20.1068 58.507L21.1941 59.9901C22.7045 62.0054 24.1512 63.766 25.2203 65.0217C25.7343 65.6267 26.1665 66.1272 26.4941 66.5093C26.6644 66.6755 26.8211 66.855 26.9627 67.0461Z" fill="#455A64"/>
<path id="Vector_123" d="M16.4318 58.557C16.5127 58.5172 16.6036 58.5023 16.693 58.5143C16.7824 58.5262 16.8662 58.5645 16.9338 58.6241C17.0014 58.6838 17.0497 58.7622 17.0726 58.8494C17.0956 58.9366 17.0921 59.0287 17.0626 59.1139C17.0331 59.1991 16.979 59.2736 16.9071 59.328C16.8352 59.3824 16.7487 59.4142 16.6587 59.4194C16.5687 59.4245 16.4792 59.4028 16.4015 59.357C16.3239 59.3112 16.2616 59.2434 16.2225 59.1621C16.1707 59.054 16.1635 58.9298 16.2027 58.8165C16.2419 58.7032 16.3242 58.6099 16.4318 58.557Z" fill="white"/>
<path id="Vector_124" d="M21.0535 65.0126L18.5605 65.4266L17.6506 66.2455C17.522 66.3565 17.423 66.4979 17.3627 66.6567C17.3023 66.8155 17.2824 66.9869 17.3048 67.1554C17.3757 67.6037 17.5712 68.023 17.869 68.3655C18.1901 68.7641 18.5531 69.1271 18.9517 69.4483C18.9517 69.4483 18.0782 70.8677 19.434 71.5865C19.434 71.5865 19.343 73.0559 20.7669 73.206C20.7669 73.206 21.1809 74.6027 22.2546 74.68L23.3601 75.7764L23.0234 76.4452L27.9686 76.5999C27.9937 75.2807 27.9283 73.9613 27.773 72.651C27.689 72.1178 27.5596 71.5927 27.3863 71.0815C27.6365 69.6894 26.5947 69.1071 26.4354 69.2071C26.4354 69.2071 28.7966 68.5884 28.4963 66.9643L26.2216 67.5466L22.068 68.411L24.734 66.6322C24.8661 66.5109 24.9823 66.3733 25.0797 66.2227C25.3072 65.8633 25.6439 65.2128 25.3572 64.8306C25.2344 64.6714 21.9589 66.0408 21.9589 66.0408L19.9298 67.9106L19.2929 67.0007C19.2929 67.0007 21.3811 66.573 21.0535 65.0126Z" fill="#FFBE9D"/>
<path id="Vector_125" d="M26.7544 69.2253C26.7544 69.2981 25.8764 69.4209 24.8255 69.7303C23.7746 70.0396 22.9557 70.399 22.9238 70.3353C23.4697 69.9408 24.0881 69.6579 24.7436 69.5028C25.3885 69.2765 26.0723 69.1821 26.7544 69.2253Z" fill="#EB996E"/>
<path id="Vector_126" d="M25.612 73.5063C25.9093 73.2359 26.1846 72.9423 26.4354 72.6282L26.5218 72.5145L26.581 72.6464C26.6627 72.8205 26.8074 72.957 26.9859 73.0286C27.0796 73.0755 27.1841 73.0968 27.2887 73.0904C27.3934 73.084 27.4945 73.0501 27.5818 72.9922C27.6196 72.9629 27.6476 72.923 27.6623 72.8775C27.6769 72.832 27.6774 72.7832 27.6637 72.7374L27.5955 72.328C27.5613 72.0435 27.5051 71.7621 27.4272 71.4863C27.3898 71.3693 27.3156 71.2674 27.2155 71.1961C27.1155 71.1247 26.995 71.0877 26.8721 71.0905C26.615 71.1017 26.3608 71.1492 26.1169 71.2316L24.784 71.5591C24.3783 71.6778 23.9626 71.7585 23.542 71.8002C23.9297 71.6304 24.3316 71.4949 24.743 71.3954L26.0532 71.0223C26.3188 70.9242 26.5983 70.869 26.8812 70.8585C27.0431 70.862 27.2007 70.9109 27.3362 70.9996C27.4737 71.1023 27.5781 71.243 27.6364 71.4045C27.7187 71.6951 27.778 71.9917 27.8139 72.2916C27.8139 72.4326 27.8548 72.5736 27.8775 72.7101C27.8943 72.795 27.8865 72.8828 27.855 72.9634C27.8236 73.044 27.7699 73.1139 27.7001 73.1651C27.5814 73.2441 27.4438 73.2899 27.3014 73.2979C27.1591 73.3059 27.0171 73.2758 26.8903 73.2106C26.6822 73.1055 26.5202 72.9273 26.4354 72.7101H26.5764C26.386 72.9486 26.1623 73.1585 25.9122 73.3334C25.7257 73.4562 25.6211 73.5199 25.612 73.5063Z" fill="#EB996E"/>
<path id="Vector_127" d="M21.2399 66.6321C20.9107 67.1458 20.5394 67.6312 20.1298 68.0833C19.7844 68.5859 19.3962 69.0577 18.9697 69.4936C19.2009 68.9279 19.5254 68.4051 19.9296 67.9468C20.2853 67.4346 20.7289 66.9895 21.2399 66.6321Z" fill="#EB996E"/>
<path id="Vector_128" d="M22.2682 68.3473C22.2682 68.4155 21.7496 68.5793 21.3583 69.1116C21.1538 69.4495 21.0005 69.8159 20.9034 70.1989C20.8716 70.1989 20.8261 70.0624 20.8352 69.8258C20.8632 69.5175 20.9739 69.2224 21.1557 68.9718C21.3374 68.7212 21.5835 68.5243 21.8679 68.4018C22.1135 68.32 22.2591 68.32 22.2682 68.3473Z" fill="#EB996E"/>
<path id="Vector_129" d="M48.9549 31.6974C48.5727 30.6966 48.7228 29.582 48.5727 28.5129C48.2452 26.179 46.3663 24.3047 44.1917 23.3903C42.1672 22.5441 39.6969 22.726 37.2584 23.5085C35.5646 24.0201 34.0514 25.0031 32.8956 26.3428C32.159 27.2514 31.6507 28.3232 31.4133 29.4684C31.1758 30.6137 31.2161 31.7992 31.5307 32.9258L43.4774 31.2015C44.592 32.1114 45.7521 33.0713 47.0942 33.59C47.4851 33.7641 47.9148 33.8331 48.3407 33.7901C48.549 33.7615 48.745 33.6746 48.906 33.5393C49.067 33.4041 49.1864 33.2261 49.2506 33.0258C49.3871 32.5754 49.1232 32.1342 48.9549 31.6974Z" fill="#263238"/>
<path id="Vector_130" d="M41.5301 22.7943C44.146 22.3394 46.4435 23.363 48.6454 24.8416C50.8442 26.3609 52.5254 28.5168 53.4632 31.0196C54.4686 33.6264 54.7233 37.3888 53.9181 40.0774C53.5709 41.3398 52.9238 42.4996 52.0319 43.4581C51.14 44.4165 50.0297 45.1452 48.7955 45.5822C45.2015 46.856 41.0616 46.6968 38.0044 44.3948C34.9472 42.0928 33.2275 38.285 33.0865 34.4726C32.9524 31.8263 33.6543 29.205 35.0928 26.9798C35.8177 25.8794 36.7612 24.94 37.8648 24.2199C38.9683 23.4999 40.2083 23.0146 41.5074 22.7943" fill="#263238"/>
<path id="Vector_131" d="M37.377 51.2416L37.4725 53.3707L42.1675 61.6733L48.9915 52.9385L49.2236 31.1015C49.2143 30.6135 49.0222 30.1468 48.6852 29.7937C48.3481 29.4407 47.8908 29.2271 47.4038 29.1953L36.9812 26.9706C33.6601 26.7477 31.6129 30.9013 31.5219 34.2496C31.4309 37.9483 31.4582 42.4658 31.9769 45.2C33.0642 50.7002 37.3315 51.2461 37.3315 51.2461" fill="#FFBE9D"/>
<path id="Vector_132" d="M33.041 38.831C33.0446 39.0164 33.1211 39.193 33.2539 39.3224C33.3868 39.4518 33.5653 39.5237 33.7507 39.5225C33.8415 39.5261 33.932 39.5116 34.0171 39.4798C34.1022 39.448 34.18 39.3996 34.2461 39.3373C34.3122 39.275 34.3652 39.2001 34.402 39.1171C34.4388 39.0341 34.4587 38.9445 34.4604 38.8537C34.4534 38.6699 34.3757 38.4958 34.2435 38.3678C34.1112 38.2398 33.9347 38.1678 33.7507 38.1668C33.6602 38.1625 33.5697 38.1764 33.4847 38.2077C33.3996 38.239 33.3217 38.287 33.2556 38.349C33.1894 38.4109 33.1363 38.4854 33.0995 38.5682C33.0626 38.651 33.0427 38.7404 33.041 38.831Z" fill="#263238"/>
<path id="Vector_133" d="M32.6136 36.3789C32.7045 36.4699 33.2277 36.0513 33.9784 36.024C34.729 35.9967 35.3159 36.3561 35.3932 36.2606C35.4706 36.165 35.3386 36.0559 35.0839 35.8875C34.7463 35.6687 34.3483 35.5621 33.9465 35.5827C33.5498 35.5954 33.1674 35.734 32.8547 35.9785C32.6409 36.1514 32.5681 36.3379 32.6136 36.3789Z" fill="#263238"/>
<path id="Vector_134" d="M39.9697 38.699C39.9745 38.8849 40.052 39.0614 40.1855 39.1907C40.3191 39.32 40.4981 39.3918 40.684 39.3905C40.7741 39.3942 40.8641 39.3798 40.9486 39.3482C41.0331 39.3166 41.1105 39.2685 41.1762 39.2067C41.2419 39.1448 41.2945 39.0704 41.3311 38.988C41.3677 38.9055 41.3874 38.8165 41.3891 38.7263C41.3855 38.5409 41.309 38.3643 41.1762 38.2349C41.0434 38.1055 40.8649 38.0336 40.6794 38.0348C40.5889 38.0305 40.4984 38.0445 40.4134 38.0758C40.3283 38.107 40.2504 38.1551 40.1843 38.217C40.1181 38.2789 40.065 38.3535 40.0282 38.4363C39.9913 38.5191 39.9715 38.6084 39.9697 38.699Z" fill="#263238"/>
<path id="Vector_135" d="M39.8655 36.2014C39.9565 36.2924 40.4796 35.8738 41.2303 35.8465C41.9809 35.8192 42.5951 36.1832 42.6497 36.0831C42.7043 35.983 42.5951 35.8784 42.3403 35.71C42.0028 35.4912 41.6047 35.3846 41.203 35.4052C40.8063 35.4179 40.4239 35.5565 40.1111 35.801C39.8928 35.9921 39.82 36.1513 39.8655 36.2014Z" fill="#263238"/>
<path id="Vector_136" d="M37.5636 42.0064C37.1571 41.8957 36.7384 41.8361 36.3171 41.829C36.1215 41.829 35.935 41.7835 35.8986 41.6516C35.8733 41.4508 35.9114 41.2472 36.0077 41.0693L36.5264 39.5634C37.2497 37.4207 37.7638 35.6601 37.6774 35.6328C37.5909 35.6055 36.9358 37.316 36.2125 39.4633L35.7166 40.9783C35.6041 41.2184 35.5784 41.4901 35.6438 41.7471C35.6757 41.8143 35.7219 41.8735 35.7794 41.9207C35.8368 41.9679 35.9039 42.0018 35.9759 42.0201C36.0848 42.045 36.1964 42.0557 36.308 42.0519C36.7267 42.0923 37.1489 42.077 37.5636 42.0064Z" fill="#263238"/>
<path id="Vector_137" d="M37.376 51.2417C39.989 51.0664 42.5143 50.2288 44.7141 48.8077C44.7141 48.8077 42.9945 52.7066 37.4351 52.3972L37.376 51.2417Z" fill="#EB996E"/>
<path id="Vector_138" d="M38.1496 43.6486C38.2883 43.4963 38.4631 43.3814 38.6579 43.3146C38.8528 43.2478 39.0613 43.2312 39.2642 43.2665C39.4097 43.2801 39.5497 43.3286 39.6724 43.4078C39.7951 43.487 39.897 43.5945 39.9694 43.7214C40.0744 43.875 40.1361 44.0541 40.1481 44.2398C40.1602 44.4255 40.122 44.611 40.0376 44.7769C39.9214 44.9203 39.7643 45.0249 39.5871 45.0769C39.41 45.1289 39.2212 45.1258 39.0459 45.068C38.7154 44.9926 38.405 44.8467 38.136 44.6404C38.0492 44.5565 37.9891 44.4489 37.9631 44.331C37.9449 44.2096 37.9543 44.0856 37.9905 43.9683C38.0268 43.8509 38.0889 43.7432 38.1724 43.6532" fill="#EB996E"/>
<path id="Vector_139" d="M39.9114 34.4135C39.9933 34.6182 40.753 34.4908 41.6492 34.5681C42.5455 34.6455 43.287 34.8593 43.3962 34.6682C43.4462 34.5772 43.3143 34.3862 43.014 34.2133C42.6174 33.976 42.1697 33.8371 41.7084 33.8084C41.2429 33.7697 40.7749 33.843 40.3436 34.0222C40.0342 34.1451 39.875 34.3316 39.9114 34.4135Z" fill="#263238"/>
<path id="Vector_140" d="M32.7089 33.0304C32.85 33.1988 33.3686 32.9986 34.0009 32.9667C34.6333 32.9349 35.1747 33.0395 35.2884 32.853C35.3385 32.7666 35.2475 32.5937 35.0109 32.439C34.6886 32.2538 34.3186 32.1683 33.9477 32.1934C33.5768 32.2185 33.2217 32.353 32.9273 32.58C32.7135 32.7666 32.668 32.9667 32.7089 33.0304Z" fill="#263238"/>
<path id="Vector_141" d="M50.8652 30.0916C49.787 26.9071 45.0739 22.5806 41.7301 22.8763L36.4482 26.1792C36.6389 27.0876 37.0714 27.9278 37.7 28.6108C38.3286 29.2939 39.13 29.7945 40.0195 30.0598C40.9703 30.3282 42.1077 30.3873 42.6854 31.188C43.2632 31.9887 42.963 33.2216 43.5134 34.0678C44.2732 35.2415 46.2931 35.146 46.8754 36.4198C47.1256 36.9748 47.0119 37.6436 47.2758 38.1986C47.6261 38.9311 49.5186 39.8364 50.292 39.5634C51.0654 39.2905 51.0381 37.9803 51.2792 37.2887C51.5835 36.502 51.6076 35.6345 51.3475 34.8321C50.9835 33.2807 51.3839 31.602 50.8652 30.0916Z" fill="#263238"/>
<path id="Vector_142" d="M48.0176 40.273C48.0176 39.859 48.4452 38.8718 48.8501 38.7899C49.9283 38.5807 51.8891 38.5943 52.0347 41.3558C52.203 45.1272 48.3952 44.513 48.3679 44.4084C48.3406 44.3038 48.0676 41.697 48.0176 40.273Z" fill="#FFBE9D"/>
<path id="Vector_143" d="M49.4372 42.9254C49.4372 42.9254 49.5054 42.9709 49.6146 43.0164C49.6932 43.049 49.7775 43.0658 49.8626 43.0658C49.9477 43.0658 50.0319 43.049 50.1105 43.0164C50.5017 42.8526 50.8066 42.2066 50.7975 41.5287C50.7944 41.2045 50.7166 40.8853 50.57 40.5961C50.5307 40.4796 50.4632 40.3746 50.3735 40.2904C50.2838 40.2063 50.1747 40.1457 50.0559 40.1139C49.9794 40.096 49.899 40.1058 49.829 40.1416C49.759 40.1774 49.704 40.2369 49.6738 40.3095C49.6283 40.4187 49.6738 40.4915 49.6374 40.496C49.601 40.5006 49.5509 40.4369 49.5782 40.2822C49.5925 40.1865 49.641 40.0992 49.7147 40.0365C49.8156 39.9544 49.9446 39.9152 50.0741 39.9273C50.2304 39.9503 50.378 40.0135 50.5025 40.1108C50.6269 40.2082 50.7239 40.3362 50.7838 40.4824C50.9585 40.8024 51.0536 41.1597 51.0613 41.5242C51.0613 42.2839 50.711 43.0118 50.1514 43.1938C50.0516 43.2277 49.9454 43.2387 49.8406 43.2261C49.7359 43.2135 49.6354 43.1776 49.5464 43.121C49.4463 43.0164 49.4235 42.9345 49.4372 42.9254Z" fill="#EB996E"/>
<path id="Vector_144" d="M54.2863 35.114C54.4004 34.7478 54.4497 34.3644 54.4319 33.9812C54.442 32.1161 53.827 30.3014 52.6849 28.8268C52.4677 28.5121 52.1985 28.2367 51.8888 28.0125C51.816 28.0579 53.0807 29.3136 53.7449 31.338C54.1187 32.5613 54.3013 33.835 54.2863 35.114Z" fill="#FF725E"/>
<path id="Vector_145" d="M37.5499 25.0418C37.1996 26.5749 34.8658 28.5402 33.8376 29.7367C31.8814 32.0114 31.5129 32.3481 31.5266 39.2222C30.5144 37.0883 29.9788 34.7597 29.957 32.3981C30.0028 30.39 30.7811 28.4678 32.1453 26.9935C32.8328 26.2711 33.6793 25.719 34.6175 25.381C35.5556 25.043 36.5597 24.9284 37.5499 25.0463" fill="#263238"/>
<path id="Vector_146" d="M52.79 30.0415C52.5838 30.1168 52.3703 30.1701 52.153 30.2007C51.9438 30.2462 51.6981 30.2963 51.3887 30.3327C51.0794 30.3691 50.7473 30.4328 50.3651 30.451C49.4762 30.516 48.5836 30.516 47.6947 30.451C46.6035 30.3721 45.5203 30.2062 44.4555 29.9551C43.3941 29.6889 42.3564 29.3359 41.3528 28.8996C40.5356 28.5404 39.7464 28.1207 38.9917 27.644C38.6596 27.4529 38.3866 27.2436 38.141 27.0708C37.927 26.93 37.7205 26.7781 37.5222 26.6158C37.3453 26.4773 37.1795 26.3252 37.0264 26.1609C37.2205 26.2653 37.4047 26.3871 37.5768 26.5248C37.7452 26.6522 37.9544 26.8023 38.2092 26.9798C38.464 27.1572 38.7415 27.3392 39.0736 27.5212C39.832 27.9755 40.6209 28.3768 41.4347 28.7222C42.4266 29.1534 43.4502 29.5078 44.4964 29.7822C45.544 30.0299 46.6084 30.2002 47.681 30.2917C48.5621 30.3577 49.4466 30.3653 50.3287 30.3145C50.7063 30.3145 51.0475 30.2553 51.3433 30.2326C51.639 30.2098 51.8983 30.1689 52.1075 30.137C52.3321 30.0868 52.5603 30.0549 52.79 30.0415Z" fill="#455A64"/>
<path id="Vector_147" d="M53.1808 32.7484C53.0343 32.8027 52.8814 32.8378 52.7259 32.853C52.3244 32.9285 51.9188 32.9801 51.5112 33.0077C48.7989 33.2067 46.0832 32.6708 43.6499 31.4564C43.2824 31.2767 42.9254 31.0762 42.5807 30.8559C42.4479 30.7831 42.3255 30.6928 42.2168 30.5874C42.2168 30.5556 42.7855 30.8877 43.7181 31.3153C46.1548 32.4354 48.8226 32.9609 51.5021 32.8485C52.5439 32.8075 53.1762 32.7074 53.1808 32.7484Z" fill="#455A64"/>
<path id="Vector_148" d="M54.1359 32.8394C54.2009 33.0231 54.2437 33.2141 54.2632 33.408C54.3224 33.7811 54.3815 34.3179 54.4179 34.9867C54.4589 35.7701 54.4589 36.5552 54.4179 37.3387C54.3821 38.3013 54.2526 39.2582 54.0312 40.1957C53.5871 41.9186 52.5517 43.4306 51.106 44.4676C50.6672 44.7673 50.1974 45.0189 49.7048 45.2182C49.5297 45.3029 49.3448 45.3656 49.1543 45.4047C49.3179 45.3011 49.4898 45.2113 49.6684 45.1363C50.1381 44.9088 50.5871 44.6409 51.0104 44.3356C51.6311 43.8766 52.1721 43.3187 52.6118 42.6842C53.1653 41.9183 53.5711 41.0558 53.8083 40.1411C54.0235 39.2159 54.1574 38.2736 54.2087 37.325C54.2632 36.447 54.2723 35.6554 54.2587 34.9912C54.2451 34.327 54.2132 33.7902 54.1768 33.4217C54.1458 33.2292 54.1321 33.0343 54.1359 32.8394Z" fill="#455A64"/>
<path id="Vector_149" d="M39.0916 45.059C39.2958 45.061 39.4974 45.0126 39.6784 44.918C39.7671 44.8635 39.843 44.7906 39.901 44.7043C39.9591 44.618 39.998 44.5202 40.0151 44.4176C40.0355 44.2918 40.0281 44.1632 39.9936 44.0406C39.959 43.918 39.898 43.8044 39.8149 43.7079C39.638 43.5182 39.3958 43.4028 39.1371 43.3849C38.9192 43.3718 38.702 43.419 38.5092 43.5213C38.1726 43.6988 38.0543 43.9171 37.9997 43.8944C37.9451 43.8716 38.068 43.6214 38.4228 43.3758C38.6363 43.2326 38.8892 43.1594 39.1462 43.1665C39.3061 43.1701 39.4636 43.2063 39.609 43.2728C39.7545 43.3393 39.8849 43.4347 39.9923 43.5532C40.0997 43.6761 40.177 43.8223 40.218 43.9802C40.2591 44.1381 40.2628 44.3034 40.2289 44.4631C40.204 44.5918 40.15 44.7132 40.0712 44.818C39.9924 44.9229 39.8907 45.0084 39.774 45.0681C39.3463 45.2501 39.0688 45.0772 39.0916 45.059Z" fill="#263238"/>
<path id="Vector_150" d="M62.3623 76.1222L64.3913 71.7958C64.728 70.431 66.1019 69.976 67.7852 69.8668L69.564 69.1389C69.564 69.1389 70.8605 67.2691 72.0616 67.3192C72.1557 67.3224 72.2466 67.3548 72.3215 67.4118C72.3965 67.4688 72.4519 67.5478 72.4801 67.6376C72.5004 67.6988 72.5064 67.7638 72.4978 67.8277C72.4891 67.8915 72.4659 67.9526 72.4301 68.0061L70.9697 70.2535L69.8051 70.8267C69.8051 70.8267 70.8969 71.0906 71.3291 70.6857C71.7613 70.2808 73.2217 69.1253 73.2217 69.1253C73.2217 69.1253 74.3363 67.119 75.783 67.2691C75.8263 67.273 75.868 67.2876 75.9044 67.3116C75.9407 67.3355 75.9706 67.3681 75.9913 67.4063C76.0121 67.4446 76.023 67.4874 76.0231 67.531C76.0233 67.5745 76.0127 67.6174 75.9922 67.6558L74.8822 69.7986C74.8822 69.7986 76.9067 66.7551 78.8356 67.8924L76.6974 70.2171C76.6974 70.2171 79.8001 68.4565 81.0375 69.9305L73.1853 73.1742L68.6586 74.0614L67.0755 78.356L65.6834 77.5507L62.3623 76.1222Z" fill="#FFBE9D"/>
<path id="Vector_151" d="M67.066 81.7406C67.066 81.7406 67.3071 89.429 65.8877 91.549C64.4683 93.6691 61.8296 96.5534 58.5632 94.2423L56.5205 86.5083C56.5205 86.5083 59.8461 82.8688 60.4512 81.3675C61.957 77.6416 64.3909 71.8138 64.3909 71.8138L68.7219 73.7428L67.066 81.7406Z" fill="#FFBE9D"/>
<path id="Vector_152" d="M60.9422 80.6625C60.8083 81.0012 60.6439 81.3271 60.4509 81.636C60.1324 82.2229 59.7048 83.0418 59.2817 83.9699C58.8586 84.8979 58.5174 85.7578 58.2763 86.3856C58.1711 86.7333 58.0325 87.07 57.8623 87.391C57.9049 87.0284 57.992 86.6724 58.1216 86.331C58.3814 85.4924 58.696 84.6717 59.0633 83.8743C59.4291 83.0746 59.8439 82.2982 60.3053 81.5496C60.481 81.2292 60.6948 80.9313 60.9422 80.6625Z" fill="#EB996E"/>
<path id="Vector_153" d="M70.9695 70.2307C70.6584 70.5033 70.2988 70.7147 69.9094 70.854C69.5541 71.0633 69.1618 71.2023 68.7539 71.2634C69.0637 70.9915 69.4217 70.7801 69.8094 70.6402C70.1665 70.4311 70.5602 70.2922 70.9695 70.2307Z" fill="#EB996E"/>
<path id="Vector_154" d="M71.6201 72.2643C71.6201 72.2324 71.8248 72.0959 72.1933 71.9367L72.8485 71.6683L73.226 71.5091C73.3521 71.4612 73.4635 71.3812 73.5491 71.2771C73.9449 70.8221 74.2679 70.3672 74.5272 70.0624C74.7865 69.7576 74.9821 69.5665 75.0049 69.6074C74.979 69.6606 74.9502 69.7122 74.9184 69.7621L74.6637 70.1625C74.3785 70.6076 74.0639 71.0331 73.7219 71.4363C73.6669 71.4995 73.6059 71.5574 73.54 71.6092C73.4716 71.655 73.3983 71.6931 73.3216 71.7229L72.9258 71.873C72.6756 71.964 72.4436 72.0323 72.2525 72.0959C72.0493 72.1775 71.837 72.234 71.6201 72.2643Z" fill="#EB996E"/>
</g>
</g>
</g>
</svg>
