<svg width="96" height="96" viewBox="0 0 96 96" fill="none" xmlns="http://www.w3.org/2000/svg">
<path d="M26 12H70C71.0609 12 72.0783 12.4214 72.8284 13.1716C73.5786 13.9217 74 14.9391 74 16V24H22V16C22 14.9391 22.4214 13.9217 23.1716 13.1716C23.9217 12.4214 24.9391 12 26 12Z" fill="#BCBCBC"/>
<path d="M22 24H74V80C74 81.0609 73.5786 82.0783 72.8284 82.8284C72.0783 83.5786 71.0609 84 70 84H26C24.9391 84 23.9217 83.5786 23.1716 82.8284C22.4214 82.0783 22 81.0609 22 80V24Z" fill="#FFFDF9"/>
<path d="M2 36H22V80H6C4.93913 80 3.92172 79.5786 3.17157 78.8284C2.42143 78.0783 2 77.0609 2 76V36Z" fill="#FFFCF6"/>
<path d="M6 28H22V36H2V32C2 30.9391 2.42143 29.9217 3.17157 29.1716C3.92172 28.4214 4.93913 28 6 28Z" fill="#BCBCBC"/>
<path d="M90 80H74V36H94V76C94 77.0609 93.5786 78.0783 92.8284 78.8284C92.0783 79.5786 91.0609 80 90 80Z" fill="#FFFCF6"/>
<path d="M94 36H74V28H90C91.0609 28 92.0783 28.4214 92.8284 29.1716C93.5786 29.9217 94 30.9391 94 32V36Z" fill="#BCBCBC"/>
<path d="M22 48H10C9.46957 48 8.96086 47.7893 8.58579 47.4142C8.21071 47.0391 8 46.5304 8 46C8 45.4696 8.21071 44.9609 8.58579 44.5858C8.96086 44.2107 9.46957 44 10 44H22V48Z" fill="#E6E6E6"/>
<path d="M22 58H10C9.46957 58 8.96086 57.7893 8.58579 57.4142C8.21071 57.0391 8 56.5304 8 56C8 55.4696 8.21071 54.9609 8.58579 54.5858C8.96086 54.2107 9.46957 54 10 54H22V58Z" fill="#E6E6E6"/>
<path d="M22 68H10C9.46957 68 8.96086 67.7893 8.58579 67.4142C8.21071 67.0391 8 66.5304 8 66C8 65.4696 8.21071 64.9609 8.58579 64.5858C8.96086 64.2107 9.46957 64 10 64H22V68Z" fill="#E6E6E6"/>
<path d="M74 48H86C86.5304 48 87.0391 47.7893 87.4142 47.4142C87.7893 47.0391 88 46.5304 88 46C88 45.4696 87.7893 44.9609 87.4142 44.5858C87.0391 44.2107 86.5304 44 86 44H74V48Z" fill="#E6E6E6"/>
<path d="M74 58H86C86.5304 58 87.0391 57.7893 87.4142 57.4142C87.7893 57.0391 88 56.5304 88 56C88 55.4696 87.7893 54.9609 87.4142 54.5858C87.0391 54.2107 86.5304 54 86 54H74V58Z" fill="#E6E6E6"/>
<path d="M74 68H86C86.5304 68 87.0391 67.7893 87.4142 67.4142C87.7893 67.0391 88 66.5304 88 66C88 65.4696 87.7893 64.9609 87.4142 64.5858C87.0391 64.2107 86.5304 64 86 64H74V68Z" fill="#E6E6E6"/>
<path d="M37.9999 42.8199L40.5799 45.4199C40.7668 45.6052 40.9884 45.7519 41.2321 45.8514C41.4758 45.951 41.7367 46.0014 41.9999 45.9999C42.3972 46.0022 42.7861 45.8861 43.1171 45.6665C43.4482 45.4469 43.7063 45.1337 43.8587 44.7668C44.011 44.4 44.0506 43.996 43.9725 43.6065C43.8943 43.217 43.702 42.8596 43.4199 42.5799L40.8199 39.9999L43.4199 37.4199C43.7965 37.0433 44.0081 36.5325 44.0081 35.9999C44.0081 35.4673 43.7965 34.9565 43.4199 34.5799C43.0433 34.2033 42.5325 33.9917 41.9999 33.9917C41.4673 33.9917 40.9565 34.2033 40.5799 34.5799L37.9999 37.1799L35.4199 34.5799C35.2334 34.3934 35.0121 34.2455 34.7684 34.1446C34.5248 34.0436 34.2636 33.9917 33.9999 33.9917C33.7362 33.9917 33.4751 34.0436 33.2314 34.1446C32.9878 34.2455 32.7664 34.3934 32.5799 34.5799C32.3934 34.7664 32.2455 34.9877 32.1446 35.2314C32.0437 35.475 31.9917 35.7362 31.9917 35.9999C31.9917 36.2636 32.0437 36.5247 32.1446 36.7684C32.2455 37.012 32.3934 37.2334 32.5799 37.4199L35.1799 39.9999L32.5799 42.5799C32.2979 42.8596 32.1055 43.217 32.0274 43.6065C31.9492 43.996 31.9888 44.4 32.1412 44.7668C32.2935 45.1337 32.5516 45.4469 32.8827 45.6665C33.2137 45.8861 33.6027 46.0022 33.9999 45.9999C35.0999 45.9999 35.3799 45.4599 37.9999 42.8199Z" fill="#D4D4D4"/>
<path d="M60.8204 39.9999L63.4204 37.4199C63.797 37.0433 64.0086 36.5325 64.0086 35.9999C64.0086 35.4673 63.797 34.9565 63.4204 34.5799C63.0438 34.2033 62.533 33.9917 62.0004 33.9917C61.4678 33.9917 60.957 34.2033 60.5804 34.5799L58.0004 37.1799L55.4204 34.5799C55.0438 34.2033 54.533 33.9917 54.0004 33.9917C53.4678 33.9917 52.957 34.2033 52.5804 34.5799C52.2038 34.9565 51.9922 35.4673 51.9922 35.9999C51.9922 36.5325 52.2038 37.0433 52.5804 37.4199L55.1804 39.9999L52.5804 42.5799C52.2038 42.9565 51.9922 43.4673 51.9922 43.9999C51.9922 44.5325 52.2038 45.0433 52.5804 45.4199C52.957 45.7965 53.4678 46.0081 54.0004 46.0081C54.533 46.0081 55.0438 45.7965 55.4204 45.4199L58.0004 42.8199L60.5804 45.4199C60.957 45.7965 61.4678 46.0081 62.0004 46.0081C62.533 46.0081 63.0438 45.7965 63.4204 45.4199C63.797 45.0433 64.0086 44.5325 64.0086 43.9999C64.0086 43.4673 63.797 42.9565 63.4204 42.5799L60.8204 39.9999Z" fill="#D4D4D4"/>
<path d="M34.9003 58.3401C34.6551 58.4716 34.44 58.6529 34.2688 58.8723C34.0977 59.0917 33.9742 59.3444 33.9062 59.6143C33.8383 59.8842 33.8274 60.1652 33.8743 60.4395C33.9212 60.7138 34.0248 60.9753 34.1785 61.2073C34.3322 61.4393 34.5327 61.6366 34.767 61.7867C35.0013 61.9368 35.2644 62.0363 35.5394 62.079C35.8144 62.1216 36.0953 62.1063 36.3641 62.0342C36.6328 61.9621 36.8836 61.8347 37.1003 61.6601C40.3287 59.5094 44.1211 58.3618 48.0003 58.3618C51.8795 58.3618 55.6719 59.5094 58.9003 61.6601C59.2224 61.8857 59.6071 62.0046 60.0003 62.0001C60.4276 61.9968 60.8426 61.8567 61.1845 61.6004C61.5264 61.3441 61.7772 60.985 61.9002 60.5758C62.0232 60.1666 62.0119 59.7287 61.868 59.3264C61.724 58.9241 61.455 58.5784 61.1003 58.3401C57.2266 55.7391 52.6663 54.3501 48.0003 54.3501C43.3344 54.3501 38.774 55.7391 34.9003 58.3401Z" fill="#D4D4D4"/>
<path d="M28 20C29.1046 20 30 19.1046 30 18C30 16.8954 29.1046 16 28 16C26.8954 16 26 16.8954 26 18C26 19.1046 26.8954 20 28 20Z" fill="#F0F7FC"/>
<path d="M36 20C37.1046 20 38 19.1046 38 18C38 16.8954 37.1046 16 36 16C34.8954 16 34 16.8954 34 18C34 19.1046 34.8954 20 36 20Z" fill="#F0F7FC"/>
<path d="M44 20C45.1046 20 46 19.1046 46 18C46 16.8954 45.1046 16 44 16C42.8954 16 42 16.8954 42 18C42 19.1046 42.8954 20 44 20Z" fill="#F0F7FC"/>
</svg>
