<svg width="85" height="68" viewBox="0 0 85 68" fill="none" xmlns="http://www.w3.org/2000/svg">
<g clip-path="url(#clip0_1_506)">
<path fill-rule="evenodd" clip-rule="evenodd" d="M70.8664 48.1698C71.4093 47.5574 72.5183 46.0727 73.7386 43.1264L71.7991 43.66L70.9871 44.0312C70.1565 32.1395 67.818 19.937 64.7138 7.5118C64.5236 6.75553 63.7626 6.17556 63.0202 6.23124C48.5202 7.29374 33.3846 10.2492 17.8685 13.8079C17.7849 12.3928 17.5669 9.91983 17.0843 10.2261C16.4115 10.6575 14.1008 15.3298 14.1008 15.3298C13.9801 15.5525 13.9152 15.7984 13.9291 16.0443C14.5323 28.9474 17.0101 42.2217 20.3926 55.7697C20.5829 56.5306 21.3438 57.106 22.0862 57.0503C37.3796 55.9275 53.3829 52.7029 69.79 48.8843C70.0591 48.8194 70.3143 48.6941 70.5231 48.5225C70.653 48.4157 70.7736 48.2997 70.8711 48.1652L70.8664 48.1698Z" fill="#F1854F"/>
<path d="M73.8361 42.5744C73.8686 43.2982 73.2422 44.0359 72.4441 44.2215C56.0371 48.0354 40.0384 51.2646 24.7403 52.3874C23.9979 52.4431 23.237 51.8632 23.0467 51.1069C19.6642 37.5635 17.1864 24.2846 16.5832 11.3814C16.5508 10.6576 17.1772 9.91992 17.9752 9.73433C34.3822 5.91583 50.3856 2.68657 65.679 1.56376C66.4214 1.50808 67.1823 2.08805 67.3726 2.84896C70.7551 16.3924 73.2283 29.6713 73.8361 42.5744Z" fill="#F9D555"/>
<path d="M38.2243 22.2613C38.229 22.3634 38.1315 22.4701 38.0109 22.498C35.5053 23.0408 33.0554 23.5001 30.7215 23.6625C30.6055 23.6718 30.4895 23.5883 30.4616 23.4816C29.9419 21.5514 29.5661 19.6631 29.4733 17.8257C29.4687 17.7237 29.5661 17.6169 29.6867 17.5891C32.1923 17.0463 34.6423 16.5869 36.9808 16.4245C37.0968 16.4153 37.2128 16.4988 37.2406 16.6055C37.7603 18.5356 38.1362 20.424 38.229 22.2613H38.2243Z" fill="white"/>
<path d="M40.3259 33.6244C40.3305 33.7264 40.2331 33.8331 40.1124 33.8563C37.6069 34.3992 35.1569 34.8585 32.823 35.0209C32.707 35.0256 32.591 34.9467 32.5632 34.84C32.0435 32.9098 31.6677 31.0215 31.5749 29.1841C31.5702 29.0821 31.6677 28.9753 31.7883 28.9475C34.2985 28.4047 36.7438 27.9453 39.0824 27.7829C39.1937 27.7737 39.3097 27.8572 39.3422 27.9639C39.8619 29.894 40.2377 31.7824 40.3305 33.6197L40.3259 33.6244Z" fill="white"/>
<path d="M42.428 44.9918C42.4327 45.0939 42.3352 45.2006 42.2146 45.2238C39.7044 45.7666 37.2591 46.226 34.9205 46.3884C34.8045 46.3976 34.6885 46.3141 34.6607 46.2074C34.1456 44.2773 33.7652 42.3889 33.6724 40.5516C33.6724 40.4495 33.7652 40.3428 33.8858 40.3149C36.396 39.7721 38.8413 39.3128 41.1799 39.1504C41.2959 39.1411 41.4072 39.2246 41.4397 39.3313C41.9547 41.2614 42.3352 43.1498 42.428 44.9872V44.9918Z" fill="white"/>
<path d="M79.2648 28.6596L82.8051 29.3927L79.2648 30.1721L78.541 34.051L77.8821 30.1721L74.3325 29.3927L77.8821 28.6596L78.541 24.79L79.2648 28.6596Z" fill="#FFA4AC"/>
<path d="M9.39129 18.5221L12.9316 19.2552L9.39129 20.0347L8.66746 23.9135L8.00858 20.0347L4.45898 19.2552L8.00858 18.5221L8.66746 14.6526L9.39129 18.5221Z" fill="#FFA4AC"/>
<path d="M67.6372 34.0512L69.4514 34.4224L67.6372 34.8214L67.266 36.8119L66.9273 34.8214L65.1084 34.4224L66.9273 34.0512L67.266 32.0654L67.6372 34.0512Z" fill="#074785"/>
<path d="M48.1814 25.0312L49.9956 25.4024L48.1814 25.8061L47.8102 27.7919L47.4715 25.8061L45.6572 25.4024L47.4715 25.0312L47.8102 23.0454L48.1814 25.0312Z" fill="#074785"/>
<path d="M61.9856 12.7776L63.7998 13.1534L61.9856 13.5524L61.619 15.5428L61.2803 13.5524L59.4614 13.1534L61.2803 12.7776L61.619 10.7964L61.9856 12.7776Z" fill="#074785"/>
<path d="M23.5989 17.5754L25.4131 17.9466L23.5989 18.3456L23.2277 20.3361L22.8889 18.3456L21.0747 17.9466L22.8889 17.5754L23.2277 15.5896L23.5989 17.5754Z" fill="#074785"/>
<path d="M51.0679 14.2629L52.8821 14.6387L51.0679 15.0377L50.6967 17.0282L50.3579 15.0377L48.5391 14.6387L50.3579 14.2629L50.6967 12.2817L51.0679 14.2629Z" fill="white"/>
<path d="M55.1277 40.8208L56.9419 41.1919L55.1277 41.591L54.7565 43.5814L54.4224 41.591L52.6035 41.1919L54.4224 40.8208L54.7565 38.835L55.1277 40.8208Z" fill="white"/>
<path fill-rule="evenodd" clip-rule="evenodd" d="M35.8997 20.0251C36.0668 19.8859 36.2152 19.7652 36.3637 19.6353C37.4541 18.6981 38.4192 17.682 39.5143 16.7448C39.7463 16.5453 39.9968 16.3597 40.2428 16.1787C40.4237 16.0442 40.9155 15.7658 41.0223 16.1463C41.0826 16.369 40.897 16.6195 40.781 16.7958C40.2056 17.6634 39.3704 18.3084 38.6698 19.06C37.8021 19.988 36.8416 20.8881 35.9786 21.816C35.9647 21.8299 35.9554 21.8392 35.9415 21.8531C35.8301 21.9645 35.742 21.9645 35.6352 21.8485C35.4496 21.649 35.264 21.4495 35.0784 21.25C34.517 20.6468 33.9602 20.039 33.3988 19.4358C33.2224 19.2456 33.2503 19.0739 33.4776 18.9394C33.6911 18.8141 33.8999 18.6935 34.1133 18.5682C34.2896 18.4615 34.4474 18.48 34.5866 18.6239C34.9949 19.06 35.4079 19.4915 35.8162 19.9276C35.8394 19.9555 35.8626 19.9833 35.8951 20.0251H35.8997Z" fill="#F1854F"/>
<path fill-rule="evenodd" clip-rule="evenodd" d="M37.9739 31.4015C38.141 31.2623 38.2895 31.1417 38.4379 31.0118C39.5283 30.0746 40.4935 29.0585 41.5885 28.1212C41.8205 27.9217 42.071 27.7361 42.317 27.5552C42.4979 27.4206 42.9898 27.1423 43.0965 27.5227C43.1568 27.7454 42.9712 27.996 42.8552 28.1723C42.2798 29.0399 41.4446 29.6848 40.744 30.4365C39.8763 31.3644 38.9159 32.2645 38.0528 33.1925C38.0389 33.2064 38.0296 33.2157 38.0157 33.2296C37.9043 33.341 37.8162 33.341 37.7095 33.2296C37.5239 33.0301 37.3383 32.8306 37.1527 32.6311C36.5912 32.0279 36.0344 31.4201 35.473 30.8169C35.2967 30.6267 35.3245 30.455 35.5519 30.3205C35.7653 30.1952 35.9787 30.0746 36.1875 29.9493C36.3639 29.8426 36.5216 29.8611 36.6608 30.005C37.0691 30.4411 37.4821 30.8773 37.8904 31.3087C37.9136 31.3366 37.9368 31.3644 37.9693 31.4062L37.9739 31.4015Z" fill="#F1854F"/>
<path fill-rule="evenodd" clip-rule="evenodd" d="M39.7742 42.4675C39.9413 42.3283 40.0897 42.2076 40.2382 42.0777C41.3286 41.1405 42.2937 40.1244 43.3888 39.1872C43.6208 38.9877 43.8713 38.8021 44.1173 38.6211C44.2982 38.4866 44.7901 38.2082 44.8968 38.5886C44.9571 38.8113 44.7715 39.0619 44.6555 39.2382C44.0848 40.1058 43.2496 40.7508 42.5443 41.5024C41.6766 42.4303 40.7161 43.3304 39.8531 44.2584C39.8392 44.2723 39.8299 44.2816 39.816 44.2955C39.7 44.4069 39.6165 44.4069 39.5098 44.2955C39.3242 44.096 39.1385 43.8965 38.9529 43.697C38.3915 43.0938 37.8347 42.486 37.2733 41.8828C37.097 41.6926 37.1248 41.521 37.3522 41.3864C37.5656 41.2611 37.7744 41.1405 37.9878 41.0152C38.1642 40.9085 38.3219 40.9271 38.4611 41.0709C38.8694 41.507 39.2824 41.9385 39.6907 42.3747C39.7139 42.4025 39.7371 42.4303 39.7696 42.4721L39.7742 42.4675Z" fill="#F1854F"/>
<path fill-rule="evenodd" clip-rule="evenodd" d="M51.657 32.3621C51.7823 32.6312 51.9075 32.9003 52.0328 33.174C51.7683 33.3503 51.5039 33.5266 51.2394 33.7029C51.0631 33.8097 50.8821 33.9164 50.7104 34.0277C50.4413 34.204 50.2325 34.2087 50.0701 33.9164C49.9031 33.6241 50.0423 33.4014 50.3067 33.2251C50.6501 32.9977 51.0027 32.775 51.3507 32.5477C51.4528 32.4873 51.5595 32.427 51.6616 32.3621H51.657Z" fill="#074785"/>
<path fill-rule="evenodd" clip-rule="evenodd" d="M84.9722 12.2953C84.4386 10.7224 75.0705 14.9678 66.2359 20.2107C59.5543 24.2055 52.251 30.1954 51.207 31.9028C50.8776 32.5524 51.3648 34.1206 52.0051 34.0093C54.5896 33.4943 62.8023 29.6526 69.5814 25.6578C74.1146 22.9714 77.8498 20.2107 80.6617 17.7238C83.4271 15.2694 85.2599 13.098 84.9769 12.2953H84.9722Z" fill="#A089E4"/>
<path fill-rule="evenodd" clip-rule="evenodd" d="M59.1227 24.9478C57.6797 26.0103 56.3526 27.0681 55.1694 28.0749C55.8654 29.4251 56.5197 30.7613 57.16 32.079C58.6401 31.4248 60.2734 30.6546 61.9717 29.8056C61.0344 28.2048 60.1064 26.5856 59.1181 24.9524L59.1227 24.9478Z" fill="#074785"/>
<path fill-rule="evenodd" clip-rule="evenodd" d="M74.7968 22.2986C80.7638 18.1321 85.3296 13.6269 84.9723 12.2953C84.5779 10.9776 78.4346 13.5666 71.5488 17.1949C72.6067 18.8838 73.66 20.5819 74.7968 22.2986Z" fill="#FFA4AC"/>
<path d="M82.6659 12.8934C82.5963 12.7496 82.4989 12.4387 82.4432 12.2856L81.4734 12.5223C81.4734 12.5223 81.3064 12.1418 80.9723 11.6639C80.1185 10.4344 78.7683 9.99825 77.3949 10.852C75.627 11.9516 73.8685 13.0605 72.1285 14.1415C70.0219 15.4546 68.8387 16.0624 65.8367 18.0343C65.5165 18.2477 66.4399 18.4055 66.5466 18.4194C66.8435 18.4565 67.1498 18.4472 67.4374 18.3637C67.7251 18.2802 67.9525 18.1039 68.2077 17.9508C71.1448 16.0902 74.1979 14.1787 77.5433 12.0629C78.9121 11.1907 79.7566 11.4737 80.2902 12.9584C79.9051 13.1579 79.5014 13.3296 79.1163 13.5291C79.7149 14.6101 80.6289 16.0577 81.2832 17.1527C81.7379 16.7491 82.8005 15.784 83.7285 14.6565C83.1113 13.8492 82.9629 13.492 82.6613 12.8934H82.6659Z" fill="#074785"/>
<path fill-rule="evenodd" clip-rule="evenodd" d="M65.2149 26.7853C67.289 25.7739 69.2424 24.6371 71.0845 23.338C71.7666 22.8462 71.0613 21.8811 70.3838 22.359C68.5603 23.6349 66.6301 24.7392 64.5931 25.7228C63.8322 26.0847 64.4307 27.1658 65.2149 26.7853Z" fill="white"/>
<path d="M61.3267 44.5786C61.3267 44.5786 61.4705 44.5136 61.7303 44.4162C61.9855 44.3188 62.3567 44.1842 62.8022 44.0497C63.2476 43.9058 63.7673 43.762 64.3287 43.6089C64.8902 43.4651 65.4934 43.3259 66.1012 43.196C66.7044 43.0707 67.3169 42.9593 67.8876 42.8712C68.463 42.783 68.9966 42.7134 69.4606 42.6717C69.9246 42.6206 70.3097 42.6021 70.5834 42.5881C70.8572 42.5742 71.015 42.5789 71.015 42.5789C71.015 42.5789 70.8711 42.6438 70.6113 42.7413C70.3561 42.8387 69.9849 42.9732 69.5394 43.1078C69.094 43.2516 68.5743 43.3955 68.0129 43.5439C67.4514 43.6878 66.8482 43.827 66.2404 43.9522C65.6372 44.0775 65.0247 44.1842 64.454 44.277C63.8787 44.3605 63.3451 44.4348 62.8811 44.4765C62.4171 44.5229 62.0273 44.5461 61.7582 44.56C61.4844 44.574 61.3267 44.5693 61.3267 44.5693V44.5786Z" fill="white"/>
<path d="M18.7039 11.7991C18.7039 11.7991 18.8477 11.7341 19.1075 11.6367C19.3627 11.5392 19.7339 11.4047 20.1794 11.2701C20.6248 11.1263 21.1445 10.9778 21.7059 10.8293C22.2674 10.6855 22.8706 10.5463 23.4738 10.4164C24.077 10.2911 24.6894 10.1798 25.2602 10.0916C25.8355 10.0081 26.3691 9.93388 26.8331 9.89212C27.2971 9.84108 27.6822 9.82252 27.956 9.80861C28.2298 9.79469 28.3875 9.79933 28.3875 9.79933C28.3875 9.79933 28.2437 9.86428 27.9838 9.96172C27.7286 10.0592 27.3574 10.1937 26.912 10.3283C26.4666 10.4721 25.9469 10.6159 25.3854 10.7644C24.824 10.9082 24.2208 11.0474 23.613 11.1727C23.0098 11.298 22.3973 11.4047 21.8266 11.4975C21.2512 11.581 20.7176 11.6552 20.2536 11.697C19.7896 11.7434 19.4045 11.7666 19.1307 11.7805C18.857 11.7944 18.6992 11.7898 18.6992 11.7898L18.7039 11.7991Z" fill="white"/>
<path d="M34.3037 51.4317C34.3037 51.4317 34.3826 51.4131 34.5357 51.376C34.6888 51.3435 34.9069 51.2832 35.1899 51.2229C35.473 51.158 35.8163 51.0791 36.2107 51.0002C36.6051 50.9167 37.0506 50.8193 37.5378 50.7218C38.025 50.6244 38.5493 50.5177 39.1061 50.4156C39.6629 50.3089 40.2522 50.1929 40.86 50.0862C41.4679 49.9795 42.0989 49.8681 42.7392 49.7568C43.3795 49.6454 44.0291 49.5433 44.6834 49.4366C45.333 49.3345 45.9872 49.2278 46.6275 49.1304C47.2678 49.0283 47.9035 48.9402 48.516 48.852C49.1285 48.7592 49.7178 48.6757 50.2792 48.5968C50.8406 48.5179 51.3742 48.4483 51.8661 48.388C52.112 48.3602 52.344 48.3184 52.5714 48.2906C52.7941 48.2628 53.0075 48.2349 53.207 48.2071C53.6061 48.156 53.9541 48.1143 54.2464 48.0818C54.5341 48.0493 54.7614 48.0261 54.9145 48.0122C55.0677 47.9983 55.1512 47.989 55.1512 47.989C55.1512 47.989 55.0723 48.0122 54.9238 48.0586C54.7754 48.1004 54.5573 48.17 54.2789 48.2442C54.0005 48.3231 53.6618 48.4205 53.272 48.5226C52.8822 48.6247 52.4414 48.7453 51.9589 48.8613C51.4763 48.9726 50.952 49.0979 50.3952 49.2139C49.8384 49.3345 49.2538 49.4645 48.6459 49.5851C48.0381 49.7011 47.407 49.8217 46.7667 49.9331C46.1264 50.0491 45.4722 50.1604 44.8226 50.2671C43.5187 50.4713 42.2103 50.6708 40.9807 50.8239C40.3682 50.9028 39.7696 50.9677 39.2082 51.0373C38.6421 51.1069 38.1085 51.1533 37.6167 51.1997C36.6283 51.2971 35.8024 51.3528 35.2224 51.3899C34.9348 51.4085 34.7074 51.4178 34.5496 51.4271C34.3919 51.4317 34.313 51.4363 34.313 51.4363L34.3037 51.4317Z" fill="#074785"/>
</g>
<defs>
<clipPath id="clip0_1_506">
<rect width="85" height="68" fill="white"/>
</clipPath>
</defs>
</svg>
