<svg width="136" height="85" viewBox="0 0 136 85" fill="none" xmlns="http://www.w3.org/2000/svg">
<path fill-rule="evenodd" clip-rule="evenodd" d="M102.199 68.2317C102.932 67.4008 104.429 65.3866 106.077 61.3897L103.458 62.1136L102.362 62.6171C101.24 46.4847 98.0819 29.9306 93.8901 13.0743C93.6332 12.0483 92.6056 11.2615 91.603 11.337C72.0222 12.7785 51.5829 16.788 30.6298 21.6157C30.5171 19.6959 30.2226 16.3411 29.5709 16.7565C28.6624 17.3419 25.542 23.6803 25.542 23.6803C25.3791 23.9824 25.2913 24.316 25.3101 24.6496C26.1247 42.1542 29.4707 60.1623 34.0385 78.5418C34.2954 79.5741 35.323 80.3546 36.3255 80.2791C56.9778 78.7558 78.5888 74.3813 100.745 69.201C101.108 69.1129 101.453 68.9429 101.735 68.7101C101.91 68.5653 102.073 68.4079 102.205 68.2254L102.199 68.2317Z" fill="#F1854F"/>
<path d="M106.209 60.6408C106.253 61.6227 105.407 62.6235 104.329 62.8753C82.1729 68.0492 60.5682 72.4301 39.9096 73.9533C38.9071 74.0289 37.8795 73.2421 37.6226 72.2161C33.0547 53.8429 29.7088 35.8285 28.8942 18.3239C28.8503 17.3419 29.6962 16.3411 30.774 16.0894C52.9301 10.9091 74.5411 6.52825 95.1934 5.00502C96.1959 4.92948 97.2235 5.71628 97.4804 6.74855C102.048 25.1218 105.388 43.1362 106.209 60.6408Z" fill="#F9D555"/>
<path d="M16.9106 18.6343L21.6915 19.6288L16.9106 20.6862L15.9331 25.9483L15.0434 20.6862L10.25 19.6288L15.0434 18.6343L15.9331 13.3848L16.9106 18.6343Z" fill="#FFA4AC"/>
<path d="M90.1659 13.0768L92.6158 13.5803L90.1659 14.1217L89.6646 16.8219L89.2072 14.1217L86.751 13.5803L89.2072 13.0768L89.6646 10.3828L90.1659 13.0768Z" fill="#074785"/>
<path d="M36.9096 25.8268L39.3596 26.3303L36.9096 26.8717L36.4083 29.5719L35.9509 26.8717L33.501 26.3303L35.9509 25.8268L36.4083 23.1328L36.9096 25.8268Z" fill="#074785"/>
<path d="M42.9096 68.5788L45.3596 69.0823L42.9096 69.6236L42.4083 72.3239L41.9572 69.6236L39.501 69.0823L41.9572 68.5788L42.4083 65.8848L42.9096 68.5788Z" fill="white"/>
<path d="M89.3164 63.3584C89.3164 63.3584 89.5106 63.2703 89.8615 63.1381C90.2062 63.0059 90.7074 62.8234 91.309 62.6409C91.9105 62.4457 92.6123 62.2506 93.3704 62.0429C94.1286 61.8478 94.9432 61.6589 95.764 61.4827C96.5786 61.3127 97.4056 61.1617 98.1763 61.0421C98.9533 60.9225 99.6739 60.8281 100.3 60.7714C100.927 60.7022 101.447 60.677 101.817 60.6581C102.186 60.6392 102.4 60.6455 102.4 60.6455C102.4 60.6455 102.205 60.7337 101.854 60.8658C101.51 60.998 101.009 61.1806 100.407 61.3631C99.8055 61.5582 99.1037 61.7533 98.3455 61.9548C97.5874 62.1499 96.7728 62.3387 95.952 62.5087C95.1374 62.6786 94.3103 62.8234 93.5396 62.9493C92.7626 63.0626 92.0421 63.1633 91.4155 63.2199C90.7889 63.2829 90.2626 63.3143 89.8991 63.3332C89.5295 63.3521 89.3164 63.3458 89.3164 63.3458V63.3584Z" fill="white"/>
<path d="M31.7582 18.8897C31.7582 18.8897 31.9525 18.8015 32.3034 18.6694C32.648 18.5372 33.1492 18.3546 33.7508 18.1721C34.3523 17.977 35.0541 17.7756 35.8122 17.5741C36.5704 17.379 37.385 17.1902 38.1995 17.0139C39.0141 16.844 39.8412 16.6929 40.6119 16.5733C41.3889 16.46 42.1094 16.3593 42.736 16.3027C43.3626 16.2334 43.8827 16.2083 44.2524 16.1894C44.622 16.1705 44.8351 16.1768 44.8351 16.1768C44.8351 16.1768 44.6408 16.2649 44.29 16.3971C43.9453 16.5293 43.4441 16.7118 42.8425 16.8943C42.241 17.0895 41.5392 17.2846 40.7811 17.486C40.0229 17.6811 39.2083 17.87 38.3875 18.0399C37.5729 18.2099 36.7459 18.3546 35.9751 18.4805C35.1982 18.5938 34.4776 18.6945 33.851 18.7512C33.2244 18.8141 32.7044 18.8456 32.3347 18.8645C31.965 18.8834 31.752 18.8771 31.752 18.8771L31.7582 18.8897Z" fill="white"/>
<path d="M52.8242 72.6548C52.8242 72.6548 52.9307 72.6296 53.1375 72.5793C53.3443 72.5352 53.6388 72.4534 54.021 72.3715C54.4032 72.2834 54.8669 72.1764 55.3995 72.0694C55.9321 71.9561 56.5336 71.8239 57.1915 71.6917C57.8494 71.5596 58.5575 71.4148 59.3094 71.2763C60.0613 71.1316 60.8571 70.9742 61.6779 70.8294C62.4987 70.6846 63.3509 70.5336 64.2156 70.3825C65.0803 70.2315 65.9575 70.093 66.841 69.9482C67.7182 69.8097 68.6017 69.665 69.4664 69.5328C70.3311 69.3943 71.1895 69.2747 72.0166 69.1551C72.8437 69.0292 73.6394 68.9159 74.3976 68.8089C75.1558 68.7019 75.8763 68.6075 76.5405 68.5257C76.8726 68.4879 77.1859 68.4313 77.4929 68.3935C77.7937 68.3557 78.0819 68.318 78.3514 68.2802C78.8902 68.211 79.3602 68.1543 79.7549 68.1103C80.1434 68.0662 80.4504 68.0347 80.6572 68.0158C80.864 67.997 80.9768 67.9844 80.9768 67.9844C80.9768 67.9844 80.8702 68.0158 80.6697 68.0788C80.4692 68.1354 80.1747 68.2299 79.7988 68.3306C79.4228 68.4376 78.9654 68.5698 78.4391 68.7082C77.9128 68.8467 77.3175 69.0104 76.6658 69.1677C76.0142 69.3188 75.3062 69.4887 74.5542 69.6461C73.8023 69.8097 73.0128 69.986 72.192 70.1496C71.3712 70.307 70.519 70.4706 69.6543 70.6217C68.7896 70.7791 67.9062 70.9301 67.0289 71.0749C65.2682 71.3519 63.5013 71.6225 61.8408 71.8302C61.0137 71.9372 60.2054 72.0253 59.4472 72.1198C58.6828 72.2142 57.9622 72.2771 57.298 72.3401C55.9634 72.4722 54.8481 72.5478 54.0649 72.5981C53.6764 72.6233 53.3693 72.6359 53.1563 72.6485C52.9433 72.6548 52.8367 72.6611 52.8367 72.6611L52.8242 72.6548Z" fill="#074785"/>
<path d="M86.2666 21.3279C90.3919 18.7027 73.5169 20.9523 57.7665 22.8279C55.8915 23.0511 54.3267 25.6394 55.8915 26.5782C57.7665 27.7031 81.3551 24.4532 86.2666 21.3279Z" fill="#FFEA9E"/>
<path d="M89.2656 36.3279C93.3909 33.7027 76.5159 35.9523 60.7656 37.8279C58.8906 38.0511 57.3258 40.6394 58.8906 41.5782C60.7655 42.7031 84.3541 39.4532 89.2656 36.3279Z" fill="#FFEA9E"/>
<path d="M92.2656 52.8279C96.3909 50.2027 79.5159 52.4523 63.7656 54.3279C61.8906 54.5511 60.3258 57.1394 61.8906 58.0782C63.7655 59.2031 87.3541 55.9532 92.2656 52.8279Z" fill="#FFEA9E"/>
<path d="M51.3176 31.0501C51.3239 31.1886 51.1923 31.3334 51.0294 31.3711C47.6458 32.1076 44.3375 32.7307 41.1857 32.951C41.0291 32.9636 40.8724 32.8503 40.8348 32.7055C40.1331 30.0871 39.6255 27.5253 39.5002 25.0327C39.4939 24.8942 39.6255 24.7495 39.7884 24.7117C43.172 23.9753 46.4804 23.3521 49.6384 23.1318C49.795 23.1192 49.9517 23.2325 49.9893 23.3773C50.6911 25.9957 51.1986 28.5575 51.3239 31.0501H51.3176Z" fill="white"/>
<path d="M54.1555 46.4685C54.1618 46.607 54.0302 46.7518 53.8673 46.7832C50.4837 47.5197 47.1754 48.1428 44.0236 48.3631C43.867 48.3694 43.7103 48.2624 43.6727 48.1176C42.971 45.4992 42.4634 42.9374 42.3381 40.4448C42.3318 40.3063 42.4634 40.1616 42.6263 40.1238C46.0162 39.3874 49.3183 38.7642 52.4763 38.5439C52.6267 38.5313 52.7833 38.6446 52.8272 38.7894C53.5289 41.4079 54.0365 43.9697 54.1618 46.4622L54.1555 46.4685Z" fill="white"/>
<path d="M56.9946 61.8884C57.0009 62.0269 56.8693 62.1717 56.7064 62.2032C53.3165 62.9396 50.0144 63.5627 46.8564 63.783C46.6998 63.7956 46.5431 63.6823 46.5055 63.5376C45.81 60.9191 45.2962 58.3573 45.1709 55.8647C45.1709 55.7263 45.2962 55.5815 45.4591 55.5437C48.849 54.8073 52.1511 54.1841 55.3091 53.9638C55.4657 53.9513 55.6161 54.0646 55.66 54.2093C56.3555 56.8278 56.8693 59.3896 56.9946 61.8821V61.8884Z" fill="white"/>
<path d="M44.6322 27.9425C44.3876 27.3223 44.0275 25.7522 44.499 25.4872C45.0884 25.1559 46.1113 25.1712 46.284 25.4541C46.4794 25.7741 46.3819 26.0466 46.4289 26.2249" stroke="#074785" stroke-width="0.75" stroke-linecap="round"/>
<path fill-rule="evenodd" clip-rule="evenodd" d="M46.6561 27.2044C47.4621 27.9612 47.5058 29.2267 46.7535 30.0308C46.0015 30.8354 44.7388 30.8741 43.9333 30.117C43.1274 29.3602 43.0839 28.0952 43.8359 27.2906C44.5879 26.486 45.8501 26.4476 46.6561 27.2044Z" fill="#FD6085"/>
<path fill-rule="evenodd" clip-rule="evenodd" d="M46.3655 29.8495C46.2036 29.6862 46.0422 29.5225 45.8811 29.3593C45.8986 29.3435 45.9164 29.3269 45.9339 29.3111C46.0953 29.4748 46.2572 29.6381 46.4183 29.8014C46.4008 29.8172 46.3833 29.833 46.3661 29.8492L46.3655 29.8495Z" fill="#FFA4AC"/>
<path fill-rule="evenodd" clip-rule="evenodd" d="M44.6575 28.2167C44.4957 28.0535 44.3344 27.89 44.1731 27.7265C44.1906 27.7107 44.2081 27.6949 44.2259 27.6783C44.3872 27.8418 44.549 28.005 44.71 28.1681C44.6925 28.1839 44.675 28.1997 44.6578 28.2159L44.6575 28.2167Z" fill="#FFA4AC"/>
<path fill-rule="evenodd" clip-rule="evenodd" d="M45.5498 27.3603C45.52 27.5722 45.4895 27.784 45.4597 27.9959C45.4397 27.994 45.4199 27.9913 45.3998 27.9894C45.4301 27.7772 45.4601 27.5657 45.4904 27.3535C45.5104 27.3554 45.53 27.3577 45.5503 27.36L45.5498 27.3603Z" fill="#FFA4AC"/>
<path fill-rule="evenodd" clip-rule="evenodd" d="M45.059 29.6198C45.0293 29.8317 44.9988 30.0435 44.9685 30.2557C44.9485 30.2538 44.9286 30.2511 44.9086 30.2491C44.9387 30.0377 44.9689 29.8255 44.9991 29.6133C45.0192 29.6152 45.0388 29.6174 45.059 29.6198Z" fill="#FFA4AC"/>
<path fill-rule="evenodd" clip-rule="evenodd" d="M46.5945 28.3719C46.3749 28.4391 46.1552 28.5062 45.9358 28.5738C45.9305 28.5546 45.926 28.5356 45.9208 28.5165C46.1405 28.4494 46.3602 28.3822 46.5798 28.3151C46.5851 28.3342 46.5896 28.3532 46.5948 28.3724L46.5945 28.3719Z" fill="#FFA4AC"/>
<path fill-rule="evenodd" clip-rule="evenodd" d="M44.6282 28.9465C44.3986 28.9973 44.169 29.0482 43.9398 29.0996C43.9312 29.0751 43.9235 29.0508 43.915 29.0263C44.1446 28.9754 44.3742 28.9245 44.6038 28.8737C44.6123 28.8982 44.62 28.9225 44.6286 28.947L44.6282 28.9465Z" fill="#FFA4AC"/>
<path d="M46.077 27.0003C46.0255 26.9854 46.0067 27.0657 46.0577 27.0809C46.3725 27.1722 46.6322 27.478 46.7988 27.7472C46.8267 27.793 46.8972 27.75 46.8693 27.7042C46.69 27.4143 46.4146 27.0986 46.077 27.0003Z" fill="white"/>
<path d="M43.5431 28.1399C43.407 28.4376 43.409 28.7871 43.511 29.0957C43.5277 29.1461 43.6071 29.1238 43.5901 29.0729C43.495 28.7854 43.4889 28.4571 43.6156 28.1794C43.6378 28.1315 43.5649 28.0914 43.5426 28.1402L43.5431 28.1399Z" fill="white"/>
<path d="M43.717 27.742C43.6805 27.7956 43.6504 27.8499 43.6304 27.9123C43.6145 27.9631 43.695 27.9827 43.7108 27.9319C43.7281 27.8773 43.7573 27.8288 43.7895 27.7815C43.819 27.7372 43.746 27.6981 43.7164 27.7423L43.717 27.742Z" fill="white"/>
<path d="M46.9025 27.9194C46.9156 27.969 46.944 28.013 46.9521 28.0641C46.9555 28.0868 46.9833 28.0982 47.0031 28.0928C47.0265 28.086 47.0346 28.0639 47.0315 28.0418C47.0234 27.9907 46.995 27.9467 46.9819 27.8971C46.9689 27.8453 46.8892 27.8685 46.9028 27.92L46.9025 27.9194Z" fill="white"/>
<ellipse cx="45.32" cy="28.4816" rx="0.304215" ry="0.304215" transform="rotate(-10.8695 45.32 28.4816)" fill="#074785"/>
<path d="M45.2606 29.3454C45.225 29.3212 45.2248 28.8231 45.2292 28.577L45.4159 28.5411C45.4714 28.7628 45.5927 29.2197 45.634 29.2737C45.6857 29.3412 45.3051 29.3756 45.2606 29.3454Z" fill="#074785"/>
<ellipse cx="45.2458" cy="28.4953" rx="0.304215" ry="0.304215" transform="rotate(-10.8695 45.2458 28.4953)" fill="white"/>
<path d="M45.1864 29.3591C45.1507 29.3349 45.1506 28.8367 45.155 28.5906L45.3417 28.5548C45.3972 28.7765 45.5185 29.2333 45.5598 29.2873C45.6115 29.3549 45.2309 29.3892 45.1864 29.3591Z" fill="white"/>
<path d="M47.6303 43.6925C47.3856 43.0723 47.0256 41.5022 47.4971 41.2372C48.0865 40.9059 49.1093 40.9212 49.2821 41.2041C49.4774 41.5241 49.3799 41.7966 49.427 41.9749" stroke="#074785" stroke-width="0.75" stroke-linecap="round"/>
<path fill-rule="evenodd" clip-rule="evenodd" d="M49.6541 42.9524C50.4601 43.7092 50.5039 44.9748 49.7516 45.7788C48.9995 46.5834 47.7368 46.6222 46.9314 45.865C46.1254 45.1082 46.082 43.8432 46.834 43.0386C47.586 42.2341 48.8482 42.1956 49.6541 42.9524Z" fill="#FD6085"/>
<path fill-rule="evenodd" clip-rule="evenodd" d="M49.3636 45.5976C49.2017 45.4342 49.0403 45.2705 48.8792 45.1073C48.8967 45.0915 48.9144 45.0749 48.9319 45.0591C49.0933 45.2228 49.2553 45.3862 49.4164 45.5494C49.3989 45.5652 49.3813 45.581 49.3641 45.5973L49.3636 45.5976Z" fill="#FFA4AC"/>
<path fill-rule="evenodd" clip-rule="evenodd" d="M47.6556 43.9648C47.4938 43.8016 47.3325 43.638 47.1712 43.4745C47.1887 43.4587 47.2062 43.4429 47.2239 43.4263C47.3852 43.5899 47.5471 43.7531 47.7081 43.9161C47.6906 43.9319 47.6731 43.9477 47.6558 43.964L47.6556 43.9648Z" fill="#FFA4AC"/>
<path fill-rule="evenodd" clip-rule="evenodd" d="M48.5488 43.1084C48.519 43.3203 48.4885 43.5321 48.4587 43.744C48.4387 43.742 48.4189 43.7394 48.3989 43.7374C48.4291 43.5252 48.4591 43.3137 48.4894 43.1015C48.5094 43.1035 48.529 43.1057 48.5493 43.1081L48.5488 43.1084Z" fill="#FFA4AC"/>
<path fill-rule="evenodd" clip-rule="evenodd" d="M48.0581 45.3659C48.0283 45.5778 47.9978 45.7896 47.9675 46.0018C47.9475 45.9998 47.9277 45.9972 47.9076 45.9952C47.9377 45.7837 47.9679 45.5715 47.9982 45.3593C48.0182 45.3613 48.0378 45.3635 48.0581 45.3659Z" fill="#FFA4AC"/>
<path fill-rule="evenodd" clip-rule="evenodd" d="M49.5935 44.12C49.3739 44.1871 49.1542 44.2542 48.9348 44.3218C48.9296 44.3027 48.9251 44.2837 48.9198 44.2645C49.1395 44.1974 49.3592 44.1303 49.5789 44.0631C49.5841 44.0823 49.5886 44.1013 49.5938 44.1204L49.5935 44.12Z" fill="#FFA4AC"/>
<path fill-rule="evenodd" clip-rule="evenodd" d="M47.6282 44.6945C47.3986 44.7454 47.169 44.7962 46.9398 44.8477C46.9312 44.8231 46.9235 44.7989 46.915 44.7743C47.1446 44.7234 47.3742 44.6726 47.6038 44.6217C47.6123 44.6463 47.62 44.6705 47.6286 44.6951L47.6282 44.6945Z" fill="#FFA4AC"/>
<path d="M49.0741 42.7484C49.0225 42.7335 49.0038 42.8137 49.0548 42.829C49.3695 42.9202 49.6292 43.2261 49.7958 43.4953C49.8238 43.5411 49.8943 43.498 49.8663 43.4523C49.6871 43.1623 49.4117 42.8466 49.0741 42.7484Z" fill="white"/>
<path d="M46.5402 43.8879C46.4041 44.1856 46.4061 44.5352 46.5081 44.8438C46.5247 44.8942 46.6042 44.8719 46.5872 44.8209C46.4921 44.5335 46.486 44.2052 46.6127 43.9274C46.6348 43.8795 46.562 43.8395 46.5397 43.8882L46.5402 43.8879Z" fill="white"/>
<path d="M46.716 43.49C46.6795 43.5437 46.6494 43.598 46.6294 43.6603C46.6135 43.7111 46.694 43.7308 46.7099 43.68C46.7271 43.6253 46.7563 43.5768 46.7885 43.5295C46.8181 43.4853 46.745 43.4461 46.7154 43.4904L46.716 43.49Z" fill="white"/>
<path d="M49.9005 43.668C49.9137 43.7175 49.942 43.7616 49.9501 43.8127C49.9535 43.8353 49.9814 43.8467 50.0012 43.8414C50.0246 43.8346 50.0326 43.8124 50.0296 43.7904C50.0214 43.7392 49.9931 43.6952 49.98 43.6457C49.9669 43.5938 49.8873 43.617 49.9009 43.6685L49.9005 43.668Z" fill="white"/>
<ellipse cx="48.321" cy="44.2316" rx="0.304215" ry="0.304215" transform="rotate(-10.8695 48.321 44.2316)" fill="#074785"/>
<path d="M48.2616 45.0954C48.2259 45.0712 48.2258 44.5731 48.2302 44.327L48.4169 44.2911C48.4724 44.5128 48.5937 44.9697 48.635 45.0237C48.6867 45.0912 48.3061 45.1256 48.2616 45.0954Z" fill="#074785"/>
<ellipse cx="48.2467" cy="44.2453" rx="0.304215" ry="0.304215" transform="rotate(-10.8695 48.2467 44.2453)" fill="white"/>
<path d="M48.1873 45.1091C48.1517 45.0849 48.1516 44.5867 48.156 44.3406L48.3427 44.3048C48.3982 44.5265 48.5194 44.9833 48.5608 45.0373C48.6125 45.1049 48.2319 45.1392 48.1873 45.1091Z" fill="white"/>
<path d="M50.6293 58.6925C50.3847 58.0723 50.0246 56.5022 50.4961 56.2372C51.0855 55.9059 52.1084 55.9212 52.2811 56.2041C52.4764 56.5241 52.3789 56.7966 52.426 56.9749" stroke="#074785" stroke-width="0.75" stroke-linecap="round"/>
<path fill-rule="evenodd" clip-rule="evenodd" d="M52.6532 57.9544C53.4591 58.7112 53.5029 59.9767 52.7506 60.7808C51.9986 61.5854 50.7358 61.6241 49.9304 60.867C49.1244 60.1102 49.081 58.8452 49.833 58.0406C50.585 57.236 51.8472 57.1976 52.6532 57.9544Z" fill="#FD6085"/>
<path fill-rule="evenodd" clip-rule="evenodd" d="M52.3616 60.5995C52.1997 60.4362 52.0383 60.2725 51.8772 60.1093C51.8947 60.0935 51.9125 60.0769 51.93 60.0611C52.0914 60.2248 52.2533 60.3881 52.4144 60.5514C52.3969 60.5672 52.3794 60.583 52.3622 60.5992L52.3616 60.5995Z" fill="#FFA4AC"/>
<path fill-rule="evenodd" clip-rule="evenodd" d="M50.6546 58.9667C50.4928 58.8035 50.3315 58.64 50.1702 58.4765C50.1877 58.4607 50.2052 58.4449 50.223 58.4283C50.3843 58.5918 50.5461 58.755 50.7071 58.9181C50.6896 58.9339 50.6721 58.9497 50.6548 58.9659L50.6546 58.9667Z" fill="#FFA4AC"/>
<path fill-rule="evenodd" clip-rule="evenodd" d="M51.5479 58.1103C51.5181 58.3222 51.4876 58.534 51.4578 58.7459C51.4377 58.744 51.4179 58.7413 51.3979 58.7394C51.4281 58.5272 51.4582 58.3157 51.4884 58.1035C51.5084 58.1054 51.528 58.1077 51.5483 58.11L51.5479 58.1103Z" fill="#FFA4AC"/>
<path fill-rule="evenodd" clip-rule="evenodd" d="M51.0571 60.3698C51.0273 60.5817 50.9968 60.7935 50.9666 61.0057C50.9465 61.0038 50.9267 61.0011 50.9067 60.9991C50.9367 60.7877 50.967 60.5755 50.9972 60.3633C51.0172 60.3652 51.0368 60.3674 51.0571 60.3698Z" fill="#FFA4AC"/>
<path fill-rule="evenodd" clip-rule="evenodd" d="M52.5926 59.1219C52.3729 59.1891 52.1532 59.2562 51.9338 59.3238C51.9286 59.3046 51.9241 59.2856 51.9189 59.2665C52.1385 59.1994 52.3582 59.1322 52.5779 59.0651C52.5831 59.0842 52.5876 59.1032 52.5928 59.1224L52.5926 59.1219Z" fill="#FFA4AC"/>
<path fill-rule="evenodd" clip-rule="evenodd" d="M50.6272 59.6965C50.3976 59.7473 50.168 59.7982 49.9388 59.8496C49.9302 59.8251 49.9225 59.8008 49.914 59.7763C50.1436 59.7254 50.3732 59.6745 50.6028 59.6237C50.6113 59.6482 50.619 59.6725 50.6276 59.697L50.6272 59.6965Z" fill="#FFA4AC"/>
<path d="M52.0731 57.7523C52.0216 57.7374 52.0028 57.8176 52.0538 57.8329C52.3686 57.9241 52.6283 58.23 52.7948 58.4992C52.8228 58.545 52.8933 58.5019 52.8653 58.4562C52.6861 58.1662 52.4107 57.8505 52.0731 57.7523Z" fill="white"/>
<path d="M49.5392 58.8899C49.4031 59.1876 49.4051 59.5371 49.5071 59.8457C49.5238 59.8961 49.6032 59.8738 49.5862 59.8229C49.4911 59.5354 49.485 59.2071 49.6117 58.9294C49.6338 58.8815 49.561 58.8414 49.5387 58.8902L49.5392 58.8899Z" fill="white"/>
<path d="M49.715 58.492C49.6785 58.5456 49.6484 58.5999 49.6284 58.6623C49.6125 58.7131 49.693 58.7327 49.7089 58.6819C49.7261 58.6273 49.7553 58.5788 49.7875 58.5315C49.8171 58.4872 49.744 58.4481 49.7145 58.4923L49.715 58.492Z" fill="white"/>
<path d="M52.8995 58.6719C52.9127 58.7215 52.941 58.7655 52.9492 58.8166C52.9526 58.8392 52.9804 58.8506 53.0002 58.8453C53.0236 58.8385 53.0317 58.8163 53.0286 58.7943C53.0205 58.7431 52.9921 58.6991 52.979 58.6496C52.9659 58.5977 52.8863 58.6209 52.8999 58.6724L52.8995 58.6719Z" fill="white"/>
<ellipse cx="51.319" cy="59.2297" rx="0.304215" ry="0.304215" transform="rotate(-10.8695 51.319 59.2297)" fill="#074785"/>
<path d="M51.2596 60.0934C51.224 60.0693 51.2238 59.5711 51.2282 59.325L51.4149 59.2892C51.4704 59.5108 51.5917 59.9677 51.633 60.0217C51.6847 60.0892 51.3041 60.1236 51.2596 60.0934Z" fill="#074785"/>
<ellipse cx="51.2438" cy="59.2433" rx="0.304215" ry="0.304215" transform="rotate(-10.8695 51.2438 59.2433)" fill="white"/>
<path d="M51.1844 60.1071C51.1488 60.083 51.1486 59.5848 51.153 59.3387L51.3397 59.3028C51.3952 59.5245 51.5165 59.9814 51.5579 60.0354C51.6095 60.1029 51.2289 60.1373 51.1844 60.1071Z" fill="white"/>
</svg>
