<svg width="148" height="128" viewBox="0 0 148 128" fill="none" xmlns="http://www.w3.org/2000/svg">
<g clip-path="url(#clip0_9_2510)">
<path d="M139.421 66.0764L147.5 67.7468L139.421 69.5127L137.767 78.3419L136.257 69.5127L128.154 67.7468L136.257 66.0764L137.767 57.2949L139.421 66.0764Z" fill="#FFA4AC"/>
<path d="M131.054 17.2767L146.924 20.5459L131.054 24.0298L127.794 41.3542L124.846 24.0298L108.928 20.5459L124.846 17.2767L127.794 0L131.054 17.2767Z" fill="#FD6085"/>
<path d="M11.7671 71.9226L19.8459 73.593L11.7671 75.3588L10.113 84.188L8.60274 75.3588L0.5 73.593L8.60274 71.9226L10.113 63.1172L11.7671 71.9226Z" fill="#FFA4AC"/>
<path fill-rule="evenodd" clip-rule="evenodd" d="M27.949 120.221C22.747 118.479 18.7675 113.802 20.1819 109.65C27.8292 87.3378 52.0655 54.789 69.7333 23.2901C73.1134 17.2767 82.6305 18.3266 85.8429 24.4116C102.648 56.3878 125.086 88.6503 132.134 111.153C133.428 115.329 129.329 119.887 124.079 121.485C91.9079 130.553 59.8566 130.124 27.949 120.173V120.221Z" fill="#074785"/>
<path fill-rule="evenodd" clip-rule="evenodd" d="M21.8596 117.333C16.6576 115.591 12.7021 110.914 14.0925 106.762C21.7398 84.4504 46 51.9016 63.6679 20.4266C67.048 14.4131 76.5651 15.4631 79.7774 21.5481C96.5822 53.5242 119.021 85.7867 126.069 108.289C127.363 112.465 123.264 117.023 118.014 118.622C85.8425 127.69 53.7911 127.26 21.8836 117.309L21.8596 117.333Z" fill="#A089E4"/>
<path d="M64.9621 43.5974C65.6334 42.7622 66.5923 42.1417 67.8388 41.7361C69.0854 41.3304 70.2841 41.1395 71.4587 41.1634C72.4416 41.1634 73.4005 41.2111 74.3354 41.2588C75.2704 41.3065 76.1813 41.4259 77.0683 41.5929C78.9142 42.0463 80.2087 42.9769 80.9039 44.2894C81.5991 45.6018 82.0067 47.1052 82.0786 48.7517C82.1505 50.3983 82.0786 52.0209 81.7909 53.5959C81.5272 55.1947 81.3354 56.4594 81.2635 57.4617C80.4724 66.5295 79.6094 75.6212 78.9382 84.6891C78.8423 85.93 78.7464 87.147 78.6745 88.364C78.5786 89.6048 78.2909 90.7741 77.7875 91.8718C77.308 92.9218 76.493 93.6615 75.3662 94.1388C74.2395 94.616 73.0888 94.8069 71.8902 94.7592C70.6916 94.7115 69.5409 94.4012 68.4382 93.8763C67.3114 93.3274 66.5204 92.5877 66.0649 91.5854C65.8731 91.0366 65.7053 90.3207 65.5854 89.5094C65.4656 88.6742 65.3457 87.9106 65.2498 87.2424C65.1539 86.1925 65.082 85.0948 65.058 83.9493C65.058 82.8039 65.0101 81.6585 64.9382 80.4892C64.4587 70.1567 63.8114 59.8479 63.356 49.5153C63.332 48.7756 63.4039 47.8211 63.6197 46.6279C63.8354 45.4348 64.2909 44.4326 64.9621 43.5974ZM76.8286 102.873C77.308 103.445 77.6916 104.185 77.9313 105.044C78.9861 109.053 77.4039 113.826 72.7293 114.112C70.0683 114.279 67.0717 113.157 66.1608 110.437C65.8731 109.459 65.7053 108.313 65.6813 107.025C65.6334 104.495 66.5923 102.252 69.1094 101.441C72.0101 100.51 75.1265 100.82 76.8525 102.873H76.8286Z" fill="white"/>
</g>
<defs>
<clipPath id="clip0_9_2510">
<rect width="147" height="128" fill="white" transform="translate(0.5)"/>
</clipPath>
</defs>
</svg>
