<svg width="180" height="113" viewBox="0 0 180 113" fill="none" xmlns="http://www.w3.org/2000/svg">
<path fill-rule="evenodd" clip-rule="evenodd" d="M135.597 90.8076C136.575 89.6998 138.572 87.0142 140.769 81.685L137.277 82.6501L135.815 83.3215C134.319 61.8116 130.109 39.7394 124.519 17.2644C124.177 15.8964 122.807 14.8474 121.47 14.9481C95.3622 16.87 68.1099 22.216 40.1725 28.653C40.0221 26.0933 39.6294 21.6201 38.7606 22.174C37.5492 22.9545 33.3886 31.4057 33.3886 31.4057C33.1714 31.8086 33.0545 32.2534 33.0795 32.6982C34.1656 56.0376 38.6269 80.0485 44.7173 104.554C45.0598 105.931 46.43 106.971 47.7667 106.871C75.3031 104.84 104.118 99.007 133.659 92.1C134.144 91.9826 134.603 91.756 134.979 91.4454C135.213 91.2524 135.43 91.0426 135.606 90.7992L135.597 90.8076Z" fill="#F1854F"/>
<path d="M140.945 80.6877C141.003 81.9969 139.875 83.3313 138.438 83.667C108.897 90.5656 80.0905 96.4068 52.5458 98.4378C51.2091 98.5385 49.8389 97.4894 49.4964 96.1215C43.406 71.6238 38.9447 47.6046 37.8586 24.2651C37.8001 22.9559 38.928 21.6215 40.365 21.2858C69.9064 14.3788 98.721 8.53766 126.257 6.50669C127.594 6.40598 128.964 7.45504 129.307 8.8314C135.397 33.329 139.85 57.3483 140.945 80.6877Z" fill="#F9D555"/>
<path d="M21.8808 24.677L28.2553 26.0031L21.8808 27.413L20.5775 34.4291L19.3912 27.413L13 26.0031L19.3912 24.677L20.5775 17.6777L21.8808 24.677Z" fill="#FFA4AC"/>
<path d="M119.553 17.2697L122.82 17.9411L119.553 18.6629L118.885 22.2632L118.275 18.6629L115 17.9411L118.275 17.2697L118.885 13.6777L119.553 17.2697Z" fill="#074785"/>
<path d="M48.5448 34.2697L51.8114 34.9411L48.5448 35.6629L47.8765 39.2632L47.2666 35.6629L44 34.9411L47.2666 34.2697L47.8765 30.6777L48.5448 34.2697Z" fill="#074785"/>
<path d="M56.5448 91.2697L59.8114 91.9411L56.5448 92.6629L55.8765 96.2632L55.275 92.6629L52 91.9411L55.275 91.2697L55.8765 87.6777L56.5448 91.2697Z" fill="white"/>
<path d="M118.421 84.3119C118.421 84.3119 118.68 84.1944 119.148 84.0181C119.607 83.8419 120.276 83.5985 121.078 83.3551C121.88 83.095 122.815 82.8348 123.826 82.5578C124.837 82.2977 125.923 82.0459 127.018 81.8109C128.104 81.5843 129.207 81.3829 130.234 81.2234C131.27 81.064 132.231 80.9381 133.066 80.8626C133.902 80.7702 134.595 80.7367 135.088 80.7115C135.581 80.6863 135.865 80.6947 135.865 80.6947C135.865 80.6947 135.606 80.8122 135.138 80.9884C134.679 81.1647 134.01 81.4081 133.208 81.6514C132.406 81.9116 131.471 82.1718 130.46 82.4403C129.449 82.7005 128.363 82.9523 127.268 83.1789C126.182 83.4055 125.079 83.5985 124.052 83.7663C123.016 83.9174 122.055 84.0517 121.22 84.1272C120.384 84.2111 119.682 84.2531 119.198 84.2783C118.705 84.3035 118.421 84.2951 118.421 84.2951V84.3119Z" fill="white"/>
<path d="M41.6773 25.0208C41.6773 25.0208 41.9363 24.9033 42.4041 24.7271C42.8636 24.5509 43.532 24.3075 44.334 24.0641C45.1361 23.8039 46.0718 23.5354 47.0827 23.2668C48.0935 23.0066 49.1796 22.7549 50.2657 22.5199C51.3518 22.2933 52.4546 22.0919 53.4822 21.9324C54.5181 21.7813 55.4789 21.6471 56.3144 21.5715C57.1498 21.4792 57.8432 21.4456 58.3361 21.4205C58.8291 21.3953 59.1131 21.4037 59.1131 21.4037C59.1131 21.4037 58.8541 21.5212 58.3863 21.6974C57.9268 21.8737 57.2584 22.117 56.4564 22.3604C55.6544 22.6206 54.7186 22.8808 53.7078 23.1493C52.6969 23.4095 51.6108 23.6613 50.5163 23.8879C49.4303 24.1145 48.3275 24.3075 47.2999 24.4753C46.2639 24.6264 45.3031 24.7607 44.4677 24.8362C43.6323 24.9201 42.9388 24.9621 42.4459 24.9873C41.953 25.0124 41.6689 25.0041 41.6689 25.0041L41.6773 25.0208Z" fill="white"/>
<path d="M69.7646 96.7077C69.7646 96.7077 69.9067 96.6741 70.1824 96.607C70.4581 96.5482 70.8507 96.4391 71.3604 96.33C71.87 96.2125 72.4882 96.0699 73.1983 95.9272C73.9085 95.7761 74.7105 95.5999 75.5877 95.4236C76.4649 95.2474 77.409 95.0544 78.4115 94.8697C79.4141 94.6767 80.4751 94.4669 81.5695 94.2739C82.664 94.0808 83.8002 93.8794 84.9531 93.678C86.106 93.4766 87.2756 93.2919 88.4536 93.0989C89.6233 92.9143 90.8012 92.7213 91.9542 92.545C93.1071 92.3604 94.2516 92.2009 95.3544 92.0415C96.4572 91.8736 97.5182 91.7226 98.5291 91.5799C99.54 91.4372 100.501 91.3113 101.386 91.2022C101.829 91.1519 102.247 91.0763 102.656 91.026C103.057 90.9756 103.442 90.9253 103.801 90.8749C104.519 90.7826 105.146 90.7071 105.672 90.6483C106.19 90.5896 106.6 90.5476 106.875 90.5224C107.151 90.4973 107.301 90.4805 107.301 90.4805C107.301 90.4805 107.159 90.5224 106.892 90.6064C106.625 90.6819 106.232 90.8078 105.731 90.9421C105.229 91.0847 104.62 91.261 103.918 91.4456C103.216 91.6302 102.422 91.8484 101.553 92.0583C100.685 92.2597 99.7405 92.4863 98.738 92.6961C97.7355 92.9143 96.6828 93.1493 95.5884 93.3675C94.4939 93.5773 93.3577 93.7955 92.2048 93.9969C91.0519 94.2067 89.8739 94.4081 88.7043 94.6012C86.3567 94.9704 84.0007 95.3313 81.7867 95.6083C80.684 95.7509 79.6062 95.8684 78.5953 95.9943C77.5761 96.1202 76.6153 96.2041 75.7297 96.2881C73.9502 96.4643 72.4631 96.565 71.4188 96.6321C70.9009 96.6657 70.4915 96.6825 70.2074 96.6993C69.9234 96.7077 69.7814 96.7161 69.7814 96.7161L69.7646 96.7077Z" fill="#074785"/>
<path d="M114.354 28.2711C119.855 24.7709 97.3546 27.7704 76.3541 30.2711C73.8541 30.5688 71.7677 34.0198 73.8541 35.2716C76.354 36.7715 107.805 32.4383 114.354 28.2711Z" fill="#FFEA9E"/>
<path d="M118.354 48.2711C123.855 44.7709 101.355 47.7704 80.3541 50.2711C77.8541 50.5688 75.7677 54.0198 77.8541 55.2716C80.354 56.7715 111.805 52.4383 118.354 48.2711Z" fill="#FFEA9E"/>
<path d="M122.354 70.2711C127.855 66.7709 105.355 69.7704 84.3541 72.2711C81.8541 72.5688 79.7677 76.0198 81.8541 77.2716C84.354 78.7715 115.805 74.4383 122.354 70.2711Z" fill="#FFEA9E"/>
<path d="M67.7568 41.2367C67.7652 41.4214 67.5898 41.6144 67.3725 41.6647C62.8611 42.6467 58.4499 43.4775 54.2476 43.7713C54.0388 43.788 53.8299 43.637 53.7798 43.444C52.8441 39.9527 52.1674 36.5369 52.0003 33.2135C51.9919 33.0289 52.1674 32.8359 52.3846 32.7855C56.896 31.8036 61.3072 30.9727 65.5178 30.679C65.7267 30.6622 65.9356 30.8133 65.9857 31.0063C66.9214 34.4976 67.5981 37.9133 67.7652 41.2367H67.7568Z" fill="white"/>
<path d="M71.541 61.792C71.5494 61.9766 71.3739 62.1697 71.1567 62.2116C66.6453 63.1935 62.2341 64.0244 58.0318 64.3181C57.823 64.3265 57.6141 64.1838 57.564 63.9908C56.6283 60.4996 55.9516 57.0838 55.7845 53.7604C55.7761 53.5758 55.9516 53.3827 56.1688 53.3324C60.6885 52.3505 65.0914 51.5196 69.302 51.2259C69.5025 51.2091 69.7114 51.3602 69.7699 51.5532C70.7056 55.0445 71.3823 58.4602 71.5494 61.7836L71.541 61.792Z" fill="white"/>
<path d="M75.3255 82.3526C75.3338 82.5372 75.1584 82.7302 74.9412 82.7722C70.4214 83.7541 66.0186 84.5849 61.8079 84.8787C61.599 84.8955 61.3902 84.7444 61.34 84.5514C60.4127 81.0601 59.7276 77.6444 59.5605 74.321C59.5605 74.1363 59.7276 73.9433 59.9449 73.8929C64.4646 72.911 68.8674 72.0802 73.0781 71.7864C73.287 71.7696 73.4875 71.9207 73.546 72.1137C74.4733 75.605 75.1584 79.0207 75.3255 82.3442V82.3526Z" fill="white"/>
<path d="M58.8407 37.0932C58.5145 36.2663 58.0344 34.1727 58.6631 33.8194C59.4489 33.3777 60.8128 33.3981 61.0431 33.7753C61.3035 34.2019 61.1735 34.5653 61.2363 34.8031" stroke="#074785" stroke-linecap="round"/>
<path fill-rule="evenodd" clip-rule="evenodd" d="M61.5385 36.1075C62.6131 37.1166 62.6715 38.8039 61.6684 39.876C60.6657 40.9488 58.9821 41.0005 57.9082 39.9909C56.8336 38.9818 56.7756 37.2952 57.7783 36.2224C58.781 35.1496 60.4639 35.0984 61.5385 36.1075Z" fill="#FD6085"/>
<path fill-rule="evenodd" clip-rule="evenodd" d="M61.1505 39.6343C60.9346 39.4164 60.7194 39.1982 60.5046 38.9806C60.5279 38.9595 60.5516 38.9374 60.575 38.9163C60.7902 39.1346 61.006 39.3524 61.2209 39.57C61.1975 39.5911 61.1742 39.6122 61.1512 39.6338L61.1505 39.6343Z" fill="#FFA4AC"/>
<path fill-rule="evenodd" clip-rule="evenodd" d="M58.8731 37.4604C58.6574 37.2428 58.4423 37.0248 58.2272 36.8067C58.2506 36.7857 58.2739 36.7646 58.2976 36.7425C58.5127 36.9606 58.7285 37.1782 58.9431 37.3956C58.9198 37.4167 58.8964 37.4377 58.8735 37.4594L58.8731 37.4604Z" fill="#FFA4AC"/>
<path fill-rule="evenodd" clip-rule="evenodd" d="M60.0648 36.3153C60.0251 36.5979 59.9844 36.8802 59.9447 37.1628C59.918 37.1602 59.8915 37.1567 59.8648 37.1541C59.9051 36.8711 59.9452 36.5891 59.9855 36.3062C60.0122 36.3088 60.0383 36.3118 60.0654 36.3149L60.0648 36.3153Z" fill="#FFA4AC"/>
<path fill-rule="evenodd" clip-rule="evenodd" d="M59.4101 39.3286C59.3704 39.6112 59.3297 39.8935 59.2894 40.1765C59.2627 40.1739 59.2362 40.1703 59.2095 40.1677C59.2496 39.8857 59.2899 39.6028 59.3302 39.3199C59.3569 39.3225 59.3831 39.3254 59.4101 39.3286Z" fill="#FFA4AC"/>
<path fill-rule="evenodd" clip-rule="evenodd" d="M61.4568 37.6645C61.1639 37.754 60.871 37.8435 60.5784 37.9336C60.5715 37.9081 60.5655 37.8828 60.5585 37.8573C60.8514 37.7678 61.1443 37.6783 61.4372 37.5888C61.4441 37.6143 61.4501 37.6396 61.4571 37.6651L61.4568 37.6645Z" fill="#FFA4AC"/>
<path fill-rule="evenodd" clip-rule="evenodd" d="M58.8357 38.432C58.5295 38.4999 58.2234 38.5677 57.9177 38.6363C57.9063 38.6035 57.896 38.5712 57.8847 38.5384C58.1908 38.4706 58.4969 38.4028 58.8031 38.335C58.8144 38.3677 58.8247 38.4001 58.8361 38.4328L58.8357 38.432Z" fill="#FFA4AC"/>
<path d="M60.7661 35.837C60.6974 35.8171 60.6724 35.9241 60.7403 35.9444C61.16 36.0661 61.5063 36.4739 61.7284 36.8328C61.7657 36.8939 61.8597 36.8365 61.8224 36.7754C61.5834 36.3889 61.2163 35.9679 60.7661 35.837Z" fill="white"/>
<path d="M57.3866 37.3539C57.2051 37.7508 57.2077 38.2169 57.3438 38.6284C57.366 38.6956 57.4719 38.6658 57.4493 38.5979C57.3225 38.2146 57.3143 37.7769 57.4833 37.4065C57.5128 37.3427 57.4157 37.2893 57.3859 37.3543L57.3866 37.3539Z" fill="white"/>
<path d="M57.6203 36.8222C57.5717 36.8938 57.5315 36.9662 57.5049 37.0493C57.4837 37.117 57.591 37.1432 57.6122 37.0755C57.6352 37.0026 57.6741 36.938 57.717 36.8749C57.7564 36.8159 57.6591 36.7637 57.6196 36.8227L57.6203 36.8222Z" fill="white"/>
<path d="M61.8677 37.062C61.8852 37.1281 61.923 37.1868 61.9339 37.255C61.9384 37.2851 61.9755 37.3003 62.0019 37.2932C62.0331 37.2841 62.0438 37.2546 62.0398 37.2252C62.0289 37.157 61.9911 37.0984 61.9736 37.0323C61.9562 36.9631 61.85 36.9941 61.8681 37.0628L61.8677 37.062Z" fill="white"/>
<circle cx="59.76" cy="37.8133" r="0.405619" transform="rotate(-10.8695 59.76 37.8133)" fill="#074785"/>
<path d="M59.6795 38.9648C59.632 38.9326 59.6318 38.2684 59.6376 37.9403L59.8866 37.8925C59.9606 38.188 60.1223 38.7972 60.1774 38.8692C60.2463 38.9592 59.7388 39.0051 59.6795 38.9648Z" fill="#074785"/>
<circle cx="59.6614" cy="37.8314" r="0.405619" transform="rotate(-10.8695 59.6614 37.8314)" fill="white"/>
<path d="M59.5808 38.9829C59.5334 38.9507 59.5332 38.2865 59.539 37.9583L59.788 37.9105C59.8619 38.2061 60.0236 38.8153 60.0788 38.8873C60.1477 38.9773 59.6402 39.0231 59.5808 38.9829Z" fill="white"/>
<path d="M62.8407 58.0932C62.5145 57.2663 62.0344 55.1727 62.6631 54.8194C63.4489 54.3777 64.8128 54.3981 65.0431 54.7753C65.3035 55.2019 65.1735 55.5653 65.2363 55.8031" stroke="#074785" stroke-linecap="round"/>
<path fill-rule="evenodd" clip-rule="evenodd" d="M65.5385 57.1075C66.6131 58.1166 66.6715 59.8039 65.6684 60.876C64.6657 61.9488 62.9821 62.0005 61.9082 60.9909C60.8336 59.9818 60.7756 58.2952 61.7783 57.2224C62.781 56.1496 64.4639 56.0984 65.5385 57.1075Z" fill="#FD6085"/>
<path fill-rule="evenodd" clip-rule="evenodd" d="M65.1505 60.6343C64.9346 60.4164 64.7194 60.1982 64.5046 59.9806C64.5279 59.9595 64.5516 59.9374 64.575 59.9163C64.7902 60.1346 65.006 60.3524 65.2209 60.57C65.1975 60.5911 65.1742 60.6122 65.1512 60.6338L65.1505 60.6343Z" fill="#FFA4AC"/>
<path fill-rule="evenodd" clip-rule="evenodd" d="M62.8731 58.4604C62.6574 58.2428 62.4423 58.0248 62.2272 57.8067C62.2506 57.7857 62.2739 57.7646 62.2976 57.7425C62.5127 57.9606 62.7285 58.1782 62.9431 58.3956C62.9198 58.4167 62.8964 58.4377 62.8735 58.4594L62.8731 58.4604Z" fill="#FFA4AC"/>
<path fill-rule="evenodd" clip-rule="evenodd" d="M64.0648 57.3153C64.0251 57.5979 63.9844 57.8802 63.9447 58.1628C63.918 58.1602 63.8915 58.1567 63.8648 58.1541C63.9051 57.8711 63.9452 57.5891 63.9855 57.3062C64.0122 57.3088 64.0383 57.3118 64.0654 57.3149L64.0648 57.3153Z" fill="#FFA4AC"/>
<path fill-rule="evenodd" clip-rule="evenodd" d="M63.4101 60.3286C63.3704 60.6112 63.3297 60.8935 63.2894 61.1765C63.2627 61.1739 63.2362 61.1703 63.2095 61.1677C63.2496 60.8857 63.2899 60.6028 63.3302 60.3199C63.3569 60.3225 63.3831 60.3254 63.4101 60.3286Z" fill="#FFA4AC"/>
<path fill-rule="evenodd" clip-rule="evenodd" d="M65.4568 58.6645C65.1639 58.754 64.871 58.8435 64.5784 58.9336C64.5715 58.9081 64.5655 58.8828 64.5585 58.8573C64.8514 58.7678 65.1443 58.6783 65.4372 58.5888C65.4441 58.6143 65.4501 58.6396 65.4571 58.6651L65.4568 58.6645Z" fill="#FFA4AC"/>
<path fill-rule="evenodd" clip-rule="evenodd" d="M62.8357 59.432C62.5295 59.4999 62.2234 59.5677 61.9177 59.6363C61.9063 59.6035 61.896 59.5712 61.8847 59.5384C62.1908 59.4706 62.4969 59.4028 62.8031 59.335C62.8144 59.3677 62.8247 59.4001 62.8361 59.4328L62.8357 59.432Z" fill="#FFA4AC"/>
<path d="M64.7661 56.837C64.6974 56.8171 64.6724 56.9241 64.7403 56.9444C65.16 57.0661 65.5063 57.4739 65.7284 57.8328C65.7657 57.8939 65.8597 57.8365 65.8224 57.7754C65.5834 57.3889 65.2163 56.9679 64.7661 56.837Z" fill="white"/>
<path d="M61.3866 58.3539C61.2051 58.7508 61.2077 59.2169 61.3438 59.6284C61.366 59.6956 61.4719 59.6658 61.4493 59.5979C61.3225 59.2146 61.3143 58.7769 61.4833 58.4065C61.5128 58.3427 61.4157 58.2893 61.3859 58.3543L61.3866 58.3539Z" fill="white"/>
<path d="M61.6203 57.8222C61.5717 57.8938 61.5315 57.9662 61.5049 58.0493C61.4837 58.117 61.591 58.1432 61.6122 58.0755C61.6352 58.0026 61.6741 57.938 61.717 57.8749C61.7564 57.8159 61.6591 57.7637 61.6196 57.8227L61.6203 57.8222Z" fill="white"/>
<path d="M65.8677 58.062C65.8852 58.1281 65.923 58.1868 65.9339 58.255C65.9384 58.2851 65.9755 58.3003 66.0019 58.2932C66.0331 58.2841 66.0438 58.2546 66.0398 58.2252C66.0289 58.157 65.9911 58.0984 65.9736 58.0323C65.9562 57.9631 65.85 57.9941 65.8681 58.0628L65.8677 58.062Z" fill="white"/>
<circle cx="63.76" cy="58.8133" r="0.405619" transform="rotate(-10.8695 63.76 58.8133)" fill="#074785"/>
<path d="M63.6795 59.9648C63.632 59.9326 63.6318 59.2684 63.6376 58.9403L63.8866 58.8925C63.9606 59.188 64.1223 59.7972 64.1774 59.8692C64.2463 59.9592 63.7388 60.0051 63.6795 59.9648Z" fill="#074785"/>
<circle cx="63.6614" cy="58.8314" r="0.405619" transform="rotate(-10.8695 63.6614 58.8314)" fill="white"/>
<path d="M63.5808 59.9829C63.5334 59.9507 63.5332 59.2865 63.539 58.9583L63.788 58.9105C63.8619 59.2061 64.0236 59.8153 64.0788 59.8873C64.1477 59.9773 63.6402 60.0231 63.5808 59.9829Z" fill="white"/>
<path d="M66.8407 78.0932C66.5145 77.2663 66.0344 75.1727 66.6631 74.8194C67.4489 74.3777 68.8128 74.3981 69.0431 74.7753C69.3035 75.2019 69.1735 75.5653 69.2363 75.8031" stroke="#074785" stroke-linecap="round"/>
<path fill-rule="evenodd" clip-rule="evenodd" d="M69.5385 77.1075C70.6131 78.1166 70.6715 79.8039 69.6684 80.876C68.6657 81.9488 66.9821 82.0005 65.9082 80.9909C64.8336 79.9818 64.7756 78.2952 65.7783 77.2224C66.781 76.1496 68.4639 76.0984 69.5385 77.1075Z" fill="#FD6085"/>
<path fill-rule="evenodd" clip-rule="evenodd" d="M69.1505 80.6343C68.9346 80.4164 68.7194 80.1982 68.5046 79.9806C68.5279 79.9595 68.5516 79.9374 68.575 79.9163C68.7902 80.1346 69.006 80.3524 69.2209 80.57C69.1975 80.5911 69.1742 80.6122 69.1512 80.6338L69.1505 80.6343Z" fill="#FFA4AC"/>
<path fill-rule="evenodd" clip-rule="evenodd" d="M66.8731 78.4604C66.6574 78.2428 66.4423 78.0248 66.2272 77.8067C66.2506 77.7857 66.2739 77.7646 66.2976 77.7425C66.5127 77.9606 66.7285 78.1782 66.9431 78.3956C66.9198 78.4167 66.8964 78.4377 66.8735 78.4594L66.8731 78.4604Z" fill="#FFA4AC"/>
<path fill-rule="evenodd" clip-rule="evenodd" d="M68.0648 77.3153C68.0251 77.5979 67.9844 77.8802 67.9447 78.1628C67.918 78.1602 67.8915 78.1567 67.8648 78.1541C67.9051 77.8711 67.9452 77.5891 67.9855 77.3062C68.0122 77.3088 68.0383 77.3118 68.0654 77.3149L68.0648 77.3153Z" fill="#FFA4AC"/>
<path fill-rule="evenodd" clip-rule="evenodd" d="M67.4101 80.3286C67.3704 80.6112 67.3297 80.8935 67.2894 81.1765C67.2627 81.1739 67.2362 81.1703 67.2095 81.1677C67.2496 80.8857 67.2899 80.6028 67.3302 80.3199C67.3569 80.3225 67.3831 80.3254 67.4101 80.3286Z" fill="#FFA4AC"/>
<path fill-rule="evenodd" clip-rule="evenodd" d="M69.4568 78.6645C69.1639 78.754 68.871 78.8435 68.5784 78.9336C68.5715 78.9081 68.5655 78.8828 68.5585 78.8573C68.8514 78.7678 69.1443 78.6783 69.4372 78.5888C69.4441 78.6143 69.4501 78.6396 69.4571 78.6651L69.4568 78.6645Z" fill="#FFA4AC"/>
<path fill-rule="evenodd" clip-rule="evenodd" d="M66.8357 79.432C66.5295 79.4999 66.2234 79.5677 65.9177 79.6363C65.9063 79.6035 65.896 79.5712 65.8847 79.5384C66.1908 79.4706 66.4969 79.4028 66.8031 79.335C66.8144 79.3677 66.8247 79.4001 66.8361 79.4328L66.8357 79.432Z" fill="#FFA4AC"/>
<path d="M68.7661 76.837C68.6974 76.8171 68.6724 76.9241 68.7403 76.9444C69.16 77.0661 69.5063 77.4739 69.7284 77.8328C69.7657 77.8939 69.8597 77.8365 69.8224 77.7754C69.5834 77.3889 69.2163 76.9679 68.7661 76.837Z" fill="white"/>
<path d="M65.3866 78.3539C65.2051 78.7508 65.2077 79.2169 65.3438 79.6284C65.366 79.6956 65.4719 79.6658 65.4493 79.5979C65.3225 79.2146 65.3143 78.7769 65.4833 78.4065C65.5128 78.3427 65.4157 78.2893 65.3859 78.3543L65.3866 78.3539Z" fill="white"/>
<path d="M65.6203 77.8222C65.5717 77.8938 65.5315 77.9662 65.5049 78.0493C65.4837 78.117 65.591 78.1432 65.6122 78.0755C65.6352 78.0026 65.6741 77.938 65.717 77.8749C65.7564 77.8159 65.6591 77.7637 65.6196 77.8227L65.6203 77.8222Z" fill="white"/>
<path d="M69.8677 78.062C69.8852 78.1281 69.923 78.1868 69.9339 78.255C69.9384 78.2851 69.9755 78.3003 70.0019 78.2932C70.0331 78.2841 70.0438 78.2546 70.0398 78.2252C70.0289 78.157 69.9911 78.0984 69.9736 78.0323C69.9562 77.9631 69.85 77.9941 69.8681 78.0628L69.8677 78.062Z" fill="white"/>
<circle cx="67.76" cy="78.8133" r="0.405619" transform="rotate(-10.8695 67.76 78.8133)" fill="#074785"/>
<path d="M67.6795 79.9648C67.632 79.9326 67.6318 79.2684 67.6376 78.9403L67.8866 78.8925C67.9606 79.188 68.1223 79.7972 68.1774 79.8692C68.2463 79.9592 67.7388 80.0051 67.6795 79.9648Z" fill="#074785"/>
<circle cx="67.6614" cy="78.8314" r="0.405619" transform="rotate(-10.8695 67.6614 78.8314)" fill="white"/>
<path d="M67.5808 79.9829C67.5334 79.9507 67.5332 79.2865 67.539 78.9583L67.788 78.9105C67.8619 79.2061 68.0236 79.8153 68.0788 79.8873C68.1477 79.9773 67.6402 80.0231 67.5808 79.9829Z" fill="white"/>
<path d="M139.672 69.8684C146.084 68.8691 152.204 69.8175 156.901 71.7634C159.246 72.741 161.317 73.9945 162.899 75.461C164.457 76.9067 165.722 78.727 166.05 80.833C166.402 83.0943 165.58 85.0479 164.194 86.5659C162.883 88.0037 161.03 89.1093 159.016 89.9934C154.967 91.7674 149.39 93.023 143.425 93.9526C137.461 94.8822 131.766 95.3859 127.369 94.9255C125.182 94.6962 123.08 94.207 121.394 93.2363C119.608 92.2098 118.234 90.6013 117.881 88.34C117.553 86.234 118.204 84.1151 119.248 82.264C120.309 80.3855 121.897 78.5619 123.836 76.9166C127.718 73.6336 133.263 70.8672 139.672 69.8684ZM135.084 40.432C138.633 39.879 142.256 40.7583 145.156 42.8765C148.057 44.9947 149.997 48.1783 150.55 51.7269C151.103 55.2755 150.223 58.8985 148.105 61.7989C145.987 64.6992 142.803 66.6393 139.255 67.1923C135.706 67.7454 132.083 66.8661 129.183 64.7479C126.283 62.6297 124.342 59.4461 123.789 55.8975C123.236 52.3488 124.116 48.7258 126.234 45.8255C128.352 42.9252 131.536 40.9851 135.084 40.432Z" fill="#FD6085"/>
</svg>
