<svg width="12" height="12" viewBox="0 0 12 12" fill="none" xmlns="http://www.w3.org/2000/svg">
<g clip-path="url(#clip0_17912_1440)">
<path fill-rule="evenodd" clip-rule="evenodd" d="M6 0C9.31313 0 12 2.68687 12 6C12 9.31313 9.31313 12 6 12C2.68687 12 0 9.31313 0 6C0 2.68687 2.68687 0 6 0ZM5.3572 6.5163V3.42818C5.3572 3.07415 5.64598 2.78538 6 2.78538C6.35403 2.78538 6.6428 3.07684 6.6428 3.42818V6.5163C6.6428 6.86765 6.35402 7.15911 6 7.15911C5.64597 7.15911 5.3572 6.87033 5.3572 6.5163ZM5.99722 7.84854C6.39953 7.84854 6.72582 8.17482 6.72582 8.57708C6.72582 8.9794 6.39953 9.30568 5.99722 9.30568C5.59496 9.30568 5.26867 8.9794 5.26867 8.57708C5.26867 8.17482 5.59496 7.84854 5.99722 7.84854Z" fill="#FF0000"/>
</g>
<defs>
<clipPath id="clip0_17912_1440">
<rect width="12" height="12" fill="white"/>
</clipPath>
</defs>
</svg>
