<svg  viewBox="0 0 25 25" fill="none" xmlns="http://www.w3.org/2000/svg">
<path d="M3.13435 21.6247C2.51102 21.6247 1.97852 21.4039 1.53685 20.9625C1.09539 20.5208 0.874664 19.9883 0.874664 19.365V2.63435C0.874664 2.01102 1.09539 1.47852 1.53685 1.03685C1.97852 0.595394 2.51102 0.374664 3.13435 0.374664H19.865C20.4883 0.374664 21.0208 0.595394 21.4625 1.03685C21.9039 1.47852 22.1247 2.01102 22.1247 2.63435V10.5406C21.817 10.4091 21.5088 10.2978 21.2003 10.2065C20.8917 10.1151 20.5749 10.0422 20.2497 9.98779V2.63435C20.2497 2.5381 20.2096 2.44998 20.1294 2.36998C20.0494 2.28977 19.9612 2.24966 19.865 2.24966H3.13435C3.0381 2.24966 2.94998 2.28977 2.86998 2.36998C2.78977 2.44998 2.74966 2.5381 2.74966 2.63435V19.365C2.74966 19.4612 2.78977 19.5494 2.86998 19.6294C2.94998 19.7096 3.0381 19.7497 3.13435 19.7497H10.4565C10.503 20.0957 10.5719 20.423 10.6631 20.7315C10.7546 21.0401 10.8659 21.3378 10.9972 21.6247H3.13435ZM2.74966 18.4997V19.7497V2.24966V9.98779V9.89404V18.4997ZM5.56216 16.7928H10.5837C10.6383 16.4676 10.7192 16.1507 10.8265 15.8422C10.934 15.5336 11.051 15.2256 11.1775 14.9181H5.56216V16.7928ZM5.56216 11.9372H13.4878C14.0261 11.4805 14.6006 11.0979 15.2112 10.7894C15.8219 10.4808 16.4757 10.2616 17.1728 10.1319V10.0622H5.56216V11.9372ZM5.56216 7.08123H17.4372V5.20654H5.56216V7.08123ZM18.9997 24.1969C17.4388 24.1969 16.1111 23.6496 15.0165 22.555C13.922 21.4604 13.3747 20.1327 13.3747 18.5719C13.3747 17.011 13.922 15.6833 15.0165 14.5887C16.1111 13.4941 17.4388 12.9469 18.9997 12.9469C20.5605 12.9469 21.8882 13.4941 22.9828 14.5887C24.0774 15.6833 24.6247 17.011 24.6247 18.5719C24.6247 20.1327 24.0774 21.4604 22.9828 22.555C21.8882 23.6496 20.5605 24.1969 18.9997 24.1969Z" fill="currentColor"/>
</svg>
