<svg width="28" height="28" viewBox="0 0 28 28" fill="none" xmlns="http://www.w3.org/2000/svg">
<path d="M19.5309 15.9655L12.7705 22.7259C12.3763 23.12 12.0967 23.6139 11.9615 24.1547L11.4373 26.2515C11.2094 27.1634 12.0353 27.9893 12.9472 27.7614L15.044 27.2372C15.5848 27.102 16.0787 26.8223 16.4728 26.4282L23.2332 19.6678C24.2556 18.6454 24.2556 16.9878 23.2332 15.9655C22.2109 14.9431 20.5533 14.9431 19.5309 15.9655ZM7.19951 4.69992C7.19951 4.31336 6.88614 4 6.49959 4C6.11303 4 5.79967 4.31336 5.79967 4.69992V5.39984H5.09975C3.94009 5.39984 3 6.33993 3 7.49959V24.2976C3 25.4573 3.94009 26.3974 5.09975 26.3974H10.0032C10.0134 26.2377 10.0383 26.0755 10.0792 25.912L10.6034 23.8152C10.8001 23.0283 11.207 22.3096 11.7806 21.736L18.541 14.9756C18.9137 14.6029 19.3414 14.3187 19.798 14.1231V7.49959C19.798 6.33993 18.8579 5.39984 17.6983 5.39984H16.9984V4.69992C16.9984 4.31336 16.685 4 16.2984 4C15.9119 4 15.5985 4.31336 15.5985 4.69992V5.39984H12.0989V4.69992C12.0989 4.31336 11.7856 4 11.399 4C11.0125 4 10.6991 4.31336 10.6991 4.69992V5.39984H7.19951V4.69992ZM7.89942 10.9992H14.8986C15.2852 10.9992 15.5985 11.3125 15.5985 11.6991C15.5985 12.0856 15.2852 12.399 14.8986 12.399H7.89942C7.51287 12.399 7.19951 12.0856 7.19951 11.6991C7.19951 11.3125 7.51287 10.9992 7.89942 10.9992ZM15.5985 15.8986C15.5985 16.2852 15.2852 16.5985 14.8986 16.5985H7.89942C7.51287 16.5985 7.19951 16.2852 7.19951 15.8986C7.19951 15.512 7.51287 15.1987 7.89942 15.1987H14.8986C15.2852 15.1987 15.5985 15.512 15.5985 15.8986ZM7.89942 19.3982H10.6991C11.0856 19.3982 11.399 19.7116 11.399 20.0981C11.399 20.4847 11.0856 20.798 10.6991 20.798H7.89942C7.51287 20.798 7.19951 20.4847 7.19951 20.0981C7.19951 19.7116 7.51287 19.3982 7.89942 19.3982Z" fill="black"/>
</svg>
