<svg width="25" height="25" viewBox="0 0 25 25" fill="none" xmlns="http://www.w3.org/2000/svg">
<path d="M3.13434 21.6246C2.511 21.6246 1.9785 21.4039 1.53684 20.9624C1.09538 20.5208 0.874649 19.9883 0.874649 19.3649V2.63432C0.874649 2.01099 1.09538 1.47849 1.53684 1.03682C1.9785 0.595363 2.511 0.374634 3.13434 0.374634H19.865C20.4883 0.374634 21.0208 0.595363 21.4625 1.03682C21.9039 1.47849 22.1246 2.01099 22.1246 2.63432V10.5406C21.8169 10.4091 21.5088 10.2978 21.2003 10.2065C20.8917 10.1151 20.5749 10.0421 20.2496 9.98776V2.63432C20.2496 2.53807 20.2095 2.44995 20.1293 2.36995C20.0493 2.28974 19.9612 2.24963 19.865 2.24963H3.13434C3.03809 2.24963 2.94996 2.28974 2.86996 2.36995C2.78975 2.44995 2.74965 2.53807 2.74965 2.63432V19.3649C2.74965 19.4612 2.78975 19.5493 2.86996 19.6293C2.94996 19.7095 3.03809 19.7496 3.13434 19.7496H10.4565C10.503 20.0957 10.5718 20.423 10.6631 20.7315C10.7545 21.0401 10.8659 21.3378 10.9971 21.6246H3.13434ZM2.74965 18.4996V19.7496V2.24963V9.98776V9.89401V18.4996ZM5.56215 16.7928H10.5837C10.6383 16.4676 10.7192 16.1507 10.8265 15.8421C10.934 15.5336 11.051 15.2256 11.1775 14.9181H5.56215V16.7928ZM5.56215 11.9371H13.4878C14.0261 11.4805 14.6006 11.0979 15.2112 10.7893C15.8218 10.4808 16.4757 10.2616 17.1728 10.1318V10.0621H5.56215V11.9371ZM5.56215 7.0812H17.4371V5.20651H5.56215V7.0812ZM18.9996 24.1968C17.4388 24.1968 16.1111 23.6495 15.0165 22.5549C13.9219 21.4604 13.3746 20.1327 13.3746 18.5718C13.3746 17.011 13.9219 15.6833 15.0165 14.5887C16.1111 13.4941 17.4388 12.9468 18.9996 12.9468C20.5605 12.9468 21.8882 13.4941 22.9828 14.5887C24.0774 15.6833 24.6246 17.011 24.6246 18.5718C24.6246 20.1327 24.0774 21.4604 22.9828 22.5549C21.8882 23.6495 20.5605 24.1968 18.9996 24.1968Z" fill="#666666"/>
</svg>
