<svg width="29" height="28" viewBox="0 0 29 28" fill="none" xmlns="http://www.w3.org/2000/svg">
<path d="M7.69951 11.6991C7.69951 11.3125 8.01287 10.9992 8.39942 10.9992H15.3986C15.7852 10.9992 16.0985 11.3125 16.0985 11.6991C16.0985 12.0856 15.7852 12.399 15.3986 12.399H8.39942C8.01287 12.399 7.69951 12.0856 7.69951 11.6991ZM8.39942 15.1987C8.01287 15.1987 7.69951 15.512 7.69951 15.8986C7.69951 16.2852 8.01287 16.5985 8.39942 16.5985H15.3986C15.7852 16.5985 16.0985 16.2852 16.0985 15.8986C16.0985 15.512 15.7852 15.1987 15.3986 15.1987H8.39942ZM7.69951 20.0981C7.69951 19.7116 8.01287 19.3982 8.39942 19.3982H11.1991C11.5856 19.3982 11.899 19.7116 11.899 20.0981C11.899 20.4847 11.5856 20.798 11.1991 20.798H8.39942C8.01287 20.798 7.69951 20.4847 7.69951 20.0981ZM6.29967 4.69992C6.29967 4.31336 6.61303 4 6.99959 4C7.38614 4 7.69951 4.31336 7.69951 4.69992V5.39984H11.1991V4.69992C11.1991 4.31336 11.5125 4 11.899 4C12.2856 4 12.5989 4.31336 12.5989 4.69992V5.39984H16.0985V4.69992C16.0985 4.31336 16.4119 4 16.7984 4C17.185 4 17.4984 4.31336 17.4984 4.69992V5.39984H18.1983C19.3579 5.39984 20.298 6.33993 20.298 7.49959V14.1231C19.8414 14.3187 19.4137 14.6029 19.041 14.9756L18.8982 15.1184V7.49959C18.8982 7.11303 18.5848 6.79967 18.1983 6.79967H5.59975C5.2132 6.79967 4.89984 7.11304 4.89984 7.49959V24.2976C4.89984 24.6842 5.2132 24.9975 5.59975 24.9975H10.8078L10.5792 25.912C10.5383 26.0755 10.5134 26.2377 10.5032 26.3974H5.59975C4.44009 26.3974 3.5 25.4573 3.5 24.2976V7.49959C3.5 6.33993 4.44009 5.39984 5.59975 5.39984H6.29967V4.69992ZM20.0309 15.9655L13.2705 22.7259C12.8763 23.12 12.5967 23.6139 12.4615 24.1547L11.9373 26.2515C11.7094 27.1634 12.5353 27.9893 13.4472 27.7614L15.544 27.2372C16.0848 27.102 16.5787 26.8223 16.9728 26.4282L23.7332 19.6678C24.7556 18.6454 24.7556 16.9878 23.7332 15.9655C22.7109 14.9431 21.0533 14.9431 20.0309 15.9655Z" fill="currentColor"/>
</svg>
