<svg width="150" height="144" viewBox="0 0 150 144" fill="none" xmlns="http://www.w3.org/2000/svg">
<g clip-path="url(#clip0_19_11410)">
<path fill-rule="evenodd" clip-rule="evenodd" d="M79.2469 143.5C61.4396 143.5 43.4268 142.47 25.6986 140.449C23.9669 140.254 20.6063 138.944 18.7085 137.493C16.1387 135.511 14.913 133.428 15.0712 131.298C15.2214 129.277 16.5578 127.561 19.0327 126.18C20.7407 125.236 23.4529 124.643 25.2558 124.542C25.3665 124.542 25.4772 124.487 25.5484 124.401C25.6195 124.315 25.6591 124.206 25.6433 124.089C23.4292 104.725 23.6585 85.111 26.3233 65.7936C26.9084 61.6274 30.5853 58.0932 34.6813 57.7577C49.468 56.5718 64.4602 55.9711 79.239 55.9711C94.0177 55.9711 109.01 56.5718 123.789 57.7499C127.893 58.0854 131.57 61.6196 132.155 65.778C134.819 85.1032 135.049 104.717 132.835 124.081C132.819 124.19 132.858 124.3 132.93 124.393C133.001 124.479 133.111 124.526 133.222 124.534C134.978 124.627 137.753 125.236 139.445 126.164C141.928 127.545 143.257 129.269 143.415 131.282C143.573 133.412 142.355 135.495 139.777 137.477C137.88 138.928 134.527 140.239 132.787 140.442C115.059 142.47 97.0383 143.492 79.2311 143.492L79.2469 143.5Z" fill="#074785"/>
<path fill-rule="evenodd" clip-rule="evenodd" d="M129.348 129.129C128.937 132.055 126.224 134.661 123.409 134.895C93.8519 137.259 64.2944 137.259 34.7369 134.895C31.9219 134.661 29.2097 132.055 28.7985 129.129C25.9044 108.135 25.9044 87.1398 28.7985 66.1451C29.2097 63.2194 31.9219 60.6136 34.7369 60.3795C64.2944 58.0155 93.8519 58.0155 123.409 60.3795C126.224 60.6136 128.937 63.2194 129.348 66.1451C132.242 87.1398 132.242 108.135 129.348 129.129Z" fill="white"/>
<path fill-rule="evenodd" clip-rule="evenodd" d="M137.975 135.41C136.457 136.572 133.499 137.696 132.321 137.836C96.9043 141.885 61.2503 141.885 25.8413 137.836C24.6631 137.704 21.7058 136.572 20.1876 135.41C16.7005 132.726 16.7005 130.417 20.1876 128.474C21.7058 127.631 24.6631 127.093 25.8413 127.171C61.2582 129.792 96.9122 129.792 132.321 127.171C133.507 127.085 136.457 127.631 137.975 128.474C141.462 130.417 141.462 132.726 137.975 135.41Z" fill="#29AEFD"/>
<path fill-rule="evenodd" clip-rule="evenodd" d="M60.1274 128.887C59.8981 129.23 59.7637 129.652 59.7637 130.12V132.016C59.7637 133.358 60.8628 134.575 62.2228 134.7C73.4354 135.768 84.727 135.761 95.9396 134.7C97.2997 134.575 98.3988 133.358 98.3988 132.016V130.12C98.3988 129.652 98.2644 129.23 98.035 128.887C85.4071 129.215 72.7633 129.215 60.1353 128.887H60.1274Z" fill="#074785"/>
<path d="M40.6592 128.115C40.6592 128.115 40.9676 128.115 41.5448 128.099C42.122 128.099 42.9681 128.068 44.0514 128.068C45.1268 128.06 46.4394 128.037 47.9418 128.037C48.693 128.037 49.4916 128.029 50.3377 128.021C51.1759 128.021 52.0615 128.021 52.9867 128.021C53.9118 128.021 54.8686 128.021 55.8728 128.021C56.8692 128.021 57.8971 128.029 58.9567 128.037C61.0758 128.045 63.3057 128.053 65.6146 128.06C70.2246 128.099 75.1509 128.131 80.0692 128.17C82.5284 128.209 84.9875 128.201 87.4072 128.232C89.8268 128.248 92.2148 128.263 94.5159 128.279C96.8248 128.287 99.0467 128.294 101.166 128.302C102.225 128.318 103.246 128.287 104.242 128.287C105.238 128.287 106.195 128.287 107.12 128.287C107.579 128.287 108.037 128.287 108.472 128.287C108.915 128.287 109.342 128.271 109.761 128.263C110.599 128.263 111.398 128.248 112.149 128.24C112.9 128.24 113.604 128.224 114.253 128.216C114.901 128.201 115.494 128.185 116.04 128.177C117.115 128.146 117.969 128.146 118.546 128.131C119.123 128.131 119.432 128.131 119.432 128.131C119.432 128.131 119.131 128.17 118.554 128.255C117.985 128.333 117.139 128.451 116.071 128.591C115.533 128.661 114.94 128.731 114.3 128.817C113.652 128.895 112.948 128.95 112.204 129.028C110.71 129.16 109.018 129.348 107.168 129.465C105.317 129.582 103.317 129.738 101.198 129.824C99.0784 129.909 96.8485 130.026 94.5317 130.081C93.3772 130.105 92.199 130.128 91.0129 130.159C90.4199 130.167 89.8189 130.183 89.218 130.198C88.617 130.198 88.016 130.206 87.4072 130.214C84.9796 130.229 82.5126 130.237 80.0455 130.214C78.8119 130.198 77.5784 130.183 76.3528 130.175C75.1271 130.159 73.9015 130.12 72.6917 130.097C70.2641 130.05 67.8761 129.964 65.5672 129.87C63.2583 129.792 61.0284 129.66 58.9092 129.558C56.7901 129.457 54.7895 129.324 52.9471 129.2C51.1047 129.082 49.4126 128.95 47.9102 128.825C46.4078 128.708 45.1031 128.583 44.0356 128.49C42.9602 128.396 42.1141 128.294 41.5448 128.24C40.9676 128.177 40.6671 128.146 40.6671 128.146L40.6592 128.115Z" fill="#074785"/>
<path d="M40.0986 113.245L45.1276 114.267L40.0986 115.359L39.0706 120.797L38.1375 115.359L33.1006 114.267L38.1375 113.245L39.0706 107.823L40.0986 113.245Z" fill="#FFA4AC"/>
<path d="M115.976 110.396L124.247 112.082L115.976 113.884L114.284 122.833L112.742 113.884L104.439 112.082L112.742 110.396L114.284 101.471L115.976 110.396Z" fill="#FFA4AC"/>
<path d="M55.0187 120.055L57.5332 120.562L55.0187 121.116L54.5047 123.831L54.0302 121.116L51.5078 120.562L54.0302 120.055L54.5047 117.34L55.0187 120.055Z" fill="#074785"/>
<path d="M103.918 99.2015L106.44 99.7164L103.918 100.263L103.412 102.985L102.937 100.263L100.415 99.7164L102.937 99.2015L103.412 96.4865L103.918 99.2015Z" fill="#074785"/>
<path d="M131.957 34.243L138.813 35.6317L131.957 37.1219L130.558 44.5336L129.285 37.1219L122.413 35.6317L129.285 34.243L130.558 26.8468L131.957 34.243Z" fill="#FD6085"/>
<path d="M43.614 18.1312C43.898 17.4644 44.6703 17.145 45.3291 17.4252L91.2778 36.8516C91.9365 37.1318 92.2432 37.905 91.9593 38.5718L65.251 100.953C64.967 101.62 64.1947 101.939 63.5359 101.659L17.5872 82.2323C16.9285 81.9521 16.6218 81.1789 16.9058 80.5121L43.614 18.1312Z" fill="#F9D555"/>
<path d="M23.1703 72.9697C23.2271 72.8297 23.8177 72.9473 24.4821 73.2331L64.536 90.3286C65.2005 90.6144 65.6945 90.9562 65.6321 91.0906C65.5753 91.2307 64.979 91.113 64.3145 90.8273L24.2663 73.7318C23.6019 73.446 23.1078 73.1042 23.1646 72.9641L23.1703 72.9697Z" fill="white"/>
<path d="M25.4818 67.4729C25.5386 67.3328 26.1292 67.4505 26.7936 67.7363L66.8646 84.8374C67.529 85.1231 68.0231 85.4649 67.9606 85.605C67.8982 85.7451 67.3075 85.6274 66.6431 85.3417L26.5778 68.2406C25.9134 67.9548 25.4193 67.613 25.4761 67.4729H25.4818Z" fill="white"/>
<path d="M27.7876 61.9812C27.8444 61.8411 28.4351 61.9587 29.0995 62.2445L69.1818 79.3568C69.8462 79.6426 70.3403 79.9844 70.2835 80.1245C70.2267 80.2589 69.6361 80.1413 68.9717 79.8611L28.8894 62.7488C28.2249 62.463 27.7309 62.1212 27.7876 61.9812Z" fill="white"/>
<path d="M30.0982 56.4911C30.155 56.351 30.7456 56.4687 31.41 56.7544L71.4923 73.8667C72.1568 74.1525 72.6508 74.4943 72.5941 74.6344C72.5373 74.7745 71.9467 74.6512 71.2822 74.371L31.1999 57.2587C30.5355 56.9786 30.0414 56.6312 30.0982 56.4911Z" fill="white"/>
<path d="M32.4039 50.9942C32.4606 50.8542 33.0513 50.9718 33.7157 51.2576L73.798 68.3699C74.4624 68.6557 74.9565 68.9975 74.8997 69.1376C74.8429 69.2776 74.2523 69.16 73.5879 68.8742L33.5056 51.7619C32.8411 51.4761 32.3471 51.1343 32.4039 50.9942Z" fill="white"/>
<path d="M34.7095 45.5025C34.7663 45.3624 35.3569 45.4801 36.0214 45.7658L76.1037 62.8782C76.7681 63.1583 77.2622 63.5057 77.2054 63.6458C77.1486 63.7859 76.558 63.6682 75.8935 63.3824L35.8112 46.2701C35.1468 45.9844 34.6527 45.6426 34.7095 45.5025Z" fill="white"/>
<path d="M37.021 40.0124C37.0778 39.8723 37.6685 39.99 38.3329 40.2757L78.4152 57.388C79.0796 57.6738 79.5737 58.0156 79.5169 58.1557C79.4601 58.2958 78.8695 58.1781 78.2051 57.8923L38.1228 40.78C37.4583 40.4943 36.9643 40.1525 37.021 40.0124Z" fill="white"/>
<path d="M39.3267 34.5206C39.3835 34.3805 39.9741 34.4982 40.6386 34.784L80.7209 51.8963C81.3853 52.182 81.8794 52.5238 81.8226 52.6639C81.7658 52.804 81.1752 52.6863 80.5107 52.4006L40.4284 35.2883C39.764 35.0025 39.2699 34.6607 39.3267 34.5206Z" fill="white"/>
<path d="M41.6382 29.0238C41.695 28.8837 42.2856 29.0014 42.9501 29.2871L83.0324 46.3995C83.6968 46.6852 84.1909 47.027 84.1341 47.1671C84.0773 47.3072 83.4867 47.1895 82.8223 46.9037L42.74 29.7914C42.0755 29.5113 41.5814 29.1639 41.6382 29.0238Z" fill="white"/>
<path d="M87.6205 42.4151C87.6205 42.4151 88.7903 39.8825 85.1444 37.5123C83.861 36.6774 82.5548 35.8818 81.243 35.0861C79.9822 34.3185 78.642 33.6125 77.4778 32.6879C77.0235 32.3237 76.9156 31.5841 76.8077 31.0125C76.7906 30.9117 76.7679 30.8108 76.7509 30.71L62.7124 24.7761C62.5704 24.8714 62.4285 24.961 62.2922 25.0563C61.8038 25.3813 61.1961 25.8351 60.6112 25.7679C59.129 25.6054 57.6752 25.1684 56.2327 24.8266C54.7391 24.4736 53.2456 24.1206 51.7349 23.8068C47.4643 22.9327 46.4648 25.5326 46.4648 25.5326L67.1136 33.803L87.6148 42.4151H87.6205Z" fill="#074785"/>
<path d="M84.8778 36.044C83.5944 35.2091 82.2882 34.4134 80.9764 33.6178C79.7156 32.8501 78.3754 32.1497 77.2112 31.2196C76.7569 30.8554 76.649 30.1157 76.5411 29.5442C76.4105 28.8606 76.2685 28.1826 76.2003 27.4878C75.9391 24.9719 75.6835 22.6914 74.048 20.8255C73.1905 19.8506 71.3675 19.0997 70.0557 19.1894C67.5569 19.3575 65.7396 20.7919 63.7463 22.3832C63.1955 22.8259 62.6048 23.2013 62.0256 23.5935C61.5372 23.9241 60.9239 24.3724 60.3446 24.3108C58.8624 24.1483 57.4086 23.7112 55.9661 23.3694C54.4725 23.0108 52.979 22.6578 51.4683 22.3496C47.1921 21.4755 46.1982 24.0754 46.1982 24.0754L66.847 32.3402L87.3482 40.958C87.3482 40.958 88.5181 38.4253 84.8722 36.0552L84.8778 36.044Z" fill="#FFA4AC"/>
<path d="M71.5036 24.4577C71.1458 24.906 70.4871 24.9844 70.0328 24.6314C69.5784 24.2728 69.4989 23.6229 69.8624 23.1746C70.2202 22.7263 70.8789 22.6479 71.3333 23.0065C71.7876 23.3595 71.8671 24.0095 71.5093 24.4577H71.5036Z" fill="#074785"/>
<path d="M71.8389 21.3751C71.8389 21.3751 71.9638 21.4368 72.1739 21.5544C72.2818 21.6105 72.4068 21.6833 72.5374 21.7898C72.6737 21.8906 72.8384 22.0027 72.986 22.1484C73.0655 22.2212 73.145 22.2941 73.2245 22.3725C73.304 22.4509 73.3779 22.5406 73.4574 22.6302C73.6221 22.8096 73.764 23.0225 73.9174 23.2354C73.9912 23.3475 74.0537 23.4651 74.1218 23.5828C74.19 23.7005 74.2524 23.8237 74.3035 23.9526C74.4285 24.2048 74.5137 24.4681 74.6045 24.7371C74.6784 25.006 74.7522 25.275 74.7976 25.5495L74.8317 25.7513L74.8544 25.953C74.8714 26.0875 74.8885 26.2163 74.8942 26.3452C74.9112 26.6029 74.9282 26.8495 74.9226 27.0848C74.9226 27.3202 74.9112 27.5387 74.8998 27.746C74.8885 27.9477 74.8658 28.1326 74.843 28.3007C74.826 28.4632 74.8033 28.6089 74.7806 28.7266C74.7408 28.9619 74.7068 29.0964 74.7068 29.0964C74.7068 29.0964 74.6727 28.9619 74.6272 28.7266C74.5818 28.4968 74.5193 28.1607 74.4512 27.7684C74.4171 27.5723 74.3831 27.3594 74.3433 27.1353C74.3092 26.9111 74.2581 26.6814 74.2184 26.4405C74.1672 26.2051 74.1218 25.953 74.0593 25.7064C74.0026 25.4599 73.9344 25.2133 73.8606 24.9668C73.7811 24.7259 73.7073 24.4793 73.6107 24.2496C73.5255 24.0142 73.4119 23.7957 73.3154 23.5772C73.2018 23.3699 73.1053 23.157 72.9803 22.972C72.9236 22.8768 72.8724 22.7815 72.8156 22.6975C72.7532 22.6078 72.6964 22.5294 72.6453 22.4453C72.5431 22.2772 72.4238 22.1428 72.3329 22.0083C72.2364 21.8794 72.1455 21.7617 72.0717 21.6721C71.9184 21.4872 71.8389 21.3751 71.8389 21.3751Z" fill="#FD6085"/>
<path d="M62.9344 24.6134C62.9344 24.6134 63.0139 24.507 63.1672 24.3333C63.3206 24.1596 63.5477 23.9186 63.8373 23.6497C64.1213 23.3751 64.4734 23.0725 64.8652 22.7756C65.064 22.6243 65.2685 22.473 65.4843 22.3273C65.7001 22.176 65.9272 22.0415 66.1487 21.9015C66.3815 21.767 66.6087 21.6325 66.8472 21.5148C67.0801 21.3972 67.3186 21.2851 67.5514 21.1898C67.7786 21.089 68.0171 21.0105 68.2329 20.9377C68.4544 20.8705 68.6702 20.8144 68.8689 20.7752C69.0734 20.7416 69.2494 20.7024 69.4198 20.6968C69.5845 20.6912 69.7265 20.6799 69.8457 20.6855C70.0842 20.708 70.2149 20.7248 70.2149 20.7248C70.2149 20.7248 70.0842 20.7696 69.8628 20.8256C69.7549 20.8536 69.6242 20.9153 69.4766 20.9601C69.4028 20.9825 69.3232 21.0161 69.2437 21.0554C69.1642 21.089 69.0791 21.1226 68.9882 21.1618C68.903 21.1954 68.8121 21.2459 68.7213 21.2907C68.6304 21.3355 68.5282 21.3747 68.4317 21.4308C68.2386 21.5316 68.0284 21.6325 67.824 21.7558C67.7218 21.8174 67.6082 21.8678 67.506 21.9295C67.4038 21.9911 67.2902 22.0527 67.1823 22.1144C66.9665 22.2432 66.745 22.3721 66.5235 22.501C66.0805 22.77 65.6376 23.0333 65.2287 23.2855C65.0186 23.4087 64.8198 23.532 64.6267 23.6497C64.4393 23.7673 64.2519 23.8682 64.0815 23.969C63.9169 24.0699 63.7578 24.154 63.6159 24.238C63.4796 24.3221 63.3546 24.3837 63.2524 24.4397C63.048 24.5518 62.9287 24.6078 62.9287 24.6078L62.9344 24.6134Z" fill="white"/>
<path d="M48.3223 23.4642C48.3223 23.4642 48.4699 23.5202 48.7539 23.6267C49.0321 23.7331 49.4467 23.89 49.9692 24.0917C51.0141 24.5008 52.5077 25.0667 54.2909 25.7783C55.1825 26.1313 56.1479 26.5179 57.1701 26.927C58.1923 27.336 59.2657 27.7731 60.3788 28.2213C61.4918 28.6752 62.639 29.1459 63.8032 29.6221C64.9674 30.104 66.1486 30.5915 67.3355 31.079C68.5167 31.5721 69.698 32.0651 70.8565 32.5526C72.015 33.0401 73.1565 33.522 74.2639 33.9927C76.473 34.9284 78.5288 35.8137 80.2893 36.5814C82.0498 37.3434 83.5093 38.0046 84.5315 38.4528C85.0426 38.6826 85.4458 38.8619 85.7184 38.9851C85.991 39.1084 86.1386 39.1757 86.1386 39.1757C86.1386 39.1757 85.991 39.1196 85.707 39.0132C85.4288 38.9067 85.0142 38.7498 84.4917 38.5481C83.4468 38.1391 81.9532 37.5731 80.17 36.8615C78.3811 36.1555 76.3026 35.3262 74.0822 34.4185C72.9691 33.9646 71.8219 33.4996 70.6577 33.0177C69.4935 32.5358 68.3123 32.0483 67.1254 31.5608C65.9442 31.0678 64.7629 30.5747 63.6044 30.0872C62.4459 29.5997 61.3044 29.1122 60.197 28.6472C59.0953 28.1765 58.0277 27.717 57.0168 27.2856C56.0059 26.8485 55.0519 26.4339 54.1716 26.0529C52.4111 25.2908 50.9516 24.6296 49.9294 24.1814C49.4183 23.9516 49.0151 23.7723 48.7425 23.6491C48.4699 23.5258 48.3223 23.4586 48.3223 23.4586V23.4642Z" fill="#FD6085"/>
<path d="M9.54412 108.961L16.3918 110.357L9.54412 111.847L8.14453 119.259L6.87145 111.847L0 110.357L6.87145 108.961L8.14453 101.572L9.54412 108.961Z" fill="#FD6085"/>
</g>
<defs>
<clipPath id="clip0_19_11410">
<rect width="150" height="143" fill="white" transform="translate(0 0.5)"/>
</clipPath>
</defs>
</svg>
