<svg width="154" height="123" viewBox="0 0 154 123" fill="none" xmlns="http://www.w3.org/2000/svg">
<g clip-path="url(#clip0_9_2230)">
<path fill-rule="evenodd" clip-rule="evenodd" d="M128.075 87.1308C129.052 86.023 131.049 83.3374 133.246 78.0082L129.754 78.9734L128.292 79.6448C126.797 58.1349 122.586 36.0627 116.997 13.5877C116.654 12.2197 115.284 11.1706 113.948 11.2713C87.8397 13.1932 60.5874 18.5392 32.65 24.9762C32.4996 22.4165 32.107 17.9433 31.2381 18.4973C30.0267 19.2778 25.8662 27.729 25.8662 27.729C25.649 28.1318 25.532 28.5766 25.5571 29.0214C26.6431 52.3609 31.1044 76.3717 37.1949 100.878C37.5374 102.254 38.9075 103.295 40.2442 103.194C67.7806 101.163 96.5952 95.3303 126.137 88.4233C126.621 88.3058 127.081 88.0792 127.457 87.7687C127.691 87.5756 127.908 87.3658 128.083 87.1225L128.075 87.1308Z" fill="#F1854F"/>
<path d="M133.422 77.0097C133.481 78.319 132.353 79.6534 130.916 79.9891C101.374 86.8877 72.5681 92.7288 45.0233 94.7598C43.6866 94.8605 42.3165 93.8114 41.974 92.4435C35.8835 67.9459 31.4222 43.9266 30.3362 20.5872C30.2777 19.2779 31.4055 17.9435 32.8425 17.6078C62.384 10.7008 91.1986 4.85969 118.735 2.82871C120.072 2.728 121.442 3.77706 121.784 5.15342C127.875 29.651 132.328 53.6703 133.422 77.0097Z" fill="#F7CB71"/>
<path d="M69.3018 40.2668C69.3101 40.4514 69.1347 40.6444 68.9175 40.6948C64.406 41.6767 59.9949 42.5076 55.7926 42.8013C55.5837 42.8181 55.3748 42.667 55.3247 42.474C54.389 38.9827 53.7123 35.567 53.5452 32.2436C53.5369 32.0589 53.7123 31.8659 53.9295 31.8155C58.4409 30.8336 62.8521 30.0028 67.0628 29.709C67.2716 29.6923 67.4805 29.8433 67.5306 30.0363C68.4663 33.5276 69.143 36.9433 69.3101 40.2668H69.3018Z" fill="white"/>
<path d="M73.0859 60.8206C73.0943 61.0052 72.9188 61.1982 72.7016 61.2402C68.1902 62.2221 63.779 63.053 59.5767 63.3467C59.3679 63.3551 59.159 63.2124 59.1089 63.0194C58.1732 59.5281 57.4965 56.1124 57.3294 52.789C57.321 52.6043 57.4965 52.4113 57.7137 52.361C62.2335 51.379 66.6363 50.5482 70.8469 50.2544C71.0475 50.2377 71.2563 50.3887 71.3148 50.5818C72.2505 54.073 72.9272 57.4888 73.0943 60.8122L73.0859 60.8206Z" fill="white"/>
<path d="M76.8704 81.3823C76.8787 81.567 76.7033 81.76 76.4861 81.802C71.9663 82.7839 67.5635 83.6147 63.3528 83.9085C63.144 83.9253 62.9351 83.7742 62.885 83.5812C61.9576 80.0899 61.2726 76.6742 61.1055 73.3507C61.1055 73.1661 61.2726 72.9731 61.4898 72.9227C66.0096 71.9408 70.4124 71.11 74.623 70.8162C74.8319 70.7994 75.0324 70.9505 75.0909 71.1435C76.0182 74.6348 76.7033 78.0505 76.8704 81.3739V81.3823Z" fill="white"/>
<g clip-path="url(#clip1_9_2230)">
<path d="M41.6119 105.887C55.6271 100.021 62.2337 83.9048 56.3681 69.8896C50.5026 55.8744 34.3861 49.2678 20.3709 55.1334C6.35569 60.9989 -0.250888 77.1155 5.61467 91.1306C11.4802 105.146 27.5967 111.752 41.6119 105.887Z" fill="url(#paint0_linear_9_2230)"/>
<path fill-rule="evenodd" clip-rule="evenodd" d="M20.378 91.7923C19.1356 91.3762 18.1852 90.2592 18.523 89.2675C20.3494 83.9387 26.1379 76.1649 30.3575 68.6419C31.1648 67.2057 33.4378 67.4565 34.2051 68.9098C38.2186 76.5468 43.5777 84.2522 45.261 89.6266C45.5701 90.6239 44.5911 91.7125 43.3372 92.0943C35.6536 94.26 27.9986 94.1575 20.378 91.7809V91.7923Z" fill="#074785"/>
<path fill-rule="evenodd" clip-rule="evenodd" d="M18.9222 91.103C17.6797 90.6869 16.735 89.5699 17.0671 88.5782C18.8935 83.2494 24.6877 75.4756 28.9074 67.9583C29.7147 66.5221 31.9877 66.7729 32.7549 68.2262C36.7685 75.8632 42.1275 83.5686 43.8108 88.943C44.12 89.9403 43.1409 91.0289 41.8871 91.4107C34.2035 93.5765 26.5485 93.4739 18.9279 91.0973L18.9222 91.103Z" fill="#FFC107"/>
<path d="M29.3128 74.8761C29.4436 74.7088 29.6304 74.5845 29.8733 74.5033C30.1162 74.422 30.3497 74.3838 30.5786 74.3886C30.7701 74.3886 30.9569 74.3981 31.1391 74.4077C31.3213 74.4173 31.4988 74.4412 31.6716 74.4746C32.0312 74.5654 32.2835 74.7518 32.4189 75.0147C32.5544 75.2776 32.6338 75.5787 32.6478 75.9085C32.6618 76.2383 32.6478 76.5634 32.5917 76.8788C32.5403 77.1991 32.503 77.4524 32.489 77.6531C32.3348 79.4694 32.1667 81.2905 32.0359 83.1068C32.0172 83.3553 31.9985 83.5991 31.9845 83.8429C31.9658 84.0914 31.9098 84.3256 31.8117 84.5455C31.7183 84.7558 31.5595 84.904 31.34 84.9995C31.1204 85.0951 30.8962 85.1334 30.6627 85.1238C30.4291 85.1143 30.2049 85.0521 29.9901 84.947C29.7706 84.837 29.6164 84.6889 29.5277 84.4881C29.4903 84.3782 29.4576 84.2348 29.4343 84.0723C29.4109 83.905 29.3876 83.752 29.3689 83.6182C29.3502 83.4079 29.3362 83.188 29.3315 82.9586C29.3315 82.7292 29.3222 82.4998 29.3082 82.2655C29.2147 80.1959 29.0886 78.1311 28.9999 76.0615C28.9952 75.9133 29.0092 75.7221 29.0513 75.4831C29.0933 75.2442 29.182 75.0434 29.3128 74.8761ZM31.6249 86.7489C31.7183 86.8636 31.793 87.0118 31.8397 87.1839C32.0452 87.9869 31.737 88.9428 30.8262 89.0002C30.3077 89.0336 29.7239 88.809 29.5464 88.2641C29.4903 88.0681 29.4576 87.8387 29.4529 87.5806C29.4436 87.0739 29.6304 86.6246 30.1209 86.4621C30.686 86.2757 31.2932 86.3379 31.6295 86.7489H31.6249Z" fill="white"/>
</g>
<path d="M143.197 51.8399L149.572 53.1659L143.197 54.5758L141.894 61.5919L140.708 54.5758L134.316 53.1659L140.708 51.8399L141.894 44.8406L143.197 51.8399Z" fill="#FFA4AC"/>
<path d="M17.3867 33.5032L23.7611 34.8292L17.3867 36.2392L16.0834 43.2553L14.897 36.2392L8.50586 34.8292L14.897 33.5032L16.0834 26.5039L17.3867 33.5032Z" fill="#FFA4AC"/>
<path d="M122.261 61.5925L125.528 62.2639L122.261 62.9856L121.593 66.586L120.983 62.9856L117.708 62.2639L120.983 61.5925L121.593 58.0005L122.261 61.5925Z" fill="#074785"/>
<path d="M87.2304 45.277L90.497 45.9484L87.2304 46.6786L86.562 50.2706L85.9521 46.6786L82.6855 45.9484L85.9521 45.277L86.562 41.6851L87.2304 45.277Z" fill="#074785"/>
<path d="M112.085 23.1121L115.351 23.7919L112.085 24.5137L111.425 28.1141L110.815 24.5137L107.54 23.7919L110.815 23.1121L111.425 19.5286L112.085 23.1121Z" fill="#074785"/>
<path d="M42.9687 31.791L46.2353 32.4623L42.9687 33.1841L42.3003 36.7845L41.6904 33.1841L38.4238 32.4623L41.6904 31.791L42.3003 28.199L42.9687 31.791Z" fill="#074785"/>
<path d="M92.4272 25.7989L95.6938 26.4787L92.4272 27.2005L91.7589 30.8008L91.149 27.2005L87.874 26.4787L91.149 25.7989L91.7589 22.2153L92.4272 25.7989Z" fill="white"/>
<path d="M99.7372 73.8376L103.004 74.509L99.7372 75.2307L99.0689 78.8311L98.4673 75.2307L95.1924 74.509L98.4673 73.8376L99.0689 70.2456L99.7372 73.8376Z" fill="white"/>
<path fill-rule="evenodd" clip-rule="evenodd" d="M65.1166 36.222C65.4174 35.9703 65.6847 35.752 65.9521 35.5171C67.9154 33.8218 69.6531 31.9838 71.6247 30.2886C72.0425 29.9277 72.4936 29.592 72.9364 29.2647C73.2622 29.0213 74.1478 28.5177 74.34 29.2059C74.4486 29.6088 74.1144 30.062 73.9055 30.3809C72.8696 31.9503 71.3658 33.1168 70.1042 34.4764C68.5419 36.1549 66.8126 37.783 65.2586 39.4615C65.2336 39.4867 65.2169 39.5035 65.1918 39.5287C64.9913 39.7301 64.8326 39.7301 64.6404 39.5203C64.3062 39.1594 63.972 38.7985 63.6379 38.4376C62.627 37.3466 61.6244 36.2472 60.6135 35.1562C60.2961 34.8121 60.3462 34.5016 60.7556 34.2582C61.1399 34.0316 61.5158 33.8134 61.9001 33.5868C62.2176 33.3938 62.5017 33.4273 62.7523 33.6875C63.4875 34.4764 64.231 35.2569 64.9662 36.0458C65.008 36.0961 65.0498 36.1465 65.1082 36.222H65.1166Z" fill="#F1854F"/>
<path fill-rule="evenodd" clip-rule="evenodd" d="M68.851 56.7997C69.1517 56.5479 69.4191 56.3297 69.6864 56.0947C71.6497 54.3994 73.3875 52.5615 75.3591 50.8662C75.7768 50.5053 76.228 50.1696 76.6708 49.8423C76.9966 49.5989 77.8822 49.0954 78.0743 49.7836C78.1829 50.1864 77.8488 50.6396 77.6399 50.9585C76.6039 52.5279 75.1001 53.6944 73.8386 55.054C72.2763 56.7325 70.5469 58.3607 68.993 60.0392C68.9679 60.0643 68.9512 60.0811 68.9262 60.1063C68.7257 60.3077 68.5669 60.3077 68.3748 60.1063C68.0406 59.7454 67.7064 59.3845 67.3722 59.0237C66.3613 57.9326 65.3588 56.8332 64.3479 55.7422C64.0304 55.3981 64.0806 55.0876 64.4899 54.8442C64.8742 54.6176 65.2586 54.3994 65.6345 54.1728C65.952 53.9798 66.236 54.0134 66.4867 54.2735C67.2219 55.0624 67.9654 55.8513 68.7006 56.6318C68.7424 56.6822 68.7841 56.7325 68.8426 56.8081L68.851 56.7997Z" fill="#F1854F"/>
<path fill-rule="evenodd" clip-rule="evenodd" d="M72.0922 76.816C72.393 76.5642 72.6603 76.346 72.9276 76.1111C74.8909 74.4158 76.6287 72.5778 78.6003 70.8825C79.0181 70.5217 79.4692 70.186 79.912 69.8587C80.2378 69.6153 81.1234 69.1117 81.3155 69.7999C81.4242 70.2028 81.09 70.6559 80.8811 70.9749C79.8535 72.5443 78.3497 73.7108 77.0798 75.0704C75.5175 76.7489 73.7881 78.377 72.2342 80.0555C72.2092 80.0807 72.1924 80.0975 72.1674 80.1227C71.9585 80.3241 71.8081 80.3241 71.616 80.1227C71.2818 79.7618 70.9476 79.4009 70.6134 79.04C69.6026 77.949 68.6 76.8496 67.5891 75.7586C67.2717 75.4145 67.3218 75.104 67.7311 74.8606C68.1155 74.634 68.4914 74.4158 68.8757 74.1892C69.1932 73.9962 69.4772 74.0297 69.7279 74.2899C70.4631 75.0788 71.2066 75.8593 71.9418 76.6482C71.9836 76.6985 72.0254 76.7489 72.0838 76.8244L72.0922 76.816Z" fill="#F1854F"/>
<path d="M57.689 9.24842C55.2996 7.58671 52.2586 7.90562 49.8609 9.35752C48.0646 10.4485 46.0094 12.2277 45.9092 14.6112C46.5859 14.4601 47.4046 14.2755 48.215 14.0993C48.6244 12.9495 49.8358 12.1102 50.7464 11.506C52.4424 10.3898 54.5644 10.0289 56.3439 11.0948C57.6472 11.8753 58.2989 12.9831 58.4158 14.586C58.4994 15.7694 58.2905 16.7681 57.6222 17.4646C57.2379 17.1038 56.7366 16.8856 56.2019 16.8856C54.9571 16.8856 53.9545 18.0353 53.9545 19.4537C53.9545 20.872 54.9654 22.0218 56.2019 22.0218C57.3632 22.0218 58.3239 21.0063 58.4409 19.7054C59.811 18.7235 60.5462 17.2213 60.6047 15.2322C60.6799 12.6725 59.669 10.5996 57.689 9.22324V9.24842Z" fill="#074785"/>
<path d="M80.5891 4.9347C78.208 3.27299 75.1587 3.5919 72.7609 5.0438C71.09 6.05929 69.1936 7.67064 68.8594 9.81072C69.5862 9.67644 70.4634 9.51698 71.3072 9.36592C71.8252 8.43435 72.8528 7.72099 73.6465 7.20066C75.3425 6.08446 77.4645 5.72359 79.244 6.78943C80.5473 7.56993 81.199 8.67774 81.3159 10.2807C81.4078 11.464 81.1906 12.4627 80.5222 13.1593C80.1379 12.7984 79.6367 12.5802 79.102 12.5802C77.8572 12.5802 76.8546 13.73 76.8546 15.1483C76.8546 16.5667 77.8655 17.7164 79.102 17.7164C80.2632 17.7164 81.224 16.7009 81.341 15.4001C82.7111 14.4182 83.4463 12.9159 83.5048 10.9269C83.58 8.36721 82.5691 6.29427 80.5891 4.9263V4.9347Z" fill="#074785"/>
<path d="M103.497 1.11634C101.108 -0.545373 98.0668 -0.226459 95.669 1.22544C94.0232 2.22414 92.1685 3.79353 91.7842 5.88326C92.4609 5.78255 93.3381 5.66505 94.2237 5.53917C94.7417 4.6076 95.7609 3.91103 96.5546 3.39069C98.2505 2.2745 100.373 1.91362 102.152 2.97946C103.455 3.75996 104.107 4.86777 104.224 6.47073C104.308 7.65407 104.099 8.65277 103.43 9.34935C103.046 8.98847 102.553 8.77027 102.01 8.77027C100.765 8.77027 99.7627 9.92003 99.7627 11.3384C99.7627 12.7567 100.774 13.9065 102.01 13.9065C103.18 13.9065 104.132 12.891 104.249 11.5901C105.619 10.6082 106.363 9.10596 106.413 7.11695C106.488 4.55725 105.477 2.48431 103.497 1.10794V1.11634Z" fill="#074785"/>
<path d="M110.898 80.6349C110.898 80.6349 111.157 80.5174 111.625 80.3411C112.085 80.1649 112.753 79.9215 113.555 79.6781C114.357 79.4179 115.293 79.1578 116.304 78.8808C117.315 78.6207 118.401 78.3689 119.495 78.1339C120.581 77.9073 121.684 77.7059 122.712 77.5464C123.748 77.387 124.708 77.2611 125.544 77.1856C126.379 77.0932 127.073 77.0597 127.566 77.0345C128.059 77.0093 128.343 77.0177 128.343 77.0177C128.343 77.0177 128.084 77.1352 127.616 77.3114C127.156 77.4877 126.488 77.7311 125.686 77.9744C124.884 78.2346 123.948 78.4948 122.937 78.7633C121.926 79.0235 120.84 79.2753 119.746 79.5019C118.66 79.7285 117.557 79.9215 116.529 80.0893C115.493 80.2404 114.533 80.3747 113.697 80.4502C112.862 80.5341 112.16 80.5761 111.675 80.6013C111.182 80.6265 110.898 80.6181 110.898 80.6181V80.6349Z" fill="white"/>
<path d="M34.1548 21.3426C34.1548 21.3426 34.4138 21.2251 34.8817 21.0489C35.3412 20.8726 36.0095 20.6293 36.8116 20.3859C37.6136 20.1257 38.5493 19.8572 39.5602 19.5886C40.5711 19.3284 41.6572 19.0767 42.7432 18.8417C43.8293 18.6151 44.9321 18.4136 45.9597 18.2542C46.9957 18.1031 47.9564 17.9688 48.7919 17.8933C49.6273 17.801 50.3208 17.7674 50.8137 17.7422C51.3066 17.7171 51.5906 17.7255 51.5906 17.7255C51.5906 17.7255 51.3317 17.843 50.8638 18.0192C50.4043 18.1954 49.736 18.4388 48.9339 18.6822C48.1319 18.9424 47.1962 19.2025 46.1853 19.4711C45.1744 19.7313 44.0883 19.983 42.9939 20.2096C41.9078 20.4362 40.805 20.6293 39.7774 20.7971C38.7415 20.9482 37.7807 21.0825 36.9452 21.158C36.1098 21.2419 35.4164 21.2839 34.9235 21.309C34.4305 21.3342 34.1465 21.3258 34.1465 21.3258L34.1548 21.3426Z" fill="white"/>
<path d="M62.2422 93.0309C62.2422 93.0309 62.3842 92.9974 62.6599 92.9302C62.9356 92.8715 63.3283 92.7624 63.8379 92.6533C64.3475 92.5358 64.9657 92.3931 65.6759 92.2504C66.386 92.0994 67.188 91.9231 68.0653 91.7469C68.9425 91.5706 69.8865 91.3776 70.8891 91.193C71.8916 90.9999 72.9526 90.7901 74.0471 90.5971C75.1415 90.4041 76.2777 90.2027 77.4306 90.0012C78.5836 89.7998 79.7532 89.6152 80.9312 89.4222C82.1008 89.2375 83.2788 89.0445 84.4317 88.8683C85.5846 88.6836 86.7292 88.5242 87.832 88.3647C88.9348 88.1969 89.9958 88.0458 91.0067 87.9031C92.0176 87.7605 92.9783 87.6346 93.8639 87.5255C94.3067 87.4751 94.7244 87.3996 95.1338 87.3492C95.5348 87.2989 95.9191 87.2485 96.2784 87.1982C96.9968 87.1058 97.6234 87.0303 98.1498 86.9716C98.6677 86.9128 99.0771 86.8709 99.3528 86.8457C99.6285 86.8205 99.7789 86.8037 99.7789 86.8037C99.7789 86.8037 99.6369 86.8457 99.3695 86.9296C99.1022 87.0051 98.7095 87.131 98.2082 87.2653C97.707 87.408 97.0971 87.5842 96.3953 87.7688C95.6935 87.9535 94.8999 88.1717 94.031 88.3815C93.1621 88.5829 92.2181 88.8095 91.2155 89.0193C90.213 89.2375 89.1603 89.4725 88.0659 89.6907C86.9715 89.9005 85.8353 90.1187 84.6823 90.3202C83.5294 90.53 82.3514 90.7314 81.1818 90.9244C78.8342 91.2937 76.4782 91.6546 74.2643 91.9315C73.1615 92.0742 72.0838 92.1917 71.0729 92.3176C70.0536 92.4434 69.0929 92.5274 68.2073 92.6113C66.4278 92.7875 64.9407 92.8883 63.8964 92.9554C63.3784 92.989 62.969 93.0057 62.685 93.0225C62.4009 93.0309 62.2589 93.0393 62.2589 93.0393L62.2422 93.0309Z" fill="#074785"/>
<path d="M52.3927 68.1728C51.9165 67.6524 51.1562 68.4245 51.6241 68.9449C54.5315 72.1256 55.3502 77.3373 55.3753 81.5C55.3753 82.205 56.4613 82.205 56.4613 81.5C56.4363 77.0184 55.5089 71.5885 52.3927 68.1728Z" fill="white"/>
<path d="M14.4031 62.3285C10.8357 64.7372 8.46303 68.6732 7.49391 72.8359C7.33517 73.5157 8.37948 73.8094 8.53822 73.1212C9.4405 69.2439 11.621 65.5177 14.9461 63.2685C15.5226 62.8824 14.9795 61.9341 14.3947 62.3285H14.4031Z" fill="white"/>
<path d="M19.1062 59.0562C18.3293 59.4086 17.6191 59.8115 16.9675 60.3738C16.4412 60.8354 17.2098 61.6075 17.7361 61.1459C18.3042 60.6507 18.9642 60.3066 19.6493 59.9961C20.2842 59.7024 19.7328 58.7624 19.0979 59.0562H19.1062Z" fill="white"/>
<path d="M55.3668 84.1431C55.1746 84.7894 55.1913 85.4775 54.9323 86.107C54.8154 86.3839 55.0493 86.7028 55.3083 86.7784C55.6174 86.8623 55.8597 86.6693 55.9766 86.4007C56.2356 85.7713 56.2189 85.0831 56.4111 84.4369C56.6199 83.7655 55.5673 83.4801 55.3668 84.1515V84.1431Z" fill="white"/>
</g>
<defs>
<linearGradient id="paint0_linear_9_2230" x1="13.9312" y1="48.6957" x2="100.444" y2="209.978" gradientUnits="userSpaceOnUse">
<stop stop-color="#7BFFB9"/>
<stop offset="1" stop-color="#0E9DFB"/>
</linearGradient>
<clipPath id="clip0_9_2230">
<rect width="153.046" height="123" fill="white" transform="translate(0.477539)"/>
</clipPath>
<clipPath id="clip1_9_2230">
<rect width="55" height="55" fill="white" transform="translate(3.47754 53)"/>
</clipPath>
</defs>
</svg>
