<svg width="24" height="24" viewBox="0 0 24 24" fill="none" xmlns="http://www.w3.org/2000/svg">
<rect width="24" height="24" rx="12" fill="#E6F6F1"/>
<path d="M13.9761 5.35208C13.4235 4.84556 12.5701 4.86411 12.0401 5.39414L5.4242 12.0102C4.87748 12.5569 4.87748 13.4434 5.42421 13.9901L6.35036 14.9162C6.6975 15.2634 7.19693 15.1798 7.49108 14.9837C7.66528 14.8676 7.87418 14.7999 8.1001 14.7999C8.70761 14.7999 9.2001 15.2924 9.2001 15.8999C9.2001 16.1259 9.13242 16.3348 9.01631 16.509C8.82025 16.8031 8.73665 17.3025 9.0838 17.6497L9.98826 18.5541C10.5467 19.1126 11.4564 19.0988 11.9977 18.5237L18.5968 11.5121C19.1317 10.9438 19.0986 10.048 18.5234 9.52062L17.637 8.70806C17.418 8.50735 17.1409 8.46944 16.9104 8.51057C16.6834 8.55107 16.4682 8.67121 16.3128 8.84139C16.1111 9.06238 15.822 9.20013 15.5001 9.20013C14.8926 9.20013 14.4001 8.70765 14.4001 8.10013C14.4001 7.81227 14.5101 7.55102 14.6912 7.3547C14.8474 7.18527 14.9485 6.96044 14.9692 6.7308C14.9902 6.49757 14.9283 6.22496 14.7094 6.02434L13.9761 5.35208Z" fill="#028D5E"/>
</svg>
