<svg width="360" height="280" viewBox="0 0 360 280" fill="none" xmlns="http://www.w3.org/2000/svg">
<g clip-path="url(#clip0_18_7558)">
<path fill-rule="evenodd" clip-rule="evenodd" d="M151.328 155.572L149.728 154.074L148.163 152.541L146.634 150.973L145.143 149.372L143.689 147.737L142.276 146.069L140.902 144.37L139.57 142.64L138.281 140.879L137.034 139.089L135.83 137.271L134.671 135.425L133.556 133.553L132.485 131.656L131.46 129.734L130.481 127.79L129.546 125.823L128.657 123.836L127.814 121.829L127.016 119.804L126.263 117.762L125.555 115.704L124.892 113.631L124.273 111.544L123.698 109.445L123.166 107.334L122.678 105.213L122.231 103.082L121.827 100.944L121.464 98.7983L121.141 96.6465L120.859 94.4895L120.616 92.3283L120.412 90.1638L120.247 87.9967L120.12 85.828L120.029 83.6585L119.976 81.489L119.958 79.3201L119.977 77.1527L120.031 74.9874L120.12 72.8249L120.244 70.6658L120.402 68.5108L120.595 66.3605L120.821 64.2156L121.081 62.0765L121.375 59.944L121.702 57.8185L122.063 55.7007L122.456 53.5912L122.883 51.4904L123.342 49.3992L123.834 47.3178L124.358 45.247L124.915 43.1873L125.504 41.1392L126.126 39.1034L126.779 37.0803L127.465 35.0707L128.182 33.075L128.931 31.0938L129.712 29.1277L130.524 27.1773L131.368 25.2432L132.244 23.3259L133.15 21.426L134.088 19.5442L135.056 17.6809L136.055 15.8369L137.084 14.0126L138.144 12.2087L139.234 10.4256L140.353 8.66414L141.501 6.92465L142.679 5.20779L143.885 3.51405L145.119 1.84401L146.381 0.198135L147.67 -1.42305L148.985 -3.01908L150.327 -4.58945L151.694 -6.13382L153.086 -7.65173L154.502 -9.14276L155.941 -10.6066L157.404 -12.0429L158.888 -13.4514L160.392 -14.8318L161.917 -16.184L163.462 -17.5077L165.024 -18.8027L166.604 -20.0691L168.2 -21.3067L169.811 -22.5155L171.436 -23.6955L173.075 -24.8469L174.725 -25.9698L176.386 -27.0643L178.057 -28.1307L179.737 -29.1692L181.424 -30.1802L183.117 -31.1641L184.815 -32.1212L186.517 -33.052L188.222 -33.9571L189.928 -34.8371L191.635 -35.6925L193.341 -36.5239L195.045 -37.3322L196.746 -38.118L198.443 -38.8818L200.136 -39.6245L201.824 -40.3464L203.505 -41.0482L205.181 -41.7303L206.85 -42.3931L208.512 -43.0371L210.167 -43.6626L211.815 -44.2699L213.455 -44.8593L215.088 -45.4311L216.714 -45.9854L218.332 -46.5226L219.942 -47.0426L221.545 -47.5458L223.141 -48.0323L224.729 -48.5021L226.31 -48.9554L227.883 -49.3924L229.45 -49.8131L231.009 -50.2178L232.56 -50.6066L234.104 -50.9796L235.641 -51.3372L237.17 -51.6795L238.692 -52.0069L240.206 -52.3197L241.711 -52.6184L243.209 -52.9034L244.698 -53.1752L246.177 -53.4345L247.648 -53.6819L249.109 -53.9184L250.56 -54.1448L252.001 -54.362L253.43 -54.5712L254.849 -54.7733L256.255 -54.9695L257.65 -55.1608L263.104 -55.8991L264.435 -56.0824L265.754 -56.2673L267.059 -56.4549L268.352 -56.6462L269.631 -56.8423L270.898 -57.0441L272.153 -57.2525L273.395 -57.4685L274.625 -57.693L275.844 -57.9266L277.052 -58.1703L278.248 -58.4248L279.435 -58.6906L280.611 -58.9685L281.778 -59.2589L282.937 -59.5623L284.088 -59.8792L285.231 -60.2098L286.368 -60.5545L287.498 -60.9134L288.623 -61.2867L289.744 -61.6745L290.861 -62.0767L291.975 -62.4932L293.087 -62.9239L294.197 -63.3686L295.307 -63.827L296.416 -64.2986L297.527 -64.7832L298.639 -65.2801L299.754 -65.7888L300.872 -66.3088L301.994 -66.8393L303.12 -67.3796L304.252 -67.9291L305.389 -68.4868L306.533 -69.0519L307.684 -69.6236L311.185 -71.3687L312.369 -71.9573L313.563 -72.5476L314.767 -73.1388L315.981 -73.7299L317.206 -74.3198L318.441 -74.9076L319.688 -75.4924L320.945 -76.0731L322.214 -76.6489L323.495 -77.219L324.787 -77.7824L326.09 -78.3383L327.405 -78.8859L328.732 -79.4245L330.071 -79.9535L331.421 -80.4721L332.782 -80.9798L334.155 -81.4763L335.54 -81.9613L336.936 -82.435L338.343 -82.8973L339.762 -83.3487L341.192 -83.7897L342.633 -84.2207L344.087 -84.6424L345.552 -85.0557L347.029 -85.4615L348.519 -85.8606L350.021 -86.2541L351.537 -86.6431L353.066 -87.0286L354.609 -87.4117L356.167 -87.7935L357.741 -88.1751L359.33 -88.5576L383.735 -94.4046L385.664 -94.8653L387.621 -95.3291L389.606 -95.7948L391.62 -96.261L393.663 -96.7261L395.735 -97.1886L397.835 -97.6468L399.963 -98.0992L402.12 -98.5439L404.305 -98.9792L406.518 -99.4033L408.757 -99.8142L411.023 -100.21L413.315 -100.589L415.631 -100.949L417.971 -101.288L420.335 -101.605L422.72 -101.896L425.126 -102.161L427.551 -102.396L429.995 -102.601L432.455 -102.773L434.929 -102.911L437.418 -103.011L439.917 -103.073L442.427 -103.095L444.944 -103.075L447.467 -103.011L449.994 -102.902L452.523 -102.746L455.051 -102.541L457.577 -102.286L460.098 -101.98L462.611 -101.621L465.115 -101.208L467.607 -100.741L470.085 -100.218L472.546 -99.6386L474.987 -99.0015L477.408 -98.3064L479.804 -97.5526L482.173 -96.7398L484.514 -95.8677L486.823 -94.936L489.099 -93.9447L491.338 -92.8938L493.54 -91.7834L495.701 -90.6138L497.819 -89.3855L499.893 -88.0988L501.92 -86.7545L503.898 -85.3532L505.825 -83.8957L507.7 -82.3831L509.521 -80.8164L511.287 -79.1966L512.995 -77.5251L514.644 -75.8031L516.234 -74.0321L517.762 -72.2136L519.229 -70.3492L520.633 -68.4405L521.972 -66.4893L523.248 -64.4972L524.459 -62.4663L525.604 -60.3983L526.684 -58.2951L527.698 -56.1588L528.647 -53.9914L529.53 -51.7947L530.347 -49.5708L531.1 -47.3217L531.787 -45.0491L532.409 -42.7551L532.967 -40.4416L533.461 -38.1103L533.891 -35.7632L534.258 -33.402L534.562 -31.0287L534.805 -28.645L534.987 -26.2526L535.108 -23.8533L535.17 -21.4489L535.174 -19.0409L535.12 -16.6311L535.011 -14.2211L534.846 -11.8123L534.627 -9.40646L534.356 -7.00491L534.034 -4.60912L533.662 -2.22047L533.242 0.159691L532.775 2.53012L532.263 4.88961L531.707 7.23699L531.109 9.57116L530.471 11.8911L529.793 14.1959L529.078 16.4845L528.327 18.7563L527.542 21.0103L526.723 23.2459L525.873 25.4625L524.993 27.6594L524.084 29.836L523.148 31.992L522.185 34.1268L521.198 36.2401L520.187 38.3315L519.154 40.4006L518.099 42.4473L517.025 44.4712L515.933 46.4723L514.823 48.4504L513.697 50.4054L512.555 52.3372L511.4 54.2458L510.232 56.1312L509.053 57.9934L507.862 59.8326L506.662 61.6488L505.452 63.4422L504.235 65.2128L503.01 66.961L501.779 68.6868L500.542 70.3906L499.299 72.0724L498.053 73.7326L496.803 75.3714L495.549 76.9892L494.293 78.5861L493.034 80.1624L491.773 81.7185L490.512 83.2546L489.249 84.771L487.985 86.268L486.721 87.7459L485.456 89.205L484.191 90.6455L482.927 92.0679L481.663 93.4722L480.4 94.8589L479.137 96.2281L477.874 97.5802L476.613 98.9153L475.352 100.234L474.093 101.536L472.834 102.822L471.576 104.092L470.32 105.346L469.064 106.585L467.81 107.809L466.556 109.017L465.304 110.211L464.053 111.39L462.803 112.555L461.554 113.706L460.307 114.843L459.061 115.966L457.817 117.076L456.574 118.173L455.333 119.257L454.093 120.328L452.856 121.387L451.62 122.434L450.386 123.469L449.155 124.493L447.926 125.505L446.7 126.507L445.476 127.499L444.256 128.481L443.039 129.453L441.826 130.417L440.617 131.372L435.839 135.131L434.663 136.061L433.495 136.988L432.337 137.915L431.189 138.842L430.053 139.772L428.928 140.705L427.816 141.643L426.717 142.589L425.631 143.542L424.56 144.505L423.504 145.48L422.463 146.468L421.437 147.47L420.426 148.489L419.431 149.526L418.452 150.582L417.488 151.658L416.539 152.757L415.605 153.88L414.686 155.028L413.781 156.201L412.888 157.402L412.009 158.631L411.141 159.89L410.283 161.178L409.436 162.497L408.597 163.847L407.765 165.229L406.939 166.643L406.118 168.089L405.301 169.567L404.484 171.077L403.668 172.619L402.851 174.193L402.031 175.798L401.206 177.433L400.374 179.097L399.534 180.79L396.948 186.028L396.059 187.822L395.152 189.638L394.227 191.472L393.281 193.325L392.314 195.192L391.324 197.073L390.308 198.964L389.267 200.864L388.197 202.769L387.099 204.677L385.971 206.585L384.811 208.49L383.619 210.389L382.394 212.28L381.135 214.158L379.841 216.022L378.511 217.867L377.146 219.691L375.745 221.49L374.307 223.261L372.833 225.001L371.322 226.706L369.774 228.374L368.191 230.001L366.572 231.584L364.918 233.121L363.229 234.607L361.506 236.04L359.751 237.418L357.964 238.738L356.145 239.996L354.298 241.191L352.422 242.32L350.519 243.381L348.591 244.371L346.639 245.29L344.666 246.135L342.672 246.904L340.66 247.596L338.632 248.21L336.589 248.744L334.533 249.199L332.467 249.572L330.392 249.864L328.312 250.075L326.227 250.203L324.139 250.25L322.052 250.216L319.967 250.1L317.885 249.905L315.81 249.629L313.743 249.276L311.685 248.846L309.64 248.34L307.607 247.76L305.59 247.11L303.59 246.39L301.608 245.604L299.645 244.755L297.703 243.845L295.782 242.879L293.884 241.858L292.009 240.788L290.159 239.671L288.332 238.512L286.53 237.314L284.752 236.081L282.999 234.818L281.271 233.527L279.566 232.214L277.885 230.881L276.226 229.533L274.589 228.174L272.973 226.808L271.377 225.437L269.799 224.066L268.239 222.698L266.694 221.336L263.646 218.643L262.139 217.317L260.642 216.008L259.153 214.719L257.669 213.45L256.19 212.205L254.714 210.984L253.238 209.788L251.762 208.619L250.283 207.476L248.801 206.361L247.313 205.274L245.819 204.215L244.317 203.183L242.805 202.179L241.283 201.203L239.748 200.253L238.201 199.33L236.639 198.432L235.063 197.558L233.47 196.708L231.861 195.881L230.235 195.074L228.591 194.287L226.928 193.518L225.247 192.766L223.547 192.028L221.828 191.304L220.09 190.591L218.334 189.887L216.559 189.191L214.765 188.5L212.954 187.813L211.126 187.128L209.282 186.441L203.658 184.36L201.757 183.651L199.844 182.933L197.921 182.201L195.989 181.455L194.05 180.693L192.105 179.913L190.155 179.113L188.203 178.292L186.25 177.448L184.298 176.579L182.347 175.684L180.402 174.762L178.462 173.812L176.53 172.831L174.607 171.82L172.697 170.777L170.799 169.702L168.917 168.593L167.053 167.45L165.207 166.273L163.381 165.06L161.579 163.812L159.8 162.528L158.048 161.209L156.322 159.853L154.626 158.462L152.961 157.035L151.328 155.572Z" fill="#FCEBC3"/>
<rect x="188.965" y="87.5082" width="80.359" height="165.492" rx="12.7301" fill="#737B8C"/>
<g clip-path="url(#clip1_18_7558)">
<rect x="193.739" y="97.0559" width="70.8114" height="147.192" rx="9.5476" fill="#EDECE9"/>
<path d="M275.572 163.367C297.914 170.682 321.956 158.5 329.271 136.158C336.585 113.817 324.404 89.7752 302.062 82.4604C279.72 75.1456 255.679 87.3274 248.364 109.669C245.005 119.929 245.757 130.546 249.716 139.738C250.714 142.055 239.716 151.628 239.716 151.628L257.367 151.609C262.156 156.867 268.33 160.996 275.572 163.367Z" fill="#CDC9C5"/>
</g>
<rect x="200.104" y="164.685" width="11.9345" height="11.1389" rx="1.59127" fill="#BEBBB3"/>
<rect x="216.017" y="164.685" width="11.9345" height="11.1389" rx="1.59127" fill="#BEBBB3"/>
<rect x="231.134" y="164.685" width="11.9345" height="11.1389" rx="1.59127" fill="#BEBBB3"/>
<rect x="247.047" y="164.685" width="11.9345" height="11.1389" rx="1.59127" fill="#BEBBB3"/>
<path d="M285.237 151.159C314.239 151.159 337.749 127.649 337.749 98.6471C337.749 69.6456 314.239 46.1353 285.237 46.1353C256.236 46.1353 232.726 69.6456 232.726 98.6471C232.726 111.965 237.683 124.124 245.854 133.381C247.913 135.715 238.693 151.159 238.693 151.159L259.379 144.362C267.013 148.689 275.836 151.159 285.237 151.159Z" fill="white"/>
<rect x="252.616" y="77.9606" width="65.242" height="43.7598" rx="6.36507" fill="#F6C24C"/>
<path d="M260.572 87.5083L282.966 100.961C285.488 102.476 288.638 102.485 291.168 100.984L313.88 87.5083" stroke="#3A4F6C" stroke-width="1.59127"/>
<rect x="300.354" y="71.5955" width="29.5622" height="19.5549" rx="9.77745" fill="#02A971"/>
<path d="M309.082 84.3038C308.456 84.3038 307.914 84.168 307.456 83.8963C307.001 83.6215 306.649 83.2323 306.398 82.7286C306.151 82.2218 306.028 81.6173 306.028 80.9151C306.028 80.2099 306.153 79.6024 306.403 79.0926C306.656 78.5827 307.012 78.1905 307.47 77.9157C307.928 77.6379 308.465 77.499 309.082 77.499C309.696 77.499 310.23 77.6364 310.685 77.9111C311.14 78.1859 311.491 78.5782 311.738 79.088C311.988 79.5978 312.113 80.2069 312.113 80.9151C312.113 81.6143 311.99 82.2172 311.742 82.724C311.498 83.2308 311.149 83.6215 310.694 83.8963C310.239 84.168 309.702 84.3038 309.082 84.3038ZM309.082 83.2048C309.406 83.2048 309.685 83.1285 309.92 82.9758C310.158 82.8201 310.341 82.5759 310.469 82.2431C310.598 81.9073 310.662 81.4708 310.662 80.9335C310.662 80.3809 310.596 79.9336 310.465 79.5917C310.337 79.2498 310.153 78.9995 309.915 78.8407C309.68 78.6789 309.402 78.598 309.082 78.598C308.761 78.598 308.482 78.6789 308.244 78.8407C308.006 78.9995 307.821 79.2513 307.69 79.5963C307.559 79.9382 307.493 80.3839 307.493 80.9335C307.493 81.4738 307.559 81.9104 307.69 82.2431C307.821 82.5759 308.006 82.8201 308.244 82.9758C308.482 83.1285 308.761 83.2048 309.082 83.2048ZM312.765 78.7812V77.5906H318.063V78.7812H316.108V84.2122H314.766V78.7812H312.765ZM318.977 84.2122V77.5906H321.413C321.895 77.5906 322.327 77.6745 322.709 77.8424C323.09 78.0073 323.391 78.2515 323.611 78.5751C323.834 78.8987 323.945 79.2941 323.945 79.7612C323.945 80.2008 323.847 80.5763 323.652 80.8877C323.457 81.1991 323.182 81.4372 322.828 81.602C322.477 81.7669 322.063 81.8493 321.587 81.8493H320.323V84.2122H318.977ZM320.309 80.8144H321.55C321.886 80.8144 322.161 80.7075 322.374 80.4938C322.588 80.2771 322.695 80.01 322.695 79.6925C322.695 79.3628 322.582 79.1017 322.356 78.9094C322.13 78.714 321.855 78.6163 321.532 78.6163H320.309V80.8144Z" fill="white"/>
<path d="M330.986 143.998C328.334 146.65 321.121 152.352 313.482 153.944" stroke="white" stroke-width="1.59127"/>
<path d="M244.262 50.9091C246.914 48.257 254.128 42.5549 261.766 40.9637" stroke="white" stroke-width="1.59127"/>
<path d="M342.523 147.181C337.701 152.061 324.585 162.552 310.697 165.48" stroke="white" stroke-width="1.59127"/>
<path d="M232.725 47.7265C237.547 42.8466 250.663 32.3549 264.551 29.4269" stroke="white" stroke-width="1.59127"/>
<path d="M295.182 194.123C296.72 194.123 297.967 192.876 297.967 191.338C297.967 189.801 296.72 188.554 295.182 188.554C293.644 188.554 292.397 189.801 292.397 191.338C292.397 192.876 293.644 194.123 295.182 194.123Z" stroke="#F3B119" stroke-width="1.59127" stroke-miterlimit="10"/>
<path d="M283.801 34.2008C285.119 34.2008 286.188 33.1322 286.188 31.8139C286.188 30.4957 285.119 29.427 283.801 29.427C282.483 29.427 281.414 30.4957 281.414 31.8139C281.414 33.1322 282.483 34.2008 283.801 34.2008Z" stroke="#F3B119" stroke-width="1.59127" stroke-miterlimit="10"/>
<path d="M202.485 67.2144V69.1577" stroke="#F3B119" stroke-width="1.59127" stroke-miterlimit="10" stroke-linecap="round"/>
<path d="M202.485 73.219V75.1709" stroke="#F3B119" stroke-width="1.59127" stroke-miterlimit="10" stroke-linecap="round"/>
<path d="M198.513 71.1863H200.456" stroke="#F3B119" stroke-width="1.59127" stroke-miterlimit="10" stroke-linecap="round"/>
<path d="M204.517 71.1863H206.469" stroke="#F3B119" stroke-width="1.59127" stroke-miterlimit="10" stroke-linecap="round"/>
<path d="M338.942 44.9366V46.2969" stroke="#F3B119" stroke-width="1.27301" stroke-miterlimit="10" stroke-linecap="round"/>
<path d="M338.942 49.1384V50.5048" stroke="#F3B119" stroke-width="1.27301" stroke-miterlimit="10" stroke-linecap="round"/>
<path d="M336.161 47.7179H337.521" stroke="#F3B119" stroke-width="1.27301" stroke-miterlimit="10" stroke-linecap="round"/>
<path d="M340.363 47.7182H341.73" stroke="#F3B119" stroke-width="1.27301" stroke-miterlimit="10" stroke-linecap="round"/>
<path d="M160.717 126.494V127.855" stroke="#F3B119" stroke-width="1.27301" stroke-miterlimit="10" stroke-linecap="round"/>
<path d="M160.717 130.696V132.063" stroke="#F3B119" stroke-width="1.27301" stroke-miterlimit="10" stroke-linecap="round"/>
<path d="M157.936 129.276H159.296" stroke="#F3B119" stroke-width="1.27301" stroke-miterlimit="10" stroke-linecap="round"/>
<path d="M162.138 129.276H163.504" stroke="#F3B119" stroke-width="1.27301" stroke-miterlimit="10" stroke-linecap="round"/>
<rect width="360" height="280" fill="url(#paint0_linear_18_7558)"/>
</g>
<defs>
<linearGradient id="paint0_linear_18_7558" x1="180" y1="0" x2="180" y2="280" gradientUnits="userSpaceOnUse">
<stop stop-color="#F9F6F1" stop-opacity="0"/>
<stop offset="0.830072" stop-color="#F9F6F1"/>
</linearGradient>
<clipPath id="clip0_18_7558">
<rect width="360" height="280" fill="white"/>
</clipPath>
<clipPath id="clip1_18_7558">
<rect x="193.739" y="97.0559" width="70.8114" height="147.192" rx="9.5476" fill="white"/>
</clipPath>
</defs>
</svg>
