<svg viewBox="0 0 25 25" fill="none" xmlns="http://www.w3.org/2000/svg">
<path d="M14.7857 3.61111C14.7857 2.99746 15.2974 2.5 15.9286 2.5H19.3571C19.9883 2.5 20.5 2.99746 20.5 3.61111V21.3889C20.5 22.0025 19.9883 22.5 19.3571 22.5H15.9286C15.2974 22.5 14.7857 22.0025 14.7857 21.3889V3.61111Z" fill="white"/>
<path d="M4.5 3.61111C4.5 2.99746 5.01167 2.5 5.64286 2.5H9.07143C9.70261 2.5 10.2143 2.99746 10.2143 3.61111V21.3889C10.2143 22.0025 9.70261 22.5 9.07143 22.5H5.64286C5.01167 22.5 4.5 22.0025 4.5 21.3889V3.61111Z" fill="white"/>
</svg>
