<svg width="14" height="16" viewBox="0 0 14 16" fill="none" xmlns="http://www.w3.org/2000/svg">
<path d="M3.49957 9C3.22343 9 2.99957 9.22386 2.99957 9.5V11.5C2.99957 11.7761 3.22343 12 3.49957 12C3.77572 12 3.99957 11.7761 3.99957 11.5V11.3336H4.33277C4.97718 11.3336 5.49957 10.8112 5.49957 10.1668C5.49957 9.52239 4.97718 9 4.33277 9H3.49957ZM4.33277 10.3336H3.99957V10H4.33277C4.42489 10 4.49957 10.0747 4.49957 10.1668C4.49957 10.2589 4.42489 10.3336 4.33277 10.3336ZM9.00028 9.49937C9.00063 9.22347 9.22439 9 9.50028 9H10.4986C10.7747 9 10.9986 9.22386 10.9986 9.5C10.9986 9.77614 10.7747 10 10.4986 10H9.99965L9.99923 10.3345H10.4986C10.7747 10.3345 10.9986 10.5583 10.9986 10.8345C10.9986 11.1106 10.7747 11.3345 10.4986 11.3345H9.99987L10.0003 11.4987C10.001 11.7749 9.77769 11.9993 9.50155 12C9.22541 12.0007 9.00098 11.7774 9.00028 11.5013L8.9986 10.8339L9.00028 9.49937ZM6.49817 9C6.22203 9 5.99817 9.22386 5.99817 9.5V11.5C5.99817 11.7761 6.22203 12 6.49817 12H6.99962C7.82804 12 8.49961 11.3284 8.49962 10.5C8.49962 9.67158 7.82805 9 6.99962 9H6.49817ZM6.99817 11V10H6.99962C7.27576 10 7.49962 10.2239 7.49962 10.5C7.49961 10.7761 7.27576 11 6.99962 11H6.99817ZM0.999573 2C0.999573 0.895431 1.895 0 2.99957 0H7.58536C7.98318 0 8.36471 0.158035 8.64602 0.43934L12.5602 4.35355C12.8415 4.63486 12.9996 5.01639 12.9996 5.41421V7.08165C13.5815 7.28793 13.9983 7.84321 13.9983 8.49585V12.499C13.9983 13.1517 13.5815 13.707 12.9996 13.9132V14C12.9996 15.1046 12.1041 16 10.9996 16H2.99957C1.895 16 0.999573 15.1046 0.999573 14V13.9132C0.417711 13.7069 0.000976562 13.1516 0.000976562 12.499V8.49585C0.000976562 7.84326 0.41771 7.28801 0.999573 7.0817V2ZM11.9996 6H8.49957C7.67115 6 6.99957 5.32843 6.99957 4.5V1H2.99957C2.44729 1 1.99957 1.44772 1.99957 2V6.99585H11.9996V6ZM1.99957 13.999C1.99957 14.5513 2.44729 15 2.99957 15H10.9996C11.5519 15 11.9996 14.5513 11.9996 13.999H1.99957ZM7.99957 1.20711V4.5C7.99957 4.77614 8.22343 5 8.49957 5H11.7925L7.99957 1.20711ZM1.50098 7.99585C1.22483 7.99585 1.00098 8.21971 1.00098 8.49585V12.499C1.00098 12.7752 1.22483 12.999 1.50098 12.999H12.4983C12.7744 12.999 12.9983 12.7752 12.9983 12.499V8.49585C12.9983 8.21971 12.7744 7.99585 12.4983 7.99585H1.50098Z" fill="#333333"/>
</svg>
