<svg width="20" height="21" viewBox="0 0 20 21" fill="none" xmlns="http://www.w3.org/2000/svg">
<path d="M6.49957 11.7578C6.22343 11.7578 5.99957 11.9817 5.99957 12.2578V14.2578C5.99957 14.534 6.22343 14.7578 6.49957 14.7578C6.77572 14.7578 6.99957 14.534 6.99957 14.2578V14.0914H7.33277C7.97718 14.0914 8.49957 13.569 8.49957 12.9246C8.49957 12.2802 7.97718 11.7578 7.33277 11.7578H6.49957ZM7.33277 13.0914H6.99957V12.7578H7.33277C7.42489 12.7578 7.49957 12.8325 7.49957 12.9246C7.49957 13.0167 7.42489 13.0914 7.33277 13.0914ZM12.0003 12.2572C12.0006 11.9813 12.2244 11.7578 12.5003 11.7578H13.4986C13.7747 11.7578 13.9986 11.9817 13.9986 12.2578C13.9986 12.534 13.7747 12.7578 13.4986 12.7578H12.9997L12.9992 13.0923H13.4986C13.7747 13.0923 13.9986 13.3162 13.9986 13.5923C13.9986 13.8684 13.7747 14.0923 13.4986 14.0923H12.9999L13.0003 14.2565C13.001 14.5327 12.7777 14.7571 12.5015 14.7578C12.2254 14.7585 12.001 14.5352 12.0003 14.2591L11.9986 13.5917L12.0003 12.2572ZM9.49817 11.7578C9.22203 11.7578 8.99817 11.9817 8.99817 12.2578V14.2578C8.99817 14.534 9.22203 14.7578 9.49817 14.7578H9.99962C10.828 14.7578 11.4996 14.0862 11.4996 13.2578C11.4996 12.4294 10.828 11.7578 9.99962 11.7578H9.49817ZM9.99817 13.7578V12.7578H9.99962C10.2758 12.7578 10.4996 12.9817 10.4996 13.2578C10.4996 13.534 10.2758 13.7578 9.99962 13.7578H9.99817ZM3.99957 4.75781C3.99957 3.65324 4.895 2.75781 5.99957 2.75781H10.5854C10.9832 2.75781 11.3647 2.91585 11.646 3.19715L15.5602 7.11137C15.8415 7.39267 15.9996 7.7742 15.9996 8.17203V9.83946C16.5815 10.0457 16.9983 10.601 16.9983 11.2537V15.2568C16.9983 15.9095 16.5815 16.4648 15.9996 16.671V16.7578C15.9996 17.8624 15.1041 18.7578 13.9996 18.7578H5.99957C4.895 18.7578 3.99957 17.8624 3.99957 16.7578V16.671C3.41771 16.4647 3.00098 15.9094 3.00098 15.2568V11.2537C3.00098 10.6011 3.41771 10.0458 3.99957 9.83951V4.75781ZM14.9996 8.75781H11.4996C10.6711 8.75781 9.99957 8.08624 9.99957 7.25781V3.75781H5.99957C5.44729 3.75781 4.99957 4.20553 4.99957 4.75781V9.75366H14.9996V8.75781ZM4.99957 16.7568C4.99957 17.3091 5.44729 17.7578 5.99957 17.7578H13.9996C14.5519 17.7578 14.9996 17.3091 14.9996 16.7568H4.99957ZM10.9996 3.96492V7.25781C10.9996 7.53396 11.2234 7.75781 11.4996 7.75781H14.7925L10.9996 3.96492ZM4.50098 10.7537C4.22483 10.7537 4.00098 10.9775 4.00098 11.2537V15.2568C4.00098 15.533 4.22483 15.7568 4.50098 15.7568H15.4983C15.7744 15.7568 15.9983 15.533 15.9983 15.2568V11.2537C15.9983 10.9775 15.7744 10.7537 15.4983 10.7537H4.50098Z" fill="#333333"/>
</svg>
