<svg width="19" height="21" viewBox="0 0 19 21" fill="none" xmlns="http://www.w3.org/2000/svg">
<path d="M17.5 18C17.5 18.275 17.276 18.5 17 18.5H12C12 19.0368 11.8792 19.5454 11.6632 20H17C18.104 20 19 19.104 19 18V7.828C19 7.298 18.789 6.789 18.414 6.414L12.585 0.586C12.57 0.571048 12.5531 0.55808 12.5363 0.545195C12.5238 0.535674 12.5115 0.526198 12.5 0.516C12.429 0.452 12.359 0.389 12.281 0.336C12.2557 0.318941 12.2281 0.305475 12.2005 0.292071C12.1845 0.284259 12.1685 0.276469 12.153 0.268C12.1363 0.258594 12.1197 0.248967 12.103 0.239326C12.0488 0.20797 11.9944 0.176475 11.937 0.152C11.74 0.0699999 11.528 0.0289999 11.313 0.0139999C11.2933 0.0127423 11.2738 0.0100789 11.2542 0.00740928C11.2271 0.00371057 11.1999 0 11.172 0H5C3.896 0 3 0.896 3 2V9.03544C3.55203 9.11441 4.0625 9.32218 4.5 9.62734V2C4.5 1.725 4.724 1.5 5 1.5H11V6C11 7.104 11.896 8 13 8H17.5V18ZM12.5 2.621L16.378 6.5H13C12.724 6.5 12.5 6.275 12.5 6V2.621ZM5 12.5C5 13.8807 3.88071 15 2.5 15C1.11929 15 0 13.8807 0 12.5C0 11.1193 1.11929 10 2.5 10C3.88071 10 5 11.1193 5 12.5ZM3.5 12.5C3.5 11.9477 3.05228 11.5 2.5 11.5C1.94772 11.5 1.5 11.9477 1.5 12.5C1.5 13.0523 1.94772 13.5 2.5 13.5C3.05228 13.5 3.5 13.0523 3.5 12.5ZM11 18.5C11 19.8807 9.88071 21 8.5 21C7.11929 21 6 19.8807 6 18.5C6 17.1193 7.11929 16 8.5 16C9.88071 16 11 17.1193 11 18.5ZM9.5 18.5C9.5 17.9477 9.05228 17.5 8.5 17.5C7.94772 17.5 7.5 17.9477 7.5 18.5C7.5 19.0523 7.94772 19.5 8.5 19.5C9.05228 19.5 9.5 19.0523 9.5 18.5ZM9.78033 11.2197C10.0732 11.5126 10.0732 11.9874 9.78033 12.2803L2.28033 19.7803C1.98744 20.0732 1.51256 20.0732 1.21967 19.7803C0.926777 19.4874 0.926777 19.0126 1.21967 18.7197L8.71967 11.2197C9.01256 10.9268 9.48744 10.9268 9.78033 11.2197Z" fill="#2165AA"/>
</svg>
