<svg width="13" height="14" viewBox="0 0 13 14" fill="none" xmlns="http://www.w3.org/2000/svg">
<path d="M2.6 1.64706C2.6 0.737414 3.37604 0 4.33333 0H8.30768C8.65246 0 8.98312 0.130147 9.22692 0.361809L12.6192 3.58528C12.863 3.81694 13 4.13114 13 4.45876V11.5294C13 12.4391 12.224 13.1765 11.2667 13.1765H8.51872C8.61453 12.9189 8.66667 12.6417 8.66667 12.3529H11.2667C11.7453 12.3529 12.1333 11.9842 12.1333 11.5294V4.94118H9.1C8.38203 4.94118 7.8 4.38812 7.8 3.70588V0.823529H4.33333C3.85469 0.823529 3.46667 1.19224 3.46667 1.64706V6.3938C3.21659 6.18111 2.92294 6.01375 2.6 5.90529V1.64706ZM9.1 4.11765H11.9538L8.66667 0.994088V3.70588C8.66667 3.93329 8.86068 4.11765 9.1 4.11765ZM3.46667 8.23529C3.46667 9.14494 2.69063 9.88235 1.73333 9.88235C0.77604 9.88235 0 9.14494 0 8.23529C0 7.32565 0.77604 6.58824 1.73333 6.58824C2.69063 6.58824 3.46667 7.32565 3.46667 8.23529ZM2.6 8.23529C2.6 7.78047 2.21198 7.41176 1.73333 7.41176C1.25469 7.41176 0.866667 7.78047 0.866667 8.23529C0.866667 8.69012 1.25469 9.05882 1.73333 9.05882C2.21198 9.05882 2.6 8.69012 2.6 8.23529ZM7.8 12.3529C7.8 13.2626 7.02396 14 6.06667 14C5.10937 14 4.33333 13.2626 4.33333 12.3529C4.33333 11.4433 5.10937 10.7059 6.06667 10.7059C7.02396 10.7059 7.8 11.4433 7.8 12.3529ZM6.93333 12.3529C6.93333 11.8981 6.54531 11.5294 6.06667 11.5294C5.58802 11.5294 5.2 11.8981 5.2 12.3529C5.2 12.8078 5.58802 13.1765 6.06667 13.1765C6.54531 13.1765 6.93333 12.8078 6.93333 12.3529ZM6.80641 7.53237C6.97564 7.69317 6.97564 7.95389 6.80641 8.11469L1.60641 13.0559C1.43719 13.2167 1.16281 13.2167 0.993587 13.0559C0.82436 12.8951 0.82436 12.6343 0.993587 12.4735L6.19359 7.53237C6.36281 7.37156 6.63719 7.37156 6.80641 7.53237Z" fill="black"/>
</svg>
