<svg width="16" height="16" viewBox="0 0 16 16" fill="none" xmlns="http://www.w3.org/2000/svg">
<path d="M1.8302 12.9615C1.32909 12.3503 0.936171 11.7059 0.651449 11.0281C0.366726 10.3502 0.182699 9.61861 0.0993652 8.83333H1.37499C1.45832 9.44444 1.6111 10.0243 1.83332 10.5729C2.05555 11.1215 2.34721 11.625 2.70832 12.0833L1.8302 12.9615ZM0.0993652 7.16667C0.199782 6.38139 0.388115 5.65118 0.664365 4.97604C0.940476 4.30076 1.32909 3.65757 1.8302 3.04646L2.70832 3.92458C2.34721 4.38292 2.05555 4.88507 1.83332 5.43104C1.6111 5.97701 1.45832 6.55556 1.37499 7.16667H0.0993652ZM7.12499 15.875C6.30763 15.7756 5.5702 15.5835 4.9127 15.2987C4.25506 15.014 3.61645 14.6324 2.99687 14.1538L3.87499 13.25C4.34513 13.6058 4.8502 13.9031 5.3902 14.1419C5.93034 14.3806 6.5086 14.5417 7.12499 14.625V15.875ZM3.91666 2.74208L3.01291 1.83812C3.63249 1.35951 4.2711 0.979167 4.92874 0.697084C5.58624 0.415139 6.33221 0.224444 7.16666 0.125V1.375C6.54166 1.45833 5.957 1.61806 5.4127 1.85417C4.86839 2.09028 4.36971 2.38625 3.91666 2.74208ZM6.12499 11.3654V4.63458L11.3654 8L6.12499 11.3654ZM8.83332 15.875V14.625C10.5139 14.3889 11.9062 13.6458 13.0104 12.3958C14.1146 11.1458 14.6667 9.68056 14.6667 8C14.6667 6.31944 14.1146 4.85417 13.0104 3.60417C11.9062 2.35417 10.5139 1.61111 8.83332 1.375V0.125C10.86 0.345139 12.5472 1.2025 13.895 2.69708C15.2428 4.19181 15.9167 5.95944 15.9167 8C15.9167 10.0406 15.2428 11.8082 13.895 13.3029C12.5472 14.7975 10.86 15.6549 8.83332 15.875Z" fill="#333333"/>
</svg>
