<svg viewBox="0 0 24 24" fill="none" xmlns="http://www.w3.org/2000/svg">
<path d="M10.7658 7.27776C9.76592 6.68408 8.5 7.40469 8.5 8.56754V15.4324C8.5 16.5953 9.76592 17.3159 10.7658 16.7222L17.2709 12.8598C17.9235 12.4724 17.9235 11.5276 17.2709 11.1401L10.7658 7.27776ZM0 12C0 5.37258 5.37258 0 12 0C18.6274 0 24 5.37258 24 12C24 18.6274 18.6274 24 12 24C5.37258 24 0 18.6274 0 12ZM12 1.5C6.20101 1.5 1.5 6.20101 1.5 12C1.5 17.799 6.20101 22.5 12 22.5C17.799 22.5 22.5 17.799 22.5 12C22.5 6.20101 17.799 1.5 12 1.5Z" fill="white"/>
</svg>
