<svg width="16" height="16" viewBox="0 0 16 16" fill="none" xmlns="http://www.w3.org/2000/svg">
<path d="M8.5 1.14844C8.5 0.734224 8.16421 0.398438 7.75 0.398438C7.33579 0.398438 7 0.734224 7 1.14844V7.39844H0.75C0.335786 7.39844 0 7.73422 0 8.14844C0 8.56265 0.335786 8.89844 0.75 8.89844H7V15.1484C7 15.5627 7.33579 15.8984 7.75 15.8984C8.16421 15.8984 8.5 15.5627 8.5 15.1484V8.89844H14.75C15.1642 8.89844 15.5 8.56265 15.5 8.14844C15.5 7.73422 15.1642 7.39844 14.75 7.39844H8.5V1.14844Z" fill="currentColor"/>
</svg>
