<svg width="18" height="19" viewBox="0 0 18 19" fill="none" xmlns="http://www.w3.org/2000/svg">
<path d="M8.88338 0.506728L9 0.5C9.51284 0.5 9.93551 0.88604 9.99327 1.38338L10 1.5V8.5H17C17.5128 8.5 17.9355 8.88604 17.9933 9.38338L18 9.5C18 10.0128 17.614 10.4355 17.1166 10.4933L17 10.5H10V17.5C10 18.0128 9.61396 18.4355 9.11662 18.4933L9 18.5C8.48716 18.5 8.06449 18.114 8.00673 17.6166L8 17.5V10.5H1C0.487164 10.5 0.0644928 10.114 0.0067277 9.61662L0 9.5C0 8.98716 0.38604 8.56449 0.883379 8.50673L1 8.5H8V1.5C8 0.987164 8.38604 0.564493 8.88338 0.506728L9 0.5L8.88338 0.506728Z" fill="#333333"/>
</svg>
