<svg width="29" height="28" viewBox="0 0 29 28" fill="none" xmlns="http://www.w3.org/2000/svg">
<path d="M15 13.0001V3.75391C15 3.33991 14.664 3.00391 14.25 3.00391C13.836 3.00391 13.5 3.33991 13.5 3.75391V13.0001H4.25391C3.83991 13.0001 3.50391 13.3361 3.50391 13.7501C3.50391 14.1641 3.83991 14.5001 4.25391 14.5001H13.5V23.7525C13.5 24.1665 13.836 24.5025 14.25 24.5025C14.664 24.5025 15 24.1665 15 23.7525V14.5001L24.2499 14.5032C24.6639 14.5032 24.9999 14.1672 24.9999 13.7532C24.9999 13.3392 24.6639 13.0032 24.2499 13.0032L15 13.0001Z" fill="currentColor"/>
</svg>
