<svg width="16" height="17" viewBox="0 0 16 17" fill="none" xmlns="http://www.w3.org/2000/svg">
<path d="M3 2.5C2.44772 2.5 2 2.94772 2 3.5C2 4.05228 2.44772 4.5 3 4.5L3 9C3 10.3807 4.11929 11.5 5.5 11.5H7.5L7.5 13.5H5.5C5.22386 13.5 5 13.7239 5 14C5 14.2761 5.22386 14.5 5.5 14.5L10.5 14.5C10.7761 14.5 11 14.2761 11 14C11 13.7239 10.7761 13.5 10.5 13.5L8.5 13.5L8.5 11.5L10.5 11.5C11.8807 11.5 13 10.3807 13 9V4.5C13.5523 4.5 14 4.05228 14 3.5C14 2.94772 13.5523 2.5 13 2.5L3 2.5ZM4 4.5L12 4.5V9C12 9.82843 11.3284 10.5 10.5 10.5H5.5C4.67157 10.5 4 9.82843 4 9L4 4.5Z" fill="currentColor"/>
</svg>
