<svg width="30" height="30" viewBox="0 0 30 30" fill="none" xmlns="http://www.w3.org/2000/svg">
<rect width="30" height="30" rx="15" fill="#F7EBF3"/>
<path d="M15 5C20.523 5 25 9.478 25 15C25 20.522 20.523 25 15 25C9.477 25 5 20.522 5 15C5 9.478 9.477 5 15 5ZM15 6.667C10.405 6.667 6.667 10.405 6.667 15C6.667 19.595 10.405 23.333 15 23.333C19.595 23.333 23.333 19.595 23.333 15C23.333 10.405 19.595 6.667 15 6.667ZM15 18.5C15.5523 18.5 16 18.9477 16 19.5C16 20.0523 15.5523 20.5 15 20.5C14.4477 20.5 14 20.0523 14 19.5C14 18.9477 14.4477 18.5 15 18.5ZM15 9.75C16.5188 9.75 17.75 10.9812 17.75 12.5C17.75 13.5108 17.4525 14.074 16.6989 14.8586L16.5303 15.0303C15.9084 15.6522 15.75 15.9163 15.75 16.5C15.75 16.9142 15.4142 17.25 15 17.25C14.5858 17.25 14.25 16.9142 14.25 16.5C14.25 15.4892 14.5475 14.926 15.3011 14.1414L15.4697 13.9697C16.0916 13.3478 16.25 13.0837 16.25 12.5C16.25 11.8096 15.6904 11.25 15 11.25C14.3528 11.25 13.8205 11.7419 13.7565 12.3722L13.75 12.5C13.75 12.9142 13.4142 13.25 13 13.25C12.5858 13.25 12.25 12.9142 12.25 12.5C12.25 10.9812 13.4812 9.75 15 9.75Z" fill="#9A407F"/>
</svg>
