<svg width="82" height="61" viewBox="0 0 82 61" fill="none" xmlns="http://www.w3.org/2000/svg">
<g clip-path="url(#clip0_4223_5639)">
<mask id="mask0_4223_5639" style="mask-type:luminance" maskUnits="userSpaceOnUse" x="-5" y="-17" width="92" height="92">
<path d="M86.2944 -16.396H-4.20837V74.1068H86.2944V-16.396Z" fill="white"/>
</mask>
<g mask="url(#mask0_4223_5639)">
<path d="M42.346 2.70583C22.345 1.99027 5.18149 17.0734 3.32308 37.0008C2.68286 43.8653 3.90825 50.4472 6.56929 56.2649L6.51985 56.2894L7.17331 57.607C7.18831 57.6373 7.22501 57.6497 7.25535 57.6347L19.1781 51.7213C19.2084 51.7063 19.2207 51.6695 19.2057 51.6392L18.6272 50.4726L18.6372 50.4669C16.5401 45.7474 15.8985 40.2682 17.2495 34.636C19.4315 25.54 28.9121 17.2099 38.2128 16.2135C53.7802 14.5456 66.3907 27.1803 65.4475 42.0896C65.25 45.2108 64.4755 48.158 63.235 50.8345L63.2662 50.8517L62.7138 52.018C62.6993 52.0486 62.7124 52.0851 62.7429 52.0996L74.6351 57.7318C74.6657 57.7463 74.7021 57.7332 74.7166 57.7026L74.8981 57.3197L74.9551 57.3514C77.1233 52.9783 78.4768 48.1111 78.8043 42.9347C80.1468 21.7133 63.7365 3.47108 42.346 2.70583Z" fill="white"/>
<path d="M68.8923 41.6326C68.8914 41.6577 68.8909 41.6828 68.89 41.7081C68.7705 44.8937 68.1176 47.9336 67.0211 50.7463L73.5958 53.5554C75.0265 49.9592 75.8781 46.0629 76.0314 41.976C76.0326 41.9443 76.0333 41.9128 76.0344 41.8811C76.0501 41.4283 76.0569 40.9772 76.0554 40.5278H68.9089C68.9105 40.8946 68.9053 41.2628 68.8923 41.6326Z" fill="#008F79"/>
<path d="M65.649 27.6117C67.7145 31.4766 68.8888 35.8761 68.909 40.5276H76.0554C76.0356 34.6702 74.5595 29.1297 71.9591 24.2639C71.7424 23.8583 71.5177 23.4575 71.2856 23.0615L65.0994 26.6332C65.2888 26.9555 65.4724 27.2814 65.649 27.6117Z" fill="#14AF46"/>
<path d="M74.6604 58.966C74.472 58.966 74.2845 58.9242 74.1092 58.8412L62.2173 53.2091C61.9065 53.0622 61.6711 52.8024 61.5551 52.4776C61.4393 52.1534 61.4567 51.8035 61.604 51.4923L62.0314 50.59C62.0502 50.4979 62.0798 50.4066 62.121 50.3179C63.3317 47.7055 64.0385 44.911 64.222 42.0119C64.6557 35.156 62.0555 28.4964 57.0882 23.7408C52.1242 18.9884 45.2921 16.6897 38.3436 17.4341C29.6061 18.3702 20.4929 26.3788 18.4435 34.9222C17.2119 40.0565 17.6669 45.2593 19.7593 49.9681C19.7753 50.0042 19.7895 50.0405 19.8018 50.0772L20.3058 51.0935C20.4588 51.4019 20.4825 51.7515 20.3725 52.0778C20.2625 52.4043 20.0319 52.6683 19.7233 52.8213L7.80086 58.7345C7.16383 59.0502 6.38902 58.789 6.07327 58.1524L5.4198 56.8349C5.35779 56.7097 5.31807 56.5763 5.30123 56.4403C3.98902 53.4984 3.04645 50.4031 2.49832 47.2346C1.91072 43.8382 1.7769 40.3567 2.10053 36.8866C2.57005 31.8521 3.98357 27.035 6.30195 22.5688C8.54508 18.2476 11.5458 14.4192 15.2205 11.1898C18.8952 7.96032 23.0775 5.47627 27.6511 3.80666C32.378 2.08108 37.3365 1.29781 42.3899 1.47856C47.7758 1.67121 52.9496 2.92803 57.7678 5.21398C60.0792 6.31057 62.2941 7.6439 64.3509 9.17675C66.386 10.6933 68.283 12.4178 69.9895 14.302C71.6983 16.1888 73.229 18.2503 74.539 20.4293C75.8615 22.6286 76.9696 24.9655 77.8328 27.3748C79.6297 32.3905 80.3688 37.6515 80.0296 43.012C79.6991 48.236 78.3619 53.2439 76.0552 57.8967C75.9982 58.0115 75.9244 58.1155 75.8368 58.2058L75.8263 58.228C75.679 58.5392 75.4193 58.7744 75.095 58.8902C74.9532 58.9409 74.8065 58.966 74.6604 58.966ZM64.3229 51.4891L74.1708 56.1531C76.1384 51.9796 77.2844 47.5101 77.5788 42.8569C78.2086 32.9014 74.867 23.3458 68.1693 15.9505C61.4743 8.55797 52.2878 4.29001 42.3021 3.93278C41.8599 3.91694 41.4163 3.90906 40.9771 3.90906C22.1778 3.90906 6.30438 18.2555 4.54561 37.1147C3.94888 43.5129 5.03475 49.9583 7.68581 55.754C7.72385 55.8372 7.75184 55.9225 7.77028 56.0085L17.5873 51.1395L17.5271 51.018C17.4931 50.9494 17.4661 50.8791 17.4458 50.8079C16.3633 48.3272 15.6845 45.7046 15.4279 43.01C15.1546 40.1389 15.3656 37.2251 16.0555 34.3494C16.6209 31.9921 17.6474 29.6518 19.1063 27.3937C20.5023 25.2327 22.2334 23.2379 24.2511 21.4648C26.2687 19.6918 28.4694 18.2316 30.7921 17.1247C33.2189 15.9681 35.6716 15.2507 38.082 14.9924C42.0235 14.5701 45.8707 15.0024 49.5169 16.2772C51.2501 16.8832 52.9229 17.6797 54.4888 18.6447C56.0297 19.5942 57.4757 20.7121 58.7864 21.967C64.2779 27.2243 67.1524 34.5869 66.6728 42.1669C66.4765 45.2708 65.7366 48.2676 64.473 51.0788C64.4539 51.1798 64.4218 51.2801 64.3758 51.3771L64.3229 51.4891Z" fill="#E6E6E6"/>
<path d="M8.4474 53.4056L14.9154 50.3141C13.7807 47.261 13.1704 43.9612 13.1886 40.5276H6.0422C6.02259 45.0612 6.87491 49.4089 8.4474 53.4056Z" fill="#FF3333"/>
<path d="M17.4139 25.933C19.8491 22.0517 23.2153 18.8233 27.188 16.5465L23.6204 10.3672C18.6341 13.2276 14.4089 17.2816 11.3515 22.1545C11.1619 22.4566 10.9771 22.762 10.7966 23.0703L16.9836 26.6424C17.1236 26.4037 17.267 26.1671 17.4139 25.933Z" fill="#FFA733"/>
<path d="M55.8099 17.0878C59.6329 19.4754 62.8236 22.7599 65.0993 26.6334L71.2856 23.0617C68.4251 18.1827 64.409 14.0462 59.5963 11.0404C59.22 10.8054 58.8387 10.5774 58.4529 10.3564L54.8856 16.5352C55.1976 16.7137 55.5058 16.8978 55.8099 17.0878Z" fill="#69C843"/>
<path d="M42.0148 12.8861C42.04 12.887 42.0652 12.8875 42.0905 12.8885C46.7513 13.0633 51.1016 14.3707 54.8856 16.5351L58.4529 10.3565C53.6942 7.63068 48.2214 5.98394 42.3577 5.76397C42.3259 5.7628 42.2944 5.76213 42.2627 5.76104C41.8516 5.74671 41.4418 5.73967 41.0335 5.7395V12.8689C41.3594 12.869 41.6866 12.8746 42.0148 12.8861Z" fill="#C3D947"/>
<path d="M13.2071 39.6192C13.3849 34.8819 14.7411 30.4663 16.9837 26.6424L10.7966 23.0703C7.98729 27.8695 6.2886 33.409 6.0657 39.3513C6.06453 39.3829 6.06386 39.4144 6.06277 39.4461C6.0502 39.8078 6.04383 40.1682 6.04224 40.5276H13.1886C13.1901 40.2508 13.1951 39.9731 13.2048 39.6946C13.2056 39.6694 13.2062 39.6444 13.2071 39.6192Z" fill="#FF7733"/>
<path d="M27.9614 16.1193C31.87 14.0408 36.3244 12.8675 41.0335 12.8689V5.7395C35.115 5.73707 29.5167 7.21135 24.6044 9.82344C24.2732 9.99959 23.9452 10.1809 23.6204 10.3673L27.188 16.5465C27.4433 16.4002 27.7011 16.2577 27.9614 16.1193Z" fill="#FFDA33"/>
<path d="M74.6604 58.966C74.472 58.966 74.2845 58.9242 74.1092 58.8412L62.2173 53.2091C61.9065 53.0622 61.6711 52.8024 61.5551 52.4776C61.4393 52.1534 61.4567 51.8035 61.604 51.4923L62.0314 50.59C62.0502 50.4979 62.0798 50.4066 62.121 50.3179C63.3317 47.7055 64.0385 44.911 64.222 42.0119C64.6557 35.156 62.0555 28.4964 57.0882 23.7408C52.1242 18.9884 45.2921 16.6897 38.3436 17.4341C29.6061 18.3702 20.4929 26.3788 18.4435 34.9222C17.2119 40.0565 17.6669 45.2593 19.7593 49.9681C19.7753 50.0042 19.7895 50.0405 19.8018 50.0772L20.3058 51.0935C20.4588 51.4019 20.4825 51.7515 20.3725 52.0778C20.2625 52.4043 20.0319 52.6683 19.7233 52.8213L7.80086 58.7345C7.16383 59.0502 6.38902 58.789 6.07327 58.1524L5.4198 56.8349C5.35779 56.7097 5.31807 56.5763 5.30123 56.4403C3.98902 53.4984 3.04645 50.4031 2.49832 47.2346C1.91072 43.8382 1.7769 40.3567 2.10053 36.8866C2.57005 31.8521 3.98357 27.035 6.30195 22.5688C8.54508 18.2476 11.5458 14.4192 15.2205 11.1898C18.8952 7.96032 23.0775 5.47627 27.6511 3.80666C32.378 2.08108 37.3365 1.29781 42.3899 1.47856C47.7758 1.67121 52.9496 2.92803 57.7678 5.21398C60.0792 6.31057 62.2941 7.6439 64.3509 9.17675C66.386 10.6933 68.283 12.4178 69.9895 14.302C71.6983 16.1888 73.229 18.2503 74.539 20.4293C75.8615 22.6286 76.9696 24.9655 77.8328 27.3748C79.6297 32.3905 80.3688 37.6515 80.0296 43.012C79.6991 48.236 78.3619 53.2439 76.0552 57.8967C75.9982 58.0115 75.9244 58.1155 75.8368 58.2058L75.8263 58.228C75.679 58.5392 75.4193 58.7744 75.095 58.8902C74.9532 58.9409 74.8065 58.966 74.6604 58.966ZM64.3229 51.4891L74.1708 56.1531C76.1384 51.9796 77.2844 47.5101 77.5788 42.8569C78.2086 32.9014 74.867 23.3458 68.1693 15.9505C61.4743 8.55797 52.2878 4.29001 42.3021 3.93278C41.8599 3.91694 41.4163 3.90906 40.9771 3.90906C22.1778 3.90906 6.30438 18.2555 4.54561 37.1147C3.94888 43.5129 5.03475 49.9583 7.68581 55.754C7.72385 55.8372 7.75184 55.9225 7.77028 56.0085L17.5873 51.1395L17.5271 51.018C17.4931 50.9494 17.4661 50.8791 17.4458 50.8079C16.3633 48.3272 15.6845 45.7046 15.4279 43.01C15.1546 40.1389 15.3656 37.2251 16.0555 34.3494C16.6209 31.9921 17.6474 29.6518 19.1063 27.3937C20.5023 25.2327 22.2334 23.2379 24.2511 21.4648C26.2687 19.6918 28.4694 18.2316 30.7921 17.1247C33.2189 15.9681 35.6716 15.2507 38.082 14.9924C42.0235 14.5701 45.8707 15.0024 49.5169 16.2772C51.2501 16.8832 52.9229 17.6797 54.4888 18.6447C56.0297 19.5942 57.4757 20.7121 58.7864 21.967C64.2779 27.2243 67.1524 34.5869 66.6728 42.1669C66.4765 45.2708 65.7366 48.2676 64.473 51.0788C64.4539 51.1798 64.4218 51.2801 64.3758 51.3771L64.3229 51.4891Z" fill="#E6E6E6"/>
<path d="M69.3482 44.575L43.2556 35.0212C42.6655 34.7152 41.9494 35.0795 41.8493 35.7366L40.1878 46.6375C40.0877 47.2946 40.6626 47.8557 41.3171 47.7394L69.0711 46.3926C69.9846 46.2304 70.1718 45.002 69.3482 44.575Z" fill="#545454"/>
<path d="M41.5539 26.8554C33.8936 26.5681 27.4509 32.5449 27.1635 40.2052C26.8762 47.8654 32.853 54.3082 40.5133 54.5955C48.1735 54.8829 54.6163 48.906 54.9036 41.2458C55.191 33.5855 49.2141 27.1427 41.5539 26.8554Z" fill="#E6E6E6"/>
<path d="M53.782 40.3221C53.4947 47.9823 47.052 53.9591 39.3918 53.6717C36.4932 53.563 33.8357 52.5727 31.6674 50.9688C34.0086 53.1117 37.0932 54.4671 40.5133 54.5954C48.1735 54.8828 54.6162 48.9059 54.9035 41.2457C55.0821 36.4841 52.8402 32.1932 49.2782 29.5583C52.1808 32.2149 53.9411 36.082 53.782 40.3221Z" fill="#D5D5D5"/>
<path d="M48.354 40.8092C48.2025 44.8482 44.8054 47.9997 40.7663 47.8481C36.7273 47.6966 33.5759 44.2995 33.7274 40.2605C33.8789 36.2215 37.276 33.07 41.3151 33.2216C45.3541 33.3731 48.5055 36.7702 48.354 40.8092Z" fill="#039471"/>
<g opacity="0.1">
<path d="M45.7679 34.9478C46.9084 36.293 47.5691 38.0518 47.4978 39.9531C47.3463 43.9921 43.9492 47.1436 39.9102 46.9921C38.208 46.9282 36.6635 46.2878 35.4573 45.2659C36.7397 46.7785 38.6286 47.7681 40.7663 47.8483C44.8054 47.9998 48.2025 44.8483 48.354 40.8092C48.4416 38.4724 47.4236 36.3506 45.7679 34.9478Z" fill="#0D0D0D"/>
</g>
</g>
</g>
<defs>
<clipPath id="clip0_4223_5639">
<rect width="80.7821" height="60" fill="white" transform="translate(0.608948 0.104736)"/>
</clipPath>
</defs>
</svg>
