<svg width="12" height="12" viewBox="0 0 12 12" fill="none" xmlns="http://www.w3.org/2000/svg">
<path d="M6 0C9.31371 0 12 2.68629 12 6C12 9.31371 9.31371 12 6 12C2.68629 12 0 9.31371 0 6C0 2.68629 2.68629 0 6 0ZM6 1C3.23858 1 1 3.23858 1 6C1 8.76142 3.23858 11 6 11C8.76142 11 11 8.76142 11 6C11 3.23858 8.76142 1 6 1ZM5.50153 3C5.74699 3 5.95114 3.17688 5.99347 3.41012L6.00153 3.5V6H7.5C7.77614 6 8 6.22386 8 6.5C8 6.74546 7.82312 6.94961 7.58988 6.99194L7.5 7H5.50153C5.25607 7 5.05192 6.82312 5.00958 6.58988L5.00153 6.5V3.5C5.00153 3.22386 5.22538 3 5.50153 3Z" fill="currentColor"/>
</svg>
