<svg width="17" height="16" viewBox="0 0 17 16" fill="none" xmlns="http://www.w3.org/2000/svg">
<path d="M4 8C4 5.51472 6.01472 3.5 8.5 3.5C9.57167 3.5 10.5555 3.87406 11.3288 4.5H10.25C9.83579 4.5 9.5 4.83579 9.5 5.25C9.5 5.66421 9.83579 6 10.25 6H12.75C13.1642 6 13.5 5.66421 13.5 5.25V2.75C13.5 2.33579 13.1642 2 12.75 2C12.3358 2 12 2.33579 12 2.75V3.12618C11.0151 2.41784 9.80617 2 8.5 2C5.18629 2 2.5 4.68629 2.5 8C2.5 11.3137 5.18629 14 8.5 14C11.8137 14 14.5 11.3137 14.5 8C14.5 7.58579 14.1642 7.25 13.75 7.25C13.3358 7.25 13 7.58579 13 8C13 10.4853 10.9853 12.5 8.5 12.5C6.01472 12.5 4 10.4853 4 8Z" fill="#0A192B"/>
</svg>
