<svg width="12" height="13" viewBox="0 0 12 13" fill="none" xmlns="http://www.w3.org/2000/svg">
<g clip-path="url(#clip0_2796_865)">
<path d="M3 1C3 0.723858 3.22386 0.5 3.5 0.5H7.5C7.77614 0.5 8 0.723858 8 1C8 1.27614 7.77614 1.5 7.5 1.5H3.5C3.22386 1.5 3 1.27614 3 1ZM5 8C5 8.27614 5.22386 8.5 5.5 8.5C5.77614 8.5 6 8.27614 6 8V5C6 4.72386 5.77614 4.5 5.5 4.5C5.22386 4.5 5 4.72386 5 5V8ZM5.5 2.5C3.01472 2.5 1 4.51472 1 7C1 9.48528 3.01472 11.5 5.5 11.5C7.98528 11.5 10 9.48528 10 7C10 4.51472 7.98528 2.5 5.5 2.5ZM2 7C2 5.067 3.567 3.5 5.5 3.5C7.433 3.5 9 5.067 9 7C9 8.933 7.433 10.5 5.5 10.5C3.567 10.5 2 8.933 2 7ZM10.148 4.35322C10.3436 4.54816 10.6602 4.54764 10.8551 4.35205C11.0501 4.15647 11.0495 3.83989 10.8539 3.64495L9.85229 2.6466C9.65671 2.45166 9.34013 2.45218 9.14519 2.64777C8.95025 2.84335 8.95077 3.15993 9.14636 3.35487L10.148 4.35322Z" fill="black"/>
</g>
<defs>
<clipPath id="clip0_2796_865">
<rect width="12" height="12" fill="white" transform="translate(0 0.5)"/>
</clipPath>
</defs>
</svg>
