<svg width="16" height="17" viewBox="0 0 16 17" fill="none" xmlns="http://www.w3.org/2000/svg">
<g id="Comment Error">
<path id="Shape" d="M5.59971 3.5H3.5C2.67157 3.5 2 4.17157 2 5V10C2 10.8284 2.67157 11.5 3.5 11.5H5V14.3981L8.31213 11.5H12.5C13.2392 11.5 13.8536 10.9653 13.9773 10.2615C14.366 9.94393 14.7105 9.57424 15 9.16308V10C15 11.3807 13.8807 12.5 12.5 12.5H8.68787L5.62533 15.1797C4.99168 15.7342 4 15.2842 4 14.4422V12.5H3.5C2.11929 12.5 1 11.3807 1 10V5C1 3.61929 2.11929 2.5 3.5 2.5H6.25716C6.00353 2.80711 5.78261 3.14222 5.59971 3.5ZM10.5 10.5C12.9853 10.5 15 8.48528 15 6C15 3.51472 12.9853 1.5 10.5 1.5C8.01472 1.5 6 3.51472 6 6C6 8.48528 8.01472 10.5 10.5 10.5ZM10 4C10 3.72386 10.2239 3.5 10.5 3.5C10.7761 3.5 11 3.72386 11 4V6C11 6.27614 10.7761 6.5 10.5 6.5C10.2239 6.5 10 6.27614 10 6V4ZM11.125 8C11.125 8.34518 10.8452 8.625 10.5 8.625C10.1548 8.625 9.875 8.34518 9.875 8C9.875 7.65482 10.1548 7.375 10.5 7.375C10.8452 7.375 11.125 7.65482 11.125 8Z" fill="currentColor"/>
</g>
</svg>
