<svg width="26" height="25" viewBox="0 0 26 25" fill="none" xmlns="http://www.w3.org/2000/svg">
<path d="M25.5 6.54762C25.5 10.1638 22.5685 13.0952 18.9524 13.0952C15.3362 13.0952 12.4048 10.1638 12.4048 6.54762C12.4048 2.93147 15.3362 0 18.9524 0C22.5685 0 25.5 2.93147 25.5 6.54762ZM18.9524 2.38095C18.6236 2.38095 18.3571 2.64745 18.3571 2.97619V7.7381C18.3571 8.06684 18.6236 8.33333 18.9524 8.33333C19.2811 8.33333 19.5476 8.06684 19.5476 7.7381V2.97619C19.5476 2.64745 19.2811 2.38095 18.9524 2.38095ZM18.9524 10.8631C19.3633 10.8631 19.6964 10.53 19.6964 10.119C19.6964 9.70812 19.3633 9.375 18.9524 9.375C18.5415 9.375 18.2083 9.70812 18.2083 10.119C18.2083 10.53 18.5415 10.8631 18.9524 10.8631ZM22.5238 16.369V13.414C23.1798 13.0721 23.7806 12.639 24.3095 12.1315V16.369C24.3095 18.5059 22.5773 20.2381 20.4405 20.2381H13.6101L7.64129 24.7032C6.98316 25.1954 6.05059 25.061 5.55835 24.4028C5.3659 24.1455 5.2619 23.8328 5.2619 23.5118L5.26097 20.2381H4.36905C2.23223 20.2381 0.5 18.5059 0.5 16.369V6.25C0.5 4.11318 2.23223 2.38095 4.36905 2.38095H12.4307C12.0777 2.9324 11.7927 3.53158 11.5875 4.16667H4.36905C3.21845 4.16667 2.28571 5.09941 2.28571 6.25V16.369C2.28571 17.5196 3.21845 18.4524 4.36905 18.4524H7.04617L7.04745 22.9173L13.0161 18.4524H20.4405C21.5911 18.4524 22.5238 17.5196 22.5238 16.369Z" fill="#666666"/>
</svg>
