<svg width="8" height="8" viewBox="0 0 8 8" fill="none" xmlns="http://www.w3.org/2000/svg">
<g clip-path="url(#clip0_14684_46639)">
<path d="M2.48927 1.73962L2.1073 1.35764C2.64042 0.975051 3.29393 0.75 4 0.75C5.79492 0.75 7.25 2.20508 7.25 4C7.25 5.79492 5.79492 7.25 4 7.25C2.20508 7.25 0.75 5.79492 0.75 4C0.75 3.86193 0.638071 3.75 0.5 3.75C0.361929 3.75 0.25 3.86193 0.25 4C0.25 6.07106 1.92894 7.75 4 7.75C6.07106 7.75 7.75 6.07106 7.75 4C7.75 1.92894 6.07106 0.25 4 0.25C3.15559 0.25 2.37636 0.529217 1.74968 1.00002L1.36427 0.614622C1.29277 0.543124 1.18525 0.521735 1.09183 0.56043C0.99841 0.599125 0.9375 0.690284 0.9375 0.7914V1.9164C0.9375 2.05447 1.04943 2.1664 1.1875 2.1664H2.3125C2.41361 2.1664 2.50477 2.10549 2.54347 2.01207C2.58216 1.91865 2.56078 1.81113 2.48927 1.73962Z" fill="#FF0000"/>
<path d="M4.25 2.1875C4.25 2.04943 4.13808 1.9375 4 1.9375C3.86193 1.9375 3.75 2.04943 3.75 2.1875V4C3.75 4.0663 3.77634 4.12989 3.82323 4.17677L4.94823 5.30177C5.04585 5.39941 5.20415 5.39941 5.30178 5.30177C5.39941 5.20415 5.39941 5.04585 5.30178 4.94823L4.25 3.89645V2.1875Z" fill="#FF0000"/>
</g>
<defs>
<clipPath id="clip0_14684_46639">
<rect width="8" height="8" fill="white"/>
</clipPath>
</defs>
</svg>
