<svg width="40" height="40" viewBox="0 0 40 40" fill="none" xmlns="http://www.w3.org/2000/svg">
<path d="M39.9937 20.0031C39.9937 31.0512 31.0401 40 19.9937 40C8.94737 40 0 31.045 0 20.0031C0 8.9613 8.95363 0 20 0C31.0464 0 40 8.95504 40 19.9969L39.9937 20.0031Z" fill="#FFD21F"/>
<path d="M10.8972 21.2299C10.0951 21.2299 9.44336 20.5781 9.44336 19.776V16.2918C9.44336 15.4896 10.0951 14.8379 10.8972 14.8379C11.6993 14.8379 12.3511 15.4896 12.3511 16.2918V19.776C12.3511 20.5781 11.6993 21.2299 10.8972 21.2299Z" fill="#403408"/>
<path d="M29.1052 21.2299C28.3031 21.2299 27.6514 20.5781 27.6514 19.776V16.2918C27.6514 15.4896 28.3031 14.8379 29.1052 14.8379C29.9074 14.8379 30.5591 15.4896 30.5591 16.2918V19.776C30.5591 20.5781 29.9074 21.2299 29.1052 21.2299Z" fill="#403408"/>
<path d="M31.4533 26.5898H8.55233C8.06988 26.5898 7.6814 26.2013 7.6814 25.7187C7.6814 25.2362 8.06988 24.8477 8.55233 24.8477H31.4533C31.9358 24.8477 32.3243 25.2362 32.3243 25.7187C32.3243 26.2013 31.9358 26.5898 31.4533 26.5898Z" fill="#403408"/>
</svg>
