<svg width="30" height="30" viewBox="0 0 30 30" fill="none" xmlns="http://www.w3.org/2000/svg">
<rect width="30" height="30" rx="15" fill="#F3EFFE"/>
<path d="M21.5 23C21.5 23.275 21.276 23.5 21 23.5H16C16 24.0368 15.8792 24.5454 15.6632 25H21C22.104 25 23 24.104 23 23V12.828C23 12.298 22.789 11.789 22.414 11.414L16.585 5.586C16.57 5.57105 16.5531 5.55808 16.5363 5.5452C16.5238 5.53567 16.5115 5.5262 16.5 5.516C16.429 5.452 16.359 5.389 16.281 5.336C16.2557 5.31894 16.2281 5.30548 16.2005 5.29207C16.1845 5.28426 16.1685 5.27647 16.153 5.268C16.1363 5.25859 16.1197 5.24897 16.103 5.23933C16.0488 5.20797 15.9944 5.17648 15.937 5.152C15.74 5.07 15.528 5.029 15.313 5.014C15.2933 5.01274 15.2738 5.01008 15.2542 5.00741C15.2271 5.00371 15.1999 5 15.172 5H9C7.896 5 7 5.896 7 7V14.0354C7.55203 14.1144 8.0625 14.3222 8.5 14.6273V7C8.5 6.725 8.724 6.5 9 6.5H15V11C15 12.104 15.896 13 17 13H21.5V23ZM16.5 7.621L20.378 11.5H17C16.724 11.5 16.5 11.275 16.5 11V7.621ZM9 17.5C9 18.8807 7.88071 20 6.5 20C5.11929 20 4 18.8807 4 17.5C4 16.1193 5.11929 15 6.5 15C7.88071 15 9 16.1193 9 17.5ZM7.5 17.5C7.5 16.9477 7.05228 16.5 6.5 16.5C5.94772 16.5 5.5 16.9477 5.5 17.5C5.5 18.0523 5.94772 18.5 6.5 18.5C7.05228 18.5 7.5 18.0523 7.5 17.5ZM15 23.5C15 24.8807 13.8807 26 12.5 26C11.1193 26 10 24.8807 10 23.5C10 22.1193 11.1193 21 12.5 21C13.8807 21 15 22.1193 15 23.5ZM13.5 23.5C13.5 22.9477 13.0523 22.5 12.5 22.5C11.9477 22.5 11.5 22.9477 11.5 23.5C11.5 24.0523 11.9477 24.5 12.5 24.5C13.0523 24.5 13.5 24.0523 13.5 23.5ZM13.7803 16.2197C14.0732 16.5126 14.0732 16.9874 13.7803 17.2803L6.28033 24.7803C5.98744 25.0732 5.51256 25.0732 5.21967 24.7803C4.92678 24.4874 4.92678 24.0126 5.21967 23.7197L12.7197 16.2197C13.0126 15.9268 13.4874 15.9268 13.7803 16.2197Z" fill="#6A3DED"/>
</svg>
