<svg width="16" height="16" viewBox="0 0 16 16" fill="none" xmlns="http://www.w3.org/2000/svg">
<path fill-rule="evenodd" clip-rule="evenodd" d="M15.8032 14.8837L13.0529 12.1966L12.9905 12.0998C12.8689 11.9774 12.7066 11.9118 12.5346 11.9118C12.3658 11.9118 12.2002 11.9774 12.0818 12.0998C9.7443 14.2429 6.14447 14.3589 3.66619 12.371C1.1879 10.3807 0.603931 6.90566 2.30065 4.24739C3.99737 1.58991 7.44761 0.57556 10.3627 1.8755C13.2785 3.17544 14.7561 6.38648 13.8129 9.38074C13.7473 9.59993 13.8001 9.83432 13.9593 9.99991C14.1161 10.1655 14.3537 10.2343 14.5785 10.1839C14.8033 10.1343 14.9848 9.96791 15.0536 9.75272C16.1784 6.20009 14.4785 2.37547 11.0538 0.752352C7.6284 -0.868371 3.50379 0.200378 1.3511 3.26823C-0.802402 6.33689 -0.340024 10.4807 2.44144 13.0246C5.21891 15.5652 9.48191 15.7396 12.469 13.4341L14.9033 15.8148C15.1536 16.062 15.5592 16.062 15.8128 15.8148C16.0624 15.5676 16.0624 15.1677 15.8128 14.9181L15.8032 14.8837Z" fill="#CCCCCC"/>
</svg>
