<svg width="18" height="17" viewBox="0 0 18 17" fill="none" xmlns="http://www.w3.org/2000/svg">
<path d="M8.99984 12.6667C10.1526 12.6667 11.1353 12.2605 11.9478 11.448C12.7603 10.6355 13.1665 9.65286 13.1665 8.50008C13.1665 7.3473 12.7603 6.36466 11.9478 5.55216C11.1353 4.73966 10.1526 4.33341 8.99984 4.33341C7.84706 4.33341 6.86442 4.73966 6.05192 5.55216C5.23942 6.36466 4.83317 7.3473 4.83317 8.50008C4.83317 9.65286 5.23942 10.6355 6.05192 11.448C6.86442 12.2605 7.84706 12.6667 8.99984 12.6667ZM8.99984 16.8334C7.84706 16.8334 6.76373 16.6147 5.74984 16.1772C4.73595 15.7397 3.854 15.1459 3.104 14.3959C2.354 13.6459 1.76025 12.764 1.32275 11.7501C0.885254 10.7362 0.666504 9.65286 0.666504 8.50008C0.666504 7.3473 0.885254 6.26397 1.32275 5.25008C1.76025 4.23619 2.354 3.35425 3.104 2.60425C3.854 1.85425 4.73595 1.2605 5.74984 0.822998C6.76373 0.385498 7.84706 0.166748 8.99984 0.166748C10.1526 0.166748 11.2359 0.385498 12.2498 0.822998C13.2637 1.2605 14.1457 1.85425 14.8957 2.60425C15.6457 3.35425 16.2394 4.23619 16.6769 5.25008C17.1144 6.26397 17.3332 7.3473 17.3332 8.50008C17.3332 9.65286 17.1144 10.7362 16.6769 11.7501C16.2394 12.764 15.6457 13.6459 14.8957 14.3959C14.1457 15.1459 13.2637 15.7397 12.2498 16.1772C11.2359 16.6147 10.1526 16.8334 8.99984 16.8334ZM8.99984 15.1667C10.8609 15.1667 12.4373 14.5209 13.729 13.2292C15.0207 11.9376 15.6665 10.3612 15.6665 8.50008C15.6665 6.63897 15.0207 5.06258 13.729 3.77091C12.4373 2.47925 10.8609 1.83341 8.99984 1.83341C7.13873 1.83341 5.56234 2.47925 4.27067 3.77091C2.979 5.06258 2.33317 6.63897 2.33317 8.50008C2.33317 10.3612 2.979 11.9376 4.27067 13.2292C5.56234 14.5209 7.13873 15.1667 8.99984 15.1667Z" fill="#333333"/>
</svg>
