<svg width="16" height="16" viewBox="0 0 16 16" fill="none" xmlns="http://www.w3.org/2000/svg">
<path d="M0.723627 0.0527913C0.547712 -0.0351664 0.336572 -0.0118224 0.18412 0.11244C0.0316676 0.236702 -0.0337739 0.438798 0.0169031 0.628836L1.51498 6.24662C1.56554 6.43622 1.72234 6.57872 1.9159 6.61098L8.77041 7.7534C9.04894 7.79982 9.04894 8.20018 8.77041 8.2466L1.9159 9.38902C1.72234 9.42128 1.56554 9.56378 1.51498 9.75338L0.0169031 15.3712C-0.0337739 15.5612 0.0316676 15.7633 0.18412 15.8876C0.336572 16.0118 0.547712 16.0352 0.723627 15.9472L15.7236 8.44722C15.893 8.36252 16 8.18939 16 8C16 7.81062 15.893 7.63749 15.7236 7.55279L0.723627 0.0527913Z" fill="white"/>
</svg>
