<svg width="360" height="238" viewBox="0 0 360 238" fill="none" xmlns="http://www.w3.org/2000/svg">
<g clip-path="url(#clip0_765_5803)">
<path fill-rule="evenodd" clip-rule="evenodd" d="M198.327 154.571L196.727 153.073L195.162 151.54L193.634 149.973L192.142 148.371L190.689 146.736L189.275 145.069L187.902 143.37L186.57 141.639L185.28 139.879L184.033 138.089L182.83 136.27L181.67 134.425L180.555 132.553L179.485 130.655L178.46 128.734L177.48 126.789L176.546 124.823L175.657 122.836L174.814 120.829L174.016 118.804L173.263 116.762L172.555 114.703L171.892 112.63L171.273 110.544L170.698 108.444L170.166 106.333L169.677 104.212L169.231 102.082L168.826 99.9436L168.463 97.7979L168.141 95.6462L167.859 93.4892L167.616 91.328L167.412 89.1634L167.247 86.9964L167.119 84.8277L167.029 82.6582L166.975 80.4887L166.958 78.3198L166.977 76.1524L167.031 73.9871L167.12 71.8246L167.243 69.6655L167.402 67.5105L167.594 65.3602L167.821 63.2152L168.081 61.0762L168.375 58.9436L168.702 56.8181L169.062 54.7004L169.456 52.5908L169.882 50.4901L170.342 48.3988L170.834 46.3175L171.358 44.2466L171.915 42.1869L172.504 40.1389L173.125 38.103L173.779 36.08L174.464 34.0704L175.181 32.0747L175.931 30.0935L176.712 28.1274L177.524 26.177L178.368 24.2428L179.243 22.3256L180.15 20.4257L181.087 18.5438L182.055 16.6806L183.054 14.8365L184.084 13.0123L185.143 11.2083L186.233 9.42529L187.352 7.6638L188.501 5.92432L189.678 4.20745L190.884 2.51371L192.118 0.843674L193.38 -0.8022L194.669 -2.42339L195.985 -4.01942L197.326 -5.58979L198.693 -7.13416L200.085 -8.65206L201.501 -10.1431L202.941 -11.6069L204.403 -13.0433L205.887 -14.4518L207.392 -15.8322L208.917 -17.1843L210.461 -18.508L212.024 -19.8031L213.603 -21.0694L215.199 -22.307L216.81 -23.5158L218.436 -24.6959L220.074 -25.8473L221.725 -26.9701L223.386 -28.0646L225.057 -29.131L226.736 -30.1696L228.423 -31.1805L230.116 -32.1644L231.815 -33.1215L233.517 -34.0524L235.221 -34.9575L236.928 -35.8374L238.634 -36.6928L240.34 -37.5243L242.044 -38.3326L243.745 -39.1183L245.443 -39.8822L247.135 -40.6248L248.823 -41.3468L250.505 -42.0485L252.18 -42.7306L253.85 -43.3935L255.512 -44.0374L257.167 -44.6629L258.815 -45.2702L260.455 -45.8597L262.088 -46.4314L263.713 -46.9858L265.331 -47.5229L266.942 -48.043L268.545 -48.5462L270.14 -49.0326L271.729 -49.5024L273.309 -49.9557L274.883 -50.3927L276.449 -50.8135L278.008 -51.2181L279.56 -51.6069L281.104 -51.98L282.641 -52.3375L284.17 -52.6799L285.691 -53.0073L287.205 -53.3201L288.711 -53.6187L290.208 -53.9037L291.697 -54.1755L293.177 -54.4348L294.648 -54.6823L296.109 -54.9188L297.56 -55.1451L299 -55.3624L300.43 -55.5715L301.848 -55.7737L303.255 -55.9699L304.65 -56.1612L310.103 -56.8994L311.435 -57.0827L312.753 -57.2676L314.059 -57.4552L315.351 -57.6466L316.631 -57.8426L317.898 -58.0444L319.152 -58.2529L320.395 -58.4689L321.625 -58.6933L322.844 -58.927L324.051 -59.1707L325.248 -59.4251L326.434 -59.691L327.611 -59.9688L328.778 -60.2592L329.937 -60.5626L331.087 -60.8795L332.23 -61.2101L333.367 -61.5548L334.498 -61.9137L335.623 -62.287L336.744 -62.6748L337.861 -63.077L338.975 -63.4935L340.086 -63.9243L341.197 -64.3689L342.306 -64.8273L343.416 -65.299L344.527 -65.7835L345.639 -66.2804L346.754 -66.7891L347.872 -67.3091L348.993 -67.8396L350.12 -68.38L351.251 -68.9294L352.389 -69.4871L353.533 -70.0522L354.684 -70.6239L358.184 -72.369L359.369 -72.9576L360.563 -73.548L361.767 -74.1392L362.981 -74.7302L364.206 -75.3202L365.441 -75.908L366.687 -76.4927L367.945 -77.0735L369.214 -77.6493L370.494 -78.2193L371.786 -78.7827L373.09 -79.3386L374.405 -79.8862L375.732 -80.4249L377.07 -80.9538L378.42 -81.4724L379.782 -81.9801L381.155 -82.4766L382.539 -82.9617L383.935 -83.4353L385.343 -83.8977L386.761 -84.3491L388.191 -84.79L389.633 -85.221L391.086 -85.6428L392.551 -86.0561L394.028 -86.4618L395.518 -86.861L397.02 -87.2545L398.536 -87.6434L400.065 -88.0289L401.609 -88.412L403.167 -88.7939L404.74 -89.1755L406.33 -89.5579L430.734 -95.4049L432.663 -95.8656L434.62 -96.3295L436.606 -96.7952L438.62 -97.2613L440.663 -97.7264L442.734 -98.1889L444.834 -98.6472L446.963 -99.0995L449.12 -99.5442L451.305 -99.9796L453.517 -100.404L455.757 -100.815L458.023 -101.21L460.314 -101.589L462.631 -101.95L464.971 -102.289L467.334 -102.605L469.72 -102.896L472.126 -103.161L474.551 -103.397L476.994 -103.601L479.454 -103.774L481.929 -103.911L484.417 -104.012L486.917 -104.074L489.426 -104.096L491.944 -104.076L494.467 -104.012L496.994 -103.902L499.522 -103.746L502.051 -103.541L504.576 -103.286L507.097 -102.98L509.611 -102.621L512.115 -102.209L514.607 -101.742L517.084 -101.219L519.545 -100.639L521.987 -100.002L524.407 -99.3067L526.803 -98.553L529.173 -97.7402L531.513 -96.868L533.823 -95.9364L536.098 -94.945L538.338 -93.8941L540.539 -92.7837L542.7 -91.6142L544.819 -90.3858L546.892 -89.0992L548.919 -87.7548L550.897 -86.3535L552.825 -84.8961L554.7 -83.3835L556.521 -81.8167L558.286 -80.1969L559.994 -78.5254L561.644 -76.8034L563.233 -75.0325L564.762 -73.214L566.228 -71.3496L567.632 -69.4409L568.972 -67.4896L570.248 -65.4976L571.458 -63.4666L572.604 -61.3986L573.683 -59.2955L574.698 -57.1592L575.646 -54.9917L576.529 -52.795L577.347 -50.5712L578.099 -48.322L578.786 -46.0495L579.409 -43.7555L579.966 -41.4419L580.46 -39.1106L580.89 -36.7635L581.257 -34.4024L581.562 -32.0291L581.805 -29.6453L581.986 -27.2529L582.108 -24.8537L582.17 -22.4492L582.173 -20.0413L582.12 -17.6315L582.01 -15.2214L581.845 -12.8127L581.627 -10.4068L581.356 -8.00525L581.034 -5.60946L580.662 -3.22081L580.242 -0.840645L579.775 1.52979L579.263 3.88927L578.707 6.23666L578.109 8.57082L577.47 10.8908L576.793 13.1955L576.078 15.4842L575.327 17.756L574.541 20.01L573.723 22.2456L572.873 24.4621L571.993 26.659L571.084 28.8357L570.148 30.9917L569.185 33.1265L568.198 35.2397L567.186 37.3311L566.153 39.4003L565.099 41.4469L564.025 43.4709L562.932 45.472L561.822 47.4501L560.696 49.4051L559.555 51.3369L558.4 53.2455L557.232 55.1309L556.052 56.9931L554.862 58.8323L553.661 60.6485L552.452 62.4418L551.234 64.2125L550.009 65.9607L548.778 67.6865L547.541 69.3902L546.299 71.0721L545.052 72.7323L543.802 74.3711L542.548 75.9888L541.292 77.5857L540.033 79.1621L538.773 80.7181L537.511 82.2542L536.248 83.7706L534.984 85.2676L533.72 86.7455L532.456 88.2046L531.191 89.6452L529.927 91.0675L528.663 92.4719L527.399 93.8585L526.136 95.2278L524.874 96.5798L523.612 97.915L522.352 99.2335L521.092 100.536L519.834 101.822L518.576 103.092L517.319 104.346L516.064 105.585L514.809 106.808L513.556 108.017L512.303 109.211L511.052 110.39L509.803 111.555L508.554 112.706L507.307 113.843L506.061 114.966L504.816 116.076L503.574 117.173L502.332 118.256L501.093 119.328L499.855 120.387L498.619 121.433L497.386 122.469L496.155 123.492L494.926 124.505L493.699 125.507L492.476 126.499L491.255 127.48L490.038 128.453L488.825 129.416L487.616 130.372L482.839 134.131L481.662 135.06L480.495 135.988L479.337 136.914L478.189 137.842L477.052 138.771L475.927 139.705L474.815 140.643L473.716 141.588L472.631 142.542L471.56 143.505L470.503 144.48L469.462 145.467L468.436 146.47L467.426 147.489L466.431 148.525L465.451 149.581L464.487 150.658L463.539 151.757L462.605 152.88L461.686 154.027L460.78 155.201L459.888 156.402L459.008 157.631L458.14 158.889L457.283 160.177L456.435 161.496L455.596 162.847L454.765 164.228L453.939 165.642L453.118 167.088L452.3 168.566L451.484 170.077L450.668 171.619L449.851 173.193L449.03 174.797L448.205 176.432L447.373 178.097L446.534 179.79L443.948 185.028L443.058 186.822L442.151 188.637L441.226 190.472L440.281 192.324L439.314 194.192L438.323 196.073L437.308 197.964L436.266 199.864L435.197 201.769L434.099 203.677L432.97 205.585L431.811 207.49L430.619 209.389L429.393 211.28L428.134 213.158L426.84 215.021L425.511 216.867L424.146 218.69L422.744 220.489L421.306 222.26L419.832 224L418.321 225.706L416.774 227.374L415.191 229.001L413.572 230.584L411.917 232.12L410.228 233.607L408.506 235.04L406.75 236.418L404.963 237.737L403.145 238.996L401.297 240.19L399.421 241.32L397.519 242.38L395.591 243.371L393.639 244.29L391.665 245.134L389.672 245.903L387.66 246.595L385.631 247.209L383.588 247.744L381.532 248.198L379.466 248.572L377.392 248.864L375.311 249.074L373.226 249.203L371.139 249.25L369.052 249.215L366.966 249.1L364.885 248.904L362.81 248.629L360.742 248.276L358.685 247.845L356.639 247.339L354.607 246.76L352.59 246.109L350.589 245.39L348.607 244.604L346.644 243.755L344.702 242.845L342.782 241.878L340.884 240.858L339.009 239.788L337.158 238.671L335.331 237.512L333.529 236.314L331.752 235.081L329.999 233.817L328.27 232.527L326.566 231.213L324.884 229.881L323.225 228.533L321.589 227.174L319.973 225.807L318.376 224.437L316.799 223.066L315.238 221.698L313.693 220.336L310.645 217.643L309.139 216.317L307.642 215.008L306.152 213.718L304.669 212.45L303.19 211.205L301.713 209.983L300.238 208.788L298.761 207.618L297.283 206.476L295.801 205.361L294.313 204.274L292.819 203.214L291.316 202.183L289.805 201.179L288.282 200.202L286.748 199.253L285.2 198.329L283.639 197.431L282.062 196.558L280.47 195.708L278.861 194.88L277.234 194.074L275.59 193.287L273.928 192.518L272.246 191.765L270.546 191.028L268.828 190.304L267.09 189.59L265.333 188.887L263.558 188.191L261.765 187.5L259.954 186.813L258.126 186.127L256.281 185.441L250.657 183.359L248.756 182.651L246.843 181.932L244.92 181.201L242.989 180.455L241.05 179.693L239.104 178.913L237.155 178.113L235.203 177.292L233.25 176.447L231.297 175.579L229.347 174.684L227.401 173.762L225.461 172.811L223.529 171.831L221.607 170.82L219.696 169.777L217.799 168.702L215.917 167.593L214.052 166.45L212.206 165.272L210.381 164.06L208.578 162.812L206.8 161.528L205.047 160.208L203.322 158.853L201.626 157.461L199.96 156.034L198.327 154.571Z" fill="#FCEBC3"/>
<g opacity="0.6" clip-path="url(#clip1_765_5803)">
<path fill-rule="evenodd" clip-rule="evenodd" d="M345.779 132.097C346.732 131.017 348.678 128.399 350.82 123.204L347.416 124.145L345.991 124.799C344.533 103.831 340.428 82.3139 334.98 60.4043C334.646 59.0708 333.31 58.0481 332.007 58.1463C306.556 60.0198 279.989 65.2313 252.755 71.5064C252.608 69.0111 252.226 64.6504 251.379 65.1904C250.198 65.9513 246.142 74.1899 246.142 74.1899C245.93 74.5826 245.816 75.0162 245.84 75.4498C246.899 98.202 251.248 121.609 257.185 145.498C257.519 146.84 258.855 147.854 260.158 147.756C287.002 145.776 315.091 140.09 343.89 133.357C344.362 133.243 344.81 133.022 345.176 132.719C345.404 132.531 345.616 132.326 345.787 132.089L345.779 132.097Z" fill="#F1854F"/>
<path d="M350.992 122.229C351.049 123.505 349.949 124.806 348.548 125.133C319.75 131.858 291.669 137.553 264.817 139.533C263.514 139.631 262.178 138.608 261.844 137.274C255.907 113.393 251.558 89.9783 250.499 67.226C250.442 65.9497 251.542 64.6489 252.942 64.3217C281.741 57.5884 309.83 51.8942 336.674 49.9144C337.977 49.8162 339.313 50.8388 339.647 52.1806C345.584 76.0618 349.925 99.4768 350.992 122.229Z" fill="#F9D555"/>
<path d="M288.484 86.4119C288.492 86.5919 288.321 86.78 288.109 86.8291C283.711 87.7863 279.411 88.5963 275.315 88.8826C275.111 88.899 274.907 88.7517 274.859 88.5636C273.946 85.1601 273.287 81.8303 273.124 78.5905C273.116 78.4105 273.287 78.2224 273.498 78.1733C277.896 77.2161 282.197 76.4061 286.301 76.1198C286.505 76.1034 286.708 76.2507 286.757 76.4388C287.67 79.8423 288.329 83.1721 288.492 86.4119H288.484Z" fill="white"/>
<path d="M292.173 106.448C292.181 106.628 292.01 106.817 291.798 106.858C287.4 107.815 283.1 108.625 279.004 108.911C278.8 108.919 278.596 108.78 278.548 108.592C277.635 105.189 276.976 101.859 276.813 98.619C276.805 98.439 276.976 98.2508 277.187 98.2017C281.593 97.2445 285.886 96.4346 289.99 96.1482C290.186 96.1319 290.389 96.2791 290.446 96.4673C291.358 99.8707 292.018 103.201 292.181 106.44L292.173 106.448Z" fill="white"/>
<path d="M295.862 126.491C295.871 126.671 295.7 126.86 295.488 126.901C291.082 127.858 286.79 128.668 282.685 128.954C282.481 128.97 282.278 128.823 282.229 128.635C281.325 125.232 280.657 121.902 280.494 118.662C280.494 118.482 280.657 118.294 280.869 118.245C285.275 117.287 289.567 116.478 293.672 116.191C293.875 116.175 294.071 116.322 294.128 116.51C295.032 119.914 295.7 123.243 295.862 126.483V126.491Z" fill="white"/>
<path fill-rule="evenodd" clip-rule="evenodd" d="M279.396 149.67L262.798 128.914L250.801 139.795L237.664 137.333L235.913 163.497C235.873 164.078 236.182 164.29 236.589 163.979L244.229 158.122C244.636 157.811 245.255 157.925 245.613 158.375L252.169 166.777C252.519 167.227 252.853 167.129 252.919 166.557L254.881 147.101L266.739 160.977C267.122 161.419 267.464 161.337 267.505 160.781L268.214 150.439C268.254 149.883 268.71 149.466 269.24 149.515L279.102 150.423C279.632 150.472 279.762 150.137 279.396 149.678V149.67Z" fill="#29AEFD"/>
<path fill-rule="evenodd" clip-rule="evenodd" d="M267.081 134.273L262.797 128.923L250.801 139.804L237.664 137.341L237.151 144.999C240.441 146.431 244.163 147.02 248.284 146.709C256.917 146.071 263.392 141.8 267.073 134.281L267.081 134.273Z" fill="#074785"/>
<path fill-rule="evenodd" clip-rule="evenodd" d="M271.568 110.809C275.331 124.472 267.357 138.609 253.756 142.381C240.155 146.16 226.082 138.151 222.328 124.488C218.565 110.825 226.538 96.6962 240.139 92.9165C253.74 89.1367 267.805 97.1462 271.568 110.809Z" fill="#FD6085"/>
<path fill-rule="evenodd" clip-rule="evenodd" d="M244.204 110.891L250.613 100.517L251.192 112.707L263.335 113.092L253.114 119.694L258.855 130.453L248.048 124.865L241.647 135.239L241.068 123.048L228.917 122.656L239.138 116.053L233.404 105.295L244.204 110.891Z" fill="white"/>
<path fill-rule="evenodd" clip-rule="evenodd" d="M251.394 138.942C250.685 135.579 249.985 132.217 249.285 128.862C249.594 128.797 249.912 128.723 250.221 128.658C250.922 132.02 251.63 135.383 252.331 138.737C252.021 138.803 251.712 138.868 251.402 138.942H251.394Z" fill="#FFA4AC"/>
<path fill-rule="evenodd" clip-rule="evenodd" d="M241.882 106.045C241.174 102.683 240.473 99.3202 239.773 95.9577C240.082 95.8923 240.392 95.8268 240.71 95.7532C241.41 99.1157 242.119 102.478 242.819 105.833C242.509 105.898 242.2 105.963 241.89 106.037L241.882 106.045Z" fill="#FFA4AC"/>
<path fill-rule="evenodd" clip-rule="evenodd" d="M261.07 102.323C258.936 105.007 256.794 107.682 254.661 110.366C254.408 110.169 254.164 109.965 253.911 109.768C256.053 107.085 258.187 104.41 260.329 101.726C260.582 101.922 260.826 102.119 261.078 102.323H261.07Z" fill="#FFA4AC"/>
<path fill-rule="evenodd" clip-rule="evenodd" d="M238.233 126.507C236.1 129.191 233.958 131.866 231.816 134.549C231.563 134.353 231.319 134.148 231.066 133.952C233.2 131.277 235.342 128.593 237.484 125.91C237.737 126.106 237.981 126.303 238.233 126.507Z" fill="#FFA4AC"/>
<path fill-rule="evenodd" clip-rule="evenodd" d="M266.828 124.453C263.538 123.521 260.247 122.588 256.957 121.664C257.038 121.353 257.128 121.05 257.21 120.739C260.5 121.672 263.79 122.604 267.08 123.537C266.999 123.848 266.909 124.151 266.828 124.462V124.453Z" fill="#FFA4AC"/>
<path fill-rule="evenodd" clip-rule="evenodd" d="M235.391 115.569C232.101 114.636 228.811 113.703 225.521 112.779C225.602 112.468 225.692 112.165 225.773 111.854C229.063 112.787 232.354 113.72 235.644 114.652C235.562 114.963 235.473 115.266 235.391 115.577V115.569Z" fill="#FFA4AC"/>
<path d="M360.521 97.6937L366.735 98.9863L360.521 100.361L359.25 107.2L358.094 100.361L351.863 98.9863L358.094 97.6937L359.25 90.8705L360.521 97.6937Z" fill="#FFA4AC"/>
<path d="M237.875 79.8185L244.089 81.1111L237.875 82.4856L236.605 89.3251L235.448 82.4856L229.218 81.1111L235.448 79.8185L236.605 72.9952L237.875 79.8185Z" fill="#FFA4AC"/>
<path d="M340.112 107.201L343.296 107.855L340.112 108.559L339.46 112.069L338.866 108.559L335.673 107.855L338.866 107.201L339.46 103.699L340.112 107.201Z" fill="#074785"/>
<path d="M305.961 91.2945L309.146 91.949L305.961 92.6607L305.31 96.1623L304.715 92.6607L301.531 91.949L304.715 91.2945L305.31 87.7928L305.961 91.2945Z" fill="#074785"/>
<path d="M330.191 69.6889L333.375 70.3515L330.191 71.0551L329.547 74.5649L328.953 71.0551L325.76 70.3515L328.953 69.6889L329.547 66.1954L330.191 69.6889Z" fill="#074785"/>
<path d="M262.813 78.1487L265.998 78.8032L262.813 79.5068L262.162 83.0166L261.567 79.5068L258.383 78.8032L261.567 78.1487L262.162 74.6471L262.813 78.1487Z" fill="#074785"/>
<path d="M311.028 72.3064L314.212 72.9691L311.028 73.6727L310.376 77.1825L309.781 73.6727L306.589 72.9691L309.781 72.3064L310.376 68.813L311.028 72.3064Z" fill="white"/>
<path d="M318.154 119.138L321.338 119.793L318.154 120.496L317.502 124.006L316.916 120.496L313.723 119.793L316.916 119.138L317.502 115.637L318.154 119.138Z" fill="white"/>
<path fill-rule="evenodd" clip-rule="evenodd" d="M284.404 82.4684C284.698 82.2229 284.958 82.0102 285.219 81.7812C287.133 80.1285 288.827 78.3368 290.749 76.6842C291.156 76.3324 291.596 76.0051 292.027 75.6861C292.345 75.4488 293.208 74.9579 293.396 75.6288C293.502 76.0215 293.176 76.4633 292.972 76.7742C291.962 78.3041 290.496 79.4413 289.267 80.7667C287.744 82.4029 286.058 83.9901 284.543 85.6264C284.518 85.6509 284.502 85.6673 284.478 85.6918C284.282 85.8882 284.127 85.8882 283.94 85.6836C283.614 85.3318 283.289 84.9801 282.963 84.6283C281.977 83.5647 281 82.4929 280.015 81.4294C279.705 81.0939 279.754 80.7912 280.153 80.554C280.528 80.3331 280.894 80.1203 281.269 79.8995C281.578 79.7113 281.855 79.744 282.1 79.9976C282.816 80.7667 283.541 81.5275 284.258 82.2966C284.298 82.3457 284.339 82.3948 284.396 82.4684H284.404Z" fill="#F1854F"/>
<path fill-rule="evenodd" clip-rule="evenodd" d="M288.045 102.528C288.338 102.283 288.598 102.07 288.859 101.841C290.773 100.188 292.467 98.3964 294.389 96.7438C294.796 96.392 295.236 96.0647 295.668 95.7456C295.985 95.5084 296.848 95.0175 297.036 95.6884C297.142 96.0811 296.816 96.5229 296.612 96.8338C295.602 98.3637 294.136 99.5009 292.907 100.826C291.384 102.463 289.698 104.05 288.183 105.686C288.159 105.71 288.142 105.727 288.118 105.751C287.922 105.948 287.768 105.948 287.58 105.751C287.255 105.4 286.929 105.048 286.603 104.696C285.618 103.632 284.64 102.561 283.655 101.497C283.345 101.162 283.394 100.859 283.793 100.622C284.168 100.401 284.542 100.188 284.909 99.9672C285.218 99.779 285.495 99.8118 285.74 100.065C286.456 100.834 287.181 101.603 287.898 102.364C287.939 102.413 287.979 102.463 288.036 102.536L288.045 102.528Z" fill="#F1854F"/>
<path fill-rule="evenodd" clip-rule="evenodd" d="M291.204 122.04C291.497 121.795 291.758 121.582 292.019 121.353C293.933 119.7 295.627 117.909 297.549 116.256C297.956 115.904 298.396 115.577 298.827 115.258C299.145 115.021 300.008 114.53 300.195 115.201C300.301 115.593 299.976 116.035 299.772 116.346C298.77 117.876 297.304 119.013 296.066 120.339C294.543 121.975 292.857 123.562 291.343 125.198C291.318 125.223 291.302 125.239 291.277 125.264C291.074 125.46 290.927 125.46 290.74 125.264C290.414 124.912 290.088 124.56 289.763 124.208C288.777 123.145 287.8 122.073 286.814 121.009C286.505 120.674 286.554 120.371 286.953 120.134C287.327 119.913 287.694 119.7 288.069 119.48C288.378 119.291 288.655 119.324 288.899 119.578C289.616 120.347 290.341 121.108 291.058 121.877C291.098 121.926 291.139 121.975 291.196 122.048L291.204 122.04Z" fill="#F1854F"/>
<path fill-rule="evenodd" clip-rule="evenodd" d="M312.061 104.221C312.281 104.695 312.501 105.17 312.721 105.653C312.256 105.963 311.792 106.274 311.328 106.585C311.018 106.773 310.701 106.962 310.399 107.158C309.927 107.469 309.561 107.477 309.276 106.962C308.982 106.446 309.227 106.053 309.691 105.743C310.294 105.342 310.913 104.949 311.523 104.548C311.703 104.442 311.89 104.335 312.069 104.221H312.061Z" fill="#074785"/>
<path fill-rule="evenodd" clip-rule="evenodd" d="M370.537 68.8362C369.6 66.0627 353.157 73.5486 337.65 82.7935C325.922 89.8376 313.103 100.4 311.271 103.41C310.693 104.556 311.548 107.321 312.672 107.125C317.208 106.217 331.623 99.4425 343.522 92.3983C351.479 87.6614 358.035 82.7935 362.971 78.4083C367.825 74.0804 371.042 70.2515 370.545 68.8362H370.537Z" fill="#A089E4"/>
<path fill-rule="evenodd" clip-rule="evenodd" d="M325.166 91.1455C322.633 93.019 320.304 94.8844 318.227 96.6597C319.448 99.0405 320.597 101.397 321.721 103.72C324.319 102.567 327.186 101.209 330.166 99.7113C328.521 96.8888 326.892 94.0335 325.158 91.1537L325.166 91.1455Z" fill="#074785"/>
<path fill-rule="evenodd" clip-rule="evenodd" d="M352.676 86.4753C363.15 79.1285 371.164 71.1844 370.537 68.8364C369.844 66.5129 359.061 71.0781 346.975 77.4759C348.832 80.4539 350.681 83.4482 352.676 86.4753Z" fill="#FFA4AC"/>
<path d="M366.49 69.8912C366.368 69.6376 366.196 69.0894 366.099 68.8194L364.397 69.2367C364.397 69.2367 364.103 68.5658 363.517 67.7231C362.018 65.5551 359.648 64.786 357.238 66.2914C354.135 68.2304 351.048 70.1857 347.994 72.0919C344.296 74.4073 342.22 75.479 336.95 78.9561C336.388 79.3324 338.009 79.6106 338.196 79.6351C338.718 79.7006 339.255 79.6842 339.76 79.5369C340.265 79.3897 340.664 79.0788 341.112 78.8088C346.267 75.5281 351.626 72.1574 357.498 68.4267C359.901 66.8886 361.383 67.3877 362.32 70.0057C361.644 70.3575 360.935 70.6602 360.259 71.012C361.31 72.9183 362.914 75.4708 364.063 77.4016C364.861 76.6898 366.726 74.9881 368.355 73.0001C367.272 71.5765 367.011 70.9466 366.482 69.8912H366.49Z" fill="#074785"/>
<path fill-rule="evenodd" clip-rule="evenodd" d="M335.859 94.3872C339.499 92.6036 342.928 90.5992 346.161 88.3085C347.359 87.4412 346.121 85.7395 344.932 86.5822C341.731 88.8321 338.343 90.7792 334.767 92.5136C333.432 93.1518 334.482 95.058 335.859 94.3872Z" fill="white"/>
<path d="M277.164 56.1732C274.834 54.5533 271.87 54.8641 269.532 56.2795C267.781 57.3431 265.778 59.0775 265.68 61.401C266.34 61.2538 267.138 61.0738 267.928 60.902C268.327 59.7811 269.508 58.963 270.396 58.3739C272.049 57.2858 274.118 56.934 275.852 57.973C277.123 58.7339 277.758 59.8138 277.872 61.3765C277.954 62.53 277.75 63.5036 277.098 64.1827C276.724 63.8309 276.235 63.6182 275.714 63.6182C274.5 63.6182 273.523 64.739 273.523 66.1216C273.523 67.5043 274.509 68.6251 275.714 68.6251C276.846 68.6251 277.783 67.6352 277.897 66.3671C279.232 65.4099 279.949 63.9454 280.006 62.0064C280.079 59.5111 279.094 57.4903 277.164 56.1486V56.1732Z" fill="#074785"/>
<path d="M299.487 51.9681C297.166 50.3482 294.193 50.6591 291.856 52.0744C290.227 53.0644 288.378 54.6352 288.052 56.7214C288.761 56.5905 289.616 56.4351 290.439 56.2878C290.944 55.3797 291.945 54.6843 292.719 54.177C294.372 53.0889 296.441 52.7371 298.176 53.7761C299.446 54.537 300.082 55.6169 300.196 57.1796C300.285 58.3331 300.073 59.3067 299.422 59.9858C299.047 59.634 298.559 59.4213 298.037 59.4213C296.824 59.4213 295.847 60.5421 295.847 61.9247C295.847 63.3074 296.832 64.4282 298.037 64.4282C299.169 64.4282 300.106 63.4383 300.22 62.1702C301.556 61.213 302.272 59.7485 302.329 57.8095C302.403 55.3142 301.417 53.2935 299.487 51.9599V51.9681Z" fill="#074785"/>
<path d="M321.819 48.2459C319.49 46.626 316.526 46.9369 314.188 48.3523C312.584 49.3258 310.776 50.8557 310.401 52.8929C311.061 52.7947 311.916 52.6802 312.779 52.5575C313.284 51.6493 314.278 50.9703 315.052 50.463C316.705 49.3749 318.773 49.0231 320.508 50.0622C321.779 50.823 322.414 51.903 322.528 53.4656C322.609 54.6192 322.406 55.5927 321.754 56.2718C321.38 55.92 320.899 55.7073 320.37 55.7073C319.156 55.7073 318.179 56.8281 318.179 58.2108C318.179 59.5934 319.164 60.7142 320.37 60.7142C321.51 60.7142 322.438 59.7243 322.552 58.4562C323.888 57.499 324.613 56.0345 324.662 54.0956C324.735 51.6002 323.75 49.5795 321.819 48.2377V48.2459Z" fill="#074785"/>
<path d="M329.034 125.763C329.034 125.763 329.286 125.648 329.742 125.476C330.19 125.305 330.842 125.067 331.624 124.83C332.406 124.577 333.318 124.323 334.303 124.053C335.289 123.799 336.348 123.554 337.414 123.325C338.473 123.104 339.548 122.908 340.55 122.752C341.56 122.597 342.496 122.474 343.311 122.4C344.125 122.31 344.801 122.278 345.282 122.253C345.762 122.228 346.039 122.237 346.039 122.237C346.039 122.237 345.787 122.351 345.331 122.523C344.883 122.695 344.231 122.932 343.449 123.169C342.667 123.423 341.755 123.677 340.77 123.938C339.784 124.192 338.726 124.437 337.659 124.658C336.6 124.879 335.525 125.067 334.523 125.231C333.513 125.378 332.577 125.509 331.762 125.583C330.948 125.665 330.264 125.706 329.791 125.73C329.311 125.755 329.034 125.746 329.034 125.746V125.763Z" fill="white"/>
<path d="M254.221 67.9634C254.221 67.9634 254.474 67.8488 254.93 67.677C255.378 67.5052 256.029 67.268 256.811 67.0307C257.593 66.7771 258.505 66.5153 259.491 66.2535C260.476 65.9999 261.535 65.7544 262.594 65.5253C263.652 65.3044 264.727 65.1081 265.729 64.9526C266.739 64.8054 267.676 64.6745 268.49 64.6008C269.305 64.5109 269.98 64.4781 270.461 64.4536C270.942 64.429 271.218 64.4372 271.218 64.4372C271.218 64.4372 270.966 64.5518 270.51 64.7236C270.062 64.8954 269.41 65.1326 268.629 65.3699C267.847 65.6235 266.935 65.8771 265.949 66.1389C264.964 66.3926 263.905 66.638 262.838 66.8589C261.779 67.0798 260.704 67.268 259.702 67.4316C258.692 67.5788 257.756 67.7097 256.941 67.7834C256.127 67.8652 255.451 67.9061 254.971 67.9306C254.49 67.9552 254.213 67.947 254.213 67.947L254.221 67.9634Z" fill="white"/>
<path d="M281.602 137.848C281.602 137.848 281.741 137.815 282.009 137.749C282.278 137.692 282.661 137.586 283.158 137.479C283.654 137.365 284.257 137.226 284.949 137.087C285.642 136.94 286.423 136.768 287.279 136.596C288.134 136.424 289.054 136.236 290.031 136.056C291.009 135.868 292.043 135.663 293.11 135.475C294.177 135.287 295.284 135.091 296.408 134.894C297.532 134.698 298.672 134.518 299.821 134.33C300.961 134.15 302.109 133.962 303.233 133.79C304.357 133.61 305.473 133.454 306.548 133.299C307.623 133.135 308.657 132.988 309.643 132.849C310.628 132.71 311.565 132.587 312.428 132.481C312.86 132.432 313.267 132.358 313.666 132.309C314.057 132.26 314.432 132.211 314.782 132.162C315.482 132.072 316.093 131.998 316.606 131.941C317.111 131.883 317.51 131.843 317.779 131.818C318.048 131.793 318.194 131.777 318.194 131.777C318.194 131.777 318.056 131.818 317.795 131.9C317.535 131.973 317.152 132.096 316.663 132.227C316.175 132.366 315.58 132.538 314.896 132.718C314.212 132.898 313.438 133.111 312.591 133.315C311.744 133.512 310.824 133.732 309.846 133.937C308.869 134.15 307.843 134.379 306.776 134.591C305.709 134.796 304.602 135.009 303.478 135.205C302.354 135.41 301.205 135.606 300.065 135.794C297.777 136.154 295.48 136.506 293.322 136.776C292.247 136.915 291.196 137.03 290.211 137.152C289.217 137.275 288.28 137.357 287.417 137.439C285.682 137.61 284.233 137.709 283.215 137.774C282.71 137.807 282.311 137.823 282.034 137.839C281.757 137.848 281.618 137.856 281.618 137.856L281.602 137.848Z" fill="#074785"/>
<path d="M266.584 104.721C266.119 104.214 265.378 104.967 265.834 105.474C268.668 108.575 269.467 113.655 269.491 117.713C269.491 118.401 270.55 118.401 270.55 117.713C270.525 113.344 269.621 108.051 266.584 104.721Z" fill="white"/>
<path d="M231.255 100.239C227.778 102.587 225.465 106.424 224.52 110.482C224.365 111.144 225.383 111.431 225.538 110.76C226.417 106.98 228.543 103.348 231.785 101.155C232.347 100.779 231.817 99.8541 231.247 100.239H231.255Z" fill="white"/>
<path d="M235.839 97.0473C235.082 97.3909 234.39 97.7836 233.755 98.3318C233.241 98.7817 233.991 99.5344 234.504 99.0844C235.058 98.6017 235.701 98.2663 236.369 97.9636C236.988 97.6773 236.45 96.761 235.831 97.0473H235.839Z" fill="white"/>
<path d="M269.484 120.29C269.297 120.92 269.313 121.591 269.06 122.204C268.946 122.474 269.174 122.785 269.427 122.859C269.728 122.94 269.964 122.752 270.078 122.49C270.331 121.877 270.315 121.206 270.502 120.576C270.706 119.922 269.679 119.643 269.484 120.298V120.29Z" fill="white"/>
</g>
<path d="M318.182 177.122C319.72 177.122 320.967 175.875 320.967 174.337C320.967 172.799 319.72 171.553 318.182 171.553C316.644 171.553 315.397 172.799 315.397 174.337C315.397 175.875 316.644 177.122 318.182 177.122Z" stroke="#F3B119" stroke-width="1.59127" stroke-miterlimit="10"/>
<path d="M306.801 17.1996C308.119 17.1996 309.188 16.1309 309.188 14.8127C309.188 13.4944 308.119 12.4258 306.801 12.4258C305.483 12.4258 304.414 13.4944 304.414 14.8127C304.414 16.1309 305.483 17.1996 306.801 17.1996Z" stroke="#F3B119" stroke-width="1.59127" stroke-miterlimit="10"/>
<path d="M225.485 50.2148V52.1581" stroke="#F3B119" stroke-width="1.59127" stroke-miterlimit="10" stroke-linecap="round"/>
<path d="M225.485 56.2195V58.1714" stroke="#F3B119" stroke-width="1.59127" stroke-miterlimit="10" stroke-linecap="round"/>
<path d="M221.513 54.1868H223.456" stroke="#F3B119" stroke-width="1.59127" stroke-miterlimit="10" stroke-linecap="round"/>
<path d="M227.517 54.1868H229.469" stroke="#F3B119" stroke-width="1.59127" stroke-miterlimit="10" stroke-linecap="round"/>
<path d="M359.16 30.7168H360.52" stroke="#F3B119" stroke-width="1.27301" stroke-miterlimit="10" stroke-linecap="round"/>
<path d="M183.717 109.494V110.854" stroke="#F3B119" stroke-width="1.27301" stroke-miterlimit="10" stroke-linecap="round"/>
<path d="M183.717 113.696V115.063" stroke="#F3B119" stroke-width="1.27301" stroke-miterlimit="10" stroke-linecap="round"/>
<path d="M180.936 112.276H182.296" stroke="#F3B119" stroke-width="1.27301" stroke-miterlimit="10" stroke-linecap="round"/>
<path d="M185.137 112.276H186.504" stroke="#F3B119" stroke-width="1.27301" stroke-miterlimit="10" stroke-linecap="round"/>
<rect width="360" height="238" fill="url(#paint0_radial_765_5803)"/>
</g>
<defs>
<radialGradient id="paint0_radial_765_5803" cx="0" cy="0" r="1" gradientUnits="userSpaceOnUse" gradientTransform="translate(343 1.01011e-05) rotate(104.644) scale(205.682 347.245)">
<stop offset="0.122793" stop-color="#F9F6F1" stop-opacity="0"/>
<stop offset="0.985898" stop-color="white"/>
</radialGradient>
<clipPath id="clip0_765_5803">
<rect width="360" height="238" fill="white"/>
</clipPath>
<clipPath id="clip1_765_5803">
<rect width="191" height="118.844" fill="white" transform="translate(201 47.1562)"/>
</clipPath>
</defs>
</svg>
