<svg width="10" height="10" viewBox="0 0 10 10" fill="none" xmlns="http://www.w3.org/2000/svg">
<path d="M3.77195 10L3.56934 8.39671C3.42681 8.34952 3.28065 8.28342 3.13085 8.19842C2.98114 8.11333 2.84727 8.02224 2.72922 7.92513L1.22792 8.55263L0 6.44737L1.29856 5.47671C1.28632 5.39847 1.27763 5.31987 1.27248 5.24092C1.26734 5.16197 1.26477 5.08333 1.26477 5.005C1.26477 4.93018 1.26734 4.85412 1.27248 4.77684C1.27763 4.69956 1.28632 4.61504 1.29856 4.52329L0 3.55263L1.22792 1.4575L2.72403 2.08C2.85237 1.97947 2.98935 1.88754 3.13498 1.80421C3.28061 1.72088 3.42371 1.6539 3.56428 1.60329L3.77195 0H6.22805L6.43066 1.60829C6.5903 1.66566 6.73474 1.73263 6.86396 1.80921C6.99327 1.88579 7.12378 1.97605 7.25548 2.08L8.77208 1.4575L10 3.55263L8.68095 4.53842C8.70002 4.62342 8.71044 4.70289 8.71222 4.77684C8.7139 4.8507 8.71474 4.92509 8.71474 5C8.71474 5.07149 8.71302 5.14421 8.70956 5.21816C8.70619 5.29202 8.69395 5.37654 8.67284 5.47171L9.98164 6.44737L8.75359 8.55263L7.25548 7.92C7.12378 8.02395 6.98936 8.11588 6.85225 8.19579C6.71513 8.27579 6.57461 8.3411 6.43066 8.39171L6.22805 10H3.77195ZM4.46786 9.21053H5.51378L5.70509 7.80066C5.97666 7.73048 6.22481 7.63079 6.44955 7.50158C6.67438 7.37228 6.89118 7.2061 7.09996 7.00303L8.42207 7.55263L8.94609 6.65789L7.79175 5.79763C7.83609 5.66132 7.86625 5.52768 7.88221 5.39671C7.89826 5.26583 7.90629 5.1336 7.90629 5C7.90629 4.86298 7.89826 4.73075 7.88221 4.60329C7.86625 4.47575 7.83609 4.34548 7.79175 4.2125L8.9562 3.34211L8.43231 2.44737L7.09477 3.005C6.91668 2.81675 6.70334 2.65044 6.45474 2.50605C6.20605 2.36167 5.95448 2.25943 5.70003 2.19934L5.53214 0.789474H4.47611L4.29997 2.19434C4.02849 2.25776 3.7778 2.35491 3.54792 2.48579C3.31795 2.61675 3.09857 2.78544 2.88979 2.99184L1.56769 2.44737L1.04379 3.34211L2.19295 4.18921C2.14861 4.31412 2.11757 4.44404 2.09983 4.57895C2.08209 4.71386 2.07322 4.85588 2.07322 5.005C2.07322 5.14202 2.08209 5.27632 2.09983 5.40789C2.11757 5.53947 2.14692 5.66939 2.1879 5.79763L1.04379 6.65789L1.56769 7.55263L2.88474 7C3.08669 7.20509 3.3026 7.37311 3.53249 7.50408C3.76246 7.63496 4.0166 7.73548 4.29491 7.80566L4.46786 9.21053ZM5.00612 6.57895C5.44886 6.57895 5.82562 6.42526 6.13639 6.11789C6.44716 5.81053 6.60254 5.43789 6.60254 5C6.60254 4.56211 6.44716 4.18947 6.13639 3.88211C5.82562 3.57474 5.44886 3.42105 5.00612 3.42105C4.55788 3.42105 4.17975 3.57474 3.87173 3.88211C3.56371 4.18947 3.4097 4.56211 3.4097 5C3.4097 5.43789 3.56371 5.81053 3.87173 6.11789C4.17975 6.42526 4.55788 6.57895 5.00612 6.57895Z" fill="white"/>
</svg>
