<svg width="25" height="24" viewBox="0 0 25 24" fill="none" xmlns="http://www.w3.org/2000/svg">
<rect x="0.25" width="24" height="24" rx="12" fill="#F3EFFE"/>
<path d="M4.16075 9.38266C4.53004 8.24053 5.13839 7.19213 5.94109 6.30364C6.07683 6.15339 6.28978 6.09984 6.48044 6.16802L8.39873 6.85392C8.9188 7.03977 9.49107 6.76883 9.67692 6.24875C9.6952 6.19762 9.70927 6.14507 9.719 6.09173L10.0845 4.08573C10.1208 3.88627 10.274 3.7285 10.4723 3.6863C11.0525 3.5628 11.6473 3.5 12.25 3.5C12.8523 3.5 13.4468 3.56273 14.0267 3.68607C14.2249 3.72824 14.3781 3.88591 14.4145 4.08529L14.781 6.09165C14.8801 6.63497 15.4009 6.9951 15.9442 6.89601C15.9976 6.88627 16.0502 6.87219 16.1012 6.85395L18.0196 6.16802C18.2102 6.09984 18.4232 6.15339 18.5589 6.30364C19.3616 7.19213 19.97 8.24053 20.3393 9.38266C20.4016 9.57534 20.3415 9.78658 20.1871 9.91764L18.6323 11.2377C18.2113 11.5952 18.1598 12.2263 18.5173 12.6473C18.5524 12.6887 18.5909 12.7271 18.6323 12.7623L20.1871 14.0824C20.3415 14.2134 20.4016 14.4247 20.3393 14.6173C19.97 15.7595 19.3616 16.8079 18.5589 17.6964C18.4232 17.8466 18.2102 17.9002 18.0196 17.832L16.1013 17.1461C15.5812 16.9602 15.009 17.2312 14.8231 17.7512C14.8048 17.8024 14.7908 17.8549 14.781 17.9085L14.4145 19.9147C14.3781 20.1141 14.2249 20.2718 14.0267 20.3139C13.4468 20.4373 12.8523 20.5 12.25 20.5C11.6473 20.5 11.0525 20.4372 10.4723 20.3137C10.274 20.2715 10.1208 20.1137 10.0845 19.9143L9.71902 17.9084C9.61993 17.365 9.09916 17.0049 8.55583 17.104C8.50241 17.1137 8.44987 17.1278 8.39881 17.1461L6.48044 17.832C6.28978 17.9002 6.07683 17.8466 5.94109 17.6964C5.13839 16.8079 4.53004 15.7595 4.16075 14.6173C4.09845 14.4247 4.15852 14.2134 4.31289 14.0824L5.86773 12.7623C6.28872 12.4048 6.34021 11.7737 5.98274 11.3527C5.94759 11.3113 5.90913 11.2729 5.86775 11.2377L4.31289 9.91764C4.15852 9.78658 4.09845 9.57534 4.16075 9.38266ZM5.2213 9.37709L6.51499 10.4755C6.59778 10.5458 6.67471 10.6227 6.74501 10.7055C7.45995 11.5475 7.35697 12.8096 6.51497 13.5246L5.2213 14.6229C5.51335 15.4051 5.9348 16.1322 6.46623 16.7751L8.06221 16.2044C8.16449 16.1679 8.26958 16.1397 8.37643 16.1202C9.46307 15.922 10.5046 16.6423 10.7028 17.729L11.0068 19.3975C11.4146 19.4655 11.83 19.5 12.25 19.5C12.6697 19.5 13.0848 19.4656 13.4924 19.3976L13.7972 17.7289C13.8167 17.6221 13.8449 17.517 13.8814 17.4147C14.2531 16.3746 15.3977 15.8327 16.4379 16.2044L18.0338 16.7751C18.5652 16.1322 18.9867 15.4051 19.2787 14.6229L17.985 13.5245C17.9022 13.4542 17.8253 13.3773 17.755 13.2945C17.0401 12.4525 17.1431 11.1904 17.9851 10.4754L19.2787 9.37709C18.9867 8.59486 18.5652 7.86783 18.0338 7.22494L16.4378 7.79559C16.3355 7.83214 16.2304 7.8603 16.1236 7.87979C15.037 8.07796 13.9954 7.3577 13.7973 6.27119L13.4924 4.60235C13.0848 4.53443 12.6697 4.5 12.25 4.5C11.83 4.5 11.4146 4.53448 11.0068 4.60249L10.7028 6.27105C10.6833 6.37791 10.6551 6.48299 10.6186 6.58527C10.2469 7.62542 9.10236 8.1673 8.06213 7.79556L6.46623 7.22494C5.9348 7.86783 5.51335 8.59486 5.2213 9.37709ZM9.75001 12C9.75001 10.6193 10.8693 9.5 12.25 9.5C13.6307 9.5 14.75 10.6193 14.75 12C14.75 13.3807 13.6307 14.5 12.25 14.5C10.8693 14.5 9.75001 13.3807 9.75001 12ZM10.75 12C10.75 12.8284 11.4216 13.5 12.25 13.5C13.0784 13.5 13.75 12.8284 13.75 12C13.75 11.1716 13.0784 10.5 12.25 10.5C11.4216 10.5 10.75 11.1716 10.75 12Z" fill="#6A3DED"/>
</svg>
