<svg width="16" height="16" viewBox="0 0 16 16" fill="none" xmlns="http://www.w3.org/2000/svg">
<path d="M0 8C0 3.58172 3.58172 0 8 0C12.4183 0 16 3.58172 16 8C16 12.4183 12.4183 16 8 16C3.58172 16 0 12.4183 0 8ZM4.64645 7.14645C4.45118 7.34171 4.45118 7.65829 4.64645 7.85355C4.84171 8.04882 5.15829 8.04882 5.35355 7.85355L7.5 5.70711V11.5C7.5 11.7761 7.72386 12 8 12C8.27614 12 8.5 11.7761 8.5 11.5V5.70711L10.6464 7.85355C10.8417 8.04882 11.1583 8.04882 11.3536 7.85355C11.5488 7.65829 11.5488 7.34171 11.3536 7.14645L8.35355 4.14645C8.15829 3.95118 7.84171 3.95118 7.64645 4.14645L4.64645 7.14645Z" fill="#028D5E"/>
</svg>
