<svg width="125" height="99" viewBox="0 0 125 99" fill="none" xmlns="http://www.w3.org/2000/svg">
<path fill-rule="evenodd" clip-rule="evenodd" d="M30.4088 82.9662C26.4937 81.6552 23.4987 78.1352 24.5632 75.0103C30.3185 58.2185 48.5588 33.7222 61.8556 10.0161C64.3995 5.49044 71.5621 6.28064 73.9797 10.8602C86.627 34.9255 103.514 59.2062 108.818 76.1417C109.793 79.2846 106.707 82.7148 102.756 83.918C78.5443 90.7425 54.4224 90.4192 30.4088 82.9303V82.9662Z" fill="#074785"/>
<path fill-rule="evenodd" clip-rule="evenodd" d="M25.8207 80.7937C21.9056 79.4827 18.9287 75.9627 19.9751 72.8378C25.7305 56.046 43.9888 31.5497 57.2856 7.8616C59.8295 3.3359 66.9921 4.1261 69.4097 8.70568C82.0569 32.7709 98.9441 57.0517 104.248 73.9872C105.223 77.13 102.137 80.5602 98.1863 81.7635C73.9742 88.588 49.8524 88.2647 25.8387 80.7757L25.8207 80.7937Z" fill="#FFC107"/>
<path d="M58.564 29.6608C58.9761 29.1337 59.5649 28.7421 60.3302 28.486C61.0956 28.23 61.8315 28.1095 62.5527 28.1245C63.1562 28.1245 63.7449 28.1547 64.3189 28.1848C64.8929 28.2149 65.4522 28.2902 65.9968 28.3957C67.1301 28.6818 67.9249 29.2692 68.3517 30.0976C68.7786 30.926 69.0288 31.8749 69.0729 32.9141C69.1171 33.9534 69.0729 34.9776 68.8963 35.9716C68.7344 36.9807 68.6167 37.779 68.5725 38.4116C68.0868 44.135 67.5569 49.8734 67.1448 55.5968C67.086 56.38 67.0271 57.1482 66.9829 57.9163C66.924 58.6995 66.7474 59.4375 66.4383 60.1303C66.144 60.7931 65.6436 61.26 64.9518 61.5612C64.26 61.8624 63.5535 61.9829 62.8176 61.9528C62.0817 61.9227 61.3752 61.7269 60.6982 61.3955C60.0064 61.0491 59.5207 60.5822 59.2411 59.9496C59.1233 59.6032 59.0203 59.1513 58.9467 58.6393C58.8731 58.1121 58.7995 57.6301 58.7407 57.2084C58.6818 56.5457 58.6376 55.8529 58.6229 55.1299C58.6229 54.407 58.5935 53.684 58.5493 52.946C58.2549 46.4243 57.8575 39.9177 57.5779 33.3961C57.5632 32.9292 57.6073 32.3267 57.7398 31.5736C57.8723 30.8206 58.1519 30.188 58.564 29.6608ZM65.8496 67.0737C66.144 67.4352 66.3795 67.9021 66.5267 68.4443C67.1743 70.9747 66.2028 73.987 63.3328 74.1677C61.699 74.2731 59.8592 73.5653 59.2999 71.8482C59.1233 71.2307 59.0203 70.5078 59.0056 69.6944C58.9761 68.0979 59.5649 66.6821 61.1103 66.17C62.8912 65.5826 64.8046 65.7784 65.8643 67.0737H65.8496Z" fill="white"/>
</svg>
