<svg width="18" height="21" viewBox="0 0 18 21" fill="none" xmlns="http://www.w3.org/2000/svg">
<path d="M6.2115 14.8463V10.3462H4.76925V9.15375H7.40375V14.8463H6.2115ZM9.59625 14.8463C9.31292 14.8463 9.07542 14.7504 8.88375 14.5588C8.69208 14.3671 8.59625 14.1296 8.59625 13.8462V10.1537C8.59625 9.87042 8.69208 9.63292 8.88375 9.44125C9.07542 9.24958 9.31292 9.15375 9.59625 9.15375H11.4808C11.7641 9.15375 12.0016 9.24958 12.1932 9.44125C12.3849 9.63292 12.4808 9.87042 12.4808 10.1537V13.8462C12.4808 14.1296 12.3849 14.3671 12.1932 14.5588C12.0016 14.7504 11.7641 14.8463 11.4808 14.8463H9.59625ZM9.90375 13.6537H11.173C11.2115 13.6537 11.2404 13.6442 11.2598 13.625C11.2789 13.6058 11.2885 13.577 11.2885 13.5385V10.4615C11.2885 10.423 11.2789 10.3942 11.2598 10.375C11.2404 10.3558 11.2115 10.3462 11.173 10.3462H9.90375C9.86542 10.3462 9.83658 10.3558 9.81725 10.375C9.79808 10.3942 9.7885 10.423 9.7885 10.4615V13.5385C9.7885 13.577 9.79808 13.6058 9.81725 13.625C9.83658 13.6442 9.86542 13.6537 9.90375 13.6537ZM9 20.5C7.8205 20.5 6.71542 20.2769 5.68475 19.8307C4.65392 19.3846 3.75517 18.7782 2.9885 18.0115C2.22183 17.2448 1.61542 16.3461 1.16925 15.3152C0.723083 14.2846 0.5 13.1795 0.5 12C0.5 10.8205 0.723083 9.71542 1.16925 8.68475C1.61542 7.65391 2.22183 6.75516 2.9885 5.9885C3.75517 5.22183 4.65392 4.61541 5.68475 4.16925C6.71542 3.72308 7.8205 3.5 9 3.5H9.2655L7.65775 1.89225L8.7115 0.807747L12.1538 4.2405L8.73075 7.673L7.677 6.5885L9.2655 5H9C7.05 5 5.39583 5.67916 4.0375 7.0375C2.67917 8.39583 2 10.05 2 12C2 13.95 2.67917 15.6042 4.0375 16.9625C5.39583 18.3208 7.05 19 9 19C10.95 19 12.6042 18.3208 13.9625 16.9625C15.3208 15.6042 16 13.95 16 12H17.5C17.5 13.1795 17.2769 14.2846 16.8307 15.3152C16.3846 16.3461 15.7782 17.2448 15.0115 18.0115C14.2448 18.7782 13.3461 19.3846 12.3152 19.8307C11.2846 20.2769 10.1795 20.5 9 20.5Z" fill="#E8EAED"/>
</svg>
