<svg width="14" height="14" viewBox="0 0 14 14" fill="none" xmlns="http://www.w3.org/2000/svg">
<path fill-rule="evenodd" clip-rule="evenodd" d="M7.38906 10.0507L9.87294 12.6433C10.1154 12.8964 10.5086 12.8964 10.7511 12.6433L13.2349 10.0507C13.4775 9.79759 13.4775 9.38727 13.2349 9.13415C12.9924 8.88102 12.5993 8.88102 12.3568 9.13415L10.933 10.6202V1.81465C10.933 1.45669 10.6549 1.1665 10.312 1.1665C9.96907 1.1665 9.69104 1.45669 9.69104 1.81465V10.6202L8.2672 9.13415C8.02469 8.88102 7.63157 8.88102 7.38906 9.13415C7.14655 9.38727 7.14655 9.79759 7.38906 10.0507ZM4.12743 1.35634C3.88493 1.10323 3.49175 1.10323 3.24925 1.35634L0.765372 3.94894C0.522871 4.20205 0.522871 4.61244 0.765372 4.86555C1.00787 5.11867 1.40105 5.11867 1.64355 4.86555L3.06737 3.37942V12.185C3.06737 12.543 3.34539 12.8332 3.68834 12.8332C4.03129 12.8332 4.30931 12.543 4.30931 12.185V3.37942L5.73315 4.86555C5.97566 5.11867 6.36877 5.11867 6.61128 4.86555C6.85379 4.61244 6.85379 4.20205 6.61128 3.94894L4.12743 1.35634Z" fill="currentColor"/>
</svg>
