<svg width="80" height="58" viewBox="0 0 80 58" fill="none" xmlns="http://www.w3.org/2000/svg">
<path d="M67.8923 40.6326C67.8914 40.6577 67.8909 40.6828 67.89 40.7081C67.7705 43.8937 67.1176 46.9336 66.0211 49.7463L72.5958 52.5554C74.0265 48.9592 74.8781 45.0629 75.0314 40.976C75.0326 40.9443 75.0333 40.9128 75.0344 40.8811C75.0501 40.4283 75.0569 39.9772 75.0554 39.5278H67.9089C67.9105 39.8946 67.9053 40.2628 67.8923 40.6326Z" fill="#008F79"/>
<path d="M64.649 26.6117C66.7145 30.4766 67.8888 34.8761 67.909 39.5276H75.0554C75.0356 33.6702 73.5595 28.1297 70.9591 23.2639C70.7424 22.8583 70.5177 22.4575 70.2856 22.0615L64.0994 25.6332C64.2888 25.9555 64.4724 26.2814 64.649 26.6117Z" fill="#14AF46"/>
<path d="M73.6604 57.966C73.472 57.966 73.2845 57.9242 73.1092 57.8412L61.2173 52.2091C60.9065 52.0622 60.6711 51.8024 60.5551 51.4776C60.4393 51.1534 60.4567 50.8035 60.604 50.4923L61.0314 49.59C61.0502 49.4979 61.0798 49.4066 61.121 49.3179C62.3317 46.7055 63.0385 43.911 63.222 41.0119C63.6557 34.156 61.0555 27.4964 56.0882 22.7408C51.1242 17.9884 44.2921 15.6897 37.3436 16.4341C28.6061 17.3702 19.4929 25.3788 17.4435 33.9222C16.2119 39.0565 16.6669 44.2593 18.7593 48.9681C18.7753 49.0042 18.7895 49.0405 18.8018 49.0772L19.3058 50.0935C19.4588 50.4019 19.4825 50.7515 19.3725 51.0778C19.2625 51.4043 19.0319 51.6683 18.7233 51.8213L6.80086 57.7345C6.16383 58.0502 5.38902 57.789 5.07327 57.1524L4.4198 55.8349C4.35779 55.7097 4.31807 55.5763 4.30123 55.4403C2.98902 52.4984 2.04645 49.4031 1.49832 46.2346C0.910724 42.8382 0.776899 39.3567 1.10053 35.8866C1.57005 30.8521 2.98357 26.035 5.30195 21.5688C7.54508 17.2476 10.5458 13.4192 14.2205 10.1898C17.8952 6.96032 22.0775 4.47627 26.6511 2.80666C31.378 1.08108 36.3365 0.297806 41.3899 0.478562C46.7758 0.671214 51.9496 1.92803 56.7678 4.21398C59.0792 5.31057 61.2941 6.6439 63.3509 8.17675C65.386 9.69334 67.283 11.4178 68.9895 13.302C70.6983 15.1888 72.229 17.2503 73.539 19.4293C74.8615 21.6286 75.9696 23.9655 76.8328 26.3748C78.6297 31.3905 79.3688 36.6515 79.0296 42.012C78.6991 47.236 77.3619 52.2439 75.0552 56.8967C74.9982 57.0115 74.9244 57.1155 74.8368 57.2058L74.8263 57.228C74.679 57.5392 74.4193 57.7744 74.095 57.8902C73.9532 57.9409 73.8065 57.966 73.6604 57.966ZM63.3229 50.4891L73.1708 55.1531C75.1384 50.9796 76.2844 46.5101 76.5788 41.8569C77.2086 31.9014 73.867 22.3458 67.1693 14.9505C60.4743 7.55797 51.2878 3.29001 41.3021 2.93278C40.8599 2.91694 40.4163 2.90906 39.9771 2.90906C21.1778 2.90906 5.30438 17.2555 3.54561 36.1147C2.94888 42.5129 4.03475 48.9583 6.68581 54.754C6.72385 54.8372 6.75184 54.9225 6.77028 55.0085L16.5873 50.1395L16.5271 50.018C16.4931 49.9494 16.4661 49.8791 16.4458 49.8079C15.3633 47.3272 14.6845 44.7046 14.4279 42.01C14.1546 39.1389 14.3656 36.2251 15.0555 33.3494C15.6209 30.9921 16.6474 28.6518 18.1063 26.3937C19.5023 24.2327 21.2334 22.2379 23.2511 20.4648C25.2687 18.6918 27.4694 17.2316 29.7921 16.1247C32.2189 14.9681 34.6716 14.2507 37.082 13.9924C41.0235 13.5701 44.8707 14.0024 48.5169 15.2772C50.2501 15.8832 51.9229 16.6797 53.4888 17.6447C55.0297 18.5942 56.4757 19.7121 57.7864 20.967C63.2779 26.2243 66.1524 33.5869 65.6728 41.1669C65.4765 44.2708 64.7366 47.2676 63.473 50.0788C63.4539 50.1798 63.4218 50.2801 63.3758 50.3771L63.3229 50.4891Z" fill="#E6E6E6"/>
<path d="M7.4474 52.4056L13.9154 49.3141C12.7807 46.261 12.1704 42.9612 12.1886 39.5276H5.0422C5.02259 44.0612 5.87491 48.4089 7.4474 52.4056Z" fill="#FF3333"/>
<path d="M16.4139 24.933C18.8491 21.0517 22.2153 17.8233 26.188 15.5465L22.6204 9.36719C17.6341 12.2276 13.4089 16.2816 10.3515 21.1545C10.1619 21.4566 9.97707 21.762 9.79657 22.0703L15.9836 25.6424C16.1236 25.4037 16.267 25.1671 16.4139 24.933Z" fill="#FFA733"/>
<path d="M54.8099 16.0878C58.6329 18.4754 61.8236 21.7599 64.0993 25.6334L70.2856 22.0617C67.4251 17.1827 63.409 13.0462 58.5963 10.0404C58.22 9.80544 57.8387 9.57742 57.4529 9.35645L53.8856 15.5352C54.1976 15.7137 54.5058 15.8978 54.8099 16.0878Z" fill="#69C843"/>
<path d="M41.0148 11.8861C41.04 11.887 41.0652 11.8875 41.0905 11.8885C45.7513 12.0633 50.1016 13.3707 53.8856 15.5351L57.4529 9.35649C52.6942 6.63068 47.2214 4.98394 41.3577 4.76397C41.3259 4.7628 41.2944 4.76213 41.2627 4.76104C40.8516 4.74671 40.4418 4.73967 40.0335 4.7395V11.8689C40.3594 11.869 40.6866 11.8746 41.0148 11.8861Z" fill="#C3D947"/>
<path d="M12.2071 38.6192C12.3849 33.8819 13.7411 29.4663 15.9837 25.6424L9.79657 22.0703C6.98729 26.8695 5.2886 32.409 5.0657 38.3513C5.06453 38.3829 5.06386 38.4144 5.06277 38.4461C5.0502 38.8078 5.04383 39.1682 5.04224 39.5276H12.1886C12.1901 39.2508 12.1951 38.9731 12.2048 38.6946C12.2056 38.6694 12.2062 38.6444 12.2071 38.6192Z" fill="#FF7733"/>
<path d="M26.9614 15.1193C30.87 13.0408 35.3244 11.8675 40.0335 11.8689V4.7395C34.115 4.73707 28.5167 6.21135 23.6044 8.82344C23.2732 8.99959 22.9452 9.18093 22.6204 9.3673L26.188 15.5465C26.4433 15.4002 26.7011 15.2577 26.9614 15.1193Z" fill="#FFDA33"/>
</svg>
