<svg width="25" height="24" viewBox="0 0 25 24" fill="none" xmlns="http://www.w3.org/2000/svg">
<rect x="0.25" width="24" height="24" rx="12" fill="#FEF8EB"/>
<path d="M11.3543 4.89899C11.7211 4.15574 12.781 4.15574 13.1478 4.89899L15.0782 8.81048L19.3948 9.43772C20.2151 9.55691 20.5426 10.5649 19.949 11.1434L16.8255 14.1881L17.5629 18.4872C17.703 19.3042 16.8456 19.9271 16.1119 19.5414L12.2511 17.5116L8.39018 19.5414C7.65655 19.9271 6.79913 19.3041 6.93924 18.4872L7.6766 14.1881L4.55308 11.1434C3.95956 10.5649 4.28708 9.55691 5.1073 9.43772L9.42389 8.81048L11.3543 4.89899ZM12.2511 5.34155L10.3206 9.25305C10.175 9.54819 9.8934 9.75276 9.56769 9.80009L5.25109 10.4273L8.37461 13.472C8.6103 13.7017 8.71784 14.0327 8.66221 14.3571L7.92484 18.6563L11.7857 16.6265C12.077 16.4733 12.4251 16.4733 12.7164 16.6265L16.5773 18.6563L15.8399 14.3571C15.7843 14.0327 15.8918 13.7017 16.1275 13.472L19.251 10.4273L14.9344 9.80009C14.6087 9.75276 14.3272 9.54819 14.1815 9.25305L12.2511 5.34155Z" fill="#F3B119"/>
</svg>