<svg width="212" height="175" viewBox="0 0 212 175" fill="none" xmlns="http://www.w3.org/2000/svg">
<path d="M197.409 165.095C200.614 166.373 204.272 164.83 205.372 161.577C213.894 136.37 212.84 108.847 202.268 84.2628C190.874 57.7684 169.36 36.8585 142.458 26.1331C115.556 15.4076 85.4697 15.7452 58.8181 27.0715C34.0882 37.581 14.195 56.7529 2.83527 80.8283C1.36894 83.9359 2.9412 87.564 6.14599 88.8417L197.409 165.095Z" fill="url(#paint0_linear_98_3838)"/>
<path d="M181.722 118.129L205.611 117.505L187.708 156.995L164.193 156.995L181.722 118.129Z" fill="#B31759"/>
<path d="M135.352 156.995H187.758L185.919 158.288H133.514L135.352 156.995Z" fill="#BE2330"/>
<path d="M57.3305 78.1749C54.1682 76.7966 50.4454 78.2214 49.4063 81.4949C45.434 94.0089 45.8473 107.564 50.693 119.903C56.3005 134.181 67.3839 145.66 81.505 151.815C95.6262 157.969 111.628 158.295 125.991 152.721C138.403 147.904 148.712 139.022 155.279 127.638C156.997 124.661 155.529 120.973 152.367 119.595L57.3305 78.1749Z" fill="#6A11B0"/>
<path d="M118.7 135.332L114.738 109.105L110.682 113.822L111.778 145.559L142.851 138.654L143.215 140.466C143.374 141.257 143.78 141.978 144.374 142.527L148.203 146.067C149.619 147.376 152.662 147.433 151.442 145.939L148.636 142.5C148.335 142.132 148.541 141.578 149.01 141.492L151.729 140.994C152.249 140.899 152.772 141.143 153.03 141.602L156.038 146.959C157.015 148.698 158.783 146.967 158.257 145.044L157.107 140.835L161.597 146.3C162.534 147.441 163.938 148.103 165.42 148.103H166.734L164.544 142.902C163.202 139.712 160.382 137.371 156.986 136.625L144.369 133.854L118.7 135.332Z" fill="#FF7581"/>
<path fill-rule="evenodd" clip-rule="evenodd" d="M156.639 137.748C156.711 137.633 156.864 137.598 156.979 137.669L160.531 139.868L165.387 147.538C165.459 147.653 165.425 147.804 165.309 147.876C165.194 147.949 165.042 147.914 164.969 147.799L160.174 140.224L156.718 138.086C156.603 138.014 156.567 137.863 156.639 137.748ZM153.93 138.47C154.002 138.355 154.154 138.32 154.27 138.393L156.584 139.838C156.699 139.91 156.734 140.062 156.661 140.177C156.589 140.291 156.436 140.326 156.321 140.254L154.007 138.808C153.892 138.736 153.857 138.584 153.93 138.47Z" fill="black"/>
<path d="M115.3 109.579L111.244 114.297L111.629 125.432L118.362 122.836L115.3 109.579Z" fill="#280154"/>
<path d="M94.3984 79.7017L115.441 78.6896V90.3774C115.441 94.7744 111.211 97.9511 106.956 96.7492L97.5129 94.0814L94.3984 79.7017Z" fill="#F8ABB1"/>
<path d="M118.04 155.283L115.521 110.708C115.388 108.353 113.754 106.347 111.465 105.728L87.123 99.1464L75.7982 149.397C77.5061 150.358 79.2692 151.236 81.0824 152.026C92.778 157.124 105.764 158.223 118.04 155.283Z" fill="#EE2C3C"/>
<path d="M76.0602 144.372L87.6209 111.986L84.5376 145.338L97.7747 148.863L76.0602 144.372Z" fill="#280154"/>
<path d="M95.9949 103.051L97.5799 93.4757H106.147L104.224 104.437C103.835 106.655 101.738 108.159 99.4981 107.828C97.1937 107.487 95.6166 105.336 95.9949 103.051Z" fill="#F8ABB1"/>
<path d="M58.7906 145.65L82.283 101.27C83.3932 99.1727 86.0157 98.3848 88.1087 99.5197C89.9412 100.513 90.7829 102.678 90.0991 104.639L77.1664 141.716L113.618 142.755L130.611 139.983C132.13 139.735 133.688 140.038 135.001 140.837L144.537 145.65L149.299 151.21C151.028 153.229 149.477 155.663 147.684 153.699L141.788 147.616L132.966 143.636L138.281 149.364L139.902 155.584L131.906 155.085C130.99 155.085 130.14 154.607 129.668 153.827L128.361 151.664L122.035 148.355L115.045 150.321L66.8833 157.08C60.5072 157.975 55.7919 151.315 58.7906 145.65Z" fill="#F8ABB1"/>
<path fill-rule="evenodd" clip-rule="evenodd" d="M70.9703 141.373C70.9753 141.238 71.0897 141.132 71.226 141.137L112.977 142.663C113.113 142.668 113.219 142.782 113.214 142.917C113.209 143.053 113.095 143.158 112.958 143.153L71.2078 141.628C71.0716 141.623 70.9653 141.509 70.9703 141.373Z" fill="black"/>
<path d="M90.1863 104.663L86.2675 116.875L76.0602 112.198L82.1933 101.228C83.3607 99.1398 86.0035 98.3784 88.113 99.5223C89.9539 100.52 90.8236 102.677 90.1863 104.663Z" fill="#EE2C3C"/>
<path d="M92.8178 84.3658L97.5308 93.6175L97.802 89.882C97.845 89.2903 97.7653 88.696 97.5679 88.1361L96.5716 85.3111C96.3078 84.563 96.5673 83.7314 97.2107 83.263C98.2654 82.4951 99.766 83.0571 100.049 84.3259L100.613 86.8563L103.752 80.7633H115.419V83.2895L119.567 80.1511C120.528 79.4242 121.158 78.3471 121.319 77.1574C121.744 74.0103 118.857 71.4205 115.752 72.1633L113.693 72.6556L113.94 71.3787C114.283 69.5992 112.911 67.9491 111.088 67.9491C110.356 67.9491 109.651 68.2241 109.114 68.719L104.844 72.6556V71.1244C104.844 69.3707 103.414 67.9491 101.649 67.9491C100.355 67.9491 99.1893 68.7252 98.6963 69.9145C96.8307 74.4145 91.3133 78.3429 92.3629 83.0999C92.4575 83.5288 92.6079 83.9538 92.8178 84.3658Z" fill="#280154"/>
<path d="M101.284 93.8394L105.571 96.2668L104.594 102.201L101.284 93.8394Z" fill="#FF7581"/>
<path fill-rule="evenodd" clip-rule="evenodd" d="M106.967 85.3823C106.403 85.5807 105.994 86.0217 105.795 86.3668C105.727 86.4843 105.576 86.5248 105.458 86.4573C105.34 86.3898 105.299 86.2398 105.367 86.1224C105.61 85.7025 106.101 85.1665 106.803 84.9197C107.521 84.6671 108.42 84.7317 109.427 85.4542C109.538 85.5335 109.563 85.6868 109.483 85.7967C109.403 85.9066 109.249 85.9314 109.139 85.8522C108.246 85.2119 107.515 85.1898 106.967 85.3823Z" fill="black"/>
<path fill-rule="evenodd" clip-rule="evenodd" d="M113.936 84.7047C113.411 84.7643 112.97 85.0638 112.729 85.3219C112.636 85.4212 112.48 85.427 112.38 85.3349C112.28 85.2427 112.275 85.0875 112.367 84.9882C112.667 84.6668 113.21 84.2933 113.88 84.2172C114.568 84.1392 115.347 84.3795 116.086 85.2173C116.176 85.3192 116.165 85.4742 116.063 85.5635C115.96 85.6528 115.804 85.6426 115.715 85.5407C115.069 84.8086 114.444 84.6472 113.936 84.7047Z" fill="black"/>
<path fill-rule="evenodd" clip-rule="evenodd" d="M110.091 92.9786C110.429 92.9176 110.706 92.7028 110.852 92.5236C110.938 92.4184 111.094 92.4024 111.199 92.4878C111.305 92.5733 111.321 92.7278 111.235 92.8329C111.034 93.0791 110.661 93.3745 110.179 93.4614C109.68 93.5515 109.105 93.4102 108.541 92.849C108.444 92.7532 108.444 92.5978 108.541 92.502C108.637 92.4062 108.793 92.4062 108.89 92.502C109.354 92.9638 109.77 93.0365 110.091 92.9786Z" fill="black"/>
<path d="M108.567 87.7039C108.567 88.2828 108.311 88.7522 107.997 88.7522C107.682 88.7522 107.427 88.2828 107.427 87.7039C107.427 87.1249 107.682 86.6555 107.997 86.6555C108.311 86.6555 108.567 87.1249 108.567 87.7039Z" fill="black"/>
<path d="M114.79 87.7039C114.79 88.2828 114.535 88.7522 114.221 88.7522C113.906 88.7522 113.651 88.2828 113.651 87.7039C113.651 87.1249 113.906 86.6555 114.221 86.6555C114.535 86.6555 114.79 87.1249 114.79 87.7039Z" fill="black"/>
<path fill-rule="evenodd" clip-rule="evenodd" d="M111.18 87.0438C111.292 86.9658 111.446 86.9923 111.524 87.1031C111.864 87.583 112.29 88.3366 112.435 89.0271C112.507 89.3718 112.517 89.734 112.376 90.0429C112.227 90.3674 111.933 90.5891 111.498 90.6791C111.364 90.7067 111.234 90.6215 111.206 90.4889C111.178 90.3562 111.264 90.2263 111.397 90.1987C111.708 90.1345 111.854 89.9968 111.926 89.8398C112.005 89.6671 112.014 89.4255 111.952 89.1272C111.827 88.5316 111.444 87.8421 111.121 87.3856C111.042 87.2749 111.069 87.1218 111.18 87.0438Z" fill="black"/>
<path fill-rule="evenodd" clip-rule="evenodd" d="M129.083 144.336C129.179 144.24 129.335 144.239 129.432 144.335L135.104 149.922L137.519 155.147C137.576 155.27 137.522 155.416 137.398 155.473C137.274 155.529 137.127 155.475 137.07 155.352L134.693 150.207L129.085 144.683C128.988 144.588 128.987 144.432 129.083 144.336ZM125.911 145.92C126 145.817 126.156 145.805 126.259 145.894L131.851 150.679L134.269 155.133C134.334 155.252 134.289 155.401 134.17 155.466C134.05 155.53 133.9 155.485 133.835 155.366L131.46 150.992L125.937 146.266C125.834 146.177 125.822 146.022 125.911 145.92Z" fill="black"/>
<path fill-rule="evenodd" clip-rule="evenodd" d="M98.4934 84.9694C98.449 84.7708 98.2492 84.647 98.0502 84.695C97.8529 84.7425 97.7323 84.9407 97.7816 85.1365L97.8513 85.4137C97.8844 85.5452 97.804 85.6784 97.6717 85.7112C97.5395 85.7441 97.4055 85.6642 97.3725 85.5328L97.3027 85.2556C97.187 84.7955 97.4704 84.3298 97.934 84.2181C98.4015 84.1054 98.8709 84.3962 98.9753 84.863L99.4979 87.2008C99.5274 87.333 99.4435 87.4641 99.3105 87.4935C99.1774 87.5229 99.0456 87.4395 99.016 87.3072L98.4934 84.9694Z" fill="black"/>
<path d="M159.483 89.5341H199.499L190.451 113.535H150.434L159.483 89.5341Z" fill="#280154"/>
<path d="M157.226 85.782H197.242L188.194 109.783H148.177L157.226 85.782Z" fill="#FF7581"/>
<path fill-rule="evenodd" clip-rule="evenodd" d="M196.576 86.9069L170.245 99.2429L156.906 86.8211L157.581 86.1049L170.431 98.0711L196.155 86.0192L196.576 86.9069Z" fill="#EE2C3C"/>
<path d="M165.917 97.7422C165.776 98.1998 166.625 98.5113 166.641 98.9244C166.656 99.3524 165.848 100.132 166.011 100.488C166.176 100.848 167.217 100.573 167.515 100.835C167.81 101.094 167.538 102.045 167.945 102.185C168.338 102.318 169.172 101.564 169.653 101.564C170.135 101.564 170.505 102.318 170.98 102.185C171.473 102.045 171.786 101.094 172.24 100.835C172.699 100.573 173.571 100.848 173.958 100.488C174.339 100.132 174.011 99.3524 174.289 98.9244C174.557 98.5113 175.6 98.1998 175.741 97.7422C175.881 97.2846 175.032 96.9731 175.017 96.56C175.001 96.1321 175.809 95.3524 175.647 94.9965C175.481 94.6363 174.44 94.9117 174.142 94.649C173.847 94.3906 174.12 93.4393 173.713 93.2995C173.319 93.166 172.486 93.9202 172.004 93.9202C171.523 93.9202 171.153 93.166 170.678 93.2995C170.184 93.4393 169.872 94.3906 169.418 94.649C168.958 94.9117 168.087 94.6363 167.7 94.9965C167.318 95.3524 167.647 96.1321 167.368 96.56C167.101 96.9731 166.058 97.2846 165.917 97.7422Z" fill="#B31759"/>
<path d="M169.934 100.653C168.243 100.653 167.272 99.3499 167.767 97.7422C168.261 96.1345 170.033 94.8312 171.724 94.8312C173.415 94.8312 174.385 96.1345 173.891 97.7422C173.397 99.3499 171.625 100.653 169.934 100.653Z" fill="#B31759"/>
<path d="M171.292 96.2356L170.473 97.2271L169.271 97.386L169.868 98.1572L169.336 99.2483L170.524 98.7334L171.395 99.2483L171.535 98.1572L172.605 97.386L171.502 97.2271L171.292 96.2356Z" fill="#EE2C3C"/>
<path d="M174.573 39.1691H130.374L120.379 65.6795H155.524L158.688 79.8811L174.573 39.1691Z" fill="#280154"/>
<path d="M172.556 35.9316H128.357L118.362 62.442H153.508L156.671 76.6437L172.556 35.9316Z" fill="#EE2C3C"/>
<path fill-rule="evenodd" clip-rule="evenodd" d="M162.921 41.8862H132.031V40.9049H162.921V41.8862Z" fill="white"/>
<path fill-rule="evenodd" clip-rule="evenodd" d="M160.31 47.5985H129.42V46.6171H160.31V47.5985Z" fill="white"/>
<path fill-rule="evenodd" clip-rule="evenodd" d="M144.345 53.3105H127.329V52.3292H144.345V53.3105Z" fill="white"/>
<path d="M122.513 14.1746L93.7888 20.1385L76.0016 43.3387L104.726 37.3748L122.513 14.1746Z" fill="#BE2330"/>
<path fill-rule="evenodd" clip-rule="evenodd" d="M78.7521 41.8444C78.9792 41.8444 79.1634 42.0275 79.1634 42.2533V57.1592C80.1783 57.3506 80.9458 58.2371 80.9458 59.3017C80.9458 60.5061 79.9636 61.4825 78.7521 61.4825C77.5405 61.4825 76.5583 60.5061 76.5583 59.3017C76.5583 58.2371 77.3258 57.3506 78.3407 57.1592V42.2533C78.3407 42.0275 78.5249 41.8444 78.7521 41.8444Z" fill="#280154"/>
<path d="M86.7645 36.5897L111.75 20.9231L118.594 31.7101L93.6089 47.3767L86.7645 36.5897Z" fill="#EE2C3C"/>
<path d="M111.75 20.9229C112.688 22.4019 107.856 27.108 100.956 31.4342C94.0568 35.7604 87.7029 38.0685 86.7644 36.5895C85.826 35.1104 90.6583 30.4043 97.5578 26.0781C104.457 21.7519 110.811 19.4438 111.75 20.9229Z" fill="#EE2C3C"/>
<path d="M118.594 31.7101C119.533 33.1891 114.7 37.8952 107.801 42.2214C100.901 46.5477 94.5475 48.8557 93.609 47.3767C92.6706 45.8977 97.5029 41.1916 104.402 36.8654C111.302 32.5392 117.656 30.2311 118.594 31.7101Z" fill="#280154"/>
<path d="M17.8201 34.1136H52.5966C53.2865 34.1136 54.0226 34.6761 54.2363 35.3667L70.0944 86.6015H32.8142L16.9561 35.3667C16.7424 34.6761 17.1303 34.1136 17.8201 34.1136Z" fill="#280154"/>
<path d="M20.0169 30.1093H54.7934C55.4832 30.1093 56.2194 30.6719 56.4331 31.3624L72.2912 82.5972H35.011L19.1529 31.3624C18.9391 30.6719 19.327 30.1093 20.0169 30.1093Z" fill="#EE2C3C"/>
<path d="M54.6218 32.3795H21.5917L36.3611 80.0994H69.3912L54.6218 32.3795Z" fill="#FCD5D8"/>
<path d="M68.4003 80.099H68.2672L54.313 35.0097C53.5409 34.7609 52.8209 34.2505 52.323 33.6055H24.5688C24.4755 34.2251 24.0969 34.7228 23.5192 34.9818L37.4821 80.099H37.3489L23.3593 34.8954L23.3972 34.8802C23.9789 34.6339 24.3575 34.1362 24.4355 33.5192L24.4397 33.4811H52.3724L52.4002 33.5192C52.8848 34.1641 53.6012 34.672 54.3694 34.9081L54.4194 34.9234L68.4003 80.099Z" fill="#FF7581"/>
<path d="M56.8934 72.36C57.0638 72.9085 56.0503 73.2817 56.0336 73.7769C56.0171 74.2898 56.9866 75.2243 56.7941 75.6509C56.5978 76.0825 55.3526 75.7524 54.9976 76.0673C54.6463 76.3771 54.9764 77.5172 54.4904 77.6848C54.0206 77.8448 53.0207 76.9408 52.4453 76.9408C51.87 76.9408 51.4315 77.8448 50.8624 77.6848C50.2723 77.5172 49.8943 76.3771 49.3506 76.0673C48.7999 75.7524 47.7597 76.0825 47.2954 75.6509C46.8379 75.2243 47.227 74.2898 46.8919 73.7769C46.5703 73.2817 45.3223 72.9085 45.1519 72.36C44.9816 71.8115 45.9951 71.4383 46.0118 70.9431C46.0283 70.4302 45.0588 69.4957 45.2513 69.0691C45.4475 68.6375 46.6928 68.9676 47.0478 68.6527C47.3991 68.3429 47.069 67.2028 47.555 67.0352C48.0247 66.8752 49.0247 67.7792 49.6 67.7792C50.1754 67.7792 50.6138 66.8752 51.1829 67.0352C51.773 67.2028 52.1511 68.3429 52.6948 68.6527C53.2454 68.9676 54.2856 68.6375 54.75 69.0691C55.2074 69.4957 54.8184 70.4302 55.1535 70.9431C55.4751 71.4383 56.7231 71.8115 56.8934 72.36Z" fill="#FF7581"/>
<path d="M52.106 75.8489C54.1271 75.8489 55.2805 74.2869 54.6821 72.36C54.0837 70.4331 51.9602 68.8711 49.9391 68.8711C47.918 68.8711 46.7646 70.4331 47.363 72.36C47.9614 74.2869 50.0849 75.8489 52.106 75.8489Z" fill="#EE2C3C"/>
<path d="M50.4619 70.5546L51.4463 71.743L52.8826 71.9334L52.1735 72.8577L52.814 74.1654L51.3917 73.5484L50.3527 74.1654L50.181 72.8577L48.8977 71.9334L50.2157 71.743L50.4619 70.5546Z" fill="#FF7581"/>
<path d="M54.4591 45.5228H30.2015L30.5766 46.7314H54.8342L54.4591 45.5228Z" fill="#FF7581"/>
<path d="M47.3614 37.5092H32.3635L33.6183 41.555H48.6162L47.3614 37.5092Z" fill="#FF7581"/>
<path d="M55.714 49.603H31.4564L31.8315 50.8117H56.0891L55.714 49.603Z" fill="#FF7581"/>
<path d="M56.9684 53.6813H32.7108L33.0859 54.89H57.3435L56.9684 53.6813Z" fill="#FF7581"/>
<path d="M58.2233 57.7616H33.9657L34.3408 58.9703H58.5984L58.2233 57.7616Z" fill="#FF7581"/>
<path d="M54.851 61.8397H39.8485L40.2236 63.0484H55.2261L54.851 61.8397Z" fill="#FF7581"/>
<defs>
<linearGradient id="paint0_linear_98_3838" x1="38.7905" y1="-9.17273" x2="237.248" y2="111.188" gradientUnits="userSpaceOnUse">
<stop offset="0.119792" stop-color="#FBCCD0"/>
<stop offset="0.645833" stop-color="#F1C6D8"/>
<stop offset="1" stop-color="#DBC6EC"/>
</linearGradient>
</defs>
</svg>
