<svg width="150" height="144" viewBox="0 0 150 144" fill="none" xmlns="http://www.w3.org/2000/svg">
<g clip-path="url(#clip0_74_23257)">
<path fill-rule="evenodd" clip-rule="evenodd" d="M79.2469 143.5C61.4396 143.5 43.4268 142.47 25.6986 140.449C23.9669 140.254 20.6063 138.943 18.7085 137.492C16.1387 135.51 14.913 133.427 15.0712 131.298C15.2214 129.277 16.5578 127.56 19.0327 126.179C20.7407 125.235 23.4529 124.643 25.2558 124.541C25.3665 124.541 25.4772 124.486 25.5484 124.401C25.6195 124.315 25.6591 124.206 25.6433 124.089C23.4292 104.724 23.6585 85.1106 26.3233 65.7932C26.9084 61.627 30.5853 58.0928 34.6813 57.7573C49.468 56.5714 64.4602 55.9707 79.239 55.9707C94.0177 55.9707 109.01 56.5714 123.789 57.7495C127.893 58.085 131.57 61.6192 132.155 65.7776C134.819 85.1028 135.049 104.717 132.835 124.081C132.819 124.19 132.858 124.299 132.93 124.393C133.001 124.479 133.111 124.526 133.222 124.533C134.978 124.627 137.753 125.235 139.445 126.164C141.928 127.545 143.257 129.269 143.415 131.282C143.573 133.412 142.355 135.495 139.777 137.477C137.88 138.928 134.527 140.238 132.787 140.441C115.059 142.47 97.0383 143.492 79.2311 143.492L79.2469 143.5Z" fill="#074785"/>
<path fill-rule="evenodd" clip-rule="evenodd" d="M129.348 129.129C128.937 132.055 126.224 134.661 123.409 134.895C93.8519 137.259 64.2944 137.259 34.7369 134.895C31.9219 134.661 29.2097 132.055 28.7985 129.129C25.9044 108.134 25.9044 87.1397 28.7985 66.145C29.2097 63.2193 31.9219 60.6135 34.7369 60.3794C64.2944 58.0155 93.8519 58.0155 123.409 60.3794C126.224 60.6135 128.937 63.2193 129.348 66.145C132.242 87.1397 132.242 108.134 129.348 129.129Z" fill="white"/>
<path fill-rule="evenodd" clip-rule="evenodd" d="M137.975 135.41C136.457 136.572 133.499 137.696 132.321 137.836C96.9043 141.885 61.2503 141.885 25.8413 137.836C24.6631 137.703 21.7058 136.572 20.1876 135.41C16.7005 132.726 16.7005 130.417 20.1876 128.474C21.7058 127.631 24.6631 127.093 25.8413 127.171C61.2582 129.792 96.9122 129.792 132.321 127.171C133.507 127.085 136.457 127.631 137.975 128.474C141.462 130.417 141.462 132.726 137.975 135.41Z" fill="#29AEFD"/>
<path fill-rule="evenodd" clip-rule="evenodd" d="M60.1274 128.887C59.8981 129.23 59.7637 129.651 59.7637 130.119V132.015C59.7637 133.357 60.8628 134.574 62.2228 134.699C73.4354 135.768 84.727 135.76 95.9396 134.699C97.2997 134.574 98.3988 133.357 98.3988 132.015V130.119C98.3988 129.651 98.2644 129.23 98.035 128.887C85.4071 129.214 72.7633 129.214 60.1353 128.887H60.1274Z" fill="#074785"/>
<path d="M40.6592 128.115C40.6592 128.115 40.9676 128.115 41.5448 128.1C42.122 128.1 42.9681 128.068 44.0514 128.068C45.1268 128.06 46.4394 128.037 47.9418 128.037C48.693 128.037 49.4916 128.029 50.3377 128.021C51.1759 128.021 52.0615 128.021 52.9867 128.021C53.9118 128.021 54.8686 128.021 55.8728 128.021C56.8692 128.021 57.8971 128.029 58.9567 128.037C61.0758 128.045 63.3057 128.053 65.6146 128.06C70.2246 128.1 75.1509 128.131 80.0692 128.17C82.5284 128.209 84.9875 128.201 87.4072 128.232C89.8268 128.248 92.2148 128.263 94.5159 128.279C96.8248 128.287 99.0467 128.295 101.166 128.302C102.225 128.318 103.246 128.287 104.242 128.287C105.238 128.287 106.195 128.287 107.12 128.287C107.579 128.287 108.037 128.287 108.472 128.287C108.915 128.287 109.342 128.271 109.761 128.263C110.599 128.263 111.398 128.248 112.149 128.24C112.9 128.24 113.604 128.224 114.253 128.217C114.901 128.201 115.494 128.185 116.04 128.178C117.115 128.146 117.969 128.146 118.546 128.131C119.123 128.131 119.432 128.131 119.432 128.131C119.432 128.131 119.131 128.17 118.554 128.256C117.985 128.334 117.139 128.451 116.071 128.591C115.533 128.661 114.94 128.731 114.3 128.817C113.652 128.895 112.948 128.95 112.204 129.028C110.71 129.161 109.018 129.348 107.168 129.465C105.317 129.582 103.317 129.738 101.198 129.824C99.0784 129.91 96.8485 130.027 94.5317 130.081C93.3772 130.105 92.199 130.128 91.0129 130.159C90.4199 130.167 89.8189 130.183 89.218 130.198C88.617 130.198 88.016 130.206 87.4072 130.214C84.9796 130.229 82.5126 130.237 80.0455 130.214C78.8119 130.198 77.5784 130.183 76.3528 130.175C75.1271 130.159 73.9015 130.12 72.6917 130.097C70.2641 130.05 67.8761 129.964 65.5672 129.871C63.2583 129.793 61.0284 129.66 58.9092 129.558C56.7901 129.457 54.7895 129.324 52.9471 129.2C51.1047 129.083 49.4126 128.95 47.9102 128.825C46.4078 128.708 45.1031 128.583 44.0356 128.49C42.9602 128.396 42.1141 128.295 41.5448 128.24C40.9676 128.178 40.6671 128.146 40.6671 128.146L40.6592 128.115Z" fill="#074785"/>
<path d="M40.0986 113.245L45.1276 114.267L40.0986 115.359L39.0706 120.797L38.1375 115.359L33.1006 114.267L38.1375 113.245L39.0706 107.822L40.0986 113.245Z" fill="#FFA4AC"/>
<path d="M115.976 110.396L124.247 112.081L115.976 113.883L114.284 122.832L112.742 113.883L104.439 112.081L112.742 110.396L114.284 101.471L115.976 110.396Z" fill="#02A971"/>
<path d="M55.0187 120.055L57.5332 120.562L55.0187 121.116L54.5047 123.831L54.0302 121.116L51.5078 120.562L54.0302 120.055L54.5047 117.34L55.0187 120.055Z" fill="#074785"/>
<path d="M103.918 99.2014L106.44 99.7163L103.918 100.262L103.412 102.985L102.937 100.262L100.415 99.7163L102.937 99.2014L103.412 96.4863L103.918 99.2014Z" fill="#074785"/>
<path d="M131.957 34.2428L138.813 35.6316L131.957 37.1217L130.558 44.5335L129.285 37.1217L122.413 35.6316L129.285 34.2428L130.558 26.8467L131.957 34.2428Z" fill="#02A971"/>
<path d="M9.54412 108.961L16.3918 110.357L9.54412 111.847L8.14453 119.259L6.87145 111.847L0 110.357L6.87145 108.961L8.14453 101.572L9.54412 108.961Z" fill="#02A971"/>
<circle cx="80.5" cy="93.5" r="15.5" fill="#32BA7C"/>
<mask id="mask0_74_23257" style="mask-type:alpha" maskUnits="userSpaceOnUse" x="65" y="78" width="31" height="31">
<circle cx="80.5" cy="93.5" r="15.5" fill="#32BA7C"/>
</mask>
<g mask="url(#mask0_74_23257)">
<path d="M88 110L78 96.5L86.5 89L101 97L98 102L88 110Z" fill="#0AA06E"/>
</g>
<path d="M78.5146 97.0861L74.3095 92.881C74.1386 92.71 74.1386 92.4329 74.3095 92.2619L76.0385 90.533C76.2802 90.2912 76.6722 90.2912 76.9139 90.533L78.5146 92.1337C78.7564 92.3754 79.1484 92.3754 79.3901 92.1337L84.0861 87.4377C84.3278 87.196 84.7198 87.196 84.9615 87.4377L86.5623 89.0385C86.804 89.2802 86.804 89.6722 86.5623 89.9139L79.3901 97.0861C79.1484 97.3278 78.7564 97.3278 78.5146 97.0861Z" fill="white"/>
</g>
<defs>
<clipPath id="clip0_74_23257">
<rect width="150" height="143" fill="white" transform="translate(0 0.5)"/>
</clipPath>
</defs>
</svg>
