<svg width="180" height="112" viewBox="0 0 180 112" fill="none" xmlns="http://www.w3.org/2000/svg">
<path opacity="0.8" d="M150.989 54.3574L157.522 55.7082L150.989 57.1362L149.651 64.2763L148.43 57.1362L141.877 55.7082L148.43 54.3574L149.651 47.2559L150.989 54.3574Z" fill="#D47C42"/>
<path opacity="0.8" d="M128.221 9.85064L137.249 11.7146L128.221 13.7011L126.367 23.5789L124.689 13.7011L115.635 11.7146L124.689 9.85064L126.367 0L128.221 9.85064Z" fill="#D47C42"/>
<path opacity="0.8" d="M32.1116 59.0856L38.6448 60.4365L32.1116 61.8645L30.7739 69.0046L29.5526 61.8645L23 60.4365L29.5526 59.0856L30.7739 51.9648L32.1116 59.0856Z" fill="#D47C42"/>
<circle cx="90.28" cy="71.28" r="40.28" fill="#32BA7C"/>
<mask id="mask0_85_14644" style="mask-type:alpha" maskUnits="userSpaceOnUse" x="50" y="31" width="81" height="81">
<circle cx="90.28" cy="71.28" r="40.28" fill="#32BA7C"/>
</mask>
<g mask="url(#mask0_85_14644)">
<path d="M109.77 114.159L83.7832 79.0763L105.872 59.5859L143.554 80.3756L135.757 93.3692L109.77 114.159Z" fill="#0AA06E"/>
</g>
<path d="M85.8207 81.2993L74.193 69.6716L73.8264 69.3049C73.5847 69.0632 73.5847 68.6712 73.8264 68.4295L79.3858 62.87C79.6276 62.6283 80.0196 62.6283 80.2613 62.87L85.8207 68.4295C86.0625 68.6712 86.4545 68.6712 86.6962 68.4295L100.299 54.8264C100.541 54.5847 100.933 54.5847 101.175 54.8264L106.734 60.3858C106.976 60.6276 106.976 61.0196 106.734 61.2613L86.6962 81.2993C86.4545 81.541 86.0625 81.541 85.8207 81.2993Z" fill="white"/>
</svg>
