<svg width="11" height="10" viewBox="0 0 11 10" fill="none" xmlns="http://www.w3.org/2000/svg">
<path d="M5.5 10C8.26142 10 10.5 7.76142 10.5 5C10.5 2.23858 8.26142 0 5.5 0C2.73858 0 0.5 2.23858 0.5 5C0.5 7.76142 2.73858 10 5.5 10ZM7.60356 4.10355L5.35357 6.35356C5.15831 6.54883 4.84173 6.54883 4.64646 6.35357L3.64645 5.35357C3.45119 5.1583 3.45118 4.84172 3.64644 4.64646C3.84171 4.45119 4.15829 4.45119 4.35355 4.64645L5.00001 5.29291L6.89644 3.39645C7.09171 3.20119 7.40829 3.20118 7.60355 3.39644C7.79881 3.59171 7.79882 3.90829 7.60356 4.10355Z" fill="#028D5E"/>
</svg>
