<svg width="12" height="12" viewBox="0 0 12 12" fill="none" xmlns="http://www.w3.org/2000/svg">
<path d="M6 12C5.17737 12 4.40105 11.8423 3.67105 11.5269C2.94105 11.2116 2.30442 10.7822 1.76116 10.2388C1.21779 9.69558 0.788421 9.05895 0.473053 8.32895C0.157684 7.59895 0 6.82263 0 6C0 5.17084 0.157684 4.39289 0.473053 3.66616C0.788421 2.93942 1.21779 2.30442 1.76116 1.76116C2.30442 1.21779 2.94105 0.788421 3.67105 0.473053C4.40105 0.157685 5.17737 0 6 0C6.82916 0 7.60711 0.157685 8.33384 0.473053C9.06058 0.788421 9.69558 1.21779 10.2388 1.76116C10.7822 2.30442 11.2116 2.93942 11.5269 3.66616C11.8423 4.39289 12 5.17084 12 6C12 6.82263 11.8423 7.59895 11.5269 8.32895C11.2116 9.05895 10.7822 9.69558 10.2388 10.2388C9.69558 10.7822 9.06058 11.2116 8.33384 11.5269C7.60711 11.8423 6.82916 12 6 12ZM6 11.0392C6.32232 10.6117 6.59358 10.1806 6.81379 9.74574C7.034 9.31089 7.21337 8.83558 7.35189 8.31979H4.64811C4.79474 8.85179 4.97616 9.33521 5.19237 9.77005C5.40847 10.2049 5.67768 10.6279 6 11.0392ZM4.77695 10.8655C4.53484 10.5182 4.31742 10.1233 4.12468 9.68084C3.93195 9.23832 3.78216 8.78463 3.67532 8.31979H1.53284C1.86642 8.97569 2.31379 9.52674 2.87495 9.97295C3.43611 10.4191 4.07011 10.7166 4.77695 10.8655ZM7.22305 10.8655C7.92989 10.7166 8.56389 10.4191 9.12505 9.97295C9.68621 9.52674 10.1336 8.97569 10.4672 8.31979H8.32468C8.19753 8.78863 8.03758 9.24432 7.84484 9.68684C7.65221 10.1294 7.44495 10.5223 7.22305 10.8655ZM1.13558 7.37242H3.48347C3.44379 7.13768 3.415 6.90753 3.39711 6.68195C3.37932 6.45647 3.37042 6.22916 3.37042 6C3.37042 5.77084 3.37932 5.54353 3.39711 5.31805C3.415 5.09247 3.44379 4.86232 3.48347 4.62758H1.13558C1.07484 4.84211 1.02832 5.06516 0.996 5.29674C0.963579 5.52832 0.947368 5.76274 0.947368 6C0.947368 6.23726 0.963579 6.47168 0.996 6.70326C1.02832 6.93484 1.07484 7.15789 1.13558 7.37242ZM4.43068 7.37242H7.56932C7.60889 7.13768 7.63763 6.90958 7.65553 6.68811C7.67332 6.46663 7.68221 6.23726 7.68221 6C7.68221 5.76274 7.67332 5.53337 7.65553 5.31189C7.63763 5.09042 7.60889 4.86232 7.56932 4.62758H4.43068C4.39111 4.86232 4.36237 5.09042 4.34447 5.31189C4.32668 5.53337 4.31779 5.76274 4.31779 6C4.31779 6.23726 4.32668 6.46663 4.34447 6.68811C4.36237 6.90958 4.39111 7.13768 4.43068 7.37242ZM8.51653 7.37242H10.8644C10.9252 7.15789 10.9717 6.93484 11.004 6.70326C11.0364 6.47168 11.0526 6.23726 11.0526 6C11.0526 5.76274 11.0364 5.52832 11.004 5.29674C10.9717 5.06516 10.9252 4.84211 10.8644 4.62758H8.51653C8.55621 4.86232 8.585 5.09247 8.60289 5.31805C8.62068 5.54353 8.62958 5.77084 8.62958 6C8.62958 6.22916 8.62068 6.45647 8.60289 6.68195C8.585 6.90753 8.55621 7.13768 8.51653 7.37242ZM8.32468 3.68021H10.4672C10.1296 3.01621 9.68526 2.46516 9.13421 2.02705C8.58316 1.58905 7.94611 1.28947 7.22305 1.12832C7.46516 1.4959 7.68053 1.89795 7.86916 2.33447C8.05789 2.77089 8.20974 3.21947 8.32468 3.68021ZM4.64811 3.68021H7.35189C7.20526 3.15221 7.02084 2.66574 6.79863 2.22079C6.57632 1.77584 6.31011 1.35584 6 0.960789C5.68989 1.35584 5.42368 1.77584 5.20137 2.22079C4.97916 2.66574 4.79474 3.15221 4.64811 3.68021ZM1.53284 3.68021H3.67532C3.79026 3.21947 3.94211 2.77089 4.13084 2.33447C4.31947 1.89795 4.53484 1.4959 4.77695 1.12832C4.04979 1.28947 3.41174 1.59011 2.86279 2.03021C2.31374 2.47021 1.87042 3.02021 1.53284 3.68021Z" fill="#666666"/>
</svg>
