<svg width="17" height="16" viewBox="0 0 17 16" fill="none" xmlns="http://www.w3.org/2000/svg">
<rect x="0.523438" y="0.5" width="15" height="15" rx="7.5" fill="#2AABEE"/>
<rect x="0.523438" y="0.5" width="15" height="15" rx="7.5" stroke="white"/>
<path d="M3.27683 7.49963C5.60933 6.48363 7.16433 5.81376 7.94183 5.49013C10.1643 4.56601 10.6256 4.40551 10.9268 4.40007C10.9931 4.39901 11.1406 4.41538 11.2368 4.4932C11.3168 4.55882 11.3393 4.64757 11.3506 4.70988C11.3606 4.77213 11.3743 4.91401 11.3631 5.02476C11.2431 6.28976 10.7218 9.35951 10.4568 10.7764C10.3456 11.3759 10.1243 11.5769 9.91058 11.5965C9.44558 11.6393 9.09308 11.2895 8.64308 10.9946C7.93933 10.533 7.54183 10.2458 6.85808 9.79538C6.06808 9.27488 6.58058 8.98876 7.03058 8.52126C7.14808 8.39888 9.19558 6.53701 9.23433 6.36813C9.23933 6.34701 9.24433 6.26826 9.19683 6.22676C9.15058 6.18513 9.08183 6.19938 9.03183 6.21063C8.96058 6.22663 7.83683 6.97013 5.65683 8.44101C5.33808 8.66026 5.04933 8.76713 4.78933 8.76151C4.50433 8.75538 3.95433 8.60001 3.54558 8.46726C3.04558 8.30438 2.64683 8.21826 2.68183 7.94163C2.69933 7.79763 2.89808 7.65026 3.27683 7.49963Z" fill="white"/>
</svg>
