<svg width="14" height="14" viewBox="0 0 14 14" fill="none" xmlns="http://www.w3.org/2000/svg">
<path d="M3.65706 2.27734H9.79329V9.2772L5.92302 13.125L5.42952 12.6314C5.36895 12.5708 5.31864 12.4906 5.27858 12.3907C5.23862 12.2909 5.21865 12.1969 5.21865 12.1087V11.9605L5.83785 9.2772H1.92952C1.65205 9.2772 1.40695 9.17084 1.19423 8.95811C0.98141 8.7453 0.875 8.5002 0.875 8.22282V7.28045C0.875 7.21988 0.882875 7.15445 0.898625 7.08416C0.914278 7.01386 0.931826 6.94843 0.951271 6.88786L2.62281 2.94366C2.70652 2.7567 2.84672 2.59891 3.0434 2.47028C3.24008 2.34166 3.44463 2.27734 3.65706 2.27734ZM8.91829 3.15234H3.65706C3.61594 3.15234 3.57389 3.16352 3.53092 3.18589C3.48785 3.20834 3.45508 3.24577 3.43262 3.29818L1.75 7.23568V8.22282C1.75 8.27513 1.76682 8.3181 1.80046 8.35174C1.8341 8.38548 1.87712 8.40234 1.92952 8.40234H6.94385L6.2125 11.5994L8.91829 8.90489V3.15234ZM9.79329 9.2772V8.40234H11.6667V3.15234H9.79329V2.27734H12.5417V9.2772H9.79329Z" fill="black"/>
</svg>
