<svg width="40" height="40" viewBox="0 0 40 40" fill="none" xmlns="http://www.w3.org/2000/svg">
<rect width="40" height="40" rx="20" fill="#028D5E"/>
<path d="M15 30V19M10 21V28C10 29.1046 10.8954 30 12 30H25.4262C26.907 30 28.1662 28.9197 28.3914 27.4562L29.4683 20.4562C29.7479 18.6389 28.3418 17 26.5032 17H23C22.4477 17 22 16.5523 22 16V12.4658C22 11.104 20.896 10 19.5342 10C19.2093 10 18.915 10.1913 18.7831 10.4881L15.2639 18.4061C15.1034 18.7673 14.7453 19 14.3501 19H12C10.8954 19 10 19.8954 10 21Z" stroke="white" stroke-width="1.4" stroke-linecap="round" stroke-linejoin="round"/>
</svg>
