<svg width="13" height="12" viewBox="0 0 13 12" fill="none" xmlns="http://www.w3.org/2000/svg">
<path d="M3.50016 0.75H9.3335V8.33333L5.25016 12.4167L4.521 11.6875C4.45294 11.6194 4.39704 11.5271 4.35329 11.4104C4.30954 11.2937 4.28766 11.1819 4.28766 11.075V10.8708L4.92933 8.33333H1.75016C1.43905 8.33333 1.16683 8.21667 0.933496 7.98333C0.700163 7.75 0.583496 7.47778 0.583496 7.16667V6C0.583496 5.93194 0.590788 5.85903 0.605371 5.78125C0.619954 5.70347 0.641829 5.63056 0.670996 5.5625L2.421 1.45C2.5085 1.25556 2.65433 1.09028 2.8585 0.954167C3.06266 0.818056 3.27655 0.75 3.50016 0.75ZM10.5002 8.33333V0.75H12.8335V8.33333H10.5002Z" fill="#EA0C0C"/>
</svg>
