<svg width="14" height="14" viewBox="0 0 14 14" fill="none" xmlns="http://www.w3.org/2000/svg">
<path d="M9.8846 10.8477H3.74837V3.84767L7.61865 0L8.11215 0.4935C8.17271 0.55407 8.22303 0.634278 8.26308 0.734125C8.30304 0.833973 8.32302 0.928035 8.32302 1.01631V1.16433L7.70381 3.84767H11.6121C11.8896 3.84767 12.1347 3.95408 12.3474 4.1669C12.5603 4.37962 12.6667 4.62472 12.6667 4.90219V5.84442C12.6667 5.90499 12.6588 5.97042 12.643 6.04071C12.6274 6.111 12.6098 6.17648 12.5904 6.23715L10.9189 10.1814C10.8351 10.3683 10.695 10.5261 10.4983 10.6547C10.3016 10.7834 10.097 10.8477 9.8846 10.8477ZM4.62337 9.97267H9.8846C9.92573 9.97267 9.96778 9.96144 10.0107 9.93898C10.0538 9.91652 10.0866 9.87914 10.109 9.82683L11.7917 5.88933V4.90219C11.7917 4.84978 11.7748 4.80676 11.7412 4.77313C11.7076 4.73949 11.6645 4.72267 11.6121 4.72267H6.59781L7.32917 1.52556L4.62337 4.22012V9.97267ZM3.74837 3.84767V4.72267H1.875V9.97267H3.74837V10.8477H1V3.84767H3.74837Z" fill="black"/>
</svg>
