<svg width="13" height="11" viewBox="0 0 13 11" fill="none" xmlns="http://www.w3.org/2000/svg">
<path d="M9.3431 10.9585H3.56591V3.95851L7.43604 0.11084L7.92954 0.60434C7.9902 0.66491 8.04052 0.745118 8.08048 0.844965C8.12053 0.944812 8.14056 1.03887 8.14056 1.12715V1.27517L7.5212 3.95851H11.0706C11.3481 3.95851 11.5932 4.06492 11.8059 4.27774C12.0188 4.49046 12.1252 4.73556 12.1252 5.01303V5.95526C12.1252 6.01583 12.1188 6.08126 12.1061 6.15155C12.0933 6.22184 12.0743 6.28732 12.0489 6.34799L10.3774 10.2922C10.2936 10.4792 10.1534 10.6369 9.95677 10.7656C9.76009 10.8942 9.55553 10.9585 9.3431 10.9585ZM2.69091 3.95851V10.9585H0.458496V3.95851H2.69091Z" fill="#0A9044"/>
</svg>
