<svg width="16" height="16" viewBox="0 0 16 16" fill="none" xmlns="http://www.w3.org/2000/svg">
<g clip-path="url(#clip0_4825_932)">
<path d="M10.4829 -0.296141C9.68406 -1.13327 8.39129 -0.682995 8.05198 0.294299C7.77205 1.10056 7.4084 2.06607 7.05406 2.77696C5.99442 4.90288 5.37583 6.11247 3.66974 7.62598C3.44337 7.8268 3.15163 7.98862 2.82905 8.11613C1.69991 8.56245 0.638089 9.73222 0.915812 11.1208L1.26885 12.886C1.45455 13.8145 2.14894 14.5585 3.06251 14.8076L8.66224 16.3348C11.2078 17.0291 13.8017 15.3943 14.2737 12.7984L14.9576 9.03667C15.2924 7.19515 13.8777 5.50001 12.006 5.50001H11.1225L11.1328 5.44778C11.2129 5.0396 11.3093 4.47747 11.3738 3.86485C11.438 3.25459 11.4721 2.58046 11.4218 1.95233C11.3725 1.33596 11.2379 0.703174 10.9176 0.222663C10.8081 0.0584377 10.6455 -0.125717 10.4829 -0.296141Z" fill="#028D5E"/>
</g>
<defs>
<clipPath id="clip0_4825_932">
<rect width="16" height="16" fill="white"/>
</clipPath>
</defs>
</svg>
