<svg width="40" height="40" viewBox="0 0 40 40" fill="none" xmlns="http://www.w3.org/2000/svg">
<rect width="40" height="40" rx="20" fill="#E95454"/>
<path d="M25 10V21M30 17.8V13.2C30 12.0799 30 11.5198 29.782 11.092C29.5903 10.7157 29.2843 10.4097 28.908 10.218C28.4802 10 27.9201 10 26.8 10H16.118C14.6565 10 13.9258 10 13.3356 10.2674C12.8154 10.5031 12.3733 10.8824 12.0612 11.3607C11.7072 11.9034 11.5961 12.6256 11.3738 14.0701L10.8507 17.4701C10.5576 19.3753 10.4111 20.3279 10.6938 21.0691C10.9419 21.7197 11.4086 22.2637 12.0139 22.6079C12.7035 23 13.6673 23 15.5949 23H16.4C16.9601 23 17.2401 23 17.454 23.109C17.6422 23.2049 17.7951 23.3578 17.891 23.546C18 23.7599 18 24.0399 18 24.6V27.5342C18 28.896 19.104 30 20.4658 30C20.7907 30 21.085 29.8087 21.2169 29.5119L24.5777 21.9502C24.7306 21.6062 24.807 21.4343 24.9278 21.3082C25.0346 21.1967 25.1657 21.1115 25.3109 21.0592C25.4752 21 25.6634 21 26.0398 21H26.8C27.9201 21 28.4802 21 28.908 20.782C29.2843 20.5903 29.5903 20.2843 29.782 19.908C30 19.4802 30 18.9201 30 17.8Z" stroke="white" stroke-width="1.4" stroke-linecap="round" stroke-linejoin="round"/>
</svg>
