<svg width="14" height="15" viewBox="0 0 14 15" fill="none" xmlns="http://www.w3.org/2000/svg">
<path d="M3 0.5C1.34315 0.5 0 1.84315 0 3.5V11.5C0 13.1569 1.34315 14.5 3 14.5H11C12.6569 14.5 14 13.1569 14 11.5V3.5C14 1.84315 12.6569 0.5 11 0.5H3ZM10.8536 5.35355L5.85355 10.3536C5.65829 10.5488 5.34171 10.5488 5.14645 10.3536L3.14645 8.35355C2.95118 8.15829 2.95118 7.84171 3.14645 7.64645C3.34171 7.45118 3.65829 7.45118 3.85355 7.64645L5.5 9.29289L10.1464 4.64645C10.3417 4.45118 10.6583 4.45118 10.8536 4.64645C11.0488 4.84171 11.0488 5.15829 10.8536 5.35355Z" fill="#333333"/>
</svg>
