<svg width="10" height="12" viewBox="0 0 10 12" fill="none" xmlns="http://www.w3.org/2000/svg">
<path d="M2 1C2 0.723858 2.22386 0.5 2.5 0.5H6.5C6.77614 0.5 7 0.723858 7 1C7 1.27614 6.77614 1.5 6.5 1.5H2.5C2.22386 1.5 2 1.27614 2 1ZM4 8C4 8.27614 4.22386 8.5 4.5 8.5C4.77614 8.5 5 8.27614 5 8V5C5 4.72386 4.77614 4.5 4.5 4.5C4.22386 4.5 4 4.72386 4 5V8ZM4.5 2.5C2.01472 2.5 0 4.51472 0 7C0 9.48528 2.01472 11.5 4.5 11.5C6.98528 11.5 9 9.48528 9 7C9 4.51472 6.98528 2.5 4.5 2.5ZM1 7C1 5.067 2.567 3.5 4.5 3.5C6.433 3.5 8 5.067 8 7C8 8.933 6.433 10.5 4.5 10.5C2.567 10.5 1 8.933 1 7ZM9.14801 4.35322C9.34359 4.54816 9.66017 4.54764 9.85511 4.35205C10.0501 4.15647 10.0495 3.83989 9.85395 3.64495L8.85229 2.6466C8.65671 2.45166 8.34013 2.45218 8.14519 2.64777C7.95025 2.84335 7.95077 3.15993 8.14636 3.35487L9.14801 4.35322Z" fill="currentColor"/>
</svg>
