<svg width="30" height="30" viewBox="0 0 30 30" fill="none" xmlns="http://www.w3.org/2000/svg">
<rect width="30" height="30" rx="15" fill="#FEF8EB"/>
<path d="M6.5 15C6.5 10.3056 10.3056 6.5 15 6.5C19.6944 6.5 23.5 10.3056 23.5 15C23.5 19.6944 19.6944 23.5 15 23.5C10.3056 23.5 6.5 19.6944 6.5 15ZM15 5C9.47715 5 5 9.47715 5 15C5 20.5228 9.47715 25 15 25C20.5228 25 25 20.5228 25 15C25 9.47715 20.5228 5 15 5ZM14.9931 9.64827C14.9435 9.28233 14.6295 9 14.25 9C13.836 9 13.5 9.336 13.5 9.75V15.75L13.5069 15.8517C13.5565 16.2177 13.8705 16.5 14.25 16.5H18.25L18.3517 16.4931C18.7177 16.4435 19 16.1295 19 15.75C19 15.336 18.664 15 18.25 15H15V9.75L14.9931 9.64827Z" fill="#F3B119"/>
</svg>
