<svg width="150" height="149" viewBox="0 0 150 149" fill="none" xmlns="http://www.w3.org/2000/svg">
<path d="M47.2687 118.665L44.5824 130.656L49.5507 129.984L57.9027 122.469L47.2687 118.665Z" fill="#FFC727"/>
<path d="M47.2687 118.665L44.5824 130.656L49.5507 129.984L57.9027 122.469L47.2687 118.665Z" fill="#F15663"/>
<path d="M113.879 108.481L119.654 119.326L114.686 119.999L104.636 114.976L113.879 108.481Z" fill="#F15663"/>
<path d="M114.69 107.035C131.831 84.5251 127.479 52.3811 104.969 35.2398C82.4584 18.0985 50.3145 22.4508 33.1732 44.961C16.0318 67.4712 20.3842 99.6151 42.8943 116.756C65.4045 133.898 97.5485 129.545 114.69 107.035Z" fill="#F15663"/>
<path d="M79.7635 123.693C106.518 120.07 125.27 95.445 121.647 68.6906C118.025 41.9362 93.3994 23.1841 66.645 26.8067C39.8906 30.4293 21.1386 55.0547 24.7612 81.8091C28.3837 108.564 53.0091 127.316 79.7635 123.693Z" fill="#F15663"/>
<path d="M110.336 103.528C125.66 83.4048 121.769 54.6698 101.646 39.3463C81.5229 24.0228 52.7879 27.9136 37.4644 48.0366C22.1409 68.1595 26.0316 96.8946 46.1546 112.218C66.2776 127.542 95.0126 123.651 110.336 103.528Z" fill="white"/>
<path d="M116.947 60.136C97.9762 75.456 66.7921 100.596 49.3307 114.427C43.3973 110.652 38.3523 105.535 34.6728 99.4324L89.5808 32.738C102.105 37.3106 112.282 47.2514 116.947 60.136Z" fill="#EBEBEB"/>
<path d="M119.459 71.2184C119.989 76.4267 119.61 81.5314 118.456 86.3725L65.4783 120.808C62.8828 120.322 60.3545 119.618 57.9155 118.703C73.6761 106.508 102.486 84.3005 119.46 71.2214L119.459 71.2184Z" fill="#EBEBEB"/>
<path d="M68.6392 33.6336L67.7637 33.7522L68.6952 40.6319L69.5707 40.5134L68.6392 33.6336Z" fill="#C7C7C7"/>
<path d="M48.2729 41.9101L47.5715 42.4524L51.8181 47.9447L52.5195 47.4024L48.2729 41.9101Z" fill="#C7C7C7"/>
<path d="M34.7687 59.2623L34.4336 60.0798L40.8574 62.713L41.1925 61.8955L34.7687 59.2623Z" fill="#C7C7C7"/>
<path d="M38.6334 80.1117L31.7537 81.0432L31.8722 81.9188L38.752 80.9872L38.6334 80.1117Z" fill="#C7C7C7"/>
<path d="M45.5216 97.1697L40.0293 101.416L40.5697 102.115L46.062 97.8686L45.5216 97.1697Z" fill="#C7C7C7"/>
<path d="M60.0141 108.495L57.3843 114.92L58.2047 115.256L60.8345 108.831L60.0141 108.495Z" fill="#C7C7C7"/>
<path d="M79.106 110.934L78.2305 111.053L79.162 117.933L80.0375 117.814L79.106 110.934Z" fill="#C7C7C7"/>
<path d="M95.9855 103.618L95.2842 104.161L99.5308 109.653L100.232 109.111L95.9855 103.618Z" fill="#C7C7C7"/>
<path d="M106.946 88.8461L106.611 89.6636L113.035 92.2967L113.37 91.4792L106.946 88.8461Z" fill="#C7C7C7"/>
<path d="M115.934 69.6464L109.054 70.5779L109.173 71.4534L116.052 70.5219L115.934 69.6464Z" fill="#C7C7C7"/>
<path d="M107.233 49.4568L101.741 53.7034L102.281 54.4023L107.773 50.1557L107.233 49.4568Z" fill="#C7C7C7"/>
<path d="M89.6044 36.3187L86.9746 42.7439L87.7951 43.0797L90.4249 36.6545L89.6044 36.3187Z" fill="#C7C7C7"/>
<path d="M115.728 70.7151L71.8768 77.9069L71.3471 73.5931L115.584 69.5437L115.728 70.7151Z" fill="#FFC727"/>
<path d="M70.0159 44.788L76.4542 78.0298L72.1397 78.5535L68.8445 44.9315L70.0159 44.788Z" fill="#263238"/>
<path d="M74.1001 77.2518C74.9115 77.142 75.4802 76.3951 75.3704 75.5838C75.2605 74.7724 74.5137 74.2037 73.7023 74.3135C72.8909 74.4234 72.3222 75.1702 72.4321 75.9816C72.5419 76.793 73.2888 77.3617 74.1001 77.2518Z" fill="#FFC727"/>
<path d="M49.4874 115.754L46.8011 127.745L51.7695 127.072L60.1214 119.558L49.4874 115.754Z" fill="#F15663"/>
<path opacity="0.1" d="M49.4874 115.754L46.8011 127.745L51.7695 127.072L60.1214 119.558L49.4874 115.754Z" fill="black"/>
<path d="M113.201 107.128L118.976 117.973L114.008 118.646L103.958 113.623L113.201 107.128Z" fill="#F15663"/>
<path opacity="0.1" d="M113.201 107.128L118.976 117.973L114.008 118.646L103.958 113.623L113.201 107.128Z" fill="black"/>
<path d="M116.908 104.123C134.05 81.613 129.697 49.469 107.187 32.3277C84.6769 15.1864 52.533 19.5387 35.3917 42.0489C18.2503 64.5591 22.6027 96.703 45.1129 113.844C67.623 130.986 99.767 126.633 116.908 104.123Z" fill="#F15663"/>
<path opacity="0.1" d="M81.982 120.781C108.736 117.158 127.489 92.5329 123.866 65.7785C120.243 39.0241 95.618 20.272 68.8635 23.8946C42.1091 27.5172 23.3571 52.1426 26.9797 78.897C30.6022 105.651 55.2276 124.403 81.982 120.781Z" fill="black"/>
<path d="M112.555 100.616C127.878 80.493 123.987 51.7579 103.864 36.4344C83.7414 21.111 55.0064 25.0017 39.6829 45.1247C24.3594 65.2477 28.2501 93.9827 48.3731 109.306C68.4961 124.63 97.2311 120.739 112.555 100.616Z" fill="white"/>
<path opacity="0.8" d="M119.165 57.2239C100.195 72.5439 69.0106 97.6841 51.5492 111.515C45.6158 107.74 40.5708 102.623 36.8913 96.5203L91.7993 29.8259C104.324 34.3985 114.501 44.3393 119.165 57.2239Z" fill="#EBEBEB"/>
<path opacity="0.8" d="M121.678 68.3063C122.208 73.5146 121.829 78.6193 120.674 83.4604L67.6968 117.895C65.1013 117.41 62.573 116.706 60.134 115.791C75.8946 103.596 104.704 81.3884 121.678 68.3092L121.678 68.3063Z" fill="#EBEBEB"/>
<path d="M70.8582 30.722L69.9827 30.8406L70.9142 37.7203L71.7897 37.6018L70.8582 30.722Z" fill="#C7C7C7"/>
<path d="M50.4919 38.9985L49.7905 39.5408L54.0371 45.033L54.7385 44.4908L50.4919 38.9985Z" fill="#C7C7C7"/>
<path d="M36.9877 56.3517L36.6526 57.1692L43.0764 59.8023L43.4115 58.9848L36.9877 56.3517Z" fill="#C7C7C7"/>
<path d="M40.8524 77.2003L33.9727 78.1318L34.0912 79.0074L40.971 78.0759L40.8524 77.2003Z" fill="#C7C7C7"/>
<path d="M47.7406 94.258L42.2483 98.5046L42.7887 99.2036L48.281 94.957L47.7406 94.258Z" fill="#C7C7C7"/>
<path d="M62.2335 105.584L59.6038 112.009L60.4242 112.345L63.054 105.919L62.2335 105.584Z" fill="#C7C7C7"/>
<path d="M81.3245 108.023L80.449 108.141L81.3805 115.021L82.256 114.903L81.3245 108.023Z" fill="#C7C7C7"/>
<path d="M98.2048 100.707L97.5034 101.249L101.75 106.741L102.451 106.199L98.2048 100.707Z" fill="#C7C7C7"/>
<path d="M109.165 85.9344L108.83 86.752L115.254 89.3851L115.589 88.5676L109.165 85.9344Z" fill="#C7C7C7"/>
<path d="M118.153 66.734L111.273 67.6655L111.392 68.5411L118.271 67.6096L118.153 66.734Z" fill="#C7C7C7"/>
<path d="M109.452 46.5454L103.96 50.792L104.501 51.491L109.993 47.2444L109.452 46.5454Z" fill="#C7C7C7"/>
<path d="M91.8234 33.4073L89.1936 39.8325L90.0141 40.1683L92.6439 33.7432L91.8234 33.4073Z" fill="#C7C7C7"/>
<path d="M126.01 33.8645C126.315 43.796 118.5 52.1011 108.568 52.4053C104.554 52.5239 100.808 51.3237 97.7411 49.1817L88.996 51.6994L92.4128 43.3817C90.9696 40.8952 90.1188 38.0208 90.0272 34.963C89.723 25.0315 97.538 16.7264 107.47 16.4222C117.401 16.118 125.706 23.933 126.01 33.8645Z" fill="#FD6085"/>
<path d="M126.011 33.8672C126.078 37.1775 125.322 40.5259 123.637 43.392C123.261 44.1317 122.733 44.782 122.27 45.4748C121.724 46.0983 121.229 46.7663 120.6 47.3203C119.434 48.5041 118.073 49.4871 116.622 50.2991C115.183 51.146 113.584 51.6776 111.977 52.093C111.156 52.2482 110.346 52.4385 109.509 52.4786C108.678 52.569 107.839 52.5947 107.006 52.5537C103.659 52.406 100.365 51.2985 97.5944 49.3948L97.8118 49.4314L89.0816 52.0057L88.4476 52.1941L88.7017 51.5808L92.095 43.2516L92.1143 43.5568C89.2668 38.7618 88.9276 32.6306 91.063 27.5127C92.123 24.9511 93.7738 22.6392 95.841 20.8059C97.9073 18.9654 100.419 17.6508 103.067 16.9185C105.724 16.1923 108.535 16.0609 111.235 16.5746C113.929 17.0965 116.493 18.2295 118.685 19.8598C123.127 23.0686 125.867 28.4204 126.018 33.8662L126.011 33.8672ZM126.011 33.8672C125.823 28.419 123.052 23.1081 118.609 19.9506C116.401 18.3664 113.845 17.291 111.181 16.8238C108.511 16.3719 105.75 16.5479 103.17 17.3002C100.591 18.0597 98.1692 19.3842 96.1955 21.2049C94.229 23.0246 92.665 25.2734 91.6446 27.749C90.6016 30.2204 90.2593 32.9413 90.4 35.6041C90.592 38.2673 91.3862 40.8856 92.7043 43.2058L92.7904 43.3553L92.7236 43.5109L89.276 51.8181L88.8961 51.3933L97.6563 48.9322L97.7767 48.9012L97.8737 48.9687C100.534 50.8653 103.73 52.0081 107.01 52.2087C107.83 52.2588 108.65 52.2505 109.468 52.1763C110.293 52.1526 111.098 51.9849 111.907 51.8461C113.496 51.4623 115.093 50.9677 116.528 50.1505C117.977 49.3755 119.35 48.4203 120.518 47.2509C121.14 46.705 121.636 46.0443 122.189 45.4198C122.654 44.7414 123.183 44.0983 123.559 43.3585C125.255 40.513 126.04 37.1679 125.996 33.8619L126.011 33.8672Z" fill="#29AEFD"/>
<path d="M116.239 26.0526C114.862 30.0874 96.7211 48.1683 100.166 41.8964C103.611 35.6244 115.549 23.8092 116.239 26.0526Z" fill="white"/>
<path d="M99.7319 26.0526C101.109 30.0874 119.25 48.1683 115.805 41.8964C112.36 35.6244 100.421 23.8092 99.7319 26.0526Z" fill="white"/>
<path fill-rule="evenodd" clip-rule="evenodd" d="M80.6974 70.578C80.4569 69.723 80.2359 68.9735 80.0364 68.1927C78.5325 62.5151 77.6325 56.8591 76.1129 51.1709C75.7931 49.9626 75.3787 48.7586 74.9692 47.581C74.6711 46.7097 73.6591 44.6369 72.4206 45.6779C71.7029 46.2921 71.7485 47.5663 71.7315 48.4293C71.6628 52.6866 72.9833 56.7887 73.6044 60.9421C74.3801 66.0759 75.5326 71.329 76.2927 76.4521C76.3074 76.5312 76.3172 76.5839 76.3319 76.663C76.4494 77.2957 76.7461 77.4985 77.3734 77.3519C78.4591 77.1042 79.5449 76.8566 80.6307 76.609C83.9144 75.8612 87.1932 75.087 90.4769 74.3392C91.51 74.1016 91.813 73.4571 91.3588 72.4791C90.9299 71.5645 90.5059 70.6762 90.0771 69.7616C89.7302 68.9951 89.1564 68.695 88.3554 68.8611C85.9731 69.3964 83.586 69.9053 81.2037 70.4406C81.0613 70.4814 80.9188 70.5222 80.713 70.5886L80.6974 70.578Z" fill="#F15663"/>
<path fill-rule="evenodd" clip-rule="evenodd" d="M81.9126 70.7555C82.7965 70.6691 83.5751 70.6028 84.3751 70.5051C90.2112 69.8447 95.8079 68.6293 101.66 67.9795C102.902 67.8386 104.174 67.7875 105.42 67.7415C106.34 67.7028 108.639 67.893 108.119 69.425C107.807 70.3168 106.603 70.737 105.805 71.0662C101.863 72.6763 97.5618 72.9355 93.4665 73.8651C88.4014 75.0066 83.0884 75.8404 78.039 76.9926C77.96 77.0076 77.9073 77.0176 77.8283 77.0327C77.1961 77.153 76.8994 76.9502 76.8083 76.3125C76.6447 75.2109 76.4811 74.1093 76.3175 73.0077C75.8218 69.6767 75.3525 66.3406 74.8568 63.0095C74.703 61.9606 75.1935 61.4442 76.2697 61.5123C77.2776 61.5798 78.2592 61.6522 79.2671 61.7197C80.1072 61.7645 80.5953 62.1902 80.7314 62.9967C81.0977 65.4108 81.4904 67.8198 81.8567 70.2339C81.8705 70.3814 81.8842 70.5289 81.897 70.7448L81.9126 70.7555Z" fill="#F15663"/>
<path d="M79.922 70.6394L77.7088 55.7065L77.5781 54.7415L91.7593 52.8213L93.8485 69.0918L90.1745 69.6166L79.922 70.6394Z" fill="#EBEBEB"/>
</svg>
