<svg width="10" height="14" viewBox="0 0 10 14" fill="none" xmlns="http://www.w3.org/2000/svg">
<path d="M1.68106 0C0.801023 0 -0.0212178 0.681042 0.00280303 1.64534C0.0281336 2.66221 0.242653 3.43602 0.569183 4.05158C0.894915 4.66563 1.3168 5.09278 1.70977 5.43238C1.84559 5.54975 1.98524 5.66259 2.11243 5.76537C2.16389 5.80695 2.21332 5.84689 2.25962 5.88482C2.42823 6.0229 2.56674 6.14304 2.67986 6.26382C2.89221 6.49057 2.9999 6.7013 2.99995 7.00008C2.99999 7.29887 2.89242 7.50954 2.68028 7.73618C2.56726 7.85693 2.42883 7.97704 2.26029 8.11508C2.21385 8.15312 2.16426 8.1932 2.11261 8.23493C1.98563 8.33754 1.8461 8.4503 1.71056 8.5674C1.31761 8.90688 0.895612 9.33386 0.569456 9.94763C0.242496 10.5629 0.0272245 11.3364 0.000803238 12.353C-0.0242777 13.318 0.798397 14 1.67902 14H8.31763C9.19829 14 10.0209 13.318 9.99592 12.3531C9.96962 11.3366 9.75467 10.5631 9.42811 9.94784C9.10234 9.33408 8.68079 8.90708 8.28822 8.56756C8.15276 8.45041 8.01346 8.33773 7.88658 8.2351C7.83505 8.19341 7.78537 8.15323 7.73903 8.11524C7.57066 7.97719 7.43237 7.85709 7.31946 7.73635C7.10753 7.50972 6.99995 7.29897 6.99995 7C6.99994 6.70124 7.1076 6.49055 7.31992 6.26381C7.43303 6.14303 7.57154 6.02289 7.74015 5.88481C7.78646 5.84689 7.8359 5.80694 7.88736 5.76535C8.01455 5.66258 8.15421 5.54973 8.29002 5.43237C8.68301 5.09278 9.10493 4.66562 9.43067 4.05156C9.75722 3.43599 9.97173 2.66216 9.99702 1.64526C10.021 0.680995 9.19878 0 8.31877 0H1.68106ZM1.00249 1.62043C0.994528 1.3007 1.27668 1 1.68106 1H8.31877C8.72314 1 9.00529 1.30069 8.99733 1.6204C8.97535 2.50427 8.79157 3.12241 8.54727 3.58294C8.30217 4.04498 7.98068 4.37805 7.63619 4.67574C7.51339 4.78185 7.3949 4.87758 7.2732 4.97589C7.21853 5.02006 7.16321 5.06475 7.10656 5.11114C6.93169 5.25435 6.75051 5.40889 6.59001 5.58028C6.25513 5.93788 5.99994 6.38151 5.99995 7C5.99995 7.61818 6.25459 8.06172 6.58908 8.41938C6.74937 8.59079 6.93033 8.74533 7.10501 8.88855C7.16175 8.93507 7.21715 8.97987 7.2719 9.02415C7.39325 9.12229 7.51156 9.21798 7.63407 9.32393C7.97825 9.62159 8.29959 9.95464 8.54482 10.4167C8.78925 10.8772 8.97339 11.4953 8.99626 12.3789C9.00453 12.6989 8.72231 13 8.31763 13H1.67902C1.27432 13 0.992152 12.6989 1.00047 12.379C1.02343 11.4954 1.2078 10.8774 1.45252 10.4169C1.69804 9.95486 2.01975 9.62179 2.36432 9.3241C2.48693 9.21817 2.6052 9.12262 2.72664 9.0245C2.78153 8.98016 2.83706 8.93529 2.89394 8.8887C3.06879 8.74549 3.24992 8.59095 3.41035 8.41955C3.74512 8.0619 4.00004 7.61828 3.99995 6.99992C3.99985 6.38146 3.74464 5.93786 3.40976 5.58027C3.24927 5.40889 3.06809 5.25436 2.89322 5.11115C2.8366 5.06478 2.78129 5.0201 2.72664 4.97594C2.60493 4.87762 2.48643 4.78188 2.36362 4.67575C2.01915 4.37807 1.69768 4.045 1.45259 3.58296C1.20829 3.12243 1.02451 2.5043 1.00249 1.62043ZM3.0178 10.0808C3.05026 10.0528 3.08172 10.0261 3.11288 10H6.8853C6.91622 10.0259 6.94745 10.0524 6.97966 10.0803C7.27543 10.3361 7.49656 10.5752 7.66125 10.8855C7.79213 11.1321 7.91717 11.4806 7.97087 12H2.0254C2.07921 11.481 2.20434 11.1326 2.33531 10.8861C2.5002 10.5759 2.72161 10.3367 3.0178 10.0808Z" fill="currentColor"/>
</svg>
