<svg width="20" height="21" viewBox="0 0 20 21" fill="none" xmlns="http://www.w3.org/2000/svg">
<path d="M9.99984 18.8334C8.84706 18.8334 7.76373 18.6147 6.74984 18.1772C5.73595 17.7397 4.854 17.1459 4.104 16.3959C3.354 15.6459 2.76025 14.764 2.32275 13.7501C1.88525 12.7362 1.6665 11.6529 1.6665 10.5001C1.6665 9.3473 1.88525 8.26397 2.32275 7.25008C2.76025 6.23619 3.354 5.35425 4.104 4.60425C4.854 3.85425 5.73595 3.2605 6.74984 2.823C7.76373 2.3855 8.84706 2.16675 9.99984 2.16675C11.1526 2.16675 12.2359 2.3855 13.2498 2.823C14.2637 3.2605 15.1457 3.85425 15.8957 4.60425C16.6457 5.35425 17.2394 6.23619 17.6769 7.25008C18.1144 8.26397 18.3332 9.3473 18.3332 10.5001C18.3332 11.6529 18.1144 12.7362 17.6769 13.7501C17.2394 14.764 16.6457 15.6459 15.8957 16.3959C15.1457 17.1459 14.2637 17.7397 13.2498 18.1772C12.2359 18.6147 11.1526 18.8334 9.99984 18.8334ZM9.99984 17.1667C11.8609 17.1667 13.4373 16.5209 14.729 15.2292C16.0207 13.9376 16.6665 12.3612 16.6665 10.5001C16.6665 8.63897 16.0207 7.06258 14.729 5.77091C13.4373 4.47925 11.8609 3.83341 9.99984 3.83341C8.13873 3.83341 6.56234 4.47925 5.27067 5.77091C3.979 7.06258 3.33317 8.63897 3.33317 10.5001C3.33317 12.3612 3.979 13.9376 5.27067 15.2292C6.56234 16.5209 8.13873 17.1667 9.99984 17.1667Z" fill="#666666"/>
</svg>
