<svg width="13" height="10" viewBox="0 0 13 10" fill="none" xmlns="http://www.w3.org/2000/svg">
<path d="M12 3.33374C12 3.88191 12 4.4379 12 5.00039C12 5.56288 12 6.11886 12 6.66704" stroke="white" stroke-width="1.5" stroke-linecap="round"/>
<path d="M10.0002 3.33374C10.0002 3.88329 10.0002 4.43914 10.0002 5.00039C10.0002 5.56164 10.0002 6.11749 10.0002 6.66704" stroke="white" stroke-width="1.5" stroke-linecap="round"/>
<path d="M7.33431 5.00092C7.33431 3.83156 7.25236 2.6827 7.09426 1.56059C6.99172 0.832864 6.14664 0.514192 5.56139 0.958696L4.53729 1.73651C4.18937 2.00075 3.7645 2.14381 3.32762 2.14381H2.66772C1.56316 2.14381 0.667725 3.03924 0.667725 4.14381V5.85803C0.667725 6.9626 1.56315 7.85803 2.66772 7.85803H3.32761C3.7645 7.85803 4.18937 8.00109 4.53729 8.26533L5.56139 9.04314C6.14664 9.48765 6.99172 9.16897 7.09426 8.44125C7.25236 7.31914 7.33431 6.17028 7.33431 5.00092Z" fill="white" stroke="white" stroke-linejoin="round"/>
</svg>
