<svg width="12" height="12" viewBox="0 0 12 12" fill="none" xmlns="http://www.w3.org/2000/svg">
<g clip-path="url(#clip0_103_8976)">
<path d="M7.5 12V0L2.25 3.75H0V8.25H2.25L7.5 12Z" fill="white"/>
<path d="M8.25 10.4325C10.3777 10.0748 12 8.229 12 6C12 3.771 10.3777 1.92525 8.25 1.5675V2.32576C9.95925 2.6745 11.25 4.18875 11.25 6C11.25 7.81125 9.95925 9.3255 8.25 9.67426V10.4325Z" fill="white"/>
<path d="M8.25 7.2915V8.112C9.12225 7.80225 9.75 6.978 9.75 6C9.75 5.022 9.12225 4.19775 8.25 3.888V4.7085C8.69625 4.96875 9 5.44725 9 6C9 6.55275 8.69625 7.03125 8.25 7.2915Z" fill="white"/>
</g>
<defs>
<clipPath id="clip0_103_8976">
<rect width="12" height="12" fill="white"/>
</clipPath>
</defs>
</svg>
