<svg width="67" height="18" viewBox="0 0 67 18" fill="none" xmlns="http://www.w3.org/2000/svg">
<path d="M6.36148 9.75281C6.36148 11.0196 5.78776 11.6438 4.72751 11.6438C3.66726 11.6438 3.22205 11.1343 3.22205 9.8492V4.35522H0V10.5331C0 12.9381 1.25302 14.2462 3.41023 14.2462C4.58063 14.3013 5.70514 13.7459 6.36148 12.7637V13.9616H9.56517V4.3644H6.34312L6.36148 9.75281Z" fill="currentColor"/>
<path d="M17.2802 4.07973C16.1098 4.01547 14.9853 4.55707 14.3152 5.52092V4.37347H11.1758V17.8674H14.3978V12.9197C15.0771 13.8193 16.1603 14.3149 17.2894 14.2507C18.8913 14.3241 20.3738 13.4062 21.0209 11.9374C21.714 10.1612 21.714 8.19218 21.0209 6.41134C20.3738 4.92884 18.8913 4.00629 17.2802 4.07514V4.07973ZM17.8769 10.6477C17.574 11.2857 16.913 11.6666 16.2108 11.6116C14.9991 11.6116 14.3473 10.8451 14.3473 9.41765V8.90818C14.3473 7.48994 14.9991 6.71426 16.2108 6.71426C16.913 6.65919 17.5648 7.04014 17.8677 7.67812C18.0421 8.15546 18.1248 8.6741 18.0972 9.18357C18.1202 9.66091 18.0513 10.1658 17.8723 10.6431L17.8769 10.6477Z" fill="currentColor"/>
<path d="M42.7399 4.09352C41.9642 4.08434 41.2574 4.53414 40.9315 5.2272V4.36432H37.7324V13.9799H40.9545V7.90763C40.9545 7.23752 41.0095 7.07688 41.2803 6.96673C41.5741 7.5175 42.157 7.85256 42.7858 7.82961C43.7726 7.86174 44.5942 7.09524 44.6355 6.10844V5.96615C44.6906 4.99312 43.9516 4.15778 42.9878 4.1027H42.7399V4.09352Z" fill="currentColor"/>
<path d="M50.074 4.07983C47.9122 4.07983 46.2783 4.71781 45.6403 6.12688C45.4659 6.55832 45.3603 7.01271 45.3511 7.47628H48.6283C48.6374 7.27891 48.6741 7.08614 48.7476 6.90255C48.9404 6.48029 49.3626 6.28293 50.1108 6.28293C50.8589 6.28293 51.2444 6.49865 51.4418 6.92091C51.5795 7.24679 51.6254 7.6002 51.5933 7.93984V8.09131H50.1521C47.8021 8.09131 45.934 8.44013 45.2318 9.94099C45.0666 10.3541 44.9931 10.8039 45.0023 11.2491C44.9839 11.7172 45.0757 12.19 45.2731 12.6122C45.7504 13.6863 46.8933 14.2324 48.4125 14.2324C49.9318 14.2324 50.9736 13.723 51.5841 12.828V13.9662H54.8061V8.44931C54.8291 7.6461 54.696 6.8383 54.3976 6.08098C53.778 4.70404 52.4057 4.07983 50.0695 4.07983H50.074ZM51.6116 10.0236C51.6438 10.3816 51.5887 10.7488 51.4372 11.0838C51.1894 11.6438 50.634 11.9467 49.7619 11.9467C49.2616 12.0202 48.7659 11.7953 48.486 11.373C48.3575 11.093 48.3575 10.7672 48.486 10.4872C48.6925 9.97771 49.4498 9.8905 50.377 9.8905H51.6116V10.0282V10.0236Z" fill="currentColor"/>
<path d="M63.2698 0.380371V5.41078C62.586 4.52036 61.5074 4.01548 60.3783 4.07974C58.7672 4.00171 57.2756 4.93344 56.6467 6.41594C55.9537 8.19219 55.9537 10.1612 56.6467 11.942C57.2939 13.4154 58.7764 14.3333 60.3783 14.2553C61.5441 14.3287 62.664 13.7871 63.3433 12.8371V13.9845H66.4827V0.380371H63.2698ZM63.3066 9.44979C63.3066 10.868 62.6548 11.6437 61.4431 11.6437C60.7409 11.6988 60.0799 11.3178 59.7862 10.6799C59.6118 10.1842 59.5292 9.66551 59.5567 9.14686C59.5337 8.6374 59.6118 8.12793 59.7862 7.64141C60.0799 7.00343 60.7409 6.62248 61.4431 6.67756C62.6548 6.67756 63.3066 7.45323 63.3066 8.87148V9.45438V9.44979Z" fill="currentColor"/>
<path d="M30.468 9.22034H32.5426L32.4646 9.53704C32.2076 10.611 30.9316 11.3408 29.8805 11.3408C28.4301 11.3408 26.5621 10.6478 26.5621 7.32476C26.5621 4.57548 27.7646 3.23526 29.6327 3.23526C30.6516 3.23526 31.4181 3.47393 31.8863 4.17617C32.102 4.50204 32.2305 4.86923 32.2764 5.25936H35.9528C35.9299 4.0706 35.4526 2.94152 34.6218 2.08782L34.5575 2.02356C33.4422 0.811856 31.7532 0.132568 29.6694 0.132568C25.4192 0.132568 22.6699 2.96447 22.6699 7.33853C22.6699 12.4102 26.1444 14.2003 29.1278 14.2003C30.8031 14.2003 32.2993 13.6908 33.2173 12.7269L33.2586 13.98H36.1502V6.74186H30.4588L30.468 9.22034Z" fill="currentColor"/>
</svg>
