<svg width="100" height="123" viewBox="0 0 100 123" fill="none" xmlns="http://www.w3.org/2000/svg">
<path fill-rule="evenodd" clip-rule="evenodd" d="M0 0L4.7304e-05 71.001V71.18V71.359C0.00248684 74.4256 0.000318407 77.4248 0.789916 80.3445C1.90966 83.475 3.59647 86.2181 5.76683 88.3404C9.54649 92.0355 14.5977 93.794 20.7811 93.5628C26.2754 93.3589 30.5321 91.1707 33.0802 87.3891H23.9029V78.226H48.2415V101.767H39.2074V95.0174C34.932 99.9382 28.6298 102.881 21.1278 103.16C20.664 103.178 20.2024 103.186 19.7448 103.186C16.2782 103.186 13.0055 102.69 9.97802 101.722C19.0989 114.055 33.6306 122.034 50.0002 122.034C77.6008 122.034 99.9786 99.35 100 71.359V0H0Z" fill="currentColor"/>
</svg>
