<svg width="122" height="33" viewBox="0 0 122 33" fill="none" xmlns="http://www.w3.org/2000/svg">
<path d="M11.7193 17.6576C11.7193 19.9801 10.6675 21.1245 8.7237 21.1245C6.77992 21.1245 5.9637 20.1904 5.9637 17.8344V7.76208H0.0566406V19.0881C0.0566406 23.4974 2.35383 25.8955 6.3087 25.8955C8.45443 25.9965 10.516 24.9783 11.7193 23.1776V25.3738H17.5927V7.77891H11.6856L11.7193 17.6576Z" fill="#FF0031"/>
<path d="M31.7364 7.25721C29.5906 7.13941 27.5291 8.13233 26.3005 9.89939V7.79574H20.5449V32.5347H26.452V23.4637C27.6973 25.113 29.6832 26.0218 31.7532 25.904C34.6899 26.0386 37.4078 24.3557 38.5943 21.663C39.8649 18.4066 39.8649 14.7967 38.5943 11.5318C37.4078 8.81391 34.6899 7.12258 31.7364 7.24879V7.25721ZM32.8303 19.2985C32.2749 20.4681 31.0632 21.1665 29.7758 21.0656C27.5543 21.0656 26.3594 19.6603 26.3594 17.0434V16.1094C26.3594 13.5093 27.5543 12.0872 29.7758 12.0872C31.0632 11.9862 32.2581 12.6846 32.8134 13.8543C33.1332 14.7294 33.2847 15.6802 33.2342 16.6142C33.2762 17.4894 33.15 18.415 32.8218 19.2901L32.8303 19.2985Z" fill="#FF0031"/>
<path d="M78.4128 7.28248C76.9907 7.26565 75.6948 8.09028 75.0974 9.36088V7.77894H69.2324V25.4075H75.1395V14.275C75.1395 13.0465 75.2405 12.752 75.7369 12.55C76.2755 13.5598 77.3441 14.174 78.4969 14.132C80.3061 14.1909 81.8123 12.7856 81.888 10.9765V10.7156C81.989 8.93174 80.6342 7.40028 78.8672 7.29931H78.4128V7.28248Z" fill="#FF0031"/>
<path d="M91.861 7.2572C87.8977 7.2572 84.9021 8.42683 83.7324 11.0101C83.4127 11.8011 83.2191 12.6341 83.2023 13.484H89.2104C89.2272 13.1222 89.2945 12.7688 89.4291 12.4322C89.7826 11.658 90.5567 11.2962 91.9283 11.2962C93.2999 11.2962 94.0067 11.6917 94.3685 12.4658C94.621 13.0633 94.7051 13.7112 94.6462 14.3339V14.6116H92.004C87.6957 14.6116 84.271 15.2511 82.9835 18.0026C82.6806 18.76 82.546 19.5846 82.5628 20.4008C82.5291 21.2591 82.6974 22.1258 83.0593 22.8999C83.9344 24.869 86.0296 25.8703 88.8149 25.8703C91.6001 25.8703 93.5102 24.9363 94.6294 23.2954V25.3822H100.536V15.2679C100.579 13.7953 100.334 12.3144 99.7875 10.926C98.6516 8.40159 96.1356 7.2572 91.8525 7.2572H91.861ZM94.6799 18.1541C94.7388 18.8104 94.6378 19.4836 94.3601 20.0979C93.9057 21.1245 92.8875 21.6798 91.2888 21.6798C90.3716 21.8145 89.4628 21.4021 88.9495 20.628C88.7139 20.1147 88.7139 19.5173 88.9495 19.004C89.3282 18.07 90.7166 17.9101 92.4163 17.9101H94.6799V18.1625V18.1541Z" fill="#FF0031"/>
<path d="M116.052 0.475098V9.6975C114.798 8.06506 112.821 7.13946 110.751 7.25726C107.798 7.11421 105.063 8.82238 103.91 11.5403C102.639 14.7967 102.639 18.4066 103.91 21.6715C105.096 24.3726 107.814 26.0555 110.751 25.9124C112.888 26.0471 114.942 25.0541 116.187 23.3123V25.416H121.943V0.475098H116.052ZM116.12 17.1023C116.12 19.7024 114.925 21.1245 112.703 21.1245C111.416 21.2255 110.204 20.5271 109.666 19.3575C109.346 18.4487 109.194 17.4978 109.245 16.547C109.203 15.613 109.346 14.6789 109.666 13.787C110.204 12.6174 111.416 11.919 112.703 12.0199C114.925 12.0199 116.12 13.442 116.12 16.0421V17.1108V17.1023Z" fill="#FF0031"/>
<path d="M55.9136 16.6815H59.717L59.574 17.2621C59.1028 19.2312 56.7635 20.5691 54.8366 20.5691C52.1775 20.5691 48.7528 19.2985 48.7528 13.2063C48.7528 8.16596 50.9574 5.7089 54.3822 5.7089C56.2502 5.7089 57.6555 6.14646 58.5137 7.43389C58.9092 8.03133 59.1448 8.70449 59.229 9.41973H65.9691C65.927 7.24035 65.0519 5.17036 63.5289 3.60525L63.4111 3.48744C61.3663 1.26599 58.2697 0.0206299 54.4495 0.0206299C46.6575 0.0206299 41.6172 5.21244 41.6172 13.2315C41.6172 22.5297 47.9871 25.8114 53.4566 25.8114C56.5279 25.8114 59.2711 24.8773 60.954 23.1103L61.0297 25.4075H66.3309V12.1376H55.8968L55.9136 16.6815Z" fill="#FF0031"/>
</svg>
