<svg width="13" height="16" viewBox="0 0 13 16" fill="none" xmlns="http://www.w3.org/2000/svg">
<path d="M12 1.00122C12.2761 1.00122 12.5 0.777363 12.5 0.501221C12.5 0.255761 12.3231 0.0516133 12.0899 0.00927734L12 0.0012207H1C0.723858 0.0012207 0.5 0.225078 0.5 0.501221C0.5 0.746681 0.676875 0.95083 0.910124 0.993166L1 1.00122H12ZM6.50014 15.999C6.7456 15.999 6.9497 15.822 6.99197 15.5887L7 15.4989L6.996 3.70501L10.6414 7.35334C10.8148 7.52707 11.0842 7.5466 11.2792 7.41179L11.3485 7.354C11.5222 7.18059 11.5418 6.91118 11.407 6.71619L11.3492 6.64689L6.85745 2.14689C6.78495 2.07426 6.69568 2.02858 6.60207 2.00986L6.49608 2.00012C6.33511 2.00012 6.19192 2.07624 6.10051 2.19444L1.64386 6.64631C1.44846 6.84143 1.44823 7.15802 1.64336 7.35342C1.8168 7.52711 2.08621 7.54658 2.28117 7.41173L2.35046 7.35392L5.996 3.71301L6 15.4992C6.00008 15.7753 6.224 15.999 6.50014 15.999Z" fill="currentColor"/>
</svg>
