<svg width="9" height="14" viewBox="0 0 9 14" fill="none" xmlns="http://www.w3.org/2000/svg">
<path d="M9.00033 9.49998C9.00033 10.6555 8.59477 11.6389 7.78366 12.45C6.97255 13.2611 5.98921 13.6666 4.83366 13.6666C3.6781 13.6666 2.69477 13.2611 1.88366 12.45C1.07255 11.6389 0.666992 10.6555 0.666992 9.49998V3.33331C0.666992 2.49998 0.958659 1.79165 1.54199 1.20831C2.12533 0.62498 2.83366 0.333313 3.66699 0.333313C4.50033 0.333313 5.20866 0.62498 5.79199 1.20831C6.37533 1.79165 6.66699 2.49998 6.66699 3.33331V9.16665C6.66699 9.67776 6.48921 10.1111 6.13366 10.4666C5.7781 10.8222 5.34477 11 4.83366 11C4.32255 11 3.88921 10.8222 3.53366 10.4666C3.1781 10.1111 3.00033 9.67776 3.00033 9.16665V2.99998H4.33366V9.16665C4.33366 9.31109 4.38088 9.43053 4.47533 9.52498C4.56977 9.61942 4.68921 9.66665 4.83366 9.66665C4.9781 9.66665 5.09755 9.61942 5.19199 9.52498C5.28644 9.43053 5.33366 9.31109 5.33366 9.16665V3.33331C5.32255 2.86665 5.15866 2.4722 4.84199 2.14998C4.52533 1.82776 4.13366 1.66665 3.66699 1.66665C3.20033 1.66665 2.80588 1.82776 2.48366 2.14998C2.16144 2.4722 2.00033 2.86665 2.00033 3.33331V9.49998C1.98921 10.2889 2.26144 10.9583 2.81699 11.5083C3.37255 12.0583 4.04477 12.3333 4.83366 12.3333C5.61144 12.3333 6.27255 12.0583 6.81699 11.5083C7.36144 10.9583 7.64477 10.2889 7.66699 9.49998V2.99998H9.00033V9.49998Z" fill="black"/>
</svg>
