<svg width="28" height="36" viewBox="0 0 28 36" fill="none" xmlns="http://www.w3.org/2000/svg">
<path d="M19.0458 0.27315C18.8838 0.102465 18.6616 0 18.4313 0H4.64409C2.09999 0 0 2.09163 0 4.63546V30.7071C0 33.2512 2.09999 35.3429 4.64409 35.3429H23.3569C25.901 35.3429 28.001 33.2512 28.001 30.7071V10.0052C28.001 9.78325 27.8985 9.56996 27.7534 9.40763L19.0458 0.27315ZM19.2933 3.01355L25.1241 9.13448H21.3337C20.2069 9.13448 19.2933 8.22956 19.2933 7.10271V3.01355ZM23.3569 33.6355H4.64409C3.04779 33.6355 1.70739 32.3123 1.70739 30.7071V4.63546C1.70739 3.03917 3.03917 1.70739 4.64409 1.70739H17.586V7.10271C17.586 9.17709 19.2594 10.8419 21.3337 10.8419H26.2936V30.7071C26.2936 32.3123 24.9618 33.6355 23.3569 33.6355Z" fill="#999999"/>
<path d="M19.0458 0.689166C18.8838 0.518481 18.6616 0.416016 18.4313 0.416016H4.64409C2.09999 0.416016 0 2.50765 0 5.05148V31.1232C0 33.6673 2.09999 35.7589 4.64409 35.7589H23.3569C25.901 35.7589 28.001 33.6673 28.001 31.1232V10.4212C28.001 10.1993 27.8985 9.98598 27.7534 9.82365L19.0458 0.689166ZM19.2933 3.42956L25.1241 9.5505H21.3337C20.2069 9.5505 19.2933 8.64557 19.2933 7.51873V3.42956ZM23.3569 34.0515H4.64409C3.04779 34.0515 1.70739 32.7284 1.70739 31.1232V5.05148C1.70739 3.45518 3.03917 2.12341 4.64409 2.12341H17.586V7.51873C17.586 9.5931 19.2594 11.2579 21.3337 11.2579H26.2936V31.1232C26.2936 32.7284 24.9618 34.0515 23.3569 34.0515Z" fill="#999999"/>
<path d="M21.0265 27.7441H6.97479C6.50534 27.7441 6.12109 28.1281 6.12109 28.5978C6.12109 29.0673 6.50534 29.4515 6.97479 29.4515H21.0351C21.5046 29.4515 21.8888 29.0673 21.8888 28.5978C21.8888 28.1281 21.5046 27.7441 21.0265 27.7441Z" fill="#999999"/>
<path d="M9.62901 18.5598L13.1463 14.7778V24.1002C13.1463 24.5696 13.5305 24.9539 14 24.9539C14.4697 24.9539 14.8537 24.5696 14.8537 24.1002V14.7778L18.3709 18.5598C18.5416 18.7388 18.7638 18.833 18.994 18.833C19.199 18.833 19.4125 18.7561 19.5746 18.6024C19.9162 18.278 19.9418 17.7401 19.6175 17.3987L14.6147 12.029C14.4524 11.8583 14.2305 11.7559 13.9916 11.7559C13.7524 11.7559 13.5305 11.8583 13.3684 12.029L8.36573 17.3987C8.04135 17.7401 8.06696 18.2864 8.40833 18.6024C8.76696 18.9268 9.30463 18.9012 9.62901 18.5598Z" fill="#999999"/>
</svg>
