<svg width="12" height="15" viewBox="0 0 12 15" fill="none" xmlns="http://www.w3.org/2000/svg">
<path d="M6.03494 1.42363C6.24411 0.902787 6.83006 0.343305 7.5806 0.551903C8.1709 0.715965 8.55437 1.07289 8.77353 1.54837C8.97781 1.99157 9.02797 2.51324 9.03753 3.01038C9.04781 3.54514 8.93612 4.18671 8.80466 4.74782C8.74339 5.00936 8.67586 5.26147 8.60995 5.4881H9.99492C11.3298 5.4881 12.29 6.7708 11.9139 8.05157L10.5497 12.6976C10.1555 14.04 8.73654 14.7977 7.40179 14.3784L2.04591 12.6961C1.45891 12.5117 0.989444 12.0674 0.773038 11.4915L0.253045 10.1075C-0.0885815 9.19827 0.272443 8.17503 1.109 7.68149L2.98089 6.57715C2.98462 6.57453 2.99002 6.57067 2.99704 6.56551C3.01761 6.55035 3.05204 6.52392 3.09835 6.48465C3.19093 6.40616 3.33128 6.2761 3.5035 6.08185C3.84755 5.69378 4.32141 5.04656 4.79565 4.03734C5.00052 3.60136 5.17287 3.25864 5.32941 2.94738C5.58243 2.44426 5.79411 2.02333 6.03494 1.42363ZM3.51946 7.42C3.51378 7.42364 3.50805 7.4272 3.50224 7.43063L1.61713 8.54278C1.19885 8.78955 1.01834 9.30117 1.18915 9.75578L1.70914 11.1397C1.81735 11.4277 2.05208 11.6499 2.34558 11.7421L7.70146 13.4244C8.50231 13.6759 9.35371 13.2213 9.5902 12.4159L10.9544 7.76984C11.1424 7.12945 10.6623 6.4881 9.99492 6.4881H7.92587C7.76349 6.4881 7.61122 6.40925 7.51751 6.27662C7.42381 6.144 7.40035 5.97413 7.4546 5.82107C7.55458 5.53899 7.70672 5.05029 7.83103 4.51971C7.95711 3.98156 8.04556 3.4374 8.03771 3.02961C8.02871 2.5613 7.97907 2.21366 7.86536 1.96697C7.76654 1.75257 7.61384 1.59905 7.31282 1.51538C7.26971 1.5034 7.21948 1.5069 7.15353 1.5502C7.08149 1.59749 7.00781 1.68448 6.96291 1.79629C6.70922 2.42802 6.46651 2.91187 6.19787 3.44742C6.04311 3.75595 5.87974 4.08163 5.7007 4.46263C5.18681 5.55625 4.66067 6.28403 4.25176 6.74525C4.04749 6.97565 3.87312 7.13881 3.74509 7.24737C3.68109 7.30163 3.62875 7.34219 3.59013 7.37064C3.57082 7.38487 3.55495 7.39606 3.54277 7.40442L3.5273 7.41486L3.52171 7.41854L3.51946 7.42ZM2.97612 6.58049L2.97492 6.58127L2.97612 6.58049Z" fill="white"/>
</svg>
