<svg width="16" height="16" viewBox="0 0 16 16" fill="none" xmlns="http://www.w3.org/2000/svg">
<path d="M9.5806 1.0519C8.83006 0.843305 8.24411 1.40279 8.03494 1.92363C7.79411 2.52334 7.58243 2.94426 7.32941 3.44738C7.17287 3.75864 7.00052 4.10136 6.79565 4.53734C6.32141 5.54656 5.84755 6.19378 5.5035 6.58185C5.33128 6.7761 5.19093 6.90616 5.09835 6.98465C5.05204 7.02392 5.01761 7.05035 4.99704 7.06551L4.9809 7.07714L3.109 8.18149C2.27244 8.67503 1.91142 9.69827 2.25304 10.6075L2.77304 11.9915C2.98944 12.5674 3.45891 13.0117 4.04591 13.1961L9.40179 14.8784C10.7365 15.2977 12.1555 14.54 12.5497 13.1976L13.9139 8.55157C14.29 7.2708 13.3298 5.9881 11.9949 5.9881H10.6099C10.6759 5.76147 10.7434 5.50936 10.8047 5.24782C10.9361 4.68671 11.0478 4.04514 11.0375 3.51038C11.028 3.01324 10.9778 2.49157 10.7735 2.04837C10.5544 1.57289 10.1709 1.21597 9.5806 1.0519ZM4.9768 7.07999L4.97492 7.08127Z" fill="#CCEEE3"/>
<path d="M4.9768 7.07999L4.97492 7.08127M9.5806 1.0519C8.83006 0.843305 8.24411 1.40279 8.03494 1.92363C7.79411 2.52334 7.58243 2.94426 7.32941 3.44738C7.17287 3.75864 7.00052 4.10136 6.79565 4.53734C6.32141 5.54656 5.84755 6.19378 5.5035 6.58185C5.33128 6.7761 5.19093 6.90616 5.09835 6.98465C5.05204 7.02392 5.01761 7.05035 4.99704 7.06551L4.9809 7.07714L3.109 8.18149C2.27244 8.67503 1.91142 9.69827 2.25304 10.6075L2.77304 11.9915C2.98944 12.5674 3.45891 13.0117 4.04591 13.1961L9.40179 14.8784C10.7365 15.2977 12.1555 14.54 12.5497 13.1976L13.9139 8.55157C14.29 7.2708 13.3298 5.9881 11.9949 5.9881H10.6099C10.6759 5.76147 10.7434 5.50936 10.8047 5.24782C10.9361 4.68671 11.0478 4.04514 11.0375 3.51038C11.028 3.01324 10.9778 2.49157 10.7735 2.04837C10.5544 1.57289 10.1709 1.21597 9.5806 1.0519Z" stroke="#028D5E" stroke-linecap="round" stroke-linejoin="round"/>
</svg>
