<svg width="14" height="14" viewBox="0 0 14 14" fill="none" xmlns="http://www.w3.org/2000/svg">
<path d="M7 13.7812C10.7452 13.7812 13.7812 10.7452 13.7812 7C13.7812 3.25482 10.7452 0.21875 7 0.21875C3.25482 0.21875 0.21875 3.25482 0.21875 7C0.21875 10.7452 3.25482 13.7812 7 13.7812Z" fill="#E8E8E8"/>
<path d="M12.4418 11.0414C11.8093 10.1946 10.9881 9.50709 10.0434 9.03338C9.09864 8.55966 8.05643 8.31283 6.99958 8.3125C5.94273 8.31217 4.90036 8.55835 3.95533 9.03147C3.0103 9.50459 2.18864 10.1916 1.55566 11.038C2.18542 11.8886 3.00574 12.5798 3.95083 13.0562C4.89592 13.5326 5.93949 13.7809 6.99786 13.7813C8.05624 13.7816 9.09996 13.5339 10.0454 13.0581C10.9907 12.5823 11.8115 11.8916 12.4418 11.0414Z" fill="#ADADAD"/>
<path d="M7 7.4375C8.44975 7.4375 9.625 6.26225 9.625 4.8125C9.625 3.36275 8.44975 2.1875 7 2.1875C5.55025 2.1875 4.375 3.36275 4.375 4.8125C4.375 6.26225 5.55025 7.4375 7 7.4375Z" fill="#ADADAD"/>
</svg>
