<svg width="20" height="20" viewBox="0 0 20 20" fill="none" xmlns="http://www.w3.org/2000/svg">
<path d="M9.72973 11.237L13.1289 9.05405L9.72973 6.87108V11.237ZM7.86905 13.1081C7.59599 13.1081 7.36486 13.0135 7.17568 12.8243C6.98649 12.6351 6.89189 12.404 6.89189 12.1309V5.97716C6.89189 5.7041 6.98649 5.47297 7.17568 5.28378C7.36486 5.09459 7.59599 5 7.86905 5H14.0228C14.2959 5 14.527 5.09459 14.7162 5.28378C14.9054 5.47297 15 5.7041 15 5.97716V12.1309C15 12.404 14.9054 12.6351 14.7162 12.8243C14.527 13.0135 14.2959 13.1081 14.0228 13.1081H7.86905ZM7.86905 12.2973H14.0228C14.0645 12.2973 14.1026 12.28 14.1372 12.2453C14.1718 12.2107 14.1892 12.1726 14.1892 12.1309V5.97716C14.1892 5.93554 14.1718 5.89743 14.1372 5.86284C14.1026 5.82815 14.0645 5.81081 14.0228 5.81081H7.86905C7.82743 5.81081 7.78932 5.82815 7.75473 5.86284C7.72005 5.89743 7.7027 5.93554 7.7027 5.97716V12.1309C7.7027 12.1726 7.72005 12.2107 7.75473 12.2453C7.78932 12.28 7.82743 12.2973 7.86905 12.2973ZM5.97716 15C5.7041 15 5.47297 14.9054 5.28378 14.7162C5.09459 14.527 5 14.2959 5 14.0228V7.05824H5.81081V14.0228C5.81081 14.0645 5.82815 14.1026 5.86284 14.1372C5.89743 14.1718 5.93554 14.1892 5.97716 14.1892H12.9418V15H5.97716Z" fill="white"/>
</svg>
