<svg width="90" height="85" viewBox="0 0 90 85" fill="none" xmlns="http://www.w3.org/2000/svg">
<path fill-rule="evenodd" clip-rule="evenodd" d="M11.4091 78.9662C7.49402 77.6551 4.49908 74.1352 5.56355 71.0103C11.3189 54.2185 29.5591 29.7222 42.8559 6.01612C45.3998 1.49042 52.5624 2.28062 54.98 6.8602C67.6273 30.9255 84.5144 55.2062 89.8187 72.1417C90.793 75.2845 87.7078 78.7147 83.7567 79.918C59.5446 86.7425 35.4227 86.4192 11.4091 78.9302V78.9662Z" fill="#074785"/>
<path fill-rule="evenodd" clip-rule="evenodd" d="M6.82078 76.7937C2.90571 75.4827 -0.0711875 71.9627 0.975236 68.8378C6.73057 52.046 24.9889 27.5497 38.2857 3.86161C40.8296 -0.664097 47.9921 0.126104 50.4097 4.70569C63.057 28.7709 79.9442 53.0517 85.2484 69.9872C86.2227 73.13 83.1376 76.5602 79.1864 77.7635C54.9743 84.588 30.8524 84.2647 6.83882 76.7757L6.82078 76.7937Z" fill="#FFC107"/>
<path d="M39.5643 25.6609C39.9765 25.1338 40.5652 24.7422 41.3306 24.4861C42.0959 24.2301 42.8318 24.1096 43.553 24.1247C44.1565 24.1247 44.7452 24.1548 45.3192 24.1849C45.8932 24.215 46.4525 24.2903 46.9971 24.3958C48.1304 24.6819 48.9252 25.2693 49.352 26.0977C49.7789 26.9261 50.0291 27.875 50.0732 28.9142C50.1174 29.9535 50.0732 30.9777 49.8966 31.9717C49.7347 32.9809 49.617 33.7791 49.5728 34.4117C49.0871 40.1351 48.5573 45.8736 48.1451 51.5969C48.0863 52.3801 48.0274 53.1483 47.9832 53.9164C47.9244 54.6996 47.7478 55.4376 47.4387 56.1305C47.1443 56.7932 46.6439 57.2601 45.9521 57.5613C45.2603 57.8625 44.5539 57.983 43.818 57.9529C43.082 57.9228 42.3756 57.727 41.6985 57.3956C41.0067 57.0492 40.521 56.5823 40.2414 55.9497C40.1236 55.6033 40.0206 55.1515 39.947 54.6394C39.8734 54.1122 39.7998 53.6303 39.741 53.2085C39.6821 52.5458 39.6379 51.853 39.6232 51.13C39.6232 50.4071 39.5938 49.6841 39.5496 48.9461C39.2553 42.4245 38.8579 35.9179 38.5782 29.3962C38.5635 28.9293 38.6077 28.3268 38.7401 27.5738C38.8726 26.8207 39.1522 26.1881 39.5643 25.6609ZM46.8499 63.0738C47.1443 63.4353 47.3798 63.9022 47.527 64.4444C48.1746 66.9748 47.2032 69.9871 44.3331 70.1678C42.6994 70.2733 40.8596 69.5654 40.3003 67.8484C40.1236 67.2308 40.0206 66.5079 40.0059 65.6946C39.9765 64.098 40.5652 62.6822 42.1106 62.1701C43.8915 61.5827 45.8049 61.7786 46.8646 63.0738H46.8499Z" fill="white"/>
</svg>
