<svg width="19" height="23" viewBox="0 0 19 23" fill="none" xmlns="http://www.w3.org/2000/svg">
<path d="M9.50127 22.2392C8.22261 22.2392 7.02444 21.9967 5.90677 21.5117C4.78927 21.0267 3.81636 20.3701 2.98802 19.5417C2.15986 18.7136 1.50327 17.7407 1.01827 16.623C0.533271 15.5055 0.290771 14.3097 0.290771 13.0357H2.56577C2.56577 14.9659 3.23852 16.6032 4.58402 17.9475C5.92969 19.292 7.56836 19.9642 9.50002 19.9642C11.43 19.9642 13.0673 19.2914 14.4118 17.9457C15.7561 16.6002 16.4283 14.9617 16.4283 13.03C16.4283 11.0998 15.7555 9.46258 14.41 8.11825C13.0644 6.77391 11.4257 6.10175 9.49402 6.10175H9.33802L10.8403 7.60375L9.37452 9.1195L5.21902 4.96425L9.37452 0.808746L10.8403 2.3305L9.34402 3.82675H9.49402C10.773 3.82675 11.971 4.06916 13.088 4.554C14.205 5.039 15.1787 5.69566 16.009 6.524C16.8392 7.35216 17.4968 8.32416 17.9818 9.44C18.4668 10.5558 18.7093 11.7526 18.7093 13.0302C18.7093 14.3079 18.4668 15.5055 17.9818 16.623C17.4968 17.7407 16.8402 18.7136 16.012 19.5417C15.1837 20.3701 14.2112 21.0267 13.0945 21.5117C11.9777 21.9967 10.7799 22.2392 9.50127 22.2392Z" fill="#E8EAED"/>
</svg>
