<svg width="30" height="31" viewBox="0 0 30 31" fill="none" xmlns="http://www.w3.org/2000/svg">
<path d="M7.34172 14.1291C7.34134 15.4734 7.69534 16.7861 8.36847 17.943L7.27734 21.896L11.3543 20.8353C12.482 21.4444 13.7454 21.7636 15.0293 21.7637H15.0327C19.2712 21.7637 22.7213 18.3415 22.7232 14.1351C22.724 12.0969 21.9247 10.1802 20.4726 8.73825C19.0207 7.29639 17.0898 6.50191 15.0324 6.50098C10.7935 6.50098 7.34353 9.92299 7.34178 14.1291" fill="url(#paint0_linear_4715_6611)"/>
<g filter="url(#filter0_d_4715_6611)">
<path d="M7.06688 14.1269C7.06644 15.5195 7.43312 16.8791 8.13025 18.0775L7 22.1722L11.2232 21.0735C12.3868 21.703 13.6969 22.0349 15.0301 22.0354H15.0335C19.424 22.0354 22.9981 18.4901 23 14.1332C23.0007 12.0217 22.1727 10.0361 20.6687 8.54249C19.1646 7.04904 17.1646 6.22597 15.0335 6.2251C10.6422 6.2251 7.06863 9.7699 7.06688 14.1269ZM9.58188 17.8711L9.42419 17.6227C8.76131 16.5769 8.41144 15.3684 8.41194 14.1274C8.41338 10.506 11.3836 7.55967 15.036 7.55967C16.8048 7.56042 18.467 8.24457 19.7172 9.48587C20.9674 10.7273 21.6554 12.3775 21.6549 14.1327C21.6533 17.7541 18.683 20.7008 15.0335 20.7008H15.0309C13.8426 20.7001 12.6771 20.3835 11.6607 19.7851L11.4189 19.6428L8.91275 20.2947L9.58188 17.8711V17.8711Z" fill="url(#paint1_linear_4715_6611)"/>
</g>
<path d="M13.0452 10.8229C12.896 10.494 12.7391 10.4874 12.5973 10.4816C12.4812 10.4767 12.3484 10.4771 12.2158 10.4771C12.083 10.4771 11.8673 10.5266 11.685 10.7241C11.5025 10.9218 10.9883 11.3996 10.9883 12.3713C10.9883 13.3431 11.7016 14.2822 11.801 14.4141C11.9006 14.5458 13.1781 16.6037 15.2013 17.3954C16.8828 18.0533 17.225 17.9225 17.59 17.8895C17.955 17.8566 18.7677 17.4118 18.9335 16.9506C19.0995 16.4895 19.0995 16.0942 19.0497 16.0116C19 15.9293 18.8672 15.8798 18.6682 15.7811C18.469 15.6823 17.4904 15.2045 17.308 15.1386C17.1255 15.0727 16.9928 15.0398 16.86 15.2376C16.7273 15.4351 16.3461 15.8798 16.2299 16.0116C16.1138 16.1436 15.9977 16.16 15.7987 16.0612C15.5995 15.9621 14.9584 15.7538 14.1978 15.081C13.6061 14.5575 13.2066 13.911 13.0905 13.7132C12.9743 13.5158 13.078 13.4087 13.1778 13.3103C13.2673 13.2218 13.377 13.0797 13.4766 12.9644C13.5758 12.849 13.609 12.7667 13.6753 12.635C13.7418 12.5032 13.7085 12.3878 13.6588 12.289C13.609 12.1902 13.2222 11.2134 13.0452 10.8229Z" fill="white"/>
<defs>
<filter id="filter0_d_4715_6611" x="0.333333" y="0.891764" width="29.3333" height="29.2804" filterUnits="userSpaceOnUse" color-interpolation-filters="sRGB">
<feFlood flood-opacity="0" result="BackgroundImageFix"/>
<feColorMatrix in="SourceAlpha" type="matrix" values="0 0 0 0 0 0 0 0 0 0 0 0 0 0 0 0 0 0 127 0" result="hardAlpha"/>
<feOffset dy="1.33333"/>
<feGaussianBlur stdDeviation="3.33333"/>
<feComposite in2="hardAlpha" operator="out"/>
<feColorMatrix type="matrix" values="0 0 0 0 1 0 0 0 0 1 0 0 0 0 1 0 0 0 0.1 0"/>
<feBlend mode="normal" in2="BackgroundImageFix" result="effect1_dropShadow_4715_6611"/>
<feBlend mode="normal" in="SourceGraphic" in2="effect1_dropShadow_4715_6611" result="shape"/>
</filter>
<linearGradient id="paint0_linear_4715_6611" x1="779.568" y1="1546.01" x2="779.568" y2="6.50098" gradientUnits="userSpaceOnUse">
<stop stop-color="#1FAF38"/>
<stop offset="1" stop-color="#60D669"/>
</linearGradient>
<linearGradient id="paint1_linear_4715_6611" x1="807" y1="1600.94" x2="807" y2="6.2251" gradientUnits="userSpaceOnUse">
<stop stop-color="#1B0000"/>
<stop offset="1" stop-color="white"/>
</linearGradient>
</defs>
</svg>
