<svg width="24" height="24" viewBox="0 0 24 24" fill="none" xmlns="http://www.w3.org/2000/svg">
<rect width="24" height="24" rx="12" fill="#F7EBF3"/>
<path d="M7.19961 5.60001C6.31595 5.60001 5.59961 6.31635 5.59961 7.20001V14.4C5.59961 15.2837 6.31595 16 7.19961 16H9.59961V17.6H8.39961C8.1787 17.6 7.99961 17.7791 7.99961 18C7.99961 18.2209 8.1787 18.4 8.39961 18.4H11.2396C11.2134 18.2708 11.1996 18.137 11.1996 18V17.6H10.3996V16H11.1996V15.2H7.19961C6.75778 15.2 6.39961 14.8418 6.39961 14.4V7.20001C6.39961 6.75818 6.75778 6.40001 7.19961 6.40001H16.7996C17.2414 6.40001 17.5996 6.75818 17.5996 7.20001V11.5999C17.9924 11.8949 18.2731 12.3313 18.3661 12.8335C18.3773 12.8356 18.3885 12.8378 18.3996 12.84V7.20001C18.3996 6.31635 17.6833 5.60001 16.7996 5.60001H7.19961ZM13.5996 13.6V13.2C13.5996 12.5373 14.1369 12 14.7996 12H16.3996C17.0624 12 17.5996 12.5373 17.5996 13.2V13.6H17.9996C18.6624 13.6 19.1996 14.1373 19.1996 14.8V16H17.5996V15.6C17.5996 15.3791 17.4205 15.2 17.1996 15.2C16.9787 15.2 16.7996 15.3791 16.7996 15.6V16H14.3996V15.6C14.3996 15.3791 14.2205 15.2 13.9996 15.2C13.7787 15.2 13.5996 15.3791 13.5996 15.6V16H11.9996V14.8C11.9996 14.1373 12.5369 13.6 13.1996 13.6H13.5996ZM14.3996 13.2V13.6H16.7996V13.2C16.7996 12.9791 16.6205 12.8 16.3996 12.8H14.7996C14.5787 12.8 14.3996 12.9791 14.3996 13.2ZM17.5996 17.2V16.8H19.1996V18C19.1996 18.6627 18.6624 19.2 17.9996 19.2H13.1996C12.5369 19.2 11.9996 18.6627 11.9996 18V16.8H13.5996V17.2C13.5996 17.4209 13.7787 17.6 13.9996 17.6C14.2205 17.6 14.3996 17.4209 14.3996 17.2V16.8H16.7996V17.2C16.7996 17.4209 16.9787 17.6 17.1996 17.6C17.4205 17.6 17.5996 17.4209 17.5996 17.2Z" fill="#B64F97"/>
</svg>
