<svg width="14" height="14" viewBox="0 0 14 14" fill="none" xmlns="http://www.w3.org/2000/svg">
<g clip-path="url(#clip0_18635_14906)">
<path d="M7 14C3.13906 14 0 10.8588 0 7C0 3.14125 3.13906 0 7 0C7.53375 0 8.06531 0.06125 8.58156 0.179375C8.69969 0.205625 8.77187 0.32375 8.74562 0.441875C8.71937 0.56 8.60125 0.634375 8.48313 0.605937C7.99969 0.494375 7.50094 0.4375 7.00219 0.4375C3.38188 0.4375 0.823529 3.38187 0.823529 7C0.823529 10.6181 3.38187 13.1765 7 13.1765C10.6181 13.1765 13.0149 10.5755 13.5625 7C13.5625 6.49906 13.5056 6.00031 13.3941 5.51687C13.3678 5.39875 13.44 5.28062 13.5581 5.25437C13.6763 5.22594 13.7922 5.30031 13.8206 5.41844C13.9388 5.9325 14 6.46625 14 6.99781C14 10.8566 10.8609 13.9978 7 13.9978V14Z" fill="currentColor"/>
<path d="M7 14C4.82781 14 3.0625 10.8588 3.0625 7C3.0625 3.14125 4.82781 0 7 0V0.4375C5.07063 0.4375 3.70588 3.38187 3.70588 7C3.70588 10.6181 5.07063 13.5625 7 13.5625C8.92938 13.5625 10.5 10.6181 10.5 7H10.9375C10.9375 10.8588 9.17219 14 7 14Z" fill="currentColor"/>
<path d="M0.21875 6.78091L7 6.58789L13.7812 6.78091V7.21841L7 7.41142L0.21875 7.21841V6.78091Z" fill="currentColor"/>
<path d="M6.99969 4.45811C4.93031 4.45811 2.955 4.06217 1.43688 3.34248C1.3275 3.28998 1.28156 3.07824 1.33188 2.96886C1.38438 2.85949 1.53741 2.83247 1.64679 2.88278C3.10804 3.57403 5.01772 3.95465 7.02147 3.95465C7.1046 3.95465 7.16375 3.93136 7.24688 3.92699C7.30813 3.9248 7.36938 3.92042 7.43063 3.91824C7.55094 3.91386 7.65156 4.01011 7.65594 4.13042C7.66031 4.25074 7.56406 4.35136 7.44375 4.35574C7.38688 4.35574 7.33 4.36011 7.27094 4.3623C7.18125 4.36667 7.09156 4.45811 6.99969 4.45811Z" fill="currentColor"/>
<path d="M12.375 11.1257C10.9291 10.4411 9.01941 10.2942 7.00034 10.2942C4.98128 10.2942 3.07156 10.4389 1.62562 11.1257L1.4375 10.7298C2.9425 10.0167 4.91781 9.4707 7.00031 9.4707C9.08281 9.4707 11.0581 10.0167 12.5631 10.7298L12.375 11.1257Z" fill="currentColor"/>
<path d="M6.78091 0.21875H7.21841L7.41142 7L7.21841 13.7812H6.78091L6.58789 7L6.78091 0.21875Z" fill="currentColor"/>
<path d="M10.9375 6.125C9.24875 6.125 7.875 4.75125 7.875 3.0625C7.875 1.37375 9.24875 0 10.9375 0C12.6262 0 14 1.37375 14 3.0625C14 4.75125 12.6262 6.125 10.9375 6.125ZM10.8889 0.777778C9.44076 0.777778 8.55556 1.61438 8.55556 3.0625C8.55556 4.51062 9.44076 5.44444 10.8889 5.44444C12.337 5.44444 13.2222 4.55924 13.2222 3.11111C13.2222 1.66299 12.337 0.777778 10.8889 0.777778Z" fill="currentColor"/>
<path d="M10.4231 4.66678C10.3422 4.66678 10.2645 4.64085 10.2023 4.59159C10.081 4.49048 10.081 4.32715 10.2023 4.22603L11.045 3.52344V1.81492C11.045 1.67233 11.1849 1.55566 11.3559 1.55566C11.527 1.55566 11.6669 1.67233 11.6669 1.81492V3.62974C11.6669 3.69974 11.6327 3.76455 11.5767 3.81381L10.6438 4.59159C10.5816 4.64344 10.5039 4.66678 10.4231 4.66678Z" fill="currentColor"/>
</g>
<defs>
<clipPath id="clip0_18635_14906">
<rect width="14" height="14" fill="white"/>
</clipPath>
</defs>
</svg>
