<svg width="41" height="40" viewBox="0 0 41 40" fill="none" xmlns="http://www.w3.org/2000/svg">
<path d="M20.8001 40C31.8457 40 40.8001 31.0457 40.8001 20C40.8001 8.95431 31.8457 0 20.8001 0C9.75436 0 0.800049 8.95431 0.800049 20C0.800049 31.0457 9.75436 40 20.8001 40Z" fill="#FFD21F"/>
<path d="M11.6994 20.2937C10.8972 20.2937 10.2454 19.6419 10.2454 18.8396V15.3548C10.2454 14.5589 10.8972 13.9008 11.6994 13.9008C12.4954 13.9008 13.1535 14.5526 13.1535 15.3548V18.8396C13.1535 19.6419 12.5017 20.2937 11.6994 20.2937Z" fill="#403408"/>
<path d="M29.907 20.2937C29.1047 20.2937 28.4529 19.6419 28.4529 18.8396V15.3548C28.4529 14.5589 29.1047 13.9008 29.907 13.9008C30.7092 13.9008 31.3611 14.5526 31.3611 15.3548V18.8396C31.3611 19.6419 30.7092 20.2937 29.907 20.2937Z" fill="#403408"/>
<path d="M10.5462 25.0146C10.1137 25.0146 9.81289 25.4533 9.97585 25.8544C10.8282 27.9416 13.68 33.1876 20.7562 33.1876C27.8323 33.1876 30.7468 27.904 31.6242 25.798C31.7935 25.3969 31.4926 24.9519 31.0539 24.9519L10.5399 25.0083L10.5462 25.0146Z" fill="#403408"/>
<mask id="mask0_765_5932" style="mask-type:luminance" maskUnits="userSpaceOnUse" x="9" y="24" width="23" height="10">
<path d="M10.5462 25.0153C10.1137 25.0153 9.81289 25.454 9.97585 25.8552C10.8282 27.9423 13.68 33.1883 20.7562 33.1883C27.8323 33.1883 30.7468 27.9047 31.6242 25.7988C31.7935 25.3976 31.4926 24.9526 31.0539 24.9526L10.5399 25.009L10.5462 25.0153Z" fill="white"/>
</mask>
<g mask="url(#mask0_765_5932)">
<path d="M28.3465 32.5238C28.3465 34.8303 24.8993 36.7043 20.6436 36.7043C16.3879 36.7043 12.9407 34.8365 12.9407 32.5238C12.9407 30.211 16.3879 28.3433 20.6436 28.3433C24.8993 28.3433 28.3465 30.211 28.3465 32.5238Z" fill="#D1212D"/>
</g>
</svg>
