<svg width="78" height="100" viewBox="0 0 78 100" fill="none" xmlns="http://www.w3.org/2000/svg">
<path d="M55.0447 0H3.21968C1.77682 0 0.607178 1.16964 0.607178 3.43929V98.2143C0.607178 98.8304 1.77682 100 3.21968 100H74.7804C76.2232 100 77.3929 98.8304 77.3929 98.2143V23.175C77.3929 21.9321 77.2268 21.5321 76.934 21.2375L56.1554 0.458929C55.8607 0.166071 55.4608 0 55.0447 0Z" fill="#E9E9E0"/>
<path d="M55.9644 0.269531V21.4285H77.1233L55.9644 0.269531Z" fill="#D9D7CA"/>
<path d="M74.7804 100H3.21968C1.77682 100 0.607178 98.8303 0.607178 97.3875V69.6428H77.3929V97.3875C77.3929 98.8303 76.2232 100 74.7804 100Z" fill="#556080"/>
<path d="M34.1179 76.6499V79.0178L25.5483 91.8838L25.0608 92.2749H34.1179V94.6428H22.1554V92.2749L30.725 79.4088L31.2375 79.0178H22.1554V76.6499H34.1179Z" fill="white"/>
<path d="M41.2697 94.6428H38.2911V76.6499H41.2697V94.6428Z" fill="white"/>
<path d="M48.6679 94.6428H45.7375V76.6499H50.9125C51.6768 76.6499 52.434 76.7713 53.1822 77.016C53.9304 77.2606 54.6018 77.6267 55.1965 78.1142C55.7911 78.6017 56.2715 79.1928 56.6375 79.8838C57.0036 80.5749 57.1875 81.3517 57.1875 82.216C57.1875 83.1285 57.0322 83.9535 56.7233 84.6945C56.4143 85.4356 55.9822 86.0588 55.4286 86.5624C54.875 87.066 54.2072 87.457 53.4268 87.7338C52.6465 88.0106 51.7822 88.1481 50.8393 88.1481H48.6661V94.6428H48.6679ZM48.6679 78.8713V85.9999H51.3536C51.7108 85.9999 52.0643 85.9392 52.4161 85.816C52.7661 85.6945 53.0876 85.4945 53.3804 85.2178C53.6733 84.941 53.909 84.5553 54.0876 84.0588C54.2661 83.5624 54.3554 82.9481 54.3554 82.216C54.3554 81.9231 54.3143 81.5838 54.234 81.2035C54.1518 80.8213 53.9858 80.4553 53.734 80.1053C53.4804 79.7553 53.1268 79.4624 52.6715 79.2267C52.2161 78.991 51.6125 78.8731 50.8643 78.8731L48.6679 78.8713Z" fill="white"/>
<path d="M39.8929 42.8572V39.2858H43.4643V35.7144H39.8929V32.1429H43.4643V28.5715H39.8929V25.0001H43.4643V21.4286H39.8929V17.8572H43.4643V14.2858H39.8929V10.7144H36.3214V14.2858H32.75V17.8572H36.3214V21.4286H32.75V25.0001H36.3214V28.5715H32.75V32.1429H36.3214V35.7144H32.75V39.2858H36.3214V42.8572H29.1786V51.7858C29.1786 56.709 33.1839 60.7144 38.1072 60.7144C43.0304 60.7144 47.0357 56.709 47.0357 51.7858V42.8572H39.8929ZM43.4643 51.7858C43.4643 54.7394 41.0607 57.1429 38.1072 57.1429C35.1536 57.1429 32.75 54.7394 32.75 51.7858V46.4286H43.4643V51.7858Z" fill="#C8BDB8"/>
<path d="M36.3215 53.5714H39.8929C40.8786 53.5714 41.6786 52.7732 41.6786 51.7857C41.6786 50.7982 40.8786 50 39.8929 50H36.3215C35.3358 50 34.5358 50.7982 34.5358 51.7857C34.5358 52.7732 35.3358 53.5714 36.3215 53.5714Z" fill="#C8BDB8"/>
</svg>
