<svg viewBox="0 0 23 23" fill="none" xmlns="http://www.w3.org/2000/svg">
<path d="M6.41667 16.625H15.75C15.9979 16.625 16.2057 16.5411 16.3733 16.3733C16.5411 16.2055 16.625 15.9976 16.625 15.7497C16.625 15.5016 16.5411 15.2938 16.3733 15.1264C16.2057 14.9588 15.9979 14.875 15.75 14.875H6.41667C6.16875 14.875 5.96099 14.9589 5.79338 15.1267C5.62557 15.2945 5.54167 15.5024 5.54167 15.7503C5.54167 15.9984 5.62557 16.2062 5.79338 16.3736C5.96099 16.5412 6.16875 16.625 6.41667 16.625ZM10.2083 9.64308L8.66483 8.11738C8.50325 7.95579 8.30317 7.87315 8.06458 7.86946C7.826 7.86576 7.61542 7.95521 7.43283 8.13779C7.26542 8.30521 7.18171 8.50928 7.18171 8.75C7.18171 8.99072 7.2662 9.19567 7.43517 9.36483L10.3451 12.2748C10.5561 12.4856 10.8022 12.591 11.0833 12.591C11.3645 12.591 11.6106 12.4856 11.8215 12.2748L14.7315 9.36483C14.8929 9.20325 14.9784 9.00317 14.9882 8.76458C14.9979 8.526 14.9115 8.31542 14.7289 8.13283C14.5615 7.96542 14.3604 7.87869 14.1257 7.87267C13.8908 7.86683 13.6829 7.9484 13.5018 8.11738L11.9583 9.64308V5.25C11.9583 5.00208 11.8744 4.79432 11.7066 4.62671C11.5388 4.4589 11.331 4.375 11.083 4.375C10.8349 4.375 10.6272 4.4589 10.4598 4.62671C10.2921 4.79432 10.2083 5.00208 10.2083 5.25V9.64308ZM11.0854 22.1667C9.55238 22.1667 8.11144 21.8758 6.76258 21.294C5.41372 20.7122 4.24044 19.9227 3.24275 18.9254C2.24506 17.9281 1.45512 16.7553 0.872958 15.407C0.290986 14.0587 0 12.6182 0 11.0854C0 9.55238 0.290889 8.11144 0.872667 6.76258C1.45444 5.41372 2.24399 4.24044 3.24129 3.24275C4.2386 2.24506 5.41139 1.45512 6.75967 0.872958C8.10795 0.290986 9.54849 0 11.0813 0C12.6143 0 14.0552 0.290888 15.4041 0.872666C16.7529 1.45444 17.9262 2.24399 18.9239 3.24129C19.9216 4.2386 20.7115 5.41139 21.2937 6.75967C21.8757 8.10795 22.1667 9.54849 22.1667 11.0813C22.1667 12.6143 21.8758 14.0552 21.294 15.4041C20.7122 16.7529 19.9227 17.9262 18.9254 18.9239C17.9281 19.9216 16.7553 20.7115 15.407 21.2937C14.0587 21.8757 12.6182 22.1667 11.0854 22.1667ZM11.0833 20.4167C13.6889 20.4167 15.8958 19.5125 17.7042 17.7042C19.5125 15.8958 20.4167 13.6889 20.4167 11.0833C20.4167 8.47778 19.5125 6.27083 17.7042 4.4625C15.8958 2.65417 13.6889 1.75 11.0833 1.75C8.47778 1.75 6.27083 2.65417 4.4625 4.4625C2.65417 6.27083 1.75 8.47778 1.75 11.0833C1.75 13.6889 2.65417 15.8958 4.4625 17.7042C6.27083 19.5125 8.47778 20.4167 11.0833 20.4167Z" fill="currentColor"/>
</svg>
