<svg width="50" height="68" viewBox="0 0 50 68" fill="none" xmlns="http://www.w3.org/2000/svg">
<path d="M49.2469 18.6203V63.6172C49.2469 66.0344 47.2812 68 44.8641 68H4.3828C1.9656 68 0 66.0344 0 63.6172V4.38281C0 1.96562 1.9656 0 4.3828 0H30.6266L49.2469 18.6203Z" fill="#518FF5"/>
<path d="M12.0352 34.146H37.2164V36.9483H12.0352V34.146Z" fill="white"/>
<path d="M12.0352 40.3882H37.2164V43.1905H12.0352V40.3882Z" fill="white"/>
<path d="M12.0352 46.6436H37.2164V49.4459H12.0352V46.6436Z" fill="white"/>
<path d="M12.0352 52.8857H29.9516V55.6881H12.0352V52.8857Z" fill="white"/>
<path opacity="0.19" d="M33.1641 17.9164L49.2477 30.9453V18.7L40.1367 13.4141L33.1641 17.9164Z" fill="black"/>
<path d="M49.2492 18.6203H35.0117C32.5945 18.6203 30.6289 16.6547 30.6289 14.2375V0L49.2492 18.6203Z" fill="#A6C5FA"/>
</svg>
