<svg  viewBox="0 0 12 12" fill="none" xmlns="http://www.w3.org/2000/svg">
<path d="M11.3 2.66825C11.3 3.78268 10.3966 4.6861 9.28214 4.6861C8.6376 4.6861 8.06363 4.38391 7.69421 3.91346L3.96717 5.77699C4.01188 5.94391 4.03571 6.11937 4.03571 6.30039C4.03571 6.48144 4.01187 6.65693 3.96715 6.82387L7.69416 8.68738C8.06358 8.2169 8.63757 7.91468 9.28214 7.91468C10.3966 7.91468 11.3 8.8181 11.3 9.93253C11.3 11.047 10.3966 11.9504 9.28214 11.9504C8.16771 11.9504 7.26429 11.047 7.26429 9.93253C7.26429 9.75151 7.28812 9.57605 7.33283 9.40913L3.60579 7.54561C3.23637 8.01605 2.6624 8.31825 2.01786 8.31825C0.903425 8.31825 0 7.41482 0 6.30039C0 5.18596 0.903425 4.28253 2.01786 4.28253C2.66243 4.28253 3.23642 4.58476 3.60584 5.05524L7.33285 3.19173C7.28813 3.02478 7.26429 2.8493 7.26429 2.66825C7.26429 1.55382 8.16771 0.650391 9.28214 0.650391C10.3966 0.650391 11.3 1.55382 11.3 2.66825Z" fill="currentColor"/>
</svg>
