<svg viewBox="0 0 17 17" fill="none" xmlns="http://www.w3.org/2000/svg">
<path d="M15.066 0.45459H1.43044C0.779778 0.45459 0.25 0.970145 0.25 1.60659V15.4021C0.25 16.0386 0.779778 16.5541 1.43044 16.5541H15.066C15.7202 16.5541 16.25 16.0386 16.25 15.4021V1.60659C16.25 0.970145 15.7202 0.45459 15.066 0.45459ZM5.09978 13.9337H2.682V6.66259H5.09978V13.9337ZM3.89089 5.66703H3.87667C3.066 5.66703 2.54333 5.10881 2.54333 4.41192C2.54333 3.69726 3.08378 3.15681 3.90867 3.15681C4.73711 3.15681 5.24556 3.70081 5.25978 4.41192C5.25978 5.10881 4.73356 5.66703 3.89089 5.66703ZM13.8144 13.9337H11.3967V10.0404C11.3967 9.06259 11.0482 8.3977 10.1736 8.3977C9.50511 8.3977 9.10689 8.8457 8.93267 9.28303C8.86867 9.43948 8.85444 9.65637 8.85444 9.87326V13.9337H6.43667C6.43667 13.9337 6.46867 7.34526 6.43667 6.66259H8.85444V7.69015C9.17444 7.19592 9.75044 6.48837 11.034 6.48837C12.6233 6.48837 13.8144 7.52659 13.8144 9.76303V13.9337Z" fill="currentColor"/>
</svg>
