<svg viewBox="0 0 24 24" fill="none" xmlns="http://www.w3.org/2000/svg">
<path d="M14 6.5C14 10.6421 10.6421 14 6.5 14C4.81159 14 3.25349 13.4421 2 12.5005V20.25C2 22.3211 3.67893 24 5.75 24H14V17.75C14 15.6789 15.6789 14 17.75 14H24V5.75C24 3.67893 22.3211 2 20.25 2H12.5005C13.4421 3.25349 14 4.81159 14 6.5ZM15.5607 24H15.5V17.75C15.5 16.5074 16.5074 15.5 17.75 15.5H24V15.5607L15.5607 24ZM6.5 13C10.0899 13 13 10.0899 13 6.5C13 2.91015 10.0899 0 6.5 0C2.91015 0 0 2.91015 0 6.5C0 10.0899 2.91015 13 6.5 13ZM6.5 2C6.77614 2 7 2.22386 7 2.5V6H10.5C10.7761 6 11 6.22386 11 6.5C11 6.77614 10.7761 7 10.5 7H7V10.5C7 10.7761 6.77614 11 6.5 11C6.22386 11 6 10.7761 6 10.5L6 7H2.5C2.22386 7 2 6.77614 2 6.5C2 6.22386 2.22386 6 2.5 6H6V2.5C6 2.22386 6.22386 2 6.5 2Z" fill="currentColor"/>
</svg>
