<svg  viewBox="0 0 25 25" fill="none" xmlns="http://www.w3.org/2000/svg">
<path d="M13.5 7C13.5 10.5899 10.5899 13.5 7 13.5C3.41015 13.5 0.5 10.5899 0.5 7C0.5 3.41015 3.41015 0.5 7 0.5C10.5899 0.5 13.5 3.41015 13.5 7ZM7.5 3C7.5 2.72386 7.27614 2.5 7 2.5C6.72386 2.5 6.5 2.72386 6.5 3V6.5H3C2.72386 6.5 2.5 6.72386 2.5 7C2.5 7.27614 2.72386 7.5 3 7.5H6.5L6.5 11C6.5 11.2761 6.72386 11.5 7 11.5C7.27614 11.5 7.5 11.2761 7.5 11V7.5H11C11.2761 7.5 11.5 7.27614 11.5 7C11.5 6.72386 11.2761 6.5 11 6.5H7.5V3ZM20.75 4H13.8759C13.642 3.4645 13.3473 2.96159 13.0005 2.5H20.75C22.8211 2.5 24.5 4.17893 24.5 6.25V14.7574C24.5 15.7519 24.1049 16.7057 23.4017 17.409L17.409 23.4016C16.7057 24.1049 15.7519 24.5 14.7574 24.5H6.25C4.17893 24.5 2.5 22.8211 2.5 20.75V13.0005C2.96159 13.3473 3.4645 13.642 4 13.8759V20.75C4 21.9926 5.00736 23 6.25 23H14.5V18.25C14.5 16.1789 16.1789 14.5 18.25 14.5H23V6.25C23 5.00736 21.9926 4 20.75 4ZM16 22.6257C16.1244 22.5433 16.2412 22.4481 16.3484 22.341L22.341 16.3483C22.4481 16.2412 22.5433 16.1244 22.6257 16H18.25C17.0074 16 16 17.0074 16 18.25V22.6257Z" fill="currentColor"/>
</svg>
