<svg width="75" height="80" viewBox="0 0 75 80" fill="none" xmlns="http://www.w3.org/2000/svg">
<path d="M37.1657 68.9811C54.7381 68.9811 68.9833 54.7359 68.9833 37.1635C68.9833 19.5912 54.7381 5.34595 37.1657 5.34595C19.5934 5.34595 5.34814 19.5912 5.34814 37.1635C5.34814 54.7359 19.5934 68.9811 37.1657 68.9811Z" fill="#F5F5F5"/>
<path d="M62.6989 56.1256C59.7315 52.1527 55.8783 48.9268 51.4456 46.7041C47.0129 44.4815 42.1229 43.3233 37.1641 43.3218C32.2054 43.3202 27.3146 44.4753 22.8805 46.6952C18.4465 48.9151 14.5913 52.1386 11.6213 56.1096C14.5762 60.1007 18.4251 63.3439 22.8594 65.5792C27.2938 67.8145 32.1902 68.9796 37.1561 68.9811C42.122 68.9827 47.0191 67.8206 51.4549 65.5881C55.8906 63.3557 59.7416 60.1148 62.6989 56.1256Z" fill="#E6E6E6"/>
<path d="M37.1658 39.2158C43.968 39.2158 49.4823 33.7016 49.4823 26.8994C49.4823 20.0972 43.968 14.5829 37.1658 14.5829C30.3636 14.5829 24.8494 20.0972 24.8494 26.8994C24.8494 33.7016 30.3636 39.2158 37.1658 39.2158Z" fill="#E6E6E6"/>
<circle cx="37.1655" cy="37.1658" r="36.6655" stroke="#EA0C0C" stroke-dasharray="2 2"/>
<g clip-path="url(#clip0_25984_4877)">
<path d="M43.7782 77.1125L38.3357 67.5225C38.2053 67.2933 38.0165 67.1027 37.7885 66.9701C37.5605 66.8375 37.3015 66.7677 37.0378 66.7677C36.7741 66.7677 36.5151 66.8375 36.2871 66.9701C36.0591 67.1027 35.8703 67.2933 35.7399 67.5225L30.2915 77.1125C30.1631 77.3397 30.0964 77.5967 30.0982 77.8578C30.1 78.1189 30.1702 78.3749 30.3018 78.6004C30.4334 78.8258 30.6219 79.0128 30.8483 79.1428C31.0748 79.2727 31.3313 79.341 31.5924 79.3408H42.4774C42.7385 79.341 42.995 79.2727 43.2215 79.1428C43.4479 79.0128 43.6363 78.8258 43.768 78.6004C43.8996 78.3749 43.9698 78.1189 43.9716 77.8578C43.9734 77.5967 43.9067 77.3397 43.7782 77.1125Z" fill="#EA0C0C"/>
<path d="M37.7117 77.1767C37.5526 77.3222 37.344 77.4015 37.1284 77.3983C36.914 77.4008 36.7062 77.3239 36.5451 77.1825C36.4596 77.1058 36.3923 77.011 36.3479 76.9051C36.3035 76.7992 36.2832 76.6847 36.2884 76.57C36.2876 76.4605 36.3087 76.352 36.3504 76.2507C36.3921 76.1495 36.4536 76.0576 36.5313 75.9804C36.609 75.9033 36.7013 75.8424 36.8029 75.8014C36.9044 75.7604 37.0131 75.7401 37.1226 75.7417C37.2307 75.7412 37.338 75.7621 37.4381 75.8031C37.5382 75.8442 37.6292 75.9046 37.7059 75.9808C37.7846 76.0561 37.8469 76.1467 37.8891 76.247C37.9312 76.3474 37.9523 76.4553 37.9509 76.5642C37.9579 76.6775 37.9402 76.791 37.8989 76.8968C37.8575 77.0026 37.7937 77.0981 37.7117 77.1767Z" fill="white"/>
<path d="M37.9334 71.6234L37.7176 74.0676C37.7138 74.3012 37.6683 74.5323 37.5834 74.7501C37.544 74.8367 37.4797 74.9096 37.3986 74.9595C37.3176 75.0094 37.2235 75.0339 37.1284 75.0301C37.0346 75.0348 36.9416 75.0112 36.8615 74.9623C36.7813 74.9134 36.7178 74.8415 36.6792 74.7559C36.5892 74.5265 36.536 74.2844 36.5217 74.0384L36.3642 71.6584C36.3351 71.1859 36.3176 70.8592 36.3176 70.6551C36.304 70.3996 36.3897 70.1488 36.5567 69.9551C36.6376 69.8701 36.7356 69.8033 36.8442 69.7591C36.9528 69.7148 37.0695 69.6941 37.1867 69.6984C37.3183 69.6916 37.4489 69.7247 37.5613 69.7934C37.6738 69.8621 37.7628 69.9632 37.8167 70.0834C37.932 70.3642 37.9838 70.6669 37.9684 70.9701C37.9675 71.1883 37.9559 71.4063 37.9334 71.6234Z" fill="white"/>
</g>
<defs>
<clipPath id="clip0_25984_4877">
<rect width="14" height="14" fill="white" transform="translate(30 66)"/>
</clipPath>
</defs>
</svg>
