
<svg viewBox="0 0 18 25" fill="none" xmlns="http://www.w3.org/2000/svg">
<path d="M3.40137 2C3.92008 1.1033 4.8896 0.5 6.00002 0.5H12.25C15.4257 0.5 18 3.07436 18 6.25V18.5C18 19.6104 17.3967 20.5799 16.5 21.0987V6.25C16.5 3.90279 14.5972 2 12.25 2H3.40137ZM3 3.5C1.34315 3.5 0 4.84315 0 6.5V23.75C0 24.0266 0.152238 24.2807 0.396107 24.4113C0.639975 24.5418 0.935883 24.5275 1.16603 24.374L7.5 20.1514L13.834 24.374C14.0641 24.5275 14.36 24.5418 14.6039 24.4113C14.8478 24.2807 15 24.0266 15 23.75V6.5C15 4.84315 13.6569 3.5 12 3.5H3ZM1.5 6.5C1.5 5.67157 2.17157 5 3 5H12C12.8284 5 13.5 5.67157 13.5 6.5V22.3486L7.91603 18.626C7.6641 18.458 7.3359 18.458 7.08397 18.626L1.5 22.3486V6.5Z" fill="currentColor"/>
</svg>
