
<svg viewBox="0 0 18 24" fill="none" xmlns="http://www.w3.org/2000/svg">
<path d="M3.40137 1.5C3.92008 0.603298 4.8896 0 6.00002 0H12.75C15.6495 0 18 2.3505 18 5.25V18C18 19.1104 17.3967 20.0799 16.5 20.5987V5.25C16.5 3.17893 14.8211 1.5 12.75 1.5H3.40137ZM0 6C0 4.34315 1.34315 3 3 3H12C13.6569 3 15 4.34315 15 6V23.25C15 23.5266 14.8478 23.7807 14.6039 23.9113C14.36 24.0418 14.0641 24.0275 13.834 23.874L7.5 19.6514L1.16603 23.874C0.935883 24.0275 0.639975 24.0418 0.396107 23.9113C0.152238 23.7807 0 23.5266 0 23.25V6Z" fill="currentColor"/>
</svg>
