<svg viewBox="0 0 24 24" fill="none" xmlns="http://www.w3.org/2000/svg">
<path d="M0 2.75C0 1.23122 1.23122 0 2.75 0H19.25C20.7688 0 22 1.23122 22 2.75V11.4995C21.5384 11.1527 21.0355 10.858 20.5 10.6241V2.75C20.5 2.05964 19.9404 1.5 19.25 1.5H2.75C2.05964 1.5 1.5 2.05964 1.5 2.75V19.25C1.5 19.9404 2.05964 20.5 2.75 20.5H10.6241C10.858 21.0355 11.1527 21.5384 11.4995 22H2.75C1.23122 22 0 20.7688 0 19.25V2.75ZM3.75 12.9981L11.5009 12.9981C11.154 13.4596 10.8591 13.9625 10.6249 14.4981L3.75 14.4981C3.33579 14.4981 3 14.1623 3 13.7481C3 13.3339 3.33579 12.9981 3.75 12.9981ZM3 17.7511C3 17.3369 3.33579 17.0011 3.75 17.0011L9.25231 17.0011C9.66653 17.0011 10.0023 17.3369 10.0023 17.7511C10.0023 18.1653 9.66652 18.5011 9.25231 18.5011L3.75 18.5011C3.33578 18.5011 3 18.1653 3 17.7511ZM8.50167 2.99966C8.803 2.99972 9.07504 3.18012 9.19235 3.45768L11.9408 9.96057C12.1021 10.3421 11.9235 10.7821 11.542 10.9434C11.1605 11.1046 10.7204 10.9261 10.5592 10.5445L10.1184 9.50171H6.88208L6.44073 10.5448C6.27932 10.9263 5.83923 11.1047 5.45775 10.9433C5.07628 10.7819 4.89789 10.3418 5.0593 9.96029L7.81081 3.45741C7.92823 3.1799 8.20034 2.9996 8.50167 2.99966ZM7.51677 8.00171H9.48444L8.50114 5.67524L7.51677 8.00171ZM14.75 2.99991C15.1642 2.99991 15.5 3.33569 15.5 3.74991V5H16.7501C17.1643 5 17.5001 5.33579 17.5001 5.75C17.5001 6.16421 17.1643 6.5 16.7501 6.5H15.5V7.7476C15.5 8.16181 15.1642 8.4976 14.75 8.4976C14.3358 8.4976 14 8.16181 14 7.7476V6.5H12.7524C12.3382 6.5 12.0024 6.16421 12.0024 5.75C12.0024 5.33579 12.3382 5 12.7524 5H14V3.74991C14 3.33569 14.3358 2.99991 14.75 2.99991ZM24 17.5C24 21.0899 21.0899 24 17.5 24C13.9101 24 11 21.0899 11 17.5C11 13.9101 13.9101 11 17.5 11C21.0899 11 24 13.9101 24 17.5ZM18 13.5C18 13.2239 17.7761 13 17.5 13C17.2239 13 17 13.2239 17 13.5V17H13.5C13.2239 17 13 17.2239 13 17.5C13 17.7761 13.2239 18 13.5 18H17V21.5C17 21.7761 17.2239 22 17.5 22C17.7761 22 18 21.7761 18 21.5V18H21.5C21.7761 18 22 17.7761 22 17.5C22 17.2239 21.7761 17 21.5 17H18V13.5Z" fill="currentColor"/>
</svg>
