<svg viewBox="0 0 24 24" fill="none" xmlns="http://www.w3.org/2000/svg">
<path d="M9.48438 8.00171H7.5167L8.50108 5.67524L9.48438 8.00171ZM0 2.75C0 1.23122 1.23122 0 2.75 0H19.25C20.7688 0 22 1.23122 22 2.75V11.5372C20.7381 10.5728 19.161 10 17.4502 10C14.9973 10 12.8195 11.1775 11.4511 12.9981L4.2251 12.9981C3.81088 12.9981 3.4751 13.3339 3.4751 13.7481C3.4751 14.1623 3.81089 14.4981 4.2251 14.4981L10.5751 14.4981C10.1732 15.4173 9.9502 16.4326 9.9502 17.5C9.9502 19.1884 10.5081 20.7465 11.4496 22H2.75C1.23122 22 0 20.7688 0 19.25V2.75ZM9.19229 3.45768C9.07498 3.18012 8.80294 2.99972 8.50161 2.99966C8.20028 2.99961 7.92817 3.1799 7.81075 3.45741L5.05924 9.96029C4.89783 10.3418 5.07622 10.7819 5.45769 10.9433C5.83916 11.1047 6.27926 10.9263 6.44066 10.5448L6.88202 9.50171H10.1184L10.5591 10.5445C10.7204 10.9261 11.1604 11.1046 11.5419 10.9434C11.9235 10.7821 12.102 10.3421 11.9408 9.96057L9.19229 3.45768ZM3.4751 17.7511C3.4751 18.1653 3.81088 18.5011 4.22509 18.5011L8.7505 18.5012C9.16471 18.5012 9.5005 18.1654 9.5005 17.7512C9.5005 17.3369 9.16472 17.0012 8.75051 17.0012L4.2251 17.0011C3.81089 17.0011 3.4751 17.3369 3.4751 17.7511ZM15.5 3.74991C15.5 3.3357 15.1642 2.99991 14.75 2.99991C14.3358 2.99991 14 3.3357 14 3.74991V5H12.7523C12.3381 5 12.0023 5.33579 12.0023 5.75C12.0023 6.16421 12.3381 6.5 12.7523 6.5H14V7.7476C14 8.16181 14.3358 8.4976 14.75 8.4976C15.1642 8.4976 15.5 8.16181 15.5 7.7476V6.5H16.75C17.1642 6.5 17.5 6.16421 17.5 5.75C17.5 5.33579 17.1642 5 16.75 5H15.5V3.74991ZM23.9502 17.5C23.9502 21.0899 21.04 24 17.4502 24C13.8603 24 10.9502 21.0899 10.9502 17.5C10.9502 13.9101 13.8603 11 17.4502 11C21.04 11 23.9502 13.9101 23.9502 17.5ZM17.9502 13.5C17.9502 13.2239 17.7263 13 17.4502 13C17.1741 13 16.9502 13.2239 16.9502 13.5V17H13.4502C13.1741 17 12.9502 17.2239 12.9502 17.5C12.9502 17.7761 13.1741 18 13.4502 18H16.9502V21.5C16.9502 21.7761 17.1741 22 17.4502 22C17.7263 22 17.9502 21.7761 17.9502 21.5V18H21.4502C21.7263 18 21.9502 17.7761 21.9502 17.5C21.9502 17.2239 21.7263 17 21.4502 17H17.9502V13.5Z" fill="currentColor"/>
</svg>
