<svg viewBox="0 0 35 32" fill="none" xmlns="http://www.w3.org/2000/svg">
<g opacity="0.4">
<path d="M27.8445 26.8452C27.8445 29.5919 23.0144 31.8185 17.0563 31.8185C11.0981 31.8185 6.26807 29.5919 6.26807 26.8452C6.26807 24.0986 11.0981 21.8719 17.0563 21.8719C23.0144 21.8719 27.8445 24.0986 27.8445 26.8452Z" fill="url(#paint0_linear_50_293)"/>
<path d="M34.1122 19.6167C34.1674 22.9242 30.7663 23.9333 30.7663 23.9333L28.8992 14.744C28.8992 14.744 29.23 14.7128 29.7285 14.7608C30.9917 14.883 33.3262 15.5253 33.9828 18.5262C34.0668 18.9144 34.1099 19.2763 34.1122 19.6167Z" fill="url(#paint1_linear_50_293)"/>
<g style="mix-blend-mode:lighten">
<path d="M34.112 19.6163C32.4223 19.324 30.5335 18.1783 29.7283 14.7604C30.9914 14.8827 33.3259 15.525 33.9826 18.5258C34.0666 18.914 34.1096 19.276 34.112 19.6163Z" fill="#787878"/>
</g>
<path d="M0.000662793 19.6167C-0.0544564 22.9242 3.34664 23.9333 3.34664 23.9333L5.21374 14.744C5.21374 14.744 4.88287 14.7128 4.38441 14.7608C3.12126 14.883 0.786754 15.5253 0.130069 18.5262C0.0461268 18.9144 0.0030409 19.2763 0.000662793 19.6167Z" fill="url(#paint2_linear_50_293)"/>
<g style="mix-blend-mode:lighten">
<path d="M0.000976562 19.6163C1.69068 19.324 3.57947 18.1783 4.38473 14.7604C3.12157 14.8827 0.787068 15.525 0.130383 18.5258C0.0464405 18.914 0.00335467 19.276 0.000976562 19.6163Z" fill="#787878"/>
</g>
<path d="M30.9974 24.375C30.7939 22.1607 30.3869 17.2375 29.064 14.3406C27.7412 11.4438 23.3656 8.49908 17.0565 8.49908C10.7474 8.49908 6.37184 11.4438 5.04896 14.3406C3.72608 17.2375 3.31914 22.1607 3.1156 24.375C2.91205 26.5893 4.33671 30.0479 17.0565 30.0479C29.7763 30.0479 31.201 26.5893 30.9974 24.375Z" fill="url(#paint3_linear_50_293)"/>
<path d="M17.0563 30.1678C16.9902 30.1678 16.9365 30.114 16.9365 30.0479V11.175C16.9365 11.1089 16.9902 11.0552 17.0563 11.0552C17.1224 11.0552 17.1762 11.1089 17.1762 11.175V30.0479C17.1762 30.114 17.1224 30.1678 17.0563 30.1678Z" fill="white"/>
<g style="mix-blend-mode:multiply">
<path d="M27.4461 16.2205C27.0495 15.0017 26.0797 14.1245 24.9232 13.9273C22.8589 13.5755 19.4384 13.0619 17.0563 13.0619C14.6743 13.0619 11.2537 13.5755 9.18947 13.9273C8.03299 14.1245 7.06312 15.0017 6.66658 16.2205C6.08047 18.0218 5.31815 20.9732 5.05636 24.7182C4.96098 26.0833 5.78035 27.3286 6.98452 27.6402C9.36776 28.2568 12.6307 28.6939 17.0563 28.6939C21.482 28.6939 24.7449 28.2568 27.1281 27.6402C28.3323 27.3286 29.1517 26.0833 29.0563 24.7182C28.7945 20.9732 28.0322 18.0218 27.4461 16.2205Z" fill="#787878"/>
</g>
<path d="M26.7714 16.5912C26.4006 15.4692 25.4937 14.6617 24.4124 14.4803C22.4823 14.1564 19.2838 13.6838 17.0565 13.6838C14.8291 13.6838 11.6306 14.1564 9.70054 14.4803C8.61923 14.6617 7.71235 15.4692 7.34152 16.5912C6.79344 18.2492 6.08074 20.9659 5.8359 24.413C5.74675 25.6695 6.51294 26.8159 7.63881 27.1026C9.86724 27.6701 12.9183 28.0725 17.0565 28.0725C21.1946 28.0725 24.2457 27.6701 26.4741 27.1026C27.6 26.8159 28.3662 25.6695 28.277 24.413C28.0322 20.9659 27.3195 18.2492 26.7714 16.5912Z" fill="url(#paint4_radial_50_293)"/>
<path d="M12.5742 11.8101C12.3139 11.8101 12.0936 11.7798 11.9189 11.7049C11.0524 11.3335 10.2489 9.9096 10.2152 9.84928C10.183 9.79148 10.2035 9.71854 10.2613 9.6863C10.3189 9.65376 10.3919 9.67426 10.4242 9.73235C10.4323 9.74647 11.2218 11.1453 12.0132 11.4845C12.4414 11.6679 13.3086 11.5238 14.313 11.3568C15.1637 11.2154 16.1279 11.0554 17.0565 11.0554C17.9849 11.0554 18.9493 11.2154 19.8 11.3568C20.8046 11.5238 21.6718 11.6673 22.0997 11.4845C22.8912 11.1453 23.6805 9.74647 23.6886 9.73235C23.7208 9.67426 23.7939 9.65346 23.8515 9.6863C23.9093 9.71854 23.9301 9.79148 23.8977 9.84928C23.864 9.9096 23.0605 11.3335 22.1941 11.7049C21.702 11.9159 20.8453 11.7734 19.7606 11.5934C18.9191 11.4534 17.9651 11.295 17.0565 11.295C16.1477 11.295 15.1938 11.4534 14.3522 11.5934C13.6524 11.7095 13.0477 11.8101 12.5742 11.8101Z" fill="white"/>
<path d="M20.295 8.09292V8.77352C20.295 8.77352 19.0964 9.31759 17.0568 9.31759C15.0173 9.31759 14.1328 8.72078 14.1328 8.72078V8.09292C14.1328 7.96114 14.1759 7.83648 14.2526 7.73575C14.3029 7.66384 14.3701 7.60382 14.4515 7.56074C14.8877 7.3306 15.7866 6.98071 17.2151 6.98071C18.6436 6.98071 19.5399 7.3306 19.9761 7.56074C20.0911 7.62299 20.1798 7.71659 20.2349 7.8292C20.2733 7.91077 20.295 7.99947 20.295 8.09292Z" fill="url(#paint5_linear_50_293)"/>
<g style="mix-blend-mode:lighten">
<path d="M20.2351 7.82884C19.4274 8.03253 18.459 8.15005 17.4189 8.15005C16.2253 8.15005 15.1251 7.9942 14.2527 7.73539C14.3031 7.66348 14.3702 7.60346 14.4516 7.56037C14.8878 7.33023 15.7867 6.98035 17.2152 6.98035C18.6437 6.98035 19.54 7.33023 19.9763 7.56037C20.0912 7.62262 20.1799 7.71622 20.2351 7.82884Z" fill="#787878"/>
</g>
<path d="M23.0848 15.9255H11.0282V15.2563H23.0848V15.9255ZM24.4056 16.4161H9.7074V17.0851H24.4056V16.4161ZM25.5164 17.5519H8.59653V18.2209H25.5164V17.5519ZM26.2207 18.7115H7.8923V19.3807H26.2207V18.7115ZM26.7136 19.8713H7.39934V20.5403H26.7136V19.8713ZM27.1362 21.031H6.97681V21.7H27.1362V21.031ZM27.1362 22.1669H6.97681V22.8359H27.1362V22.1669ZM26.7136 23.3265H7.39934V23.9955H26.7136V23.3265ZM25.9625 24.4663H8.15052V25.1353H25.9625V24.4663ZM24.5773 25.626H9.53565V26.2951H24.5773V25.626ZM21.3848 26.7619H12.7282V27.4309H21.3848V26.7619Z" fill="url(#paint6_radial_50_293)"/>
<path fill-rule="evenodd" clip-rule="evenodd" d="M18.5808 1.59009C18.6686 1.66941 18.6755 1.80491 18.5962 1.89275C18.2825 2.24016 18.0448 2.75902 17.8691 3.36299C17.6944 3.96347 17.5863 4.62914 17.5203 5.25341C17.4544 5.87687 17.431 6.45394 17.4242 6.8754C17.4208 7.08597 17.4215 7.2573 17.423 7.37568C17.4238 7.43487 17.4248 7.48079 17.4256 7.51174C17.426 7.52721 17.4263 7.53893 17.4266 7.5467L17.4268 7.55535L17.4269 7.5574L17.4269 7.55784C17.4269 7.55785 17.4269 7.55783 17.4269 7.55784M18.5808 1.59009C18.4929 1.51078 18.3574 1.51769 18.2781 1.60553ZM18.2781 1.60553C17.9014 2.02274 17.6409 2.61326 17.4576 3.24326ZM17.4576 3.24326C17.2733 3.87676 17.1616 4.56966 17.0941 5.20837ZM17.0941 5.20837C17.0265 5.8479 17.0026 6.43824 16.9957 6.86844ZM16.9957 6.86844C16.9922 7.08371 16.9929 7.25927 16.9945 7.38132ZM16.9945 7.38132C16.9953 7.44236 16.9963 7.49004 16.9972 7.52264ZM16.9972 7.52264C16.9976 7.53894 16.9979 7.55148 16.9982 7.56003ZM16.9982 7.56003L16.9985 7.56984ZM16.9985 7.56984L16.9986 7.57246ZM16.9986 7.57246L16.9986 7.57319ZM16.9986 7.57319C16.9986 7.57326 16.9986 7.57352 17.2128 7.56571Z" fill="black"/>
<path d="M20.0549 1.79928C20.0549 2.10608 19.9686 2.39134 19.8177 2.63574C19.5372 3.10552 19.0244 3.41708 18.4371 3.41708C17.5432 3.41708 16.8193 2.69324 16.8193 1.79928C16.8193 1.23843 17.1046 0.744723 17.5384 0.45471C17.7949 0.282071 18.104 0.181488 18.4371 0.181488C19.3311 0.181488 20.0549 0.905328 20.0549 1.79928Z" fill="url(#paint7_linear_50_293)"/>
<g style="mix-blend-mode:lighten">
<path d="M20.0548 1.79925C20.0548 2.10605 19.9685 2.39131 19.8176 2.63571C19.796 2.63809 19.7769 2.63809 19.7553 2.63809C18.5425 2.63809 17.5575 1.66509 17.5383 0.45468C17.7948 0.282041 18.1039 0.181458 18.437 0.181458C19.331 0.181458 20.0548 0.905298 20.0548 1.79925Z" fill="#787878"/>
</g>
<path fill-rule="evenodd" clip-rule="evenodd" d="M10.1873 21.2676C9.98504 21.5632 9.85073 21.9875 9.85073 22.47C9.85073 22.9525 9.98504 23.3767 10.1873 23.6724C10.3906 23.9695 10.6421 24.113 10.8846 24.113C11.1272 24.113 11.3787 23.9695 11.5819 23.6724C11.7842 23.3767 11.9185 22.9525 11.9185 22.47C11.9185 21.9875 11.7842 21.5632 11.5819 21.2676C11.3787 20.9706 11.1272 20.8271 10.8846 20.8271C10.6421 20.8271 10.3906 20.9706 10.1873 21.2676ZM9.71574 20.9449C9.99013 20.5439 10.3984 20.2556 10.8846 20.2556C11.3708 20.2556 11.7791 20.5439 12.0535 20.9449C12.3288 21.3473 12.4899 21.8873 12.4899 22.47C12.4899 23.0526 12.3288 23.5927 12.0535 23.9951C11.7791 24.3961 11.3708 24.6844 10.8846 24.6844C10.3984 24.6844 9.99011 24.3961 9.71573 23.9951C9.44041 23.5927 9.2793 23.0526 9.2793 22.47C9.2793 21.8873 9.44041 21.3473 9.71574 20.9449ZM21.7616 20.9449C22.036 20.5439 22.4443 20.2556 22.9305 20.2556C23.4167 20.2556 23.825 20.5439 24.0994 20.9449C24.3747 21.3473 24.5358 21.8873 24.5358 22.47C24.5358 23.0526 24.3747 23.5927 24.0994 23.9951C23.825 24.3961 23.4167 24.6844 22.9305 24.6844C22.4443 24.6844 22.036 24.3961 21.7616 23.9951C21.4863 23.5927 21.3252 23.0526 21.3252 22.47C21.3252 21.8873 21.4863 21.3473 21.7616 20.9449ZM22.2332 21.2676C22.0309 21.5632 21.8966 21.9875 21.8966 22.47C21.8966 22.9525 22.0309 23.3767 22.2332 23.6724C22.4365 23.9695 22.688 24.113 22.9305 24.113C23.173 24.113 23.4245 23.9695 23.6278 23.6724C23.8301 23.3767 23.9644 22.9525 23.9644 22.47C23.9644 21.9875 23.8301 21.5632 23.6278 21.2676C23.4246 20.9706 23.1731 20.8271 22.9305 20.8271C22.6879 20.8271 22.4364 20.9706 22.2332 21.2676Z" fill="black"/>
<path d="M12.2044 22.4699C12.2044 23.535 11.6135 24.3987 10.8848 24.3987C10.1561 24.3987 9.56519 23.535 9.56519 22.4699C9.56519 21.4048 10.1561 20.5413 10.8848 20.5413C11.6135 20.5413 12.2044 21.4048 12.2044 22.4699ZM21.6111 22.4699C21.6111 23.535 22.2019 24.3987 22.9307 24.3987C23.6594 24.3987 24.2503 23.535 24.2503 22.4699C24.2503 21.4048 23.6594 20.5413 22.9307 20.5413C22.2019 20.5413 21.6111 21.4048 21.6111 22.4699Z" fill="black"/>
<path d="M15.5083 25.1245C15.457 24.991 15.2924 24.9035 15.2483 25.0395C15.239 25.0683 15.2354 25.0993 15.2388 25.131C15.3049 25.7528 15.6731 26.6995 16.9075 26.6995C18.142 26.6995 18.5102 25.7528 18.5763 25.131C18.5796 25.1002 18.5763 25.07 18.5675 25.042C18.5247 24.9044 18.3587 24.9928 18.3087 25.1279C17.7323 26.6833 16.087 26.6281 15.5083 25.1245Z" fill="#787878"/>
</g>
<defs>
<linearGradient id="paint0_linear_50_293" x1="6.35914" y1="26.895" x2="27.9356" y2="26.895" gradientUnits="userSpaceOnUse">
<stop/>
<stop offset="0.5"/>
<stop offset="1"/>
</linearGradient>
<linearGradient id="paint1_linear_50_293" x1="27.7535" y1="16.0495" x2="33.6942" y2="21.9901" gradientUnits="userSpaceOnUse">
<stop/>
<stop offset="0.5"/>
<stop offset="1"/>
</linearGradient>
<linearGradient id="paint2_linear_50_293" x1="-79.2943" y1="16.0495" x2="-85.2348" y2="10.1088" gradientUnits="userSpaceOnUse">
<stop/>
<stop offset="0.5" stop-color="white"/>
<stop offset="1" stop-color="white"/>
</linearGradient>
<linearGradient id="paint3_linear_50_293" x1="7.54793" y1="11.4436" x2="26.7344" y2="30.6301" gradientUnits="userSpaceOnUse">
<stop stop-color="#787878"/>
<stop offset="0.5" stop-color="#787878"/>
<stop offset="1" stop-color="#787878"/>
</linearGradient>
<radialGradient id="paint4_radial_50_293" cx="0" cy="0" r="1" gradientUnits="userSpaceOnUse" gradientTransform="translate(17.205 20.9523) scale(9.42924)">
<stop stop-color="white"/>
<stop offset="0.5" stop-color="white"/>
<stop offset="1" stop-color="white"/>
</radialGradient>
<linearGradient id="paint5_linear_50_293" x1="14.2337" y1="8.17508" x2="20.3958" y2="8.17508" gradientUnits="userSpaceOnUse">
<stop/>
<stop offset="0.5"/>
<stop offset="1"/>
</linearGradient>
<radialGradient id="paint6_radial_50_293" cx="0" cy="0" r="1" gradientUnits="userSpaceOnUse" gradientTransform="translate(17.2051 21.398) scale(8.32624 8.32624)">
<stop stop-color="white" stop-opacity="0.2"/>
<stop offset="0.41" stop-color="white" stop-opacity="0.1"/>
<stop offset="1" stop-color="white" stop-opacity="0"/>
</radialGradient>
<linearGradient id="paint7_linear_50_293" x1="16.9077" y1="1.93537" x2="20.1433" y2="1.93537" gradientUnits="userSpaceOnUse">
<stop/>
<stop offset="0.5"/>
<stop offset="1"/>
</linearGradient>
</defs>
</svg>
