<svg  viewBox="0 0 29 29" fill="none" xmlns="http://www.w3.org/2000/svg">
<path d="M11.5797 4.57307C9.6077 3.63155 6.85136 3.17034 3.16114 3.15397C2.81312 3.14924 2.47192 3.25072 2.18305 3.44488C1.94595 3.60515 1.75186 3.82122 1.61785 4.0741C1.48384 4.32698 1.41404 4.60891 1.41455 4.8951V20.5107C1.41455 21.5663 2.16559 22.3626 3.16114 22.3626C7.04021 22.3626 10.9313 22.725 13.2619 24.9279C13.2938 24.9582 13.3338 24.9784 13.3771 24.9861C13.4204 24.9938 13.465 24.9886 13.5054 24.9712C13.5457 24.9537 13.58 24.9248 13.6041 24.888C13.6282 24.8512 13.6409 24.8081 13.6407 24.7642V6.36441C13.6408 6.2403 13.6142 6.11755 13.5628 6.00456C13.5114 5.89157 13.4363 5.79093 13.3427 5.70944C12.8088 5.25306 12.2158 4.87081 11.5797 4.57307Z" fill="currentColor"/>
<path d="M26.8448 3.44329C26.5558 3.24961 26.2146 3.14869 25.8667 3.15401C22.1765 3.17038 19.4202 3.62941 17.4482 4.57311C16.8121 4.87032 16.2189 5.25181 15.6847 5.7073C15.5912 5.78893 15.5163 5.88961 15.465 6.00259C15.4137 6.11557 15.3872 6.23821 15.3872 6.36227V24.7631C15.3872 24.8054 15.3996 24.8467 15.423 24.8819C15.4464 24.9171 15.4796 24.9446 15.5185 24.961C15.5574 24.9774 15.6004 24.9819 15.6419 24.974C15.6834 24.9661 15.7216 24.9461 15.7518 24.9165C17.1529 23.5247 19.6118 22.361 25.8689 22.3616C26.3321 22.3616 26.7764 22.1776 27.1039 21.85C27.4315 21.5224 27.6155 21.0782 27.6155 20.615V4.89568C27.6162 4.60893 27.5462 4.32643 27.4118 4.07313C27.2773 3.81982 27.0826 3.60351 26.8448 3.44329Z" fill="currentColor"/>
</svg>
