<svg  viewBox="0 0 27 23" fill="none" xmlns="http://www.w3.org/2000/svg">
<path fill-rule="evenodd" clip-rule="evenodd" d="M2.15675 1.90041C5.69595 1.9166 8.16289 2.36153 9.82215 3.15431C11.4315 3.92319 12.2933 5.0218 12.663 6.48135C12.7612 6.86882 13.1099 7.14019 13.5096 7.14019C13.9093 7.14019 14.258 6.86882 14.3561 6.48135C14.7259 5.0218 15.5877 3.92319 17.197 3.15431C18.8563 2.36153 21.3232 1.91659 24.8624 1.9004V17.6197C18.559 17.6197 15.4632 18.7496 13.5095 20.6811C11.5626 18.7585 8.46271 17.6217 2.17309 17.6197C2.16564 17.6004 2.15675 17.5665 2.15675 17.5144V1.90041ZM1.48937 0.285252C1.70206 0.197622 1.93001 0.152953 2.16005 0.153821H2.16067C5.80063 0.170146 8.5722 0.621399 10.5751 1.57834C11.8778 2.20075 12.8467 3.03407 13.5096 4.06767C14.1725 3.03407 15.1413 2.20075 16.4441 1.57834C18.447 0.621399 21.2185 0.170146 24.8585 0.153821H24.8591C25.0891 0.152953 25.3171 0.197622 25.5298 0.285252C25.7425 0.372887 25.9357 0.501747 26.0984 0.664409C26.261 0.827076 26.3899 1.02033 26.4776 1.23302C26.5649 1.44507 26.6096 1.67226 26.609 1.90159V17.6197C26.609 18.0829 26.425 18.5272 26.0974 18.8547C25.7699 19.1823 25.3256 19.3663 24.8624 19.3663C17.9795 19.3663 15.6133 20.7543 14.1915 22.5317C14.0258 22.7389 13.7747 22.8595 13.5094 22.8595C13.244 22.8594 12.9931 22.7387 12.8274 22.5314C11.4153 20.7645 9.03919 19.3663 2.15675 19.3663C1.62999 19.3663 1.16902 19.1432 0.852955 18.772C0.547903 18.4138 0.410162 17.959 0.410162 17.5144V1.90177C0.409551 1.67238 0.454215 1.44512 0.541604 1.23302C0.629234 1.02033 0.758099 0.827076 0.920761 0.664409C1.08343 0.501747 1.27668 0.372887 1.48937 0.285252Z" fill="currentColor"/>
<path fill-rule="evenodd" clip-rule="evenodd" d="M13.5095 5.39355C13.9918 5.39355 14.3828 5.78452 14.3828 6.26685V21.9861C14.3828 22.4684 13.9918 22.8594 13.5095 22.8594C13.0272 22.8594 12.6362 22.4684 12.6362 21.9861V6.26685C12.6362 5.78452 13.0272 5.39355 13.5095 5.39355Z" fill="currentColor"/>
</svg>
