<svg  viewBox="0 0 23 23" fill="none" xmlns="http://www.w3.org/2000/svg">
<path d="M8.35714 22.5H20.1429C21.4447 22.5 22.5 21.4447 22.5 20.1429V18.5714C22.5 17.2696 21.4447 16.2143 20.1429 16.2143H8.35714V22.5ZM8.35714 14.6429H20.1429C21.4447 14.6429 22.5 13.5875 22.5 12.2857V10.7143C22.5 9.41247 21.4447 8.35714 20.1429 8.35714H8.35714V14.6429ZM6.78571 8.35714V14.6429H2.85714C1.55533 14.6429 0.5 13.5875 0.5 12.2857V10.7143C0.5 9.41247 1.55533 8.35714 2.85714 8.35714H6.78571ZM8.35714 6.78571H20.1429C21.4447 6.78571 22.5 5.73039 22.5 4.42857V2.85714C22.5 1.55533 21.4447 0.5 20.1429 0.5H8.35714V6.78571ZM6.78571 0.5V6.78571H2.85714C1.55533 6.78571 0.5 5.73039 0.5 4.42857V2.85714C0.5 1.55533 1.55533 0.5 2.85714 0.5H6.78571ZM6.78571 16.2143V22.5H2.85714C1.55533 22.5 0.5 21.4447 0.5 20.1429V18.5714C0.5 17.2696 1.55533 16.2143 2.85714 16.2143H6.78571Z" fill="currentColor"/>
</svg>
