<svg viewBox="0 0 22 22" fill="none" xmlns="http://www.w3.org/2000/svg">
<path d="M3.14286 0C1.40711 0 0 1.40711 0 3.14286V4.71429C0 5.65297 0.411522 6.49554 1.064 7.07143C0.411522 7.64731 0 8.48988 0 9.42857V12.5714C0 13.5101 0.411522 14.3527 1.064 14.9286C0.411522 15.5045 0 16.347 0 17.2857V18.8571C0 20.5929 1.40711 22 3.14286 22H18.8571C20.5929 22 22 20.5929 22 18.8571V17.2857C22 16.347 21.5885 15.5045 20.936 14.9286C21.5885 14.3527 22 13.5101 22 12.5714V9.42857C22 8.48988 21.5885 7.64731 20.936 7.07143C21.5885 6.49554 22 5.65297 22 4.71429V3.14286C22 1.4071 20.5929 0 18.8571 0H3.14286ZM1.57143 17.2857C1.57143 16.4178 2.27498 15.7143 3.14286 15.7143H6.28571V20.4286H3.14286C2.27498 20.4286 1.57143 19.725 1.57143 18.8571V17.2857ZM7.85714 20.4286V15.7143H18.8571C19.725 15.7143 20.4286 16.4178 20.4286 17.2857V18.8571C20.4286 19.725 19.725 20.4286 18.8571 20.4286H7.85714ZM7.85714 14.1429V7.85714H18.8571C19.725 7.85714 20.4286 8.5607 20.4286 9.42857V12.5714C20.4286 13.4393 19.725 14.1429 18.8571 14.1429H7.85714ZM6.28571 7.85714V14.1429H3.14286C2.27498 14.1429 1.57143 13.4393 1.57143 12.5714V9.42857C1.57143 8.5607 2.27498 7.85714 3.14286 7.85714H6.28571ZM6.28571 6.28571H3.14286C2.27498 6.28571 1.57143 5.58216 1.57143 4.71429V3.14286C1.57143 2.27498 2.27498 1.57143 3.14286 1.57143H6.28571V6.28571ZM7.85714 6.28571V1.57143H18.8571C19.725 1.57143 20.4286 2.27498 20.4286 3.14286V4.71429C20.4286 5.58216 19.725 6.28571 18.8571 6.28571H7.85714Z" fill="currentColor"/>
</svg>
