<svg width="36" height="36" viewBox="0 0 36 36" fill="none" xmlns="http://www.w3.org/2000/svg">
<g clip-path="url(#clip0_25218_9810)">
<path d="M35.4375 30.375H34.5634C34.766 30.0346 34.8741 29.6462 34.8764 29.25V19.125C34.8757 18.5285 34.6384 17.9566 34.2166 17.5347C33.7948 17.1129 33.2229 16.8757 32.6264 16.875H19.6889C19.3924 16.875 19.0989 16.934 18.8254 17.0485C18.3713 16.9382 17.9061 16.88 17.4389 16.875H15.4701V16.4427C16.0472 16.0319 16.5368 15.5105 16.9105 14.9087C17.2842 14.3069 17.5345 13.6369 17.6469 12.9375H17.72C18.3165 12.9368 18.8884 12.6996 19.3102 12.2778C19.732 11.8559 19.9693 11.284 19.97 10.6875V8.15625C19.97 6.14226 19.1699 4.21076 17.7458 2.78666C16.3217 1.36255 14.3902 0.5625 12.3762 0.5625C10.3622 0.5625 8.43075 1.36255 7.00665 2.78666C5.58254 4.21076 4.78249 6.14226 4.78249 8.15625V10.6875C4.78317 11.284 5.02044 11.8559 5.44225 12.2777C5.86406 12.6995 6.43596 12.9368 7.03249 12.9375H7.10561C7.218 13.6369 7.46833 14.307 7.84205 14.9087C8.21576 15.5105 8.7054 16.0319 9.28249 16.4427V16.875H7.31374C5.67328 16.8769 4.10055 17.5294 2.94057 18.6893C1.78059 19.8493 1.1281 21.422 1.12624 23.0625V28.6875C1.12842 29.298 1.33115 29.8909 1.70325 30.375H0.5625C0.413316 30.375 0.270242 30.4343 0.164752 30.5398C0.0592632 30.6452 0 30.7883 0 30.9375L0 34.875C0 35.0242 0.0592632 35.1673 0.164752 35.2727C0.270242 35.3782 0.413316 35.4375 0.5625 35.4375H35.4375C35.5867 35.4375 35.7298 35.3782 35.8352 35.2727C35.9407 35.1673 36 35.0242 36 34.875V30.9375C36 30.7883 35.9407 30.6452 35.8352 30.5398C35.7298 30.4343 35.5867 30.375 35.4375 30.375ZM32.6264 18C32.9246 18.0003 33.2106 18.1189 33.4215 18.3298C33.6325 18.5407 33.7511 18.8267 33.7514 19.125V29.25C33.7511 29.5483 33.6325 29.8343 33.4215 30.0452C33.2106 30.2561 32.9246 30.3747 32.6264 30.375H18.5639V19.125C18.5641 18.8267 18.6828 18.5407 18.8937 18.3298C19.1046 18.1189 19.3906 18.0003 19.6889 18H32.6264ZM15.7123 30.375C15.6377 29.7799 15.4439 29.206 15.1425 28.6875H17.4389V30.375H15.7123ZM11.8138 27.6136C12.504 27.7309 13.1407 28.0595 13.6361 28.5542C14.1315 29.0488 14.4611 29.685 14.5794 30.375H11.8138V27.6136ZM17.7201 11.8125V9.5625C18.0185 9.5625 18.3046 9.68103 18.5156 9.892C18.7266 10.103 18.8451 10.3891 18.8451 10.6875C18.8451 10.9859 18.7266 11.272 18.5156 11.483C18.3046 11.694 18.0185 11.8125 17.7201 11.8125ZM12.3763 1.6875C14.0914 1.68939 15.7356 2.37153 16.9484 3.58424C18.1611 4.79696 18.8432 6.44121 18.8451 8.15625V8.75053C18.5047 8.54782 18.1163 8.43975 17.7201 8.4375H17.4339L15.4294 5.84364C15.3794 5.77897 15.316 5.72596 15.2434 5.68829C15.1709 5.65063 15.0911 5.62922 15.0094 5.62556C14.9278 5.6219 14.8463 5.63607 14.7707 5.66709C14.6951 5.69811 14.6272 5.74523 14.5716 5.80517C13.8008 6.63425 12.8676 7.29581 11.83 7.74868C10.7925 8.20154 9.67284 8.43601 8.54078 8.4375H7.0326C6.63641 8.43977 6.24802 8.54784 5.9076 8.75053V8.15625C5.90951 6.44122 6.59164 4.79697 7.80436 3.58426C9.01707 2.37154 10.6613 1.68941 12.3763 1.6875ZM5.9076 10.6875C5.9079 10.3892 6.02652 10.1032 6.23743 9.89233C6.44835 9.68142 6.73432 9.5628 7.0326 9.5625V11.8125C6.73432 11.8122 6.44835 11.6936 6.23743 11.4827C6.02652 11.2718 5.9079 10.9858 5.9076 10.6875ZM8.1576 12.0938V9.5625H8.54078C10.9133 9.55916 13.1965 8.65717 14.9308 7.03811L16.5952 9.19198V12.0938C16.5952 13.2126 16.1507 14.2857 15.3595 15.0769C14.5683 15.868 13.4953 16.3125 12.3764 16.3125C11.2575 16.3125 10.1845 15.868 9.3933 15.0769C8.60213 14.2857 8.1576 13.2126 8.1576 12.0938ZM12.3763 17.4375C13.0508 17.4369 13.719 17.3077 14.3451 17.057V17.7188C14.3451 18.2409 14.1377 18.7417 13.7685 19.1109C13.3993 19.4801 12.8985 19.6875 12.3763 19.6875C11.8542 19.6875 11.3534 19.4801 10.9842 19.1109C10.615 18.7417 10.4076 18.2409 10.4076 17.7188V17.057C11.0337 17.3077 11.7019 17.4369 12.3763 17.4375ZM2.25135 28.6875V23.0625C2.25284 21.7203 2.78669 20.4335 3.73577 19.4844C4.68485 18.5353 5.97165 18.0015 7.31385 18H9.29689C9.36671 18.7685 9.72135 19.4831 10.2911 20.0035C10.8609 20.5239 11.6047 20.8124 12.3764 20.8124C13.148 20.8124 13.8918 20.5239 14.4616 20.0035C15.0314 19.4831 15.386 18.7685 15.4559 18H17.4389C17.5384 18 17.64 18.0145 17.7405 18.0209C17.5453 18.3563 17.4413 18.7369 17.4389 19.125V27.5625H14.2179C13.3995 26.8379 12.3444 26.4377 11.2513 26.4375H5.62635C5.47717 26.4375 5.33409 26.4968 5.2286 26.6023C5.12311 26.7077 5.06385 26.8508 5.06385 27C5.06385 27.1492 5.12311 27.2923 5.2286 27.3977C5.33409 27.5032 5.47717 27.5625 5.62635 27.5625H10.6888V30.375H3.93885C3.49145 30.3745 3.06251 30.1966 2.74615 29.8802C2.42979 29.5638 2.25184 29.1349 2.25135 28.6875ZM34.875 34.3125H1.125V31.5H34.875V34.3125Z" fill="black"/>
<path d="M26.1577 27C26.714 27 27.2577 26.8351 27.7203 26.526C28.1828 26.217 28.5433 25.7777 28.7561 25.2638C28.969 24.7499 29.0247 24.1844 28.9162 23.6388C28.8077 23.0932 28.5398 22.5921 28.1465 22.1988C27.7531 21.8054 27.252 21.5376 26.7064 21.429C26.1608 21.3205 25.5953 21.3762 25.0814 21.5891C24.5675 21.802 24.1282 22.1624 23.8192 22.625C23.5102 23.0875 23.3452 23.6312 23.3452 24.1875C23.3461 24.9332 23.6427 25.648 24.1699 26.1753C24.6972 26.7025 25.4121 26.9991 26.1577 27ZM26.1577 22.5C26.4915 22.5 26.8177 22.599 27.0952 22.7844C27.3727 22.9698 27.589 23.2334 27.7168 23.5417C27.8445 23.8501 27.8779 24.1894 27.8128 24.5167C27.7477 24.8441 27.587 25.1447 27.351 25.3807C27.115 25.6167 26.8143 25.7775 26.4869 25.8426C26.1596 25.9077 25.8203 25.8743 25.5119 25.7465C25.2036 25.6188 24.94 25.4025 24.7546 25.125C24.5692 24.8475 24.4702 24.5213 24.4702 24.1875C24.4707 23.7401 24.6487 23.3112 24.965 22.9948C25.2814 22.6784 25.7103 22.5005 26.1577 22.5Z" fill="black"/>
</g>
<defs>
<clipPath id="clip0_25218_9810">
<rect width="36" height="36" fill="white"/>
</clipPath>
</defs>
</svg>
