<svg width="36" height="36" viewBox="0 0 36 36" fill="none" xmlns="http://www.w3.org/2000/svg">
<g clip-path="url(#clip0_25218_9814)">
<path d="M1.5188 10.7998C1.5188 10.7998 4.8938 24.8061 8.66255 27.2811C12.0938 29.5311 25.2 27.2811 25.2 27.2811" stroke="black" stroke-width="2" stroke-miterlimit="10" stroke-linecap="round" stroke-linejoin="round"/>
<path d="M19.3501 28.0127L21.6563 34.0314" stroke="black" stroke-width="2" stroke-miterlimit="10" stroke-linecap="round" stroke-linejoin="round"/>
<path d="M12.0375 28.2939L9.7312 34.3127" stroke="black" stroke-width="2" stroke-miterlimit="10" stroke-linecap="round" stroke-linejoin="round"/>
<path d="M3.71265 32.6812C11.6439 36.2249 19.4626 36.5624 27.1689 32.6812" stroke="black" stroke-width="2" stroke-miterlimit="10" stroke-linecap="round" stroke-linejoin="round"/>
<path d="M34.8752 29.0812C34.4814 29.5875 33.9189 29.8687 33.3564 29.8687C32.9627 29.8687 32.5689 29.7562 32.2314 29.475L25.0877 24.1875H11.9252C11.1377 24.1875 10.4064 23.6812 10.1252 22.95L5.51266 10.6312C5.17516 9.61871 5.62516 8.54996 6.63766 8.15621C7.59391 7.81871 8.71891 8.26871 9.05641 9.28121L10.0127 11.7562C9.33766 11.4187 8.55016 11.5312 7.93141 12.0937C7.14391 12.7687 7.08766 14.0062 7.76266 14.7937C7.87516 14.9062 9.50641 16.7062 12.2627 17.8875L13.2189 20.4187H25.6502C26.0439 20.4187 26.4377 20.5312 26.7752 20.8125L34.4814 26.4375C35.3252 27.0562 35.5502 28.2375 34.8752 29.0812Z" stroke="black" stroke-width="2" stroke-miterlimit="10" stroke-linecap="round" stroke-linejoin="round"/>
<path d="M22.3875 18.0562C21.825 18.2812 21.2062 18.45 20.6437 18.5625C17.2687 19.4062 14.4562 18.7875 12.2625 17.8312C9.50622 16.65 7.87497 14.85 7.76247 14.7375C7.08747 13.95 7.14372 12.7687 7.93122 12.0375C8.49372 11.5312 9.33747 11.4187 10.0125 11.7C10.2375 11.8125 10.4625 11.925 10.6312 12.15C10.8 12.375 14.9625 16.7625 21.0937 14.4562C22.05 14.1187 23.175 14.5687 23.5125 15.5812C23.85 16.5937 23.3437 17.6625 22.3875 18.0562Z" stroke="black" stroke-width="2" stroke-miterlimit="10" stroke-linecap="round" stroke-linejoin="round"/>
<path d="M4.8375 6.3C6.42187 6.3 7.70625 5.01562 7.70625 3.43125C7.70625 1.84688 6.42187 0.5625 4.8375 0.5625C3.25313 0.5625 1.96875 1.84688 1.96875 3.43125C1.96875 5.01562 3.25313 6.3 4.8375 6.3Z" stroke="black" stroke-width="2" stroke-miterlimit="10" stroke-linecap="round" stroke-linejoin="round"/>
</g>
<defs>
<clipPath id="clip0_25218_9814">
<rect width="36" height="36" fill="white"/>
</clipPath>
</defs>
</svg>
