<svg width="19" height="18" viewBox="0 0 19 18" fill="none" xmlns="http://www.w3.org/2000/svg">
<path d="M2.41748 5.12439H3.02793V5.51111H2.41748V5.12439Z" fill="black"/>
<path d="M4.573 5.12439H8.34597V5.51111H4.573V5.12439Z" fill="black"/>
<path d="M3.49243 5.12439H4.10289V5.51111H3.49243V5.12439Z" fill="black"/>
<path d="M2.8689 3.76855H6.64187V4.15527H2.8689V3.76855Z" fill="black"/>
<path d="M1.78857 3.76855H2.39896V4.15527H1.78857V3.76855Z" fill="black"/>
<path d="M11.9526 2.91077C12.2185 2.92133 12.4463 3.04125 12.6411 3.23303L12.6499 3.24182H12.6489L14.5874 5.65588C15.091 5.64467 15.6838 5.798 16.1714 6.06995C16.7902 6.41509 17.1742 6.89818 17.2192 7.43909C17.2642 7.98003 16.9649 8.51986 16.4116 8.96252C15.9385 9.34102 15.3196 9.60495 14.7905 9.64905C14.5883 9.66585 14.3868 9.65091 14.1899 9.60706L13.9019 9.7301L14.8755 10.2448C15.1076 10.3674 15.2785 10.574 15.356 10.8248C15.4332 11.0755 15.4082 11.3419 15.2856 11.5739C15.1149 11.897 14.7812 12.0983 14.4155 12.0983C14.2565 12.0982 14.0977 12.0585 13.9565 11.984L11.3599 10.6119L8.88721 11.778C8.85496 11.7932 8.82005 11.8025 8.78467 11.8053L5.92041 12.027C5.91051 12.0338 5.89795 12.0435 5.88232 12.0543C5.84334 12.0813 5.78802 12.1204 5.72119 12.1666C5.58721 12.2594 5.40819 12.3834 5.229 12.5074C5.04984 12.6315 4.87049 12.7562 4.73486 12.8502C4.66705 12.8972 4.61008 12.9365 4.56982 12.9645C4.52817 12.9934 4.50735 13.0075 4.50732 13.0074C4.33676 13.1381 4.12508 13.2115 3.90771 13.2115C3.65623 13.2114 3.4169 13.1156 3.23389 12.943C3.04291 12.7629 2.93302 12.5188 2.92529 12.2565C2.91857 12.0262 2.98648 11.7723 3.17627 11.5787C3.17857 11.576 3.17983 11.5733 3.18115 11.5719C3.18778 11.5648 3.19556 11.5576 3.20264 11.5514C3.21706 11.5387 3.23535 11.5233 3.25635 11.5074C3.29874 11.4754 3.35686 11.4345 3.42432 11.3883C3.55951 11.2957 3.73767 11.1796 3.9165 11.0641C4.27144 10.8347 4.64006 10.6038 4.68896 10.5778L4.68994 10.5768L5.87939 9.96448C5.78784 9.71152 5.73877 9.44682 5.73877 9.17346C5.73879 8.98176 5.76234 8.7953 5.80615 8.61682C5.80426 8.61242 5.80255 8.60742 5.80029 8.60217C5.78785 8.57326 5.76987 8.53165 5.74854 8.48206C5.70586 8.38289 5.64925 8.25025 5.59229 8.1178C5.53533 7.98538 5.47796 7.85246 5.43506 7.75256C5.41367 7.70277 5.39591 7.66091 5.3833 7.63147C5.37709 7.61697 5.37211 7.60541 5.36865 7.59729C5.367 7.59341 5.36572 7.58984 5.36475 7.58752C5.36431 7.58649 5.36314 7.58544 5.36279 7.58459V7.58264L5.36182 7.58069C5.36158 7.58008 5.36064 7.57818 5.35986 7.57581V7.57483C5.25286 7.23963 5.36712 6.88581 5.6499 6.67639C5.93268 6.46715 6.30391 6.46164 6.59326 6.66174H6.59424C6.5987 6.66489 6.61203 6.67592 6.62354 6.68518C6.63847 6.69721 6.65988 6.71468 6.68506 6.73499C6.73533 6.77554 6.80223 6.82881 6.86865 6.88245C6.93525 6.93622 7.00143 6.99062 7.05127 7.03088C7.06371 7.04093 7.07534 7.05006 7.08545 7.05823C7.38662 6.91648 7.72236 6.83656 8.07666 6.83655C8.08748 6.83655 9.2783 6.85809 10.4634 6.87952C11.0564 6.89024 11.6491 6.90077 12.0933 6.90881C12.3151 6.91283 12.4999 6.91623 12.6294 6.91858C12.6843 6.91957 12.7296 6.91992 12.7632 6.92053C12.8128 6.79498 12.8744 6.67607 12.9468 6.56506C12.9448 6.564 12.942 6.56323 12.9399 6.56213C12.8727 6.52669 12.7767 6.47633 12.6616 6.41565C12.4311 6.29408 12.1237 6.13172 11.8159 5.96936C11.5081 5.80698 11.2 5.64354 10.9683 5.52112C10.8524 5.45991 10.7551 5.40876 10.687 5.37268C10.6532 5.35477 10.6264 5.34056 10.6079 5.33069C10.5986 5.32575 10.5906 5.32172 10.5854 5.31897C10.5832 5.31776 10.5811 5.31689 10.5796 5.31604C10.5788 5.3156 10.5776 5.31464 10.5767 5.31409L10.5747 5.31311L10.5718 5.31116C10.5704 5.31027 10.5671 5.30783 10.5649 5.30627C10.3559 5.14801 10.2202 4.91755 10.1841 4.65784C10.1481 4.39803 10.2154 4.13856 10.3735 3.92932C10.5077 3.74948 10.677 3.65385 10.812 3.60315C10.8794 3.57787 10.939 3.56341 10.9829 3.5553C10.9866 3.55462 10.9902 3.55394 10.9937 3.55334C11.0453 3.4124 11.1286 3.28052 11.2466 3.17151C11.4395 2.99338 11.6902 2.90068 11.9526 2.91077ZM14.5073 6.24573C13.9124 6.29523 13.4092 6.71568 13.2563 7.2926V7.29358C13.2219 7.42249 13.105 7.51352 12.9683 7.51038V7.51135H12.9536C12.9445 7.51119 12.931 7.51069 12.9136 7.51038C12.8779 7.50973 12.8249 7.50865 12.7583 7.50745C12.6251 7.50503 12.4349 7.50182 12.2065 7.49768C11.7496 7.48939 11.14 7.47846 10.5298 7.46741C9.91966 7.45636 9.30885 7.44542 8.84912 7.43713C8.61924 7.43299 8.42684 7.42881 8.2915 7.42639C8.22396 7.42519 8.17015 7.42411 8.1333 7.42346C8.11517 7.42314 8.10107 7.42363 8.09131 7.42346C8.08104 7.42329 8.07664 7.42249 8.07666 7.42249C7.1115 7.42256 6.32584 8.20833 6.32568 9.17346C6.32568 9.45284 6.39034 9.72016 6.51709 9.96838C6.59057 10.1123 6.53379 10.2889 6.39014 10.3629L4.9624 11.0963C4.96147 11.0969 4.9607 11.0985 4.95947 11.0992C4.95457 11.1024 4.9473 11.1069 4.93799 11.1129C4.91914 11.125 4.89149 11.1425 4.85693 11.1647C4.78787 11.2091 4.69055 11.2716 4.57764 11.3444C4.35156 11.49 4.06237 11.6767 3.81201 11.8395C3.7754 11.8633 3.73147 11.8896 3.68604 11.9215C3.63949 11.9542 3.60597 11.9833 3.59033 12.0045C3.47406 12.1612 3.49863 12.3865 3.63623 12.5162C3.70949 12.5853 3.92457 12.7022 4.1626 12.5328C4.17418 12.5244 4.20018 12.5061 4.23193 12.484C4.27399 12.4547 4.33346 12.4136 4.40381 12.3649C4.54448 12.2674 4.73023 12.1386 4.91553 12.0104C5.10082 11.8822 5.28583 11.7546 5.42432 11.6588C5.49347 11.611 5.55096 11.5705 5.59131 11.5426C5.61135 11.5288 5.62738 11.5178 5.63818 11.5104C5.64359 11.5066 5.64809 11.5035 5.65088 11.5016C5.65213 11.5007 5.65313 11.5001 5.65381 11.4996H5.65479L5.65576 11.4987C5.69807 11.4698 5.74738 11.4528 5.79834 11.4489L8.68408 11.2242L11.2437 10.0192C11.3269 9.97999 11.4239 9.98205 11.5054 10.025L14.231 11.4655C14.289 11.4961 14.3509 11.5113 14.4155 11.5114C14.5635 11.5114 14.6981 11.4299 14.7671 11.2994C14.8165 11.2057 14.8266 11.0989 14.7954 10.9977C14.7641 10.8963 14.6958 10.8129 14.6021 10.7633L13.0825 9.96155C12.9825 9.90868 12.9215 9.80216 12.9263 9.68909C12.9311 9.57615 13.0011 9.47651 13.105 9.43225L14.0015 9.05042C14.0713 9.00659 14.1563 8.99235 14.2368 9.01526C14.401 9.06204 14.5708 9.07833 14.7417 9.06409C15.1524 9.02989 15.6545 8.8163 16.0454 8.50354C16.4615 8.17049 16.6608 7.79795 16.6353 7.48792C16.6094 7.17773 16.3511 6.8425 15.8853 6.58264C15.448 6.33884 14.9177 6.21156 14.5073 6.24573ZM6.25537 7.14124C6.1599 7.07773 6.06252 7.10069 5.99854 7.14807C5.93549 7.19484 5.88527 7.27974 5.91553 7.38733L6.13037 7.8844C6.2525 7.70068 6.40025 7.53647 6.56787 7.39417L6.25537 7.14124ZM11.104 4.12952C10.999 4.14408 10.9063 4.19832 10.8423 4.28284C10.7782 4.36746 10.7506 4.47167 10.7651 4.57678C10.7788 4.67532 10.8282 4.76252 10.9038 4.82581L13.3501 6.11487C13.3909 6.08111 13.4327 6.04863 13.4761 6.01819L11.3901 4.19983C11.307 4.14003 11.2058 4.1154 11.104 4.12952ZM11.9292 3.49768C11.8387 3.49405 11.6965 3.52613 11.6021 3.64905C11.6231 3.66063 11.6436 3.67252 11.6616 3.68323C11.6875 3.69856 11.7109 3.7134 11.728 3.72424C11.7363 3.72947 11.7434 3.73357 11.7485 3.73694C11.7511 3.73861 11.7535 3.74056 11.7554 3.74182L11.7612 3.74573C11.7619 3.74624 11.7643 3.74819 11.7671 3.75061H11.7681L13.5601 5.31311L12.2017 3.62073C12.13 3.54511 12.0336 3.50183 11.9292 3.49768Z" fill="black" stroke="black" stroke-width="0.2"/>
<path d="M6.56494 13.1555H7.17532V13.5422H6.56494V13.1555Z" fill="black"/>
<path d="M8.72021 13.1555H12.4932V13.5422H8.72021V13.1555Z" fill="black"/>
<path d="M7.63989 13.1555H8.25028V13.5422H7.63989V13.1555Z" fill="black"/>
<path d="M3.5498 14.5114H4.16019V14.8981H3.5498V14.5114Z" fill="black"/>
<path d="M5.70508 14.5114H9.47812V14.8981H5.70508V14.5114Z" fill="black"/>
<path d="M4.62451 14.5114H5.23489V14.8981H4.62451V14.5114Z" fill="black"/>
</svg>
