<svg width="30" height="30" viewBox="0 0 30 30" fill="none" xmlns="http://www.w3.org/2000/svg">
<path d="M15.233 21.1516L25.6177 10.7669C25.6738 10.7109 25.7018 10.6427 25.7018 10.5625C25.7018 10.4823 25.6738 10.4142 25.6177 10.3581L24.4015 9.14189C24.3452 9.08585 24.2771 9.05783 24.1971 9.05783C24.1169 9.05783 24.0488 9.08585 23.9927 9.14189L13.608 19.5266L15.233 21.1516ZM7.3893 23.4135C5.53034 23.3093 4.13451 22.8959 3.2018 22.1731C2.26909 21.4504 1.80273 20.4279 1.80273 19.1056C1.80273 17.8398 2.33398 16.813 3.39648 16.0253C4.45898 15.2376 5.93576 14.7604 7.8268 14.5938C8.73555 14.5152 9.41711 14.351 9.87148 14.101C10.3257 13.851 10.5527 13.5048 10.5527 13.0625C10.5527 12.4488 10.2454 11.9804 9.63086 11.6575C9.01628 11.3346 8.00867 11.1026 6.60805 10.9616L6.77867 9.09846C8.70013 9.28117 10.122 9.69544 11.0443 10.3413C11.9666 10.9871 12.4277 11.8942 12.4277 13.0625C12.4277 14.0544 12.0468 14.8409 11.2849 15.4219C10.5228 16.0027 9.41659 16.3517 7.96617 16.4688C6.5368 16.589 5.46471 16.8678 4.74992 17.3053C4.03513 17.7428 3.67773 18.3429 3.67773 19.1056C3.67773 19.8829 3.97544 20.4612 4.57086 20.8403C5.16628 21.2193 6.13138 21.452 7.46617 21.5385L7.3893 23.4135ZM15.5262 23.5119L11.2474 19.2331L22.9205 7.57221C23.2891 7.20367 23.7198 7.02137 24.2127 7.02533C24.7054 7.02929 25.1361 7.21158 25.5046 7.57221L27.1874 9.25471C27.556 9.62346 27.7402 10.0562 27.7402 10.5528C27.7402 11.0497 27.556 11.4824 27.1874 11.851L15.5262 23.5119ZM11.3509 24.375C11.0688 24.4423 10.8204 24.3686 10.6059 24.1538C10.3911 23.939 10.3173 23.6906 10.3846 23.4088L11.2474 19.2331L15.5262 23.5119L11.3509 24.375Z" fill="black"/>
</svg>
