<svg width="36" height="36" viewBox="0 0 36 36" fill="none" xmlns="http://www.w3.org/2000/svg">
<g clip-path="url(#clip0_25218_9807)">
<path d="M26.09 18.4343L33.7299 13.3324C33.8784 13.2323 33.9717 13.0681 33.9796 12.8881C33.9875 12.7092 33.9087 12.5359 33.7681 12.4246L18.3534 0.122699C18.1475 -0.0415508 17.8572 -0.0415508 17.6514 0.122699L2.23437 12.4246C2.09374 12.5359 2.01612 12.7081 2.02287 12.8881C2.03074 13.0681 2.12299 13.2323 2.27262 13.3324L9.91137 18.4321C9.93387 18.6245 9.95187 18.8202 9.98224 19.0092V19.0103C10.4682 21.9995 11.9701 24.5183 14.0064 25.9707L13.7307 28.0205C12.0174 28.4288 5.39787 30.3042 3.60012 35.2463C3.53712 35.4185 3.56299 35.6108 3.66762 35.7616C3.77337 35.9101 3.94549 36.0001 4.12887 36.0001H18.0024H31.8747C32.0581 36.0001 32.2302 35.9101 32.336 35.7605C32.4406 35.6108 32.4665 35.4185 32.4035 35.2452C30.6069 30.3031 23.9874 28.4277 22.2729 28.0193L21.9972 25.9696C24.1606 24.4261 25.7109 21.6721 26.09 18.4343ZM10.9565 17.3757C10.952 17.2565 10.9441 17.1383 10.943 17.018C10.9722 16.9493 10.9902 16.8751 10.9902 16.7952C10.9902 14.8827 14.201 13.2672 18.0012 13.2672C18.7426 13.2672 19.4592 13.3302 20.1365 13.4438C17.3915 14.1346 12.95 15.4924 10.9565 17.3757ZM18.0012 12.1411C14.9806 12.1411 12.3942 13.0366 10.9902 14.399V13.0175C10.9902 11.1049 14.201 9.48945 18.0012 9.48945C21.8026 9.48945 25.0145 11.1049 25.0145 13.0175V14.4001C23.6105 13.0366 21.023 12.1411 18.0012 12.1411ZM25.0145 16.7941C25.0145 16.8728 25.0314 16.9471 25.0595 17.0146C25.0584 17.2328 25.0482 17.45 25.0347 17.6648C24.0864 16.5196 23.5677 15.3394 23.2932 14.5126C24.3575 15.1325 25.0145 15.9323 25.0145 16.7941ZM3.53824 12.824L7.93249 9.31732V13.4888C7.93249 13.7993 8.18449 14.0513 8.49499 14.0513C8.80549 14.0513 9.05749 13.7993 9.05749 13.4888V8.41958L18.0024 1.28257L32.4642 12.824L26.1845 17.018C26.1845 16.9797 26.189 16.9426 26.189 16.9043C26.189 16.8233 26.1699 16.7468 26.1395 16.6771V13.0175C26.1395 10.4086 22.5642 8.36445 18.0012 8.36445C13.4382 8.36445 9.86524 10.4075 9.86524 13.0175V16.6748C9.83374 16.7457 9.81462 16.8211 9.81462 16.9043C9.81462 16.9426 9.81799 16.9786 9.81912 17.0157L3.53824 12.824ZM12.2615 29.6281L15.8412 34.8751H4.99062C6.47899 32.0052 9.98899 30.4021 12.2615 29.6281ZM18.0024 34.8751H17.2036L15.7602 32.7601H20.2434L18.8011 34.8751H18.0024ZM31.0141 34.8751H20.1624L23.7421 29.627C26.0157 30.3987 29.5246 32.0007 31.0141 34.8751ZM21.2097 28.5582C21.2412 28.7967 21.4212 28.988 21.6575 29.0352C21.6744 29.0386 22.0456 29.1173 22.6194 29.2771L21.0106 31.6351H14.9919L13.3831 29.2782C13.9569 29.1173 14.3281 29.0386 14.345 29.0352C14.5812 28.988 14.7612 28.7967 14.7927 28.5582L15.056 26.594C15.9706 27.044 16.9617 27.3005 18.0001 27.3005C19.0385 27.3005 20.0296 27.044 20.9442 26.594L21.2097 28.5582ZM18.0024 26.1755C14.6555 26.1755 11.852 23.102 11.1264 18.9946C11.8632 17.0022 17.9337 15.0368 22.013 14.1548C22.2616 15.1595 22.985 17.2598 24.8514 19.1172C24.0931 23.1627 21.3144 26.1755 18.0024 26.1755Z" fill="#333333"/>
</g>
<defs>
<clipPath id="clip0_25218_9807">
<rect width="36" height="36" fill="white"/>
</clipPath>
</defs>
</svg>
