<svg width="50" height="50" viewBox="0 0 50 50" fill="none" xmlns="http://www.w3.org/2000/svg">
<path d="M24.6713 13.6335C26.6184 13.6335 28.1972 12.0541 28.1972 10.1064C28.1971 8.15799 26.6184 6.5791 24.6713 6.5791C22.7235 6.5791 21.144 8.15799 21.144 10.1063C21.144 12.0541 22.7235 13.6335 24.6713 13.6335Z" fill="#999999"/>
<path d="M34.0644 25.7222L30.1333 16.7068C29.7371 15.7977 28.9032 15.1945 27.9469 15.0321C27.8022 14.9939 21.5399 14.9933 21.3903 15.0334C20.4352 15.1963 19.6031 15.7995 19.2076 16.7074L15.277 25.7216C15.0413 26.263 15.0941 26.8863 15.4175 27.3803C15.7409 27.8745 16.2914 28.1719 16.8819 28.1719C17.5784 28.1719 18.2082 27.7595 18.4869 27.1212L19.9682 23.7243V41.5008C19.9682 42.5559 20.8234 43.4109 21.8784 43.4109C22.9341 43.4109 23.7891 42.5559 23.7891 41.5008V29.5098H25.5529V41.5008C25.5529 42.5559 26.408 43.4109 27.463 43.4109C28.5173 43.4109 29.3725 42.5559 29.3725 41.5014V23.723L30.8546 27.1219C31.1331 27.7602 31.7629 28.1726 32.4595 28.1726C33.0499 28.1726 33.6005 27.8752 33.9239 27.3811C34.2474 26.8874 34.3006 26.2636 34.0644 25.7222Z" fill="#999999"/>
</svg>
