<svg width="50" height="50" viewBox="0 0 50 50" fill="none" xmlns="http://www.w3.org/2000/svg">
<path d="M31.6346 29.9332L34.21 29.1201L31.3712 20.2286C30.56 17.688 28.2231 15.981 25.556 15.981H24.6865V43.8049H27.3398V36.1606H31.3728L27.6346 24.3193L29.6604 23.6798L31.6346 29.9332Z" fill="#999999"/>
<path d="M15.1313 22.0853V29.7903H17.7847V22.2994H19.9091V43.8049H22.5624V15.981H21.2358C17.8697 15.981 15.1313 18.7193 15.1313 22.0853Z" fill="#999999"/>
<path d="M26.5446 11.9094C27.2118 10.2998 26.4478 8.45412 24.8383 7.78695C23.2287 7.11977 21.383 7.88374 20.7158 9.49332C20.0487 11.1029 20.8126 12.9486 22.4222 13.6157C24.0318 14.2829 25.8775 13.5189 26.5446 11.9094Z" fill="#999999"/>
</svg>
