<svg width="50" height="50" viewBox="0 0 50 50" fill="none" xmlns="http://www.w3.org/2000/svg">
<path d="M25.0458 13.1819C22.9094 13.1819 21.1367 11.4546 21.1367 9.31827C21.1367 7.18191 22.864 5.40918 25.0004 5.40918C27.1367 5.40918 28.9094 7.13645 28.9094 9.27282C28.9094 11.4546 27.1822 13.1819 25.0458 13.1819Z" fill="#999999"/>
<path d="M19.1365 33.0456C19.0001 33.0456 18.8638 33.0002 18.7729 32.8638C18.682 32.7275 18.6365 32.5911 18.682 32.4093C19.091 30.5456 20.0001 26.682 20.682 23.5911C21.1365 21.7275 21.5001 20.1365 21.6365 19.4093C21.682 19.182 21.5456 18.9093 21.3183 18.8184H21.2729H21.182C20.9547 18.8184 20.7729 18.9547 20.7274 19.182L20.4092 20.3638L18.2274 27.5911C18.0456 28.2275 17.5001 28.6365 16.8638 28.6365C16.682 28.6365 16.5456 28.5911 16.3638 28.5456C15.682 28.2729 15.2729 27.5456 15.5001 26.8638C15.9547 25.1365 16.5456 23.3638 17.091 21.6365C17.5456 20.2729 17.9547 18.9547 18.2729 17.7729C18.7729 15.7729 20.591 14.3638 22.6365 14.4093H27.4092C29.4547 14.4093 31.2729 15.8184 31.7729 17.7729C32.0456 18.7729 32.4092 19.8638 32.7729 20.9547C33.4092 22.9093 34.0456 24.9547 34.591 26.9093C34.7729 27.6365 34.4092 28.3638 33.7274 28.5911C33.5001 28.5911 33.3638 28.6365 33.182 28.6365C32.5456 28.6365 32.0001 28.2275 31.8183 27.5911L29.6365 20.3638L29.3183 19.182C29.2729 18.9547 29.091 18.8184 28.8638 18.8184H28.8183H28.7274C28.5001 18.9093 28.3183 19.1365 28.4092 19.4093C28.591 20.1365 28.9547 21.7275 29.3638 23.5911C30.091 26.682 31.0001 30.5456 31.3638 32.4093C31.4092 32.5911 31.3638 32.7275 31.2729 32.8638C31.182 32.9547 31.0456 33.0456 30.9092 33.0456H19.1365Z" fill="#999999"/>
<path d="M22.7273 44.5908C21.7727 44.5908 21 43.8181 21 42.8635V32.0908H24.4545V42.909C24.4545 43.8181 23.6818 44.5908 22.7273 44.5908Z" fill="#999999"/>
<path d="M27.2727 44.5908C26.3181 44.5908 25.5454 43.8181 25.5454 42.8635V32.0908H29V42.909C29 43.8181 28.2272 44.5908 27.2727 44.5908Z" fill="#999999"/>
</svg>
