<svg width="10" height="10" viewBox="0 0 10 10" fill="none" xmlns="http://www.w3.org/2000/svg">
<path d="M4.5 5.5C4.5 5.22386 4.72386 5 5 5C5.27614 5 5.5 5.22386 5.5 5.5V7C5.5 7.27614 5.27614 7.5 5 7.5C4.72386 7.5 4.5 7.27614 4.5 7V5.5ZM5 2.75C4.58579 2.75 4.25 3.08579 4.25 3.5C4.25 3.91421 4.58579 4.25 5 4.25C5.41421 4.25 5.75 3.91421 5.75 3.5C5.75 3.08579 5.41421 2.75 5 2.75ZM0 5C0 2.23858 2.23858 0 5 0C7.76142 0 10 2.23858 10 5C10 7.76142 7.76142 10 5 10C2.23858 10 0 7.76142 0 5ZM5 1C2.79086 1 1 2.79086 1 5C1 7.20914 2.79086 9 5 9C7.20914 9 9 7.20914 9 5C9 2.79086 7.20914 1 5 1Z" fill="#666666"/>
</svg>
