<svg width="30" height="30" viewBox="0 0 30 30" fill="none" xmlns="http://www.w3.org/2000/svg">
<g clip-path="url(#clip0_25336_15201)">
<path d="M9.14679 24.2793H5.14526V11.045H9.14679V24.2793ZM9.54605 6.82854C9.54605 5.50342 8.49654 4.42786 7.20364 4.42786C5.90582 4.42786 4.85899 5.50342 4.85899 6.82854C4.85899 8.15413 5.90582 9.22969 7.20364 9.22969C8.49654 9.22969 9.54605 8.15413 9.54605 6.82854ZM24.1235 16.9983C24.1235 13.4457 23.3908 10.8108 19.3395 10.8108C17.3928 10.8108 16.086 11.8081 15.5526 12.8452H15.5488V11.045H11.6616V24.2793H15.5488V17.7084C15.5488 15.9875 15.9764 14.3204 18.0587 14.3204C20.1126 14.3204 20.1791 16.2883 20.1791 17.8177V24.2793H24.1235V16.9983ZM29.2683 25.9775V3.02244C29.2683 1.08497 27.7298 -0.491089 25.8384 -0.491089H3.42988C1.53853 -0.491089 0 1.08497 0 3.02244V25.9775C0 27.915 1.53853 29.4911 3.42988 29.4911H25.8384C27.7298 29.4911 29.2683 27.915 29.2683 25.9775ZM25.8384 1.85127C26.4688 1.85127 26.9817 2.3767 26.9817 3.02244V25.9775C26.9817 26.6233 26.4688 27.1487 25.8384 27.1487H3.42988C2.7995 27.1487 2.28659 26.6233 2.28659 25.9775V3.02244C2.28659 2.3767 2.7995 1.85127 3.42988 1.85127H25.8384Z" fill="black"/>
</g>
<defs>
<clipPath id="clip0_25336_15201">
<rect width="30" height="30" fill="white"/>
</clipPath>
</defs>
</svg>
