<svg width="9" height="11" viewBox="0 0 9 11" fill="none" xmlns="http://www.w3.org/2000/svg">
<path d="M4.25 10.125C3.66925 9.61275 3.01542 9.21546 2.2885 8.93313C1.56158 8.65079 0.79875 8.49679 0 8.47113V3.38463C0.80325 3.40704 1.57071 3.57433 2.30238 3.8865C3.03413 4.19867 3.68333 4.61663 4.25 5.14038C4.81667 4.61663 5.46588 4.19867 6.19763 3.8865C6.92929 3.57433 7.69675 3.40704 8.5 3.38463V8.47113C7.69617 8.49679 6.93204 8.65079 6.20762 8.93313C5.48329 9.21546 4.83075 9.61275 4.25 10.125ZM4.25 9.1615C4.775 8.77308 5.33333 8.4615 5.925 8.22675C6.51667 7.992 7.125 7.83692 7.75 7.7615V4.21537C7.11925 4.32371 6.5085 4.53846 5.91775 4.85962C5.32708 5.18071 4.77117 5.60183 4.25 6.123C3.72883 5.60183 3.17292 5.18071 2.58225 4.85962C1.9915 4.53846 1.38075 4.32371 0.75 4.21537V7.7615C1.375 7.83692 1.98333 7.992 2.575 8.22675C3.16667 8.4615 3.725 8.77308 4.25 9.1615ZM4.25 3.61537C3.75292 3.61537 3.32737 3.43837 2.97338 3.08438C2.61937 2.73038 2.44238 2.30479 2.44238 1.80762C2.44238 1.31054 2.61937 0.885 2.97338 0.531C3.32737 0.177 3.75292 0 4.25 0C4.74708 0 5.17263 0.177 5.52663 0.531C5.88063 0.885 6.05762 1.31054 6.05762 1.80762C6.05762 2.30479 5.88063 2.73038 5.52663 3.08438C5.17263 3.43837 4.74708 3.61537 4.25 3.61537ZM4.25013 2.86537C4.54104 2.86537 4.79004 2.76179 4.99713 2.55463C5.20421 2.34746 5.30775 2.09842 5.30775 1.8075C5.30775 1.51658 5.20417 1.26758 4.997 1.0605C4.78983 0.8535 4.54079 0.75 4.24988 0.75C3.95896 0.75 3.70996 0.853583 3.50288 1.06075C3.29579 1.26792 3.19225 1.51696 3.19225 1.80788C3.19225 2.09879 3.29583 2.34775 3.503 2.55475C3.71017 2.76183 3.95921 2.86537 4.25013 2.86537Z" fill="black"/>
</svg>
