<svg viewBox="0 0 22 24" fill="none" xmlns="http://www.w3.org/2000/svg">
<path d="M4.69951 7.6991C4.69951 7.31254 5.01287 6.99918 5.39942 6.99918H12.3986C12.7852 6.99918 13.0985 7.31254 13.0985 7.6991C13.0985 8.08565 12.7852 8.39901 12.3986 8.39901H5.39942C5.01287 8.39901 4.69951 8.08565 4.69951 7.6991ZM5.39942 11.1987C5.01287 11.1987 4.69951 11.512 4.69951 11.8986C4.69951 12.2852 5.01287 12.5985 5.39942 12.5985H12.3986C12.7852 12.5985 13.0985 12.2852 13.0985 11.8986C13.0985 11.512 12.7852 11.1987 12.3986 11.1987H5.39942ZM4.69951 16.0981C4.69951 15.7116 5.01287 15.3982 5.39942 15.3982H8.1991C8.58565 15.3982 8.89901 15.7116 8.89901 16.0981C8.89901 16.4847 8.58565 16.798 8.1991 16.798H5.39942C5.01287 16.798 4.69951 16.4847 4.69951 16.0981ZM3.29967 0.699918C3.29967 0.313364 3.61303 0 3.99959 0C4.38614 0 4.69951 0.313364 4.69951 0.699918V1.39984H8.1991V0.699918C8.1991 0.313364 8.51246 0 8.89901 0C9.28557 0 9.59893 0.313364 9.59893 0.699918V1.39984H13.0985V0.699918C13.0985 0.313364 13.4119 0 13.7984 0C14.185 0 14.4984 0.313364 14.4984 0.699918V1.39984H15.1983C16.3579 1.39984 17.298 2.33993 17.298 3.49959V10.1231C16.8414 10.3187 16.4137 10.6029 16.041 10.9756L15.8982 11.1184V3.49959C15.8982 3.11303 15.5848 2.79967 15.1983 2.79967H2.59975C2.2132 2.79967 1.89984 3.11304 1.89984 3.49959V20.2976C1.89984 20.6842 2.2132 20.9975 2.59975 20.9975H7.8078L7.57919 21.912C7.53831 22.0755 7.51338 22.2377 7.50318 22.3974H2.59975C1.44009 22.3974 0.5 21.4573 0.5 20.2976V3.49959C0.5 2.33993 1.44009 1.39984 2.59975 1.39984H3.29967V0.699918ZM17.0309 11.9655L10.2705 18.7259C9.87635 19.12 9.59672 19.6139 9.46153 20.1547L8.93732 22.2515C8.70936 23.1634 9.53532 23.9893 10.4472 23.7614L12.544 23.2372C13.0848 23.102 13.5787 22.8223 13.9728 22.4282L20.7332 15.6678C21.7556 14.6454 21.7556 12.9878 20.7332 11.9655C19.7109 10.9431 18.0533 10.9431 17.0309 11.9655Z" fill="currentColor"/>
</svg>
