<svg viewBox="0 0 22 24" fill="none" xmlns="http://www.w3.org/2000/svg">
<path d="M17.0309 11.9655L10.2705 18.7259C9.87635 19.12 9.59672 19.6139 9.46153 20.1547L8.93732 22.2515C8.70936 23.1634 9.53532 23.9893 10.4472 23.7614L12.544 23.2372C13.0848 23.102 13.5787 22.8223 13.9728 22.4282L20.7332 15.6678C21.7556 14.6454 21.7556 12.9878 20.7332 11.9655C19.7109 10.9431 18.0533 10.9431 17.0309 11.9655ZM4.69951 0.699918C4.69951 0.313364 4.38614 0 3.99959 0C3.61303 0 3.29967 0.313364 3.29967 0.699918V1.39984H2.59975C1.44009 1.39984 0.5 2.33993 0.5 3.49959V20.2976C0.5 21.4573 1.44009 22.3974 2.59975 22.3974H7.50318C7.51338 22.2377 7.53831 22.0755 7.57919 21.912L8.10339 19.8152C8.30012 19.0283 8.707 18.3096 9.28059 17.736L16.041 10.9756C16.4137 10.6029 16.8414 10.3187 17.298 10.1231V3.49959C17.298 2.33993 16.3579 1.39984 15.1983 1.39984H14.4984V0.699918C14.4984 0.313364 14.185 0 13.7984 0C13.4119 0 13.0985 0.313364 13.0985 0.699918V1.39984H9.59893V0.699918C9.59893 0.313364 9.28557 0 8.89901 0C8.51246 0 8.1991 0.313364 8.1991 0.699918V1.39984H4.69951V0.699918ZM5.39942 6.99918H12.3986C12.7852 6.99918 13.0985 7.31254 13.0985 7.6991C13.0985 8.08565 12.7852 8.39901 12.3986 8.39901H5.39942C5.01287 8.39901 4.69951 8.08565 4.69951 7.6991C4.69951 7.31254 5.01287 6.99918 5.39942 6.99918ZM13.0985 11.8986C13.0985 12.2852 12.7852 12.5985 12.3986 12.5985H5.39942C5.01287 12.5985 4.69951 12.2852 4.69951 11.8986C4.69951 11.512 5.01287 11.1987 5.39942 11.1987H12.3986C12.7852 11.1987 13.0985 11.512 13.0985 11.8986ZM5.39942 15.3982H8.1991C8.58565 15.3982 8.89901 15.7116 8.89901 16.0981C8.89901 16.4847 8.58565 16.798 8.1991 16.798H5.39942C5.01287 16.798 4.69951 16.4847 4.69951 16.0981C4.69951 15.7116 5.01287 15.3982 5.39942 15.3982Z" fill="currentColor"/>
</svg>
