<svg viewBox="0 0 17 16" fill="none" xmlns="http://www.w3.org/2000/svg">
<path d="M15.9313 0.926893C14.7791 -0.284951 12.8547 -0.309226 11.6722 0.873168L2.29741 10.2475C1.96958 10.5754 1.74204 10.9899 1.64148 11.4424L0.763865 15.3923C0.726784 15.5592 0.777543 15.7335 0.898442 15.8544C1.01934 15.9753 1.19362 16.026 1.3605 15.9889L5.28689 15.1157C5.75432 15.0118 6.18243 14.7767 6.52103 14.4381L15.879 5.08003C17.02 3.939 17.0433 2.09631 15.9313 0.926893ZM12.3793 1.58029C13.1643 0.795384 14.4417 0.811498 15.2066 1.61596C15.9448 2.39225 15.9293 3.61548 15.1719 4.37293L14.5007 5.04418L11.708 2.25155L12.3793 1.58029ZM11.0009 2.95864L13.7936 5.7513L5.81391 13.731C5.60976 13.9352 5.35164 14.0769 5.06982 14.1396L1.9105 14.8421L2.61768 11.6593C2.67698 11.3924 2.81117 11.148 3.0045 10.9547L11.0009 2.95864Z" fill="currentColor"/>
</svg>
