<svg width="10" height="10" viewBox="0 0 10 10" fill="none" xmlns="http://www.w3.org/2000/svg">
<path d="M7.05224 0.435134C6.3425 -0.274607 5.14947 -0.100546 4.67209 0.782392L3.14488 3.60708L0.814922 4.53552C0.658682 4.59778 0.544211 4.73442 0.510286 4.89915C0.476361 5.06388 0.527528 5.23463 0.646455 5.35356L2.29296 7.00007L0.14655 9.14648L0 10L0.853657 9.85359L3.00007 7.70718L4.64645 9.35356C4.7653 9.4724 4.9359 9.52359 5.10054 9.48979C5.26518 9.456 5.40183 9.34175 5.46425 9.1857L6.39704 6.85371L9.21798 5.32796C10.1008 4.8505 10.2747 3.6576 9.56503 2.94792L7.05224 0.435134Z" fill="currentColor"/>
</svg>
