<svg viewBox="0 0 23 22" fill="none" xmlns="http://www.w3.org/2000/svg">
<path d="M0.5 6.5V18.75C0.5 20.5449 1.95507 22 3.75 22H19.25C21.0449 22 22.5 20.5449 22.5 18.75V6.5H0.5ZM16.7587 14.5014C17.4491 14.5014 18.0087 15.0611 18.0087 15.7514C18.0087 16.4418 17.4491 17.0014 16.7587 17.0014C16.0684 17.0014 15.5087 16.4418 15.5087 15.7514C15.5087 15.0611 16.0684 14.5014 16.7587 14.5014ZM11.5043 14.5014C12.1946 14.5014 12.7543 15.0611 12.7543 15.7514C12.7543 16.4418 12.1946 17.0014 11.5043 17.0014C10.8139 17.0014 10.2543 16.4418 10.2543 15.7514C10.2543 15.0611 10.8139 14.5014 11.5043 14.5014ZM16.7587 9.50141C17.4491 9.50141 18.0087 10.0611 18.0087 10.7514C18.0087 11.4418 17.4491 12.0014 16.7587 12.0014C16.0684 12.0014 15.5087 11.4418 15.5087 10.7514C15.5087 10.0611 16.0684 9.50141 16.7587 9.50141ZM11.5043 9.50141C12.1946 9.50141 12.7543 10.0611 12.7543 10.7514C12.7543 11.4418 12.1946 12.0014 11.5043 12.0014C10.8139 12.0014 10.2543 11.4418 10.2543 10.7514C10.2543 10.0611 10.8139 9.50141 11.5043 9.50141ZM6.24978 9.50141C6.94014 9.50141 7.49978 10.0611 7.49978 10.7514C7.49978 11.4418 6.94014 12.0014 6.24978 12.0014C5.55943 12.0014 4.99978 11.4418 4.99978 10.7514C4.99978 10.0611 5.55943 9.50141 6.24978 9.50141ZM3.75 0C1.95507 0 0.5 1.45507 0.5 3.25V5H22.5V3.25C22.5 1.45507 21.0449 0 19.25 0H3.75Z" fill="currentColor"/>
</svg>
