<svg viewBox="0 0 23 23" fill="none" xmlns="http://www.w3.org/2000/svg">
<path d="M3.75 0.5C1.95507 0.5 0.5 1.95507 0.5 3.75V19.25C0.5 21.0449 1.95507 22.5 3.75 22.5H19.25C21.0449 22.5 22.5 21.0449 22.5 19.25V3.75C22.5 1.95507 21.0449 0.5 19.25 0.5H3.75ZM2 7.003H21V19.25C21 20.2165 20.2165 21 19.25 21H3.75C2.7835 21 2 20.2165 2 19.25V7.003ZM16.7512 15.0014C16.0609 15.0014 15.5012 15.5611 15.5012 16.2514C15.5012 16.9418 16.0609 17.5014 16.7512 17.5014C17.4416 17.5014 18.0012 16.9418 18.0012 16.2514C18.0012 15.5611 17.4416 15.0014 16.7512 15.0014ZM11.4967 15.0014C10.8064 15.0014 10.2467 15.5611 10.2467 16.2514C10.2467 16.9418 10.8064 17.5014 11.4967 17.5014C12.1871 17.5014 12.7467 16.9418 12.7467 16.2514C12.7467 15.5611 12.1871 15.0014 11.4967 15.0014ZM16.7512 10.0014C16.0609 10.0014 15.5012 10.5611 15.5012 11.2514C15.5012 11.9418 16.0609 12.5014 16.7512 12.5014C17.4416 12.5014 18.0012 11.9418 18.0012 11.2514C18.0012 10.5611 17.4416 10.0014 16.7512 10.0014ZM11.4967 10.0014C10.8064 10.0014 10.2467 10.5611 10.2467 11.2514C10.2467 11.9418 10.8064 12.5014 11.4967 12.5014C12.1871 12.5014 12.7467 11.9418 12.7467 11.2514C12.7467 10.5611 12.1871 10.0014 11.4967 10.0014ZM6.24226 10.0014C5.5519 10.0014 4.99226 10.5611 4.99226 11.2514C4.99226 11.9418 5.5519 12.5014 6.24226 12.5014C6.93262 12.5014 7.49226 11.9418 7.49226 11.2514C7.49226 10.5611 6.93262 10.0014 6.24226 10.0014ZM3.75 2H19.25C20.2165 2 21 2.7835 21 3.75V5.503H2V3.75C2 2.7835 2.7835 2 3.75 2Z" fill="currentColor"/>
</svg>
