<svg viewBox="0 0 24 24" fill="none" xmlns="http://www.w3.org/2000/svg">
<path d="M12 18.6667C12.3778 18.6667 12.6944 18.5389 12.95 18.2833C13.2056 18.0278 13.3333 17.7111 13.3333 17.3333C13.3333 16.9556 13.2056 16.6389 12.95 16.3833C12.6944 16.1278 12.3778 16 12 16C11.6222 16 11.3056 16.1278 11.05 16.3833C10.7944 16.6389 10.6667 16.9556 10.6667 17.3333C10.6667 17.7111 10.7944 18.0278 11.05 18.2833C11.3056 18.5389 11.6222 18.6667 12 18.6667ZM10.6667 13.3333H13.3333V5.33333H10.6667V13.3333ZM7 24L0 17V7L7 0H17L24 7V17L17 24H7Z" fill="currentColor"/>
</svg>
