<svg viewBox="0 0 23 23" fill="none" xmlns="http://www.w3.org/2000/svg">
<path d="M11.5 17.5972C11.7961 17.5972 12.0444 17.4971 12.2448 17.2967C12.4451 17.0963 12.5453 16.848 12.5453 16.5519C12.5453 16.2558 12.4451 16.0075 12.2448 15.8071C12.0444 15.607 11.7961 15.5069 11.5 15.5069C11.2039 15.5069 10.9556 15.607 10.7552 15.8071C10.5549 16.0075 10.4547 16.2558 10.4547 16.5519C10.4547 16.848 10.5549 17.0963 10.7552 17.2967C10.9556 17.4971 11.2039 17.5972 11.5 17.5972ZM10.5294 13.0927H12.4706V5.27821H10.5294V13.0927ZM6.92076 22.5L0.5 16.0851V6.92077L6.91494 0.5H16.0792L22.5 6.91494V16.0792L16.0851 22.5H6.92076ZM7.74706 20.5588H15.2529L20.5588 15.2529V7.74706L15.2529 2.44118H7.74706L2.44118 7.74706V15.2529L7.74706 20.5588Z" fill="currentColor"/>
</svg>



