<svg width="50" height="50" viewBox="0 0 50 50" fill="none" xmlns="http://www.w3.org/2000/svg">
<path d="M13.1411 44.7918C12.0887 44.7918 11.1979 44.4272 10.4688 43.6981C9.73958 42.9689 9.375 42.0781 9.375 41.0257V8.97464C9.375 7.92221 9.73958 7.03141 10.4688 6.30225C11.1979 5.57308 12.0887 5.2085 13.1411 5.2085H30.9693L40.625 14.8642V41.0257C40.625 42.0781 40.2604 42.9689 39.5312 43.6981C38.8021 44.4272 37.9113 44.7918 36.8589 44.7918H13.1411ZM13.1411 41.6668H36.8589C37.0193 41.6668 37.1661 41.6 37.2995 41.4663C37.4332 41.333 37.5 41.1861 37.5 41.0257V16.4262H29.4073V8.3335H13.1411C12.9807 8.3335 12.8339 8.40034 12.7005 8.53402C12.5668 8.66735 12.5 8.81422 12.5 8.97464V41.0257C12.5 41.1861 12.5668 41.333 12.7005 41.4663C12.8339 41.6 12.9807 41.6668 13.1411 41.6668ZM25 38.7621C27.1128 38.7621 28.8964 38.0062 30.3505 36.4944C31.8047 34.9826 32.5318 33.1677 32.5318 31.0496V22.1153H29.4073V31.0496C29.4073 32.3024 28.9845 33.3802 28.1391 34.283C27.2936 35.1858 26.2472 35.6371 25 35.6371C23.774 35.6371 22.733 35.1858 21.8771 34.283C21.0208 33.3802 20.5927 32.3024 20.5927 31.0496V19.6314C20.5927 19.1988 20.7304 18.8335 21.0057 18.5356C21.2807 18.238 21.6172 18.0892 22.0151 18.0892C22.4345 18.0892 22.7766 18.238 23.0411 18.5356C23.3054 18.8335 23.4375 19.1988 23.4375 19.6314V31.0496H26.5625V19.6314C26.5625 18.3467 26.1259 17.2477 25.2526 16.3345C24.379 15.421 23.2998 14.9642 22.0151 14.9642C20.7304 14.9642 19.6514 15.421 18.7781 16.3345C17.9049 17.2477 17.4682 18.3467 17.4682 19.6314V31.0496C17.4682 33.1677 18.2007 34.9826 19.6656 36.4944C21.1306 38.0062 22.9087 38.7621 25 38.7621Z" fill="#1F1F1F"/>
</svg>
