<svg width="18" height="18" viewBox="0 0 18 18" fill="none" xmlns="http://www.w3.org/2000/svg">
<path d="M7.93433 4.74084C9.37322 4.74091 10.4748 5.11071 11.2947 5.87756C11.8778 6.42306 12.3139 7.16793 12.657 8.1969C12.6762 8.18566 12.6997 8.17297 12.7263 8.15979C12.7959 8.12529 12.89 8.08714 12.9861 8.07678C13.2143 8.04893 13.4361 8.11347 13.6091 8.24866C13.7642 8.13593 13.9107 8.03036 14.031 7.94299C14.2116 7.81181 14.3046 7.74395 14.3601 7.70959C14.3879 7.69239 14.4102 7.68147 14.4314 7.67542C14.4536 7.66916 14.4726 7.66858 14.488 7.66858H15.4812C15.843 7.66859 16.1831 7.81047 16.4382 8.06702C16.6933 8.32354 16.8328 8.66426 16.8308 9.026C16.8267 9.76625 16.2214 10.3688 15.4812 10.3688H15.0574L13.2488 12.0065L13.2664 12.4176H13.2654C13.2785 12.5265 13.2391 12.7086 13.1306 12.8649C13.0185 13.0263 12.8307 13.1636 12.5486 13.1676H11.8416C11.5571 13.1676 11.3025 13.0001 11.1873 12.7477L11.1472 12.6344C11.145 12.6255 11.1145 12.4959 11.0847 12.3698C11.0693 12.3043 11.0533 12.2391 11.0417 12.1901C11.0379 12.1738 11.0348 12.1592 11.032 12.1471H5.49097C5.48811 12.1592 5.48408 12.1737 5.48022 12.1901C5.46865 12.239 5.45367 12.3044 5.43823 12.3698L5.37573 12.6344C5.29201 12.9484 5.00641 13.1675 4.6814 13.1676H3.97241C3.69385 13.1534 3.5096 13.0334 3.39819 12.8815C3.28827 12.7315 3.25092 12.5529 3.25659 12.4225L3.24976 11.7047C3.24515 11.7048 3.24027 11.7056 3.23511 11.7057C3.19302 11.7064 3.13247 11.7074 3.0603 11.7086C2.916 11.7111 2.72358 11.7141 2.53101 11.7174C2.14838 11.7239 1.76366 11.731 1.75659 11.7311C1.49059 11.7311 1.26421 11.5673 1.18042 11.3121C1.09504 11.0519 1.18553 10.7807 1.40991 10.6237C1.41303 10.6215 1.41655 10.6199 1.41675 10.6198C1.41769 10.6193 1.41883 10.6192 1.41968 10.6188C1.42162 10.6178 1.42378 10.6161 1.42651 10.6149C1.43222 10.6122 1.44035 10.6085 1.44995 10.6041C1.46943 10.5953 1.49689 10.5832 1.52905 10.569C1.59333 10.5405 1.67815 10.5035 1.76245 10.4664C1.84667 10.4294 1.93096 10.3924 1.9939 10.3649C2.02019 10.3533 2.04287 10.3422 2.0603 10.3346C2.03469 10.227 2.02914 10.114 2.04761 10.0016C2.11326 9.60265 2.4759 9.30357 2.8894 9.30334H2.89819C3.07294 7.92614 3.49858 6.88216 4.20288 6.12268C5.05545 5.2034 6.31367 4.74084 7.93433 4.74084ZM13.8875 8.64807C14.0021 8.99843 13.8772 9.39599 13.5544 9.60803L11.6091 10.9362C11.5688 10.9637 11.5213 10.9791 11.4724 10.9791H3.7312C3.73124 10.9834 3.73116 10.988 3.7312 10.9928C3.73154 11.0339 3.73159 11.0931 3.73218 11.1637C3.73335 11.3048 3.7355 11.4931 3.73706 11.6813C3.74016 12.056 3.74307 12.4357 3.74292 12.4391C3.74163 12.469 3.75071 12.5281 3.78491 12.5797C3.81754 12.6287 3.87493 12.6742 3.97827 12.6813H4.6814C4.78498 12.6811 4.87592 12.6117 4.90405 12.5123L5.06128 11.8473C5.08728 11.7376 5.18576 11.6598 5.29858 11.6598H11.2244C11.3372 11.6598 11.4357 11.7375 11.4617 11.8473L11.6189 12.5123H11.6179C11.646 12.6119 11.7378 12.6813 11.8416 12.6813H12.5437C12.6454 12.672 12.7037 12.626 12.7371 12.5768C12.7718 12.5254 12.7813 12.4681 12.78 12.4391L12.7576 11.9137C12.7545 11.8416 12.7833 11.7718 12.8367 11.7233L14.8005 9.94495C14.8453 9.90441 14.9042 9.88147 14.9646 9.88147H15.4812C15.9543 9.88145 16.3419 9.49622 16.3445 9.02307C16.3457 8.79171 16.2566 8.57385 16.0935 8.40979C15.9303 8.24565 15.7127 8.1559 15.4812 8.15588H14.5662C14.4517 8.23878 14.1898 8.42825 13.8875 8.64807ZM1.67554 11.0338C1.62357 11.0797 1.63616 11.139 1.64331 11.1608C1.65109 11.1841 1.68061 11.2457 1.76147 11.2438H1.76245L3.24585 11.2174L3.2439 10.9791H2.87378C2.6627 10.9791 2.46201 10.8987 2.30835 10.7574L1.67554 11.0338ZM7.93433 5.22717C6.68467 5.22717 5.69866 5.5145 4.96362 6.09045C5.08759 6.12012 5.21503 6.14849 5.34546 6.17151L5.39429 6.1803L5.38647 6.22913L5.31909 6.60999L5.3103 6.65881L5.2605 6.65002C5.05698 6.6141 4.85804 6.57084 4.66968 6.52014L4.62183 6.50647L4.63452 6.45862L4.66089 6.35608C3.97747 7.03536 3.55266 8.02849 3.38159 9.34827C3.50533 9.38155 3.63305 9.415 3.7644 9.44397L3.81323 9.45471L3.80249 9.50354L3.71948 9.88147L3.70874 9.9303L3.65991 9.91956C3.47948 9.87977 3.30407 9.83516 3.13745 9.78772C3.13566 9.78778 3.13369 9.78767 3.13159 9.78772C3.12378 9.78791 3.11334 9.78852 3.10132 9.7887C3.07685 9.78905 3.04461 9.78941 3.01343 9.78967C2.9823 9.78993 2.95148 9.79051 2.92847 9.79065H2.8894C2.70873 9.79087 2.55487 9.91787 2.52808 10.0807C2.51988 10.1311 2.52545 10.2275 2.57397 10.3141C2.62099 10.3978 2.71029 10.4758 2.87866 10.4918H11.3972L13.2839 9.20374V9.20276C13.4486 9.09453 13.4934 8.87686 13.3875 8.71545C13.3126 8.60172 13.1207 8.48951 12.9089 8.60999L12.908 8.61292C12.9033 8.61755 12.8957 8.62429 12.8875 8.63245C12.871 8.64871 12.8485 8.67125 12.824 8.69495C12.7754 8.74186 12.7163 8.79771 12.6814 8.82483L12.6775 8.82776L12.6765 8.82678C12.5163 8.92786 12.3436 9.02475 12.1677 9.11096L12.1228 9.13245L12.1003 9.08752L11.9304 8.74084L11.9089 8.69592L11.9539 8.67346C12.0576 8.62262 12.1554 8.5686 12.2488 8.51526C11.9286 7.48553 11.4731 6.52761 10.571 5.91467L10.572 5.91565L10.5935 5.96057L10.5486 5.98206C10.3723 6.06597 10.1845 6.14523 9.99097 6.21741L9.94409 6.23499L9.92651 6.18811L9.79175 5.82581L9.77417 5.77893L9.82104 5.76135C9.91618 5.72588 10.0084 5.68579 10.0994 5.64709C9.53756 5.3833 8.83276 5.22722 7.93433 5.22717Z" fill="black" stroke="black" stroke-width="0.1"/>
<path d="M11.578 8.89722C11.4162 8.96399 11.2437 9.02853 11.0652 9.08904L11.1894 9.45529C11.3757 9.39212 11.5561 9.3246 11.7256 9.25467L11.578 8.89722Z" fill="black"/>
<path d="M9.13892 9.55844L9.20168 9.94003C9.38981 9.9091 9.57762 9.87445 9.75994 9.83707L9.68226 9.45825C9.5049 9.4946 9.32208 9.5283 9.13892 9.55844Z" fill="black"/>
<path d="M10.1133 9.36223L10.2038 9.73822C10.3915 9.69304 10.5766 9.6439 10.754 9.59222L10.6458 9.22095C10.4742 9.27093 10.2951 9.31848 10.1133 9.36223Z" fill="black"/>
<path d="M4.11841 9.95865C4.30012 9.99053 4.48951 10.019 4.68132 10.0433L4.72992 9.65967C4.54417 9.63614 4.3609 9.60857 4.18521 9.57776L4.11841 9.95865Z" fill="black"/>
<path d="M8.15186 9.6879L8.18996 10.0727C8.37835 10.0541 8.56778 10.032 8.75301 10.0071L8.70142 9.62378C8.52066 9.64811 8.33576 9.66968 8.15186 9.6879Z" fill="black"/>
<path d="M7.42287 9.74379C7.33416 9.74862 7.24584 9.75274 7.15796 9.75614L7.17291 10.1426C7.26279 10.1391 7.35315 10.1349 7.44395 10.1299C7.54271 10.1245 7.64089 10.1183 7.73845 10.1113L7.71073 9.72559C7.61536 9.73244 7.51937 9.73852 7.42287 9.74379Z" fill="black"/>
<path d="M5.1333 10.0926C5.31855 10.1097 5.50902 10.1234 5.69946 10.1335L5.71985 9.7473C5.53443 9.73752 5.34901 9.72413 5.1688 9.70752L5.1333 10.0926Z" fill="black"/>
<path d="M6.1619 9.76404L6.15283 10.1506C6.27689 10.1536 6.65574 10.1547 6.71967 10.1539L6.71518 9.76722C6.52932 9.76934 6.34414 9.76832 6.1619 9.76404Z" fill="black"/>
<path d="M4.4642 7.84738C4.27133 7.81197 4.08376 7.77092 3.90676 7.72534L3.8103 8.09982C3.99609 8.14767 4.19261 8.19071 4.39437 8.22775L4.4642 7.84738Z" fill="black"/>
<path d="M9.60986 7.67749C9.42581 7.71931 9.236 7.75803 9.04565 7.79254L9.11465 8.17307C9.31056 8.13753 9.50602 8.09767 9.69558 8.05458L9.60986 7.67749Z" fill="black"/>
<path d="M11.7283 7.38434L11.5665 7.03308C11.4005 7.10953 11.2233 7.18346 11.0398 7.25284L11.1765 7.61457C11.3685 7.54203 11.5541 7.46455 11.7283 7.38434Z" fill="black"/>
<path d="M10.7267 7.77225L10.6073 7.40442C10.4299 7.46201 10.2447 7.51672 10.0566 7.56702L10.1566 7.94059C10.3511 7.88856 10.5429 7.83192 10.7267 7.77225Z" fill="black"/>
<path d="M6.523 8.40746V8.02074C6.523 8.02074 6.16352 8.02038 5.94711 8.00879L5.93042 8.39513C6.11983 8.40333 6.523 8.40746 6.523 8.40746Z" fill="black"/>
<path d="M7.55933 7.98108C7.36742 7.99541 7.17374 8.00601 6.98364 8.01254L6.99694 8.39903C7.19218 8.39231 7.39108 8.38145 7.5881 8.36674L7.55933 7.98108Z" fill="black"/>
<path d="M5.48768 7.98032C5.29355 7.96454 5.10149 7.94392 4.91682 7.91907L4.86523 8.30231C5.0566 8.32809 5.25547 8.34942 5.45634 8.36576L5.48768 7.98032Z" fill="black"/>
<path d="M8.59085 7.86719C8.40269 7.89488 8.21022 7.91921 8.0188 7.93957L8.0597 8.32413C8.25623 8.30323 8.45386 8.27821 8.64713 8.24979L8.59085 7.86719Z" fill="black"/>
<path d="M8.40747 6.19275C8.22191 6.22572 8.03142 6.25359 7.84131 6.27555L7.88568 6.6597C8.08356 6.63686 8.28186 6.60785 8.47515 6.5735L8.40747 6.19275Z" fill="black"/>
<path d="M9.40679 5.9541C9.22844 6.00845 9.04296 6.05795 8.85547 6.10127L8.94248 6.47806C9.1386 6.43278 9.33273 6.38095 9.51952 6.32402L9.40679 5.9541Z" fill="black"/>
<path d="M7.38523 6.31726C7.19434 6.3302 7.00198 6.33741 6.81348 6.33871L6.81616 6.72543C7.01244 6.72407 7.21271 6.71656 7.41136 6.70311L7.38523 6.31726Z" fill="black"/>
<path d="M6.35626 6.3303C6.16385 6.32174 5.97246 6.30673 5.78746 6.28564L5.74365 6.66987C5.93748 6.69196 6.13783 6.70769 6.33912 6.71664L6.35626 6.3303Z" fill="black"/>
</svg>
