<svg width="30" height="30" viewBox="0 0 30 30" fill="none" xmlns="http://www.w3.org/2000/svg">
<path d="M13.844 22.0327H16.1561V15.2518L19.0222 18.0857L20.6468 16.48L15 10.8975L9.38296 16.4506L11.0072 18.0564L13.844 15.2518V22.0327ZM3.14356 26.4286C2.36492 26.4286 1.70586 26.1619 1.16639 25.6286C0.626915 25.0952 0.357178 24.4437 0.357178 23.6739V6.32608C0.357178 5.5563 0.626915 4.90474 1.16639 4.37141C1.70586 3.83808 2.36492 3.57141 3.14356 3.57141H11.606L14.6887 6.61903H26.8565C27.6352 6.61903 28.2942 6.8857 28.8337 7.41903C29.3732 7.95236 29.6429 8.60392 29.6429 9.3737V23.6739C29.6429 24.4437 29.3732 25.0952 28.8337 25.6286C28.2942 26.1619 27.6352 26.4286 26.8565 26.4286H3.14356ZM3.14356 24.1428H26.8565C26.995 24.1428 27.1087 24.0989 27.1975 24.011C27.2864 23.9232 27.3309 23.8108 27.3309 23.6739V9.3737C27.3309 9.23681 27.2864 9.12443 27.1975 9.03655C27.1087 8.94868 26.995 8.90474 26.8565 8.90474H13.7431L10.6604 5.85713H3.14356C3.00509 5.85713 2.89142 5.90106 2.80254 5.98894C2.71365 6.07681 2.66921 6.18919 2.66921 6.32608V23.6739C2.66921 23.8108 2.71365 23.9232 2.80254 24.011C2.89142 24.0989 3.00509 24.1428 3.14356 24.1428Z" fill="black"/>
</svg>
