<svg viewBox="0 0 15 15" fill="none" xmlns="http://www.w3.org/2000/svg">
<path d="M2.4501 0.600098C1.56644 0.600098 0.850098 1.31644 0.850098 2.2001V9.4001C0.850098 10.2838 1.56644 11.0001 2.4501 11.0001H4.8501V12.6001H3.6501C3.42918 12.6001 3.2501 12.7792 3.2501 13.0001C3.2501 13.221 3.42918 13.4001 3.6501 13.4001H6.49011C6.46387 13.2709 6.4501 13.1371 6.4501 13.0001V12.6001H5.6501V11.0001H6.4501V10.2001H2.4501C2.00827 10.2001 1.6501 9.84193 1.6501 9.4001V2.2001C1.6501 1.75827 2.00827 1.4001 2.4501 1.4001H12.0501C12.4919 1.4001 12.8501 1.75827 12.8501 2.2001V6.59995C13.2429 6.89503 13.5236 7.33139 13.6166 7.8336C13.6278 7.83568 13.639 7.83784 13.6501 7.84011V2.2001C13.6501 1.31644 12.9338 0.600098 12.0501 0.600098H2.4501ZM8.8501 8.6001V8.2001C8.8501 7.53736 9.38736 7.0001 10.0501 7.0001H11.6501C12.3128 7.0001 12.8501 7.53736 12.8501 8.2001V8.6001H13.2501C13.9128 8.6001 14.4501 9.13736 14.4501 9.8001V11.0001H12.8501V10.6001C12.8501 10.3792 12.671 10.2001 12.4501 10.2001C12.2292 10.2001 12.0501 10.3792 12.0501 10.6001V11.0001H9.6501V10.6001C9.6501 10.3792 9.47101 10.2001 9.2501 10.2001C9.02918 10.2001 8.8501 10.3792 8.8501 10.6001V11.0001H7.2501V9.8001C7.2501 9.13736 7.78736 8.6001 8.4501 8.6001H8.8501ZM9.6501 8.2001V8.6001H12.0501V8.2001C12.0501 7.97918 11.871 7.8001 11.6501 7.8001H10.0501C9.82918 7.8001 9.6501 7.97918 9.6501 8.2001ZM12.8501 12.2001V11.8001H14.4501V13.0001C14.4501 13.6628 13.9128 14.2001 13.2501 14.2001H8.4501C7.78736 14.2001 7.2501 13.6628 7.2501 13.0001V11.8001H8.8501V12.2001C8.8501 12.421 9.02918 12.6001 9.2501 12.6001C9.47101 12.6001 9.6501 12.421 9.6501 12.2001V11.8001H12.0501V12.2001C12.0501 12.421 12.2292 12.6001 12.4501 12.6001C12.671 12.6001 12.8501 12.421 12.8501 12.2001Z" fill="currentColor"/>
</svg>
